<?xml-stylesheet href="spot.css" type="text/css"?><svg width="254pt" height="211pt" viewBox="0 0 254 211.4" xmlns="http://www.w3.org/2000/svg"><g class="graph" transform="translate(4 207.4)"><path fill="#fff" stroke="transparent" d="M-4 4v-211.4h254V4H-4z"/><text x="104" y="-176.8" font-family="Lato" font-size="12">[Büchi]</text><g class="node"><circle fill="#ffffa0" stroke="#000" cx="56" cy="-68" r="18"/><text text-anchor="middle" x="56" y="-64.9" font-family="Lato" font-size="12">0</text></g><g class="edge"><path fill="none" stroke="#000" d="M1.123-68h29.801"/><path stroke="#000" d="M37.98-68l-7-3.15 3.5 3.15h-3.5 3.5l-3.5 3.15 7-3.15h0z"/></g><g class="edge"><path fill="none" stroke="#000" d="M49.62-85.037C48.32-94.857 50.446-104 56-104c4.166 0 6.404 5.142 6.713 11.857"/><path stroke="#000" d="M62.38-85.037l3.474-6.845-3.31 3.349.164-3.497h0l-.165 3.496-2.982-3.643 2.818 7.14h0z"/><text x="52.5" y="-107.4" font-family="Lato" font-size="12">1</text></g><g class="node"><circle fill="#ffffa0" stroke="#000" cx="142" cy="-115" r="18"/><circle fill="none" stroke="#000" cx="142" cy="-115" r="22"/><text x="138.5" y="-111.9" font-family="Lato" font-size="12">1</text></g><g class="edge"><path fill="none" stroke="#000" d="M72.176-76.84l44.078-24.09"/><path stroke="#000" d="M122.584-104.39l-7.653.594 4.582 1.085-3.071 1.679h0l3.071-1.679-1.56 4.443 4.631-6.121h0z"/><text x="93.5" y="-95.4" font-family="Lato" font-size="12">b</text></g><g class="node"><circle fill="#ffffa0" stroke="#000" cx="142" cy="-22" r="18"/><circle fill="none" stroke="#000" cx="142" cy="-22" r="22"/><text text-anchor="middle" x="142" y="-18.9" font-family="Lato" font-size="12">2</text></g><g class="edge"><path fill="none" stroke="#000" d="M72.176-59.348l44.078 23.577"/><path stroke="#000" d="M122.584-32.385l-4.687-6.08 1.601 4.43-3.086-1.652h0l3.086 1.651-4.572 1.127 7.658.524h0z"/><text x="92" y="-51.4" font-family="Lato" font-size="12">!a</text></g><g class="edge"><path fill="none" stroke="#000" d="M133.994-135.58C132.886-145.846 135.554-155 142-155c4.834 0 7.544 5.15 8.129 12.055"/><path stroke="#000" d="M150.006-135.58l3.267-6.947-3.208 3.447.058-3.5h0l-.058 3.5-3.091-3.552 3.032 7.051h0z"/><text x="138.5" y="-158.4" font-family="Lato" font-size="12">b</text></g><g class="node"><circle fill="#ffffa0" stroke="#000" cx="228" cy="-115" r="18"/><text text-anchor="middle" x="228" y="-111.9" font-family="Lato" font-size="12">3</text></g><g class="edge"><path fill="none" stroke="#000" d="M164.147-115h38.563"/><path stroke="#000" d="M209.98-115l-7-3.15 3.5 3.15h-3.5 3.5l-3.5 3.15 7-3.15h0z"/><text x="182" y="-118.4" font-family="Lato" font-size="12">!b</text></g><g class="edge"><path fill="none" stroke="#000" d="M133.994-42.58C132.886-52.846 135.554-62 142-62c4.834 0 7.544 5.15 8.129 12.055"/><path stroke="#000" d="M150.006-42.58l3.267-6.947-3.208 3.447.058-3.5h0l-.058 3.5-3.091-3.552 3.032 7.051h0z"/><text x="137" y="-65.4" font-family="Lato" font-size="12">!a</text></g><g class="edge"><path fill="none" stroke="#000" d="M212.415-105.8c-6.144 3.127-13.4 6.227-20.415 7.8-8.083 1.812-16.687.228-24.44-2.58"/><path stroke="#000" d="M160.72-103.442l5.243 5.607-2.013-4.256 3.228 1.35h0l-3.228-1.35 4.444-1.555-7.673.204h0z"/><text x="183.5" y="-101.4" font-family="Lato" font-size="12">b</text></g><g class="edge"><path fill="none" stroke="#000" d="M220.969-131.664C219.406-141.625 221.75-151 228-151c4.688 0 7.178 5.273 7.47 12.112"/><path stroke="#000" d="M235.031-131.664l3.57-6.796-3.357 3.302.212-3.493h0l-.212 3.493-2.932-3.685 2.72 7.179h0z"/><text x="223" y="-154.4" font-family="Lato" font-size="12">!b</text></g></g></svg>