<?xml-stylesheet href="spot.css" type="text/css"?><svg width="298pt" height="310pt" viewBox="0 0 298 310.04" xmlns="http://www.w3.org/2000/svg"><g class="graph" transform="translate(4 306.037)"><path fill="#fff" stroke="transparent" d="M-4 4v-310.037h298V4H-4z"/><text x="126" y="-275.437" font-family="Lato" font-size="12">[Büchi]</text><g class="node"><circle fill="#ffffa0" stroke="#000" cx="56" cy="-111.637" r="18"/><text text-anchor="middle" x="56" y="-108.537" font-family="Lato" font-size="12">0</text></g><g class="edge"><path fill="none" stroke="#000" d="M1.123-111.637h29.801"/><path stroke="#000" d="M37.98-111.637l-7-3.15 3.5 3.15h-3.5 3.5l-3.5 3.15 7-3.15h0z"/></g><g class="node"><circle fill="#ffffa0" stroke="#000" cx="154" cy="-186.637" r="18"/><circle fill="none" stroke="#000" cx="154" cy="-186.637" r="22"/><text text-anchor="middle" x="154" y="-183.537" font-family="Lato" font-size="12">1</text></g><g class="edge"><path fill="none" stroke="#000" d="M68.336-125.374C75-132.421 83.571-140.912 92-147.637c11.322-9.034 24.844-17.75 36.365-24.642"/><path stroke="#000" d="M134.534-175.911l-7.63.837 4.614.939-3.016 1.775h0l3.016-1.775-1.418 4.49 4.434-6.266h0z"/><text text-anchor="middle" x="103" y="-166.037" font-family="Lato" font-size="12">1</text></g><g class="node"><circle fill="#ffffa0" stroke="#000" cx="154" cy="-48.637" r="18"/><text text-anchor="middle" x="154" y="-45.537" font-family="Lato" font-size="12">2</text></g><g class="edge"><path fill="none" stroke="#000" d="M71.313-101.794l61.53 39.556"/><path stroke="#000" d="M138.795-58.412l-4.185-6.435 1.24 4.542-2.943-1.892h0l2.944 1.892-4.648.757 7.592 1.136h0z"/><text x="92" y="-90.037" font-family="Lato" font-size="12">a | b</text></g><g class="node"><circle fill="#ffffa0" stroke="#000" cx="268" cy="-32.637" r="18"/><text text-anchor="middle" x="268" y="-29.537" font-family="Lato" font-size="12">3</text></g><g class="edge"><path fill="none" stroke="#000" d="M62.676-94.56C73.226-70.265 96.292-26.667 132-8.638c36.854 18.607 85.662 1.324 113.667-11.986"/><path stroke="#000" d="M251.985-23.727l-7.672.26 4.53 1.283-3.14 1.544h0l3.14-1.544-1.752 4.371 4.894-5.914h0z"/><text x="137" y="-12.037" font-family="Lato" font-size="12">!a &amp; !b</text></g><g class="node"><circle fill="#ffffa0" stroke="#000" cx="268" cy="-127.637" r="18"/><circle fill="none" stroke="#000" cx="268" cy="-127.637" r="22"/><text text-anchor="middle" x="268" y="-124.537" font-family="Lato" font-size="12">4</text></g><g class="edge"><path fill="none" stroke="#000" d="M74.075-113.001l164.767-12.436"/><path stroke="#000" d="M245.897-125.97l-7.218-2.613 3.728 2.877-3.49.264h0l3.49-.264-3.253 3.405 6.743-3.668h0z"/><text x="137" y="-123.037" font-family="Lato" font-size="12">!a &amp; !b</text></g><g class="edge"><path fill="none" stroke="#000" d="M144.955-206.807c-1.392-10.43 1.623-19.83 9.045-19.83 5.682 0 8.782 5.51 9.298 12.774"/><path stroke="#000" d="M163.045-206.807l3.399-6.883-3.273 3.385.125-3.498h0l-.125 3.498-3.023-3.61 2.897 7.108h0z"/><text x="150.5" y="-230.037" font-family="Lato" font-size="12">b</text></g><g class="node"><circle fill="#ffffa0" stroke="#000" cx="268" cy="-217.637" r="18"/><text text-anchor="middle" x="268" y="-214.537" font-family="Lato" font-size="12">5</text></g><g class="edge"><path fill="none" stroke="#000" d="M175.128-193.149c6.078-1.826 12.725-3.778 18.872-5.488 16.322-4.542 34.78-9.282 49.178-12.891"/><path stroke="#000" d="M250.304-213.306l-7.554-1.362 4.158 2.21-3.396.846h0l3.396-.847-2.634 3.904 6.03-4.75h0z"/><text x="206" y="-210.037" font-family="Lato" font-size="12">!b</text></g><g class="edge"><path fill="none" stroke="#000" d="M145.367-64.553c-2.253-10.235.625-20.084 8.633-20.084 6.131 0 9.255 5.773 9.372 13.073"/><path stroke="#000" d="M162.633-64.553l3.866-6.632-3.499 3.15.367-3.48h0l-.367 3.48-2.766-3.81 2.4 7.292h0z"/><text x="143" y="-88.037" font-family="Lato" font-size="12">a | b</text></g><g class="edge"><path fill="none" stroke="#000" d="M172.106-49.696c15.082-.514 37.06-.404 55.894 3.059 5.373.988 10.994 2.58 16.267 4.343"/><path stroke="#000" d="M251.187-39.824l-5.534-5.32L247.89-41l-3.296-1.177h0L247.89-41l-4.355 1.79 7.652-.614h0z"/><text x="194" y="-54.037" font-family="Lato" font-size="12">!a &amp; !b</text></g><g class="edge"><path fill="none" stroke="#000" d="M168.904-58.965l74.986-51.964"/><path stroke="#000" d="M249.7-114.956l-7.548 1.398 4.671.596-2.877 1.993h0l2.877-1.993-1.083 4.583 3.96-6.577h0z"/><text x="194" y="-103.037" font-family="Lato" font-size="12">!a &amp; !b</text></g><g class="edge"><path fill="none" stroke="#000" d="M250.122-29.339c-15.135 2.184-37.308 3.943-56.122-.298-6.037-1.361-12.233-3.745-17.89-6.374"/><path stroke="#000" d="M169.757-39.163l4.87 5.933-1.734-4.377 3.135 1.556h0l-3.135-1.556 4.535-1.266-7.67-.29h0z"/><text x="200" y="-33.037" font-family="Lato" font-size="12">a | b</text></g><g class="edge"><path fill="none" stroke="#000" d="M258.425-48.179c-2.695-10.367.497-20.458 9.575-20.458 6.95 0 10.45 5.915 10.5 13.34"/><path stroke="#000" d="M277.575-48.179l4.025-6.535-3.574 3.064.45-3.47h0l-.45 3.47-2.673-3.876 2.222 7.347h0z"/><text x="251" y="-72.037" font-family="Lato" font-size="12">!a &amp; !b</text></g><g class="edge"><path fill="none" stroke="#000" d="M257.933-147.395c-1.71-10.592 1.645-20.242 10.067-20.242 6.448 0 9.926 5.656 10.435 13.062"/><path stroke="#000" d="M278.067-147.395l3.504-6.83-3.325 3.335.18-3.496h0l-.18 3.496-2.967-3.657 2.788 7.152h0z"/><text x="251" y="-171.037" font-family="Lato" font-size="12">!a &amp; !b</text></g><g class="edge"><path fill="none" stroke="#000" d="M256.71-203.221c-7.233 8.017-17.37 17.232-28.71 21.584-14.332 5.5-31.364 4.792-45.473 2.467"/><path stroke="#000" d="M175.445-180.51l6.293 4.396-2.854-3.745 3.44.65h0l-3.44-.65 4.025-2.445-7.464 1.794h0z"/><text x="207.5" y="-185.037" font-family="Lato" font-size="12">b</text></g><g class="edge"><path fill="none" stroke="#000" d="M258.425-233.179c-2.695-10.367.497-20.458 9.575-20.458 6.95 0 10.45 5.915 10.5 13.34"/><path stroke="#000" d="M277.575-233.179l4.025-6.535-3.574 3.064.45-3.47h0l-.45 3.47-2.673-3.876 2.222 7.347h0z"/><text x="263" y="-257.037" font-family="Lato" font-size="12">!b</text></g></g></svg>