<svg xmlns="http://www.w3.org/2000/svg" xmlns:xlink="http://www.w3.org/1999/xlink" width="811.908" height="287.115" viewBox="0 0 608.931 215.336"><defs><symbol overflow="visible" id="y"><path d="M5.14-4.422h.36c.172 0 .469 0 .469-.36 0-.374-.282-.374-.469-.374H4.094c-.172 0-.469 0-.469.36 0 .374.281.374.469.374h.343L3.125-.578 1.828-4.422h.328c.188 0 .485 0 .485-.36 0-.374-.282-.374-.485-.374H.766c-.188 0-.485 0-.485.375 0 .36.297.36.485.36h.359L2.5-.36c.14.406.375.406.625.406.234 0 .516 0 .64-.39zm0 0"/></symbol><symbol overflow="visible" id="c"><path d="M3.547-6.813c0-.375-.063-.484-.469-.484h-1.89c-.204 0-.5 0-.5.36 0 .359.312.359.484.359h1.547v5.844H1.188c-.204 0-.5 0-.5.375C.688 0 1 0 1.171 0h3.937c.172 0 .47 0 .47-.36 0-.374-.282-.374-.47-.374H3.547zm0 0"/></symbol><symbol overflow="visible" id="e"><path d="M1.984-4.64v-2.173c0-.375-.078-.484-.484-.484H.64c-.203 0-.5 0-.5.36 0 .359.313.359.485.359h.531v6.094c0 .234 0 .484.422.484.406 0 .406-.234.406-.531.485.5 1 .61 1.391.61 1.297 0 2.453-1.141 2.453-2.657 0-1.469-1.062-2.64-2.328-2.64-.578 0-1.11.202-1.516.577zm0 2.359v-.875c0-.703.688-1.344 1.454-1.344.874 0 1.578.875 1.578 1.922 0 1.14-.844 1.922-1.688 1.922-.922 0-1.344-1.047-1.344-1.625zm0 0"/></symbol><symbol overflow="visible" id="f"><path d="M3.563-3.047c-.282-.047-.516-.078-.813-.14-.344-.047-1.156-.188-1.156-.657 0-.312.375-.687 1.515-.687.985 0 1.157.36 1.188.672.016.203.047.406.406.406.422 0 .422-.25.422-.485v-.828c0-.187 0-.5-.36-.5-.28 0-.327.172-.359.25-.515-.25-1.047-.25-1.281-.25-1.984 0-2.266.985-2.266 1.422 0 1.094 1.25 1.297 2.36 1.469.578.094 1.531.25 1.531.875 0 .453-.438.844-1.516.844-.562 0-1.234-.125-1.53-1.063-.063-.218-.11-.343-.423-.343-.422 0-.422.25-.422.484v1.156c0 .188 0 .5.36.5.11 0 .297-.015.437-.453.594.422 1.219.453 1.563.453 1.89 0 2.265-1 2.265-1.578 0-1.234-1.546-1.484-1.921-1.547zm0 0"/></symbol><symbol overflow="visible" id="g"><path d="M1.984-3.156c0-.703.688-1.344 1.454-1.344.874 0 1.578.875 1.578 1.922 0 1.14-.844 1.922-1.688 1.922-.922 0-1.344-1.047-1.344-1.625zm0 2.625c.485.5 1 .61 1.391.61 1.297 0 2.453-1.141 2.453-2.657 0-1.469-1.062-2.64-2.328-2.64-.578 0-1.11.202-1.516.577 0-.343-.03-.515-.484-.515H.64c-.203 0-.5 0-.5.375 0 .36.313.36.485.36h.531v6.343H.641c-.204 0-.5 0-.5.375 0 .36.312.36.484.36h1.89c.172 0 .485 0 .485-.36 0-.375-.297-.375-.484-.375h-.532zm0 0"/></symbol><symbol overflow="visible" id="h"><path d="M5.578-2.578c0-1.5-1.11-2.688-2.453-2.688-1.328 0-2.438 1.188-2.438 2.688C.688-1.063 1.813.078 3.126.078c1.328 0 2.453-1.156 2.453-2.656zM3.125-.656c-.875 0-1.625-.89-1.625-2.016 0-1.078.781-1.86 1.625-1.86.875 0 1.625.782 1.625 1.86 0 1.125-.734 2.016-1.625 2.016zm0 0"/></symbol><symbol overflow="visible" id="i"><path d="M2.656-4.422H4.61c.188 0 .485 0 .485-.36 0-.374-.282-.374-.485-.374H2.656v-.969c0-.234 0-.5-.406-.5-.422 0-.422.25-.422.5v.969H.781c-.187 0-.484 0-.484.375 0 .36.297.36.484.36h1.047V-1.5c0 1.14.813 1.578 1.688 1.578.89 0 1.843-.515 1.843-1.578 0-.219 0-.469-.406-.469s-.406.25-.406.453c-.016.735-.703.86-.969.86-.922 0-.922-.625-.922-.922zm0 0"/></symbol><symbol overflow="visible" id="j"><path d="M2.656-2.219c0-1.125.703-2.281 2.156-2.281 0 .297.204.531.5.531a.5.5 0 00.516-.515c0-.235-.156-.735-1.14-.735-.61 0-1.375.203-2.032.969v-.406c0-.375-.078-.5-.484-.5H.859c-.171 0-.484 0-.484.36 0 .374.297.374.484.374h.97v3.688h-.97c-.171 0-.484 0-.484.359C.375 0 .672 0 .859 0h3.125c.172 0 .485 0 .485-.36 0-.374-.313-.374-.485-.374H2.656zm0 0"/></symbol><symbol overflow="visible" id="k"><path d="M4.375-.375c.266.36.844.375 1.297.375.328 0 .594 0 .594-.375 0-.36-.297-.36-.485-.36-.5 0-.625-.046-.718-.093v-2.578c0-.844-.641-1.86-2.36-1.86-.515 0-1.734 0-1.734.875 0 .36.25.547.531.547.188 0 .516-.094.531-.547 0-.093.016-.109.25-.125.172-.015.328-.015.438-.015.906 0 1.531.375 1.531 1.218C2.125-3.28.656-2.671.656-1.53c0 .828.75 1.61 1.969 1.61.453 0 1.188-.095 1.75-.454zM4.25-2.609v1c0 .28 0 .53-.469.75-.437.203-.969.203-1.062.203-.75 0-1.235-.406-1.235-.875 0-.578 1.032-1.032 2.766-1.078zm0 0"/></symbol><symbol overflow="visible" id="l"><path d="M1.984-4.594c0-.375 0-.562-.484-.562H.64c-.203 0-.5 0-.5.375 0 .36.313.36.485.36h.531v3.687H.641c-.204 0-.5 0-.5.375C.14 0 .453 0 .625 0h1.89C2.688 0 3 0 3-.36c0-.374-.297-.374-.484-.374h-.532v-2.11c0-1.203.891-1.656 1.5-1.656.625 0 .797.344.797 1.063v2.703h-.468c-.188 0-.485 0-.485.375 0 .359.313.359.485.359H5.64c.171 0 .484 0 .484-.36 0-.374-.297-.374-.5-.374h-.516V-3.5c0-1.203-.609-1.719-1.562-1.719-.797 0-1.328.407-1.563.625zm0 0"/></symbol><symbol overflow="visible" id="m"><path d="M4.281-.594c0 .422 0 .594.469.594h.875c.203 0 .5 0 .5-.375 0-.36-.313-.36-.484-.36h-.532v-6.077c0-.375-.078-.485-.484-.485H3.75c-.188 0-.484 0-.484.36 0 .359.312.359.468.359h.547v1.89a2.128 2.128 0 00-1.406-.53C1.578-5.219.437-4.095.437-2.564.438-1.093 1.5.079 2.767.079c.671 0 1.171-.328 1.515-.672zm0-2.578v.86c0 .656-.547 1.656-1.453 1.656-.86 0-1.578-.844-1.578-1.906 0-1.157.844-1.938 1.672-1.938.765 0 1.36.672 1.36 1.328zm0 0"/></symbol><symbol overflow="visible" id="n"><path d="M3.031-4.422h1.453c.172 0 .47 0 .47-.36 0-.374-.282-.374-.47-.374H3.031v-.563c0-.922.797-.922 1.156-.922 0 .047.11.516.516.516.25 0 .516-.203.516-.531 0-.719-.953-.719-1.14-.719-.954 0-1.876.547-1.876 1.594v.625H1c-.188 0-.484 0-.484.375 0 .36.296.36.468.36h1.22v3.687H.983c-.171 0-.484 0-.484.359C.5 0 .813 0 .984 0h3.25c.172 0 .485 0 .485-.36 0-.374-.313-.374-.485-.374H3.031zm0 0"/></symbol><symbol overflow="visible" id="o"><path d="M4.281-.375C4.297 0 4.547 0 4.75 0h.875c.203 0 .5 0 .5-.375 0-.36-.313-.36-.484-.36h-.532v-3.921c0-.375-.078-.5-.484-.5H3.75c-.188 0-.484 0-.484.375 0 .36.312.36.468.36h.547v2.546c0 1.078-.968 1.219-1.36 1.219-.937 0-.937-.39-.937-.781v-3.22c0-.374-.078-.5-.484-.5H.64c-.203 0-.5 0-.5.376 0 .36.313.36.485.36h.531v3.062c0 1.14.828 1.437 1.703 1.437a2.33 2.33 0 001.422-.453zm0 0"/></symbol><symbol overflow="visible" id="p"><path d="M.797-.688c-.11.094-.172.157-.172.313C.625 0 .922 0 1.109 0h4.047c.407 0 .485-.11.485-.484v-.313c0-.234 0-.5-.407-.5-.421 0-.421.234-.421.563H1.969c.703-.61 1.86-1.5 2.375-1.985.75-.656 1.297-1.422 1.297-2.39 0-1.422-1.204-2.329-2.672-2.329-1.406 0-2.344.985-2.344 2 0 .438.328.579.531.579a.54.54 0 00.532-.547.475.475 0 00-.172-.375c.187-.547.75-.922 1.406-.922.969 0 1.89.547 1.89 1.594 0 .843-.578 1.53-1.375 2.187zm0 0"/></symbol><symbol overflow="visible" id="q"><path d="M2.781-2.11c-.64 0-1.14-.562-1.14-1.187 0-.687.515-1.203 1.14-1.203.656 0 1.156.563 1.156 1.188 0 .687-.53 1.203-1.156 1.203zm-1.078.422c.047.032.5.297 1.078.297 1.11 0 1.969-.859 1.969-1.921 0-.36-.094-.704-.297-1.032.25-.156.531-.203.688-.203a.514.514 0 00.468.406.476.476 0 00.47-.5c0-.265-.22-.64-.86-.64-.14 0-.719.015-1.282.422-.187-.141-.609-.36-1.156-.36-1.125 0-1.969.89-1.969 1.907 0 .515.204.906.375 1.14a1.434 1.434 0 00-.234.813c0 .421.172.718.281.859C.344.031.344.844.344.984c0 1.032 1.265 1.75 2.781 1.75 1.531 0 2.797-.734 2.797-1.75 0-.453-.219-1.046-.828-1.359-.157-.094-.657-.36-1.735-.36h-.843c-.094 0-.25 0-.344-.015-.172 0-.25 0-.39-.172a.873.873 0 01-.141-.422c0-.062.015-.218.062-.343zm1.422 3.704c-1.188 0-2.078-.516-2.078-1.032 0-.218.094-.609.484-.843.297-.188.407-.188 1.282-.188 1.062 0 2.406 0 2.406 1.031 0 .516-.89 1.032-2.094 1.032zm0 0"/></symbol><symbol overflow="visible" id="r"><path d="M5.563-1.297c0-.344-.344-.344-.407-.344-.203 0-.312.032-.406.266-.063.156-.297.719-1.172.719-1.015 0-1.875-.844-1.875-1.922 0-.578.328-1.953 1.938-1.953.25 0 .718 0 .718.11.016.421.25.577.532.577a.521.521 0 00.53-.547c0-.875-1.234-.875-1.78-.875C1.594-5.266.875-3.64.875-2.578.875-1.141 2 .078 3.5.078c1.656 0 2.063-1.172 2.063-1.375zm0 0"/></symbol><symbol overflow="visible" id="s"><path d="M5.14-4.422h.36c.172 0 .469 0 .469-.36 0-.374-.282-.374-.469-.374H4.094c-.172 0-.469 0-.469.36 0 .374.281.374.469.374h.343l-.859 2.547c-.156.438-.234.656-.312 1.031H3.25c-.063-.234-.172-.484-.25-.703L1.89-4.422h.298c.171 0 .484 0 .484-.36 0-.374-.297-.374-.485-.374H.782c-.187 0-.469 0-.469.375 0 .36.297.36.47.36h.374L2.86-.157c.047.125.047.14.047.156 0 .031-.297 1-.453 1.297-.344.656-.781.687-.953.703 0-.016.047-.11.047-.266 0-.296-.203-.515-.5-.515-.328 0-.531.218-.531.531 0 .5.406.969.984.969 1.203 0 1.734-1.578 1.781-1.703zm0 0"/></symbol><symbol overflow="visible" id="t"><path d="M5.063-2.281c.25 0 .484 0 .484-.438 0-1.375-.766-2.547-2.313-2.547-1.421 0-2.578 1.204-2.578 2.672C.656-1.14 1.86.078 3.406.078c1.578 0 2.14-1.078 2.14-1.375 0-.344-.343-.344-.421-.344-.219 0-.313.032-.39.266-.266.61-.907.719-1.25.719-.891 0-1.782-.594-1.985-1.625zM1.515-3c.171-.875.875-1.531 1.718-1.531.61 0 1.36.297 1.47 1.531zm0 0"/></symbol><symbol overflow="visible" id="u"><path d="M3.438-2.656l1.359-1.766h.469c.171 0 .5 0 .5-.36 0-.374-.313-.374-.5-.374H3.875c-.188 0-.484 0-.484.36 0 .374.265.374.593.374l-.89 1.203-.906-1.203c.312 0 .578 0 .578-.375 0-.36-.297-.36-.485-.36H.891c-.188 0-.5 0-.5.376 0 .36.328.36.5.36h.468l1.407 1.765-1.47 1.922H.813c-.171 0-.484 0-.484.375C.328 0 .641 0 .812 0H2.22c.172 0 .469 0 .469-.36 0-.374-.25-.374-.626-.374l1.032-1.47 1.062 1.47c-.328 0-.593 0-.593.375 0 .359.296.359.484.359h1.39c.172 0 .485 0 .485-.36 0-.374-.297-.374-.484-.374h-.485zm0 0"/></symbol><symbol overflow="visible" id="v"><path d="M1.297-4.797c-.016-.36-.25-.36-.469-.36h-.39c-.172 0-.485 0-.485.36 0 .375.25.375.688.375v3.688c-.438 0-.688 0-.688.375C-.047 0 .281 0 .437 0H1.5c.172 0 .484 0 .484-.36 0-.374-.25-.374-.687-.374v-2.141c0-1.063.5-1.625.984-1.625.281 0 .438.203.438.984v2.782c-.219 0-.516 0-.516.375 0 .359.313.359.485.359h.89c.188 0 .5 0 .5-.36 0-.374-.25-.374-.687-.374v-2.141c0-1.063.5-1.625.984-1.625.281 0 .438.203.438.984v2.782c-.22 0-.516 0-.516.375 0 .359.312.359.484.359h.89c.188 0 .5 0 .5-.36 0-.374-.25-.374-.687-.374v-2.891c0-.234 0-1.594-1.062-1.594-.36 0-.844.157-1.188.61a.951.951 0 00-.906-.61c-.375 0-.734.157-1.031.422zm0 0"/></symbol><symbol overflow="visible" id="w"><path d="M3.89-.734a.75.75 0 10-1.5-.016c0 .438.36.75.735.75a.76.76 0 00.766-.734zm0 0"/></symbol><symbol overflow="visible" id="x"><path d="M3.531-3.281c.344.078 1.328.312 1.328 1.36 0 .624-.515 1.327-1.453 1.327-.328 0-.922-.047-1.39-.375a1.198 1.198 0 01-.563-1.047c-.016-.203-.031-.406-.406-.406-.422 0-.422.25-.422.485V-.36c0 .187 0 .484.36.484.265 0 .328-.156.437-.547.484.36 1.203.547 1.969.547 1.39 0 2.25-1.047 2.25-2.11a2.05 2.05 0 00-.579-1.421c-.484-.485-.812-.563-1.734-.781l-.969-.22c-.5-.14-.953-.546-.953-1.109 0-.609.578-1.187 1.422-1.187 1.422 0 1.594 1.125 1.672 1.484.031.266.156.344.406.344.407 0 .407-.25.407-.484v-1.579c0-.203 0-.5-.36-.5-.281 0-.344.204-.437.563-.485-.422-1.141-.563-1.672-.563-1.328 0-2.219.954-2.219 1.97 0 .796.547 1.577 1.531 1.874.063.016 1.219.281 1.375.313zm0 0"/></symbol><symbol overflow="visible" id="d"><path d="M3.688-4.656c0-.375-.063-.5-.47-.5H1.517c-.172 0-.485 0-.485.36 0 .374.313.374.485.374h1.359v3.688H1.422c-.188 0-.484 0-.484.375C.938 0 1.25 0 1.421 0h3.531c.172 0 .484 0 .484-.36 0-.374-.312-.374-.484-.374H3.687zm0-2.063a.584.584 0 00-.594-.593.593.593 0 100 1.187.584.584 0 00.594-.594zm0 0"/></symbol><symbol overflow="visible" id="z"><path d="M5.11-3.5c0-1.203-.61-1.719-1.563-1.719-.797 0-1.328.407-1.563.625v-2.218c0-.375-.078-.485-.484-.485H.64c-.203 0-.5 0-.5.36 0 .359.313.359.485.359h.531v5.844H.641c-.204 0-.5 0-.5.375C.14 0 .453 0 .625 0h1.89C2.688 0 3 0 3-.36c0-.374-.297-.374-.484-.374h-.532v-2.11c0-1.203.891-1.656 1.5-1.656.625 0 .797.344.797 1.063v2.703h-.468c-.188 0-.485 0-.485.375 0 .359.313.359.485.359H5.64c.171 0 .484 0 .484-.36 0-.374-.297-.374-.5-.374h-.516zm0 0"/></symbol><symbol overflow="visible" id="B"><path d="M4.406-4.656c0-.375-.078-.5-.484-.5h-1.89c-.188 0-.485 0-.485.375 0 .36.297.36.469.36h1.562v4.89c0 .203 0 .656-.312 1.078C2.937 2 2.562 2 2.296 2c-.343 0-.483-.031-.671-.047.016-.047.016-.062.016-.14a.54.54 0 00-.532-.547.53.53 0 00-.53.546c0 .907 1.171.907 1.655.907 1.735 0 2.172-1.422 2.172-2.188zm0-2.063a.597.597 0 00-.61-.593.593.593 0 100 1.187c.345 0 .61-.266.61-.594zm0 0"/></symbol><symbol overflow="visible" id="A"><path d="M5.234-8.516c.063-.156.063-.187.063-.203 0-.14-.11-.25-.234-.25-.172 0-.22.125-.25.25L.734 2.531c-.062.156-.062.188-.062.219 0 .125.11.234.234.234.172 0 .219-.109.25-.234zm0 0"/></symbol><symbol overflow="visible" id="C"><path d="M5.625-2.563c0-1.53-1.188-2.796-2.64-2.796C1.5-5.36.327-4.047.327-2.563A2.667 2.667 0 002.968.126a2.66 2.66 0 002.657-2.688zM2.985-.171c-.516 0-1.032-.25-1.36-.797-.297-.531-.297-1.25-.297-1.687 0-.469 0-1.11.281-1.64.329-.548.891-.798 1.36-.798.531 0 1.047.266 1.36.782.312.515.312 1.203.312 1.656 0 .437 0 1.078-.266 1.61a1.558 1.558 0 01-1.39.874zm0 0"/></symbol><symbol overflow="visible" id="D"><path d="M1.313-4.11v3.204c0 .531-.125.531-.938.531V0a45.645 45.645 0 011.36-.031c.312 0 .937.015 1.343.031v-.375c-.812 0-.937 0-.937-.531V-3.11c0-1.235.843-1.907 1.609-1.907.75 0 .89.641.89 1.329v2.78c0 .532-.14.532-.937.532V0a45.645 45.645 0 011.36-.031c.296 0 .921.015 1.328.031v-.375c-.625 0-.922 0-.922-.36v-2.28c0-1.032 0-1.391-.375-1.829-.172-.203-.563-.437-1.25-.437-.875 0-1.438.515-1.781 1.25v-1.25l-1.688.125v.375c.844 0 .938.078.938.672zm0 0"/></symbol><symbol overflow="visible" id="E"><path d="M2.11-8.297l-1.72.14v.36c.844 0 .938.094.938.672v6.219c0 .531-.14.531-.937.531V0c.39-.016 1.03-.031 1.328-.031.297 0 .89.015 1.328.031v-.375c-.797 0-.938 0-.938-.531zm0 0"/></symbol><symbol overflow="visible" id="F"><path d="M2.11-5.281l-1.672.125v.375c.78 0 .89.078.89.656v3.219c0 .531-.14.531-.937.531V0c.39-.016 1.03-.031 1.312-.031.422 0 .844.015 1.25.031v-.375c-.797 0-.844-.063-.844-.516zm.046-2.078A.62.62 0 001.531-8a.653.653 0 00-.64.64.64.64 0 00.64.626c.328 0 .625-.25.625-.625zm0 0"/></symbol><symbol overflow="visible" id="G"><path d="M1.344-3.016c.062-1.78 1.078-2.078 1.484-2.078 1.219 0 1.344 1.61 1.344 2.078zm-.016.25h3.328c.266 0 .297 0 .297-.25 0-1.187-.64-2.343-2.125-2.343-1.39 0-2.5 1.234-2.5 2.734 0 1.594 1.266 2.75 2.64 2.75 1.454 0 1.985-1.313 1.985-1.547 0-.125-.094-.14-.14-.14-.11 0-.141.062-.157.156-.422 1.234-1.5 1.234-1.625 1.234-.594 0-1.078-.36-1.344-.797-.359-.578-.359-1.36-.359-1.797zm0 0"/></symbol><symbol overflow="visible" id="H"><path d="M6.953-3.078h-.297C6.531-1.86 6.36-.375 4.25-.375h-.969c-.562 0-.594-.078-.594-.469v-6.375c0-.406 0-.578 1.141-.578h.39v-.36c-.421.032-1.515.032-2 .032-.468 0-1.405 0-1.827-.031v.36h.296c.922 0 .938.14.938.562v6.296c0 .438-.016.563-.938.563H.392V0h6.234zm0 0"/></symbol><symbol overflow="visible" id="I"><path d="M7.953-8.094H.656L.437-5.406h.297c.157-1.922.344-2.313 2.141-2.313.219 0 .531 0 .656.016.25.047.25.187.25.453v6.313c0 .406 0 .562-1.265.562h-.47V0c.485-.031 1.704-.031 2.25-.031.563 0 1.782 0 2.282.031v-.375h-.484c-1.25 0-1.25-.156-1.25-.563V-7.25c0-.234 0-.406.218-.453.125-.016.454-.016.672-.016 1.813 0 1.985.39 2.157 2.313h.296zm0 0"/></symbol><symbol overflow="visible" id="J"><path d="M2.063-4.781H3.78v-.375H2.062v-2.188h-.296c-.016.969-.36 2.25-1.532 2.297v.266H1.25v3.297C1.25-.016 2.36.125 2.781.125c.86 0 1.188-.844 1.188-1.61v-.671h-.297v.656c0 .875-.36 1.328-.797 1.328-.813 0-.813-1.078-.813-1.281zm0 0"/></symbol><symbol overflow="visible" id="K"><path d="M2-3.969V-5.28l-1.672.125v.375c.844 0 .938.078.938.672v3.203c0 .531-.125.531-.938.531V0a49.107 49.107 0 011.375-.031c.469 0 1.031 0 1.516.031v-.375h-.25c-.89 0-.906-.125-.906-.563v-1.828c0-1.187.5-2.25 1.406-2.25h.125a.534.534 0 00-.266.47c0 .343.25.515.516.515.203 0 .5-.14.5-.516 0-.39-.36-.734-.875-.734-.875 0-1.313.797-1.469 1.312zm0 0"/></symbol><symbol overflow="visible" id="L"><path d="M3.984-.906c.047.469.36.984.922.984.25 0 .985-.172.985-1.14v-.672h-.297v.671c0 .688-.297.766-.438.766-.39 0-.437-.547-.437-.594v-2.39c0-.516 0-.969-.422-1.422a2.34 2.34 0 00-1.64-.656C1.671-5.36.843-4.797.843-4c0 .36.25.563.562.563.328 0 .547-.25.547-.563 0-.14-.062-.531-.61-.547.313-.406.907-.547 1.282-.547.594 0 1.266.469 1.266 1.532v.437c-.61.047-1.438.078-2.188.438C.797-2.281.5-1.657.5-1.141.5-.17 1.656.125 2.422.125c.781 0 1.328-.469 1.562-1.031zm-.093-1.969v1.203c0 1.14-.86 1.547-1.391 1.547-.594 0-1.078-.422-1.078-1.016 0-.671.5-1.656 2.469-1.734zm0 0"/></symbol><symbol overflow="visible" id="M"><path d="M2.484-2.313c.266.047 1.25.235 1.25 1.094 0 .61-.421 1.094-1.359 1.094-1 0-1.438-.688-1.656-1.703-.031-.156-.047-.203-.172-.203-.156 0-.156.078-.156.297v1.578c0 .203 0 .281.14.281.047 0 .063 0 .297-.234.016-.016.016-.047.235-.266.53.5 1.062.5 1.312.5 1.375 0 1.922-.797 1.922-1.656 0-.625-.36-.985-.5-1.14-.39-.376-.86-.47-1.36-.563C1.766-3.375.97-3.531.97-4.22c0-.422.312-.906 1.344-.906 1.312 0 1.374 1.078 1.39 1.438.016.109.125.109.14.109C4-3.578 4-3.641 4-3.86v-1.204c0-.203 0-.296-.125-.296-.063 0-.078 0-.234.14-.047.063-.157.157-.204.203-.468-.343-.953-.343-1.124-.343C.843-5.36.39-4.547.39-3.891c0 .422.187.766.515 1.016.39.313.719.39 1.578.563zm0 0"/></symbol><symbol overflow="visible" id="N"><path d="M4.172-4.64L2.64-5.017A1.548 1.548 0 011.437-6.53c0-.828.641-1.563 1.579-1.563 2 0 2.25 1.969 2.328 2.5.015.078.015.14.14.14.157 0 .157-.062.157-.28v-2.407c0-.203 0-.28-.125-.28-.094 0-.094 0-.188.155l-.422.672c-.36-.343-.843-.828-1.906-.828A2.3 2.3 0 00.672-6.109c0 1 .625 1.859 1.562 2.187.125.047.735.188 1.579.39.328.095.687.173 1.015.61.25.313.375.703.375 1.11 0 .843-.594 1.703-1.61 1.703-.343 0-1.25-.063-1.89-.641C1.016-1.406.984-2.156.97-2.594c-.016-.125-.11-.125-.14-.125-.157 0-.157.094-.157.297v2.39c0 .204 0 .298.125.298C.89.266.89.234.984.109c0-.015.032-.046.422-.687.375.406 1.14.844 2.203.844 1.407 0 2.36-1.172 2.36-2.485 0-1.203-.797-2.187-1.797-2.422zm0 0"/></symbol><symbol overflow="visible" id="O"><path d="M2.063-4.5v-.781l-1.735.125v.375c.86 0 .938.078.938.593v5.594c0 .547-.125.547-.938.547v.36c.406 0 1.031-.032 1.344-.032.328 0 .937.031 1.36.031v-.359c-.813 0-.938 0-.938-.547v-2.11c.062.188.562.829 1.469.829a2.697 2.697 0 002.671-2.703c0-1.516-1.171-2.703-2.5-2.703-.937 0-1.437.531-1.671.781zm.03 3.14V-4.03c.345-.61.938-.953 1.548-.953.859 0 1.593 1.046 1.593 2.406 0 1.437-.828 2.453-1.718 2.453-.485 0-.938-.25-1.25-.734-.172-.25-.172-.266-.172-.5zm0 0"/></symbol><symbol overflow="visible" id="P"><path d="M4.547-.656v.781L6.297 0v-.375c-.828 0-.938-.078-.938-.672v-7.25l-1.718.14v.36c.843 0 .937.094.937.672v2.578c-.344-.422-.86-.734-1.5-.734C1.656-5.281.406-4.11.406-2.563.406-1.046 1.578.126 2.937.126c.766 0 1.313-.406 1.61-.781zm0-3.203v2.453c0 .218 0 .234-.14.437-.36.578-.891.844-1.407.844-.531 0-.969-.313-1.25-.766-.313-.5-.344-1.171-.344-1.671 0-.438.016-1.157.36-1.688.25-.375.703-.766 1.359-.766.406 0 .922.172 1.281.72.14.202.14.218.14.437zm0 0"/></symbol><symbol overflow="visible" id="Q"><path d="M2.063-4.5v-3.797l-1.735.14v.36c.844 0 .938.094.938.672V0h.296c.016-.016.11-.172.438-.734.172.265.672.859 1.563.859a2.697 2.697 0 002.671-2.703c0-1.516-1.171-2.703-2.546-2.703-.922 0-1.438.562-1.626.781zm.03 3.14v-2.468c0-.219 0-.235.126-.422a1.728 1.728 0 011.422-.766c.53 0 .968.313 1.25.766.312.484.343 1.172.343 1.656 0 .438-.015 1.156-.375 1.703-.25.36-.703.766-1.343.766-.547 0-.97-.297-1.25-.734-.172-.25-.172-.282-.172-.5zm0 0"/></symbol><symbol overflow="visible" id="R"><path d="M3.438-2.813c.359-.453.812-1.03 1.093-1.343.375-.438.86-.61 1.422-.625v-.375c-.312.031-.672.047-.984.047-.36 0-.985-.032-1.14-.047v.375c.25.031.343.172.343.375 0 .187-.125.343-.172.406l-.75.938-.938-1.204c-.093-.125-.093-.14-.093-.218 0-.172.172-.282.406-.297v-.375c-.313.015-1.094.047-1.281.047-.25 0-.813-.016-1.14-.047v.375c.843 0 .843.015 1.405.734l1.188 1.531-1.125 1.422A1.891 1.891 0 01.14-.375V0c.312-.031.687-.031 1-.031.343 0 .843.015 1.125.031v-.375c-.25-.031-.344-.188-.344-.36 0-.265.344-.671 1.078-1.53l.906 1.203c.094.125.25.328.25.39 0 .11-.11.297-.422.297V0c.36-.016 1.016-.031 1.282-.031.328 0 .796 0 1.156.031v-.375c-.656 0-.86-.016-1.14-.36zm0 0"/></symbol><clipPath id="a"><path d="M4 0h604.93v215.336H4zm0 0"/></clipPath><clipPath id="b"><path d="M0 0h608.93v215.336H0zm0 0"/></clipPath></defs><g clip-path="url(#a)"><path d="M7.621.234h102.527a3.403 3.403 0 013.403 3.403v96.773a3.403 3.403 0 003.402 3.403h51.504c1.875 0 3.293 1.519 3.164 3.39l-.074 1.016c-.129 1.875 1.285 3.394 3.164 3.394h430.586a3.403 3.403 0 013.402 3.403v62.183a3.403 3.403 0 01-3.402 3.403H495.21a3.4 3.4 0 00-3.399 3.402v27.691a3.403 3.403 0 01-3.402 3.403H7.621a3.4 3.4 0 01-3.398-3.403V3.637A3.4 3.4 0 017.62.234zm0 0" fill="#ececec"/></g><g clip-path="url(#b)"><path d="M7.621.234h102.527a3.403 3.403 0 013.403 3.403v96.773a3.403 3.403 0 003.402 3.402h51.504c1.875 0 3.293 1.52 3.164 3.391l-.074 1.016c-.129 1.875 1.285 3.394 3.164 3.394h430.586a3.403 3.403 0 013.402 3.403v62.183a3.403 3.403 0 01-3.402 3.403H495.21a3.4 3.4 0 00-3.399 3.402v27.691a3.403 3.403 0 01-3.402 3.403H7.621a3.4 3.4 0 01-3.398-3.403V3.637A3.4 3.4 0 017.62.234zm0 0" fill="none" stroke-width=".4788" stroke="gray" stroke-miterlimit="10"/></g><path d="M7.863 211.457h480.309v-27.215H7.863zm0 0" fill="#ffd9b2"/><use xlink:href="#c" x="226.049" y="200.719"/><use xlink:href="#d" x="232.325" y="200.719"/><use xlink:href="#e" x="238.602" y="200.719"/><use xlink:href="#f" x="244.878" y="200.719"/><use xlink:href="#g" x="251.155" y="200.719"/><use xlink:href="#h" x="257.431" y="200.719"/><use xlink:href="#i" x="263.707" y="200.719"/><path d="M7.863 176.96H109.91V3.876H7.863zm0 0" fill="#ffb2b2"/><use xlink:href="#j" x="36.92" y="15.17"/><use xlink:href="#k" x="43.197" y="15.17"/><use xlink:href="#l" x="49.473" y="15.17"/><use xlink:href="#m" x="55.75" y="15.17"/><use xlink:href="#c" x="62.026" y="15.17"/><use xlink:href="#i" x="68.303" y="15.17"/><use xlink:href="#c" x="74.579" y="15.17"/><use xlink:href="#c" x="36.92" y="29.516"/><use xlink:href="#i" x="43.197" y="29.516"/><use xlink:href="#c" x="49.473" y="29.516"/><use xlink:href="#n" x="55.75" y="29.516"/><use xlink:href="#d" x="62.026" y="29.516"/><use xlink:href="#c" x="68.303" y="29.516"/><use xlink:href="#i" x="74.579" y="29.516"/><use xlink:href="#j" x="36.92" y="43.862"/><use xlink:href="#k" x="43.197" y="43.862"/><use xlink:href="#l" x="49.473" y="43.862"/><use xlink:href="#m" x="55.75" y="43.862"/><use xlink:href="#k" x="62.026" y="43.862"/><use xlink:href="#o" x="68.303" y="43.862"/><use xlink:href="#i" x="74.579" y="43.862"/><use xlink:href="#k" x="36.92" y="58.208"/><use xlink:href="#o" x="43.197" y="58.208"/><use xlink:href="#i" x="49.473" y="58.208"/><use xlink:href="#n" x="55.75" y="58.208"/><use xlink:href="#d" x="62.026" y="58.208"/><use xlink:href="#c" x="68.303" y="58.208"/><use xlink:href="#i" x="74.579" y="58.208"/><use xlink:href="#c" x="33.782" y="72.554"/><use xlink:href="#i" x="40.059" y="72.554"/><use xlink:href="#c" x="46.335" y="72.554"/><use xlink:href="#p" x="52.612" y="72.554"/><use xlink:href="#i" x="58.888" y="72.554"/><use xlink:href="#q" x="65.165" y="72.554"/><use xlink:href="#e" x="71.441" y="72.554"/><use xlink:href="#k" x="77.717" y="72.554"/><use xlink:href="#c" x="33.782" y="86.9"/><use xlink:href="#i" x="40.059" y="86.9"/><use xlink:href="#c" x="46.335" y="86.9"/><use xlink:href="#p" x="52.612" y="86.9"/><use xlink:href="#i" x="58.888" y="86.9"/><use xlink:href="#q" x="65.165" y="86.9"/><use xlink:href="#i" x="71.441" y="86.9"/><use xlink:href="#k" x="77.717" y="86.9"/><use xlink:href="#m" x="27.506" y="101.247"/><use xlink:href="#f" x="33.783" y="101.247"/><use xlink:href="#i" x="40.059" y="101.247"/><use xlink:href="#k" x="46.336" y="101.247"/><use xlink:href="#j" x="52.612" y="101.247"/><use xlink:href="#p" x="58.889" y="101.247"/><use xlink:href="#i" x="65.165" y="101.247"/><use xlink:href="#q" x="71.441" y="101.247"/><use xlink:href="#e" x="77.718" y="101.247"/><use xlink:href="#k" x="83.994" y="101.247"/><use xlink:href="#c" x="33.782" y="115.593"/><use xlink:href="#i" x="40.059" y="115.593"/><use xlink:href="#c" x="46.335" y="115.593"/><use xlink:href="#r" x="52.612" y="115.593"/><use xlink:href="#j" x="58.888" y="115.593"/><use xlink:href="#h" x="65.165" y="115.593"/><use xlink:href="#f" x="71.441" y="115.593"/><use xlink:href="#f" x="77.717" y="115.593"/><use xlink:href="#c" x="33.782" y="129.939"/><use xlink:href="#i" x="40.059" y="129.939"/><use xlink:href="#c" x="46.335" y="129.939"/><use xlink:href="#q" x="52.612" y="129.939"/><use xlink:href="#j" x="58.888" y="129.939"/><use xlink:href="#d" x="65.165" y="129.939"/><use xlink:href="#l" x="71.441" y="129.939"/><use xlink:href="#m" x="77.717" y="129.939"/><use xlink:href="#c" x="36.92" y="144.285"/><use xlink:href="#i" x="43.197" y="144.285"/><use xlink:href="#c" x="49.473" y="144.285"/><use xlink:href="#f" x="55.75" y="144.285"/><use xlink:href="#s" x="62.026" y="144.285"/><use xlink:href="#l" x="68.303" y="144.285"/><use xlink:href="#i" x="74.579" y="144.285"/><use xlink:href="#c" x="43.198" y="158.631"/><use xlink:href="#i" x="49.474" y="158.631"/><use xlink:href="#c" x="55.75" y="158.631"/><use xlink:href="#m" x="62.027" y="158.631"/><use xlink:href="#h" x="68.303" y="158.631"/><g><use xlink:href="#k" x="33.782" y="172.977"/><use xlink:href="#o" x="40.059" y="172.977"/><use xlink:href="#i" x="46.335" y="172.977"/><use xlink:href="#r" x="52.612" y="172.977"/><use xlink:href="#j" x="58.888" y="172.977"/><use xlink:href="#h" x="65.165" y="172.977"/><use xlink:href="#f" x="71.441" y="172.977"/><use xlink:href="#f" x="77.717" y="172.977"/></g><path d="M117.191 176.96h159.875v-27.21H117.191zm0 0" fill="#ffd9b2"/><g><use xlink:href="#c" x="165.749" y="166.225"/><use xlink:href="#d" x="172.025" y="166.225"/><use xlink:href="#e" x="178.302" y="166.225"/><use xlink:href="#f" x="184.578" y="166.225"/><use xlink:href="#g" x="190.855" y="166.225"/><use xlink:href="#h" x="197.131" y="166.225"/><use xlink:href="#i" x="203.407" y="166.225"/><use xlink:href="#q" x="209.684" y="166.225"/><use xlink:href="#t" x="215.96" y="166.225"/><use xlink:href="#l" x="222.237" y="166.225"/></g><path d="M284.348 176.96h85.043v-27.21h-85.043zm0 0" fill="#ffd9b2"/><g><use xlink:href="#c" x="304.901" y="166.225"/><use xlink:href="#d" x="311.177" y="166.225"/><use xlink:href="#e" x="317.454" y="166.225"/><use xlink:href="#e" x="323.73" y="166.225"/><use xlink:href="#m" x="330.007" y="166.225"/><use xlink:href="#m" x="336.283" y="166.225"/><use xlink:href="#u" x="342.559" y="166.225"/></g><path d="M376.672 176.96h85.039v-61.226h-85.04zm0 0" fill="#b3e6fa"/><g><use xlink:href="#d" x="384.668" y="148.672"/><use xlink:href="#v" x="390.945" y="148.672"/><use xlink:href="#g" x="397.221" y="148.672"/><use xlink:href="#h" x="403.498" y="148.672"/><use xlink:href="#j" x="409.774" y="148.672"/><use xlink:href="#i" x="416.051" y="148.672"/></g><g><use xlink:href="#f" x="428.603" y="148.672"/><use xlink:href="#g" x="434.88" y="148.672"/><use xlink:href="#h" x="441.156" y="148.672"/><use xlink:href="#i" x="447.433" y="148.672"/></g><path d="M468.992 176.96H605.06v-27.21H468.992zm0 0" fill="#ffd9b2"/><g><use xlink:href="#c" x="496.225" y="166.225"/><use xlink:href="#d" x="502.502" y="166.225"/><use xlink:href="#e" x="508.778" y="166.225"/><use xlink:href="#f" x="515.055" y="166.225"/><use xlink:href="#g" x="521.331" y="166.225"/><use xlink:href="#h" x="527.607" y="166.225"/><use xlink:href="#i" x="533.884" y="166.225"/><use xlink:href="#c" x="540.16" y="166.225"/><use xlink:href="#i" x="546.437" y="166.225"/><use xlink:href="#f" x="552.713" y="166.225"/><use xlink:href="#v" x="558.99" y="166.225"/><use xlink:href="#d" x="565.266" y="166.225"/><use xlink:href="#l" x="571.542" y="166.225"/></g><path d="M117.191 142.469h51.024v-35.016H117.19zm0 0" fill="#ffb2b2"/><g><use xlink:href="#q" x="123.876" y="121.48"/><use xlink:href="#t" x="130.152" y="121.48"/><use xlink:href="#l" x="136.429" y="121.48"/><use xlink:href="#k" x="142.705" y="121.48"/><use xlink:href="#o" x="148.982" y="121.48"/><use xlink:href="#i" x="155.258" y="121.48"/></g><g><use xlink:href="#q" x="123.876" y="135.826"/><use xlink:href="#t" x="130.152" y="135.826"/><use xlink:href="#l" x="136.429" y="135.826"/><use xlink:href="#c" x="142.705" y="135.826"/><use xlink:href="#i" x="148.982" y="135.826"/><use xlink:href="#c" x="155.258" y="135.826"/></g><path d="M174.95 142.469h102.116v-27.215H174.95zm0 0" fill="#b3e6fa"/><g><use xlink:href="#d" x="178.937" y="131.731"/><use xlink:href="#v" x="185.213" y="131.731"/><use xlink:href="#g" x="191.49" y="131.731"/><use xlink:href="#h" x="197.766" y="131.731"/><use xlink:href="#j" x="204.043" y="131.731"/><use xlink:href="#i" x="210.319" y="131.731"/></g><g><use xlink:href="#f" x="222.872" y="131.731"/><use xlink:href="#g" x="229.148" y="131.731"/><use xlink:href="#h" x="235.425" y="131.731"/><use xlink:href="#i" x="241.701" y="131.731"/><use xlink:href="#w" x="247.978" y="131.731"/><use xlink:href="#q" x="254.254" y="131.731"/><use xlink:href="#t" x="260.53" y="131.731"/><use xlink:href="#l" x="266.807" y="131.731"/></g><path d="M284.348 142.469h85.043v-27.215h-85.043zm0 0" fill="#b3e6fa"/><g><use xlink:href="#d" x="295.487" y="131.731"/><use xlink:href="#v" x="301.763" y="131.731"/><use xlink:href="#g" x="308.04" y="131.731"/><use xlink:href="#h" x="314.316" y="131.731"/><use xlink:href="#j" x="320.593" y="131.731"/><use xlink:href="#i" x="326.869" y="131.731"/></g><g><use xlink:href="#e" x="339.422" y="131.731"/><use xlink:href="#m" x="345.698" y="131.731"/><use xlink:href="#m" x="351.975" y="131.731"/></g><path d="M468.992 142.469H605.06v-27.215H468.992zm0 0" fill="#b3e6fa"/><g><use xlink:href="#d" x="480.534" y="131.731"/><use xlink:href="#v" x="486.81" y="131.731"/><use xlink:href="#g" x="493.087" y="131.731"/><use xlink:href="#h" x="499.363" y="131.731"/><use xlink:href="#j" x="505.64" y="131.731"/><use xlink:href="#i" x="511.916" y="131.731"/></g><g><use xlink:href="#f" x="524.469" y="131.731"/><use xlink:href="#g" x="530.746" y="131.731"/><use xlink:href="#h" x="537.022" y="131.731"/><use xlink:href="#i" x="543.298" y="131.731"/><use xlink:href="#w" x="549.575" y="131.731"/><use xlink:href="#c" x="555.851" y="131.731"/><use xlink:href="#i" x="562.128" y="131.731"/><use xlink:href="#f" x="568.404" y="131.731"/><use xlink:href="#v" x="574.681" y="131.731"/><use xlink:href="#d" x="580.957" y="131.731"/><use xlink:href="#l" x="587.233" y="131.731"/></g><path d="M495.453 211.457h51.024v-27.215h-51.024zm0 0" fill="#ffb2b2"/><g><use xlink:href="#x" x="505.27" y="200.719"/><use xlink:href="#g" x="511.546" y="200.719"/><use xlink:href="#d" x="517.822" y="200.719"/><use xlink:href="#l" x="524.099" y="200.719"/><use xlink:href="#x" x="530.375" y="200.719"/></g><path d="M553.758 211.457h51.023v-27.215h-51.023zm0 0" fill="#ffb2b2"/><g><use xlink:href="#m" x="560.436" y="200.719"/><use xlink:href="#d" x="566.712" y="200.719"/><use xlink:href="#y" x="572.989" y="200.719"/><use xlink:href="#d" x="579.265" y="200.719"/><use xlink:href="#l" x="585.542" y="200.719"/><use xlink:href="#t" x="591.818" y="200.719"/></g><path d="M174.95 107.973h430.304V80.762H174.949zm0 0" fill="#b3e6fa"/><g><use xlink:href="#g" x="313.39" y="97.357"/><use xlink:href="#s" x="319.666" y="97.357"/><use xlink:href="#i" x="325.942" y="97.357"/><use xlink:href="#z" x="332.219" y="97.357"/><use xlink:href="#h" x="338.495" y="97.357"/><use xlink:href="#l" x="344.772" y="97.357"/></g><g><use xlink:href="#A" x="355.033" y="97.357"/></g><g><use xlink:href="#d" x="364.996" y="97.357"/><use xlink:href="#g" x="371.272" y="97.357"/><use xlink:href="#s" x="377.548" y="97.357"/><use xlink:href="#i" x="383.825" y="97.357"/><use xlink:href="#z" x="390.101" y="97.357"/><use xlink:href="#h" x="396.378" y="97.357"/><use xlink:href="#l" x="402.654" y="97.357"/></g><g><use xlink:href="#A" x="412.915" y="97.357"/></g><g><use xlink:href="#B" x="422.879" y="97.357"/><use xlink:href="#o" x="429.155" y="97.357"/><use xlink:href="#g" x="435.432" y="97.357"/><use xlink:href="#s" x="441.708" y="97.357"/><use xlink:href="#i" x="447.985" y="97.357"/><use xlink:href="#t" x="454.261" y="97.357"/><use xlink:href="#j" x="460.537" y="97.357"/></g><path d="M174.95 73.48h210.902V46.266H174.949zm0 0" fill="#b2e8b2"/><g><use xlink:href="#C" x="223.879" y="64.026"/><use xlink:href="#D" x="229.857" y="64.026"/><use xlink:href="#E" x="236.499" y="64.026"/><use xlink:href="#F" x="239.82" y="64.026"/><use xlink:href="#D" x="243.141" y="64.026"/><use xlink:href="#G" x="249.784" y="64.026"/></g><g><use xlink:href="#H" x="259.077" y="64.026"/></g><g><use xlink:href="#I" x="265.557" y="64.026"/><use xlink:href="#H" x="274.191" y="64.026"/></g><g><use xlink:href="#J" x="285.644" y="64.026"/><use xlink:href="#K" x="290.293" y="64.026"/><use xlink:href="#L" x="294.976" y="64.026"/><use xlink:href="#D" x="300.954" y="64.026"/><use xlink:href="#M" x="307.596" y="64.026"/><use xlink:href="#E" x="312.311" y="64.026"/><use xlink:href="#L" x="315.632" y="64.026"/><use xlink:href="#J" x="321.61" y="64.026"/><use xlink:href="#C" x="326.259" y="64.026"/><use xlink:href="#K" x="332.237" y="64.026"/></g><path d="M394.355 73.48h210.899V46.266H394.355zm0 0" fill="#b2e8b2"/><g><use xlink:href="#N" x="464.236" y="62.863"/><use xlink:href="#O" x="470.878" y="62.863"/></g><g><use xlink:href="#C" x="477.855" y="62.863"/><use xlink:href="#J" x="483.832" y="62.863"/></g><g><use xlink:href="#M" x="492.463" y="62.863"/><use xlink:href="#L" x="497.178" y="62.863"/><use xlink:href="#D" x="503.155" y="62.863"/><use xlink:href="#P" x="509.798" y="62.863"/><use xlink:href="#Q" x="516.44" y="62.863"/></g><g><use xlink:href="#C" x="523.417" y="62.863"/></g><g><use xlink:href="#R" x="529.06" y="62.863"/></g><path d="M326.871 149.508v-1.278" fill="none" stroke-width="1.9128" stroke="#404040" stroke-miterlimit="10"/><path d="M326.871 140.262l-4.23 11.195 4.23-3.703 4.227 3.703zm0 0" fill="#404040" stroke-width="1.9128" stroke-linejoin="round" stroke="#404040" stroke-miterlimit="10"/><path d="M326.871 177.2v1.28" fill="none" stroke-width="1.9128" stroke="#404040" stroke-miterlimit="10"/><path d="M326.871 186.45l4.227-11.196-4.227 3.703-4.23-3.703zm0 0" fill="#404040" stroke-width="1.9128" stroke-linejoin="round" stroke="#404040" stroke-miterlimit="10"/><path d="M326.871 115.016v-1.282" fill="none" stroke-width="1.9128" stroke="#404040" stroke-miterlimit="10"/><path d="M326.871 105.766l-4.23 11.195 4.23-3.703 4.227 3.703zm0 0" fill="#404040" stroke-width="1.9128" stroke-linejoin="round" stroke="#404040" stroke-miterlimit="10"/><path d="M520.965 184.004v-1.277" fill="none" stroke-width="1.9128" stroke="#404040" stroke-miterlimit="10"/><path d="M520.965 174.754l-4.23 11.195 4.23-3.703 4.226 3.703zm0 0" fill="#404040" stroke-width="1.9128" stroke-linejoin="round" stroke="#404040" stroke-miterlimit="10"/><path d="M579.27 184.004v-1.277" fill="none" stroke-width="1.9128" stroke="#404040" stroke-miterlimit="10"/><path d="M579.27 174.754l-4.23 11.195 4.23-3.703 4.23 3.703zm0 0" fill="#404040" stroke-width="1.9128" stroke-linejoin="round" stroke="#404040" stroke-miterlimit="10"/><path d="M197.129 184.004v-1.277" fill="none" stroke-width="1.9128" stroke="#404040" stroke-miterlimit="10"/><path d="M197.129 174.754l-4.23 11.195 4.23-3.703 4.23 3.703zm0 0" fill="#404040" stroke-width="1.9128" stroke-linejoin="round" stroke="#404040" stroke-miterlimit="10"/><path d="M142.703 149.508v-1.278" fill="none" stroke-width="1.9128" stroke="#404040" stroke-miterlimit="10"/><path d="M142.703 140.262l-4.23 11.195 4.23-3.703 4.23 3.703zm0 0" fill="#404040" stroke-width="1.9128" stroke-linejoin="round" stroke="#404040" stroke-miterlimit="10"/><path d="M226.008 149.508v-1.278" fill="none" stroke-width="1.9128" stroke="#404040" stroke-miterlimit="10"/><path d="M226.008 140.262l-4.227 11.195 4.227-3.703 4.23 3.703zm0 0" fill="#404040" stroke-width="1.9128" stroke-linejoin="round" stroke="#404040" stroke-miterlimit="10"/><path d="M226.008 115.016v-1.282" fill="none" stroke-width="1.9128" stroke="#404040" stroke-miterlimit="10"/><path d="M226.008 105.766l-4.227 11.195 4.227-3.703 4.23 3.703zm0 0" fill="#404040" stroke-width="1.9128" stroke-linejoin="round" stroke="#404040" stroke-miterlimit="10"/><path d="M419.191 184.004v-1.277" fill="none" stroke-width="1.9128" stroke="#404040" stroke-miterlimit="10"/><path d="M419.191 174.754l-4.23 11.195 4.23-3.703 4.23 3.703zm0 0" fill="#404040" stroke-width="1.9128" stroke-linejoin="round" stroke="#404040" stroke-miterlimit="10"/><path d="M537.023 149.508v-1.278" fill="none" stroke-width="1.9128" stroke="#404040" stroke-miterlimit="10"/><path d="M537.023 140.262l-4.226 11.195 4.226-3.703 4.23 3.703zm0 0" fill="#404040" stroke-width="1.9128" stroke-linejoin="round" stroke="#404040" stroke-miterlimit="10"/><path d="M58.887 184.004v-1.277" fill="none" stroke-width="1.9128" stroke="#404040" stroke-miterlimit="10"/><path d="M58.887 174.754l-4.23 11.195 4.23-3.703 4.23 3.703zm0 0" fill="#404040" stroke-width="1.9128" stroke-linejoin="round" stroke="#404040" stroke-miterlimit="10"/><path d="M419.191 115.492v-1.277" fill="none" stroke-width="1.9128" stroke="#404040" stroke-miterlimit="10"/><path d="M419.191 106.246l-4.23 11.195 4.23-3.707 4.23 3.707zm0 0" fill="#404040" stroke-width="1.9128" stroke-linejoin="round" stroke="#404040" stroke-miterlimit="10"/><path d="M537.023 115.016v-1.282" fill="none" stroke-width="1.9128" stroke="#404040" stroke-miterlimit="10"/><path d="M537.023 105.766l-4.226 11.195 4.226-3.703 4.23 3.703zm0 0" fill="#404040" stroke-width="1.9128" stroke-linejoin="round" stroke="#404040" stroke-miterlimit="10"/><path d="M478.582 184.004v-1.277" fill="none" stroke-width="1.9128" stroke="#404040" stroke-miterlimit="10"/><path d="M478.582 174.754l-4.23 11.195 4.23-3.703 4.23 3.703zm0 0" fill="#404040" stroke-width="1.9128" stroke-linejoin="round" stroke="#404040" stroke-miterlimit="10"/><path d="M280.402 80.52v-1.278" fill="none" stroke-width="1.9128" stroke="#404040" stroke-miterlimit="10"/><path d="M280.402 71.273l-4.23 11.196 4.23-3.707 4.227 3.707zm0 0" fill="#404040" stroke-width="1.9128" stroke-linejoin="round" stroke="#404040" stroke-miterlimit="10"/><path d="M499.805 80.52v-1.278" fill="none" stroke-width="1.9128" stroke="#404040" stroke-miterlimit="10"/><path d="M499.805 71.273l-4.23 11.196 4.23-3.707 4.23 3.707zm0 0" fill="#404040" stroke-width="1.9128" stroke-linejoin="round" stroke="#404040" stroke-miterlimit="10"/></svg>