<?xml-stylesheet href="spot.css" type="text/css"?><svg width="828" height="229pt" viewBox="0 0 621 229" xmlns="http://www.w3.org/2000/svg"><g class="graph" transform="translate(4 225)"><path fill="#fff" stroke="transparent" d="M-4 4v-229h621V4H-4z"/><g class="node"><ellipse fill="#ffffa0" stroke="#000" cx="118" cy="-175" rx="27" ry="18"/><text text-anchor="middle" x="118" y="-171.9" font-family="Lato" font-size="12">init</text></g><g class="edge"><path fill="none" stroke="#000" d="M54.303-175h29.196"/><path stroke="#000" d="M90.716-175l-7-3.15 3.5 3.15h-3.5 3.5l-3.5 3.15 7-3.15h0z"/></g><g class="node"><path fill="#ffffa0" stroke="#000" d="M501-111h-54v36h54v-36z"/><text text-anchor="middle" x="474" y="-89.9" font-family="Lato" font-size="12">2</text></g><g class="edge"><path fill="none" stroke="#000" d="M141.618-183.762C170.325-193.292 220.234-206.256 263-199c77.05 13.073 100.496 15.375 166 58 9.957 6.48 19.25 15.616 26.777 24.182"/><path stroke="#000" d="M460.691-111.019l-2.122-7.377-.14 4.707-2.263-2.67h0l2.262 2.67-4.666-.634 6.93 3.304h0z"/><text text-anchor="middle" x="296.5" y="-211.4" font-family="Lato" font-size="12">!a &amp; b</text><text text-anchor="middle" x="296.5" y="-198.4" font-family="Lato" font-size="12">{}</text></g><g class="node"><path fill="#ffffa0" stroke="#000" d="M263-103h-54v36h54v-36z"/><text text-anchor="middle" x="236" y="-81.9" font-family="Lato" font-size="12">3</text></g><g class="edge"><path fill="none" stroke="#000" d="M133.823-160.051c8.44 7.743 19.13 17.196 29.177 25.051 12.584 9.839 26.989 19.934 39.66 28.455"/><path stroke="#000" d="M208.725-102.497l-4.074-6.506 1.163 4.563-2.911-1.943h0l2.91 1.943-4.66.677 7.572 1.266h0z"/><text text-anchor="middle" x="177" y="-151.4" font-family="Lato" font-size="12">a &amp; b</text><text text-anchor="middle" x="177" y="-138.4" font-family="Lato" font-size="12">{}</text></g><g class="node"><ellipse fill="#ffffa0" stroke="#000" cx="357" cy="-124" rx="27" ry="18"/><text text-anchor="middle" x="357" y="-120.9" font-family="Lato" font-size="12">1</text></g><g class="edge"><path fill="none" stroke="#000" d="M145.065-174.531C183.222-173.171 254.586-168.037 312-149c6.479 2.148 13.097 5.24 19.195 8.52"/><path stroke="#000" d="M337.577-136.88l-4.55-6.183 1.501 4.463-3.049-1.72h0l3.049 1.72-4.596 1.025 7.645.694h0z"/><text text-anchor="middle" x="236" y="-185.4" font-family="Lato" font-size="12">a &amp; !b</text><text text-anchor="middle" x="236" y="-172.4" font-family="Lato" font-size="12">{}</text></g><g class="node"><path fill="#ffffa0" stroke="#000" d="M609-40h-54v36h54v-36z"/><path fill="none" stroke="#000" d="M613-44h-62V0h62v-44z"/><text text-anchor="middle" x="582" y="-18.9" font-family="Lato" font-size="12">4</text></g><g class="edge"><path fill="none" stroke="#000" d="M501.253-75.084c13.232 8.7 29.33 19.282 43.661 28.703"/><path stroke="#000" d="M550.934-42.423l-4.119-6.478 1.194 4.555-2.924-1.922h0l2.924 1.922-4.655.71 7.58 1.213h0z"/><text text-anchor="middle" x="526" y="-78.4" font-family="Lato" font-size="12">{a}</text><text text-anchor="middle" x="526" y="-65.4" font-family="Lato" font-size="12">{}</text></g><g class="edge"><path fill="none" stroke="#000" d="M263.089-79.94C268.983-78.907 275.192-77.87 281-77c45.348 6.802 57.474 11.484 103 6 18.724-2.255 39.176-7.06 55.846-11.605"/><path stroke="#000" d="M446.742-84.529l-7.59-1.153 4.219 2.094-3.372.94h0l3.372-.94-2.525 3.974 5.896-4.915h0z"/><text text-anchor="middle" x="357" y="-87.4" font-family="Lato" font-size="12">{a}</text><text text-anchor="middle" x="357" y="-74.4" font-family="Lato" font-size="12">{}</text></g><g class="edge"><path fill="none" stroke="#000" d="M263.196-80.987c14.869 1.128 33.35.754 48.804-5.013 9.619-3.59 18.615-10.21 25.997-16.93"/><path stroke="#000" d="M343.31-108.04l-7.228 2.582 4.706-.156-2.523 2.426h0l2.523-2.426-.34 4.697 2.863-7.123h0z"/><text text-anchor="middle" x="296.5" y="-102.4" font-family="Lato" font-size="12">{b}</text><text text-anchor="middle" x="296.5" y="-89.4" font-family="Lato" font-size="12">{}</text></g><g class="edge"><path fill="none" stroke="#000" d="M263.413-74.577c5.763 2 11.838 3.97 17.587 5.577 92.32 25.817 204.796 38.637 262.61 43.922"/><path stroke="#000" d="M550.722-24.44l-6.691-3.763 3.205 3.45-3.486-.313h0l3.486.313-3.767 2.825 7.253-2.513h0z"/><text text-anchor="middle" x="415.5" y="-59.4" font-family="Lato" font-size="12">{a}</text><text text-anchor="middle" x="415.5" y="-46.4" font-family="Lato" font-size="12">{}</text></g><g class="edge"><path fill="none" stroke="#000" d="M382.1-117.35l57.68 15.283"/><path stroke="#000" d="M446.903-100.18l-5.96-4.837 2.577 3.941-3.384-.897h0l3.384.897-4.19 2.148 7.573-1.252h0z"/><text text-anchor="middle" x="415.5" y="-127.4" font-family="Lato" font-size="12">{a, b}</text><text text-anchor="middle" x="415.5" y="-114.4" font-family="Lato" font-size="12">{}</text></g><g class="edge"><path fill="none" stroke="#000" d="M329.993-122.269c-14.812 1.572-33.3 4.567-48.993 10.269-4.159 1.51-8.359 3.42-12.435 5.522"/><path stroke="#000" d="M262.285-103.045l7.653-.593-4.582-1.086 3.072-1.678h0l-3.072 1.678 1.56-4.442-4.63 6.121h0z"/><text text-anchor="middle" x="296.5" y="-135.4" font-family="Lato" font-size="12">{b}</text><text text-anchor="middle" x="296.5" y="-122.4" font-family="Lato" font-size="12">{}</text></g><g class="edge"><path fill="none" stroke="#000" d="M571.626-44.212C570.776-53.795 574.234-62 582-62c5.703 0 9.083 4.425 10.14 10.57"/><path stroke="#000" d="M592.374-44.212l2.92-7.1-3.034 3.601-.114-3.498h0l.115 3.498-3.263-3.395 3.376 6.894h0z"/><text text-anchor="middle" x="582" y="-78.4" font-family="Lato" font-size="12">{a}</text><text text-anchor="middle" x="582" y="-65.4" font-family="Lato" font-size="12">{0}</text></g></g></svg>