<?xml-stylesheet href="spot.css" type="text/css"?><svg width="728" height="304" viewBox="0 0 546.47 227.5" xmlns="http://www.w3.org/2000/svg"><g class="graph" transform="translate(4 223.5)"><path fill="#fff" stroke="transparent" d="M-4 4v-227.5h546.468V4H-4z"/><g class="node"><path fill="#ffffa0" stroke="#000" d="M172-123.5h-54v36h54v-36z"/><text text-anchor="middle" x="145" y="-108.9" font-family="Lato" font-size="12">2</text><text text-anchor="middle" x="145" y="-95.9" font-family="Lato" font-size="12">a &amp; b</text></g><g class="edge"><path fill="none" stroke="#000" d="M54.072-105.5h56.136"/><path stroke="#000" d="M117.646-105.5l-7-3.15 3.5 3.15h-3.5 3.5l-3.5 3.15 7-3.15h0z"/><text text-anchor="middle" x="86" y="-108.9" font-family="Lato" font-size="12">a &amp; b</text></g><g class="node"><path fill="#ffffa0" stroke="#000" d="M426.468-119.5h-54v36h54v-36z"/><text text-anchor="middle" x="399.468" y="-104.9" font-family="Lato" font-size="12">1</text><text text-anchor="middle" x="399.468" y="-91.9" font-family="Lato" font-size="12">!a &amp; b</text></g><g class="edge"><path fill="none" stroke="#000" d="M172.048-110.4c5.898-.874 12.119-1.649 17.952-2.1 72.88-5.635 91.896-8.741 164.468 0 3.503.422 7.128 1.022 10.728 1.728"/><path stroke="#000" d="M372.054-109.306l-6.186-4.544 2.764 3.812-3.423-.732h0l3.423.732-4.082 2.349 7.504-1.617h0z"/><text text-anchor="middle" x="272.234" y="-133.9" font-family="Lato" font-size="12">{a}</text><text text-anchor="middle" x="272.234" y="-120.9" font-family="Lato" font-size="12">{}</text></g><g class="node"><ellipse fill="#ffffa0" stroke="#000" cx="272.234" cy="-66.5" rx="33.47" ry="24.083"/><text text-anchor="middle" x="272.234" y="-69.9" font-family="Lato" font-size="12">0</text><text text-anchor="middle" x="272.234" y="-56.9" font-family="Lato" font-size="12">a &amp; !b</text></g><g class="edge"><path fill="none" stroke="#000" d="M172.338-93.132c5.768 2.376 11.864 4.717 17.662 6.632 13.781 4.552 29.171 8.57 42.876 11.786"/><path stroke="#000" d="M239.872-73.106l-6.116-4.638 2.705 3.854-3.411-.784h0l3.411.784-4.117 2.286 7.528-1.502h0z"/><text text-anchor="middle" x="205.5" y="-102.9" font-family="Lato" font-size="12">{b}</text><text text-anchor="middle" x="205.5" y="-89.9" font-family="Lato" font-size="12">{}</text></g><g class="node"><path fill="#ffffa0" stroke="#000" d="M534.468-171.5h-54v36h54v-36z"/><path fill="none" stroke="#000" d="M538.468-175.5h-62v44h62v-44z"/><text text-anchor="middle" x="507.468" y="-150.4" font-family="Lato" font-size="12">3</text></g><g class="edge"><path fill="none" stroke="#000" d="M172.368-121.242C190.6-130.83 215.454-142.222 239-147.5c89.236-20.002 114.05-8.555 205.468-11 6.22-.166 7.786-.316 14 0 3.539.18 7.216.433 10.894.73"/><path stroke="#000" d="M476.399-157.15l-6.697-3.752 3.21 3.444-3.486-.306h0l3.486.306-3.762 2.832 7.249-2.525h0z"/><text text-anchor="middle" x="338.968" y="-175.9" font-family="Lato" font-size="12">{a}</text><text text-anchor="middle" x="338.968" y="-162.9" font-family="Lato" font-size="12">{}</text></g><g class="edge"><path fill="none" stroke="#000" d="M274.72-24.043c5.62-1.273 19.676-4.7 30.748-9.457 23.046-9.9 28.628-13.367 49-28 7.163-5.145 14.493-11.244 21.101-17.109"/><path stroke="#000" d="M380.931-83.454l-7.306 2.356 4.71-.01-2.598 2.347h0l2.597-2.347-.485 4.684 3.082-7.03h0z"/><text text-anchor="middle" x="338.968" y="-64.9" font-family="Lato" font-size="12">!a &amp; b</text></g><g class="edge"><path fill="none" stroke="#000" d="M426.721-114.622l43.277-20.837"/><path stroke="#000" d="M476.402-138.542l-7.674.198 4.52 1.32-3.153 1.518h0l3.153-1.518-1.786 4.357 4.94-5.875h0z"/><text text-anchor="middle" x="451.468" y="-144.9" font-family="Lato" font-size="12">{a}</text><text text-anchor="middle" x="451.468" y="-131.9" font-family="Lato" font-size="12">{}</text></g><g class="edge"><path fill="none" stroke="#000" d="M147.767-1.036C157.983-3.09 194.374-11.08 221-25.5c8.621-4.669 17.236-10.833 24.875-16.958"/><path stroke="#000" d="M251.51-47.11l-7.404 2.028 4.705.2-2.7 2.229h0l2.7-2.228-.694 4.657 3.393-6.885h0z"/><text text-anchor="middle" x="205.5" y="-28.9" font-family="Lato" font-size="12">a &amp; !b</text></g><g class="edge"><path fill="none" stroke="#000" d="M245.646-51.62C229.014-44.39 207.502-38.926 190-47.5c-14.327-7.018-25.403-21.04-32.98-33.54"/><path stroke="#000" d="M153.376-87.392l.75 7.64.992-4.604 1.74 3.037h0l-1.74-3.037 4.473 1.47-6.215-4.506h0z"/><text text-anchor="middle" x="205.5" y="-63.9" font-family="Lato" font-size="12">{b}</text><text text-anchor="middle" x="205.5" y="-50.9" font-family="Lato" font-size="12">{}</text></g><g class="edge"><path fill="none" stroke="#000" d="M304.027-73.582c15.324-3.579 33.92-8.165 50.441-12.918a446.142 446.142 0 0011.247-3.413"/><path stroke="#000" d="M372.454-92.09l-7.629-.846 4.299 1.922-3.33 1.076h0l3.33-1.076-2.362 4.073 5.692-5.15h0z"/><text text-anchor="middle" x="338.968" y="-102.9" font-family="Lato" font-size="12">{a, b}</text><text text-anchor="middle" x="338.968" y="-89.9" font-family="Lato" font-size="12">{}</text></g><g class="edge"><path fill="none" stroke="#000" d="M497.094-175.712c-.85-9.583 2.608-17.788 10.374-17.788 5.703 0 9.083 4.425 10.14 10.57"/><path stroke="#000" d="M517.842-175.712l2.92-7.1-3.033 3.602-.114-3.499h0l.114 3.499-3.263-3.396 3.376 6.894h0z"/><text text-anchor="middle" x="507.468" y="-209.9" font-family="Lato" font-size="12">{a}</text><text text-anchor="middle" x="507.468" y="-196.9" font-family="Lato" font-size="12">{0}</text></g></g></svg>