<?xml-stylesheet href="spot.css" type="text/css"?><svg width="152" height="316" viewBox="0 0 114 237" xmlns="http://www.w3.org/2000/svg"><g class="graph"><path fill="#fff" stroke="transparent" d="M0 237V0h114v237H0z"/><text x="14" y="-216.4" font-family="Lato" font-size="12" transform="translate(4 233)">Fin(</text><text x="34" y="-216.4" font-family="Lato" font-size="12" fill="#1f78b4" transform="translate(4 233)">⓿</text><text x="48" y="-216.4" font-family="Lato" font-size="12" transform="translate(4 233)">)|Fin(</text><text x="74" y="-216.4" font-family="Lato" font-size="12" fill="#ff4da0" transform="translate(4 233)">❶</text><text x="88" y="-216.4" font-family="Lato" font-size="12" transform="translate(4 233)">)</text><text x="8" y="-204.4" font-family="Lato" font-size="12" transform="translate(4 233)">[gen. co-Büchi 2]</text><g class="node" transform="translate(4 233)"><circle fill="#ffffa0" stroke="#000" cx="72" cy="-18" r="18"/><text text-anchor="middle" x="72" y="-14.9" font-family="Lato" font-size="12">0</text></g><g class="edge" transform="translate(4 233)"><path fill="none" stroke="#000" d="M17.123-18h29.801"/><path stroke="#000" d="M53.98-18l-7-3.15 3.5 3.15h-3.5 3.5l-3.5 3.15 7-3.15h0z"/></g><g class="edge" transform="translate(4 233)"><path fill="none" stroke="#000" d="M70.372-36.153C70.122-45.539 70.664-54 72-54c.981 0 1.534 4.563 1.66 10.705"/><path stroke="#000" d="M73.628-36.153l3.181-6.986-3.165 3.486.015-3.5h0l-.015 3.5-3.135-3.514 3.12 7.014h0z"/><text x="58" y="-57.4" font-family="Lato" font-size="12">a &amp; b</text></g><g class="edge" transform="translate(4 233)"><path fill="none" stroke="#000" d="M69.294-35.978C67.846-53.2 68.748-72 72-72c2.795 0 3.854 13.885 3.177 28.72"/><path stroke="#000" d="M74.706-35.978l3.594-6.783-3.369 3.29.226-3.493h0l-.226 3.493-2.918-3.696 2.693 7.189h0z"/><text x="56.5" y="-88.4" font-family="Lato" font-size="12">!a &amp; b</text><text x="65" y="-75.4" font-family="Lato" font-size="12" fill="#1f78b4">⓿</text></g><g class="edge" transform="translate(4 233)"><path fill="none" stroke="#000" d="M68.722-35.848C65.528-62.44 66.622-98 72-98c4.917 0 6.252 29.711 4.006 55.126"/><path stroke="#000" d="M75.278-35.848l3.855-6.638-3.494 3.156.36-3.481h0l-.36 3.481-2.772-3.806 2.41 7.288h0z"/><text x="56.5" y="-114.4" font-family="Lato" font-size="12">a &amp; !b</text><text x="65" y="-101.4" font-family="Lato" font-size="12" fill="#ff4da0">❶</text></g><g class="edge" transform="translate(4 233)"><path fill="none" stroke="#000" d="M68.297-35.941C63.242-70.891 64.477-124 72-124c7.024 0 8.566 46.289 4.627 80.876"/><path stroke="#000" d="M75.703-35.941l4.017-6.541-3.57 3.07.446-3.472h0l-.447 3.471-2.677-3.873 2.23 7.345h0z"/><text x="55" y="-139.4" font-family="Lato" font-size="12">!a &amp; !b</text><text x="58" y="-127.4" font-family="Lato" font-size="12" fill="#1f78b4">⓿</text><text x="72" y="-127.4" font-family="Lato" font-size="12" fill="#ff4da0">❶</text></g></g></svg>