<?xml-stylesheet href="spot.css" type="text/css"?><svg width="301pt" height="300" viewBox="0 0 301 224.76" xmlns="http://www.w3.org/2000/svg"><g class="graph" transform="translate(4 220.76)"><path fill="#fff" stroke="transparent" d="M-4 4v-224.76h301V4H-4z"/><text x="127.5" y="-190.161" font-family="Lato" font-size="12">[Büchi]</text><g class="node"><circle fill="#ffffa0" stroke="#e31a1c" stroke-width="2" cx="56" cy="-47.361" r="18"/><text text-anchor="middle" x="56" y="-44.261" font-family="Lato" font-size="12">0</text></g><g class="edge"><path fill="none" stroke="#000" d="M1.123-47.36h29.801"/><path stroke="#000" d="M37.98-47.36l-7-3.151 3.5 3.15h-3.5 3.5l-3.5 3.15 7-3.15h0z"/></g><g class="edge"><path fill="none" stroke="#ff4da0" stroke-width="2" d="M49.62-64.398c-1.301-9.82.825-18.963 6.38-18.963 4.166 0 6.404 5.142 6.713 11.857"/><path fill="#ff4da0" stroke="#ff4da0" stroke-width="2" d="M62.38-64.398l3.474-6.845-2.811 3.372.164-3.496-.5-.023-.499-.024-.164 3.496-2.483-3.62 2.818 7.14h0z"/><text x="52.5" y="-86.761" font-family="Lato" font-size="12">1</text></g><g class="node"><circle fill="#ffffa0" stroke="#000" cx="271" cy="-128.361" r="18"/><circle fill="none" stroke="#000" cx="271" cy="-128.361" r="22"/><text x="267.5" y="-125.261" font-family="Lato" font-size="12">1</text></g><g class="edge"><path fill="none" stroke="#ff4da0" stroke-width="2" d="M68.865-60.476C83.974-75.01 110.485-97.901 138-109.361c33.8-14.077 76.154-18.034 103.865-18.99"/><path fill="#ff4da0" stroke="#ff4da0" stroke-width="2" d="M248.927-128.54l-7.082-2.961 3.57 2.555-3.5.094.014.5.013.5 3.5-.094-3.428 2.743 6.913-3.337h0z"/><text x="144.5" y="-124.761" font-family="Lato" font-size="12">!a &amp; b</text></g><g class="node"><circle fill="#ffffa0" stroke="#000" cx="160" cy="-47.361" r="18"/><circle fill="none" stroke="#000" cx="160" cy="-47.361" r="22"/><text text-anchor="middle" x="160" y="-44.261" font-family="Lato" font-size="12">2</text></g><g class="edge"><path fill="none" stroke="#ff4da0" stroke-width="2" d="M74.115-47.36h56.178"/><path fill="#ff4da0" stroke="#ff4da0" stroke-width="2" d="M137.753-47.36l-7-3.151 3.5 2.65h-3.5v1h3.5l-3.5 2.65 7-3.15h0z"/><text x="92" y="-50.761" font-family="Lato" font-size="12">a &amp; b</text></g><g class="node"><circle fill="#ffffa0" stroke="#000" cx="271" cy="-27.361" r="18"/><circle fill="none" stroke="#000" cx="271" cy="-27.361" r="22"/><text text-anchor="middle" x="271" y="-24.261" font-family="Lato" font-size="12">3</text></g><g class="edge"><path fill="none" stroke="#ff4da0" stroke-width="2" d="M70.781-36.5C86.522-25.667 112.617-9.74 138-3.36c36.138 9.082 78.622-2.34 105.672-12.322"/><path fill="#ff4da0" stroke="#ff4da0" stroke-width="2" d="M250.538-18.308l-7.663-.442 4.215 1.225-3.269 1.25.179.467.179.467 3.269-1.25-2.323 3.726 5.413-5.443h0z"/><text x="144.5" y="-6.761" font-family="Lato" font-size="12">a &amp; !b</text></g><g class="edge"><path fill="none" stroke="#000" d="M261.293-148.118c-1.65-10.593 1.586-20.243 9.707-20.243 6.218 0 9.572 5.657 10.062 13.062"/><path stroke="#000" d="M280.707-148.118l3.492-6.836-3.319 3.34.173-3.496h0l-.173 3.496-2.973-3.651 2.8 7.147h0z"/><text x="267.5" y="-171.761" font-family="Lato" font-size="12">b</text></g><g class="edge"><path fill="none" stroke="#000" d="M177.834-60.375l69.496-50.713"/><path stroke="#000" d="M253.21-115.38l-7.511 1.583 4.684.481-2.827 2.063h0l2.827-2.063-.97 4.608 3.797-6.671h0z"/><text x="200" y="-100.761" font-family="Lato" font-size="12">!a &amp; b</text></g><g class="edge"><path fill="none" stroke="#000" d="M150.293-67.118c-1.65-10.593 1.586-20.243 9.707-20.243 6.218 0 9.572 5.657 10.062 13.062"/><path stroke="#000" d="M169.707-67.118l3.492-6.836-3.319 3.34.173-3.496h0l-.173 3.496-2.973-3.651 2.8 7.147h0z"/><text x="146" y="-90.761" font-family="Lato" font-size="12">a &amp; b</text></g><g class="edge"><path fill="none" stroke="#000" d="M182.278-46.917c14.097.633 32.633 2.119 48.722 5.556 4.148.886 8.457 2.084 12.644 3.407"/><path stroke="#000" d="M250.524-35.641l-5.631-5.217 2.313 4.101-3.317-1.115h0l3.317 1.115-4.321 1.87 7.639-.754h0z"/><text x="200" y="-48.761" font-family="Lato" font-size="12">a &amp; !b</text></g><g class="edge"><path fill="none" stroke="#000" d="M249.194-23.104c-14.238 1.97-33.102 3.04-49.194-1.257-5.442-1.453-10.912-3.843-15.984-6.545"/><path stroke="#000" d="M177.836-34.45l4.506 6.215-1.47-4.474 3.037 1.741h0l-3.037-1.74 4.603-.992-7.64-.75h0z"/><text x="201.5" y="-27.761" font-family="Lato" font-size="12">a &amp; b</text></g><g class="edge"><path fill="none" stroke="#000" d="M261.293-47.118c-1.65-10.593 1.586-20.243 9.707-20.243 6.218 0 9.572 5.657 10.062 13.062"/><path stroke="#000" d="M280.707-47.118l3.492-6.836-3.319 3.34.173-3.496h0l-.173 3.496-2.973-3.651 2.8 7.147h0z"/><text x="255.5" y="-70.761" font-family="Lato" font-size="12">a &amp; !b</text></g></g></svg>