<?xml-stylesheet href="spot.css" type="text/css"?><svg width="324" height="157pt" viewBox="0 0 243 156.6" xmlns="http://www.w3.org/2000/svg"><g class="graph"><path fill="#fff" stroke="transparent" d="M0 156.602V0h243v156.602H0z"/><text x="49" y="-136.002" font-family="Lato" font-size="12" transform="translate(4 152.602)">Inf(</text><text x="67" y="-136.002" font-family="Lato" font-size="12" fill="#ff7f00" transform="translate(4 152.602)">❷</text><text x="81" y="-136.002" font-family="Lato" font-size="12" transform="translate(4 152.602)">) | (Fin(</text><text x="116" y="-136.002" font-family="Lato" font-size="12" fill="#ff4da0" transform="translate(4 152.602)">❶</text><text x="130" y="-136.002" font-family="Lato" font-size="12" transform="translate(4 152.602)">) &amp; Inf(</text><text x="165" y="-136.002" font-family="Lato" font-size="12" fill="#1f78b4" transform="translate(4 152.602)">⓿</text><text x="179" y="-136.002" font-family="Lato" font-size="12" transform="translate(4 152.602)">))</text><text x="67" y="-124.002" font-family="Lato" font-size="12" transform="translate(4 152.602)">[parity max even 3]</text><g class="node" transform="translate(4 152.602)"><path fill="#ffffa0" stroke="#000" d="M62-36.602H50c-6 0-12 6-12 12v12c0 6 6 12 12 12h12c6 0 12-6 12-12v-12c0-6-6-12-12-12"/><text x="52.5" y="-22.002" font-family="Lato" font-size="12">0</text><text x="49" y="-9.002" font-family="Lato" font-size="12" fill="#ff7f00">❷</text></g><g class="edge" transform="translate(4 152.602)"><path fill="none" stroke="#000" d="M1.123-18.602h29.801"/><path stroke="#000" d="M37.98-18.602l-7-3.15 3.5 3.15h-3.5 3.5l-3.5 3.15 7-3.15h0z"/></g><g class="node" transform="translate(4 152.602)"><path fill="#ffffa0" stroke="#000" d="M144-85.602h-12c-6 0-12 6-12 12v12c0 6 6 12 12 12h12c6 0 12-6 12-12v-12c0-6-6-12-12-12"/><text x="134.5" y="-71.002" font-family="Lato" font-size="12">1</text><text x="131" y="-58.002" font-family="Lato" font-size="12" fill="#ff4da0">❶</text></g><g class="edge" transform="translate(4 152.602)"><path fill="none" stroke="#000" d="M74.198-29.476l39.316-23.494"/><path stroke="#000" d="M119.852-56.757l-7.624.886 4.62.909-3.004 1.795h0l3.004-1.795-1.389 4.5 4.393-6.295h0z"/><text x="92" y="-49.002" font-family="Lato" font-size="12">!b</text></g><g class="node" transform="translate(4 152.602)"><path fill="#ffffa0" stroke="#000" d="M223-36.602h-12c-6 0-12 6-12 12v12c0 6 6 12 12 12h12c6 0 12-6 12-12v-12c0-6-6-12-12-12"/><text x="213.5" y="-22.002" font-family="Lato" font-size="12">2</text><text x="210" y="-9.002" font-family="Lato" font-size="12" fill="#ff4da0">❶</text></g><g class="edge" transform="translate(4 152.602)"><path fill="none" stroke="#000" d="M74.156-18.602h117.1"/><path stroke="#000" d="M198.663-18.602l-7-3.15 3.5 3.15h-3.5 3.5l-3.5 3.15 7-3.15h0z"/><text x="134.5" y="-22.002" font-family="Lato" font-size="12">b</text></g><g class="edge" transform="translate(4 152.602)"><path fill="none" stroke="#000" d="M131.125-85.754c-1.057-9.387 1.234-17.848 6.875-17.848 4.142 0 6.478 4.563 7.008 10.705"/><path stroke="#000" d="M144.875-85.754l3.28-6.94-3.215 3.44.066-3.5h0l-.066 3.5-3.084-3.558 3.019 7.058h0z"/><text x="133" y="-107.002" font-family="Lato" font-size="12">!b</text></g><g class="edge" transform="translate(4 152.602)"><path fill="none" stroke="#000" d="M156.323-56.237l36.205 22.457"/><path stroke="#000" d="M198.777-29.905l-4.289-6.366 1.314 4.521-2.974-1.844h0l2.974 1.844-4.634.832 7.609 1.013h0z"/><text x="174" y="-47.002" font-family="Lato" font-size="12">b</text></g><g class="edge" transform="translate(4 152.602)"><path fill="none" stroke="#000" d="M198.855-12.146C186.865-8.23 170.705-3.612 156-1.602c-15.852 2.168-20.135 2.072-36 0-13.028-1.7-27.178-5.27-38.853-8.702"/><path stroke="#000" d="M74.23-12.405l5.783 5.049-2.434-4.032 3.35 1.018h0l-3.35-1.018 4.265-1.996-7.613.98h0z"/><text x="134.5" y="-5.002" font-family="Lato" font-size="12">a</text></g><g class="edge" transform="translate(4 152.602)"><path fill="none" stroke="#000" d="M210.125-36.754c-1.057-9.387 1.234-17.848 6.875-17.848 4.142 0 6.478 4.563 7.008 10.705"/><path stroke="#000" d="M223.875-36.754l3.28-6.94-3.215 3.44.066-3.5h0l-.066 3.5-3.084-3.558 3.019 7.058h0z"/><text x="212" y="-58.002" font-family="Lato" font-size="12">!a</text></g></g></svg>