<?xml-stylesheet href="spot.css" type="text/css"?><svg width="185pt" height="163pt" viewBox="0 0 185 163.27" xmlns="http://www.w3.org/2000/svg"><g class="graph"><path fill="#fff" stroke="transparent" d="M0 163.268V0h185v163.268H0z"/><text x="70.5" y="-142.668" font-family="Lato" font-size="12" transform="translate(4 159.268)">Inf(</text><text x="88.5" y="-142.668" font-family="Lato" font-size="12" fill="#1f78b4" transform="translate(4 159.268)">⓿</text><text x="102.5" y="-142.668" font-family="Lato" font-size="12" transform="translate(4 159.268)">)</text><text x="69.5" y="-130.668" font-family="Lato" font-size="12" transform="translate(4 159.268)">[Büchi]</text><g class="node" transform="translate(4 159.268)"><circle fill="#ffffa0" stroke="#000" cx="56" cy="-30.268" r="18"/><text text-anchor="middle" x="56" y="-27.168" font-family="Lato" font-size="12">0</text></g><g class="edge" transform="translate(4 159.268)"><path fill="none" stroke="#000" d="M1.123-30.268h29.801"/><path stroke="#000" d="M37.98-30.268l-7-3.15 3.5 3.15h-3.5 3.5l-3.5 3.15 7-3.15h0z"/></g><g class="edge" transform="translate(4 159.268)"><path fill="none" stroke="#000" d="M49.62-47.305c-1.301-9.82.825-18.963 6.38-18.963 4.166 0 6.404 5.143 6.713 11.857"/><path stroke="#000" d="M62.38-47.305l3.474-6.845-3.31 3.349.164-3.496h0l-.165 3.496-2.982-3.644 2.818 7.14h0z"/><text x="51" y="-69.668" font-family="Lato" font-size="12">!a</text></g><g class="node" transform="translate(4 159.268)"><circle fill="#ffffa0" stroke="#000" cx="159" cy="-30.268" r="18"/><text text-anchor="middle" x="159" y="-27.168" font-family="Lato" font-size="12">1</text></g><g class="edge" transform="translate(4 159.268)"><path fill="none" stroke="#000" d="M73.927-32.057c5.764-.496 12.183-.966 18.073-1.21 13.766-.573 17.234-.573 31 0 3.59.149 7.375.381 11.089.653"/><path stroke="#000" d="M141.073-32.057l-6.727-3.697 3.238 3.418-3.489-.278h0l3.49.278-3.74 2.862 7.228-2.583h0z"/><text x="104" y="-49.668" font-family="Lato" font-size="12">a</text><text x="100.5" y="-36.668" font-family="Lato" font-size="12" fill="#1f78b4">⓿</text></g><g class="edge" transform="translate(4 159.268)"><path fill="none" stroke="#000" d="M146.19-17.446c-6.395 5.5-14.593 11.313-23.19 14.178-13.07 4.357-17.93 4.357-31 0-6.18-2.06-12.152-5.642-17.398-9.536"/><path stroke="#000" d="M68.81-17.446l3.492 6.836-.76-4.647 2.73 2.189h0l-2.73-2.19 4.7-.268-7.432-1.92h0z"/><text x="92" y="-19.668" font-family="Lato" font-size="12">!a &amp; b</text><text x="100.5" y="-6.668" font-family="Lato" font-size="12" fill="#1f78b4">⓿</text></g><g class="edge" transform="translate(4 159.268)"><path fill="none" stroke="#000" d="M154.506-48.05c-.764-9.533.734-18.218 4.494-18.218 2.761 0 4.302 4.684 4.624 10.948"/><path stroke="#000" d="M163.494-48.05l3.275-6.942-3.212 3.443.062-3.5h0l-.062 3.5-3.087-3.556 3.024 7.056h0z"/><text x="145" y="-82.668" font-family="Lato" font-size="12">a &amp; b</text><text x="152" y="-69.668" font-family="Lato" font-size="12" fill="#1f78b4">⓿</text></g><g class="edge" transform="translate(4 159.268)"><path fill="none" stroke="#000" d="M152.118-46.926C147.233-67 149.528-92.268 159-92.268c8.363 0 11.13 19.693 8.304 38.12"/><path stroke="#000" d="M165.882-46.926l4.443-6.26-3.767 2.825.676-3.434h0l-.676 3.434-2.414-4.042 1.738 7.477h0z"/><text x="154" y="-95.668" font-family="Lato" font-size="12">!b</text></g></g></svg>