<?xml-stylesheet href="spot.css" type="text/css"?><svg width="299pt" height="160pt" viewBox="0 0 299 159.97" xmlns="http://www.w3.org/2000/svg"><g class="graph"><path fill="#fff" stroke="transparent" d="M0 159.972V0h299v159.972H0z"/><text x="118" y="-125.372" font-family="Lato" font-size="12" transform="translate(4 155.972)">[co-Büchi]</text><g class="node" transform="translate(4 155.972)"><circle fill="#ffffa0" stroke="#000" cx="60" cy="-52.572" r="18"/><circle fill="none" stroke="#000" cx="60" cy="-52.572" r="22"/><text text-anchor="middle" x="60" y="-49.472" font-family="Lato" font-size="12">0</text></g><g class="edge" transform="translate(4 155.972)"><path fill="none" stroke="#000" d="M1.168-52.572h29.47"/><path stroke="#000" d="M37.865-52.572l-7-3.15 3.5 3.15h-3.5 3.5l-3.5 3.15 7-3.15h0z"/></g><g class="node" transform="translate(4 155.972)"><circle fill="#ffffa0" stroke="#000" cx="273" cy="-42.572" r="18"/><text text-anchor="middle" x="273" y="-39.472" font-family="Lato" font-size="12">1</text></g><g class="edge" transform="translate(4 155.972)"><path fill="none" stroke="#000" d="M77.165-66.695C101.52-84.959 147.634-113.032 188-100.572c25.542 7.884 50.263 26.365 66.398 40.363"/><path stroke="#000" d="M259.94-55.283l-3.14-7.005.524 4.68-2.616-2.326h0l2.616 2.326-4.709.029 7.325 2.296h0z"/><text x="153" y="-106.972" font-family="Lato" font-size="12">!a &amp; !b</text></g><g class="node" transform="translate(4 155.972)"><circle fill="#ffffa0" stroke="#000" cx="170" cy="-42.572" r="18"/><text text-anchor="middle" x="170" y="-39.472" font-family="Lato" font-size="12">2</text></g><g class="edge" transform="translate(4 155.972)"><path fill="none" stroke="#000" d="M82.07-52.02c14.74.525 34.537 1.534 51.93 3.448 3.608.397 7.403.916 11.122 1.484"/><path stroke="#000" d="M152.11-45.957l-6.408-4.228 2.952 3.669-3.455-.56h0l3.455.56-3.958 2.55 7.413-1.99h0z"/><text x="106" y="-53.972" font-family="Lato" font-size="12">a | b</text></g><g class="edge" transform="translate(4 155.972)"><path fill="none" stroke="#000" d="M257.769-32.867C241.309-23.002 213.944-8.372 188-2.572c-15.615 3.49-20.346 3.307-36 0-25.187-5.322-50.66-20.055-68.395-32.16"/><path stroke="#000" d="M77.435-39.05l3.929 6.595-1.061-4.588 2.867 2.007h0l-2.867-2.007 4.674-.574-7.542-1.433h0z"/><text x="165" y="-5.972" font-family="Lato" font-size="12">!b</text></g><g class="edge" transform="translate(4 155.972)"><path fill="none" stroke="#000" d="M264.367-58.488c-2.253-10.234.625-20.084 8.633-20.084 6.131 0 9.255 5.774 9.372 13.073"/><path stroke="#000" d="M281.633-58.488l3.866-6.632L282-61.969l.366-3.48h0L282-61.97l-2.766-3.81 2.4 7.29h0z"/><text x="269.5" y="-81.972" font-family="Lato" font-size="12">b</text></g><g class="edge" transform="translate(4 155.972)"><path fill="none" stroke="#000" d="M153.15-36.204c-14.28 4.513-35.234 9.05-53.15 4.632-5.026-1.24-10.12-3.235-14.91-5.515"/><path stroke="#000" d="M78.777-40.329l4.788 6-1.675-4.401 3.114 1.599h0l-3.114-1.6 4.552-1.203-7.665-.395h0z"/><text x="100" y="-34.972" font-family="Lato" font-size="12">!a &amp; !b</text></g><g class="edge" transform="translate(4 155.972)"><path fill="none" stroke="#000" d="M188.414-42.572h58.884"/><path stroke="#000" d="M254.745-42.572l-7-3.15 3.5 3.15h-3.5 3.5l-3.5 3.15 7-3.15h0z"/><text x="206" y="-45.972" font-family="Lato" font-size="12">!a &amp; b</text></g><g class="edge" transform="translate(4 155.972)"><path fill="none" stroke="#000" d="M161.367-58.488c-2.253-10.234.625-20.084 8.633-20.084 6.131 0 9.255 5.774 9.372 13.073"/><path stroke="#000" d="M178.633-58.488l3.866-6.632L179-61.969l.367-3.48h0L179-61.97l-2.766-3.81 2.4 7.29h0z"/><text x="166.5" y="-81.972" font-family="Lato" font-size="12">a</text></g></g></svg>