<?xml-stylesheet href="spot.css" type="text/css"?><svg width="164pt" height="107pt" viewBox="0 0 164 107.06" xmlns="http://www.w3.org/2000/svg"><g class="graph"><path fill="#fff" stroke="transparent" d="M0 107.062V0h164v107.062H0z"/><text x="39" y="-86.462" font-family="Lato" font-size="12" transform="translate(4 103.062)">Fin(</text><text x="59" y="-86.462" font-family="Lato" font-size="12" fill="#1f78b4" transform="translate(4 103.062)">⓿</text><text x="73" y="-86.462" font-family="Lato" font-size="12" transform="translate(4 103.062)">)|Fin(</text><text x="99" y="-86.462" font-family="Lato" font-size="12" fill="#ff4da0" transform="translate(4 103.062)">❶</text><text x="113" y="-86.462" font-family="Lato" font-size="12" transform="translate(4 103.062)">)</text><text x="33" y="-74.462" font-family="Lato" font-size="12" transform="translate(4 103.062)">[gen. co-Büchi 2]</text><g class="node" transform="translate(4 103.062)"><path fill="#ffffa0" stroke="#000" d="M62-36.062H50c-6 0-12 6-12 12v12c0 6 6 12 12 12h12c6 0 12-6 12-12v-12c0-6-6-12-12-12"/><text x="52.5" y="-21.462" font-family="Lato" font-size="12">0</text><text x="49" y="-8.462" font-family="Lato" font-size="12" fill="#1f78b4">⓿</text></g><g class="edge" transform="translate(4 103.062)"><path fill="none" stroke="#000" d="M1.123-18.062h29.801"/><path stroke="#000" d="M37.98-18.062l-7-3.15 3.5 3.15h-3.5 3.5l-3.5 3.15 7-3.15h0z"/></g><g class="edge" transform="translate(4 103.062)"><path fill="none" stroke="#000" d="M49.487-36.215C48.485-45.6 50.657-54.062 56-54.062c3.924 0 6.138 4.563 6.64 10.705"/><path stroke="#000" d="M62.513-36.215l3.274-6.942-3.212 3.443.062-3.5h0l-.062 3.5-3.087-3.555 3.025 7.054h0z"/><text x="52.5" y="-57.462" font-family="Lato" font-size="12">a</text></g><g class="node" transform="translate(4 103.062)"><path fill="#ffffa0" stroke="#000" d="M144-36.062h-12c-6 0-12 6-12 12v12c0 6 6 12 12 12h12c6 0 12-6 12-12v-12c0-6-6-12-12-12"/><text x="134.5" y="-21.462" font-family="Lato" font-size="12">1</text><text x="131" y="-8.462" font-family="Lato" font-size="12" fill="#ff4da0">❶</text></g><g class="edge" transform="translate(4 103.062)"><path fill="none" stroke="#000" d="M74.198-18.062h38.619"/><path stroke="#000" d="M119.852-18.062l-7-3.15 3.5 3.15h-3.5 3.5l-3.5 3.15 7-3.15h0z"/><text x="92" y="-21.462" font-family="Lato" font-size="12">!a</text></g><g class="edge" transform="translate(4 103.062)"><path fill="none" stroke="#000" d="M119.984-6.213C111.629-2.077 101.47 1.062 92-1.062c-3.794-.85-7.658-2.148-11.38-3.655"/><path stroke="#000" d="M74.124-7.605l5.117 5.722-1.92-4.3 3.2 1.421h0l-3.2-1.421L81.8-7.64l-7.675.035h0z"/><text x="92" y="-4.462" font-family="Lato" font-size="12">!b</text></g><g class="edge" transform="translate(4 103.062)"><path fill="none" stroke="#000" d="M130.764-36.215C129.65-45.6 132.062-54.062 138-54.062c4.36 0 6.82 4.563 7.377 10.705"/><path stroke="#000" d="M145.236-36.215l3.288-6.936-3.219 3.437.07-3.5h0l-.07 3.5-3.08-3.561 3.011 7.06h0z"/><text x="134.5" y="-57.462" font-family="Lato" font-size="12">b</text></g></g></svg>