<?xml-stylesheet href="spot.css" type="text/css"?><svg width="352" height="140pt" viewBox="0 0 264 140" xmlns="http://www.w3.org/2000/svg"><g class="graph"><path fill="#fff" stroke="transparent" d="M0 140V0h264v140H0z"/><text x="59.5" y="-119.4" font-family="Lato" font-size="12" transform="translate(4 136)">Inf(</text><text x="77.5" y="-119.4" font-family="Lato" font-size="12" fill="#ff7f00" transform="translate(4 136)">❷</text><text x="91.5" y="-119.4" font-family="Lato" font-size="12" transform="translate(4 136)">) | (Fin(</text><text x="126.5" y="-119.4" font-family="Lato" font-size="12" fill="#ff4da0" transform="translate(4 136)">❶</text><text x="140.5" y="-119.4" font-family="Lato" font-size="12" transform="translate(4 136)">) &amp; Inf(</text><text x="175.5" y="-119.4" font-family="Lato" font-size="12" fill="#1f78b4" transform="translate(4 136)">⓿</text><text x="189.5" y="-119.4" font-family="Lato" font-size="12" transform="translate(4 136)">))</text><text x="77.5" y="-107.4" font-family="Lato" font-size="12" transform="translate(4 136)">[parity max even 3]</text><g class="node" transform="translate(4 136)"><path fill="#ffffa0" stroke="#000" d="M62-36H50c-6 0-12 6-12 12v12c0 6 6 12 12 12h12c6 0 12-6 12-12v-12c0-6-6-12-12-12"/><text text-anchor="middle" x="56" y="-14.9" font-family="Lato" font-size="12">0</text></g><g class="edge" transform="translate(4 136)"><path fill="none" stroke="#000" d="M1.123-18h29.801"/><path stroke="#000" d="M37.98-18l-7-3.15 3.5 3.15h-3.5 3.5l-3.5 3.15 7-3.15h0z"/></g><g class="edge" transform="translate(4 136)"><path fill="none" stroke="#000" d="M49.487-36.153C48.485-45.539 50.657-54 56-54c3.924 0 6.138 4.563 6.64 10.705"/><path stroke="#000" d="M62.513-36.153l3.274-6.943-3.212 3.444.062-3.5h0l-.062 3.5-3.087-3.556 3.025 7.055h0z"/><text x="51" y="-57.4" font-family="Lato" font-size="12">!b</text></g><g class="node" transform="translate(4 136)"><path fill="#ffffa0" stroke="#000" d="M141-69h-12c-6 0-12 6-12 12v12c0 6 6 12 12 12h12c6 0 12-6 12-12v-12c0-6-6-12-12-12"/><text text-anchor="middle" x="135" y="-47.9" font-family="Lato" font-size="12">1</text></g><g class="edge" transform="translate(4 136)"><path fill="none" stroke="#000" d="M74.323-25.654l35.88-14.988"/><path stroke="#000" d="M116.777-43.388l-7.674-.208 4.444 1.557-3.23 1.35h0l3.23-1.35-2.015 4.256 5.245-5.605h0z"/><text x="92" y="-38.4" font-family="Lato" font-size="12">b</text></g><g class="edge" transform="translate(4 136)"><path fill="none" stroke="#000" d="M128.125-69.153C127.068-78.539 129.36-87 135-87c4.142 0 6.478 4.563 7.008 10.705"/><path stroke="#000" d="M141.875-69.153l3.28-6.94-3.215 3.44.066-3.498h0l-.066 3.499-3.084-3.559 3.019 7.058h0z"/><text x="130" y="-90.4" font-family="Lato" font-size="12">!a</text></g><g class="node" transform="translate(4 136)"><path fill="#ffffa0" stroke="#000" d="M244-53h-12c-6 0-12 6-12 12v12c0 6 6 12 12 12h12c6 0 12-6 12-12v-12c0-6-6-12-12-12"/><text x="234.5" y="-38.4" font-family="Lato" font-size="12">2</text><text x="231" y="-25.4" font-family="Lato" font-size="12" fill="#1f78b4">⓿</text></g><g class="edge" transform="translate(4 136)"><path fill="none" stroke="#000" d="M153.106-52.11c13.591-.438 32.586-.202 48.894 3.11 3.604.732 7.316 1.793 10.925 3.008"/><path stroke="#000" d="M219.68-43.51l-5.484-5.37 2.2 4.163-3.286-1.207h0l3.285 1.207-4.371 1.75 7.657-.543h0z"/><text x="183" y="-55.4" font-family="Lato" font-size="12">a</text></g><g class="edge" transform="translate(4 136)"><path fill="none" stroke="#000" d="M219.742-28.263C202.737-22.37 176.541-14.26 153-11c-15.849 2.195-20.026.914-36 0-11.76-.672-24.733-2.069-35.68-3.438"/><path stroke="#000" d="M74.104-15.373l6.537 4.023-3.066-3.574 3.47.45h0l-3.47-.45 3.875-2.674-7.346 2.225h0z"/><text x="122.5" y="-14.4" font-family="Lato" font-size="12">a | !b</text></g><g class="edge" transform="translate(4 136)"><path fill="none" stroke="#000" d="M219.809-31.422C206.174-29.402 187.162-27.997 171-32c-3.773-.934-7.586-2.344-11.249-3.983"/><path stroke="#000" d="M153.364-39.124l4.891 5.916-1.75-4.371 3.14 1.544h0l-3.14-1.544 4.53-1.282-7.671-.263h0z"/><text x="171" y="-35.4" font-family="Lato" font-size="12">!a &amp; b</text></g></g></svg>