<?xml-stylesheet href="spot.css" type="text/css"?><svg width="218pt" height="107pt" viewBox="0 0 218 107.43" xmlns="http://www.w3.org/2000/svg"><g class="graph"><path fill="#fff" stroke="transparent" d="M0 107.427V0h218v107.427H0z"/><text x="8" y="-86.827" font-family="Lato" font-size="12" transform="translate(4 103.427)">(Fin(</text><text x="31" y="-86.827" font-family="Lato" font-size="12" fill="#1f78b4" transform="translate(4 103.427)">⓿</text><text x="45" y="-86.827" font-family="Lato" font-size="12" transform="translate(4 103.427)">) &amp; Inf(</text><text x="80" y="-86.827" font-family="Lato" font-size="12" fill="#ff4da0" transform="translate(4 103.427)">❶</text><text x="94" y="-86.827" font-family="Lato" font-size="12" transform="translate(4 103.427)">)) | (Fin(</text><text x="132" y="-86.827" font-family="Lato" font-size="12" fill="#ff7f00" transform="translate(4 103.427)">❷</text><text x="146" y="-86.827" font-family="Lato" font-size="12" transform="translate(4 103.427)">) &amp; Inf(</text><text x="181" y="-86.827" font-family="Lato" font-size="12" fill="#6a3d9a" transform="translate(4 103.427)">❸</text><text x="195" y="-86.827" font-family="Lato" font-size="12" transform="translate(4 103.427)">))</text><text x="81" y="-74.827" font-family="Lato" font-size="12" transform="translate(4 103.427)">[Rabin 2]</text><g class="node" transform="translate(4 103.427)"><path fill="#ffffa0" stroke="#000" d="M89-36.427H69c-6 0-12 6-12 12v12c0 6 6 12 12 12h20c6 0 12-6 12-12v-12c0-6-6-12-12-12"/><text x="75.5" y="-21.827" font-family="Lato" font-size="12">0</text><text x="65" y="-9.827" font-family="Lato" font-size="12" fill="#ff4da0">❶</text><text x="79" y="-9.827" font-family="Lato" font-size="12" fill="#ff7f00">❷</text></g><g class="edge" transform="translate(4 103.427)"><path fill="none" stroke="#000" d="M20.168-18.427h29.47"/><path stroke="#000" d="M56.865-18.427l-7-3.15 3.5 3.15h-3.5 3.5l-3.5 3.15 7-3.15h0z"/></g><g class="edge" transform="translate(4 103.427)"><path fill="none" stroke="#000" d="M71.764-36.58C70.65-45.966 73.063-54.427 79-54.427c4.36 0 6.82 4.563 7.377 10.704"/><path stroke="#000" d="M86.236-36.58l3.288-6.937-3.219 3.438.07-3.5h0l-.07 3.5-3.08-3.562 3.011 7.061h0z"/><text x="75.5" y="-57.827" font-family="Lato" font-size="12">a</text></g><g class="node" transform="translate(4 103.427)"><path fill="#ffffa0" stroke="#000" d="M179-36.427h-20c-6 0-12 6-12 12v12c0 6 6 12 12 12h20c6 0 12-6 12-12v-12c0-6-6-12-12-12"/><text x="165.5" y="-21.827" font-family="Lato" font-size="12">1</text><text x="155" y="-9.827" font-family="Lato" font-size="12" fill="#1f78b4">⓿</text><text x="169" y="-9.827" font-family="Lato" font-size="12" fill="#6a3d9a">❸</text></g><g class="edge" transform="translate(4 103.427)"><path fill="none" stroke="#000" d="M101.247-18.427h38.35"/><path stroke="#000" d="M146.697-18.427l-7-3.15 3.5 3.15h-3.5 3.5l-3.5 3.15 7-3.15h0z"/><text x="119" y="-21.827" font-family="Lato" font-size="12">!a</text></g><g class="edge" transform="translate(4 103.427)"><path fill="none" stroke="#000" d="M146.665-7.079c-5.626 2.335-11.75 4.447-17.665 5.652-7.008 1.427-14.387.406-21.26-1.703"/><path stroke="#000" d="M101.067-5.552l5.505 5.35-2.215-4.156 3.29 1.194h0l-3.29-1.194 4.365-1.767-7.655.573h0z"/><text x="119" y="-4.827" font-family="Lato" font-size="12">!b</text></g><g class="edge" transform="translate(4 103.427)"><path fill="none" stroke="#000" d="M161.04-36.58c-1.225-9.386 1.429-17.847 7.96-17.847 4.796 0 7.501 4.563 8.115 10.704"/><path stroke="#000" d="M176.96-36.58l3.301-6.93-3.225 3.43.076-3.498h0l-.076 3.499-3.073-3.568 2.997 7.067h0z"/><text x="165.5" y="-57.827" font-family="Lato" font-size="12">b</text></g></g></svg>