<?xml-stylesheet href="spot.css" type="text/css"?><svg width="572" height="257pt" viewBox="0 0 429 256.78" xmlns="http://www.w3.org/2000/svg"><g class="graph" transform="translate(4 252.78)"><path fill="#fff" stroke="transparent" d="M-4 4v-256.78h429V4H-4z"/><text x="113.5" y="-236.18" font-family="Lato" font-size="12">(Fin(</text><text x="136.5" y="-236.18" font-family="Lato" font-size="12" fill="#1f78b4">⓿</text><text x="150.5" y="-236.18" font-family="Lato" font-size="12">) &amp; Inf(</text><text x="185.5" y="-236.18" font-family="Lato" font-size="12" fill="#ff4da0">❶</text><text x="199.5" y="-236.18" font-family="Lato" font-size="12">)) | (Fin(</text><text x="237.5" y="-236.18" font-family="Lato" font-size="12" fill="#ff7f00">❷</text><text x="251.5" y="-236.18" font-family="Lato" font-size="12">) &amp; Inf(</text><text x="286.5" y="-236.18" font-family="Lato" font-size="12" fill="#6a3d9a">❸</text><text x="300.5" y="-236.18" font-family="Lato" font-size="12">))</text><text x="186.5" y="-224.18" font-family="Lato" font-size="12">[Rabin 2]</text><g class="node"><path fill="#ffffa0" stroke="#000" d="M70-61.78H50c-6 0-12 6-12 12v12c0 6 6 12 12 12h20c6 0 12-6 12-12v-12c0-6-6-12-12-12"/><text x="56.5" y="-47.18" font-family="Lato" font-size="12">0</text><text x="46" y="-35.18" font-family="Lato" font-size="12" fill="#1f78b4">⓿</text><text x="60" y="-35.18" font-family="Lato" font-size="12" fill="#ff7f00">❷</text></g><g class="edge"><path fill="none" stroke="#000" d="M1.168-43.78h29.47"/><path stroke="#000" d="M37.865-43.78l-7-3.15 3.5 3.15h-3.5 3.5l-3.5 3.15 7-3.15h0z"/></g><g class="edge"><path fill="none" stroke="#000" d="M52.764-61.932C51.65-71.32 54.062-79.78 60-79.78c4.36 0 6.82 4.563 7.377 10.705"/><path stroke="#000" d="M67.236-61.932l3.288-6.937-3.219 3.437.07-3.5h0l-.07 3.5-3.08-3.561 3.011 7.06h0z"/><text x="43" y="-83.18" font-family="Lato" font-size="12">!a &amp; !b</text></g><g class="node"><path fill="#ffffa0" stroke="#000" d="M184-155.78h-20c-6 0-12 6-12 12v12c0 6 6 12 12 12h20c6 0 12-6 12-12v-12c0-6-6-12-12-12"/><text x="170.5" y="-141.18" font-family="Lato" font-size="12">1</text><text x="160" y="-129.18" font-family="Lato" font-size="12" fill="#ff4da0">❶</text><text x="174" y="-129.18" font-family="Lato" font-size="12" fill="#ff7f00">❷</text></g><g class="edge"><path fill="none" stroke="#000" d="M65.694-62.08c6.003-16.358 17.02-39.826 34.306-53.7 12.755-10.237 30.165-15.714 44.893-18.642"/><path stroke="#000" d="M151.876-135.665l-7.444-1.874 3.998 2.488-3.446.613h0l3.446-.613-2.894 3.714 6.34-4.328h0z"/><text x="101.5" y="-135.18" font-family="Lato" font-size="12">a &amp; !b</text></g><g class="node"><path fill="#ffffa0" stroke="#000" d="M409-92.78h-20c-6 0-12 6-12 12v12c0 6 6 12 12 12h20c6 0 12-6 12-12v-12c0-6-6-12-12-12"/><text x="395.5" y="-78.18" font-family="Lato" font-size="12">2</text><text x="385" y="-66.18" font-family="Lato" font-size="12" fill="#1f78b4">⓿</text><text x="399" y="-66.18" font-family="Lato" font-size="12" fill="#6a3d9a">❸</text></g><g class="edge"><path fill="none" stroke="#000" d="M82.151-35.404c5.736 1.841 11.957 3.558 17.849 4.624 64.763 11.72 82.588 12.275 148 5 50.26-5.59 64.057-6.197 111-25 3.853-1.543 7.766-3.43 11.562-5.462"/><path stroke="#000" d="M376.805-59.762l-7.644.694 4.596 1.025-3.05 1.719h0l3.05-1.72-1.502 4.464 4.55-6.182h0z"/><text x="215.5" y="-29.18" font-family="Lato" font-size="12">!a &amp; b</text></g><g class="node"><path fill="#ffffa0" stroke="#000" d="M298-92.78h-20c-6 0-12 6-12 12v12c0 6 6 12 12 12h20c6 0 12-6 12-12v-12c0-6-6-12-12-12"/><text x="284.5" y="-78.18" font-family="Lato" font-size="12">3</text><text x="274" y="-66.18" font-family="Lato" font-size="12" fill="#ff4da0">❶</text><text x="288" y="-66.18" font-family="Lato" font-size="12" fill="#6a3d9a">❸</text></g><g class="edge"><path fill="none" stroke="#000" d="M82.277-46.809l176.668-24.02"/><path stroke="#000" d="M265.969-71.784l-7.361-2.178 3.892 2.65-3.468.47h0l3.468-.47-3.043 3.592 6.512-4.064h0z"/><text x="160" y="-65.18" font-family="Lato" font-size="12">a &amp; b</text></g><g class="edge"><path fill="none" stroke="#000" d="M157.38-119.635c-6.867 6.963-15.14 14.706-23.38 20.855-13.873 10.354-19.924 8.925-34 19-5.468 3.914-11.022 8.472-16.183 13.003"/><path stroke="#000" d="M78.394-61.902l7.312-2.338-4.709-.002 2.603-2.34h0l-2.603 2.34.497-4.683-3.1 7.023h0z"/><text x="100" y="-102.18" font-family="Lato" font-size="12">!a &amp; !b</text></g><g class="edge"><path fill="none" stroke="#000" d="M163.87-155.933c-1.56-9.386 1.817-17.847 10.13-17.847 6.105 0 9.547 4.563 10.328 10.705"/><path stroke="#000" d="M184.13-155.933l3.343-6.91-3.246 3.412.097-3.499h0l-.097 3.499-3.052-3.586 2.956 7.084h0z"/><text x="158.5" y="-177.18" font-family="Lato" font-size="12">a &amp; !b</text></g><g class="edge"><path fill="none" stroke="#000" d="M186.243-156.012c7.003-8.825 16.61-18.605 27.757-23.768 58.478-27.082 93.079-38.174 145 0 13.2 9.706 26.301 51.887 33.748 79.743"/><path stroke="#000" d="M394.605-92.945l1.274-7.57-2.16 4.184-.887-3.386h0l.887 3.386-3.934-2.588 4.82 5.974h0z"/><text x="272.5" y="-207.18" font-family="Lato" font-size="12">!a &amp; b</text></g><g class="edge"><path fill="none" stroke="#000" d="M196.25-134.23c15.357 3.16 35.803 8.818 51.75 18.45 7.714 4.66 14.98 11.158 21.147 17.61"/><path stroke="#000" d="M274.055-92.803l-2.4-7.292.038 4.71-2.362-2.584h0l2.362 2.583-4.687-.457 7.049 3.04h0z"/><text x="217" y="-132.18" font-family="Lato" font-size="12">a &amp; b</text></g><g class="edge"><path fill="none" stroke="#000" d="M384.676-56.688c-6.994 7.754-15.986 16.3-25.676 21.908-44.23 25.6-60.341 23.275-111 30-65.586 8.707-85.423 5.48-148-16-3.883-1.333-7.814-3.054-11.62-4.954"/><path stroke="#000" d="M82.128-29.064l4.697 6.07-1.608-4.425 3.09 1.646h0l-3.09-1.646 4.57-1.135-7.66-.51h0z"/><text x="214" y="-8.18" font-family="Lato" font-size="12">!a &amp; !b</text></g><g class="edge"><path fill="none" stroke="#000" d="M376.893-92.543C359.634-105.548 334.542-122.63 310-132.78c-39.788-16.454-53.153-17.242-96-13-3.431.34-7.004.84-10.54 1.427"/><path stroke="#000" d="M196.308-143.05l7.451 1.844-4.008-2.472 3.444-.627h0l-3.444.627 2.879-3.726-6.322 4.354h0z"/><text x="272.5" y="-149.18" font-family="Lato" font-size="12">a &amp; !b</text></g><g class="edge"><path fill="none" stroke="#000" d="M389.231-92.933c-1.503-9.386 1.753-17.847 9.769-17.847 5.887 0 9.206 4.563 9.96 10.705"/><path stroke="#000" d="M408.769-92.933l3.335-6.913-3.242 3.415.093-3.499h0l-.093 3.499-3.055-3.583 2.962 7.081h0z"/><text x="383.5" y="-114.18" font-family="Lato" font-size="12">!a &amp; b</text></g><g class="edge"><path fill="none" stroke="#000" d="M376.843-74.78h-59.515"/><path stroke="#000" d="M310.196-74.78l7 3.15-3.5-3.15h3.5-3.5l3.5-3.15-7 3.15h0z"/><text x="329.5" y="-78.18" font-family="Lato" font-size="12">a &amp; b</text></g><g class="edge"><path fill="none" stroke="#000" d="M265.642-63.3c-18.21 8.67-44.867 19.845-69.642 24.52-36.232 6.837-78.828 3.48-106.566-.182"/><path stroke="#000" d="M82.37-39.945l6.499 4.084-3.033-3.602 3.467.482h0l-3.467-.482 3.9-2.638-7.367 2.156h0z"/><text x="157" y="-42.18" font-family="Lato" font-size="12">!a &amp; !b</text></g><g class="edge"><path fill="none" stroke="#000" d="M265.829-79.156C250.506-82.835 230.07-89.076 214-98.78c-6.993-4.222-13.714-9.887-19.585-15.588"/><path stroke="#000" d="M189.279-119.574l2.674 7.195-.216-4.704 2.458 2.492h0l-2.458-2.492 4.7.28-7.158-2.771h0z"/><text x="215.5" y="-102.18" font-family="Lato" font-size="12">a &amp; !b</text></g><g class="edge"><path fill="none" stroke="#000" d="M310.335-63.431c5.626 2.334 11.75 4.446 17.665 5.651 13.5 2.75 17.5 2.75 31 0 3.604-.734 7.287-1.805 10.886-3.058"/><path stroke="#000" d="M376.665-63.431L369-63.872l4.395 1.691-3.27 1.251h0l3.27-1.25-2.144 4.192 5.413-5.443h0z"/><text x="328" y="-61.18" font-family="Lato" font-size="12">!a &amp; b</text></g><g class="edge"><path fill="none" stroke="#000" d="M278.231-92.933c-1.503-9.386 1.753-17.847 9.769-17.847 5.887 0 9.206 4.563 9.96 10.705"/><path stroke="#000" d="M297.769-92.933l3.335-6.913-3.242 3.415.093-3.499h0l-.093 3.499-3.055-3.583 2.962 7.081h0z"/><text x="274" y="-114.18" font-family="Lato" font-size="12">a &amp; b</text></g></g></svg>