<?xml-stylesheet href="spot.css" type="text/css"?><svg width="469pt" height="262pt" viewBox="0 0 468.5 262.16" xmlns="http://www.w3.org/2000/svg"><g class="graph"><path fill="#fff" stroke="transparent" d="M0 262.159V0h468.5v262.159H0z"/><text x="133.25" y="-241.559" font-family="Lato" font-size="12" transform="translate(4 258.159)">(Fin(</text><text x="156.25" y="-241.559" font-family="Lato" font-size="12" fill="#1f78b4" transform="translate(4 258.159)">⓿</text><text x="170.25" y="-241.559" font-family="Lato" font-size="12" transform="translate(4 258.159)">) &amp; Inf(</text><text x="205.25" y="-241.559" font-family="Lato" font-size="12" fill="#ff4da0" transform="translate(4 258.159)">❶</text><text x="219.25" y="-241.559" font-family="Lato" font-size="12" transform="translate(4 258.159)">)) | (Fin(</text><text x="257.25" y="-241.559" font-family="Lato" font-size="12" fill="#ff7f00" transform="translate(4 258.159)">❷</text><text x="271.25" y="-241.559" font-family="Lato" font-size="12" transform="translate(4 258.159)">) &amp; Inf(</text><text x="306.25" y="-241.559" font-family="Lato" font-size="12" fill="#6a3d9a" transform="translate(4 258.159)">❸</text><text x="320.25" y="-241.559" font-family="Lato" font-size="12" transform="translate(4 258.159)">))</text><text x="206.25" y="-229.559" font-family="Lato" font-size="12" transform="translate(4 258.159)">[Rabin 2]</text><g class="node" transform="translate(4 258.159)"><path fill="#ffffa0" stroke="#000" d="M62-63.159H50c-6 0-12 6-12 12v12c0 6 6 12 12 12h12c6 0 12-6 12-12v-12c0-6-6-12-12-12"/><text x="52.5" y="-48.559" font-family="Lato" font-size="12">0</text><text x="49" y="-35.559" font-family="Lato" font-size="12" fill="#1f78b4">⓿</text></g><g class="edge" transform="translate(4 258.159)"><path fill="none" stroke="#000" d="M1.123-45.159h29.801"/><path stroke="#000" d="M37.98-45.159l-7-3.15 3.5 3.15h-3.5 3.5l-3.5 3.15 7-3.15h0z"/></g><g class="edge" transform="translate(4 258.159)"><path fill="none" stroke="#000" d="M49.487-63.311C48.485-72.698 50.657-81.16 56-81.16c3.924 0 6.138 4.563 6.64 10.705"/><path stroke="#000" d="M62.513-63.311l3.274-6.943-3.212 3.443.062-3.5h0l-.062 3.5-3.087-3.555 3.025 7.055h0z"/><text x="32" y="-84.559" font-family="Lato" font-size="12">!p0 &amp; !p1</text></g><g class="node" transform="translate(4 258.159)"><path fill="#ffffa0" stroke="#000" d="M188-157.159h-12c-6 0-12 6-12 12v12c0 6 6 12 12 12h12c6 0 12-6 12-12v-12c0-6-6-12-12-12"/><text x="178.5" y="-142.559" font-family="Lato" font-size="12">1</text><text x="175" y="-129.559" font-family="Lato" font-size="12" fill="#ff4da0">❶</text></g><g class="edge" transform="translate(4 258.159)"><path fill="none" stroke="#000" d="M60.387-63.31C65.317-79.8 74.958-103.561 92-117.16c18.396-14.677 45.161-19.764 64.721-21.428"/><path stroke="#000" d="M163.833-139.07l-7.198-2.668 3.706 2.905-3.492.238h0l3.492-.238-3.279 3.38 6.77-3.617h0z"/><text x="93.5" y="-139.559" font-family="Lato" font-size="12">p0 &amp; !p1</text></g><g class="node" transform="translate(4 258.159)"><path fill="#ffffa0" stroke="#000" d="M448-94.159h-20c-6 0-12 6-12 12v12c0 6 6 12 12 12h20c6 0 12-6 12-12v-12c0-6-6-12-12-12"/><text x="434.5" y="-79.559" font-family="Lato" font-size="12">2</text><text x="424" y="-67.559" font-family="Lato" font-size="12" fill="#1f78b4">⓿</text><text x="438" y="-67.559" font-family="Lato" font-size="12" fill="#6a3d9a">❸</text></g><g class="edge" transform="translate(4 258.159)"><path fill="none" stroke="#000" d="M74.19-39.975c5.664 1.442 11.959 2.87 17.81 3.816 79.096 12.789 100.291 18.139 180 10 56.884-5.807 72.73-5.218 126-26 3.867-1.508 7.788-3.374 11.588-5.395"/><path stroke="#000" d="M415.836-61.064l-7.646.682 4.594 1.032-3.051 1.715h0l3.051-1.715-1.508 4.461 4.56-6.175h0z"/><text x="225.5" y="-29.559" font-family="Lato" font-size="12">!p0 &amp; p1</text></g><g class="node" transform="translate(4 258.159)"><path fill="#ffffa0" stroke="#000" d="M322.5-94.159h-20c-6 0-12 6-12 12v12c0 6 6 12 12 12h20c6 0 12-6 12-12v-12c0-6-6-12-12-12"/><text x="309" y="-79.559" font-family="Lato" font-size="12">3</text><text x="298.5" y="-67.559" font-family="Lato" font-size="12" fill="#ff4da0">❶</text><text x="312.5" y="-67.559" font-family="Lato" font-size="12" fill="#6a3d9a">❸</text></g><g class="edge" transform="translate(4 258.159)"><path fill="none" stroke="#000" d="M74.037-47.339l208.99-25.258"/><path stroke="#000" d="M290.183-73.462l-7.327-2.287 3.853 2.707-3.475.42h0l3.475-.42-3.097 3.548 6.571-3.968h0z"/><text x="161" y="-66.559" font-family="Lato" font-size="12">p0 &amp; p1</text></g><g class="edge" transform="translate(4 258.159)"><path fill="none" stroke="#000" d="M165.232-120.873c-7.247 7.145-16.142 14.982-25.232 20.714-19.407 12.24-28.823 6.405-48 19-5.534 3.635-10.912 8.225-15.75 12.9"/><path stroke="#000" d="M71.228-63.194l7.166-2.754-4.702.268 2.465-2.485h0l-2.465 2.485.228-4.703-2.692 7.189h0z"/><text x="92" y="-103.559" font-family="Lato" font-size="12">!p0 &amp; !p1</text></g><g class="edge" transform="translate(4 258.159)"><path fill="none" stroke="#000" d="M170.06-157.311c-1.837-9.387 2.143-17.848 11.94-17.848 7.195 0 11.252 4.563 12.173 10.705"/><path stroke="#000" d="M193.94-157.311l3.376-6.894-3.262 3.395.114-3.498h0l-.114 3.498-3.035-3.6 2.92 7.099h0z"/><text x="159.5" y="-178.559" font-family="Lato" font-size="12">p0 &amp; !p1</text></g><g class="edge" transform="translate(4 258.159)"><path fill="none" stroke="#000" d="M195.014-157.46c7.397-8.845 17.475-18.621 28.986-23.699 70.756-31.209 111.385-45.385 174 0 13.266 9.616 26.346 51.826 33.771 79.712"/><path stroke="#000" d="M433.623-94.348l1.281-7.568-2.164 4.181-.884-3.386h0l.884 3.386-3.932-2.591 4.815 5.978h0z"/><text x="290" y="-212.559" font-family="Lato" font-size="12">!p0 &amp; p1</text></g><g class="edge" transform="translate(4 258.159)"><path fill="none" stroke="#000" d="M200.323-137.635c18.988 2.23 49.007 7.628 71.677 20.476 7.888 4.471 15.267 10.915 21.509 17.374"/><path stroke="#000" d="M298.47-94.398l-2.426-7.283.055 4.708-2.372-2.574h0l2.372 2.574-4.688-.44 7.059 3.015h0z"/><text x="227" y="-136.559" font-family="Lato" font-size="12">p0 &amp; p1</text></g><g class="edge" transform="translate(4 258.159)"><path fill="none" stroke="#000" d="M425.117-57.794c-7.047 8.727-16.5 18.555-27.117 24.635-49.78 28.51-68.976 21.74-126 28-79.964 8.778-104.041 7.487-180-19-3.94-1.373-7.93-3.193-11.75-5.189"/><path stroke="#000" d="M74.024-32.825l4.576 6.163-1.52-4.457 3.055 1.707h0L77.08-31.12l4.591-1.044-7.647-.662h0z"/><text x="224" y="-8.559" font-family="Lato" font-size="12">!p0 &amp; !p1</text></g><g class="edge" transform="translate(4 258.159)"><path fill="none" stroke="#000" d="M415.95-90.85c-20.296-12.96-51.61-31.563-80.95-43.309-26.82-10.736-34.334-12.416-63-16-21.169-2.646-26.841-2.724-48 0-5.572.718-11.46 1.95-17.006 3.336"/><path stroke="#000" d="M200.199-145.012l7.575 1.241-4.193-2.142 3.382-.901h0l-3.382.901 2.57-3.945-5.952 4.846h0z"/><text x="290" y="-150.559" font-family="Lato" font-size="12">p0 &amp; !p1</text></g><g class="edge" transform="translate(4 258.159)"><path fill="none" stroke="#000" d="M426.784-94.311c-1.726-9.387 2.013-17.848 11.216-17.848 6.759 0 10.57 4.563 11.435 10.705"/><path stroke="#000" d="M449.216-94.311l3.363-6.9-3.256 3.401.107-3.498h0l-.107 3.498-3.041-3.594 2.934 7.093h0z"/><text x="415.5" y="-115.559" font-family="Lato" font-size="12">!p0 &amp; p1</text></g><g class="edge" transform="translate(4 258.159)"><path fill="none" stroke="#000" d="M415.651-76.159h-73.988"/><path stroke="#000" d="M334.648-76.159l7 3.15-3.5-3.15h3.5-3.5l3.5-3.15-7 3.15h0z"/><text x="354.5" y="-79.559" font-family="Lato" font-size="12">p0 &amp; p1</text></g><g class="edge" transform="translate(4 258.159)"><path fill="none" stroke="#000" d="M290.285-67.719c-5.922 2.192-12.33 4.511-18.285 6.56-29.108 10.015-35.582 16.278-66 21-21.08 3.273-26.673.523-48 0-26.204-.642-56.161-2.21-76.797-3.42"/><path stroke="#000" d="M74.047-44.006l6.8 3.561-3.306-3.353 3.493.209h0l-3.493-.209 3.681-2.935-7.175 2.727h0z"/><text x="158" y="-43.559" font-family="Lato" font-size="12">!p0 &amp; !p1</text></g><g class="edge" transform="translate(4 258.159)"><path fill="none" stroke="#000" d="M290.285-79.136c-18.61-3.188-45.405-9.436-66.285-21.023-7.613-4.224-14.929-10.117-21.26-16.044"/><path stroke="#000" d="M197.667-121.154l2.81 7.144-.305-4.7 2.504 2.445h0l-2.504-2.445 4.705.191-7.21-2.635h0z"/><text x="225.5" y="-103.559" font-family="Lato" font-size="12">p0 &amp; !p1</text></g><g class="edge" transform="translate(4 258.159)"><path fill="none" stroke="#000" d="M334.7-64.985c5.812 2.404 12.17 4.592 18.3 5.826 19.606 3.948 25.402 3.992 45 0 3.604-.734 7.287-1.805 10.886-3.058"/><path stroke="#000" d="M415.665-64.81L408-65.25l4.395 1.69-3.27 1.251h0l3.27-1.25-2.144 4.192 5.413-5.443h0z"/><text x="353" y="-62.559" font-family="Lato" font-size="12">!p0 &amp; p1</text></g><g class="edge" transform="translate(4 258.159)"><path fill="none" stroke="#000" d="M301.284-94.311c-1.726-9.387 2.013-17.848 11.216-17.848 6.759 0 10.57 4.563 11.435 10.705"/><path stroke="#000" d="M323.716-94.311l3.363-6.9-3.256 3.401.107-3.498h0l-.107 3.498-3.041-3.594 2.934 7.093h0z"/><text x="291.5" y="-115.559" font-family="Lato" font-size="12">p0 &amp; p1</text></g></g></svg>