<?xml-stylesheet href="spot.css" type="text/css"?><svg width="228" height="332" viewBox="0 0 171 249" xmlns="http://www.w3.org/2000/svg"><g class="graph" transform="translate(4 245)"><path fill="#fff" stroke="transparent" d="M-4 4v-249h171V4H-4z"/><text x="63.5" y="-228.4" font-family="Lato" font-size="12">Inf(</text><text x="81.5" y="-228.4" font-family="Lato" font-size="12" fill="#1f78b4">⓿</text><text x="95.5" y="-228.4" font-family="Lato" font-size="12">)</text><text x="62.5" y="-216.4" font-family="Lato" font-size="12">[Büchi]</text><g class="node"><circle fill="#ffffa0" stroke="#000" cx="56" cy="-82" r="18"/><text text-anchor="middle" x="56" y="-78.9" font-family="Lato" font-size="12">0</text></g><g class="edge"><path fill="none" stroke="#000" d="M1.123-82h29.801"/><path stroke="#000" d="M37.98-82l-7-3.15 3.5 3.15h-3.5 3.5l-3.5 3.15 7-3.15h0z"/></g><g class="node"><circle fill="#ffffa0" stroke="#000" cx="145" cy="-147" r="18"/><text text-anchor="middle" x="145" y="-143.9" font-family="Lato" font-size="12">1</text></g><g class="edge"><path fill="none" stroke="#000" d="M70.697-92.733l53.835-39.318"/><path stroke="#000" d="M130.282-136.25l-7.511 1.584 4.684.48-2.826 2.064h0l2.826-2.064-.968 4.608 3.795-6.673h0z"/><text x="93.5" y="-123.4" font-family="Lato" font-size="12">p0</text></g><g class="node"><circle fill="#ffffa0" stroke="#000" cx="145" cy="-18" r="18"/><text text-anchor="middle" x="145" y="-14.9" font-family="Lato" font-size="12">2</text></g><g class="edge"><path fill="none" stroke="#000" d="M70.697-71.432l53.835 38.713"/><path stroke="#000" d="M130.282-28.584l-3.845-6.644 1.003 4.6-2.842-2.043h0l2.842 2.044-4.68.514 7.522 1.529h0z"/><text x="92" y="-58.4" font-family="Lato" font-size="12">!p0</text></g><g class="edge"><path fill="none" stroke="#000" d="M137.332-163.29c-1.849-10.1.707-19.71 7.668-19.71 5.22 0 7.964 5.406 8.229 12.37"/><path stroke="#000" d="M152.668-163.29l3.674-6.74-3.407 3.25.266-3.49h0l-.266 3.49-2.875-3.73 2.608 7.22h0z"/><text x="141.5" y="-199.4" font-family="Lato" font-size="12">1</text><text x="138" y="-186.4" font-family="Lato" font-size="12" fill="#1f78b4">⓿</text></g><g class="edge"><path fill="none" stroke="#000" d="M141.045-35.782C140.373-45.315 141.691-54 145-54c2.43 0 3.786 4.684 4.07 10.948"/><path stroke="#000" d="M148.955-35.782l3.26-6.95-3.205 3.45.055-3.499h0l-.055 3.5-3.095-3.55 3.04 7.05h0z"/><text x="136.5" y="-57.4" font-family="Lato" font-size="12">!p1</text></g><g class="edge"><path fill="none" stroke="#000" d="M138.624-34.864C134.754-52.378 136.879-72 145-72c7.042 0 9.576 14.756 7.601 30.097"/><path stroke="#000" d="M151.376-34.864l4.304-6.356-3.704 2.908.6-3.448h0l-.6 3.448-2.503-3.988 1.903 7.436h0z"/><text x="138" y="-88.4" font-family="Lato" font-size="12">p1</text><text x="138" y="-75.4" font-family="Lato" font-size="12" fill="#1f78b4">⓿</text></g></g></svg>