<?xml-stylesheet href="spot.css" type="text/css"?><svg width="280pt" height="151pt" viewBox="0 0 280 151.4" xmlns="http://www.w3.org/2000/svg"><g class="graph" transform="translate(4 147.4)"><path fill="#fff" stroke="transparent" d="M-4 4v-151.4h280V4H-4z"/><text x="117" y="-116.8" font-family="Lato" font-size="12">[Büchi]</text><g class="node"><circle fill="#ffffa0" stroke="#000" cx="56" cy="-18" r="18"/><text text-anchor="middle" x="56" y="-14.9" font-family="Lato" font-size="12">0</text></g><g class="edge"><path fill="none" stroke="#000" d="M1.123-18h29.801"/><path stroke="#000" d="M37.98-18l-7-3.15 3.5 3.15h-3.5 3.5l-3.5 3.15 7-3.15h0z"/></g><g class="node"><circle fill="#ffffa0" stroke="#000" cx="139" cy="-55" r="18"/><circle fill="none" stroke="#000" cx="139" cy="-55" r="22"/><text text-anchor="middle" x="139" y="-51.9" font-family="Lato" font-size="12">1</text></g><g class="edge"><path fill="none" stroke="#000" d="M72.796-25.488L112.17-43.04"/><path stroke="#000" d="M118.71-45.955l-7.677-.027 4.48 1.452-3.197 1.425h0l3.196-1.425-1.914 4.303 5.111-5.728h0z"/><text x="92" y="-39.4" font-family="Lato" font-size="12">a</text></g><g class="node"><circle fill="#ffffa0" stroke="#000" cx="250" cy="-35" r="18"/><circle fill="none" stroke="#000" cx="250" cy="-35" r="22"/><text text-anchor="middle" x="250" y="-31.9" font-family="Lato" font-size="12">2</text></g><g class="edge"><path fill="none" stroke="#000" d="M73.837-15.41C85.975-13.78 102.42-11.833 117-11c19.524 1.117 24.614 2.568 44 0 20.822-2.758 43.688-8.997 61.028-14.422"/><path stroke="#000" d="M229.1-27.685l-7.627-.866 4.293 1.933-3.333 1.067h0l3.333-1.067-2.373 4.067 5.707-5.134h0z"/><text x="134" y="-14.4" font-family="Lato" font-size="12">!a</text></g><g class="edge"><path fill="none" stroke="#000" d="M131.317-75.99C130.37-86.088 132.93-95 139-95c4.553 0 7.131 5.013 7.736 11.78"/><path stroke="#000" d="M146.683-75.99l3.201-6.977-3.175 3.476.025-3.5h0l-.025 3.5-3.124-3.523 3.098 7.023h0z"/><text x="125" y="-98.4" font-family="Lato" font-size="12">a &amp; b</text></g><g class="edge"><path fill="none" stroke="#000" d="M161.278-54.556c14.097.633 32.633 2.118 48.722 5.556 4.148.886 8.457 2.084 12.644 3.407"/><path stroke="#000" d="M229.524-43.28l-5.631-5.217 2.313 4.101-3.317-1.115h0l3.317 1.115-4.321 1.87 7.639-.754h0z"/><text x="179" y="-56.4" font-family="Lato" font-size="12">!a &amp; b</text></g><g class="edge"><path fill="none" stroke="#000" d="M228.194-30.743C213.956-28.773 195.092-27.703 179-32c-5.442-1.453-10.912-3.843-15.984-6.545"/><path stroke="#000" d="M156.836-42.089l4.506 6.215-1.47-4.474 3.037 1.741h0l-3.037-1.74 4.603-.993-7.64-.749h0z"/><text x="179" y="-35.4" font-family="Lato" font-size="12">a &amp; !b</text></g><g class="edge"><path fill="none" stroke="#000" d="M240.293-54.758C238.643-65.35 241.879-75 250-75c6.218 0 9.572 5.657 10.062 13.062"/><path stroke="#000" d="M259.707-54.758l3.492-6.835-3.319 3.34.173-3.496h0l-.173 3.496-2.973-3.651 2.8 7.147h0z"/><text x="233" y="-78.4" font-family="Lato" font-size="12">!a &amp; !b</text></g></g></svg>