<?xml-stylesheet href="spot.css" type="text/css"?><svg width="293pt" height="212" viewBox="0 0 293 159.4" xmlns="http://www.w3.org/2000/svg"><g class="graph" transform="translate(4 155.4)"><path fill="#fff" stroke="transparent" d="M-4 4v-159.4h293V4H-4z"/><text x="123.5" y="-124.8" font-family="Lato" font-size="12">[Büchi]</text><g class="node"><circle fill="#ffffa0" stroke="#000" cx="60" cy="-34" r="18"/><circle fill="none" stroke="#000" cx="60" cy="-34" r="22"/><text text-anchor="middle" x="60" y="-30.9" font-family="Lato" font-size="12">0</text></g><g class="edge"><path fill="none" stroke="#000" d="M1.168-34h29.47"/><path stroke="#000" d="M37.865-34l-7-3.15 3.5 3.15h-3.5 3.5l-3.5 3.15 7-3.15h0z"/></g><g class="edge"><path fill="none" stroke="#000" d="M52.683-54.99C51.78-65.088 54.22-74 60-74c4.336 0 6.792 5.013 7.368 11.78"/><path stroke="#000" d="M67.317-54.99l3.2-6.978-3.175 3.477.024-3.5h0l-.025 3.5-3.125-3.522 3.1 7.022h0z"/><text x="46" y="-77.4" font-family="Lato" font-size="12">a &amp; b</text></g><g class="node"><circle fill="#ffffa0" stroke="#000" cx="164" cy="-67" r="18"/><text text-anchor="middle" x="164" y="-63.9" font-family="Lato" font-size="12">1</text></g><g class="edge"><path fill="none" stroke="#000" d="M75.697-49.883C82.557-55.77 91.07-61.788 100-65c12.3-4.424 26.805-5.206 38.893-4.758"/><path stroke="#000" d="M146.066-69.342l-6.806-3.55 3.312 3.347-3.495-.203h0l3.495.203-3.677 2.942 7.17-2.739h0z"/><text x="109" y="-72.4" font-family="Lato" font-size="12">!b</text></g><g class="node"><circle fill="#ffffa0" stroke="#000" cx="267" cy="-18" r="18"/><text text-anchor="middle" x="267" y="-14.9" font-family="Lato" font-size="12">2</text></g><g class="edge"><path fill="none" stroke="#000" d="M82.27-32.145C99.63-30.707 124.345-28.687 146-27c33.117 2.58 71.345 5.396 95.823 7.179"/><path stroke="#000" d="M248.957-19.303l-6.753-3.649 3.262 3.396-3.49-.254h0l3.49.254-3.719 2.887 7.21-2.634h0z"/><text x="148.5" y="-30.4" font-family="Lato" font-size="12">!a &amp; b</text></g><g class="edge"><path fill="none" stroke="#000" d="M148.314-57.483C142.157-54.082 134.918-50.481 128-48c-12.52 4.49-26.88 7.71-39.168 9.921"/><path stroke="#000" d="M81.866-36.892l7.43 1.93-3.98-2.518 3.45-.588h0l-3.45.588 2.92-3.693-6.37 4.281h0z"/><text x="100" y="-51.4" font-family="Lato" font-size="12">a &amp; b</text></g><g class="edge"><path fill="none" stroke="#000" d="M155.367-82.916C153.114-93.15 155.992-103 164-103c6.131 0 9.255 5.774 9.372 13.073"/><path stroke="#000" d="M172.633-82.916l3.866-6.632L173-86.397l.367-3.48h0l-.367 3.48-2.766-3.81 2.4 7.291h0z"/><text x="159" y="-106.4" font-family="Lato" font-size="12">!b</text></g><g class="edge"><path fill="none" stroke="#000" d="M180.549-59.127l63.485 30.202"/><path stroke="#000" d="M250.492-25.853l-4.968-5.852 1.808 4.348-3.16-1.503h0l3.16 1.503-4.514 1.341 7.674.163h0z"/><text x="200" y="-52.4" font-family="Lato" font-size="12">!a &amp; b</text></g><g class="edge"><path fill="none" stroke="#000" d="M249.283-13.713C225.633-8.601 182.488-1.407 146-7c-20.167-3.091-42.098-10.037-58.766-16.109"/><path stroke="#000" d="M80.434-25.644l5.458 5.397-2.179-4.175 3.28 1.223h0l-3.28-1.223 4.38-1.729-7.66.507h0z"/><text x="160.5" y="-10.4" font-family="Lato" font-size="12">a</text></g><g class="edge"><path fill="none" stroke="#000" d="M258.367-33.916C256.114-44.15 258.992-54 267-54c6.131 0 9.255 5.774 9.372 13.073"/><path stroke="#000" d="M275.633-33.916l3.866-6.632L276-37.397l.366-3.48h0l-.366 3.48-2.766-3.81 2.4 7.291h0z"/><text x="262" y="-57.4" font-family="Lato" font-size="12">!a</text></g></g></svg>