<?xml-stylesheet href="spot.css" type="text/css"?><svg width="278pt" height="118pt" viewBox="0 0 278 118.4" xmlns="http://www.w3.org/2000/svg"><g class="graph" transform="translate(4 114.4)"><path fill="#fff" stroke="transparent" d="M-4 4v-118.4h278V4H-4z"/><text x="116" y="-83.8" font-family="Lato" font-size="12">[Büchi]</text><g class="node"><circle fill="#ffffa0" stroke="#000" cx="60" cy="-22" r="18"/><circle fill="none" stroke="#000" cx="60" cy="-22" r="22"/><text text-anchor="middle" x="60" y="-18.9" font-family="Lato" font-size="12">0</text></g><g class="edge"><path fill="none" stroke="#000" d="M1.168-22h29.47"/><path stroke="#000" d="M37.865-22l-7-3.15 3.5 3.15h-3.5 3.5l-3.5 3.15 7-3.15h0z"/></g><g class="edge"><path fill="none" stroke="#000" d="M52.683-42.99C51.78-53.088 54.22-62 60-62c4.336 0 6.792 5.013 7.368 11.78"/><path stroke="#000" d="M67.317-42.99l3.2-6.978-3.175 3.477.024-3.5h0l-.025 3.5-3.125-3.522 3.1 7.022h0z"/><text x="4.5" y="-65.4" font-family="Lato" font-size="12">!door_open | light_on</text></g><g class="node"><circle fill="#ffffa0" stroke="#000" cx="252" cy="-22" r="18"/><text text-anchor="middle" x="252" y="-18.9" font-family="Lato" font-size="12">1</text></g><g class="edge"><path fill="none" stroke="#000" d="M82.025-22h144.78"/><path stroke="#000" d="M233.918-22l-7-3.15 3.5 3.15h-3.5 3.5l-3.5 3.15 7-3.15h0z"/><text x="100" y="-25.4" font-family="Lato" font-size="12">door_open &amp; !light_on</text></g><g class="edge"><path fill="none" stroke="#000" d="M237.994-33.8C230.257-45.33 234.926-58 252-58c13.873 0 19.556 8.364 17.05 17.685"/><path stroke="#000" d="M266.006-33.8l5.817-5.008-4.335 1.837 1.48-3.17h0l-1.48 3.17-1.373-4.504-.109 7.676h0z"/><text text-anchor="middle" x="252" y="-61.4" font-family="Lato" font-size="12">1</text></g></g></svg>