<?xml-stylesheet href="spot.css" type="text/css"?><svg width="413pt" height="257pt" viewBox="0 0 413 257.45" xmlns="http://www.w3.org/2000/svg"><g class="graph" transform="translate(4 253.448)"><path fill="#fff" stroke="transparent" d="M-4 4v-257.448h413V4H-4z"/><text x="105.5" y="-236.849" font-family="Lato" font-size="12">(Fin(</text><text x="128.5" y="-236.849" font-family="Lato" font-size="12" fill="#1f78b4">⓿</text><text x="142.5" y="-236.849" font-family="Lato" font-size="12">) &amp; Inf(</text><text x="177.5" y="-236.849" font-family="Lato" font-size="12" fill="#ff4da0">❶</text><text x="191.5" y="-236.849" font-family="Lato" font-size="12">)) | (Fin(</text><text x="229.5" y="-236.849" font-family="Lato" font-size="12" fill="#ff7f00">❷</text><text x="243.5" y="-236.849" font-family="Lato" font-size="12">) &amp; Inf(</text><text x="278.5" y="-236.849" font-family="Lato" font-size="12" fill="#6a3d9a">❸</text><text x="292.5" y="-236.849" font-family="Lato" font-size="12">))</text><text x="178.5" y="-224.849" font-family="Lato" font-size="12">[Rabin 2]</text><g class="node"><path fill="#ffffa0" stroke="#000" d="M62-62.449H50c-6 0-12 6-12 12v12c0 6 6 12 12 12h12c6 0 12-6 12-12v-12c0-6-6-12-12-12"/><text x="52.5" y="-47.849" font-family="Lato" font-size="12">0</text><text x="49" y="-34.849" font-family="Lato" font-size="12" fill="#ff7f00">❷</text></g><g class="edge"><path fill="none" stroke="#000" d="M1.123-44.449h29.801"/><path stroke="#000" d="M37.98-44.449l-7-3.15 3.5 3.15h-3.5 3.5l-3.5 3.15 7-3.15h0z"/></g><g class="edge"><path fill="none" stroke="#000" d="M49.487-62.601c-1.002-9.387 1.17-17.847 6.513-17.847 3.924 0 6.138 4.563 6.64 10.704"/><path stroke="#000" d="M62.513-62.601l3.274-6.943-3.212 3.443.062-3.5h0l-.062 3.5-3.087-3.555 3.025 7.055h0z"/><text x="39" y="-83.849" font-family="Lato" font-size="12">!a &amp; !b</text></g><g class="node"><path fill="#ffffa0" stroke="#000" d="M176-156.448h-20c-6 0-12 6-12 12v12c0 6 6 12 12 12h20c6 0 12-6 12-12v-12c0-6-6-12-12-12"/><text x="162.5" y="-141.849" font-family="Lato" font-size="12">1</text><text x="152" y="-129.849" font-family="Lato" font-size="12" fill="#ff4da0">❶</text><text x="166" y="-129.849" font-family="Lato" font-size="12" fill="#ff7f00">❷</text></g><g class="edge"><path fill="none" stroke="#000" d="M60.64-62.725c5.068-16.343 14.765-39.8 31.36-53.723 12.53-10.513 29.93-16.002 44.708-18.868"/><path stroke="#000" d="M143.72-136.523l-7.433-1.917 3.984 2.51-3.45.594h0l3.45-.594-2.915 3.698 6.364-4.291h0z"/><text x="93.5" y="-135.849" font-family="Lato" font-size="12">a &amp; !b</text></g><g class="node"><path fill="#ffffa0" stroke="#000" d="M393-93.448h-12c-6 0-12 6-12 12v12c0 6 6 12 12 12h12c6 0 12-6 12-12v-12c0-6-6-12-12-12"/><text x="383.5" y="-78.849" font-family="Lato" font-size="12">2</text><text x="380" y="-65.849" font-family="Lato" font-size="12" fill="#6a3d9a">❸</text></g><g class="edge"><path fill="none" stroke="#000" d="M74.01-36.738c5.656 2.091 11.993 4.104 17.99 5.29 64.566 12.764 82.588 12.275 148 5 50.26-5.59 64.517-5.086 111-25 3.892-1.668 7.816-3.765 11.57-6.022"/><path stroke="#000" d="M368.687-61.37l-7.596 1.107 4.645.775-2.951 1.881h0l2.951-1.881-1.258 4.537 4.21-6.419h0z"/><text x="207.5" y="-29.849" font-family="Lato" font-size="12">!a &amp; b</text></g><g class="node"><path fill="#ffffa0" stroke="#000" d="M290-93.448h-20c-6 0-12 6-12 12v12c0 6 6 12 12 12h20c6 0 12-6 12-12v-12c0-6-6-12-12-12"/><text x="276.5" y="-78.849" font-family="Lato" font-size="12">3</text><text x="266" y="-66.849" font-family="Lato" font-size="12" fill="#ff4da0">❶</text><text x="280" y="-66.849" font-family="Lato" font-size="12" fill="#6a3d9a">❸</text></g><g class="edge"><path fill="none" stroke="#000" d="M74.33-46.985L250.673-71.39"/><path stroke="#000" d="M257.814-72.378l-7.366-2.16 3.9 2.64-3.468.48h0l3.467-.48-3.035 3.6 6.502-4.08h0z"/><text x="152" y="-65.849" font-family="Lato" font-size="12">a &amp; b</text></g><g class="edge"><path fill="none" stroke="#000" d="M149.38-120.304c-6.867 6.963-15.14 14.706-23.38 20.856-13.873 10.353-20.193 8.558-34 19-4.966 3.755-9.924 8.17-14.504 12.595"/><path stroke="#000" d="M72.317-62.69L79.5-65.4l-4.703.24 2.479-2.472h0l-2.479 2.471.255-4.702-2.734 7.173h0z"/><text x="92" y="-102.849" font-family="Lato" font-size="12">!a &amp; !b</text></g><g class="edge"><path fill="none" stroke="#000" d="M155.87-156.601c-1.56-9.387 1.817-17.847 10.13-17.847 6.105 0 9.547 4.563 10.328 10.704"/><path stroke="#000" d="M176.13-156.601l3.343-6.91-3.246 3.411.097-3.499h0l-.097 3.5-3.052-3.587 2.956 7.085h0z"/><text x="150.5" y="-177.849" font-family="Lato" font-size="12">a &amp; !b</text></g><g class="edge"><path fill="none" stroke="#000" d="M178.243-156.68c7.003-8.825 16.61-18.606 27.757-23.768 58.478-27.082 93.729-39.044 145 0 12.878 9.806 24.356 51.956 30.727 79.779"/><path stroke="#000" d="M383.31-93.587l1.547-7.519-2.31 4.103-.764-3.416h0l.763 3.416-3.837-2.729 4.6 6.145h0z"/><text x="264.5" y="-207.849" font-family="Lato" font-size="12">!a &amp; b</text></g><g class="edge"><path fill="none" stroke="#000" d="M188.25-134.899c15.357 3.16 35.803 8.819 51.75 18.45 7.714 4.66 14.98 11.159 21.147 17.61"/><path stroke="#000" d="M266.055-93.472l-2.4-7.291.038 4.708-2.362-2.582h0l2.362 2.582-4.687-.457 7.049 3.04h0z"/><text x="209" y="-132.849" font-family="Lato" font-size="12">a &amp; b</text></g><g class="edge"><path fill="none" stroke="#000" d="M374.435-57.327c-6.229 7.76-14.36 16.303-23.435 21.878-43.54 26.754-60.341 23.275-111 30-65.54 8.701-86.11 8.255-148-15-3.964-1.489-7.928-3.486-11.7-5.695"/><path stroke="#000" d="M74.168-30.01l4.242 6.397-1.281-4.53 2.96 1.866h0l-2.96-1.867 4.64-.798-7.6-1.069h0z"/><text x="206" y="-8.848" font-family="Lato" font-size="12">!a &amp; !b</text></g><g class="edge"><path fill="none" stroke="#000" d="M368.682-91.118c-16.418-13.236-41.7-31.688-66.682-42.33-39.611-16.876-53.153-17.243-96-13-3.431.34-7.004.84-10.54 1.426"/><path stroke="#000" d="M188.308-143.719l7.451 1.844-4.008-2.471 3.444-.628h0l-3.444.628 2.879-3.727-6.322 4.354h0z"/><text x="264.5" y="-149.849" font-family="Lato" font-size="12">a &amp; !b</text></g><g class="edge"><path fill="none" stroke="#000" d="M377.955-93.601c-1.392-9.387 1.623-17.847 9.045-17.847 5.45 0 8.524 4.563 9.222 10.704"/><path stroke="#000" d="M396.045-93.601l3.322-6.92-3.235 3.42.086-3.498h0l-.086 3.499-3.063-3.577 2.976 7.076h0z"/><text x="371.5" y="-114.849" font-family="Lato" font-size="12">!a &amp; b</text></g><g class="edge"><path fill="none" stroke="#000" d="M368.767-75.448H309.18"/><path stroke="#000" d="M302.17-75.448l7 3.15-3.5-3.15h3.5-3.5l3.5-3.15-7 3.15h0z"/><text x="321.5" y="-78.849" font-family="Lato" font-size="12">a &amp; b</text></g><g class="edge"><path fill="none" stroke="#000" d="M257.642-63.97C239.432-55.3 212.775-44.122 188-39.448c-36.666 6.919-80.045 3.023-106.793-.735"/><path stroke="#000" d="M74.123-41.23l6.465 4.139-3.002-3.628 3.462.512h0l-3.462-.512 3.923-2.604-7.386 2.092h0z"/><text x="149" y="-42.849" font-family="Lato" font-size="12">!a &amp; !b</text></g><g class="edge"><path fill="none" stroke="#000" d="M257.829-79.825c-15.323-3.679-35.758-9.92-51.829-19.623-6.993-4.222-13.714-9.887-19.585-15.589"/><path stroke="#000" d="M181.279-120.243l2.674 7.195-.216-4.703 2.458 2.491h0l-2.458-2.491 4.7.279-7.158-2.771h0z"/><text x="207.5" y="-102.849" font-family="Lato" font-size="12">a &amp; !b</text></g><g class="edge"><path fill="none" stroke="#000" d="M302.335-64.1c5.626 2.335 11.75 4.447 17.665 5.651 13.5 2.75 17.556 3.015 31 0 3.794-.85 7.658-2.148 11.38-3.655"/><path stroke="#000" d="M368.877-64.992l-7.677-.035 4.478 1.457-3.198 1.422h0l3.198-1.422-1.919 4.3 5.118-5.721h0z"/><text x="320" y="-61.849" font-family="Lato" font-size="12">!a &amp; b</text></g><g class="edge"><path fill="none" stroke="#000" d="M270.231-93.601c-1.503-9.387 1.753-17.847 9.769-17.847 5.887 0 9.206 4.563 9.96 10.704"/><path stroke="#000" d="M289.769-93.601l3.335-6.914-3.242 3.415.093-3.499h0l-.093 3.499-3.055-3.583 2.962 7.082h0z"/><text x="266" y="-114.849" font-family="Lato" font-size="12">a &amp; b</text></g></g></svg>