<?xml-stylesheet href="spot.css" type="text/css"?><svg width="454pt" height="169pt" viewBox="0 0 453.6 168.8" xmlns="http://www.w3.org/2000/svg"><g class="graph"><path fill="#fff" stroke="transparent" d="M0 168.8V0h453.6v168.8H0z"/><text x="203.8" y="-148.2" font-family="Lato" font-size="12" transform="translate(4 164.8)">Fin(</text><text x="223.8" y="-148.2" font-family="Lato" font-size="12" fill="#1f78b4" transform="translate(4 164.8)">⓿</text><text x="237.8" y="-148.2" font-family="Lato" font-size="12" transform="translate(4 164.8)">)</text><text x="195.3" y="-136.2" font-family="Lato" font-size="12" transform="translate(4 164.8)">[co-Büchi]</text><g class="node" transform="translate(4 164.8)"><path fill="#ffffa0" stroke="#000" d="M109-72.8H50c-6 0-12 6-12 12v12c0 6 6 12 12 12h59c6 0 12-6 12-12v-12c0-6-6-12-12-12"/><text x="46" y="-51.7" font-family="Lato" font-size="12">GF(a &lt;-&gt; Xb)</text></g><g class="edge" transform="translate(4 164.8)"><path fill="none" stroke="#000" d="M1.004-54.8h29.738"/><path stroke="#000" d="M37.925-54.8l-7-3.15 3.5 3.15h-3.5 3.5l-3.5 3.15 7-3.15h0z"/></g><g class="node" transform="translate(4 164.8)"><circle fill="#ffffa0" stroke="#000" cx="168.8" cy="-124.8" r="1.8"/></g><g class="edge" transform="translate(4 164.8)"><path fill="none" stroke="#000" d="M95.948-73.028C107.251-84.825 123.046-99.952 139-110.8c6.76-4.596 15.266-8.426 21.458-10.911M159.673-124.034l7.414-.18-5.684 4.765-1.73-4.585z"/><text x="139" y="-119.2" font-family="Lato" font-size="12">!a</text></g><g class="node" transform="translate(4 164.8)"><circle fill="#ffffa0" stroke="#000" cx="168.8" cy="-1.8" r="1.8"/></g><g class="edge" transform="translate(4 164.8)"><path fill="none" stroke="#000" d="M109.982-36.709L160.9-6.489M162.187-8.574l4.77 5.68-7.27-1.466 2.5-4.214z"/><text x="140.5" y="-23.2" font-family="Lato" font-size="12">a</text></g><g class="node" transform="translate(4 164.8)"><circle fill="#ffffa0" stroke="#000" cx="168.8" cy="-47.8" r="1.8"/></g><g class="edge" transform="translate(4 164.8)"><path fill="none" stroke="#000" d="M121.044-52.008c9.209.674 18.917 1.427 27.956 2.208 3.511.304 7.368.683 10.737 1.03M160.243-51.181l6.702 3.176-7.22 1.697.518-4.873z"/><text x="140.5" y="-54.2" font-family="Lato" font-size="12">1</text></g><g class="edge" transform="translate(4 164.8)"><path fill="none" stroke="#000" d="M167.036-123.418l-58.942 46.204"/><path stroke="#000" d="M102.497-72.827l7.453-1.84-4.698-.319 2.754-2.16h0l-2.754 2.16.81-4.638-3.565 6.797h0z"/></g><g class="node" transform="translate(4 164.8)"><path fill="#ffffa0" stroke="#000" d="M351.6-107.8h-12c-6 0-12 6-12 12v12c0 6 6 12 12 12h12c6 0 12-6 12-12v-12c0-6-6-12-12-12"/><text x="340.6" y="-86.7" font-family="Lato" font-size="12">!b</text></g><g class="edge" transform="translate(4 164.8)"><path fill="none" stroke="#000" d="M170.67-124.54c10.797 1.506 66.219 9.4 110.93 18.74 12.905 2.696 27.144 6.202 38.909 9.245"/><path stroke="#000" d="M327.48-94.731l-5.975-4.82 2.589 3.934-3.386-.886h0l3.386.886-4.183 2.162 7.569-1.276h0z"/></g><g class="node" transform="translate(4 164.8)"><path fill="#ffffa0" stroke="#000" d="M433.6-80.8h-12c-6 0-12 6-12 12v12c0 6 6 12 12 12h12c6 0 12-6 12-12v-12c0-6-6-12-12-12"/><text text-anchor="middle" x="427.6" y="-59.7" font-family="Lato" font-size="12">t</text></g><g class="edge" transform="translate(4 164.8)"><path fill="none" stroke="#000" d="M363.798-83.808l38.968 12.831"/><path stroke="#000" d="M409.452-68.775l-5.663-5.182 2.339 4.087-3.324-1.095h0l3.324 1.095-4.31 1.897 7.634-.802h0z"/><text x="381.6" y="-81.2" font-family="Lato" font-size="12">!b</text></g><g class="edge" transform="translate(4 164.8)"><path fill="none" stroke="#000" d="M166.83-2.151c-4.903-.925-17.976-3.705-27.83-8.649-11.52-5.78-23.147-13.785-33.029-21.386"/><path stroke="#000" d="M100.368-36.594l3.554 6.804-.803-4.64 2.75 2.164h0l-2.75-2.164 4.698-.311-7.449-1.853h0z"/></g><g class="node" transform="translate(4 164.8)"><path fill="#ffffa0" stroke="#000" d="M351.6-53.8h-12c-6 0-12 6-12 12v12c0 6 6 12 12 12h12c6 0 12-6 12-12v-12c0-6-6-12-12-12"/><text x="342.1" y="-32.7" font-family="Lato" font-size="12">b</text></g><g class="edge" transform="translate(4 164.8)"><path fill="none" stroke="#000" d="M170.669-2.07C181.453-3.632 236.82-11.79 281.6-20.8c12.878-2.591 27.115-5.885 38.885-8.725"/><path stroke="#000" d="M327.46-31.225l-7.547-1.403 4.146 2.232-3.4.828h0l3.4-.828-2.654 3.889 6.055-4.718h0z"/></g><g class="edge" transform="translate(4 164.8)"><path fill="none" stroke="#000" d="M364.023-41.172c8.437-2.52 18.547-5.626 27.577-8.628a616.548 616.548 0 0010.892-3.748"/><path stroke="#000" d="M409.349-56.005l-7.652-.604 4.357 1.785-3.295 1.18h0l3.295-1.18-2.232 4.146 5.527-5.327h0z"/><text x="383.1" y="-53.2" font-family="Lato" font-size="12">b</text></g><g class="edge" transform="translate(4 164.8)"><path fill="none" stroke="#000" d="M166.762-47.96l-38.499-3.018"/><path stroke="#000" d="M121.013-51.546l6.732 3.688-3.243-3.414 3.49.273h0l-3.49-.273 3.736-2.867-7.225 2.593h0z"/></g><g class="node" transform="translate(4 164.8)"><path fill="#ffffa0" stroke="#000" d="M269.6-65.8h-50c-6 0-12 6-12 12v12c0 6 6 12 12 12h50c6 0 12-6 12-12v-12c0-6-6-12-12-12"/><text x="215.6" y="-51.2" font-family="Lato" font-size="12">F(a &lt;-&gt; Xb)</text><text x="237.6" y="-38.2" font-family="Lato" font-size="12" fill="#1f78b4">⓿</text></g><g class="edge" transform="translate(4 164.8)"><path fill="none" stroke="#000" d="M170.674-47.8h29.263"/><path stroke="#000" d="M207.2-47.8l-7-3.15 3.5 3.15h-3.5 3.5l-3.5 3.15 7-3.15h0z"/></g><g class="edge" transform="translate(4 164.8)"><path fill="none" stroke="#000" d="M281.635-63.2l39.277-16.334"/><path stroke="#000" d="M327.538-82.289l-7.673-.22 4.441 1.564-3.232 1.344h0l3.232-1.344-2.022 4.252 5.254-5.596h0z"/><text x="299.6" y="-77.2" font-family="Lato" font-size="12">!a</text></g><g class="edge" transform="translate(4 164.8)"><path fill="none" stroke="#000" d="M281.635-43.4l38.945 4.627"/><path stroke="#000" d="M327.538-37.946l-6.58-3.954 3.104 3.541-3.475-.413h0l3.475.413-3.847 2.715 7.323-2.302h0z"/><text x="301.1" y="-45.2" font-family="Lato" font-size="12">a</text></g><g class="edge" transform="translate(4 164.8)"><path fill="none" stroke="#000" d="M234.831-65.953c-1.503-9.386 1.753-17.847 9.769-17.847 5.887 0 9.206 4.563 9.96 10.705"/><path stroke="#000" d="M254.369-65.953l3.335-6.913-3.242 3.415.094-3.5h0l-.094 3.5-3.055-3.583 2.962 7.081h0z"/><text x="241.1" y="-87.2" font-family="Lato" font-size="12">1</text></g><g class="edge" transform="translate(4 164.8)"><path fill="none" stroke="#000" d="M420.364-80.953C419.25-90.339 421.663-98.8 427.6-98.8c4.36 0 6.82 4.563 7.377 10.705"/><path stroke="#000" d="M434.836-80.953l3.288-6.936-3.219 3.437.07-3.5h0l-.07 3.5-3.08-3.561 3.011 7.06h0z"/><text x="424.1" y="-102.2" font-family="Lato" font-size="12">1</text></g></g></svg>