<?xml-stylesheet href="spot.css" type="text/css"?><svg width="161pt" height="107pt" viewBox="0 0 161 107" xmlns="http://www.w3.org/2000/svg"><g class="graph"><path fill="#fff" stroke="transparent" d="M0 107V0h161v107H0z"/><text x="37" y="-86.4" font-family="Lato" font-size="12" transform="translate(4 103)">Inf(</text><text x="55" y="-86.4" font-family="Lato" font-size="12" fill="#1f78b4" transform="translate(4 103)">⓿</text><text x="69" y="-86.4" font-family="Lato" font-size="12" transform="translate(4 103)">)&amp;Inf(</text><text x="98" y="-86.4" font-family="Lato" font-size="12" fill="#ff4da0" transform="translate(4 103)">❶</text><text x="112" y="-86.4" font-family="Lato" font-size="12" transform="translate(4 103)">)</text><text x="40" y="-74.4" font-family="Lato" font-size="12" transform="translate(4 103)">[gen. Büchi 2]</text><g class="node" transform="translate(4 103)"><path fill="#ffffa0" stroke="#000" d="M62-36H50c-6 0-12 6-12 12v12c0 6 6 12 12 12h12c6 0 12-6 12-12v-12c0-6-6-12-12-12"/><text x="52.5" y="-21.4" font-family="Lato" font-size="12">0</text><text x="49" y="-8.4" font-family="Lato" font-size="12" fill="#ff4da0">❶</text></g><g class="edge" transform="translate(4 103)"><path fill="none" stroke="#000" d="M1.123-18h29.801"/><path stroke="#000" d="M37.98-18l-7-3.15 3.5 3.15h-3.5 3.5l-3.5 3.15 7-3.15h0z"/></g><g class="edge" transform="translate(4 103)"><path fill="none" stroke="#000" d="M49.487-36.153C48.485-45.539 50.657-54 56-54c3.924 0 6.138 4.563 6.64 10.705"/><path stroke="#000" d="M62.513-36.153l3.274-6.943-3.212 3.444.062-3.5h0l-.062 3.5-3.087-3.556 3.025 7.055h0z"/><text x="51" y="-57.4" font-family="Lato" font-size="12">!a</text></g><g class="node" transform="translate(4 103)"><path fill="#ffffa0" stroke="#000" d="M141-36h-12c-6 0-12 6-12 12v12c0 6 6 12 12 12h12c6 0 12-6 12-12v-12c0-6-6-12-12-12"/><text x="131.5" y="-21.4" font-family="Lato" font-size="12">1</text><text x="128" y="-8.4" font-family="Lato" font-size="12" fill="#1f78b4">⓿</text></g><g class="edge" transform="translate(4 103)"><path fill="none" stroke="#000" d="M74.323-18h35.227"/><path stroke="#000" d="M116.777-18l-7-3.15 3.5 3.15h-3.5 3.5l-3.5 3.15 7-3.15h0z"/><text x="92" y="-21.4" font-family="Lato" font-size="12">a</text></g><g class="edge" transform="translate(4 103)"><path fill="none" stroke="#000" d="M116.984-5.622C109.434-1.832 100.46.897 92-1c-3.794-.85-7.658-2.148-11.38-3.655"/><path stroke="#000" d="M74.124-7.543l5.117 5.722-1.92-4.3 3.2 1.421h0l-3.2-1.421L81.8-7.578l-7.675.035h0z"/><text x="92" y="-4.4" font-family="Lato" font-size="12">b</text></g><g class="edge" transform="translate(4 103)"><path fill="none" stroke="#000" d="M128.125-36.153C127.068-45.539 129.36-54 135-54c4.142 0 6.478 4.563 7.008 10.705"/><path stroke="#000" d="M141.875-36.153l3.28-6.94-3.215 3.44.066-3.498h0l-.066 3.499-3.084-3.559 3.019 7.058h0z"/><text x="130" y="-57.4" font-family="Lato" font-size="12">!b</text></g></g></svg>