<?xml-stylesheet href="spot.css" type="text/css"?><svg width="193pt" height="118pt" viewBox="0 0 193 118.4" xmlns="http://www.w3.org/2000/svg"><g class="graph" transform="translate(4 114.4)"><path fill="#fff" stroke="transparent" d="M-4 4v-118.4h193V4H-4z"/><text x="73.5" y="-83.8" font-family="Lato" font-size="12">[Büchi]</text><g class="node"><circle fill="#ffffa0" stroke="#000" cx="60" cy="-22" r="18"/><circle fill="none" stroke="#000" cx="60" cy="-22" r="22"/><text text-anchor="middle" x="60" y="-18.9" font-family="Lato" font-size="12">0</text></g><g class="edge"><path fill="none" stroke="#000" d="M1.168-22h29.47"/><path stroke="#000" d="M37.865-22l-7-3.15 3.5 3.15h-3.5 3.5l-3.5 3.15 7-3.15h0z"/></g><g class="edge"><path fill="none" stroke="#000" d="M52.683-42.99C51.78-53.088 54.22-62 60-62c4.336 0 6.792 5.013 7.368 11.78"/><path stroke="#000" d="M67.317-42.99l3.2-6.978-3.175 3.477.024-3.5h0l-.025 3.5-3.125-3.522 3.1 7.022h0z"/><text x="46" y="-65.4" font-family="Lato" font-size="12">a &amp; b</text></g><g class="node"><circle fill="#ffffa0" stroke="#000" cx="167" cy="-22" r="18"/><text text-anchor="middle" x="167" y="-18.9" font-family="Lato" font-size="12">1</text></g><g class="edge"><path fill="none" stroke="#000" d="M82.17-22h59.257"/><path stroke="#000" d="M148.768-22l-7-3.15 3.5 3.15h-3.5 3.5l-3.5 3.15 7-3.15h0z"/><text x="100" y="-25.4" font-family="Lato" font-size="12">a &amp; !b</text></g><g class="edge"><path fill="none" stroke="#000" d="M151.415-12.8C145.271-9.674 138.015-6.574 131-5c-13.444 3.015-17.5 2.75-31 0-4.464-.91-9.047-2.335-13.445-3.983"/><path stroke="#000" d="M79.84-11.714l5.297 5.555-2.055-4.237 3.242 1.319h0l-3.242-1.319 4.43-1.6-7.672.282h0z"/><text x="101.5" y="-8.4" font-family="Lato" font-size="12">a &amp; b</text></g><g class="edge"><path fill="none" stroke="#000" d="M158.367-37.916C156.114-48.15 158.992-58 167-58c6.131 0 9.255 5.774 9.372 13.073"/><path stroke="#000" d="M175.633-37.916l3.866-6.632L176-41.397l.367-3.48h0l-.367 3.48-2.766-3.81 2.4 7.291h0z"/><text x="151.5" y="-61.4" font-family="Lato" font-size="12">a &amp; !b</text></g></g></svg>