<?xml-stylesheet href="spot.css" type="text/css"?><svg width="185pt" height="133pt" viewBox="0 0 185 133.26" xmlns="http://www.w3.org/2000/svg"><g class="graph"><path fill="#fff" stroke="transparent" d="M0 133.262V0h185v133.262H0z"/><g class="node" transform="translate(4 129.262)"><circle fill="#ffffa0" stroke="#000" cx="56" cy="-45.262" r="18"/><text text-anchor="middle" x="56" y="-42.162" font-family="Lato" font-size="12">0</text></g><g class="edge" transform="translate(4 129.262)"><path fill="none" stroke="#000" d="M1.123-45.262h29.801"/><path stroke="#000" d="M37.98-45.262l-7-3.15 3.5 3.15h-3.5 3.5l-3.5 3.15 7-3.15h0z"/></g><g class="edge" transform="translate(4 129.262)"><path fill="none" stroke="#000" d="M52.764-63.044c-.55-9.533.529-18.218 3.236-18.218 1.988 0 3.098 4.684 3.33 10.948"/><path stroke="#000" d="M59.236-63.044l3.24-6.958-3.195 3.459.045-3.5h0l-.045 3.5-3.105-3.54 3.06 7.04h0z"/><text x="39" y="-84.662" font-family="Lato" font-size="12">!a &amp; !b</text></g><g class="edge" transform="translate(4 129.262)"><path fill="none" stroke="#000" d="M50.684-62.682c-3.03-17.37-1.258-36.58 5.316-36.58 5.701 0 7.79 14.446 6.27 29.61"/><path stroke="#000" d="M61.316-62.682l4.07-6.509-3.596 3.041.475-3.468h0l-.475 3.468-2.646-3.894 2.172 7.362h0z"/><text x="40.5" y="-102.662" font-family="Lato" font-size="12">a &amp; !b</text></g><g class="node" transform="translate(4 129.262)"><circle fill="#ffffa0" stroke="#000" cx="159" cy="-45.262" r="18"/><text text-anchor="middle" x="159" y="-42.162" font-family="Lato" font-size="12">1</text></g><g class="edge" transform="translate(4 129.262)"><path fill="none" stroke="#000" d="M63.016-62.057C68.883-73.711 78.481-88.337 92-95.262c12.263-6.281 18.737-6.281 31 0 11.195 5.735 19.701 16.751 25.627 26.987"/><path stroke="#000" d="M151.984-62.057l-.554-7.656-1.109 4.576-1.663-3.08h0l1.663 3.08-4.434-1.583 6.097 4.663h0z"/><text x="92" y="-102.662" font-family="Lato" font-size="12">!a &amp; b</text></g><g class="edge" transform="translate(4 129.262)"><path fill="none" stroke="#000" d="M72.47-53.145c6.004-2.474 12.939-4.88 19.53-6.117 13.541-2.54 17.459-2.54 31 0 4.222.792 8.586 2.065 12.756 3.527"/><path stroke="#000" d="M142.53-53.145l-5.413-5.442 2.144 4.193-3.27-1.25h0l3.27 1.25-4.394 1.692 7.663-.443h0z"/><text x="93.5" y="-63.662" font-family="Lato" font-size="12">a &amp; b</text></g><g class="edge" transform="translate(4 129.262)"><path fill="none" stroke="#000" d="M141.073-43.472c-5.764.496-12.183.965-18.073 1.21-13.766.573-17.234.573-31 0-3.59-.15-7.375-.382-11.089-.653"/><path stroke="#000" d="M73.927-43.472l6.727 3.697-3.238-3.419 3.489.279h0l-3.49-.279 3.74-2.861-7.228 2.583h0z"/><text x="92" y="-45.662" font-family="Lato" font-size="12">a &amp; !b</text></g><g class="edge" transform="translate(4 129.262)"><path fill="none" stroke="#000" d="M144.38-34.366c-6.25 4.009-13.836 8.065-21.38 10.104-13.3 3.596-17.7 3.596-31 0-5.186-1.402-10.392-3.757-15.17-6.395"/><path stroke="#000" d="M70.62-34.366l4.394 6.294-1.389-4.499 3.005 1.795h0l-3.005-1.795 4.62-.91-7.624-.885h0z"/><text x="92" y="-27.662" font-family="Lato" font-size="12">!a &amp; b</text></g><g class="edge" transform="translate(4 129.262)"><path fill="none" stroke="#000" d="M149.861-29.352C143.606-20.158 134.391-9.42 123-4.262c-12.551 5.683-18.449 5.683-31 0-9.077-4.11-16.773-11.764-22.69-19.356"/><path stroke="#000" d="M65.139-29.352l1.57 7.514.489-4.684 2.059 2.83h0l-2.059-2.83 4.606.977-6.665-3.807h0z"/><text x="93.5" y="-7.662" font-family="Lato" font-size="12">a &amp; b</text></g><g class="edge" transform="translate(4 129.262)"><path fill="none" stroke="#000" d="M150.367-61.178c-2.253-10.234.625-20.084 8.633-20.084 6.131 0 9.255 5.774 9.372 13.073"/><path stroke="#000" d="M167.633-61.178l3.866-6.632L168-64.659l.367-3.48h0L168-64.66l-2.766-3.81 2.4 7.291h0z"/><text x="142" y="-84.662" font-family="Lato" font-size="12">!a &amp; !b</text></g></g></svg>