<?xml-stylesheet href="spot.css" type="text/css"?><svg width="188pt" height="172pt" viewBox="0 0 188 172.26" xmlns="http://www.w3.org/2000/svg"><g class="graph" transform="translate(4 168.263)"><path fill="#fff" stroke="transparent" d="M-4 4v-172.263h188V4H-4z"/><text x="72" y="-151.663" font-family="Lato" font-size="12">Inf(</text><text x="90" y="-151.663" font-family="Lato" font-size="12" fill="#1f78b4">⓿</text><text x="104" y="-151.663" font-family="Lato" font-size="12">)</text><text x="71" y="-139.663" font-family="Lato" font-size="12">[Büchi]</text><g class="node"><circle fill="#ffffa0" stroke="#000" cx="56" cy="-39.263" r="18"/><text text-anchor="middle" x="56" y="-36.163" font-family="Lato" font-size="12">1</text></g><g class="edge"><path fill="none" stroke="#000" d="M1.123-39.263h29.801"/><path stroke="#000" d="M37.98-39.263l-7-3.15 3.5 3.15h-3.5 3.5l-3.5 3.15 7-3.15h0z"/></g><g class="edge"><path fill="none" stroke="#000" d="M52.764-57.045c-.55-9.533.529-18.218 3.236-18.218 1.988 0 3.098 4.684 3.33 10.948"/><path stroke="#000" d="M59.236-57.045l3.24-6.959-3.195 3.46.045-3.5h0l-.045 3.5-3.105-3.54 3.06 7.039h0z"/><text x="40.5" y="-78.663" font-family="Lato" font-size="12">a &amp; !b</text></g><g class="edge"><path fill="none" stroke="#000" d="M50.684-56.684c-3.03-17.37-1.258-36.58 5.316-36.58 5.701 0 7.79 14.446 6.27 29.611"/><path stroke="#000" d="M61.316-56.684l4.07-6.508-3.596 3.04.475-3.467h0l-.475 3.468-2.646-3.895 2.172 7.363h0z"/><text x="42" y="-109.663" font-family="Lato" font-size="12">a &amp; b</text><text x="49" y="-96.663" font-family="Lato" font-size="12" fill="#1f78b4">⓿</text></g><g class="node"><circle fill="#ffffa0" stroke="#000" cx="162" cy="-39.263" r="18"/><text text-anchor="middle" x="162" y="-36.163" font-family="Lato" font-size="12">0</text></g><g class="edge"><path fill="none" stroke="#000" d="M68.81-52.085c6.395-5.5 14.593-11.312 23.19-14.178 14.336-4.779 19.664-4.779 34 0 6.18 2.06 12.152 5.642 17.398 9.536"/><path stroke="#000" d="M149.19-52.085l-3.492-6.836.76 4.647-2.73-2.189h0l2.73 2.19-4.7.268 7.432 1.92h0z"/><text x="92" y="-72.663" font-family="Lato" font-size="12">!a &amp; !b</text></g><g class="edge"><path fill="none" stroke="#000" d="M73.927-37.474c5.764.496 12.183.966 18.073 1.21 15.098.629 18.902.629 34 0 3.59-.148 7.375-.381 11.089-.652"/><path stroke="#000" d="M144.073-37.474l-7.228-2.583 3.74 2.862-3.49.278h0l3.49-.278-3.239 3.418 6.727-3.697h0z"/><text x="93.5" y="-52.663" font-family="Lato" font-size="12">!a &amp; b</text><text x="102" y="-39.663" font-family="Lato" font-size="12" fill="#1f78b4">⓿</text></g><g class="edge"><path fill="none" stroke="#000" d="M151.451-24.55C145.057-16.937 136.177-8.394 126-4.262c-14.001 5.684-19.999 5.684-34 0-7.791-3.163-14.823-8.913-20.56-14.85"/><path stroke="#000" d="M66.549-24.55l2.34 7.312v-4.71l2.342 2.603h0l-2.341-2.602 4.682.495-7.023-3.097h0z"/><text x="105.5" y="-7.663" font-family="Lato" font-size="12">a</text></g><g class="edge"><path fill="none" stroke="#000" d="M153.021-55.18c-2.342-10.234.65-20.083 8.979-20.083 6.376 0 9.625 5.773 9.746 13.073"/><path stroke="#000" d="M170.979-55.18l3.893-6.615-3.512 3.137.38-3.48h0l-.38 3.48-2.75-3.823 2.369 7.302h0z"/><text x="157" y="-78.663" font-family="Lato" font-size="12">!a</text></g></g></svg>