<?xml-stylesheet href="spot.css" type="text/css"?><svg width="380" height="208" viewBox="0 0 285 156" xmlns="http://www.w3.org/2000/svg"><g class="graph" transform="translate(4 152)"><path fill="#fff" stroke="transparent" d="M-4 4v-156h285V4H-4z"/><text x="120.5" y="-135.4" font-family="Lato" font-size="12">Inf(</text><text x="138.5" y="-135.4" font-family="Lato" font-size="12" fill="#1f78b4">⓿</text><text x="152.5" y="-135.4" font-family="Lato" font-size="12">)</text><text x="119.5" y="-123.4" font-family="Lato" font-size="12">[Büchi]</text><g class="node"><path fill="#ffffa0" stroke="#000" d="M62-52H50c-6 0-12 6-12 12v12c0 6 6 12 12 12h12c6 0 12-6 12-12v-12c0-6-6-12-12-12"/><text x="52.5" y="-37.4" font-family="Lato" font-size="12">0</text><text x="49" y="-24.4" font-family="Lato" font-size="12" fill="#1f78b4">⓿</text></g><g class="edge"><path fill="none" stroke="#000" d="M1.123-34h29.801"/><path stroke="#000" d="M37.98-34l-7-3.15 3.5 3.15h-3.5 3.5l-3.5 3.15 7-3.15h0z"/></g><g class="edge"><path fill="none" stroke="#000" d="M49.487-52.153C48.485-61.539 50.657-70 56-70c3.924 0 6.138 4.563 6.64 10.705"/><path stroke="#000" d="M62.513-52.153l3.274-6.943-3.212 3.444.062-3.5h0l-.062 3.5-3.087-3.556 3.025 7.055h0z"/><text x="42" y="-73.4" font-family="Lato" font-size="12">a &amp; b</text></g><g class="node"><path fill="#ffffa0" stroke="#000" d="M162-85h-12c-6 0-12 6-12 12v12c0 6 6 12 12 12h12c6 0 12-6 12-12v-12c0-6-6-12-12-12"/><text text-anchor="middle" x="156" y="-63.9" font-family="Lato" font-size="12">1</text></g><g class="edge"><path fill="none" stroke="#000" d="M72.323-52.153C78.002-57.263 84.775-62.19 92-65c12.183-4.74 26.677-5.548 38.79-5.035"/><path stroke="#000" d="M137.98-69.569l-6.78-3.596 3.288 3.37-3.493-.227h0l3.493.227-3.696 2.917 7.189-2.69h0z"/><text x="101" y="-73.4" font-family="Lato" font-size="12">!b</text></g><g class="node"><path fill="#ffffa0" stroke="#000" d="M265-36h-12c-6 0-12 6-12 12v12c0 6 6 12 12 12h12c6 0 12-6 12-12v-12c0-6-6-12-12-12"/><text text-anchor="middle" x="259" y="-14.9" font-family="Lato" font-size="12">2</text></g><g class="edge"><path fill="none" stroke="#000" d="M74.234-32.386C90.848-30.93 116.067-28.752 138-27c33.111 2.645 71.341 5.446 95.82 7.208"/><path stroke="#000" d="M240.955-19.28l-6.756-3.643 3.265 3.392-3.49-.25h0l3.49.25-3.716 2.891 7.207-2.64h0z"/><text x="140.5" y="-30.4" font-family="Lato" font-size="12">!a &amp; b</text></g><g class="edge"><path fill="none" stroke="#000" d="M137.755-56.149C132.197-53.18 125.974-50.184 120-48c-12.473 4.56-26.883 7.873-38.867 10.127"/><path stroke="#000" d="M74.023-36.604l7.445 1.871-4-2.486 3.446-.615h0l-3.445.615 2.892-3.716-6.338 4.331h0z"/><text x="92" y="-51.4" font-family="Lato" font-size="12">a &amp; b</text></g><g class="edge"><path fill="none" stroke="#000" d="M146.955-85.153C145.563-94.539 148.578-103 156-103c5.45 0 8.524 4.563 9.222 10.705"/><path stroke="#000" d="M165.045-85.153l3.322-6.92-3.235 3.421.086-3.499h0l-.086 3.5-3.063-3.577 2.976 7.075h0z"/><text x="151" y="-106.4" font-family="Lato" font-size="12">!b</text></g><g class="edge"><path fill="none" stroke="#000" d="M174.414-58.24l59.859 28.477"/><path stroke="#000" d="M240.745-26.684l-4.968-5.852 1.808 4.348-3.161-1.504h0l3.16 1.504-4.513 1.34 7.674.164h0z"/><text x="192" y="-52.4" font-family="Lato" font-size="12">!a &amp; b</text></g><g class="edge"><path fill="none" stroke="#000" d="M240.864-13.548C217.115-8.358 174.24-1.188 138-7c-19.635-3.15-40.944-10.287-56.917-16.433"/><path stroke="#000" d="M74.145-26.169l5.356 5.499-2.1-4.215 3.256 1.284h0l-3.256-1.284 4.412-1.646-7.668.362h0z"/><text x="152.5" y="-10.4" font-family="Lato" font-size="12">a</text></g><g class="edge"><path fill="none" stroke="#000" d="M249.955-36.153C248.563-45.539 251.578-54 259-54c5.45 0 8.524 4.563 9.222 10.705"/><path stroke="#000" d="M268.045-36.153l3.322-6.92-3.235 3.421.086-3.499h0l-.086 3.5-3.063-3.577 2.976 7.075h0z"/><text x="254" y="-57.4" font-family="Lato" font-size="12">!a</text></g></g></svg>