<?xml-stylesheet href="spot.css" type="text/css"?><svg width="176pt" height="76pt" viewBox="0 0 176 75.6" xmlns="http://www.w3.org/2000/svg"><g class="graph"><path fill="#fff" stroke="transparent" d="M0 75.605V0h176v75.605H0z"/><g class="node" transform="translate(4 71.605)"><circle fill="#ffffa0" stroke="#000" cx="56" cy="-18.605" r="18"/><text text-anchor="middle" x="56" y="-15.505" font-family="Lato" font-size="12">0</text></g><g class="edge" transform="translate(4 71.605)"><path fill="none" stroke="#000" d="M1.123-18.605h29.801"/><path stroke="#000" d="M37.98-18.605l-7-3.15 3.5 3.15h-3.5 3.5l-3.5 3.15 7-3.15h0z"/></g><g class="edge" transform="translate(4 71.605)"><path fill="none" stroke="#000" d="M49.62-35.642c-1.301-9.82.825-18.963 6.38-18.963 4.166 0 6.404 5.143 6.713 11.857"/><path stroke="#000" d="M62.38-35.642l3.474-6.844-3.31 3.348.164-3.496h0l-.165 3.496-2.982-3.644 2.818 7.14h0z"/><text x="51" y="-58.005" font-family="Lato" font-size="12">!b</text></g><g class="node" transform="translate(4 71.605)"><circle fill="#ffffa0" stroke="#000" cx="150" cy="-18.605" r="18"/><text text-anchor="middle" x="150" y="-15.505" font-family="Lato" font-size="12">1</text></g><g class="edge" transform="translate(4 71.605)"><path fill="none" stroke="#000" d="M74.124-18.605h50.801"/><path stroke="#000" d="M131.931-18.605l-7-3.15 3.5 3.15h-3.5 3.5l-3.5 3.15 7-3.15h0z"/><text x="99.5" y="-22.005" font-family="Lato" font-size="12">b</text></g><g class="edge" transform="translate(4 71.605)"><path fill="none" stroke="#000" d="M134.415-9.405c-6.144 3.127-13.4 6.228-20.415 7.8-9.54 2.14-12.46 2.14-22 0-4.713-1.056-9.535-2.803-14.055-4.783"/><path stroke="#000" d="M71.585-9.405l4.974 5.846-1.812-4.346 3.162 1.5h0l-3.162-1.5 4.513-1.346-7.675-.154h0z"/><text x="92" y="-5.005" font-family="Lato" font-size="12">a | b</text></g><g class="edge" transform="translate(4 71.605)"><path fill="none" stroke="#000" d="M141.984-34.895c-1.934-10.099.739-19.71 8.016-19.71 5.458 0 8.326 5.406 8.603 12.37"/><path stroke="#000" d="M158.016-34.895l3.698-6.727-3.419 3.238.279-3.489h0l-.279 3.49-2.861-3.74 2.582 7.228h0z"/><text x="133" y="-58.005" font-family="Lato" font-size="12">!a &amp; !b</text></g></g></svg>