<?xml-stylesheet href="spot.css" type="text/css"?><svg width="268pt" height="211pt" viewBox="0 0 268 211.4" xmlns="http://www.w3.org/2000/svg"><g class="graph" transform="translate(4 207.4)"><path fill="#fff" stroke="transparent" d="M-4 4v-211.4h268V4H-4z"/><text x="111" y="-176.8" font-family="Lato" font-size="12">[Büchi]</text><g class="node"><circle fill="#ffffa0" stroke="#000" cx="56" cy="-68" r="18"/><text text-anchor="middle" x="56" y="-64.9" font-family="Lato" font-size="12">0</text></g><g class="edge"><path fill="none" stroke="#000" d="M1.123-68h29.801"/><path stroke="#000" d="M37.98-68l-7-3.15 3.5 3.15h-3.5 3.5l-3.5 3.15 7-3.15h0z"/></g><g class="node"><circle fill="#ffffa0" stroke="#000" cx="149" cy="-115" r="18"/><circle fill="none" stroke="#000" cx="149" cy="-115" r="22"/><text text-anchor="middle" x="149" y="-111.9" font-family="Lato" font-size="12">1</text></g><g class="edge"><path fill="none" stroke="#000" d="M72.2-76.187l50.236-25.388"/><path stroke="#000" d="M129.106-104.946l-7.668.346 4.544 1.232-3.123 1.58h0l3.124-1.58-1.704 4.39 4.827-5.968h0z"/><text x="93.5" y="-97.4" font-family="Lato" font-size="12">p0</text></g><g class="node"><circle fill="#ffffa0" stroke="#000" cx="149" cy="-22" r="18"/><circle fill="none" stroke="#000" cx="149" cy="-22" r="22"/><text text-anchor="middle" x="149" y="-18.9" font-family="Lato" font-size="12">2</text></g><g class="edge"><path fill="none" stroke="#000" d="M72.2-59.987l50.236 24.848"/><path stroke="#000" d="M129.106-31.84l-4.878-5.927 1.741 4.375-3.137-1.551h0l3.137 1.551-4.534 1.272 7.671.28h0z"/><text x="92" y="-52.4" font-family="Lato" font-size="12">!p0</text></g><g class="edge"><path fill="none" stroke="#000" d="M140.266-135.58C139.057-145.846 141.969-155 149-155c5.273 0 8.23 5.15 8.868 12.055"/><path stroke="#000" d="M157.734-135.58l3.277-6.942-3.213 3.442.064-3.5h0l-.064 3.5-3.086-3.557 3.022 7.056h0z"/><text text-anchor="middle" x="149" y="-158.4" font-family="Lato" font-size="12">1</text></g><g class="edge"><path fill="none" stroke="#000" d="M140.266-42.58C139.057-52.846 141.969-62 149-62c5.273 0 8.23 5.15 8.868 12.055"/><path stroke="#000" d="M157.734-42.58l3.277-6.942-3.213 3.442.064-3.5h0l-.064 3.5-3.086-3.557 3.022 7.056h0z"/><text x="142" y="-65.4" font-family="Lato" font-size="12">p1</text></g><g class="node"><circle fill="#ffffa0" stroke="#000" cx="242" cy="-22" r="18"/><text text-anchor="middle" x="242" y="-18.9" font-family="Lato" font-size="12">3</text></g><g class="edge"><path fill="none" stroke="#000" d="M171.04-22h45.704"/><path stroke="#000" d="M223.865-22l-7-3.15 3.5 3.15h-3.5 3.5l-3.5 3.15 7-3.15h0z"/><text x="189" y="-25.4" font-family="Lato" font-size="12">!p1</text></g><g class="edge"><path fill="none" stroke="#000" d="M226.415-12.8C220.271-9.674 213.015-6.574 206-5c-10.216 2.29-21.281.1-30.92-3.38"/><path stroke="#000" d="M168.346-11.098l5.312 5.54-2.066-4.23 3.245 1.31h0l-3.245-1.31 4.424-1.612-7.67.302h0z"/><text x="190.5" y="-8.4" font-family="Lato" font-size="12">p1</text></g><g class="edge"><path fill="none" stroke="#000" d="M234.332-38.29C232.483-48.39 235.04-58 242-58c5.22 0 7.964 5.406 8.229 12.37"/><path stroke="#000" d="M249.668-38.29l3.674-6.74-3.407 3.25.266-3.49h0l-.266 3.49-2.875-3.73 2.608 7.22h0z"/><text x="233.5" y="-61.4" font-family="Lato" font-size="12">!p1</text></g></g></svg>