<svg xmlns="http://www.w3.org/2000/svg" xmlns:xlink="http://www.w3.org/1999/xlink" width="216.331" height="217.024" viewBox="0 0 162.248 162.768"><defs><symbol overflow="visible" id="m"><path d="M3.89-.781v.89L5.329 0v-.313c-.687 0-.766-.062-.766-.562v-3.531l-1.468.11v.312c.687 0 .781.062.781.562v1.766c0 .875-.484 1.547-1.219 1.547-.828 0-.875-.47-.875-.985v-3.312l-1.468.11v.312c.78 0 .78.03.78.906v1.5c0 .781 0 1.687 1.516 1.687.563 0 1-.28 1.282-.89zm0 0"/></symbol><symbol overflow="visible" id="a"><path d="M4.828-3.14v-.61h-3v-2.5h1.297c.125 0 .25.016.36.016H5.25v-.657H.937V0h.891v-3.14zm0 0"/></symbol><symbol overflow="visible" id="c"><path d="M4.344-2.969c0-.656-.157-1.562-1.375-1.562-.89 0-1.39.672-1.438.75v-.703H.813V0h.765v-2.438c0-.656.25-1.484 1.016-1.484.953 0 .969.703.969 1.016V0h.78zm0 0"/></symbol><symbol overflow="visible" id="d"><path d="M3.297 2.39c0-.03 0-.046-.172-.218C1.891.922 1.562-.968 1.562-2.5c0-1.734.375-3.469 1.61-4.703.125-.125.125-.14.125-.172 0-.078-.031-.11-.094-.11-.11 0-1 .688-1.594 1.954C1.11-4.438.984-3.328.984-2.5c0 .781.11 1.984.657 3.125C2.25 1.844 3.094 2.5 3.203 2.5c.063 0 .094-.031.094-.11zm0 0"/></symbol><symbol overflow="visible" id="f"><path d="M2.875-2.5c0-.766-.11-1.969-.656-3.11C1.625-6.827.766-7.483.672-7.483a.107.107 0 00-.11.109c0 .031 0 .047.188.234.984.985 1.547 2.563 1.547 4.641 0 1.719-.36 3.469-1.594 4.719-.14.125-.14.14-.14.172 0 .062.046.109.109.109.094 0 1-.688 1.578-1.953.516-1.094.625-2.203.625-3.047zm0 0"/></symbol><symbol overflow="visible" id="g"><path d="M2.547 2.5v-.406h-.969v-9.172h.969v-.406H1.172V2.5zm0 0"/></symbol><symbol overflow="visible" id="h"><path d="M1.172-2.172c0-1.625.812-2.047 1.344-2.047.093 0 .718.016 1.062.375-.406.031-.469.328-.469.453 0 .266.188.454.454.454.265 0 .468-.157.468-.47 0-.671-.765-1.062-1.531-1.062C1.25-4.469.344-3.39.344-2.156c0 1.281.984 2.265 2.14 2.265 1.329 0 1.657-1.203 1.657-1.296 0-.094-.11-.094-.141-.094-.078 0-.11.031-.125.093C3.594-.265 2.937-.14 2.578-.14c-.531 0-1.406-.421-1.406-2.03zm0 0"/></symbol><symbol overflow="visible" id="i"><path d="M4.688-2.14c0-1.266-.985-2.329-2.188-2.329C1.25-4.469.281-3.375.281-2.14A2.22 2.22 0 002.484.11c1.204 0 2.204-.984 2.204-2.25zM2.5-.14c-.438 0-.875-.204-1.14-.672-.25-.438-.25-1.047-.25-1.407 0-.39 0-.922.234-1.36a1.347 1.347 0 011.14-.671c.438 0 .86.219 1.125.656.266.422.266 1 .266 1.375 0 .36 0 .906-.219 1.344-.234.453-.672.734-1.156.734zm0 0"/></symbol><symbol overflow="visible" id="j"><path d="M2.75-1.86v-.577H.11v.578zm0 0"/></symbol><symbol overflow="visible" id="k"><path d="M2.219-3.656v-2.438c0-.343.015-.406.484-.406h1.235c.968 0 1.312.844 1.312 1.375 0 .64-.484 1.469-1.594 1.469zm2.344.094c.968-.188 1.656-.829 1.656-1.563 0-.86-.922-1.688-2.219-1.688H.36v.313h.234c.765 0 .797.11.797.469v5.25c0 .36-.032.469-.797.469H.359V0h3.907c1.328 0 2.218-.89 2.218-1.828 0-.86-.812-1.61-1.921-1.734zm-.61 3.25h-1.25c-.469 0-.484-.063-.484-.391v-2.719h1.875c.984 0 1.406.922 1.406 1.594 0 .703-.531 1.516-1.547 1.516zm0 0"/></symbol><symbol overflow="visible" id="l"><path d="M2.031-6.172c0-.234-.203-.5-.5-.5-.281 0-.5.219-.5.5s.219.5.5.5c.297 0 .5-.266.5-.5zm1.922 0c0-.281-.219-.5-.5-.5-.297 0-.5.266-.5.5 0 .234.203.5.5.5.281 0 .5-.219.5-.5zm0 0"/></symbol><symbol overflow="visible" id="b"><path d="M1.625-6.781h-.89v.89h.89zm-.063 2.36h-.75V0h.75zm0 0"/></symbol><symbol overflow="visible" id="n"><path d="M1.094-.75c0 .438-.11.438-.782.438V0c.36-.016.86-.031 1.141-.031.25 0 .766.015 1.11.031v-.313c-.672 0-.782 0-.782-.437v-1.844c0-1.031.719-1.594 1.344-1.594.64 0 .75.532.75 1.11V-.75c0 .438-.11.438-.781.438V0c.344-.016.86-.031 1.125-.031.25 0 .781.015 1.11.031v-.313c-.516 0-.766 0-.766-.296v-1.907c0-.859 0-1.156-.313-1.515-.14-.172-.469-.375-1.047-.375-.844 0-1.281.593-1.453.984v-3.5l-1.438.11v.312c.704 0 .782.063.782.563zm0 0"/></symbol><symbol overflow="visible" id="o"><path d="M1.766-4.406l-1.391.11v.312c.64 0 .734.062.734.546V-.75c0 .438-.109.438-.78.438V0c.312-.016.859-.031 1.093-.031.36 0 .703.015 1.047.031v-.313c-.672 0-.703-.046-.703-.437zm.03-1.735a.514.514 0 00-.515-.53.537.537 0 00-.531.53c0 .266.219.532.531.532a.514.514 0 00.516-.532zm0 0"/></symbol><symbol overflow="visible" id="p"><path d="M1.578-7.484H.218v.406h.97v9.172h-.97V2.5h1.36zm0 0"/></symbol><symbol overflow="visible" id="u"><path d="M2.938-6.375c0-.25 0-.266-.235-.266C2.078-6 1.203-6 .891-6v.313c.203 0 .78 0 1.296-.266v5.172c0 .36-.03.469-.921.469H.953V0c.344-.031 1.203-.031 1.61-.031.39 0 1.265 0 1.609.031v-.313h-.313c-.906 0-.921-.109-.921-.468zm0 0"/></symbol><symbol overflow="visible" id="v"><path d="M4.578-3.188c0-.796-.047-1.593-.39-2.328C3.733-6.484 2.905-6.64 2.5-6.64c-.61 0-1.328.266-1.75 1.188-.313.687-.36 1.469-.36 2.266 0 .75.032 1.64.454 2.406a1.83 1.83 0 001.64 1c.532 0 1.297-.203 1.735-1.157.312-.687.36-1.468.36-2.25zM2.484 0c-.39 0-.984-.25-1.156-1.203-.11-.594-.11-1.516-.11-2.11 0-.64 0-1.296.079-1.828.187-1.187.937-1.28 1.187-1.28.329 0 .985.187 1.172 1.171.11.563.11 1.313.11 1.938 0 .75 0 1.421-.11 2.062C3.5-.297 2.937 0 2.484 0zm0 0"/></symbol><symbol overflow="visible" id="e"><path d="M5.047-3.422c0-1.36 0-3.719-2.313-3.719C.422-7.14.422-4.812.422-3.42c0 1.374 0 3.64 2.312 3.64 2.313 0 2.313-2.25 2.313-3.64zM2.734-.5C2-.5 1.891-1.422 1.86-1.688c-.078-.53-.078-1.468-.078-1.875 0-.578 0-1.218.063-1.718.031-.266.125-1.14.89-1.14.735 0 .86.843.891 1.03.063.516.063 1.297.063 1.829 0 .578 0 1.343-.063 1.89-.031.266-.14 1.172-.89 1.172zm0 0"/></symbol><symbol overflow="visible" id="s"><path d="M3.719-3.766c-.188-.375-.469-.64-.922-.64-1.156 0-2.39 1.468-2.39 2.922C.406-.547.952.109 1.718.109c.203 0 .703-.046 1.297-.75a.91.91 0 00.906.75c.36 0 .578-.234.75-.546a6.49 6.49 0 00.297-.985c0-.11-.094-.11-.125-.11-.094 0-.11.048-.14.188-.173.64-.345 1.235-.75 1.235-.282 0-.298-.266-.298-.454 0-.218.016-.312.125-.75.11-.406.125-.515.219-.89l.36-1.39c.062-.282.062-.298.062-.345 0-.171-.11-.265-.281-.265-.25 0-.391.219-.422.437zm-.64 2.579c-.063.187-.063.203-.204.375-.438.546-.844.703-1.125.703-.5 0-.64-.547-.64-.938 0-.5.312-1.719.546-2.187.313-.579.75-.954 1.157-.954.64 0 .78.813.78.875a.562.562 0 01-.03.172zm0 0"/></symbol><symbol overflow="visible" id="t"><path d="M6.094-3.188c0-.328-.032-.359-.36-.359H.891c-.157 0-.344 0-.344.203 0 .188.187.188.344.188h4.796v1.906c0 .188 0 .36.204.36.203 0 .203-.172.203-.36zm0 0"/></symbol><clipPath id="q"><path d="M118 41h44.246v121.77H118zm0 0"/></clipPath><clipPath id="r"><path d="M32 117h45v45.77H32zm0 0"/></clipPath></defs><use xlink:href="#a" x="69.784" y="12.769"/><use xlink:href="#b" x="75.457" y="12.769"/><use xlink:href="#c" x="77.837" y="12.769"/><use xlink:href="#d" x="82.985" y="12.769"/><path d="M98.637 9.309a5.789 5.789 0 10-11.578 0 5.79 5.79 0 1011.578 0zm0 0" fill="#1f78b4" stroke-width=".399" stroke-linejoin="bevel" stroke="#fff" stroke-miterlimit="10"/><use xlink:href="#e" x="90.109" y="12.769" fill="#fff"/><use xlink:href="#f" x="98.837" y="12.769"/><use xlink:href="#g" x="64.593" y="24.724"/><use xlink:href="#h" x="67.361" y="24.724"/><use xlink:href="#i" x="71.788" y="24.724"/><use xlink:href="#j" x="76.769" y="24.724"/><use xlink:href="#k" x="80.09" y="24.724"/><use xlink:href="#l" x="87.425" y="24.724"/><use xlink:href="#m" x="87.146" y="24.724"/><use xlink:href="#h" x="92.682" y="24.724"/><use xlink:href="#n" x="96.83" y="24.724"/><use xlink:href="#o" x="102.365" y="24.724"/><use xlink:href="#p" x="105.133" y="24.724"/><g clip-path="url(#q)"><path d="M118.75 162.27V42.266h43V162.27zm0 0" fill="none" stroke-linejoin="bevel" stroke="#0f0" stroke-miterlimit="10"/></g><g clip-path="url(#r)"><path d="M32.75 162.27v-44.004h43v44.004zm0 0" fill="none" stroke-linejoin="bevel" stroke="#000" stroke-miterlimit="10"/></g><path d="M136.7 126.996c-1.079-9.183.1-18.23 3.55-18.23 2.531 0 3.84 4.879 3.586 16.574" fill="none" stroke-linejoin="bevel" stroke="#000" stroke-miterlimit="10"/><path d="M143.813 126.496c.32-1.441.93-2.875 1.98-4.59-1.34 1.707-2.5 1.684-3.762-.082.973 1.758 1.52 3.219 1.782 4.672zm0 0" stroke-linejoin="round" stroke="#000" stroke-miterlimit="10" stroke-width="1.00004"/><use xlink:href="#s" x="137.615" y="102.913"/><path d="M134.871 127.59c-4.621-16.68-2.82-36.824 5.379-36.824 7.05 0 9.371 14.875 5.676 35.191" fill="none" stroke-linejoin="bevel" stroke="#000" stroke-miterlimit="10"/><path d="M145.719 127.098c.543-1.375 1.375-2.696 2.68-4.223-1.59 1.477-2.731 1.27-3.704-.672.688 1.89 1 3.418 1.024 4.895zm0 0" stroke-linejoin="round" stroke="#000" stroke-miterlimit="10" stroke-width="1.00031"/><use xlink:href="#t" x="134.294" y="73.67"/><use xlink:href="#s" x="140.936" y="73.67"/><path d="M146.04 82.164a5.791 5.791 0 10-11.581.005 5.791 5.791 0 0011.58-.005zm0 0" fill="#1f78b4" stroke-width=".399" stroke-linejoin="bevel" stroke="#fff" stroke-miterlimit="10"/><use xlink:href="#e" x="137.508" y="85.625" fill="#fff"/><path d="M3.82 140.27h35.055" fill="none" stroke-linejoin="bevel" stroke="#000" stroke-miterlimit="10"/><path d="M40.031 140.27c-1.445-.293-2.894-.872-4.633-1.883 1.739 1.3 1.739 2.46 0 3.761 1.739-1.011 3.188-1.59 4.633-1.878zm0 0" stroke-linejoin="round" stroke="#000" stroke-miterlimit="10"/><path d="M68.066 140.27h56.746" fill="none" stroke-linejoin="bevel" stroke="#000" stroke-miterlimit="10"/><path d="M125.969 140.27c-1.446-.293-2.895-.872-4.63-1.883 1.735 1.3 1.735 2.46 0 3.761 1.735-1.011 3.184-1.59 4.63-1.878zm0 0" stroke-linejoin="round" stroke="#000" stroke-miterlimit="10"/><g><use xlink:href="#t" x="91.294" y="134.413"/></g><g><use xlink:href="#s" x="97.936" y="134.413"/></g><path d="M153.75 140.27c0-7.458-6.043-13.504-13.5-13.504s-13.5 6.046-13.5 13.504c0 7.453 6.043 13.5 13.5 13.5s13.5-6.047 13.5-13.5zm0 0" fill="none" stroke-linejoin="bevel" stroke="#000" stroke-miterlimit="10"/><g><use xlink:href="#u" x="137.757" y="143.478"/></g><path d="M67.75 140.27c0-7.458-6.047-13.504-13.5-13.504-7.457 0-13.5 6.046-13.5 13.504 0 7.453 6.043 13.5 13.5 13.5 7.453 0 13.5-6.047 13.5-13.5zm0 0" fill="none" stroke-linejoin="bevel" stroke="#000" stroke-miterlimit="10"/><g><use xlink:href="#v" x="51.757" y="143.478"/></g></svg>