<svg xmlns="http://www.w3.org/2000/svg" xmlns:xlink="http://www.w3.org/1999/xlink" width="213.664" height="133.391" viewBox="0 0 160.248 100.043"><defs><symbol overflow="visible" id="o"><path d="M2.938-6.375c0-.25 0-.266-.235-.266C2.078-6 1.203-6 .891-6v.313c.203 0 .78 0 1.296-.266v5.172c0 .36-.03.469-.921.469H.953V0c.344-.031 1.203-.031 1.61-.031.39 0 1.265 0 1.609.031v-.313h-.313c-.906 0-.921-.109-.921-.468zm0 0"/></symbol><symbol overflow="visible" id="a"><path d="M2.547 2.5v-.406h-.969v-9.172h.969v-.406H1.172V2.5zm0 0"/></symbol><symbol overflow="visible" id="c"><path d="M2.031-6.172c0-.234-.203-.5-.5-.5-.281 0-.5.219-.5.5s.219.5.5.5c.297 0 .5-.266.5-.5zm1.922 0c0-.281-.219-.5-.5-.5-.297 0-.5.266-.5.5 0 .234.203.5.5.5.281 0 .5-.219.5-.5zm0 0"/></symbol><symbol overflow="visible" id="d"><path d="M3.89-.781v.89L5.329 0v-.313c-.687 0-.766-.062-.766-.562v-3.531l-1.468.11v.312c.687 0 .781.062.781.562v1.766c0 .875-.484 1.547-1.219 1.547-.828 0-.875-.47-.875-.985v-3.312l-1.468.11v.312c.78 0 .78.03.78.906v1.5c0 .781 0 1.687 1.516 1.687.563 0 1-.28 1.282-.89zm0 0"/></symbol><symbol overflow="visible" id="e"><path d="M1.172-2.172c0-1.625.812-2.047 1.344-2.047.093 0 .718.016 1.062.375-.406.031-.469.328-.469.453 0 .266.188.454.454.454.265 0 .468-.157.468-.47 0-.671-.765-1.062-1.531-1.062C1.25-4.469.344-3.39.344-2.156c0 1.281.984 2.265 2.14 2.265 1.329 0 1.657-1.203 1.657-1.296 0-.094-.11-.094-.141-.094-.078 0-.11.031-.125.093C3.594-.265 2.937-.14 2.578-.14c-.531 0-1.406-.421-1.406-2.03zm0 0"/></symbol><symbol overflow="visible" id="f"><path d="M1.094-.75c0 .438-.11.438-.782.438V0c.36-.016.86-.031 1.141-.031.25 0 .766.015 1.11.031v-.313c-.672 0-.782 0-.782-.437v-1.844c0-1.031.719-1.594 1.344-1.594.64 0 .75.532.75 1.11V-.75c0 .438-.11.438-.781.438V0c.344-.016.86-.031 1.125-.031.25 0 .781.015 1.11.031v-.313c-.516 0-.766 0-.766-.296v-1.907c0-.859 0-1.156-.313-1.515-.14-.172-.469-.375-1.047-.375-.844 0-1.281.593-1.453.984v-3.5l-1.438.11v.312c.704 0 .782.063.782.563zm0 0"/></symbol><symbol overflow="visible" id="g"><path d="M1.766-4.406l-1.391.11v.312c.64 0 .734.062.734.546V-.75c0 .438-.109.438-.78.438V0c.312-.016.859-.031 1.093-.031.36 0 .703.015 1.047.031v-.313c-.672 0-.703-.046-.703-.437zm.03-1.735a.514.514 0 00-.515-.53.537.537 0 00-.531.53c0 .266.219.532.531.532a.514.514 0 00.516-.532zm0 0"/></symbol><symbol overflow="visible" id="h"><path d="M1.578-7.484H.218v.406h.97v9.172h-.97V2.5h1.36zm0 0"/></symbol><symbol overflow="visible" id="b"><path d="M2.219-3.656v-2.438c0-.343.015-.406.484-.406h1.235c.968 0 1.312.844 1.312 1.375 0 .64-.484 1.469-1.594 1.469zm2.344.094c.968-.188 1.656-.829 1.656-1.563 0-.86-.922-1.688-2.219-1.688H.36v.313h.234c.765 0 .797.11.797.469v5.25c0 .36-.032.469-.797.469H.359V0h3.907c1.328 0 2.218-.89 2.218-1.828 0-.86-.812-1.61-1.921-1.734zm-.61 3.25h-1.25c-.469 0-.484-.063-.484-.391v-2.719h1.875c.984 0 1.406.922 1.406 1.594 0 .703-.531 1.516-1.547 1.516zm0 0"/></symbol><symbol overflow="visible" id="q"><path d="M4.578-3.188c0-.796-.047-1.593-.39-2.328C3.733-6.484 2.905-6.64 2.5-6.64c-.61 0-1.328.266-1.75 1.188-.313.687-.36 1.469-.36 2.266 0 .75.032 1.64.454 2.406a1.83 1.83 0 001.64 1c.532 0 1.297-.203 1.735-1.157.312-.687.36-1.468.36-2.25zM2.484 0c-.39 0-.984-.25-1.156-1.203-.11-.594-.11-1.516-.11-2.11 0-.64 0-1.296.079-1.828.187-1.187.937-1.28 1.187-1.28.329 0 .985.187 1.172 1.171.11.563.11 1.313.11 1.938 0 .75 0 1.421-.11 2.062C3.5-.297 2.937 0 2.484 0zm0 0"/></symbol><symbol overflow="visible" id="i"><path d="M.453 1.219c-.078.343-.11.406-.547.406-.11 0-.218 0-.218.188 0 .078.046.125.124.125.266 0 .563-.032.829-.032.343 0 .671.032 1 .032.046 0 .171 0 .171-.204 0-.109-.093-.109-.234-.109-.5 0-.5-.063-.5-.156 0-.125.422-1.75.484-2 .125.297.407.64.922.64 1.157 0 2.407-1.453 2.407-2.921 0-.938-.579-1.594-1.329-1.594-.5 0-.984.36-1.312.75-.094-.547-.531-.75-.89-.75-.47 0-.657.39-.735.562-.188.344-.313.938-.313.969 0 .11.094.11.11.11.11 0 .11-.016.172-.235.172-.703.375-1.188.734-1.188.172 0 .313.079.313.454 0 .234-.032.343-.079.515zm1.75-4.328c.063-.266.344-.547.516-.704.36-.296.64-.374.812-.374.39 0 .64.343.64.937 0 .594-.327 1.734-.515 2.11-.344.702-.812 1.03-1.187 1.03-.656 0-.781-.828-.781-.89 0-.016 0-.031.03-.156zm0 0"/></symbol><symbol overflow="visible" id="j"><path d="M3.594-2.219c0-.765-.094-1.328-.406-1.812-.22-.313-.657-.594-1.204-.594C.36-4.625.36-2.719.36-2.219c0 .5 0 2.36 1.625 2.36 1.61 0 1.61-1.86 1.61-2.36zM1.984-.063c-.328 0-.75-.187-.89-.75C1-1.219 1-1.796 1-2.313c0-.515 0-1.046.094-1.421.156-.547.593-.704.89-.704.375 0 .735.235.86.641.11.375.125.875.125 1.485 0 .515 0 1.03-.094 1.468-.14.64-.61.781-.89.781zm0 0"/></symbol><symbol overflow="visible" id="m"><path d="M2.328-4.438c0-.187 0-.187-.203-.187-.453.438-1.078.438-1.36.438v.25c.157 0 .626 0 1-.188v3.547c0 .234 0 .328-.687.328H.812V0c.125 0 .985-.031 1.235-.031.219 0 1.094.031 1.25.031v-.25H3.03c-.703 0-.703-.094-.703-.328zm0 0"/></symbol><symbol overflow="visible" id="k"><path d="M3.547-5.75c-.078-.172-.14-.219-.235-.219-.124 0-.156.078-.218.219L.625-.172c-.063.125-.078.14-.078.188 0 .109.094.203.203.203.063 0 .14-.016.234-.203l2.329-5.297L5.655.016c.094.203.203.203.235.203.109 0 .203-.094.203-.203 0-.016 0-.032-.063-.157zm0 0"/></symbol><symbol overflow="visible" id="l"><path d="M6.094-3.188c0-.328-.032-.359-.36-.359H.891c-.157 0-.344 0-.344.203 0 .188.187.188.344.188h4.796v1.906c0 .188 0 .36.204.36.203 0 .203-.172.203-.36zm0 0"/></symbol><symbol overflow="visible" id="n"><path d="M4.078-6.266H6.86c.172 0 .344 0 .344-.187 0-.203-.172-.203-.344-.203H.906c-.156 0-.36 0-.36.203 0 .187.204.187.36.187h2.766v5.907c0 .156 0 .359.203.359s.203-.172.203-.36zm0 0"/></symbol><clipPath id="p"><path d="M124 64h36.246v36.043H124zm0 0"/></clipPath></defs><use xlink:href="#a" x="65.958" y="15.275"/><use xlink:href="#b" x="68.726" y="15.275"/><use xlink:href="#c" x="76.061" y="15.275"/><use xlink:href="#d" x="75.782" y="15.275"/><use xlink:href="#e" x="81.317" y="15.275"/><use xlink:href="#f" x="85.466" y="15.275"/><use xlink:href="#g" x="91.001" y="15.275"/><use xlink:href="#h" x="93.769" y="15.275"/><path d="M3.82 82.043h35.055" fill="none" stroke-linejoin="bevel" stroke="#000" stroke-miterlimit="10"/><path d="M40.031 82.043c-1.445-.29-2.894-.867-4.633-1.883 1.739 1.305 1.739 2.461 0 3.766 1.739-1.016 3.188-1.594 4.633-1.883zm0 0" stroke-linejoin="round" stroke="#000" stroke-miterlimit="10"/><path d="M48.957 69.426c-1.848-9.403-.082-18.883 5.293-18.883 3.945 0 5.945 5.113 5.367 17.227" fill="none" stroke-linejoin="bevel" stroke="#000" stroke-miterlimit="10"/><path d="M59.562 68.93c.36-1.434 1.008-2.852 2.102-4.54-1.383 1.672-2.543 1.618-3.762-.18.93 1.786 1.442 3.259 1.66 4.72zm0 0" stroke-linejoin="round" stroke="#000" stroke-miterlimit="10" stroke-width="1.00033"/><use xlink:href="#i" x="35.911" y="42.842"/><use xlink:href="#j" x="40.923" y="44.336"/><use xlink:href="#k" x="47.606" y="42.842"/><use xlink:href="#l" x="56.46" y="42.842"/><use xlink:href="#i" x="63.104" y="42.842"/><use xlink:href="#m" x="68.116" y="44.336"/><path d="M68 82.043h54.992" fill="none" stroke-linejoin="bevel" stroke="#000" stroke-miterlimit="10"/><path d="M124.148 82.043c-1.445-.29-2.894-.867-4.628-1.883 1.734 1.305 1.734 2.461 0 3.766 1.734-1.016 3.183-1.594 4.628-1.883zm0 0" stroke-linejoin="round" stroke="#000" stroke-miterlimit="10"/><use xlink:href="#i" x="91.507" y="74.219"/><use xlink:href="#m" x="96.52" y="75.714"/><path d="M134.309 66.348c-2.07-10.094.57-19.805 7.941-19.805 5.531 0 8.398 5.46 7.992 18.148" fill="none" stroke-linejoin="bevel" stroke="#000" stroke-miterlimit="10"/><path d="M150.207 65.848c.336-1.438.961-2.868 2.027-4.57-1.355 1.695-2.515 1.66-3.761-.122.957 1.77 1.492 3.235 1.734 4.692zm0 0" stroke-linejoin="round" stroke="#000" stroke-miterlimit="10" stroke-width="1.00007"/><use xlink:href="#n" x="138.374" y="41.002"/><path d="M67.75 82.043c0-7.457-6.047-13.5-13.5-13.5-7.457 0-13.5 6.043-13.5 13.5s6.043 13.5 13.5 13.5c7.453 0 13.5-6.043 13.5-13.5zm0 0" fill="none" stroke-linejoin="bevel" stroke="#000" stroke-miterlimit="10"/><g><use xlink:href="#o" x="51.757" y="85.253"/></g><path d="M155.75 82.043c0-7.457-6.043-13.5-13.5-13.5s-13.5 6.043-13.5 13.5 6.043 13.5 13.5 13.5 13.5-6.043 13.5-13.5zm0 0" fill="none" stroke-linejoin="bevel" stroke="#000" stroke-miterlimit="10"/><g clip-path="url(#p)"><path d="M159.75 82.043c0-9.664-7.836-17.5-17.5-17.5s-17.5 7.836-17.5 17.5 7.836 17.5 17.5 17.5 17.5-7.836 17.5-17.5zm0 0" fill="none" stroke-linejoin="bevel" stroke="#000" stroke-miterlimit="10"/></g><g><use xlink:href="#q" x="139.757" y="85.253"/></g></svg>