<?xml-stylesheet href="spot.css" type="text/css"?><svg width="380" height="169pt" viewBox="0 0 285 169" xmlns="http://www.w3.org/2000/svg"><g class="graph" transform="translate(4 165)"><path fill="#fff" stroke="transparent" d="M-4 4v-169h285V4H-4z"/><text x="120.5" y="-148.4" font-family="Lato" font-size="12">Inf(</text><text x="138.5" y="-148.4" font-family="Lato" font-size="12" fill="#1f78b4">⓿</text><text x="152.5" y="-148.4" font-family="Lato" font-size="12">)</text><text x="119.5" y="-136.4" font-family="Lato" font-size="12">[Büchi]</text><g class="node"><circle fill="#ffffa0" stroke="#000" cx="56" cy="-34" r="18"/><text text-anchor="middle" x="56" y="-30.9" font-family="Lato" font-size="12">0</text></g><g class="edge"><path fill="none" stroke="#000" d="M1.123-34h29.801"/><path stroke="#000" d="M37.98-34l-7-3.15 3.5 3.15h-3.5 3.5l-3.5 3.15 7-3.15h0z"/></g><g class="edge"><path fill="none" stroke="#000" d="M49.62-51.037C48.32-60.857 50.446-70 56-70c4.166 0 6.404 5.142 6.713 11.857"/><path stroke="#000" d="M62.38-51.037l3.474-6.845-3.31 3.349.164-3.497h0l-.165 3.497-2.982-3.644 2.818 7.14h0z"/><text x="42" y="-86.4" font-family="Lato" font-size="12">a &amp; b</text><text x="49" y="-73.4" font-family="Lato" font-size="12" fill="#1f78b4">⓿</text></g><g class="node"><circle fill="#ffffa0" stroke="#000" cx="156" cy="-80" r="18"/><text text-anchor="middle" x="156" y="-76.9" font-family="Lato" font-size="12">1</text></g><g class="edge"><path fill="none" stroke="#000" d="M68.543-47.466C74.999-53.656 83.325-60.587 92-65c11.962-6.085 26.438-9.744 38.595-11.923"/><path stroke="#000" d="M137.822-78.097l-7.415-1.987 3.96 2.549-3.454.56h0l3.454-.56-2.95 3.67 6.405-4.232h0z"/><text x="101" y="-90.4" font-family="Lato" font-size="12">!b</text><text x="99" y="-77.4" font-family="Lato" font-size="12" fill="#1f78b4">⓿</text></g><g class="node"><circle fill="#ffffa0" stroke="#000" cx="259" cy="-18" r="18"/><text text-anchor="middle" x="259" y="-14.9" font-family="Lato" font-size="12">2</text></g><g class="edge"><path fill="none" stroke="#000" d="M74.234-32.386C90.848-30.93 116.067-28.752 138-27c33.111 2.645 71.341 5.446 95.82 7.208"/><path stroke="#000" d="M240.955-19.28l-6.756-3.643 3.265 3.392-3.49-.25h0l3.49.25-3.716 2.891 7.207-2.64h0z"/><text x="140.5" y="-43.4" font-family="Lato" font-size="12">!a &amp; b</text><text x="149" y="-30.4" font-family="Lato" font-size="12" fill="#1f78b4">⓿</text></g><g class="edge"><path fill="none" stroke="#000" d="M143.886-66.357C137.41-59.87 128.942-52.554 120-48c-11.919 6.07-26.392 9.517-38.558 11.47"/><path stroke="#000" d="M74.209-35.496l7.375 2.128-3.91-2.623 3.464-.495h0l-3.464.495 3.019-3.614-6.484 4.109h0z"/><text x="92" y="-51.4" font-family="Lato" font-size="12">a &amp; b</text></g><g class="edge"><path fill="none" stroke="#000" d="M147.367-95.916C145.114-106.15 147.992-116 156-116c6.131 0 9.255 5.774 9.372 13.073"/><path stroke="#000" d="M164.633-95.916l3.866-6.632L165-99.397l.367-3.48h0l-.367 3.48-2.766-3.81 2.4 7.291h0z"/><text x="151" y="-119.4" font-family="Lato" font-size="12">!b</text></g><g class="edge"><path fill="none" stroke="#000" d="M171.643-70.584l65.86 39.644"/><path stroke="#000" d="M243.547-27.302l-4.373-6.309 1.374 4.504-2.999-1.805h0l3 1.805-4.624.894 7.622.911h0z"/><text x="192" y="-61.4" font-family="Lato" font-size="12">!a &amp; b</text></g><g class="edge"><path fill="none" stroke="#000" d="M241.271-13.637C217.608-8.441 174.448-1.154 138-7c-20.46-3.282-42.736-10.893-58.9-17.201"/><path stroke="#000" d="M72.57-26.808l5.333 5.521-2.082-4.223 3.25 1.298h0l-3.25-1.298 4.418-1.628-7.669.33h0z"/><text x="152.5" y="-10.4" font-family="Lato" font-size="12">a</text></g><g class="edge"><path fill="none" stroke="#000" d="M250.367-33.916C248.114-44.15 250.992-54 259-54c6.131 0 9.255 5.774 9.372 13.073"/><path stroke="#000" d="M267.633-33.916l3.866-6.632L268-37.397l.366-3.48h0l-.366 3.48-2.766-3.81 2.4 7.291h0z"/><text x="254" y="-57.4" font-family="Lato" font-size="12">!a</text></g></g></svg>