<?xml-stylesheet href="spot.css" type="text/css"?><svg width="161pt" height="151pt" viewBox="0 0 161 151" xmlns="http://www.w3.org/2000/svg"><g class="graph" transform="translate(4 147)"><path fill="#fff" stroke="transparent" d="M-4 4v-151h161V4H-4z"/><text x="58.5" y="-130.4" font-family="Lato" font-size="12">Inf(</text><text x="76.5" y="-130.4" font-family="Lato" font-size="12" fill="#1f78b4">⓿</text><text x="90.5" y="-130.4" font-family="Lato" font-size="12">)</text><text x="57.5" y="-118.4" font-family="Lato" font-size="12">[Büchi]</text><g class="node"><circle fill="#ffffa0" stroke="#000" cx="56" cy="-18" r="18"/><text text-anchor="middle" x="56" y="-14.9" font-family="Lato" font-size="12">0</text></g><g class="edge"><path fill="none" stroke="#000" d="M1.123-18h29.801"/><path stroke="#000" d="M37.98-18l-7-3.15 3.5 3.15h-3.5 3.5l-3.5 3.15 7-3.15h0z"/></g><g class="edge"><path fill="none" stroke="#000" d="M49.62-35.037C48.32-44.857 50.446-54 56-54c4.166 0 6.404 5.142 6.713 11.857"/><path stroke="#000" d="M62.38-35.037l3.474-6.845-3.31 3.349.164-3.497h0l-.165 3.497-2.982-3.644 2.818 7.14h0z"/><text x="51" y="-57.4" font-family="Lato" font-size="12">!a</text></g><g class="node"><circle fill="#ffffa0" stroke="#000" cx="135" cy="-18" r="18"/><text text-anchor="middle" x="135" y="-14.9" font-family="Lato" font-size="12">1</text></g><g class="edge"><path fill="none" stroke="#000" d="M74.323-18h35.227"/><path stroke="#000" d="M116.777-18l-7-3.15 3.5 3.15h-3.5 3.5l-3.5 3.15 7-3.15h0z"/><text x="92" y="-21.4" font-family="Lato" font-size="12">a</text></g><g class="edge"><path fill="none" stroke="#000" d="M131.584-35.782C131.004-45.315 132.143-54 135-54c2.098 0 3.27 4.684 3.514 10.948"/><path stroke="#000" d="M138.416-35.782l3.244-6.956-3.197 3.457.048-3.5h0l-.048 3.5-3.102-3.543 3.055 7.042h0z"/><text x="130" y="-57.4" font-family="Lato" font-size="12">!b</text></g><g class="edge"><path fill="none" stroke="#000" d="M129.44-35.142C126.17-52.585 128.024-72 135-72c6.05 0 8.247 14.6 6.591 29.854"/><path stroke="#000" d="M140.56-35.142l4.136-6.466-3.626 3.004.51-3.463h0l-.51 3.463-2.607-3.922 2.096 7.384h0z"/><text x="131.5" y="-88.4" font-family="Lato" font-size="12">b</text><text x="128" y="-75.4" font-family="Lato" font-size="12" fill="#1f78b4">⓿</text></g></g></svg>