<?xml-stylesheet href="spot.css" type="text/css"?><svg width="540" height="340" viewBox="0 0 405 254.72" xmlns="http://www.w3.org/2000/svg"><g class="graph" transform="translate(4 250.72)"><path fill="#fff" stroke="transparent" d="M-4 4v-254.72h405V4H-4z"/><text x="159" y="-234.12" font-family="Lato" font-size="12">Inf(</text><text x="177" y="-234.12" font-family="Lato" font-size="12" fill="#1f78b4">⓿</text><text x="191" y="-234.12" font-family="Lato" font-size="12">)&amp;Inf(</text><text x="220" y="-234.12" font-family="Lato" font-size="12" fill="#ff4da0">❶</text><text x="234" y="-234.12" font-family="Lato" font-size="12">)</text><text x="162" y="-222.12" font-family="Lato" font-size="12">[gen. Büchi 2]</text><g class="node"><path fill="#ffffa0" stroke="#000" d="M70-59.72H50c-6 0-12 6-12 12v12c0 6 6 12 12 12h20c6 0 12-6 12-12v-12c0-6-6-12-12-12"/><text x="56.5" y="-45.12" font-family="Lato" font-size="12">0</text><text x="46" y="-33.12" font-family="Lato" font-size="12" fill="#1f78b4">⓿</text><text x="60" y="-33.12" font-family="Lato" font-size="12" fill="#ff4da0">❶</text></g><g class="edge"><path fill="none" stroke="#000" d="M1.168-41.72h29.47"/><path stroke="#000" d="M37.865-41.72l-7-3.15 3.5 3.15h-3.5 3.5l-3.5 3.15 7-3.15h0z"/></g><g class="edge"><path fill="none" stroke="#000" d="M52.764-59.873C51.65-69.259 54.062-77.72 60-77.72c4.36 0 6.82 4.563 7.377 10.704"/><path stroke="#000" d="M67.236-59.873l3.288-6.936-3.219 3.437.07-3.5h0l-.07 3.5-3.08-3.562 3.011 7.061h0z"/><text x="46" y="-81.12" font-family="Lato" font-size="12">a &amp; b</text></g><g class="node"><path fill="#ffffa0" stroke="#000" d="M173-153.72h-12c-6 0-12 6-12 12v12c0 6 6 12 12 12h12c6 0 12-6 12-12v-12c0-6-6-12-12-12"/><text x="163.5" y="-139.12" font-family="Lato" font-size="12">1</text><text x="160" y="-126.12" font-family="Lato" font-size="12" fill="#1f78b4">⓿</text></g><g class="edge"><path fill="none" stroke="#000" d="M65.787-59.907C71.853-76.186 82.913-99.603 100-113.72c11.786-9.737 28.016-15.21 41.55-18.261"/><path stroke="#000" d="M148.746-133.44l-7.486-1.697 4.056 2.393-3.43.695h0l3.43-.695-2.805 3.782 6.235-4.477h0z"/><text x="100" y="-132.12" font-family="Lato" font-size="12">a &amp; !b</text></g><g class="node"><path fill="#ffffa0" stroke="#000" d="M385-90.72h-12c-6 0-12 6-12 12v12c0 6 6 12 12 12h12c6 0 12-6 12-12v-12c0-6-6-12-12-12"/><text x="375.5" y="-76.12" font-family="Lato" font-size="12">2</text><text x="372" y="-63.12" font-family="Lato" font-size="12" fill="#ff4da0">❶</text></g><g class="edge"><path fill="none" stroke="#000" d="M82.196-34.019c5.735 1.7 11.945 3.293 17.804 4.299 60.051 10.307 76.448 11.77 137 5 48.005-5.367 61.61-4.953 106-24 3.892-1.67 7.815-3.768 11.567-6.025"/><path stroke="#000" d="M360.685-58.646l-7.595 1.107 4.644.775-2.951 1.881h0l2.951-1.881-1.257 4.538 4.208-6.42h0z"/><text x="204.5" y="-28.12" font-family="Lato" font-size="12">!a &amp; b</text></g><g class="node"><path fill="#ffffa0" stroke="#000" d="M279-90.72h-12c-6 0-12 6-12 12v12c0 6 6 12 12 12h12c6 0 12-6 12-12v-12c0-6-6-12-12-12"/><text text-anchor="middle" x="273" y="-69.62" font-family="Lato" font-size="12">3</text></g><g class="edge"><path fill="none" stroke="#000" d="M82.392-44.98c40.002-5.82 123.468-17.969 165.41-24.073"/><path stroke="#000" d="M254.89-70.084l-7.381-2.11 3.917 2.614-3.464.504h0l3.464-.504-3.01 3.621 6.473-4.125h0z"/><text x="150" y="-63.12" font-family="Lato" font-size="12">!a &amp; !b</text></g><g class="edge"><path fill="none" stroke="#000" d="M152.18-117.627c-6.163 6.956-13.632 14.708-21.18 20.907-12.488 10.256-18.051 9.332-31 19-5.278 3.94-10.682 8.44-15.744 12.894"/><path stroke="#000" d="M78.922-60.041l7.314-2.33-4.709-.007 2.606-2.337h0l-2.606 2.337.502-4.682-3.107 7.019h0z"/><text x="101.5" y="-100.12" font-family="Lato" font-size="12">a &amp; b</text></g><g class="edge"><path fill="none" stroke="#000" d="M157.955-153.873c-1.392-9.386 1.623-17.847 9.045-17.847 5.45 0 8.524 4.563 9.222 10.704"/><path stroke="#000" d="M176.045-153.873l3.322-6.92-3.235 3.421.086-3.499h0l-.086 3.5-3.063-3.577 2.976 7.075h0z"/><text x="151.5" y="-175.12" font-family="Lato" font-size="12">a &amp; !b</text></g><g class="edge"><path fill="none" stroke="#000" d="M177.635-153.921c6.198-8.816 14.866-18.599 25.365-23.8 55.757-27.617 90.43-37.609 140 0 12.895 9.785 24.368 51.942 30.733 79.772"/><path stroke="#000" d="M375.314-90.865l1.55-7.518-2.312 4.102-.763-3.416h0l.763 3.416-3.837-2.73 4.6 6.146h0z"/><text x="257.5" y="-205.12" font-family="Lato" font-size="12">!a &amp; b</text></g><g class="edge"><path fill="none" stroke="#000" d="M185.129-132.833c14.863 3 35.967 8.753 51.871 19.113 6.928 4.513 13.316 10.714 18.728 16.928"/><path stroke="#000" d="M260.41-91.13l-2.033-7.401-.197 4.704-2.23-2.697h0l2.23 2.697-4.658-.69 6.889 3.388h0z"/><text x="203" y="-131.12" font-family="Lato" font-size="12">!a &amp; !b</text></g><g class="edge"><path fill="none" stroke="#000" d="M366.859-54.534c-6.248 8.07-14.516 17.03-23.859 22.814-41.432 25.645-57.679 21.725-106 28-60.845 7.9-78.827 2.505-137-17-3.718-1.247-7.51-2.808-11.204-4.512"/><path stroke="#000" d="M82.287-28.42l4.901 5.908-1.758-4.368 3.144 1.54h0l-3.144-1.54 4.529-1.29-7.672-.25h0z"/><text x="206" y="-7.12" font-family="Lato" font-size="12">a &amp; b</text></g><g class="edge"><path fill="none" stroke="#000" d="M360.818-87.302c-17.108-13.067-43.9-31.9-69.818-43.418-22.657-10.07-29.406-10.864-54-14-14.99-1.912-19.002-1.846-34 0-3.585.441-7.326 1.12-10.983 1.913"/><path stroke="#000" d="M185.15-141.177l7.54 1.448-4.134-2.256 3.406-.809h0l-3.406.809 2.678-3.873-6.083 4.681h0z"/><text x="257.5" y="-145.12" font-family="Lato" font-size="12">a &amp; !b</text></g><g class="edge"><path fill="none" stroke="#000" d="M369.593-90.873c-1.447-9.386 1.688-17.847 9.407-17.847 5.668 0 8.865 4.563 9.59 10.704"/><path stroke="#000" d="M388.407-90.873l3.329-6.917-3.239 3.418.09-3.499h0l-.09 3.5-3.06-3.58 2.97 7.078h0z"/><text x="363.5" y="-112.12" font-family="Lato" font-size="12">!a &amp; b</text></g><g class="edge"><path fill="none" stroke="#000" d="M360.748-72.72h-62.281"/><path stroke="#000" d="M291.464-72.72l7 3.15-3.5-3.15h3.5-3.5l3.5-3.15-7 3.15h0z"/><text x="309" y="-76.12" font-family="Lato" font-size="12">!a &amp; !b</text></g><g class="edge"><path fill="none" stroke="#000" d="M254.739-63.08C237.359-54.487 210.19-42.546 185-37.72c-32.219 6.172-69.947 3.666-95.459.575"/><path stroke="#000" d="M82.36-38.07l6.54 4.018-3.069-3.571 3.472.447h0l-3.472-.447 3.874-2.677-7.345 2.23h0z"/><text x="153" y="-41.12" font-family="Lato" font-size="12">a &amp; b</text></g><g class="edge"><path fill="none" stroke="#000" d="M254.94-76.314c-14.823-3.536-35.905-9.95-51.94-20.406-6.368-4.152-12.37-9.679-17.581-15.262"/><path stroke="#000" d="M180.487-117.536l2.293 7.326.031-4.709 2.324 2.617h0l-2.324-2.617 4.68.526-7.004-3.143h0z"/><text x="204.5" y="-100.12" font-family="Lato" font-size="12">a &amp; !b</text></g><g class="edge"><path fill="none" stroke="#000" d="M291.123-62.263c5.556 2.677 11.807 5.182 17.877 6.543 14.745 3.306 19.255 3.306 34 0 3.794-.85 7.658-2.148 11.38-3.656"/><path stroke="#000" d="M360.877-62.263l-7.677-.035 4.478 1.456-3.198 1.422h0l3.198-1.422-1.919 4.3 5.118-5.721h0z"/><text x="310.5" y="-59.12" font-family="Lato" font-size="12">!a &amp; b</text></g><g class="edge"><path fill="none" stroke="#000" d="M263.593-90.873c-1.447-9.386 1.688-17.847 9.407-17.847 5.668 0 8.865 4.563 9.59 10.704"/><path stroke="#000" d="M282.407-90.873l3.329-6.917-3.239 3.418.09-3.499h0l-.09 3.5-3.06-3.58 2.97 7.078h0z"/><text x="256" y="-112.12" font-family="Lato" font-size="12">!a &amp; !b</text></g></g></svg>