<?xml-stylesheet href="spot.css" type="text/css"?><svg width="251pt" height="118pt" viewBox="0 0 251 118.4" xmlns="http://www.w3.org/2000/svg"><g class="graph"><path fill="#fff" stroke="transparent" d="M0 118.4V0h251v118.4H0z"/><text x="102.5" y="-83.8" font-family="Lato" font-size="12" transform="translate(4 114.4)">[Büchi]</text><g class="node" transform="translate(4 114.4)"><circle fill="#ffffa0" stroke="#000" cx="56" cy="-22" r="18"/><text text-anchor="middle" x="56" y="-18.9" font-family="Lato" font-size="12">0</text></g><g class="edge" transform="translate(4 114.4)"><path fill="none" stroke="#000" d="M1.123-22h29.801"/><path stroke="#000" d="M37.98-22l-7-3.15 3.5 3.15h-3.5 3.5l-3.5 3.15 7-3.15h0z"/></g><g class="edge" transform="translate(4 114.4)"><path fill="none" stroke="#000" d="M49.62-39.037C48.32-48.857 50.446-58 56-58c4.166 0 6.404 5.142 6.713 11.857"/><path stroke="#000" d="M62.38-39.037l3.474-6.845-3.31 3.349.164-3.497h0l-.165 3.497-2.982-3.644 2.818 7.14h0z"/><text x="40.5" y="-61.4" font-family="Lato" font-size="12">a &amp; !b</text></g><g class="node" transform="translate(4 114.4)"><circle fill="#ffffa0" stroke="#000" cx="139" cy="-22" r="18"/><circle fill="none" stroke="#000" cx="139" cy="-22" r="22"/><text text-anchor="middle" x="139" y="-18.9" font-family="Lato" font-size="12">2</text></g><g class="edge" transform="translate(4 114.4)"><path fill="none" stroke="#000" d="M74.01-22h35.696"/><path stroke="#000" d="M116.887-22l-7-3.15 3.5 3.15h-3.5 3.5l-3.5 3.15 7-3.15h0z"/><text x="92" y="-25.4" font-family="Lato" font-size="12">b</text></g><g class="edge" transform="translate(4 114.4)"><path fill="none" stroke="#000" d="M131.317-42.99C130.37-53.088 132.93-62 139-62c4.553 0 7.131 5.013 7.736 11.78"/><path stroke="#000" d="M146.683-42.99l3.201-6.977-3.175 3.476.025-3.5h0l-.025 3.5-3.124-3.523 3.098 7.023h0z"/><text x="135.5" y="-65.4" font-family="Lato" font-size="12">b</text></g><g class="node" transform="translate(4 114.4)"><circle fill="#ffffa0" stroke="#000" cx="225" cy="-22" r="18"/><text text-anchor="middle" x="225" y="-18.9" font-family="Lato" font-size="12">1</text></g><g class="edge" transform="translate(4 114.4)"><path fill="none" stroke="#000" d="M161.147-22h38.563"/><path stroke="#000" d="M206.98-22l-7-3.15 3.5 3.15h-3.5 3.5l-3.5 3.15 7-3.15h0z"/><text x="179" y="-25.4" font-family="Lato" font-size="12">!b</text></g><g class="edge" transform="translate(4 114.4)"><path fill="none" stroke="#000" d="M209.415-12.8C203.271-9.674 196.015-6.574 189-5c-8.083 1.812-16.687.228-24.44-2.58"/><path stroke="#000" d="M157.72-10.442l5.243 5.607-2.013-4.256 3.228 1.35h0l-3.228-1.35 4.444-1.555-7.673.204h0z"/><text x="180.5" y="-8.4" font-family="Lato" font-size="12">b</text></g><g class="edge" transform="translate(4 114.4)"><path fill="none" stroke="#000" d="M217.969-38.664C216.406-48.625 218.75-58 225-58c4.688 0 7.178 5.273 7.47 12.112"/><path stroke="#000" d="M232.031-38.664l3.57-6.796-3.357 3.302.212-3.493h0l-.212 3.493-2.932-3.684 2.72 7.178h0z"/><text x="220" y="-61.4" font-family="Lato" font-size="12">!b</text></g></g></svg>