<?xml-stylesheet href="spot.css" type="text/css"?><svg width="360" height="256" viewBox="0 0 270 192.06" xmlns="http://www.w3.org/2000/svg"><g class="graph"><path fill="#fff" stroke="transparent" d="M0 192.062V0h270v192.062H0z"/><text x="87.5" y="-171.462" font-family="Lato" font-size="12" transform="translate(4 188.062)">Fin(</text><text x="107.5" y="-171.462" font-family="Lato" font-size="12" fill="#1f78b4" transform="translate(4 188.062)">⓿</text><text x="121.5" y="-171.462" font-family="Lato" font-size="12" transform="translate(4 188.062)">) &amp; Inf(</text><text x="156.5" y="-171.462" font-family="Lato" font-size="12" fill="#ff4da0" transform="translate(4 188.062)">❶</text><text x="170.5" y="-171.462" font-family="Lato" font-size="12" transform="translate(4 188.062)">)</text><text x="107" y="-159.462" font-family="Lato" font-size="12" transform="translate(4 188.062)">[Rabin 1]</text><g class="node" transform="translate(4 188.062)"><path fill="#ffffa0" stroke="#000" d="M62-78.062H50c-6 0-12 6-12 12v12c0 6 6 12 12 12h12c6 0 12-6 12-12v-12c0-6-6-12-12-12"/><text text-anchor="middle" x="56" y="-56.962" font-family="Lato" font-size="12">1</text></g><g class="edge" transform="translate(4 188.062)"><path fill="none" stroke="#000" d="M1.123-60.062h29.801"/><path stroke="#000" d="M37.98-60.062l-7-3.15 3.5 3.15h-3.5 3.5l-3.5 3.15 7-3.15h0z"/></g><g class="edge" transform="translate(4 188.062)"><path fill="none" stroke="#000" d="M49.487-78.215C48.485-87.6 50.657-96.062 56-96.062c3.924 0 6.138 4.563 6.64 10.705"/><path stroke="#000" d="M62.513-78.215l3.274-6.942-3.212 3.443.062-3.5h0l-.062 3.5-3.087-3.555 3.025 7.054h0z"/><text x="40.5" y="-99.462" font-family="Lato" font-size="12">a &amp; !b</text></g><g class="node" transform="translate(4 188.062)"><path fill="#ffffa0" stroke="#000" d="M168-121.062h-12c-6 0-12 6-12 12v12c0 6 6 12 12 12h12c6 0 12-6 12-12v-12c0-6-6-12-12-12"/><text text-anchor="middle" x="162" y="-99.962" font-family="Lato" font-size="12">0</text></g><g class="edge" transform="translate(4 188.062)"><path fill="none" stroke="#000" d="M74.464-67.552l62.558-25.377"/><path stroke="#000" d="M143.748-95.658l-7.67-.287 4.427 1.603-3.244 1.316h0l3.244-1.316-2.06 4.235 5.303-5.55h0z"/><text x="92" y="-90.462" font-family="Lato" font-size="12">!a &amp; !b</text></g><g class="node" transform="translate(4 188.062)"><path fill="#ffffa0" stroke="#000" d="M168-36.062h-12c-6 0-12 6-12 12v12c0 6 6 12 12 12h12c6 0 12-6 12-12v-12c0-6-6-12-12-12"/><text x="158.5" y="-21.462" font-family="Lato" font-size="12">3</text><text x="155" y="-8.462" font-family="Lato" font-size="12" fill="#ff4da0">❶</text></g><g class="edge" transform="translate(4 188.062)"><path fill="none" stroke="#000" d="M74.464-52.746l62.558 24.787"/><path stroke="#000" d="M143.748-25.294L138.4-30.8l2.094 4.218-3.254-1.29h0l3.254 1.29-4.414 1.639 7.668-.35h0z"/><text x="105.5" y="-48.462" font-family="Lato" font-size="12">b</text></g><g class="edge" transform="translate(4 188.062)"><path fill="none" stroke="#000" d="M154.764-121.215c-1.114-9.386 1.298-17.847 7.236-17.847 4.36 0 6.82 4.563 7.377 10.705"/><path stroke="#000" d="M169.236-121.215l3.288-6.936-3.219 3.437.07-3.5h0l-.07 3.5-3.08-3.561 3.011 7.06h0z"/><text text-anchor="middle" x="162" y="-142.462" font-family="Lato" font-size="12">1</text></g><g class="edge" transform="translate(4 188.062)"><path fill="none" stroke="#000" d="M154.764-36.215C153.65-45.6 156.062-54.062 162-54.062c4.36 0 6.82 4.563 7.377 10.705"/><path stroke="#000" d="M169.236-36.215l3.288-6.936-3.219 3.437.07-3.5h0l-.07 3.5-3.08-3.561 3.011 7.06h0z"/><text x="158.5" y="-57.462" font-family="Lato" font-size="12">b</text></g><g class="node" transform="translate(4 188.062)"><path fill="#ffffa0" stroke="#000" d="M250-36.062h-12c-6 0-12 6-12 12v12c0 6 6 12 12 12h12c6 0 12-6 12-12v-12c0-6-6-12-12-12"/><text text-anchor="middle" x="244" y="-14.962" font-family="Lato" font-size="12">2</text></g><g class="edge" transform="translate(4 188.062)"><path fill="none" stroke="#000" d="M180.198-18.062h38.619"/><path stroke="#000" d="M225.852-18.062l-7-3.15 3.5 3.15h-3.5 3.5l-3.5 3.15 7-3.15h0z"/><text x="198" y="-21.462" font-family="Lato" font-size="12">!b</text></g><g class="edge" transform="translate(4 188.062)"><path fill="none" stroke="#000" d="M225.983-6.213C217.63-2.077 207.471 1.062 198-1.062c-3.794-.85-7.658-2.148-11.38-3.655"/><path stroke="#000" d="M180.124-7.605l5.117 5.722-1.92-4.3 3.2 1.421h0l-3.2-1.421L187.8-7.64l-7.675.035h0z"/><text x="199.5" y="-4.462" font-family="Lato" font-size="12">b</text></g><g class="edge" transform="translate(4 188.062)"><path fill="none" stroke="#000" d="M236.764-36.215C235.65-45.6 238.062-54.062 244-54.062c4.36 0 6.82 4.563 7.377 10.705"/><path stroke="#000" d="M251.236-36.215l3.288-6.936-3.219 3.437.07-3.5h0l-.07 3.5-3.08-3.561 3.011 7.06h0z"/><text x="239" y="-57.462" font-family="Lato" font-size="12">!b</text></g></g></svg>