<?xml-stylesheet href="spot.css" type="text/css"?><svg width="456" height="434pt" viewBox="0 0 342 434.04" xmlns="http://www.w3.org/2000/svg"><g class="graph" transform="translate(4 430.042)"><path fill="#fff" stroke="transparent" d="M-4 4v-434.042h342V4H-4z"/><text x="148" y="-399.442" font-family="Lato" font-size="12">[Büchi]</text><g class="node"><circle fill="#ffffa0" stroke="#000" cx="60" cy="-209.642" r="18"/><circle fill="none" stroke="#000" cx="60" cy="-209.642" r="22"/><text text-anchor="middle" x="60" y="-206.542" font-family="Lato" font-size="12">6</text></g><g class="edge"><path fill="none" stroke="#000" d="M1.168-209.642h29.47"/><path stroke="#000" d="M37.865-209.642l-7-3.15 3.5 3.15h-3.5 3.5l-3.5 3.15 7-3.15h0z"/></g><g class="edge"><path fill="none" stroke="#000" d="M52.683-230.632c-.903-10.097 1.536-19.01 7.317-19.01 4.336 0 6.792 5.014 7.368 11.78"/><path stroke="#000" d="M67.317-230.632l3.2-6.978-3.175 3.478.024-3.5h0l-.025 3.5-3.125-3.522 3.1 7.022h0z"/><text x="36" y="-253.042" font-family="Lato" font-size="12">a &amp; b &amp; c</text></g><g class="node"><circle fill="#ffffa0" stroke="#000" cx="312" cy="-337.642" r="18"/><circle fill="none" stroke="#000" cx="312" cy="-337.642" r="22"/><text text-anchor="middle" x="312" y="-334.542" font-family="Lato" font-size="12">0</text></g><g class="edge"><path fill="none" stroke="#000" d="M67.947-230.222c14.245-33.349 47.721-97.475 101.053-117.42 37.82-14.144 85.142-6.342 114.73 1.269"/><path stroke="#000" d="M290.853-344.456l-5.94-4.861 2.56 3.951-3.38-.91h0l3.38.91-4.198 2.132 7.578-1.222h0z"/><text x="169" y="-358.042" font-family="Lato" font-size="12">!a &amp; !b &amp; c</text></g><g class="node"><circle fill="#ffffa0" stroke="#000" cx="196" cy="-285.642" r="18"/><circle fill="none" stroke="#000" cx="196" cy="-285.642" r="22"/><text text-anchor="middle" x="196" y="-282.542" font-family="Lato" font-size="12">1</text></g><g class="edge"><path fill="none" stroke="#000" d="M75.243-226.198c7.041-6.968 15.815-14.76 24.757-20.444 21.322-13.552 48.142-23.972 68.01-30.618"/><path stroke="#000" d="M174.728-279.452l-7.632-.823 4.304 1.909-3.327 1.086h0l3.327-1.086-2.35 4.08 5.678-5.166h0z"/><text x="100" y="-274.042" font-family="Lato" font-size="12">!a &amp; b &amp; c</text></g><g class="node"><circle fill="#ffffa0" stroke="#000" cx="312" cy="-232.642" r="18"/><circle fill="none" stroke="#000" cx="312" cy="-232.642" r="22"/><text text-anchor="middle" x="312" y="-229.542" font-family="Lato" font-size="12">2</text></g><g class="edge"><path fill="none" stroke="#000" d="M81.922-211.643l200.894-18.335"/><path stroke="#000" d="M289.949-230.629l-7.258-2.5 3.772 2.818-3.485.318h0l3.485-.318-3.199 3.455 6.685-3.773h0z"/><text x="169" y="-227.042" font-family="Lato" font-size="12">!a &amp; b &amp; !c</text></g><g class="node"><circle fill="#ffffa0" stroke="#000" cx="312" cy="-50.642" r="18"/><circle fill="none" stroke="#000" cx="312" cy="-50.642" r="22"/><text text-anchor="middle" x="312" y="-47.542" font-family="Lato" font-size="12">3</text></g><g class="edge"><path fill="none" stroke="#000" d="M63.347-187.63C71.613-142.377 97.754-40.32 169-6.643c40.121 18.965 90.381-6.98 119.378-26.339"/><path stroke="#000" d="M294.231-36.993l-7.555 1.36 4.668.619-2.887 1.979h0l2.887-1.98-1.106 4.578 3.993-6.556h0z"/><text x="169" y="-10.042" font-family="Lato" font-size="12">a &amp; !b &amp; !c</text></g><g class="node"><circle fill="#ffffa0" stroke="#000" cx="196" cy="-143.642" r="18"/><circle fill="none" stroke="#000" cx="196" cy="-143.642" r="22"/><text text-anchor="middle" x="196" y="-140.542" font-family="Lato" font-size="12">4</text></g><g class="edge"><path fill="none" stroke="#000" d="M80.067-199.903l89.425 43.397"/><path stroke="#000" d="M175.85-153.42l-4.922-5.89 1.774 4.362-3.15-1.528h0l3.15 1.528-4.524 1.306 7.672.222h0z"/><text x="100" y="-193.042" font-family="Lato" font-size="12">a &amp; !b &amp; c</text></g><g class="node"><circle fill="#ffffa0" stroke="#000" cx="196" cy="-50.642" r="18"/><circle fill="none" stroke="#000" cx="196" cy="-50.642" r="22"/><text text-anchor="middle" x="196" y="-47.542" font-family="Lato" font-size="12">5</text></g><g class="edge"><path fill="none" stroke="#000" d="M71.416-190.644C79-178.524 89.465-162.696 100-149.642c23.602 29.246 54.354 59.849 74.614 79.148"/><path stroke="#000" d="M179.781-65.6l-2.916-7.1.375 4.694-2.541-2.407h0l2.541 2.406-4.707-.12 7.248 2.527h0z"/><text x="100" y="-153.042" font-family="Lato" font-size="12">a &amp; b &amp; !c</text></g><g class="edge"><path fill="none" stroke="#000" d="M302.293-357.4c-1.65-10.591 1.586-20.242 9.707-20.242 6.218 0 9.572 5.657 10.062 13.063"/><path stroke="#000" d="M321.707-357.4l3.492-6.835-3.319 3.34.173-3.496h0l-.173 3.496-2.973-3.651 2.8 7.147h0z"/><text x="308.5" y="-381.042" font-family="Lato" font-size="12">c</text></g><g class="edge"><path fill="none" stroke="#000" d="M213.684-299.15c8.02-5.665 17.82-11.972 27.316-16.492 13.37-6.364 29.02-11.443 42.22-15.11"/><path stroke="#000" d="M290.27-332.643l-7.577-1.23 4.196 2.136-3.38.907h0l3.38-.907-2.564 3.95 5.945-4.856h0z"/><text x="241" y="-330.042" font-family="Lato" font-size="12">!b &amp; c</text></g><g class="edge"><path fill="none" stroke="#000" d="M185.288-304.986c-2-10.753 1.571-20.656 10.712-20.656 6.998 0 10.732 5.805 11.2 13.352"/><path stroke="#000" d="M206.712-304.986l3.61-6.774-3.377 3.282.233-3.492h0l-.233 3.492-2.91-3.702 2.677 7.194h0z"/><text x="182" y="-329.042" font-family="Lato" font-size="12">b &amp; c</text></g><g class="edge"><path fill="none" stroke="#000" d="M218.17-288.236c15.843-.853 37.21.106 53.83 8.594 9.769 4.99 18.121 13.505 24.628 21.928"/><path stroke="#000" d="M300.833-251.941l-1.576-7.513-.485 4.684-2.06-2.83h0l2.06 2.83-4.607-.975 6.668 3.804h0z"/><text x="241" y="-291.042" font-family="Lato" font-size="12">b &amp; !c</text></g><g class="edge"><path fill="none" stroke="#000" d="M302.293-252.4c-1.65-10.591 1.586-20.242 9.707-20.242 6.218 0 9.572 5.657 10.062 13.063"/><path stroke="#000" d="M321.707-252.4l3.492-6.835-3.319 3.34.173-3.496h0l-.173 3.496-2.973-3.651 2.8 7.147h0z"/><text x="308.5" y="-276.042" font-family="Lato" font-size="12">b</text></g><g class="edge"><path fill="none" stroke="#000" d="M302.293-70.4c-1.65-10.591 1.586-20.242 9.707-20.242 6.218 0 9.572 5.657 10.062 13.063"/><path stroke="#000" d="M321.707-70.4l3.492-6.835-3.319 3.34.173-3.496h0l-.173 3.496-2.973-3.651 2.8 7.147h0z"/><text x="308.5" y="-94.042" font-family="Lato" font-size="12">a</text></g><g class="edge"><path fill="none" stroke="#000" d="M208.303-161.914c15.422-23.124 42.413-64.33 63.697-100.728 9.367-16.017 19.183-34.394 26.746-48.949"/><path stroke="#000" d="M302.053-317.986l-6.013 4.77 4.406-1.661-1.608 3.109h0l1.608-3.11 1.19 4.556.417-7.664h0z"/><text x="241.5" y="-266.042" font-family="Lato" font-size="12">!a &amp; c</text></g><g class="edge"><path fill="none" stroke="#000" d="M217.416-137.604c16.275 5.376 38.524 14.495 54.584 27.962 10.8 9.058 19.91 21.736 26.693 33.02"/><path stroke="#000" d="M302.218-70.53l-.779-7.636-.973 4.607-1.753-3.03h0l1.753 3.03-4.48-1.452 6.232 4.482h0z"/><text x="241.5" y="-132.042" font-family="Lato" font-size="12">a &amp; !c</text></g><g class="edge"><path fill="none" stroke="#000" d="M185.288-162.986c-2-10.753 1.571-20.656 10.712-20.656 6.998 0 10.732 5.805 11.2 13.352"/><path stroke="#000" d="M206.712-162.986l3.61-6.774-3.377 3.282.233-3.492h0l-.233 3.492-2.91-3.702 2.677 7.194h0z"/><text x="182.5" y="-187.042" font-family="Lato" font-size="12">a &amp; c</text></g><g class="edge"><path fill="none" stroke="#000" d="M217.058-57.18c17.19-6.389 40.862-17.767 54.942-35.462 13.629-17.127 27.124-75.151 34.429-110.901"/><path stroke="#000" d="M307.891-210.81l-4.469 6.24 3.779-2.81-.69 3.431h0l.69-3.43 2.397 4.052-1.707-7.484h0z"/><text x="241" y="-96.042" font-family="Lato" font-size="12">!a &amp; b</text></g><g class="edge"><path fill="none" stroke="#000" d="M218.092-50.642h64.8"/><path stroke="#000" d="M289.99-50.642l-7-3.15 3.5 3.15h-3.5 3.5l-3.5 3.15 7-3.15h0z"/><text x="241" y="-54.042" font-family="Lato" font-size="12">a &amp; !b</text></g><g class="edge"><path fill="none" stroke="#000" d="M185.288-69.986c-2-10.753 1.571-20.656 10.712-20.656 6.998 0 10.732 5.805 11.2 13.352"/><path stroke="#000" d="M206.712-69.986l3.61-6.774-3.377 3.282.233-3.492h0l-.233 3.492-2.91-3.702 2.677 7.194h0z"/><text x="182" y="-94.042" font-family="Lato" font-size="12">a &amp; b</text></g></g></svg>