<?xml-stylesheet href="spot.css" type="text/css"?><svg width="161pt" height="372" viewBox="0 0 161 279" xmlns="http://www.w3.org/2000/svg"><g class="graph" transform="translate(4 275)"><path fill="#fff" stroke="transparent" d="M-4 4v-279h161V4H-4z"/><text x="74" y="-257.4" font-family="Lato" font-size="12">t</text><text x="66.5" y="-244.4" font-family="Lato" font-size="12">[all]</text><g class="node"><circle fill="#ffffa0" stroke="#000" cx="56" cy="-103" r="18"/><text text-anchor="middle" x="56" y="-99.9" font-family="Lato" font-size="12">0</text></g><g class="edge"><path fill="none" stroke="#000" d="M1.123-103h29.801"/><path stroke="#000" d="M37.98-103l-7-3.15 3.5 3.15h-3.5 3.5l-3.5 3.15 7-3.15h0z"/></g><g class="node"><circle fill="#ffffa0" stroke="#000" cx="135" cy="-188" r="18"/><text text-anchor="middle" x="135" y="-184.9" font-family="Lato" font-size="12">1</text></g><g class="edge"><path fill="none" stroke="#000" d="M68.344-116.281l49.602-53.37"/><path stroke="#000" d="M122.743-174.812l-7.073 2.983 4.69-.42-2.383 2.564h0l2.383-2.563-.075 4.708 2.458-7.272h0z"/><text x="92" y="-151.4" font-family="Lato" font-size="12">a</text></g><g class="node"><circle fill="#ffffa0" stroke="#000" cx="135" cy="-103" r="18"/><text text-anchor="middle" x="135" y="-99.9" font-family="Lato" font-size="12">2</text></g><g class="edge"><path fill="none" stroke="#000" d="M74.323-103h35.227"/><path stroke="#000" d="M116.777-103l-7-3.15 3.5 3.15h-3.5 3.5l-3.5 3.15 7-3.15h0z"/><text x="92" y="-106.4" font-family="Lato" font-size="12">b</text></g><g class="node"><circle fill="#ffffa0" stroke="#000" cx="135" cy="-18" r="18"/><text text-anchor="middle" x="135" y="-14.9" font-family="Lato" font-size="12">3</text></g><g class="edge"><path fill="none" stroke="#000" d="M68.344-89.719l49.602 53.37"/><path stroke="#000" d="M122.743-31.188l-2.458-7.272.075 4.708-2.383-2.563h0l2.383 2.563-4.69-.419 7.073 2.983h0z"/><text x="92" y="-66.4" font-family="Lato" font-size="12">c</text></g><g class="edge"><path fill="none" stroke="#000" d="M128.266-205.037c-1.374-9.82.87-18.963 6.734-18.963 4.398 0 6.76 5.142 7.086 11.857"/><path stroke="#000" d="M141.734-205.037l3.492-6.836-3.32 3.34.174-3.496h0l-.173 3.496-2.973-3.652 2.8 7.148h0z"/><text x="131.5" y="-227.4" font-family="Lato" font-size="12">a</text></g><g class="edge"><path fill="none" stroke="#000" d="M128.266-120.037c-1.374-9.82.87-18.963 6.734-18.963 4.398 0 6.76 5.142 7.086 11.857"/><path stroke="#000" d="M141.734-120.037l3.492-6.836-3.32 3.34.174-3.496h0l-.173 3.496-2.973-3.652 2.8 7.148h0z"/><text x="131.5" y="-142.4" font-family="Lato" font-size="12">b</text></g><g class="edge"><path fill="none" stroke="#000" d="M128.266-35.037C126.892-44.857 129.136-54 135-54c4.398 0 6.76 5.142 7.086 11.857"/><path stroke="#000" d="M141.734-35.037l3.492-6.836-3.32 3.34.174-3.496h0l-.173 3.496-2.973-3.652 2.8 7.148h0z"/><text x="131.5" y="-57.4" font-family="Lato" font-size="12">c</text></g></g></svg>