<?xml-stylesheet href="spot.css" type="text/css"?><svg width="596" height="211pt" viewBox="0 0 447 211.4" xmlns="http://www.w3.org/2000/svg"><g class="graph" transform="translate(4 207.4)"><path fill="#fff" stroke="transparent" d="M-4 4v-211.4h447V4H-4z"/><text x="200.5" y="-176.8" font-family="Lato" font-size="12">[Büchi]</text><g class="node"><circle fill="#ffffa0" stroke="#000" cx="56" cy="-67" r="18"/><text text-anchor="middle" x="56" y="-63.9" font-family="Lato" font-size="12">0</text></g><g class="edge"><path fill="none" stroke="#000" d="M1.123-67h29.801"/><path stroke="#000" d="M37.98-67l-7-3.15 3.5 3.15h-3.5 3.5l-3.5 3.15 7-3.15h0z"/></g><g class="node"><circle fill="#ffffa0" stroke="#000" cx="249" cy="-84" r="18"/><text text-anchor="middle" x="249" y="-80.9" font-family="Lato" font-size="12">1</text></g><g class="edge"><path fill="none" stroke="#000" d="M73.09-73.11C85.178-77.096 101.86-81.93 117-84c36.942-5.052 80.246-3.682 106.903-2.013"/><path stroke="#000" d="M230.96-85.54l-6.773-3.61 3.282 3.377-3.493-.235h0l3.493.234-3.703 2.909 7.195-2.674h0z"/><text x="134" y="-90.4" font-family="Lato" font-size="12">!a</text></g><g class="node"><circle fill="#ffffa0" stroke="#000" cx="139" cy="-22" r="18"/><circle fill="none" stroke="#000" cx="139" cy="-22" r="22"/><text text-anchor="middle" x="139" y="-18.9" font-family="Lato" font-size="12">2</text></g><g class="edge"><path fill="none" stroke="#000" d="M72.003-58.324l41.165 22.319"/><path stroke="#000" d="M119.54-32.55l-4.652-6.106 1.575 4.437-3.077-1.668h0l3.077 1.668-4.578 1.101 7.655.568h0z"/><text x="92" y="-51.4" font-family="Lato" font-size="12">a</text></g><g class="node"><circle fill="#ffffa0" stroke="#000" cx="335" cy="-115" r="18"/><circle fill="none" stroke="#000" cx="335" cy="-115" r="22"/><text text-anchor="middle" x="335" y="-111.9" font-family="Lato" font-size="12">4</text></g><g class="edge"><path fill="none" stroke="#000" d="M265.99-90.125l41.246-14.867"/><path stroke="#000" d="M314.09-107.463l-7.653-.59 4.361 1.777-3.292 1.187h0l3.292-1.187-2.224 4.15 5.517-5.337h0z"/><text x="285" y="-103.4" font-family="Lato" font-size="12">!b</text></g><g class="node"><circle fill="#ffffa0" stroke="#000" cx="335" cy="-22" r="18"/><circle fill="none" stroke="#000" cx="335" cy="-22" r="22"/><text text-anchor="middle" x="335" y="-18.9" font-family="Lato" font-size="12">5</text></g><g class="edge"><path fill="none" stroke="#000" d="M263.98-73.2l47.152 33.993"/><path stroke="#000" d="M316.913-35.04l-3.837-6.649.998 4.602-2.84-2.046h0l2.84 2.046-4.682.509 7.52 1.538h0z"/><text x="286.5" y="-60.4" font-family="Lato" font-size="12">b</text></g><g class="edge"><path fill="none" stroke="#000" d="M158.413-32.942l68.42-38.563"/><path stroke="#000" d="M232.994-74.978l-7.645.693 4.596 1.025-3.05 1.719h0l3.05-1.719-1.502 4.463 4.551-6.181h0z"/><text x="179" y="-66.4" font-family="Lato" font-size="12">!a &amp; !b</text></g><g class="edge"><path fill="none" stroke="#000" d="M131.317-42.99C130.37-53.088 132.93-62 139-62c4.553 0 7.131 5.013 7.736 11.78"/><path stroke="#000" d="M146.683-42.99l3.201-6.977-3.175 3.476.025-3.5h0l-.025 3.5-3.124-3.523 3.098 7.023h0z"/><text x="123.5" y="-65.4" font-family="Lato" font-size="12">a &amp; !b</text></g><g class="edge"><path fill="none" stroke="#000" d="M161.103-22H305.97"/><path stroke="#000" d="M312.978-22l-7-3.15 3.5 3.15h-3.5 3.5l-3.5 3.15 7-3.15h0z"/><text x="245.5" y="-25.4" font-family="Lato" font-size="12">b</text></g><g class="edge"><path fill="none" stroke="#000" d="M326.994-135.58C325.886-145.846 328.554-155 335-155c4.834 0 7.544 5.15 8.129 12.055"/><path stroke="#000" d="M343.006-135.58l3.267-6.947-3.208 3.447.058-3.5h0l-.058 3.5-3.091-3.552 3.032 7.051h0z"/><text x="330" y="-158.4" font-family="Lato" font-size="12">!b</text></g><g class="node"><circle fill="#ffffa0" stroke="#000" cx="421" cy="-115" r="18"/><text text-anchor="middle" x="421" y="-111.9" font-family="Lato" font-size="12">3</text></g><g class="edge"><path fill="none" stroke="#000" d="M357.147-115h38.563"/><path stroke="#000" d="M402.98-115l-7-3.15 3.5 3.15h-3.5 3.5l-3.5 3.15 7-3.15h0z"/><text x="376.5" y="-118.4" font-family="Lato" font-size="12">b</text></g><g class="edge"><path fill="none" stroke="#000" d="M326.994-42.58C325.886-52.846 328.554-62 335-62c4.834 0 7.544 5.15 8.129 12.055"/><path stroke="#000" d="M343.006-42.58l3.267-6.947-3.208 3.447.058-3.5h0l-.058 3.5-3.091-3.552 3.032 7.051h0z"/><text text-anchor="middle" x="335" y="-65.4" font-family="Lato" font-size="12">1</text></g><g class="edge"><path fill="none" stroke="#000" d="M405.415-105.8c-6.144 3.127-13.4 6.227-20.415 7.8-8.082 1.812-16.687.228-24.44-2.58"/><path stroke="#000" d="M353.72-103.442l5.242 5.607-2.012-4.256 3.228 1.35h0l-3.228-1.35 4.444-1.555-7.673.204h0z"/><text x="375" y="-101.4" font-family="Lato" font-size="12">!b</text></g><g class="edge"><path fill="none" stroke="#000" d="M413.969-131.664C412.406-141.625 414.75-151 421-151c4.688 0 7.178 5.273 7.47 12.112"/><path stroke="#000" d="M428.031-131.664l3.57-6.796-3.357 3.302.212-3.493h0l-.212 3.493-2.932-3.685 2.72 7.179h0z"/><text x="417.5" y="-154.4" font-family="Lato" font-size="12">b</text></g></g></svg>