<?xml-stylesheet href="spot.css" type="text/css"?><svg width="349pt" height="332" viewBox="0 0 349 249" xmlns="http://www.w3.org/2000/svg"><g class="graph" transform="translate(4 245)"><path fill="#fff" stroke="transparent" d="M-4 4v-249h349V4H-4z"/><text x="152.5" y="-228.4" font-family="Lato" font-size="12">Inf(</text><text x="170.5" y="-228.4" font-family="Lato" font-size="12" fill="#1f78b4">⓿</text><text x="184.5" y="-228.4" font-family="Lato" font-size="12">)</text><text x="151.5" y="-216.4" font-family="Lato" font-size="12">[Büchi]</text><g class="node"><circle fill="#ffffa0" stroke="#000" cx="56" cy="-67" r="18"/><text text-anchor="middle" x="56" y="-63.9" font-family="Lato" font-size="12">0</text></g><g class="edge"><path fill="none" stroke="#000" d="M1.123-67h29.801"/><path stroke="#000" d="M37.98-67l-7-3.15 3.5 3.15h-3.5 3.5l-3.5 3.15 7-3.15h0z"/></g><g class="node"><circle fill="#ffffa0" stroke="#000" cx="241" cy="-84" r="18"/><text text-anchor="middle" x="241" y="-80.9" font-family="Lato" font-size="12">1</text></g><g class="edge"><path fill="none" stroke="#000" d="M72.403-74.675C84.446-79.87 101.363-86.266 117-89c33.997-5.943 74-2.491 99.18.926"/><path stroke="#000" d="M223.184-87.073l-6.484-4.11 3.019 3.615-3.465-.496h0l3.465.496-3.911 2.622 7.376-2.127h0z"/><text x="130" y="-95.4" font-family="Lato" font-size="12">!a</text></g><g class="node"><circle fill="#ffffa0" stroke="#000" cx="135" cy="-18" r="18"/><text text-anchor="middle" x="135" y="-14.9" font-family="Lato" font-size="12">3</text></g><g class="edge"><path fill="none" stroke="#000" d="M71.608-57.32l41.896 25.987"/><path stroke="#000" d="M119.693-27.494l-4.288-6.367 1.314 4.522-2.974-1.845h0l2.974 1.845-4.635.832 7.61 1.013h0z"/><text x="92" y="-46.4" font-family="Lato" font-size="12">a</text></g><g class="node"><circle fill="#ffffa0" stroke="#000" cx="323" cy="-116" r="18"/><text text-anchor="middle" x="323" y="-112.9" font-family="Lato" font-size="12">2</text></g><g class="edge"><path fill="none" stroke="#000" d="M257.99-90.63l41.43-16.168"/><path stroke="#000" d="M306.031-109.378l-7.666-.39 4.406 1.662-3.26 1.273h0l3.26-1.273-2.115 4.207 5.375-5.48h0z"/><text x="277" y="-104.4" font-family="Lato" font-size="12">!b</text></g><g class="node"><circle fill="#ffffa0" stroke="#000" cx="323" cy="-18" r="18"/><text text-anchor="middle" x="323" y="-14.9" font-family="Lato" font-size="12">4</text></g><g class="edge"><path fill="none" stroke="#000" d="M255.283-72.504l48.002 38.636"/><path stroke="#000" d="M308.88-29.365l-3.478-6.843.752 4.649-2.727-2.195h0l2.727 2.195-4.702.26 7.428 1.934h0z"/><text x="278.5" y="-57.4" font-family="Lato" font-size="12">b</text></g><g class="edge"><path fill="none" stroke="#000" d="M150.64-27.738l69.003-42.965"/><path stroke="#000" d="M225.64-74.436l-7.607 1.026 4.636.824-2.972 1.85h0l2.972-1.85-1.306 4.524 4.277-6.374h0z"/><text x="171" y="-63.4" font-family="Lato" font-size="12">!a &amp; !b</text></g><g class="edge"><path fill="none" stroke="#000" d="M128.266-35.037C126.892-44.857 129.136-54 135-54c4.398 0 6.76 5.142 7.086 11.857"/><path stroke="#000" d="M141.734-35.037l3.492-6.836-3.32 3.34.174-3.496h0l-.173 3.496-2.973-3.652 2.8 7.148h0z"/><text x="119.5" y="-70.4" font-family="Lato" font-size="12">a &amp; !b</text><text x="128" y="-57.4" font-family="Lato" font-size="12" fill="#1f78b4">⓿</text></g><g class="edge"><path fill="none" stroke="#000" d="M153.026-18h144.48"/><path stroke="#000" d="M304.752-18l-7-3.15 3.5 3.15h-3.5 3.5l-3.5 3.15 7-3.15h0z"/><text x="237.5" y="-21.4" font-family="Lato" font-size="12">b</text></g><g class="edge"><path fill="none" stroke="#000" d="M319.405-133.782c-.611-9.533.587-18.218 3.595-18.218 2.209 0 3.442 4.684 3.7 10.948"/><path stroke="#000" d="M326.595-133.782l3.25-6.954-3.2 3.455.05-3.5h0l-.05 3.5-3.1-3.545 3.05 7.044h0z"/><text x="318" y="-168.4" font-family="Lato" font-size="12">!b</text><text x="316" y="-155.4" font-family="Lato" font-size="12" fill="#1f78b4">⓿</text></g><g class="edge"><path fill="none" stroke="#000" d="M317.375-133.281C313.625-153.25 315.5-178 323-178c6.621 0 8.858 19.29 6.712 37.549"/><path stroke="#000" d="M328.625-133.281l4.163-6.45-3.639 2.99.525-3.461h0l-.524 3.46-2.59-3.932 2.065 7.393h0z"/><text x="319.5" y="-181.4" font-family="Lato" font-size="12">b</text></g><g class="edge"><path fill="none" stroke="#000" d="M315.969-34.664C314.406-44.625 316.75-54 323-54c4.688 0 7.178 5.273 7.47 12.112"/><path stroke="#000" d="M330.031-34.664l3.57-6.796-3.357 3.302.212-3.493h0l-.212 3.493-2.932-3.684 2.72 7.178h0z"/><text x="319.5" y="-70.4" font-family="Lato" font-size="12">1</text><text x="316" y="-57.4" font-family="Lato" font-size="12" fill="#1f78b4">⓿</text></g></g></svg>