<?xml-stylesheet href="spot.css" type="text/css"?><svg width="572" height="257pt" viewBox="0 0 429 257.4" xmlns="http://www.w3.org/2000/svg"><g class="graph"><path fill="#fff" stroke="transparent" d="M0 257.405V0h429v257.405H0z"/><text x="116" y="-236.805" font-family="Lato" font-size="12" transform="translate(4 253.405)">(Fin(</text><text x="139" y="-236.805" font-family="Lato" font-size="12" fill="#1f78b4" transform="translate(4 253.405)">⓿</text><text x="153" y="-236.805" font-family="Lato" font-size="12" transform="translate(4 253.405)">) | Inf(</text><text x="183" y="-236.805" font-family="Lato" font-size="12" fill="#ff4da0" transform="translate(4 253.405)">❶</text><text x="197" y="-236.805" font-family="Lato" font-size="12" transform="translate(4 253.405)">)) &amp; (Fin(</text><text x="240" y="-236.805" font-family="Lato" font-size="12" fill="#ff7f00" transform="translate(4 253.405)">❷</text><text x="254" y="-236.805" font-family="Lato" font-size="12" transform="translate(4 253.405)">) | Inf(</text><text x="284" y="-236.805" font-family="Lato" font-size="12" fill="#6a3d9a" transform="translate(4 253.405)">❸</text><text x="298" y="-236.805" font-family="Lato" font-size="12" transform="translate(4 253.405)">))</text><text x="183.5" y="-224.805" font-family="Lato" font-size="12" transform="translate(4 253.405)">[Streett 2]</text><g class="node" transform="translate(4 253.405)"><path fill="#ffffa0" stroke="#000" d="M70-61.405H50c-6 0-12 6-12 12v12c0 6 6 12 12 12h20c6 0 12-6 12-12v-12c0-6-6-12-12-12"/><text x="56.5" y="-46.805" font-family="Lato" font-size="12">0</text><text x="46" y="-34.805" font-family="Lato" font-size="12" fill="#ff4da0">❶</text><text x="60" y="-34.805" font-family="Lato" font-size="12" fill="#6a3d9a">❸</text></g><g class="edge" transform="translate(4 253.405)"><path fill="none" stroke="#000" d="M1.168-43.405h29.47"/><path stroke="#000" d="M37.865-43.405l-7-3.15 3.5 3.15h-3.5 3.5l-3.5 3.15 7-3.15h0z"/></g><g class="edge" transform="translate(4 253.405)"><path fill="none" stroke="#000" d="M52.764-61.558C51.65-70.944 54.062-79.405 60-79.405c4.36 0 6.82 4.563 7.377 10.705"/><path stroke="#000" d="M67.236-61.558l3.288-6.936-3.219 3.437.07-3.5h0l-.07 3.5-3.08-3.561 3.011 7.06h0z"/><text x="46" y="-82.805" font-family="Lato" font-size="12">a &amp; b</text></g><g class="node" transform="translate(4 253.405)"><path fill="#ffffa0" stroke="#000" d="M181-155.405h-20c-6 0-12 6-12 12v12c0 6 6 12 12 12h20c6 0 12-6 12-12v-12c0-6-6-12-12-12"/><text x="167.5" y="-140.805" font-family="Lato" font-size="12">1</text><text x="157" y="-128.805" font-family="Lato" font-size="12" fill="#1f78b4">⓿</text><text x="171" y="-128.805" font-family="Lato" font-size="12" fill="#6a3d9a">❸</text></g><g class="edge" transform="translate(4 253.405)"><path fill="none" stroke="#000" d="M65.731-61.658c6.03-16.327 17.064-39.774 34.269-53.747 11.857-9.63 27.928-15.057 41.782-18.11"/><path stroke="#000" d="M148.79-134.905l-7.479-1.728 4.046 2.409-3.433.68h0l3.433-.68-2.82 3.77 6.253-4.451h0z"/><text x="100" y="-133.805" font-family="Lato" font-size="12">!a &amp; b</text></g><g class="node" transform="translate(4 253.405)"><path fill="#ffffa0" stroke="#000" d="M409-92.405h-20c-6 0-12 6-12 12v12c0 6 6 12 12 12h20c6 0 12-6 12-12v-12c0-6-6-12-12-12"/><text x="395.5" y="-77.805" font-family="Lato" font-size="12">2</text><text x="385" y="-65.805" font-family="Lato" font-size="12" fill="#ff4da0">❶</text><text x="399" y="-65.805" font-family="Lato" font-size="12" fill="#ff7f00">❷</text></g><g class="edge" transform="translate(4 253.405)"><path fill="none" stroke="#000" d="M82.152-35.034c5.736 1.841 11.957 3.56 17.848 4.63 63.445 11.52 80.893 11.946 145 5 51.569-5.589 65.794-5.85 114-25 3.857-1.533 7.773-3.414 11.57-5.442"/><path stroke="#000" d="M376.815-59.363l-7.645.69 4.595 1.027-3.05 1.718h0l3.05-1.718-1.504 4.462 4.554-6.179h0z"/><text x="212.5" y="-28.805" font-family="Lato" font-size="12">a &amp; !b</text></g><g class="node" transform="translate(4 253.405)"><path fill="#ffffa0" stroke="#000" d="M295-92.405h-20c-6 0-12 6-12 12v12c0 6 6 12 12 12h20c6 0 12-6 12-12v-12c0-6-6-12-12-12"/><text x="281.5" y="-77.805" font-family="Lato" font-size="12">3</text><text x="271" y="-65.805" font-family="Lato" font-size="12" fill="#1f78b4">⓿</text><text x="285" y="-65.805" font-family="Lato" font-size="12" fill="#ff7f00">❷</text></g><g class="edge" transform="translate(4 253.405)"><path fill="none" stroke="#000" d="M82.396-46.49l173.357-23.885"/><path stroke="#000" d="M262.694-71.332l-7.364-2.165 3.897 2.643-3.467.478h0l3.467-.478-3.037 3.598 6.504-4.076h0z"/><text x="154" y="-64.805" font-family="Lato" font-size="12">!a &amp; !b</text></g><g class="edge" transform="translate(4 253.405)"><path fill="none" stroke="#000" d="M153.86-119.037c-6.805 6.84-14.9 14.437-22.86 20.632-12.753 9.924-18.051 9.332-31 19-5.278 3.94-10.682 8.441-15.744 12.894"/><path stroke="#000" d="M78.922-61.726l7.314-2.329-4.709-.008 2.606-2.337h0l-2.606 2.337.502-4.682-3.107 7.019h0z"/><text x="101.5" y="-101.805" font-family="Lato" font-size="12">a &amp; b</text></g><g class="edge" transform="translate(4 253.405)"><path fill="none" stroke="#000" d="M161.231-155.558c-1.503-9.386 1.753-17.847 9.769-17.847 5.887 0 9.206 4.563 9.96 10.705"/><path stroke="#000" d="M180.769-155.558l3.335-6.913-3.242 3.415.094-3.5h0l-.094 3.5-3.055-3.583 2.962 7.081h0z"/><text x="155.5" y="-176.805" font-family="Lato" font-size="12">!a &amp; b</text></g><g class="edge" transform="translate(4 253.405)"><path fill="none" stroke="#000" d="M183.243-155.637c7.003-8.825 16.61-18.605 27.757-23.768 59.688-27.642 94.936-38.87 148 0 13.218 9.683 26.313 51.871 33.754 79.735"/><path stroke="#000" d="M394.61-92.576l1.276-7.57-2.162 4.183-.886-3.386h0l.886 3.386-3.933-2.588 4.819 5.975h0z"/><text x="269.5" y="-207.805" font-family="Lato" font-size="12">a &amp; !b</text></g><g class="edge" transform="translate(4 253.405)"><path fill="none" stroke="#000" d="M193.25-133.855c15.357 3.16 35.803 8.818 51.75 18.45 7.714 4.66 14.98 11.158 21.147 17.61"/><path stroke="#000" d="M271.055-92.428l-2.4-7.292.038 4.709-2.362-2.583h0l2.362 2.583-4.687-.457 7.049 3.04h0z"/><text x="211" y="-131.805" font-family="Lato" font-size="12">!a &amp; !b</text></g><g class="edge" transform="translate(4 253.405)"><path fill="none" stroke="#000" d="M385.16-56.204c-7.02 8.074-16.169 17.033-26.16 22.8-45.28 26.131-62.125 22.504-114 29-64.333 8.054-83.715 5.162-145-16-3.88-1.34-7.81-3.066-11.615-4.969"/><path stroke="#000" d="M82.133-28.705l4.696 6.072-1.607-4.426 3.089 1.646h0l-3.09-1.646 4.571-1.133-7.659-.513h0z"/><text x="214" y="-7.805" font-family="Lato" font-size="12">a &amp; b</text></g><g class="edge" transform="translate(4 253.405)"><path fill="none" stroke="#000" d="M376.793-91.6c-17.91-13.052-44.24-30.462-69.793-40.805-26.098-10.563-33.995-10.095-62-13-15.03-1.559-18.962-1.489-34 0-3.431.34-7.004.84-10.54 1.427"/><path stroke="#000" d="M193.308-142.675l7.451 1.844-4.008-2.472 3.444-.627h0l-3.444.627 2.879-3.726-6.322 4.354h0z"/><text x="269.5" y="-146.805" font-family="Lato" font-size="12">!a &amp; b</text></g><g class="edge" transform="translate(4 253.405)"><path fill="none" stroke="#000" d="M388.87-92.558c-1.56-9.386 1.817-17.847 10.13-17.847 6.104 0 9.547 4.563 10.328 10.705"/><path stroke="#000" d="M409.13-92.558l3.343-6.91-3.245 3.412.096-3.499h0l-.096 3.499-3.053-3.586 2.956 7.084h0z"/><text x="383.5" y="-113.805" font-family="Lato" font-size="12">a &amp; !b</text></g><g class="edge" transform="translate(4 253.405)"><path fill="none" stroke="#000" d="M376.805-74.405H314.41"/><path stroke="#000" d="M307.251-74.405l7 3.15-3.5-3.15h3.5-3.5l3.5-3.15-7 3.15h0z"/><text x="325" y="-77.805" font-family="Lato" font-size="12">!a &amp; !b</text></g><g class="edge" transform="translate(4 253.405)"><path fill="none" stroke="#000" d="M262.642-62.926c-18.21 8.67-44.867 19.846-69.642 24.521-35.075 6.618-76.248 3.429-103.388-.142"/><path stroke="#000" d="M82.346-39.556l6.5 4.083-3.033-3.602 3.466.482h0l-3.466-.482 3.9-2.638-7.367 2.157h0z"/><text x="157" y="-41.805" font-family="Lato" font-size="12">a &amp; b</text></g><g class="edge" transform="translate(4 253.405)"><path fill="none" stroke="#000" d="M262.829-78.781C247.506-82.46 227.07-88.701 211-98.405c-6.993-4.222-13.714-9.887-19.585-15.588"/><path stroke="#000" d="M186.279-119.2l2.674 7.196-.216-4.704 2.458 2.492h0l-2.458-2.492 4.7.28-7.158-2.771h0z"/><text x="212.5" y="-101.805" font-family="Lato" font-size="12">!a &amp; b</text></g><g class="edge" transform="translate(4 253.405)"><path fill="none" stroke="#000" d="M307.335-63.056c5.626 2.334 11.75 4.446 17.665 5.651 14.807 3.016 19.193 3.016 34 0 3.604-.734 7.287-1.805 10.886-3.058"/><path stroke="#000" d="M376.665-63.056L369-63.497l4.395 1.691-3.27 1.251h0l3.27-1.25-2.144 4.192 5.413-5.443h0z"/><text x="326.5" y="-60.805" font-family="Lato" font-size="12">a &amp; !b</text></g><g class="edge" transform="translate(4 253.405)"><path fill="none" stroke="#000" d="M274.87-92.558c-1.56-9.386 1.817-17.847 10.13-17.847 6.104 0 9.547 4.563 10.328 10.705"/><path stroke="#000" d="M295.13-92.558l3.343-6.91-3.245 3.412.096-3.499h0l-.096 3.499-3.053-3.586 2.956 7.084h0z"/><text x="268" y="-113.805" font-family="Lato" font-size="12">!a &amp; !b</text></g></g></svg>