<?xml-stylesheet href="spot.css" type="text/css"?><svg width="820" height="560" viewBox="0 0 615 419.51" xmlns="http://www.w3.org/2000/svg"><g class="graph" transform="translate(4 415.512)"><path fill="#fff" stroke="transparent" d="M-4 4v-419.512h615V4H-4z"/><g class="node"><ellipse fill="#ffffa0" stroke="#000" cx="118" cy="-312.512" rx="27" ry="18"/><text text-anchor="middle" x="118" y="-309.411" font-family="Lato" font-size="12">init</text></g><g class="edge"><path fill="none" stroke="#000" d="M54.303-312.512h29.196"/><path stroke="#000" d="M90.716-312.512l-7-3.15 3.5 3.15h-3.5 3.5l-3.5 3.15 7-3.15h0z"/></g><g class="node"><path fill="#ffffa0" stroke="#000" d="M263-180.512h-54v36h54v-36z"/><text text-anchor="middle" x="236" y="-159.411" font-family="Lato" font-size="12">1</text></g><g class="edge"><path fill="none" stroke="#000" d="M128.335-295.85c8.77 13.816 21.924 33.8 34.665 50.339 16.099 20.897 35.956 43.283 50.894 59.534"/><path stroke="#000" d="M218.76-180.712l-2.438-7.28.062 4.71-2.375-2.571h0l2.375 2.57-4.689-.433 7.064 3.004h0z"/><text text-anchor="middle" x="177" y="-261.911" font-family="Lato" font-size="12">a &amp; b</text><text text-anchor="middle" x="177" y="-248.911" font-family="Lato" font-size="12">{}</text></g><g class="node"><ellipse fill="#ffffa0" stroke="#000" cx="360" cy="-244.512" rx="27" ry="18"/><text text-anchor="middle" x="360" y="-241.411" font-family="Lato" font-size="12">2</text></g><g class="edge"><path fill="none" stroke="#000" d="M144.351-308.308c38.3 6.543 111.258 20.65 170.649 41.796 5.77 2.055 11.772 4.645 17.441 7.319"/><path stroke="#000" d="M338.91-256.041l-4.913-5.898 1.766 4.365-3.146-1.534h0l3.146 1.534-4.526 1.298 7.672.235h0z"/><text text-anchor="middle" x="236" y="-311.911" font-family="Lato" font-size="12">!a &amp; b</text><text text-anchor="middle" x="236" y="-298.911" font-family="Lato" font-size="12">{}</text></g><g class="node"><ellipse fill="#ffffa0" stroke="#000" cx="580" cy="-211.512" rx="27" ry="18"/><text text-anchor="middle" x="580" y="-208.411" font-family="Lato" font-size="12">4</text></g><g class="edge"><path fill="none" stroke="#000" d="M131.901-328.351c20.469-21.47 60.979-57.16 104.099-57.16h239c68.797 0 93.708 100.947 101.674 149.062"/><path stroke="#000" d="M577.77-229.477l2.024-7.405-2.567 3.947-.544-3.457h0l.544 3.457-3.656-2.968 4.2 6.426h0z"/><text text-anchor="middle" x="360" y="-401.911" font-family="Lato" font-size="12">a &amp; !b</text><text text-anchor="middle" x="360" y="-388.911" font-family="Lato" font-size="12">{}</text></g><g class="node"><ellipse fill="#ffffa0" stroke="#000" cx="475" cy="-195.512" rx="27" ry="18"/><text text-anchor="middle" x="475" y="-192.411" font-family="Lato" font-size="12">3</text></g><g class="edge"><path fill="none" stroke="#000" d="M143.341-318.918c29.096-6.402 78.155-14.274 119.659-6.594 78.159 14.464 104.656 14.692 167 64 7.826 6.19 21.072 26.275 31.173 42.678"/><path stroke="#000" d="M465.008-212.538l-.951-7.617-.87 4.628-1.82-2.989h0l1.82 2.99-4.51-1.35 6.331 4.338h0z"/><text text-anchor="middle" x="298" y="-337.911" font-family="Lato" font-size="12">!a &amp; !b</text><text text-anchor="middle" x="298" y="-324.911" font-family="Lato" font-size="12">{}</text></g><g class="edge"><path fill="none" stroke="#000" d="M263.028-171.008c15.96-5.758 36.084-14.351 51.972-25.504 10.375-7.282 20.21-17.27 28.025-26.25"/><path stroke="#000" d="M347.617-228.19l-6.926 3.31 4.665-.637-2.26 2.672h0l2.26-2.672.145 4.706 2.116-7.379h0z"/><text text-anchor="middle" x="298" y="-212.911" font-family="Lato" font-size="12">{a}</text><text text-anchor="middle" x="298" y="-199.911" font-family="Lato" font-size="12">{0,1}</text></g><g class="edge"><path fill="none" stroke="#000" d="M237.572-144.347c3.293 26.66 13.323 76.207 43.428 103.836 50.044 45.926 81.906 44.592 149 34 48.452-7.65 71.296 1.64 105-34 19.848-20.989 34.834-103.536 41.38-145.787"/><path stroke="#000" d="M577.466-193.451l-4.166 6.447 3.64-2.987-.526 3.46h0l.526-3.46 2.589 3.934-2.063-7.394h0z"/><text text-anchor="middle" x="417.5" y="-22.912" font-family="Lato" font-size="12">{b}</text><text text-anchor="middle" x="417.5" y="-9.912" font-family="Lato" font-size="12">{0,1}</text></g><g class="edge"><path fill="none" stroke="#000" d="M261.25-144.36C291.348-125.056 343.09-99.25 387-114.511c30.704-10.673 56.764-38.582 72.377-58.657"/><path stroke="#000" d="M463.69-178.86l-6.738 3.678 4.624-.888-2.113 2.79h0l2.113-2.79.397 4.692 1.717-7.481h0z"/><text text-anchor="middle" x="360" y="-130.911" font-family="Lato" font-size="12">{a, b}</text><text text-anchor="middle" x="360" y="-117.912" font-family="Lato" font-size="12">{0,1}</text></g><g class="edge"><path fill="none" stroke="#000" d="M333.272-241.49c-16.237 2.858-36.756 8.376-52.272 18.978-13.274 9.071-24.212 23.35-31.98 35.703"/><path stroke="#000" d="M245.252-180.562l6.313-4.367-4.505 1.37 1.808-2.997h0l-1.808 2.997-.89-4.624-.918 7.62h0z"/><text text-anchor="middle" x="298" y="-252.911" font-family="Lato" font-size="12">{a}</text><text text-anchor="middle" x="298" y="-239.911" font-family="Lato" font-size="12">{1}</text></g><g class="edge"><path fill="none" stroke="#000" d="M382.436-254.804c7.068-2.744 15.006-5.327 22.564-6.708 10.93-1.995 13.983-1.443 25 0 47.888 6.276 59.759 11.092 105 28 5.738 2.145 11.725 4.775 17.39 7.46"/><path stroke="#000" d="M558.857-222.899l-4.912-5.898 1.766 4.365-3.146-1.534h0l3.146 1.534-4.526 1.298 7.672.235h0z"/><text text-anchor="middle" x="475" y="-274.911" font-family="Lato" font-size="12">{a, b}</text><text text-anchor="middle" x="475" y="-261.911" font-family="Lato" font-size="12">{1}</text></g><g class="edge"><path fill="none" stroke="#000" d="M385.478-238.07c13.513 3.804 30.23 9.134 44.522 15.558 6.606 2.97 13.45 6.7 19.745 10.43"/><path stroke="#000" d="M455.829-208.38l-4.342-6.33 1.352 4.51-2.99-1.819h0l2.99 1.82-4.628.871 7.618.949h0z"/><text text-anchor="middle" x="417.5" y="-247.911" font-family="Lato" font-size="12">{b}</text><text text-anchor="middle" x="417.5" y="-234.911" font-family="Lato" font-size="12">{1}</text></g><g class="edge"><path fill="none" stroke="#000" d="M568.704-194.825c-8.403 11.629-20.636 27.019-33.704 38.313-41.174 35.588-52.553 48.473-105 63-64.392 17.836-90.17 11.677-149-20-11.117-5.985-20.945-15.793-28.557-25.068"/><path stroke="#000" d="M247.997-144.247l1.842 7.452.318-4.698 2.16 2.754h0l-2.16-2.754 4.64.81-6.8-3.564h0z"/><text text-anchor="middle" x="417.5" y="-109.912" font-family="Lato" font-size="12">{b}</text><text text-anchor="middle" x="417.5" y="-96.912" font-family="Lato" font-size="12">{0}</text></g><g class="edge"><path fill="none" stroke="#000" d="M569.17-228.25c-13.246-18.755-37.596-48.123-67.17-60.262-40.24-16.515-57.804-5.857-97 13-7.33 3.527-14.8 8.17-21.491 12.784"/><path stroke="#000" d="M377.608-258.53l7.53-1.491-4.678-.538 2.852-2.029h0l-2.852 2.029 1.026-4.596-3.878 6.625h0z"/><text text-anchor="middle" x="475" y="-312.911" font-family="Lato" font-size="12">{a, b}</text><text text-anchor="middle" x="475" y="-299.911" font-family="Lato" font-size="12">{0}</text></g><g class="edge"><path fill="none" stroke="#000" d="M569.693-194.792c-7.937 11.164-20.019 24.923-34.693 31.28-13.964 6.05-29.078-2.106-40.644-11.696"/><path stroke="#000" d="M488.984-179.975l3.145 7.002-.527-4.68 2.618 2.324h0l-2.618-2.323 4.709-.033-7.327-2.29h0z"/><text text-anchor="middle" x="527.5" y="-179.911" font-family="Lato" font-size="12">{a}</text><text text-anchor="middle" x="527.5" y="-166.911" font-family="Lato" font-size="12">{0}</text></g><g class="edge"><path fill="none" stroke="#000" d="M450.436-187.557c-6.58 1.894-13.73 3.742-20.436 5.045-55.153 10.72-120.316 15.947-159.34 18.297"/><path stroke="#000" d="M263.215-163.783l7.17 2.739-3.676-2.942 3.494-.203h0l-3.494.203 3.311-3.348-6.805 3.551h0z"/><text text-anchor="middle" x="360" y="-190.911" font-family="Lato" font-size="12">{a, b}</text><text text-anchor="middle" x="360" y="-177.911" font-family="Lato" font-size="12">{}</text></g><g class="edge"><path fill="none" stroke="#000" d="M449.633-188.993c-13.79 2.235-30.804 2.802-44.633-3.519-13.193-6.03-24-18.05-31.713-29.014"/><path stroke="#000" d="M369.325-227.465l1.265 7.571.677-4.66 1.943 2.912h0l-1.943-2.912 4.563 1.163-6.505-4.074h0z"/><text text-anchor="middle" x="417.5" y="-208.911" font-family="Lato" font-size="12">{b}</text><text text-anchor="middle" x="417.5" y="-195.911" font-family="Lato" font-size="12">{}</text></g><g class="edge"><path fill="none" stroke="#000" d="M501.496-199.549l45.073-6.868"/><path stroke="#000" d="M553.513-207.475l-7.395-2.06 3.934 2.587-3.46.527h0l3.46-.527-2.985 3.641 6.446-4.168h0z"/><text text-anchor="middle" x="527.5" y="-219.911" font-family="Lato" font-size="12">{a}</text><text text-anchor="middle" x="527.5" y="-206.911" font-family="Lato" font-size="12">{}</text></g></g></svg>