<?xml-stylesheet href="spot.css" type="text/css"?><svg width="103pt" height="316" viewBox="0 0 103 237" xmlns="http://www.w3.org/2000/svg"><g class="graph"><path fill="#fff" stroke="transparent" d="M0 237V0h103v237H0z"/><text x="8" y="-216.4" font-family="Lato" font-size="12" transform="translate(4 233)">Inf(</text><text x="26" y="-216.4" font-family="Lato" font-size="12" fill="#1f78b4" transform="translate(4 233)">⓿</text><text x="40" y="-216.4" font-family="Lato" font-size="12" transform="translate(4 233)">)&amp;Inf(</text><text x="69" y="-216.4" font-family="Lato" font-size="12" fill="#ff4da0" transform="translate(4 233)">❶</text><text x="83" y="-216.4" font-family="Lato" font-size="12" transform="translate(4 233)">)</text><text x="11" y="-204.4" font-family="Lato" font-size="12" transform="translate(4 233)">[gen. Büchi 2]</text><g class="node" transform="translate(4 233)"><circle fill="#ffffa0" stroke="#000" cx="66.5" cy="-18" r="18"/><text text-anchor="middle" x="66.5" y="-14.9" font-family="Lato" font-size="12">0</text></g><g class="edge" transform="translate(4 233)"><path fill="none" stroke="#000" d="M11.623-18h29.801"/><path stroke="#000" d="M48.48-18l-7-3.15 3.5 3.15h-3.5 3.5l-3.5 3.15 7-3.15h0z"/></g><g class="edge" transform="translate(4 233)"><path fill="none" stroke="#000" d="M64.872-36.153C64.622-45.539 65.164-54 66.5-54c.981 0 1.534 4.563 1.66 10.705"/><path stroke="#000" d="M68.128-36.153l3.181-6.986-3.165 3.486.015-3.5h0l-.015 3.5-3.135-3.514 3.12 7.014h0z"/><text x="49.5" y="-57.4" font-family="Lato" font-size="12">!a &amp; !b</text></g><g class="edge" transform="translate(4 233)"><path fill="none" stroke="#000" d="M63.794-35.978C62.346-53.2 63.248-72 66.5-72c2.795 0 3.854 13.885 3.177 28.72"/><path stroke="#000" d="M69.206-35.978l3.594-6.783-3.369 3.29.226-3.493h0l-.226 3.493-2.918-3.696 2.693 7.189h0z"/><text x="51" y="-88.4" font-family="Lato" font-size="12">!a &amp; b</text><text x="59.5" y="-75.4" font-family="Lato" font-size="12" fill="#ff4da0">❶</text></g><g class="edge" transform="translate(4 233)"><path fill="none" stroke="#000" d="M63.222-35.848C60.028-62.44 61.122-98 66.5-98c4.917 0 6.252 29.711 4.006 55.126"/><path stroke="#000" d="M69.778-35.848l3.855-6.638-3.494 3.156.36-3.481h0l-.36 3.481-2.772-3.806 2.41 7.288h0z"/><text x="51" y="-114.4" font-family="Lato" font-size="12">a &amp; !b</text><text x="59.5" y="-101.4" font-family="Lato" font-size="12" fill="#1f78b4">⓿</text></g><g class="edge" transform="translate(4 233)"><path fill="none" stroke="#000" d="M62.797-35.941C57.742-70.891 58.977-124 66.5-124c7.024 0 8.566 46.289 4.627 80.876"/><path stroke="#000" d="M70.203-35.941l4.017-6.541-3.57 3.07.446-3.472h0l-.447 3.471-2.677-3.873 2.23 7.345h0z"/><text x="52.5" y="-139.4" font-family="Lato" font-size="12">a &amp; b</text><text x="52.5" y="-127.4" font-family="Lato" font-size="12" fill="#1f78b4">⓿</text><text x="66.5" y="-127.4" font-family="Lato" font-size="12" fill="#ff4da0">❶</text></g></g></svg>