<?xml-stylesheet href="spot.css" type="text/css"?><svg width="820" height="560" viewBox="0 0 615 419.51" xmlns="http://www.w3.org/2000/svg"><g class="graph" transform="translate(4 415.512)"><path fill="#fff" stroke="transparent" d="M-4 4v-419.512h615V4H-4z"/><g class="node"><ellipse fill="#ffffa0" stroke="#000" cx="118" cy="-312.512" rx="27" ry="18"/><text text-anchor="middle" x="118" y="-309.411" font-family="Lato" font-size="12">init</text></g><g class="edge"><path fill="none" stroke="#000" d="M54.303-312.512h29.196"/><path stroke="#000" d="M90.716-312.512l-7-3.15 3.5 3.15h-3.5 3.5l-3.5 3.15 7-3.15h0z"/></g><g class="node"><ellipse fill="#ffffa0" stroke="#000" cx="236" cy="-162.512" rx="27" ry="18"/><text text-anchor="middle" x="236" y="-159.411" font-family="Lato" font-size="12">1</text></g><g class="edge"><path fill="none" stroke="#000" d="M128.335-295.85c8.77 13.816 21.924 33.8 34.665 50.339 17.045 22.126 38.305 45.922 53.478 62.336"/><path stroke="#000" d="M221.375-177.904l-2.457-7.272.075 4.708-2.383-2.564h0l2.382 2.564-4.69-.42 7.073 2.984h0z"/><text text-anchor="middle" x="177" y="-261.911" font-family="Lato" font-size="12">a &amp; b</text><text text-anchor="middle" x="177" y="-248.911" font-family="Lato" font-size="12">{}</text></g><g class="node"><ellipse fill="#ffffa0" stroke="#000" cx="360" cy="-244.512" rx="27" ry="18"/><text text-anchor="middle" x="360" y="-241.411" font-family="Lato" font-size="12">3</text></g><g class="edge"><path fill="none" stroke="#000" d="M144.351-308.308c38.3 6.543 111.258 20.65 170.649 41.796 5.77 2.055 11.772 4.645 17.441 7.319"/><path stroke="#000" d="M338.91-256.041l-4.913-5.898 1.766 4.365-3.146-1.534h0l3.146 1.534-4.526 1.298 7.672.235h0z"/><text text-anchor="middle" x="236" y="-311.911" font-family="Lato" font-size="12">!a &amp; b</text><text text-anchor="middle" x="236" y="-298.911" font-family="Lato" font-size="12">{}</text></g><g class="node"><ellipse fill="#ffffa0" stroke="#000" cx="580" cy="-211.512" rx="27" ry="18"/><text text-anchor="middle" x="580" y="-208.411" font-family="Lato" font-size="12">4</text></g><g class="edge"><path fill="none" stroke="#000" d="M131.901-328.351c20.469-21.47 60.979-57.16 104.099-57.16h239c68.797 0 93.708 100.947 101.674 149.062"/><path stroke="#000" d="M577.77-229.477l2.024-7.405-2.567 3.947-.544-3.457h0l.544 3.457-3.656-2.968 4.2 6.426h0z"/><text text-anchor="middle" x="360" y="-401.911" font-family="Lato" font-size="12">a &amp; !b</text><text text-anchor="middle" x="360" y="-388.911" font-family="Lato" font-size="12">{}</text></g><g class="node"><ellipse fill="#ffffa0" stroke="#000" cx="475" cy="-162.512" rx="27" ry="18"/><text text-anchor="middle" x="475" y="-159.411" font-family="Lato" font-size="12">2</text></g><g class="edge"><path fill="none" stroke="#000" d="M142.33-320.456c49.802-14.709 165.34-40.734 244.67 4.945 24.915 14.346 60.585 89.863 77.857 129.168"/><path stroke="#000" d="M467.665-179.904l.09-7.675-1.49 4.467-1.398-3.208h0l1.399 3.208-4.287-1.95 5.686 5.159h0z"/><text text-anchor="middle" x="298" y="-356.911" font-family="Lato" font-size="12">!a &amp; !b</text><text text-anchor="middle" x="298" y="-343.911" font-family="Lato" font-size="12">{}</text></g><g class="edge"><path fill="none" stroke="#000" d="M225.722-179.549c-2.097-9.82 1.329-18.963 10.278-18.963 6.712 0 10.317 5.143 10.815 11.857"/><path stroke="#000" d="M246.278-179.549l3.669-6.742-3.405 3.252.264-3.49h0l-.264 3.49-2.877-3.728 2.613 7.218h0z"/><text text-anchor="middle" x="236" y="-214.911" font-family="Lato" font-size="12">{}</text><text text-anchor="middle" x="236" y="-201.911" font-family="Lato" font-size="12">{0,1}</text></g><g class="edge"><path fill="none" stroke="#000" d="M260.487-170.103c16.322-5.745 37.77-14.656 54.513-26.409 10.375-7.282 20.21-17.27 28.025-26.25"/><path stroke="#000" d="M347.617-228.19l-6.926 3.31 4.665-.637-2.26 2.672h0l2.26-2.672.145 4.706 2.116-7.379h0z"/><text text-anchor="middle" x="298" y="-212.911" font-family="Lato" font-size="12">{a}</text><text text-anchor="middle" x="298" y="-199.911" font-family="Lato" font-size="12">{0,1}</text></g><g class="edge"><path fill="none" stroke="#000" d="M237.572-144.347c3.293 26.66 13.323 76.207 43.428 103.836 50.044 45.926 81.906 44.592 149 34 48.452-7.65 71.296 1.64 105-34 19.848-20.989 34.834-103.536 41.38-145.787"/><path stroke="#000" d="M577.466-193.451l-4.166 6.447 3.64-2.987-.526 3.46h0l.526-3.46 2.589 3.934-2.063-7.394h0z"/><text text-anchor="middle" x="417.5" y="-22.912" font-family="Lato" font-size="12">{b}</text><text text-anchor="middle" x="417.5" y="-9.912" font-family="Lato" font-size="12">{0,1}</text></g><g class="edge"><path fill="none" stroke="#000" d="M255.412-149.542c18.889 11.78 48.864 28.312 77.588 35.03 23.37 5.466 30.616 5.405 54 0 23.407-5.41 47.159-18.943 64.077-30.265"/><path stroke="#000" d="M456.988-148.83l-7.555 1.36 4.668.62-2.887 1.979h0l2.887-1.98-1.106 4.578 3.993-6.556h0z"/><text text-anchor="middle" x="360" y="-130.911" font-family="Lato" font-size="12">{a, b}</text><text text-anchor="middle" x="360" y="-117.912" font-family="Lato" font-size="12">{0,1}</text></g><g class="edge"><path fill="none" stroke="#000" d="M333.272-241.49c-16.237 2.858-36.756 8.376-52.272 18.978-13.55 9.259-24.664 23.944-32.458 36.468"/><path stroke="#000" d="M244.774-179.732l6.293-4.396-4.499 1.39 1.794-3.005h0l-1.794 3.005-.91-4.62-.884 7.626h0z"/><text text-anchor="middle" x="298" y="-252.911" font-family="Lato" font-size="12">{a}</text><text text-anchor="middle" x="298" y="-239.911" font-family="Lato" font-size="12">{1}</text></g><g class="edge"><path fill="none" stroke="#000" d="M350.077-261.549c-2.025-9.82 1.282-18.963 9.923-18.963 6.48 0 9.961 5.143 10.442 11.857"/><path stroke="#000" d="M369.923-261.549l3.652-6.752-3.397 3.262.255-3.491h0l-.255 3.49-2.887-3.72 2.632 7.211h0z"/><text text-anchor="middle" x="360" y="-296.911" font-family="Lato" font-size="12">{}</text><text text-anchor="middle" x="360" y="-283.911" font-family="Lato" font-size="12">{}</text></g><g class="edge"><path fill="none" stroke="#000" d="M385.276-250.924c13.31-2.577 29.902-4.53 44.724-2.588 42.325 5.547 89.482 20.221 119.422 30.658"/><path stroke="#000" d="M556.28-220.432l-5.552-5.301 2.252 4.135-3.3-1.165h0l3.3 1.165-4.35 1.805 7.65-.64h0z"/><text text-anchor="middle" x="475" y="-266.911" font-family="Lato" font-size="12">{a, b}</text><text text-anchor="middle" x="475" y="-253.911" font-family="Lato" font-size="12">{1}</text></g><g class="edge"><path fill="none" stroke="#000" d="M383.523-235.182c14.157 6.19 32.151 15.107 46.477 25.67 9.751 7.191 19.23 16.606 26.954 25.12"/><path stroke="#000" d="M462.002-178.681l-2.276-7.331-.042 4.708-2.318-2.622h0l2.318 2.622-4.678-.536 6.996 3.159h0z"/><text text-anchor="middle" x="417.5" y="-239.911" font-family="Lato" font-size="12">{b}</text><text text-anchor="middle" x="417.5" y="-226.911" font-family="Lato" font-size="12">{1}</text></g><g class="edge"><path fill="none" stroke="#000" d="M569.125-194.759c-8.38 12.095-20.765 28.33-34.125 40.247-40.957 36.536-52.21 49.983-105 65-64.658 18.394-90.23 6.636-149-26-11.123-6.176-21.169-16.015-28.932-25.098"/><path stroke="#000" d="M247.54-146.128l2.005 7.41.215-4.705 2.22 2.706h0l-2.22-2.706 4.655.708-6.875-3.413h0z"/><text text-anchor="middle" x="417.5" y="-105.912" font-family="Lato" font-size="12">{b}</text><text text-anchor="middle" x="417.5" y="-92.912" font-family="Lato" font-size="12">{0}</text></g><g class="edge"><path fill="none" stroke="#000" d="M567.763-227.77c-13.822-16.874-38.035-42.237-65.763-52.742-39.358-14.91-87.168 4.5-116.058 20.09"/><path stroke="#000" d="M379.724-256.968l7.649-.646-4.59-1.054 3.06-1.7h0l-3.06 1.7 1.53-4.453-4.589 6.153h0z"/><text text-anchor="middle" x="475" y="-301.911" font-family="Lato" font-size="12">{a, b}</text><text text-anchor="middle" x="475" y="-288.911" font-family="Lato" font-size="12">{0}</text></g><g class="edge"><path fill="none" stroke="#000" d="M570.786-228.549c-1.88-9.82 1.19-18.963 9.214-18.963 6.018 0 9.25 5.143 9.696 11.857"/><path stroke="#000" d="M589.214-228.549l3.617-6.77-3.38 3.278.237-3.492h0l-.237 3.492-2.906-3.705 2.67 7.197h0z"/><text text-anchor="middle" x="580" y="-263.911" font-family="Lato" font-size="12">{}</text><text text-anchor="middle" x="580" y="-250.911" font-family="Lato" font-size="12">{}</text></g><g class="edge"><path fill="none" stroke="#000" d="M569.66-194.868c-7.952 11.13-20.04 24.877-34.66 31.356-8.192 3.63-17.652 4.935-26.603 5.066"/><path stroke="#000" d="M501.361-158.57l6.943 3.273-3.443-3.212 3.499.062h0l-3.5-.062 3.556-3.088-7.055 3.026h0z"/><text text-anchor="middle" x="527.5" y="-179.911" font-family="Lato" font-size="12">{a}</text><text text-anchor="middle" x="527.5" y="-166.911" font-family="Lato" font-size="12">{0}</text></g><g class="edge"><path fill="none" stroke="#000" d="M447.903-162.512H270.491"/><path stroke="#000" d="M263.416-162.512l7 3.15-3.5-3.15h3.5-3.5l3.5-3.15-7 3.15h0z"/><text text-anchor="middle" x="360" y="-178.911" font-family="Lato" font-size="12">{a, b}</text><text text-anchor="middle" x="360" y="-165.911" font-family="Lato" font-size="12">{}</text></g><g class="edge"><path fill="none" stroke="#000" d="M447.879-164.51c-13.814-2.099-30.302-6.365-42.879-15.002-15.012-10.308-26.55-27.391-34.184-41.458"/><path stroke="#000" d="M367.585-227.185l.434 7.664 1.18-4.559 1.615 3.106h0l-1.615-3.106 4.41 1.653-6.024-4.758h0z"/><text text-anchor="middle" x="417.5" y="-195.911" font-family="Lato" font-size="12">{b}</text><text text-anchor="middle" x="417.5" y="-182.911" font-family="Lato" font-size="12">{}</text></g><g class="edge"><path fill="none" stroke="#000" d="M494.27-175.168c7.804-4.833 17.017-10.178 25.73-14.344 9.183-4.39 19.488-8.458 28.934-11.872"/><path stroke="#000" d="M555.63-203.75l-7.649-.638 4.35 1.804-3.3 1.166h0l3.3-1.166-2.252 4.136 5.552-5.301h0z"/><text text-anchor="middle" x="527.5" y="-211.911" font-family="Lato" font-size="12">{a}</text><text text-anchor="middle" x="527.5" y="-198.911" font-family="Lato" font-size="12">{}</text></g><g class="edge"><path fill="none" stroke="#000" d="M465.786-179.549c-1.88-9.82 1.19-18.963 9.214-18.963 6.018 0 9.25 5.143 9.696 11.857"/><path stroke="#000" d="M484.214-179.549l3.617-6.77-3.38 3.278.237-3.492h0l-.237 3.492-2.906-3.705 2.67 7.197h0z"/><text text-anchor="middle" x="475" y="-214.911" font-family="Lato" font-size="12">{}</text><text text-anchor="middle" x="475" y="-201.911" font-family="Lato" font-size="12">{}</text></g></g></svg>