<?xml-stylesheet href="spot.css" type="text/css"?><svg width="472" height="133pt" viewBox="0 0 354 133.4" xmlns="http://www.w3.org/2000/svg"><g class="graph" transform="translate(4 129.4)"><path fill="#fff" stroke="transparent" d="M-4 4v-133.4h354V4H-4z"/><text x="154" y="-98.8" font-family="Lato" font-size="12">[Büchi]</text><g class="node"><circle fill="#ffffa0" stroke="#000" cx="56" cy="-61" r="18"/><text text-anchor="middle" x="56" y="-57.9" font-family="Lato" font-size="12">1</text></g><g class="edge"><path fill="none" stroke="#000" d="M1.123-61h29.801"/><path stroke="#000" d="M37.98-61l-7-3.15 3.5 3.15h-3.5 3.5l-3.5 3.15 7-3.15h0z"/></g><g class="node"><circle fill="#ffffa0" stroke="#000" cx="241" cy="-67" r="18"/><text text-anchor="middle" x="241" y="-63.9" font-family="Lato" font-size="12">0</text></g><g class="edge"><path fill="none" stroke="#000" d="M73.41-66.47C85.5-69.972 102.06-74.19 117-76c34.325-4.158 74.244.411 99.317 4.414"/><path stroke="#000" d="M223.289-70.426l-6.388-4.256L219.836-71l-3.452-.575h0l3.452.575-3.97 2.532 7.423-1.958h0z"/><text x="130" y="-80.4" font-family="Lato" font-size="12">!a</text></g><g class="node"><circle fill="#ffffa0" stroke="#000" cx="135" cy="-18" r="18"/><text text-anchor="middle" x="135" y="-14.9" font-family="Lato" font-size="12">2</text></g><g class="edge"><path fill="none" stroke="#000" d="M71.987-52.298l40.595 22.096"/><path stroke="#000" d="M119.037-26.689l-4.642-6.113 1.568 4.44-3.074-1.673h0l3.074 1.673-4.58 1.093 7.654.58h0z"/><text x="92" y="-43.4" font-family="Lato" font-size="12">a</text></g><g class="node"><circle fill="#ffffa0" stroke="#000" cx="324" cy="-34" r="18"/><circle fill="none" stroke="#000" cx="324" cy="-34" r="22"/><text text-anchor="middle" x="324" y="-30.9" font-family="Lato" font-size="12">3</text></g><g class="edge"><path fill="none" stroke="#000" d="M257.796-60.322l39.096 15.544"/><path stroke="#000" d="M303.406-42.188l-5.34-5.513 2.088 4.22-3.252-1.293h0l3.252 1.293-4.416 1.634 7.668-.34h0z"/><text x="277" y="-55.4" font-family="Lato" font-size="12">b</text></g><g class="edge"><path fill="none" stroke="#000" d="M316.317-54.99C315.37-65.088 317.93-74 324-74c4.553 0 7.131 5.013 7.736 11.78"/><path stroke="#000" d="M331.683-54.99l3.201-6.977-3.175 3.476.026-3.5h0l-.026 3.5-3.124-3.523 3.098 7.023h0z"/><text text-anchor="middle" x="324" y="-77.4" font-family="Lato" font-size="12">1</text></g><g class="edge"><path fill="none" stroke="#000" d="M151.563-25.656l66.554-30.766"/><path stroke="#000" d="M224.554-59.398l-7.676.079 4.499 1.39-3.177 1.469h0l3.177-1.469-1.855 4.328 5.032-5.797h0z"/><text x="171" y="-52.4" font-family="Lato" font-size="12">!a &amp; !b</text></g><g class="edge"><path fill="none" stroke="#000" d="M153.087-19.115C177.248-20.649 221.38-23.61 259-27c11.777-1.061 24.733-2.418 35.958-3.654"/><path stroke="#000" d="M302.055-31.444L294.75-33.8l3.827 2.743-3.479.387h0l3.479-.387-3.13 3.518 6.608-3.905h0z"/><text x="237.5" y="-30.4" font-family="Lato" font-size="12">b</text></g><g class="edge"><path fill="none" stroke="#000" d="M128.266-35.037C126.892-44.857 129.136-54 135-54c4.398 0 6.76 5.142 7.086 11.857"/><path stroke="#000" d="M141.734-35.037l3.492-6.836-3.32 3.34.174-3.496h0l-.173 3.496-2.973-3.652 2.8 7.148h0z"/><text x="119.5" y="-57.4" font-family="Lato" font-size="12">a &amp; !b</text></g></g></svg>