<?xml-stylesheet href="spot.css" type="text/css"?><svg width="391pt" height="110pt" viewBox="0 0 391 110.26" xmlns="http://www.w3.org/2000/svg"><g class="graph" transform="translate(4 106.261)"><path fill="#fff" stroke="transparent" d="M-4 4v-110.261h391V4H-4z"/><text x="189" y="-88.661" font-family="Lato" font-size="12">t</text><text x="181.5" y="-75.661" font-family="Lato" font-size="12">[all]</text><g class="node"><circle fill="#ffffa0" stroke="#000" cx="56" cy="-19.261" r="18"/><text text-anchor="middle" x="56" y="-16.161" font-family="Lato" font-size="12">2</text></g><g class="edge"><path fill="none" stroke="#000" d="M1.123-19.261h29.801"/><path stroke="#000" d="M37.98-19.261l-7-3.15 3.5 3.15h-3.5 3.5l-3.5 3.15 7-3.15h0z"/></g><g class="edge"><path fill="none" stroke="#000" d="M49.62-36.298c-1.301-9.82.825-18.963 6.38-18.963 4.166 0 6.404 5.142 6.713 11.857"/><path stroke="#000" d="M62.38-36.298l3.474-6.845-3.31 3.349.164-3.497h0l-.165 3.497-2.982-3.644 2.818 7.14h0z"/><text x="40.5" y="-58.661" font-family="Lato" font-size="12">!a &amp; b</text></g><g class="node"><circle fill="#ffffa0" stroke="#000" cx="159" cy="-19.261" r="18"/><text text-anchor="middle" x="159" y="-16.161" font-family="Lato" font-size="12">1</text></g><g class="edge"><path fill="none" stroke="#000" d="M74.414-19.261h58.884"/><path stroke="#000" d="M140.745-19.261l-7-3.15 3.5 3.15h-3.5 3.5l-3.5 3.15 7-3.15h0z"/><text x="93.5" y="-22.661" font-family="Lato" font-size="12">a &amp; b</text></g><g class="node"><circle fill="#ffffa0" stroke="#000" cx="365" cy="-19.261" r="18"/><text text-anchor="middle" x="365" y="-16.161" font-family="Lato" font-size="12">0</text></g><g class="edge"><path fill="none" stroke="#000" d="M356.367-35.177c-2.253-10.234.625-20.084 8.633-20.084 6.131 0 9.255 5.774 9.372 13.073"/><path stroke="#000" d="M373.633-35.177l3.866-6.632L374-38.658l.366-3.48h0l-.366 3.48-2.766-3.81 2.4 7.291h0z"/><text x="361.5" y="-58.661" font-family="Lato" font-size="12">b</text></g><g class="edge"><path fill="none" stroke="#000" d="M143.415-10.062c-6.144 3.128-13.4 6.228-20.415 7.801-13.444 3.015-17.556 3.015-31 0-4.713-1.057-9.535-2.803-14.055-4.784"/><path stroke="#000" d="M71.585-10.062l4.974 5.846-1.812-4.346 3.162 1.5h0l-3.162-1.5 4.513-1.346-7.675-.154h0z"/><text x="92" y="-5.661" font-family="Lato" font-size="12">!a &amp; b</text></g><g class="edge"><path fill="none" stroke="#000" d="M150.367-35.177c-2.253-10.234.625-20.084 8.633-20.084 6.131 0 9.255 5.774 9.372 13.073"/><path stroke="#000" d="M167.633-35.177l3.866-6.632L168-38.658l.367-3.48h0l-.367 3.48-2.766-3.81 2.4 7.291h0z"/><text x="145" y="-58.661" font-family="Lato" font-size="12">a &amp; b</text></g><g class="node"><circle fill="#ffffa0" stroke="#000" cx="262" cy="-19.261" r="18"/><text text-anchor="middle" x="262" y="-16.161" font-family="Lato" font-size="12">3</text></g><g class="edge"><path fill="none" stroke="#000" d="M177.414-19.261h58.884"/><path stroke="#000" d="M243.745-19.261l-7-3.15 3.5 3.15h-3.5 3.5l-3.5 3.15 7-3.15h0z"/><text x="195" y="-22.661" font-family="Lato" font-size="12">a &amp; !b</text></g><g class="edge"><path fill="none" stroke="#000" d="M280.414-19.261h58.884"/><path stroke="#000" d="M346.745-19.261l-7-3.15 3.5 3.15h-3.5 3.5l-3.5 3.15 7-3.15h0z"/><text x="298" y="-22.661" font-family="Lato" font-size="12">!a &amp; b</text></g><g class="edge"><path fill="none" stroke="#000" d="M253.367-35.177c-2.253-10.234.625-20.084 8.633-20.084 6.131 0 9.255 5.774 9.372 13.073"/><path stroke="#000" d="M270.633-35.177l3.866-6.632L271-38.658l.366-3.48h0l-.366 3.48-2.766-3.81 2.4 7.291h0z"/><text x="258.5" y="-58.661" font-family="Lato" font-size="12">a</text></g></g></svg>