<svg xmlns="http://www.w3.org/2000/svg" xmlns:xlink="http://www.w3.org/1999/xlink" width="299.565" height="289.136" viewBox="0 0 224.674 216.852"><defs><symbol overflow="visible" id="D"><path d="M-8.156-.422h.36v-.281c0-.922.14-.953.562-.953h6.296c.438 0 .563.031.563.953v.281H0v-4.375c0-2-1.766-3.656-4.016-3.656-2.265 0-4.14 1.61-4.14 3.656zm7.781-2.844c0 .563-.078.594-.469.594h-6.468c-.391 0-.485-.031-.485-.594v-1.187c0-.75.266-1.578 1.11-2.188.718-.5 1.734-.609 2.671-.609 1.329 0 2.047.219 2.625.656.329.235 1.016.922 1.016 2.125zm0 0"/></symbol><symbol overflow="visible" id="b"><path d="M2.672-4.219v-3.093c0-.282 0-.422.265-.454.126-.03.47-.03.704-.03 1.078 0 2.421.046 2.421 1.78 0 .829-.296 1.797-2.062 1.797zm2.531.157c1.156-.282 2.094-1.016 2.094-1.954 0-1.14-1.375-2.14-3.125-2.14H.422v.36h.281c.922 0 .953.14.953.562v6.296c0 .438-.031.563-.953.563H.422V0c.422-.031 1.281-.031 1.734-.031.469 0 1.328 0 1.75.031v-.375h-.281c-.922 0-.953-.125-.953-.563v-3.015h1.375c.203 0 .703 0 1.11.406.468.422.468.797.468 1.594 0 .781 0 1.266.484 1.719.485.421 1.141.5 1.5.5.938 0 1.141-.985 1.141-1.313 0-.078 0-.203-.156-.203-.125 0-.125.11-.14.188C8.374-.22 7.953 0 7.655 0c-.578 0-.672-.61-.843-1.719l-.157-.953c-.218-.765-.797-1.172-1.453-1.39zm0 0"/></symbol><symbol overflow="visible" id="d"><path d="M3.984-.906c.047.469.36.984.922.984.25 0 .985-.172.985-1.14v-.672h-.297v.671c0 .688-.297.766-.438.766-.39 0-.437-.547-.437-.594v-2.39c0-.516 0-.969-.422-1.422a2.34 2.34 0 00-1.64-.656C1.671-5.36.843-4.797.843-4c0 .36.25.563.562.563.328 0 .547-.25.547-.563 0-.14-.062-.531-.61-.547.313-.406.907-.547 1.282-.547.594 0 1.266.469 1.266 1.532v.437c-.61.047-1.438.078-2.188.438C.797-2.281.5-1.657.5-1.141.5-.17 1.656.125 2.422.125c.781 0 1.328-.469 1.562-1.031zm-.093-1.969v1.203c0 1.14-.86 1.547-1.391 1.547-.594 0-1.078-.422-1.078-1.016 0-.671.5-1.656 2.469-1.734zm0 0"/></symbol><symbol overflow="visible" id="e"><path d="M1.406-2.61c0-1.937.969-2.453 1.61-2.453.109 0 .859.016 1.28.454-.5.03-.562.39-.562.546 0 .313.204.547.547.547.313 0 .547-.203.547-.562 0-.813-.906-1.281-1.828-1.281C1.5-5.36.406-4.063.406-2.58.406-1.046 1.594.126 2.97.126c1.61 0 1.984-1.422 1.984-1.547s-.11-.125-.14-.125c-.11 0-.141.047-.157.125-.36 1.11-1.125 1.25-1.578 1.25-.625 0-1.672-.516-1.672-2.437zm0 0"/></symbol><symbol overflow="visible" id="f"><path d="M2.063-4.781H3.78v-.375H2.062v-2.188h-.296c-.016.969-.36 2.25-1.532 2.297v.266H1.25v3.297C1.25-.016 2.36.125 2.781.125c.86 0 1.188-.844 1.188-1.61v-.671h-.297v.656c0 .875-.36 1.328-.797 1.328-.813 0-.813-1.078-.813-1.281zm0 0"/></symbol><symbol overflow="visible" id="g"><path d="M2.11-5.281l-1.672.125v.375c.78 0 .89.078.89.656v3.219c0 .531-.14.531-.937.531V0c.39-.016 1.03-.031 1.312-.031.422 0 .844.015 1.25.031v-.375c-.797 0-.844-.063-.844-.516zm.046-2.078A.62.62 0 001.531-8a.653.653 0 00-.64.64.64.64 0 00.64.626c.328 0 .625-.25.625-.625zm0 0"/></symbol><symbol overflow="visible" id="h"><path d="M4.969-3.984c.11-.266.312-.782 1.11-.797v-.375a8.801 8.801 0 01-.907.047c-.281 0-.828-.032-1.031-.047v.375c.437.015.562.281.562.515 0 .11-.016.157-.062.282L3.42-.938 2.079-4.265c-.062-.156-.062-.187-.062-.203 0-.312.453-.312.671-.312v-.375c-.359.015-1.03.047-1.296.047-.329 0-.813-.016-1.157-.047v.375c.75 0 .797.078.954.437l1.718 4.25c.063.172.094.219.25.219s.203-.094.25-.219zm0 0"/></symbol><symbol overflow="visible" id="i"><path d="M4.953-4.016c.313-.75.922-.765 1.125-.765v-.375a8.801 8.801 0 01-.906.047c-.219 0-.766-.032-1.031-.047v.375c.359.015.562.218.562.515 0 .125-.016.141-.078.282L3.422-1.047 2.094-4.25c-.047-.125-.078-.172-.078-.219 0-.312.453-.312.671-.312v-.375c-.312.015-1.093.047-1.296.047-.329 0-.813-.016-1.157-.047v.375c.563 0 .797 0 .954.422L2.984 0c-.062.156-.218.547-.296.703-.266.656-.594 1.485-1.36 1.485-.062 0-.344 0-.562-.22.375-.046.468-.312.468-.5 0-.312-.234-.5-.5-.5-.25 0-.5.157-.5.516 0 .532.5.97 1.094.97.75 0 1.234-.688 1.531-1.36zm0 0"/></symbol><symbol overflow="visible" id="q"><path d="M4.672-.938V.125L6.39 0v-.375c-.829 0-.922-.078-.922-.672V-5.28l-1.766.125v.375c.844 0 .938.078.938.672v2.125c0 1.046-.579 1.859-1.454 1.859-1 0-1.046-.563-1.046-1.188V-5.28l-1.766.125v.375c.938 0 .938.031.938 1.093v1.797c0 .938 0 2.016 1.812 2.016.672 0 1.203-.328 1.547-1.063zm0 0"/></symbol><symbol overflow="visible" id="r"><path d="M2-3.969V-5.28l-1.672.125v.375c.844 0 .938.078.938.672v3.203c0 .531-.125.531-.938.531V0a49.107 49.107 0 011.375-.031c.469 0 1.031 0 1.516.031v-.375h-.25c-.89 0-.906-.125-.906-.563v-1.828c0-1.187.5-2.25 1.406-2.25h.125a.534.534 0 00-.266.47c0 .343.25.515.516.515.203 0 .5-.14.5-.516 0-.39-.36-.734-.875-.734-.875 0-1.313.797-1.469 1.312zm0 0"/></symbol><symbol overflow="visible" id="s"><path d="M1.313-4.11v3.204c0 .531-.125.531-.938.531V0a45.645 45.645 0 011.36-.031c.312 0 .937.015 1.343.031v-.375c-.812 0-.937 0-.937-.531V-3.11c0-1.235.843-1.907 1.609-1.907.75 0 .89.641.89 1.329v2.78c0 .532-.14.532-.937.532V0a45.645 45.645 0 011.36-.031c.296 0 .921.015 1.328.031v-.375c-.625 0-.922 0-.922-.36v-2.28c0-1.032 0-1.391-.375-1.829-.172-.203-.563-.437-1.25-.437-.875 0-1.438.515-1.781 1.25v-1.25l-1.688.125v.375c.844 0 .938.078.938.672zm0 0"/></symbol><symbol overflow="visible" id="t"><path d="M2.719-3.781h2.015c1.438 0 2.72-.969 2.72-2.156 0-1.172-1.173-2.22-2.813-2.22H.42v.36h.282c.922 0 .953.14.953.563v6.296c0 .438-.031.563-.953.563H.422V0c.422-.031 1.297-.031 1.75-.031.453 0 1.36 0 1.765.031v-.375h-.28c-.923 0-.938-.125-.938-.563zm-.047-.313v-3.218c0-.391.031-.485.594-.485h1.062c1.906 0 1.906 1.266 1.906 1.86 0 .562 0 1.843-1.906 1.843zm0 0"/></symbol><symbol overflow="visible" id="u"><path d="M2.484-2.313c.266.047 1.25.235 1.25 1.094 0 .61-.421 1.094-1.359 1.094-1 0-1.438-.688-1.656-1.703-.031-.156-.047-.203-.172-.203-.156 0-.156.078-.156.297v1.578c0 .203 0 .281.14.281.047 0 .063 0 .297-.234.016-.016.016-.047.235-.266.53.5 1.062.5 1.312.5 1.375 0 1.922-.797 1.922-1.656 0-.625-.36-.985-.5-1.14-.39-.376-.86-.47-1.36-.563C1.766-3.375.97-3.531.97-4.22c0-.422.312-.906 1.344-.906 1.312 0 1.374 1.078 1.39 1.438.016.109.125.109.14.109C4-3.578 4-3.641 4-3.86v-1.204c0-.203 0-.296-.125-.296-.063 0-.078 0-.234.14-.047.063-.157.157-.204.203-.468-.343-.953-.343-1.124-.343C.843-5.36.39-4.547.39-3.891c0 .422.187.766.515 1.016.39.313.719.39 1.578.563zm0 0"/></symbol><symbol overflow="visible" id="v"><path d="M8.625-4.047c0-2.437-1.813-4.375-3.984-4.375C2.5-8.422.67-6.516.67-4.047c0 2.438 1.845 4.313 3.97 4.313 2.171 0 3.984-1.907 3.984-4.313zm-3.969 4c-1.156 0-2.75-1.047-2.75-4.172 0-3.093 1.735-3.906 2.735-3.906 1.03 0 2.75.844 2.75 3.906 0 3.172-1.641 4.172-2.735 4.172zm0 0"/></symbol><symbol overflow="visible" id="w"><path d="M2.063-4.5v-3.797l-1.735.14v.36c.844 0 .938.094.938.672V0h.296c.016-.016.11-.172.438-.734.172.265.672.859 1.563.859a2.697 2.697 0 002.671-2.703c0-1.516-1.171-2.703-2.546-2.703-.922 0-1.438.562-1.626.781zm.03 3.14v-2.468c0-.219 0-.235.126-.422a1.728 1.728 0 011.422-.766c.53 0 .968.313 1.25.766.312.484.343 1.172.343 1.656 0 .438-.015 1.156-.375 1.703-.25.36-.703.766-1.343.766-.547 0-.97-.297-1.25-.734-.172-.25-.172-.282-.172-.5zm0 0"/></symbol><symbol overflow="visible" id="x"><path d="M2.11-8.297l-1.72.14v.36c.844 0 .938.094.938.672v6.219c0 .531-.14.531-.937.531V0c.39-.016 1.03-.031 1.328-.031.297 0 .89.015 1.328.031v-.375c-.797 0-.938 0-.938-.531zm0 0"/></symbol><symbol overflow="visible" id="y"><path d="M2.656-2.063C1.61-2.063 1.61-3.25 1.61-3.53c0-.313.016-.703.204-1 .093-.14.359-.485.843-.485 1.031 0 1.031 1.204 1.031 1.485 0 .312 0 .703-.187 1-.094.14-.375.469-.844.469zm-1.39.47c0-.048 0-.313.203-.563.468.344.953.375 1.187.375 1.11 0 1.938-.828 1.938-1.75 0-.438-.188-.875-.5-1.156.437-.407.86-.47 1.078-.47.031 0 .094 0 .125.016-.14.047-.188.188-.188.329 0 .203.157.343.344.343.11 0 .344-.078.344-.36 0-.202-.14-.593-.61-.593-.234 0-.765.078-1.265.563-.5-.391-1-.422-1.266-.422-1.11 0-1.937.828-1.937 1.75 0 .515.265.969.562 1.219-.156.187-.375.578-.375 1 0 .375.156.828.531 1.062C.72-.047.329.469.329.938c0 .875 1.188 1.53 2.64 1.53 1.423 0 2.657-.609 2.657-1.546 0-.422-.156-1.031-.766-1.36C4.22-.78 3.531-.78 2.797-.78h-.89c-.391-.063-.641-.422-.641-.813zm1.718 3.78c-1.203 0-2.03-.609-2.03-1.25 0-.546.452-.984.984-1.015h.703c1.03 0 2.375 0 2.375 1.016 0 .656-.86 1.25-2.032 1.25zm0 0"/></symbol><symbol overflow="visible" id="z"><path d="M5.625-2.563c0-1.53-1.188-2.796-2.64-2.796C1.5-5.36.327-4.047.327-2.563A2.667 2.667 0 002.968.126a2.66 2.66 0 002.657-2.688zM2.985-.171c-.516 0-1.032-.25-1.36-.797-.297-.531-.297-1.25-.297-1.687 0-.469 0-1.11.281-1.64.329-.548.891-.798 1.36-.798.531 0 1.047.266 1.36.782.312.515.312 1.203.312 1.656 0 .437 0 1.078-.266 1.61a1.558 1.558 0 01-1.39.874zm0 0"/></symbol><symbol overflow="visible" id="A"><path d="M4.172-4.64L2.64-5.017A1.548 1.548 0 011.437-6.53c0-.828.641-1.563 1.579-1.563 2 0 2.25 1.969 2.328 2.5.015.078.015.14.14.14.157 0 .157-.062.157-.28v-2.407c0-.203 0-.28-.125-.28-.094 0-.094 0-.188.155l-.422.672c-.36-.343-.843-.828-1.906-.828A2.3 2.3 0 00.672-6.109c0 1 .625 1.859 1.562 2.187.125.047.735.188 1.579.39.328.095.687.173 1.015.61.25.313.375.703.375 1.11 0 .843-.594 1.703-1.61 1.703-.343 0-1.25-.063-1.89-.641C1.016-1.406.984-2.156.97-2.594c-.016-.125-.11-.125-.14-.125-.157 0-.157.094-.157.297v2.39c0 .204 0 .298.125.298C.89.266.89.234.984.109c0-.015.032-.046.422-.687.375.406 1.14.844 2.203.844 1.407 0 2.36-1.172 2.36-2.485 0-1.203-.797-2.187-1.797-2.422zm0 0"/></symbol><symbol overflow="visible" id="B"><path d="M2.094-5.156v-1.375c0-1.063.578-1.625 1.094-1.625.046 0 .218 0 .39.078a.515.515 0 00-.344.5c0 .281.188.516.5.516.36 0 .532-.235.532-.532 0-.437-.438-.828-1.079-.828-.828 0-1.843.625-1.843 1.89v1.376H.39v.375h.953v3.875c0 .531-.14.531-.938.531V0a49.447 49.447 0 011.36-.031c.484 0 1.046 0 1.515.031v-.375h-.25c-.875 0-.906-.125-.906-.563V-4.78h1.36v-.375zm0 0"/></symbol><symbol overflow="visible" id="C"><path d="M7.094-.75c.156.266.625.734.765.734.094 0 .094-.093.094-.265V-2.36c0-.47.063-.532.828-.532v-.375a50.43 50.43 0 01-1.453.032c-.484 0-1.5 0-1.922-.032v.375h.375c1.078 0 1.11.125 1.11.579v.765c0 1.328-1.516 1.438-1.844 1.438-.781 0-3.14-.422-3.14-3.985 0-3.562 2.343-3.968 3.062-3.968 1.281 0 2.375 1.078 2.61 2.843.03.157.03.203.187.203.187 0 .187-.046.187-.296v-2.829c0-.203 0-.28-.125-.28-.047 0-.094 0-.187.14l-.594.875c-.39-.375-1.031-1.016-2.219-1.016-2.219 0-4.156 1.89-4.156 4.328 0 2.453 1.906 4.36 4.187 4.36.86 0 1.829-.313 2.235-1.016zm0 0"/></symbol><symbol overflow="visible" id="j"><path d="M8.422 11.531c.078.203.156.422.453.422a.417.417 0 00.406-.422c0-.015 0-.078-.062-.25L5.406.391C5.344.234 5.266 0 4.97 0c-.282 0-.36.203-.422.375L.734 11.281c-.062.172-.062.235-.062.25 0 .25.203.422.406.422.219 0 .344-.125.422-.36l3.469-9.937zm0 0"/></symbol><symbol overflow="visible" id="k"><path d="M7.172-3.578H4.656v.75h1.578v1.937a4.905 4.905 0 01-1.578.25C3.078-.64 1.86-2.219 1.86-4.156c0-1.875 1.204-3.5 2.782-3.5.968 0 1.64.281 2.25.781l.171-.984c-.671-.407-1.593-.579-2.39-.579-2.313 0-3.89 2.094-3.89 4.282 0 2.172 1.593 4.281 3.89 4.281.89 0 1.703-.234 2.5-.578zm0 0"/></symbol><symbol overflow="visible" id="l"><path d="M5.797-3.766V-4.5h-3.61v-3H3.75c.14 0 .297.016.438.016H6.28v-.782H1.125V0h1.063v-3.766zm0 0"/></symbol><symbol overflow="visible" id="m"><path d="M.531 1.453c-.094.406-.11.5-.64.5-.141 0-.266 0-.266.219 0 .094.047.14.14.14.329 0 .672-.03 1.016-.03.39 0 .797.03 1.172.03.063 0 .219 0 .219-.234 0-.125-.11-.125-.281-.125-.594 0-.594-.094-.594-.203 0-.14.5-2.078.578-2.39.156.359.484.765 1.094.765 1.39 0 2.89-1.734 2.89-3.5 0-1.125-.687-1.906-1.593-1.906-.594 0-1.172.422-1.563.89-.125-.64-.64-.89-1.078-.89-.547 0-.781.468-.89.672-.204.406-.36 1.125-.36 1.171 0 .11.11.11.14.11.126 0 .126 0 .204-.266.203-.86.437-1.422.875-1.422.203 0 .36.094.36.547 0 .266-.032.407-.079.61zm2.11-5.187c.078-.313.406-.657.625-.829.421-.375.765-.453.968-.453.47 0 .766.407.766 1.125 0 .704-.39 2.079-.61 2.532-.406.828-.984 1.234-1.421 1.234-.797 0-.953-1-.953-1.063 0-.03 0-.062.046-.203zm0 0"/></symbol><symbol overflow="visible" id="p"><path d="M5.406-5.156c0-.047-.047-.11-.125-.11-.125 0-.61.47-.812.813-.266-.64-.735-.828-1.11-.828-1.406 0-2.875 1.765-2.875 3.5C.484-.61 1.188.125 2.063.125c.5 0 .968-.281 1.406-.703-.11.406-.5 2.031-.547 2.125-.094.344-.188.39-.86.406-.156 0-.265 0-.265.234 0 .016 0 .126.156.126.375 0 .797-.032 1.188-.032.406 0 .843.031 1.234.031.063 0 .219 0 .219-.234 0-.125-.125-.125-.313-.125-.578 0-.578-.094-.578-.203 0-.078.031-.14.047-.25zM2.094-.125c-.719 0-.766-.922-.766-1.125 0-.578.344-1.875.547-2.39.375-.876 1-1.376 1.484-1.376.782 0 .938.97.938 1.047 0 .078-.656 2.688-.688 2.735-.171.343-.843 1.109-1.515 1.109zm0 0"/></symbol><symbol overflow="visible" id="n"><path d="M2.719-5.234c0-.141-.11-.313-.344-.313-.219 0-.469.219-.469.453 0 .14.11.313.344.313.234 0 .469-.235.469-.453zM1-.984c-.031.109-.078.218-.078.359 0 .39.344.703.797.703.843 0 1.218-1.156 1.218-1.281 0-.11-.109-.11-.14-.11-.11 0-.125.063-.156.141C2.453-.5 2.078-.156 1.75-.156c-.172 0-.203-.11-.203-.281 0-.204.047-.36.125-.547.094-.22.172-.454.266-.672.078-.188.375-.953.421-1.063.016-.078.047-.172.047-.265 0-.391-.344-.704-.797-.704-.828 0-1.218 1.141-1.218 1.282 0 .11.125.11.14.11.125 0 .125-.048.156-.142.22-.718.579-1.015.891-1.015.14 0 .219.062.219.281 0 .203-.063.328-.266.844zm0 0"/></symbol><symbol overflow="visible" id="o"><path d="M7.219-6.672c.078-.156.078-.172.078-.234 0-.14-.094-.235-.234-.235-.125 0-.188.079-.266.25L3.984-.562 1.172-6.891c-.094-.234-.188-.25-.281-.25a.23.23 0 00-.235.235c0 .015 0 .047.078.187L3.704.016c.093.203.171.25.28.25.157 0 .188-.094.266-.25zm0 0"/></symbol><symbol overflow="visible" id="c"><path d="M1.344-3.016c.062-1.78 1.078-2.078 1.484-2.078 1.219 0 1.344 1.61 1.344 2.078zm-.016.25h3.328c.266 0 .297 0 .297-.25 0-1.187-.64-2.343-2.125-2.343-1.39 0-2.5 1.234-2.5 2.734 0 1.594 1.266 2.75 2.64 2.75 1.454 0 1.985-1.313 1.985-1.547 0-.125-.094-.14-.14-.14-.11 0-.141.062-.157.156-.422 1.234-1.5 1.234-1.625 1.234-.594 0-1.078-.36-1.344-.797-.359-.578-.359-1.36-.359-1.797zm0 0"/></symbol><symbol overflow="visible" id="E"><path d="M-3.016-1.344c-1.78-.062-2.078-1.078-2.078-1.484 0-1.219 1.61-1.344 2.078-1.344zm.25.016v-3.328c0-.266 0-.297-.25-.297-1.187 0-2.343.64-2.343 2.125 0 1.39 1.234 2.5 2.734 2.5 1.594 0 2.75-1.266 2.75-2.64 0-1.454-1.313-1.985-1.547-1.985-.125 0-.14.094-.14.14 0 .11.062.141.156.157 1.234.422 1.234 1.5 1.234 1.625 0 .594-.36 1.078-.797 1.344-.578.359-1.36.359-1.797.359zm0 0"/></symbol><symbol overflow="visible" id="F"><path d="M-4.781-2.063V-3.78h-.375v1.719h-2.188v.296c.969.016 2.25.36 2.297 1.532h.266V-1.25h3.297C-.016-1.25.125-2.36.125-2.781c0-.86-.844-1.188-1.61-1.188h-.671v.297h.656c.875 0 1.328.36 1.328.797 0 .813-1.078.813-1.281.813zm0 0"/></symbol><symbol overflow="visible" id="G"><path d="M-3.969-2H-5.28l.125 1.672h.375c0-.844.078-.938.672-.938h3.203c.531 0 .531.125.531.938H0a49.107 49.107 0 01-.031-1.375c0-.469 0-1.031.031-1.516h-.375v.25c0 .89-.125.906-.563.906h-1.828c-1.187 0-2.25-.5-2.25-1.406v-.125a.534.534 0 00.47.266c.343 0 .515-.25.515-.516 0-.203-.14-.5-.516-.5-.39 0-.734.36-.734.875 0 .875.797 1.313 1.312 1.469zm0 0"/></symbol><symbol overflow="visible" id="H"><path d="M-4.11-1.313h3.204c.531 0 .531.125.531.938H0a45.645 45.645 0 01-.031-1.36c0-.312.015-.937.031-1.343h-.375c0 .812 0 .937-.531.937H-3.11c-1.235 0-1.907-.843-1.907-1.609 0-.75.641-.89 1.329-.89h2.78c.532 0 .532.14.532.937H0a45.645 45.645 0 01-.031-1.36c0-.296.015-.921.031-1.328h-.375c0 .797 0 .922-.531.922H-3.11c-1.235 0-1.907-.843-1.907-1.61 0-.75.641-.874 1.329-.874h2.78c.532 0 .532.125.532.922H0a45.878 45.878 0 01-.031-1.344c0-.313.015-.938.031-1.344h-.375c0 .625 0 .922-.36.938h-2.28c-1.032 0-1.391 0-1.829.36-.203.171-.437.562-.437 1.265 0 1 .718 1.531 1.172 1.734-1.047.156-1.172 1.047-1.172 1.578 0 .875.515 1.438 1.25 1.781h-1.25l.125 1.688h.375c0-.844.078-.938.672-.938zm0 0"/></symbol><symbol overflow="visible" id="I"><path d="M-5.281-2.11l.125 1.672h.375c0-.78.078-.89.656-.89h3.219c.531 0 .531.14.531.937H0a43.967 43.967 0 01-.031-1.312c0-.422.015-.844.031-1.25h-.375c0 .797-.063.844-.516.844zm-2.078-.046A.62.62 0 00-8-1.531c0 .375.328.64.64.64a.64.64 0 00.626-.64.617.617 0 00-.625-.625zm0 0"/></symbol><symbol overflow="visible" id="J"><path d="M-4.11-1.313h3.204c.531 0 .531.125.531.938H0a45.645 45.645 0 01-.031-1.36c0-.312.015-.937.031-1.343h-.375c0 .812 0 .937-.531.937H-3.11c-1.235 0-1.907-.843-1.907-1.609 0-.75.641-.89 1.329-.89h2.78c.532 0 .532.14.532.937H0a45.645 45.645 0 01-.031-1.36c0-.296.015-.921.031-1.328h-.375c0 .625 0 .922-.36.922h-2.28c-1.032 0-1.391 0-1.829.375-.203.172-.437.563-.437 1.25 0 .875.515 1.438 1.25 1.781h-1.25l.125 1.688h.375c0-.844.078-.938.672-.938zm0 0"/></symbol><symbol overflow="visible" id="K"><path d="M-2.313-2.484c.047-.266.235-1.25 1.094-1.25.61 0 1.094.421 1.094 1.359 0 1-.688 1.438-1.703 1.656-.156.031-.203.047-.203.172 0 .156.078.156.297.156h1.578c.203 0 .281 0 .281-.14 0-.047 0-.063-.234-.297-.016-.016-.047-.016-.266-.235.5-.53.5-1.062.5-1.312 0-1.375-.797-1.922-1.656-1.922-.625 0-.985.36-1.14.5-.376.39-.47.86-.563 1.36-.141.671-.297 1.468-.985 1.468-.422 0-.906-.312-.906-1.344 0-1.312 1.078-1.374 1.438-1.39.109-.016.109-.125.109-.14C-3.578-4-3.641-4-3.86-4h-1.204c-.203 0-.296 0-.296.125 0 .063 0 .078.14.234.063.047.157.157.203.204-.343.468-.343.953-.343 1.124 0 1.47.812 1.922 1.468 1.922.422 0 .766-.187 1.016-.515.313-.39.39-.719.563-1.578zm0 0"/></symbol><symbol overflow="visible" id="L"><path d="M-2.61-1.406c-1.937 0-2.453-.969-2.453-1.61 0-.109.016-.859.454-1.28.03.5.39.562.546.562.313 0 .547-.204.547-.547 0-.313-.203-.547-.562-.547-.813 0-1.281.906-1.281 1.828 0 1.5 1.296 2.594 2.78 2.594C-1.046-.406.126-1.594.126-2.97c0-1.61-1.422-1.984-1.547-1.984s-.125.11-.125.14c0 .11.047.141.125.157 1.11.36 1.25 1.125 1.25 1.578 0 .625-.516 1.672-2.437 1.672zm0 0"/></symbol><symbol overflow="visible" id="M"><path d="M-4.375-2.656h-2.938c-.39 0-.484-.016-.484-.578V-4.72c0-1.156 1.016-1.578 1.656-1.578.766 0 1.766.578 1.766 1.906zm.11-2.813c-.235-1.172-1-1.984-1.876-1.984-1.046 0-2.015 1.094-2.015 2.64v4.375h.36v-.28c0-.923.14-.938.562-.938h6.296c.438 0 .563.015.563.937v.281H0v-4.671c0-1.594-1.063-2.672-2.188-2.672-1.046 0-1.937.984-2.078 2.312zm3.89.735v1.5c0 .562-.078.578-.469.578h-3.265v-2.25c0-1.172 1.109-1.688 1.906-1.688.86 0 1.828.625 1.828 1.86zm0 0"/></symbol><symbol overflow="visible" id="N"><path d="M-7.406-2.422A.603.603 0 00-8-1.828c0 .328.266.594.594.594.343 0 .61-.266.61-.594 0-.36-.313-.594-.61-.594zm0-2.312A.593.593 0 00-8-4.141c0 .36.313.61.594.61a.62.62 0 00.61-.61.597.597 0 00-.61-.593zm0 0"/></symbol><symbol overflow="visible" id="O"><path d="M-.938-4.672H.125L0-6.39h-.375c0 .829-.078.922-.672.922H-5.28l.125 1.766h.375c0-.844.078-.938.672-.938h2.125c1.046 0 1.859.579 1.859 1.454 0 1-.563 1.046-1.188 1.046H-5.28l.125 1.766h.375c0-.938.031-.938 1.093-.938h1.797c.938 0 2.016 0 2.016-1.812 0-.672-.328-1.203-1.063-1.547zm0 0"/></symbol><symbol overflow="visible" id="P"><path d="M-.906-1.313c.531 0 .531.125.531.938H0a45.645 45.645 0 01-.031-1.36c0-.312.015-.937.031-1.343h-.375c0 .812 0 .937-.531.937H-3.11c-1.235 0-1.907-.843-1.907-1.609 0-.75.641-.89 1.329-.89h2.78c.532 0 .532.14.532.937H0a45.645 45.645 0 01-.031-1.36c0-.296.015-.921.031-1.328h-.375c0 .625 0 .922-.36.922h-2.28c-1.032 0-1.391 0-1.829.375-.203.172-.437.563-.437 1.25 0 1.016.718 1.531 1.172 1.735h-4.188l.14 1.734h.36c0-.844.094-.938.672-.938zm0 0"/></symbol><symbol overflow="visible" id="Q"><path d="M-7.906-2.875c-.25.11-.25.14-.25.406v2.031h.36v-.296c0-.922.14-.938.562-.938h5.984c.313 0 .875 0 .875 1.234H0a44.173 44.173 0 01-.031-1.406c0-.39.015-.984.031-1.39h-.375c0 1.218-.563 1.218-.875 1.218h-6.453l7.437-2.89c.157-.047.266-.11.266-.235 0-.125-.094-.171-.234-.218l-7.563-2.938v-.015h6.86c.437 0 .562.03.562.953v.28H0c-.031-.437-.031-1.25-.031-1.718 0-.469 0-1.265.031-1.703h-.375v.281c0 .922-.125.938-.563.938h-6.296c-.422 0-.563-.016-.563-.938v-.281h-.36v2.016c0 .312 0 .312.22.39l6.734 2.625zm0 0"/></symbol><symbol overflow="visible" id="R"><path d="M-2.563-5.625c-1.53 0-2.796 1.188-2.796 2.64 0 1.485 1.312 2.657 2.796 2.657a2.667 2.667 0 002.688-2.64 2.66 2.66 0 00-2.688-2.657zm2.391 2.64c0 .516-.25 1.032-.797 1.36-.531.297-1.25.297-1.687.297-.469 0-1.11 0-1.64-.281a1.619 1.619 0 01-.798-1.36c0-.531.266-1.047.782-1.36.515-.312 1.203-.312 1.656-.312.437 0 1.078 0 1.61.266.53.266.874.797.874 1.39zm0 0"/></symbol><symbol overflow="visible" id="S"><path d="M-7-10.86c-.672-.218-.797-.734-.797-1.203h-.36c.016.36.032.735.032 1.094 0 .344-.031 1.11-.031 1.422h.36c.015-.797.405-1.047.64-1.047.062 0 .156.047.234.063l5.516 1.797-5.844 1.906a.671.671 0 01-.188.031c-.359 0-.359-.687-.359-1h-.36c.032.438.032 1.25.032 1.703 0 .453-.031.969-.031 1.453h.36c0-.671 0-.921.437-1.078l.828-.25 5.125 1.657-5.875 1.921a.555.555 0 01-.157.032c-.359 0-.359-.704-.359-1.016h-.36c.032.438.032 1.25.032 1.703 0 .453-.031.969-.031 1.453h.36c0-.89.062-.937.5-1.078L.03-3.687c.11-.047.235-.079.235-.235 0-.172-.094-.187-.235-.234l-6.078-1.969L.031-8.109c.11-.047.235-.079.235-.235 0-.172-.094-.187-.235-.234zm0 0"/></symbol><symbol overflow="visible" id="T"><path d="M-.906-3.984c.469-.047.984-.36.984-.922 0-.25-.172-.985-1.14-.985h-.672v.297h.671c.688 0 .766.297.766.438 0 .39-.547.437-.594.437h-2.39c-.516 0-.969 0-1.422.422a2.34 2.34 0 00-.656 1.64c0 .985.562 1.813 1.359 1.813.36 0 .563-.25.563-.562 0-.328-.25-.547-.563-.547-.14 0-.531.062-.547.61-.406-.313-.547-.907-.547-1.282 0-.594.469-1.266 1.532-1.266h.437c.047.61.078 1.438.438 2.188C-2.281-.797-1.657-.5-1.141-.5-.17-.5.125-1.656.125-2.422c0-.781-.469-1.328-1.031-1.562zm-1.969.093h1.203c1.14 0 1.547.86 1.547 1.391 0 .594-.422 1.078-1.016 1.078-.671 0-1.656-.5-1.734-2.469zm0 0"/></symbol><symbol overflow="visible" id="U"><path d="M-.906-1.266c.531 0 .531.125.531.938H0a40.603 40.603 0 01-.031-1.313c0-.359 0-.828.031-1.312h-.375c0 .797 0 .937-.531.937h-1.235l-.656-.765C-1.53-3.703-.859-4.203-.64-4.203c.22 0 .266.203.266.422H0a39.839 39.839 0 01-.031-1.281c0-.36 0-.704.031-1.047h-.375c0 .437 0 .703-.625 1.156l-2.14 1.516c-.032.015-.094.078-.141.078-.047 0-.766-.844-.86-.97-.609-.75-.625-1.25-.64-1.5h-.375c.047.345.047.5.047.829 0 .438-.032 1.172-.047 1.344h.375c.015-.235.14-.344.297-.344.234 0 .39.156.468.266l1.454 1.671h-5.735l.14 1.735h.36c0-.844.094-.938.672-.938zm0 0"/></symbol><symbol overflow="visible" id="V"><path d="M-8.094-7.953v7.297l2.688.219v-.297C-7.328-.891-7.72-1.078-7.72-2.875c0-.219 0-.531.016-.656.047-.25.187-.25.453-.25h6.313c.406 0 .562 0 .562 1.265v.47H0c-.031-.485-.031-1.704-.031-2.25 0-.563 0-1.782.031-2.282h-.375v.484c0 1.25-.156 1.25-.563 1.25H-7.25c-.234 0-.406 0-.453-.218-.016-.125-.016-.454-.016-.672 0-1.813.39-1.985 2.313-2.157v-.296zm0 0"/></symbol><symbol overflow="visible" id="W"><path d="M-8.297-2.11l.14 1.72h.36c0-.844.094-.938.672-.938h6.219c.531 0 .531.14.531.937H0a43.731 43.731 0 01-.031-1.328c0-.297.015-.89.031-1.328h-.375c0 .797 0 .938-.531.938zm0 0"/></symbol><symbol overflow="visible" id="X"><path d="M3.547-6.578h1.578v.64c0 .22 0 .485.406.485.422 0 .422-.25.422-.484v-.875c0-.375-.078-.485-.484-.485H.797c-.39 0-.485.094-.485.484v.875c0 .22 0 .485.407.485.422 0 .422-.25.422-.484v-.641h1.578v5.844h-.61c-.187 0-.484 0-.484.359 0 .375.281.375.484.375h2.063c.172 0 .484 0 .484-.36 0-.374-.297-.374-.484-.374h-.625zm0 0"/></symbol><symbol overflow="visible" id="Y"><path d="M1.86-6.578h.859c1.11 0 1.625.703 1.625 1.281 0 .594-.532 1.281-1.625 1.281h-.86zm2.296 2.937a1.887 1.887 0 001.016-1.656c0-1.031-.906-2-2.313-2H.734c-.187 0-.468 0-.468.36 0 .359.296.359.468.359h.313v5.844H.734c-.187 0-.468 0-.468.375C.266 0 .562 0 .734 0h1.422c.188 0 .485 0 .485-.36 0-.374-.282-.374-.485-.374H1.86v-2.547h.938c.234 0 .578 0 .969.328.265.25.265.515.265 1.015 0 .782 0 1.141.219 1.516.203.36.547.547.953.547.75 0 1.031-.781 1.031-1.234 0-.391-.28-.391-.406-.391-.125 0-.406 0-.406.36 0 .093-.031.546-.234.546-.329 0-.329-.547-.329-1.187 0-.75 0-.844-.109-1.125-.14-.344-.422-.594-.594-.735zm0 0"/></symbol><symbol overflow="visible" id="Z"><path d="M1.984-2.922h1.5c1.375 0 2.25-1.078 2.25-2.187 0-1.125-.875-2.188-2.25-2.188H.797c-.172 0-.485 0-.485.36 0 .359.313.359.485.359h.36v5.844h-.36c-.188 0-.485 0-.485.375C.313 0 .625 0 .797 0h1.547c.172 0 .484 0 .484-.36 0-.374-.312-.374-.484-.374h-.36zm0-3.656H3.25c1.156 0 1.656.828 1.656 1.469 0 .625-.5 1.453-1.656 1.453H1.984zm0 0"/></symbol><symbol overflow="visible" id="aa"><path d="M5.594-3.64c0-3.454-.25-3.797-2.469-3.797-2.203 0-2.453.328-2.453 3.796C.672-.187.922.125 3.125.125s2.469-.313 2.469-3.766zM3.125-.595c-1.047 0-1.344-.25-1.484-.86C1.5-2.062 1.5-3.093 1.5-3.75c0-.75 0-1.563.125-2.11.156-.702.531-.843 1.5-.843.906 0 1.328.11 1.5.766.14.562.14 1.453.14 2.187 0 .734 0 1.594-.124 2.234-.141.672-.438.922-1.516.922zm0 0"/></symbol><symbol overflow="visible" id="ab"><path d="M3.531-3.281c.344.078 1.328.312 1.328 1.36 0 .624-.515 1.327-1.453 1.327-.328 0-.922-.047-1.39-.375a1.198 1.198 0 01-.563-1.047c-.016-.203-.031-.406-.406-.406-.422 0-.422.25-.422.485V-.36c0 .187 0 .484.36.484.265 0 .328-.156.437-.547.484.36 1.203.547 1.969.547 1.39 0 2.25-1.047 2.25-2.11a2.05 2.05 0 00-.579-1.421c-.484-.485-.812-.563-1.734-.781l-.969-.22c-.5-.14-.953-.546-.953-1.109 0-.609.578-1.187 1.422-1.187 1.422 0 1.594 1.125 1.672 1.484.031.266.156.344.406.344.407 0 .407-.25.407-.484v-1.579c0-.203 0-.5-.36-.5-.281 0-.344.204-.437.563-.485-.422-1.141-.563-1.672-.563-1.328 0-2.219.954-2.219 1.97 0 .796.547 1.577 1.531 1.874.063.016 1.219.281 1.375.313zm0 0"/></symbol><symbol overflow="visible" id="ac"><path d="M5.36-2.5c.296 0 .562 0 .562-.375 0-.36-.297-.36-.484-.36H4.016c-.172 0-.485 0-.485.36 0 .375.297.375.485.375h.5c-.141 1.344-.72 1.906-1.36 1.906-.969 0-1.875-1.297-1.875-3.047 0-1.828.953-3.062 1.89-3.062.407 0 1.173.266 1.376 1.562.016.204.094.344.406.344.406 0 .406-.25.406-.484v-1.657c0-.203 0-.5-.343-.5-.266 0-.313.141-.5.547-.422-.359-.891-.546-1.391-.546-1.438 0-2.672 1.609-2.672 3.78 0 2.204 1.25 3.782 2.672 3.782.672 0 1.172-.36 1.422-.625 0 .266 0 .5.406.5s.406-.266.406-.484zm0 0"/></symbol><symbol overflow="visible" id="ad"><path d="M1.906-6.578h1.5c1.016 0 1.281.75 1.281 1.14 0 .485-.39 1.282-1.546 1.282H1.906zm2.313 2.75c.765-.266 1.297-.875 1.297-1.625 0-.875-.735-1.844-2.063-1.844H.75c-.172 0-.469 0-.469.36 0 .359.297.359.485.359h.328v5.844H.766c-.188 0-.485 0-.485.375C.281 0 .578 0 .75 0h2.938c1.359 0 2.078-1.063 2.078-2 0-.828-.579-1.594-1.547-1.828zM3.437-.734h-1.53v-2.704h1.655c1.016 0 1.376.876 1.376 1.422 0 .579-.47 1.282-1.5 1.282zm0 0"/></symbol><clipPath id="a"><path d="M22 2h185v214.852H22zm0 0"/></clipPath></defs><g clip-path="url(#a)"><path d="M22.813 216.852V2.55H206.5v214.3zm0 0" fill="gray" fill-opacity=".5"/></g><path d="M20.496 214.535V.235h183.688v214.3zm0 0" fill="#fff" stroke-width=".4788" stroke="#000" stroke-miterlimit="10"/><path d="M20.496 15.543l183.688 107.148v91.844H20.496" fill="#b3e6fa" fill-opacity=".4"/><path d="M20.496 122.691l137.766 91.844H20.496" fill="#b3e6fa" fill-opacity=".5"/><path d="M204.184 15.543L20.496 122.691v91.844h183.688" fill="#f9b3dc" fill-opacity=".3"/><path d="M204.184 122.691L66.418 214.535h137.766" fill="#f9b3dc" fill-opacity=".4"/><path d="M20.496 214.535V.235h183.688v214.3zm0 0" fill="none" stroke-width=".4788" stroke="#000" stroke-miterlimit="10"/><use xlink:href="#b" x="85.522" y="26.269"/><use xlink:href="#c" x="94.322" y="26.269"/><use xlink:href="#d" x="99.635" y="26.269"/><use xlink:href="#e" x="105.612" y="26.269"/><use xlink:href="#f" x="110.925" y="26.269"/><use xlink:href="#g" x="115.574" y="26.269"/><use xlink:href="#h" x="118.896" y="26.269"/><use xlink:href="#g" x="125.205" y="26.269"/><use xlink:href="#f" x="128.527" y="26.269"/><use xlink:href="#i" x="132.841" y="26.269"/><use xlink:href="#j" x="75.45" y="31.649"/><use xlink:href="#k" x="87.406" y="40.615"/><use xlink:href="#l" x="95.376" y="40.615"/><use xlink:href="#m" x="102.184" y="40.615"/><use xlink:href="#n" x="108.198" y="42.408"/><use xlink:href="#o" x="114.835" y="40.615"/><use xlink:href="#l" x="125.461" y="40.615"/><use xlink:href="#k" x="131.934" y="40.615"/><use xlink:href="#p" x="139.908" y="40.615"/><use xlink:href="#n" x="145.244" y="42.408"/><use xlink:href="#b" x="25.163" y="72.522"/><use xlink:href="#c" x="33.963" y="72.522"/><use xlink:href="#e" x="39.276" y="72.522"/><use xlink:href="#q" x="44.589" y="72.522"/><use xlink:href="#r" x="51.231" y="72.522"/><use xlink:href="#r" x="55.914" y="72.522"/><use xlink:href="#c" x="60.597" y="72.522"/><use xlink:href="#s" x="65.909" y="72.522"/><use xlink:href="#e" x="72.552" y="72.522"/><use xlink:href="#c" x="77.865" y="72.522"/><use xlink:href="#k" x="43.775" y="86.868"/><use xlink:href="#l" x="51.745" y="86.868"/><use xlink:href="#m" x="58.553" y="86.868"/><use xlink:href="#t" x="141.612" y="72.522"/><use xlink:href="#c" x="149.414" y="72.522"/><use xlink:href="#r" x="154.727" y="72.522"/><use xlink:href="#u" x="159.41" y="72.522"/><use xlink:href="#g" x="164.125" y="72.522"/><use xlink:href="#u" x="167.446" y="72.522"/><use xlink:href="#f" x="172.161" y="72.522"/><use xlink:href="#c" x="176.81" y="72.522"/><use xlink:href="#s" x="182.123" y="72.522"/><use xlink:href="#e" x="188.765" y="72.522"/><use xlink:href="#c" x="194.078" y="72.522"/><use xlink:href="#l" x="160.273" y="86.868"/><use xlink:href="#k" x="166.746" y="86.868"/><use xlink:href="#m" x="174.719" y="86.868"/><use xlink:href="#v" x="84.774" y="122.77"/><use xlink:href="#w" x="94.073" y="122.77"/><use xlink:href="#x" x="100.715" y="122.77"/><use xlink:href="#g" x="104.036" y="122.77"/><use xlink:href="#y" x="107.357" y="122.77"/><use xlink:href="#d" x="113.335" y="122.77"/><use xlink:href="#f" x="119.312" y="122.77"/><use xlink:href="#g" x="123.962" y="122.77"/><use xlink:href="#z" x="127.283" y="122.77"/><use xlink:href="#s" x="133.26" y="122.77"/><use xlink:href="#j" x="82.673" y="128.149"/><use xlink:href="#k" x="94.628" y="137.116"/><use xlink:href="#m" x="102.599" y="137.116"/><use xlink:href="#n" x="108.613" y="138.908"/><g><use xlink:href="#o" x="115.25" y="137.116"/></g><g><use xlink:href="#l" x="125.876" y="137.116"/></g><g><use xlink:href="#p" x="132.685" y="137.116"/></g><g><use xlink:href="#n" x="138.022" y="138.908"/></g><g><use xlink:href="#A" x="35.003" y="179.737"/><use xlink:href="#d" x="41.645" y="179.737"/><use xlink:href="#B" x="47.623" y="179.737"/><use xlink:href="#c" x="51.276" y="179.737"/><use xlink:href="#f" x="56.589" y="179.737"/></g><g><use xlink:href="#i" x="60.904" y="179.737"/></g><g><use xlink:href="#k" x="44.117" y="194.083"/></g><g><use xlink:href="#m" x="52.087" y="194.083"/></g><g><use xlink:href="#C" x="146.442" y="179.671"/><use xlink:href="#q" x="155.823" y="179.671"/><use xlink:href="#d" x="162.465" y="179.671"/><use xlink:href="#r" x="168.443" y="179.671"/><use xlink:href="#d" x="173.126" y="179.671"/><use xlink:href="#s" x="179.103" y="179.671"/></g><g><use xlink:href="#f" x="185.411" y="179.671"/><use xlink:href="#c" x="190.06" y="179.671"/><use xlink:href="#c" x="195.373" y="179.671"/></g><g><use xlink:href="#l" x="167.154" y="194.017"/></g><g><use xlink:href="#m" x="173.962" y="194.017"/></g><g fill="#40c1f3"><use xlink:href="#D" x="16.272" y="120.823"/><use xlink:href="#E" x="16.272" y="111.691"/><use xlink:href="#F" x="16.272" y="106.378"/><use xlink:href="#E" x="16.272" y="101.728"/><use xlink:href="#G" x="16.272" y="96.416"/><use xlink:href="#H" x="16.272" y="91.733"/><use xlink:href="#I" x="16.272" y="81.771"/><use xlink:href="#J" x="16.272" y="78.449"/><use xlink:href="#I" x="16.272" y="71.807"/><use xlink:href="#K" x="16.272" y="68.486"/><use xlink:href="#F" x="16.272" y="63.771"/><use xlink:href="#I" x="16.272" y="59.122"/><use xlink:href="#L" x="16.272" y="55.8"/></g><g fill="#40c1f3"><use xlink:href="#M" x="16.272" y="46.507"/></g><g fill="#40c1f3"><use xlink:href="#N" x="16.272" y="37.704"/></g><g fill="#40c1f3"><use xlink:href="#O" x="16.272" y="38.039"/><use xlink:href="#L" x="16.272" y="31.397"/></g><g fill="#40c1f3"><use xlink:href="#P" x="16.272" y="26.406"/><use xlink:href="#I" x="16.272" y="19.764"/></g><g fill="#00adef"><use xlink:href="#Q" x="16.272" y="210.312"/><use xlink:href="#R" x="16.272" y="199.353"/><use xlink:href="#J" x="16.272" y="193.375"/><use xlink:href="#I" x="16.272" y="186.733"/><use xlink:href="#F" x="16.272" y="183.412"/><use xlink:href="#R" x="16.272" y="178.762"/><use xlink:href="#G" x="16.272" y="172.785"/></g><g fill="#f140a9"><use xlink:href="#S" x="216.706" y="79.379"/></g><g fill="#f140a9"><use xlink:href="#E" x="216.706" y="68.084"/><use xlink:href="#T" x="216.706" y="62.771"/><use xlink:href="#U" x="216.706" y="56.793"/></g><g fill="#f140a9"><use xlink:href="#M" x="216.706" y="46.502"/></g><g fill="#f140a9"><use xlink:href="#N" x="216.706" y="37.7"/></g><g fill="#f140a9"><use xlink:href="#O" x="216.706" y="38.034"/><use xlink:href="#L" x="216.706" y="31.392"/></g><g fill="#f140a9"><use xlink:href="#P" x="216.706" y="26.414"/><use xlink:href="#I" x="216.706" y="19.772"/></g><g fill="#ec008c"><use xlink:href="#V" x="216.706" y="210.312"/></g><g fill="#ec008c"><use xlink:href="#E" x="216.706" y="202.67"/><use xlink:href="#G" x="216.706" y="197.357"/><use xlink:href="#H" x="216.706" y="192.675"/><use xlink:href="#I" x="216.706" y="182.712"/><use xlink:href="#J" x="216.706" y="179.391"/><use xlink:href="#T" x="216.706" y="172.749"/><use xlink:href="#W" x="216.706" y="166.771"/></g><g fill="#ec008c"><use xlink:href="#M" x="216.706" y="159.469"/></g><g fill="#ec008c"><use xlink:href="#N" x="216.706" y="150.667"/></g><g fill="#ec008c"><use xlink:href="#O" x="216.706" y="151.001"/><use xlink:href="#L" x="216.706" y="144.359"/></g><g fill="#ec008c"><use xlink:href="#P" x="216.706" y="139.381"/><use xlink:href="#I" x="216.706" y="132.739"/></g><g fill="red"><use xlink:href="#X" x="109.199" y="13.055"/></g><g fill="red"><use xlink:href="#Y" x="51.032" y="55.906"/></g><g fill="red"><use xlink:href="#Z" x="167.365" y="55.906"/></g><g fill="red"><use xlink:href="#aa" x="109.199" y="106.02"/></g><g fill="red"><use xlink:href="#ab" x="47.971" y="162.988"/></g><g fill="red"><use xlink:href="#ac" x="170.426" y="163.055"/></g><g fill="red"><use xlink:href="#ad" x="109.199" y="201.127"/></g></svg>