<?xml-stylesheet href="spot.css" type="text/css"?><svg width="301pt" height="163pt" viewBox="0 0 301 163.4" xmlns="http://www.w3.org/2000/svg"><g class="graph" transform="translate(4 159.4)"><path fill="#fff" stroke="transparent" d="M-4 4v-163.4h301V4H-4z"/><text x="127.5" y="-128.8" font-family="Lato" font-size="12">[Büchi]</text><g class="node"><circle fill="#ffffa0" stroke="#ff4da0" stroke-width="2" cx="56" cy="-67" r="18"/><text text-anchor="middle" x="56" y="-63.9" font-family="Lato" font-size="12">0</text></g><g class="edge"><path fill="none" stroke="#000" d="M1.123-67h29.801"/><path stroke="#000" d="M37.98-67l-7-3.15 3.5 3.15h-3.5 3.5l-3.5 3.15 7-3.15h0z"/></g><g class="edge"><path fill="none" stroke="#ff4da0" stroke-width="2" d="M49.62-84.037C48.32-93.857 50.446-103 56-103c4.166 0 6.404 5.142 6.713 11.857"/><path fill="#ff4da0" stroke="#ff4da0" stroke-width="2" d="M62.38-84.037l3.474-6.845-2.811 3.372.164-3.496-.5-.024-.499-.023-.164 3.496-2.483-3.62 2.818 7.14h0z"/><text x="52.5" y="-106.4" font-family="Lato" font-size="12">b</text></g><g class="node"><circle fill="#ffffa0" stroke="#000" cx="271" cy="-67" r="18"/><circle fill="none" stroke="#000" cx="271" cy="-67" r="22"/><text text-anchor="middle" x="271" y="-63.9" font-family="Lato" font-size="12">1</text></g><g class="edge"><path fill="none" stroke="#ff4da0" stroke-width="2" d="M73.433-71.696C89.923-75.88 115.438-81.686 138-84c36.137-3.707 77.64 3.423 104.537 9.555"/><path fill="#ff4da0" stroke="#ff4da0" stroke-width="2" d="M249.384-72.834l-6.092-4.67 2.8 3.382-3.407-.802-.115.487-.115.486 3.407.802-4.014 1.778 7.536-1.463h0z"/><text x="144.5" y="-88.4" font-family="Lato" font-size="12">!a &amp; b</text></g><g class="node"><circle fill="#ffffa0" stroke="#000" cx="160" cy="-22" r="18"/><circle fill="none" stroke="#000" cx="160" cy="-22" r="22"/><text text-anchor="middle" x="160" y="-18.9" font-family="Lato" font-size="12">2</text></g><g class="edge"><path fill="none" stroke="#ff4da0" stroke-width="2" d="M72.71-59.77l60.57 26.209"/><path fill="#ff4da0" stroke="#ff4da0" stroke-width="2" d="M139.765-30.756l-5.174-5.67 2.16 3.822-3.212-1.39-.199.459-.198.458 3.212 1.39-4.265 1.042 7.676-.11h0z"/><text x="92" y="-54.4" font-family="Lato" font-size="12">a &amp; b</text></g><g class="edge"><path fill="none" stroke="#000" d="M261.293-86.757C259.643-97.35 262.879-107 271-107c6.218 0 9.572 5.657 10.062 13.062"/><path stroke="#000" d="M280.707-86.757l3.492-6.837-3.319 3.34.173-3.495h0l-.173 3.496-2.973-3.651 2.8 7.147h0z"/><text x="267.5" y="-110.4" font-family="Lato" font-size="12">b</text></g><g class="edge"><path fill="none" stroke="#000" d="M180.618-30.359l63.263-25.647"/><path stroke="#000" d="M250.492-58.686l-7.67-.29 4.427 1.605-3.244 1.315h0l3.244-1.315-2.06 4.234 5.303-5.55h0z"/><text x="200" y="-52.4" font-family="Lato" font-size="12">!a &amp; b</text></g><g class="edge"><path fill="none" stroke="#000" d="M150.293-41.758C148.643-52.35 151.879-62 160-62c6.218 0 9.572 5.657 10.062 13.062"/><path stroke="#000" d="M169.707-41.758l3.492-6.835-3.319 3.34.173-3.496h0l-.173 3.496-2.973-3.651 2.8 7.147h0z"/><text x="156.5" y="-65.4" font-family="Lato" font-size="12">a</text></g></g></svg>