<?xml-stylesheet href="spot.css" type="text/css"?><svg width="298pt" height="276" viewBox="0 0 298 207.4" xmlns="http://www.w3.org/2000/svg"><g class="graph"><path fill="#fff" stroke="transparent" d="M0 207.4V0h298v207.4H0z"/><text x="126" y="-172.8" font-family="Lato" font-size="12" transform="translate(4 203.4)">[Büchi]</text><g class="node" transform="translate(4 203.4)"><circle fill="#ffffa0" stroke="#ff4da0" stroke-width="2" cx="56" cy="-75" r="18"/><text text-anchor="middle" x="56" y="-71.9" font-family="Lato" font-size="12">0</text></g><g class="edge" transform="translate(4 203.4)"><path fill="none" stroke="#000" d="M1.123-75h29.801"/><path stroke="#000" d="M37.98-75l-7-3.15 3.5 3.15h-3.5 3.5l-3.5 3.15 7-3.15h0z"/></g><g class="edge" transform="translate(4 203.4)"><path fill="none" stroke="#ff4da0" stroke-width="2" d="M49.62-92.037C48.32-101.857 50.446-111 56-111c4.166 0 6.404 5.142 6.713 11.857"/><path fill="#ff4da0" stroke="#ff4da0" stroke-width="2" d="M62.38-92.037l3.474-6.845-2.811 3.372.164-3.496-.5-.024-.499-.023-.164 3.496-2.483-3.62 2.818 7.14h0z"/><text x="51" y="-114.4" font-family="Lato" font-size="12">!a</text></g><g class="node" transform="translate(4 203.4)"><circle fill="#ffffa0" stroke="#ff4da0" stroke-width="2" cx="166" cy="-111" r="18"/><text text-anchor="middle" x="166" y="-107.9" font-family="Lato" font-size="12">1</text></g><g class="edge" transform="translate(4 203.4)"><path fill="none" stroke="#000" d="M72.744-81.84C78.774-84.216 85.656-86.827 92-89c16.454-5.635 35.241-11.21 49.768-15.338"/><path stroke="#000" d="M148.529-106.242l-7.592-1.134 4.222 2.083-3.368.949h0l3.369-.95-2.515 3.982 5.883-4.93h0z"/><text x="105.5" y="-103.4" font-family="Lato" font-size="12">a</text></g><g class="node" transform="translate(4 203.4)"><circle fill="#ffffa0" stroke="#000" cx="166" cy="-22" r="18"/><circle fill="none" stroke="#000" cx="166" cy="-22" r="22"/><text text-anchor="middle" x="166" y="-18.9" font-family="Lato" font-size="12">2</text></g><g class="edge" transform="translate(4 203.4)"><path fill="none" stroke="#ff4da0" stroke-width="2" d="M70.623-64.214C76.997-59.789 84.673-54.82 92-51c14.825 7.732 32.194 14.642 46.379 19.775"/><path fill="#ff4da0" stroke="#ff4da0" stroke-width="2" d="M145.06-28.852l-5.541-5.31 2.41 3.668-3.297-1.172-.168.471-.167.472 3.298 1.171-4.185 1.326 7.65-.626h0z"/><text x="104" y="-54.4" font-family="Lato" font-size="12">!a</text></g><g class="edge" transform="translate(4 203.4)"><path fill="none" stroke="#000" d="M153.823-97.064C144.647-86.978 132.558-74.668 126-72c-14.165 5.763-31.3 5.142-45.07 3.017"/><path stroke="#000" d="M73.665-70.286L80-65.95l-2.889-3.719 3.445.618h0l-3.445-.618 4.002-2.482-7.447 1.864h0z"/><text x="92" y="-75.4" font-family="Lato" font-size="12">!a &amp; !b</text></g><g class="edge" transform="translate(4 203.4)"><path fill="none" stroke="#ff4da0" stroke-width="2" d="M157.367-126.916C155.114-137.15 157.992-147 166-147c6.131 0 9.255 5.774 9.372 13.073"/><path fill="#ff4da0" stroke="#ff4da0" stroke-width="2" d="M174.633-126.916l3.866-6.632-3.002 3.204.367-3.481-.498-.053-.497-.052-.366 3.48-2.27-3.757 2.4 7.291h0z"/><text x="155" y="-150.4" font-family="Lato" font-size="12">a | b</text></g><g class="node" transform="translate(4 203.4)"><circle fill="#ffffa0" stroke="#000" cx="268" cy="-111" r="18"/><circle fill="none" stroke="#000" cx="268" cy="-111" r="22"/><text text-anchor="middle" x="268" y="-107.9" font-family="Lato" font-size="12">3</text></g><g class="edge" transform="translate(4 203.4)"><path fill="none" stroke="#ff4da0" stroke-width="2" d="M184.236-111h54.192"/><path fill="#ff4da0" stroke="#ff4da0" stroke-width="2" d="M245.651-111l-7-3.15 3.5 2.65h-3.5v1h3.5l-3.5 2.65 7-3.15h0z"/><text x="206" y="-114.4" font-family="Lato" font-size="12">a | b</text></g><g class="edge" transform="translate(4 203.4)"><path fill="none" stroke="#000" d="M156.955-42.17C155.563-52.599 158.578-62 166-62c5.682 0 8.782 5.51 9.298 12.775"/><path stroke="#000" d="M175.045-42.17l3.399-6.883-3.273 3.386.125-3.498h0l-.125 3.498-3.023-3.61 2.897 7.107h0z"/><text x="161" y="-65.4" font-family="Lato" font-size="12">!a</text></g><g class="edge" transform="translate(4 203.4)"><path fill="none" stroke="#000" d="M258.955-131.17C257.563-141.599 260.578-151 268-151c5.682 0 8.782 5.51 9.298 12.774"/><path stroke="#000" d="M277.045-131.17l3.399-6.883-3.274 3.386.126-3.498h0l-.125 3.498-3.023-3.61 2.897 7.107h0z"/><text x="257" y="-154.4" font-family="Lato" font-size="12">a | b</text></g></g></svg>