<?xml-stylesheet href="spot.css" type="text/css"?><svg width="188pt" height="160" viewBox="0 0 188 119.58" xmlns="http://www.w3.org/2000/svg"><g class="graph" transform="translate(4 115.584)"><path fill="#fff" stroke="transparent" d="M-4 4v-119.584h188V4H-4z"/><text x="71" y="-98.984" font-family="Lato" font-size="12">Fin(</text><text x="91" y="-98.984" font-family="Lato" font-size="12" fill="#1f78b4">⓿</text><text x="105" y="-98.984" font-family="Lato" font-size="12">)</text><text x="62.5" y="-86.984" font-family="Lato" font-size="12">[co-Büchi]</text><g class="node"><circle fill="#ffffa0" stroke="#000" cx="56" cy="-30.584" r="18"/><text text-anchor="middle" x="56" y="-27.484" font-family="Lato" font-size="12">0</text></g><g class="edge"><path fill="none" stroke="#000" d="M1.123-30.584h29.801"/><path stroke="#000" d="M37.98-30.584l-7-3.15 3.5 3.15h-3.5 3.5l-3.5 3.15 7-3.15h0z"/></g><g class="edge"><path fill="none" stroke="#000" d="M49.62-47.621c-1.301-9.82.825-18.963 6.38-18.963 4.166 0 6.404 5.143 6.713 11.857"/><path stroke="#000" d="M62.38-47.621l3.474-6.845-3.31 3.349.164-3.497h0l-.165 3.497-2.982-3.644 2.818 7.14h0z"/><text x="51" y="-69.984" font-family="Lato" font-size="12">!a</text></g><g class="node"><circle fill="#ffffa0" stroke="#000" cx="162" cy="-30.584" r="18"/><text text-anchor="middle" x="162" y="-27.484" font-family="Lato" font-size="12">1</text></g><g class="edge"><path fill="none" stroke="#000" d="M73.927-32.373C79.69-32.87 86.11-33.34 92-33.583c15.098-.629 18.902-.629 34 0 3.59.148 7.375.381 11.089.652"/><path stroke="#000" d="M144.073-32.373l-6.727-3.697 3.238 3.418-3.489-.278h0l3.49.278-3.74 2.862 7.228-2.583h0z"/><text x="105.5" y="-49.984" font-family="Lato" font-size="12">a</text><text x="102" y="-36.984" font-family="Lato" font-size="12" fill="#1f78b4">⓿</text></g><g class="edge"><path fill="none" stroke="#000" d="M149.19-17.762c-6.395 5.5-14.593 11.312-23.19 14.178-14.336 4.779-19.664 4.779-34 0-6.18-2.06-12.152-5.642-17.398-9.536"/><path stroke="#000" d="M68.81-17.762l3.492 6.835-.76-4.646 2.73 2.189h0l-2.73-2.19 4.7-.268-7.432-1.92h0z"/><text x="92" y="-19.984" font-family="Lato" font-size="12">!a &amp; !b</text><text x="102" y="-6.984" font-family="Lato" font-size="12" fill="#1f78b4">⓿</text></g><g class="edge"><path fill="none" stroke="#000" d="M153.021-46.5c-2.342-10.234.65-20.084 8.979-20.084 6.376 0 9.625 5.774 9.746 13.073"/><path stroke="#000" d="M170.979-46.5l3.893-6.615-3.512 3.136.38-3.48h0l-.38 3.48-2.75-3.822 2.369 7.301h0z"/><text x="151" y="-69.984" font-family="Lato" font-size="12">a | b</text></g></g></svg>