<?xml-stylesheet href="spot.css" type="text/css"?><svg width="386pt" height="170pt" viewBox="0 0 386 169.91" xmlns="http://www.w3.org/2000/svg"><g class="graph" transform="translate(4 165.91)"><path fill="#fff" stroke="transparent" d="M-4 4v-169.91h386V4H-4z"/><text x="170" y="-135.31" font-family="Lato" font-size="12">[Büchi]</text><g class="node"><circle fill="#ffffa0" stroke="#000" cx="56" cy="-80.51" r="18"/><text text-anchor="middle" x="56" y="-77.409" font-family="Lato" font-size="12">2</text></g><g class="edge"><path fill="none" stroke="#000" d="M1.123-80.51h29.801"/><path stroke="#000" d="M37.98-80.51l-7-3.15 3.5 3.15h-3.5 3.5l-3.5 3.15 7-3.15h0z"/></g><g class="node"><circle fill="#ffffa0" stroke="#000" cx="356" cy="-43.51" r="18"/><circle fill="none" stroke="#000" cx="356" cy="-43.51" r="22"/><text text-anchor="middle" x="356" y="-40.41" font-family="Lato" font-size="12">1</text></g><g class="edge"><path fill="none" stroke="#000" d="M72.931-86.958C112.572-101.019 213.88-130.915 291-101.51c18.424 7.026 34.941 21.938 46.715 34.883"/><path stroke="#000" d="M342.462-61.23l-2.257-7.336-.055 4.709-2.31-2.629h0l2.31 2.629-4.676-.549 6.988 3.177h0z"/><text x="206" y="-116.909" font-family="Lato" font-size="12">a &amp; b</text></g><g class="node"><circle fill="#ffffa0" stroke="#000" cx="163" cy="-39.51" r="18"/><circle fill="none" stroke="#000" cx="163" cy="-39.51" r="22"/><text text-anchor="middle" x="163" y="-36.41" font-family="Lato" font-size="12">3</text></g><g class="edge"><path fill="none" stroke="#000" d="M73.191-73.922l62.319 23.879"/><path stroke="#000" d="M142.18-47.487l-5.409-5.446 2.142 4.194-3.269-1.253h0l3.269 1.253-4.396 1.689 7.664-.437h0z"/><text x="92" y="-68.909" font-family="Lato" font-size="12">!a &amp; b</text></g><g class="node"><circle fill="#ffffa0" stroke="#000" cx="273" cy="-43.51" r="18"/><text text-anchor="middle" x="273" y="-40.41" font-family="Lato" font-size="12">0</text></g><g class="edge"><path fill="none" stroke="#000" d="M266.266-60.547c-1.374-9.82.87-18.963 6.734-18.963 4.397 0 6.76 5.143 7.086 11.857"/><path stroke="#000" d="M279.734-60.547l3.492-6.835-3.32 3.34.174-3.496h0l-.173 3.495-2.973-3.651 2.8 7.147h0z"/><text x="268" y="-82.909" font-family="Lato" font-size="12">!a</text></g><g class="edge"><path fill="none" stroke="#000" d="M291.01-43.51h35.696"/><path stroke="#000" d="M333.887-43.51l-7-3.15 3.5 3.15h-3.5 3.5l-3.5 3.15 7-3.15h0z"/><text x="309" y="-46.91" font-family="Lato" font-size="12">a</text></g><g class="edge"><path fill="none" stroke="#000" d="M348.317-64.5c-.948-10.097 1.613-19.01 7.683-19.01 4.553 0 7.131 5.014 7.736 11.78"/><path stroke="#000" d="M363.683-64.5l3.201-6.977L363.71-68l.026-3.5h0l-.026 3.5-3.124-3.523 3.098 7.023h0z"/><text text-anchor="middle" x="356" y="-86.909" font-family="Lato" font-size="12">1</text></g><g class="edge"><path fill="none" stroke="#000" d="M184.996-40.31l62.538-2.273"/><path stroke="#000" d="M254.688-42.844l-7.11-2.893 3.612 3.02-3.497.128h0l3.497-.127-3.383 3.275 6.881-3.403h0z"/><text x="203" y="-44.91" font-family="Lato" font-size="12">!a &amp; !b</text></g><g class="edge"><path fill="none" stroke="#000" d="M181.66-27.674C206.588-13.37 252.13 7.493 291-3.509c15.2-4.303 30.34-13.273 42.178-21.63"/><path stroke="#000" d="M339.051-29.426l-7.51 1.583 4.683.48-2.827 2.064h0l2.827-2.063-.97 4.608 3.797-6.672h0z"/><text x="269.5" y="-6.91" font-family="Lato" font-size="12">a</text></g><g class="edge"><path fill="none" stroke="#000" d="M153.293-59.267c-1.65-10.592 1.586-20.242 9.707-20.242 6.218 0 9.572 5.656 10.062 13.062"/><path stroke="#000" d="M172.707-59.267l3.492-6.836-3.319 3.34.173-3.495h0l-.173 3.495-2.973-3.65 2.8 7.146h0z"/><text x="147.5" y="-82.909" font-family="Lato" font-size="12">!a &amp; b</text></g></g></svg>