<?xml-stylesheet href="spot.css" type="text/css"?><svg width="172pt" height="118pt" viewBox="0 0 172 118.4" xmlns="http://www.w3.org/2000/svg"><g class="graph" transform="translate(4 114.4)"><path fill="#fff" stroke="transparent" d="M-4 4v-118.4h172V4H-4z"/><text x="63" y="-83.8" font-family="Lato" font-size="12">[Büchi]</text><g class="node"><circle fill="#ffffa0" stroke="#000" cx="60" cy="-22" r="18"/><circle fill="none" stroke="#000" cx="60" cy="-22" r="22"/><text text-anchor="middle" x="60" y="-18.9" font-family="Lato" font-size="12">0</text></g><g class="edge"><path fill="none" stroke="#000" d="M1.168-22h29.47"/><path stroke="#000" d="M37.865-22l-7-3.15 3.5 3.15h-3.5 3.5l-3.5 3.15 7-3.15h0z"/></g><g class="edge"><path fill="none" stroke="#000" d="M52.683-42.99C51.78-53.088 54.22-62 60-62c4.336 0 6.792 5.013 7.368 11.78"/><path stroke="#000" d="M67.317-42.99l3.2-6.978-3.175 3.477.024-3.5h0l-.025 3.5-3.125-3.522 3.1 7.022h0z"/><text x="56.5" y="-65.4" font-family="Lato" font-size="12">a</text></g><g class="node"><circle fill="#ffffa0" stroke="#000" cx="146" cy="-22" r="18"/><text text-anchor="middle" x="146" y="-18.9" font-family="Lato" font-size="12">1</text></g><g class="edge"><path fill="none" stroke="#000" d="M82.147-22h38.563"/><path stroke="#000" d="M127.98-22l-7-3.15 3.5 3.15h-3.5 3.5l-3.5 3.15 7-3.15h0z"/><text x="100" y="-25.4" font-family="Lato" font-size="12">!a</text></g><g class="edge"><path fill="none" stroke="#000" d="M130.415-12.8C124.271-9.674 117.015-6.574 110-5c-8.082 1.812-16.687.228-24.44-2.58"/><path stroke="#000" d="M78.72-10.442l5.243 5.607L81.95-9.09l3.228 1.35h0L81.95-9.09l4.444-1.555-7.673.204h0z"/><text x="101.5" y="-8.4" font-family="Lato" font-size="12">a</text></g><g class="edge"><path fill="none" stroke="#000" d="M138.969-38.664C137.406-48.625 139.75-58 146-58c4.688 0 7.178 5.273 7.47 12.112"/><path stroke="#000" d="M153.031-38.664l3.57-6.796-3.357 3.302.212-3.493h0l-.212 3.493-2.932-3.684 2.72 7.178h0z"/><text x="141" y="-61.4" font-family="Lato" font-size="12">!a</text></g></g></svg>