<?xml-stylesheet href="spot.css" type="text/css"?><svg width="164pt" height="332" viewBox="0 0 164 249" xmlns="http://www.w3.org/2000/svg"><g class="graph" transform="translate(4 245)"><path fill="#fff" stroke="transparent" d="M-4 4v-249h164V4H-4z"/><text x="60" y="-228.4" font-family="Lato" font-size="12">Inf(</text><text x="78" y="-228.4" font-family="Lato" font-size="12" fill="#1f78b4">⓿</text><text x="92" y="-228.4" font-family="Lato" font-size="12">)</text><text x="59" y="-216.4" font-family="Lato" font-size="12">[Büchi]</text><g class="node"><circle fill="#ffffa0" stroke="#000" cx="56" cy="-82" r="18"/><text text-anchor="middle" x="56" y="-78.9" font-family="Lato" font-size="12">0</text></g><g class="edge"><path fill="none" stroke="#000" d="M1.123-82h29.801"/><path stroke="#000" d="M37.98-82l-7-3.15 3.5 3.15h-3.5 3.5l-3.5 3.15 7-3.15h0z"/></g><g class="edge"><path fill="none" stroke="#000" d="M49.62-99.037C48.32-108.857 50.446-118 56-118c4.166 0 6.404 5.142 6.713 11.857"/><path stroke="#000" d="M62.38-99.037l3.474-6.845-3.31 3.349.164-3.497h0l-.165 3.496-2.982-3.643 2.818 7.14h0z"/><text x="52.5" y="-121.4" font-family="Lato" font-size="12">1</text></g><g class="node"><circle fill="#ffffa0" stroke="#000" cx="138" cy="-147" r="18"/><text x="134.5" y="-143.9" font-family="Lato" font-size="12">1</text></g><g class="edge"><path fill="none" stroke="#000" d="M70.283-93.322l48.002-38.05"/><path stroke="#000" d="M123.88-135.808l-7.442 1.88 4.7.295-2.743 2.174h0l2.743-2.174-.787 4.642 3.53-6.817h0z"/><text x="92" y="-121.4" font-family="Lato" font-size="12">!a</text></g><g class="node"><circle fill="#ffffa0" stroke="#000" cx="138" cy="-18" r="18"/><text text-anchor="middle" x="138" y="-14.9" font-family="Lato" font-size="12">2</text></g><g class="edge"><path fill="none" stroke="#000" d="M70.283-70.852L118.014-33.6"/><path stroke="#000" d="M123.605-29.235l-3.58-6.79.821 4.637-2.759-2.154h0l2.76 2.154-4.698.33 7.456 1.823h0z"/><text x="93.5" y="-56.4" font-family="Lato" font-size="12">a</text></g><g class="edge"><path fill="none" stroke="#000" d="M130.969-163.664C129.406-173.625 131.75-183 138-183c4.688 0 7.178 5.273 7.47 12.112"/><path stroke="#000" d="M145.031-163.664l3.57-6.796-3.357 3.302.212-3.493h0l-.212 3.493-2.932-3.685 2.72 7.179h0z"/><text x="133" y="-199.4" font-family="Lato" font-size="12">!a</text><text x="131" y="-186.4" font-family="Lato" font-size="12" fill="#1f78b4">⓿</text></g><g class="edge"><path fill="none" stroke="#000" d="M134.405-35.782C133.794-45.315 134.992-54 138-54c2.209 0 3.442 4.684 3.7 10.948"/><path stroke="#000" d="M141.595-35.782l3.25-6.954-3.2 3.455.05-3.5h0l-.05 3.5-3.1-3.545 3.05 7.044h0z"/><text x="122.5" y="-57.4" font-family="Lato" font-size="12">!a &amp; b</text></g><g class="edge"><path fill="none" stroke="#000" d="M132.148-35.142C128.706-52.585 130.656-72 138-72c6.368 0 8.681 14.6 6.938 29.854"/><path stroke="#000" d="M143.852-35.142l4.186-6.434-3.65 2.976.537-3.46h0l-.537 3.46-2.576-3.942 2.04 7.4h0z"/><text x="134.5" y="-88.4" font-family="Lato" font-size="12">a</text><text x="131" y="-75.4" font-family="Lato" font-size="12" fill="#1f78b4">⓿</text></g></g></svg>