<?xml-stylesheet href="spot.css" type="text/css"?><svg width="500pt" height="340pt" viewBox="0 0 500 340" xmlns="http://www.w3.org/2000/svg"><g class="graph" transform="translate(4 336)"><path fill="#fff" stroke="transparent" d="M-4 4v-340h500V4H-4z"/><text x="205" y="-319.4" font-family="Lato" font-size="12">Fin(</text><text x="225" y="-319.4" font-family="Lato" font-size="12" fill="#1f78b4">⓿</text><text x="239" y="-319.4" font-family="Lato" font-size="12">) | Inf(</text><text x="269" y="-319.4" font-family="Lato" font-size="12" fill="#ff4da0">❶</text><text x="283" y="-319.4" font-family="Lato" font-size="12">)</text><text x="219" y="-307.4" font-family="Lato" font-size="12">[Streett 1]</text><g class="node"><path fill="#ffffa0" stroke="#000" d="M62-191H50c-6 0-12 6-12 12v12c0 6 6 12 12 12h12c6 0 12-6 12-12v-12c0-6-6-12-12-12"/><text x="52.5" y="-176.4" font-family="Lato" font-size="12">2</text><text x="49" y="-163.4" font-family="Lato" font-size="12" fill="#ff4da0">❶</text></g><g class="edge"><path fill="none" stroke="#000" d="M1.123-173h29.801"/><path stroke="#000" d="M37.98-173l-7-3.15 3.5 3.15h-3.5 3.5l-3.5 3.15 7-3.15h0z"/></g><g class="node"><path fill="#ffffa0" stroke="#000" d="M165-242h-12c-6 0-12 6-12 12v12c0 6 6 12 12 12h12c6 0 12-6 12-12v-12c0-6-6-12-12-12"/><text x="155.5" y="-227.4" font-family="Lato" font-size="12">1</text><text x="152" y="-214.4" font-family="Lato" font-size="12" fill="#ff4da0">❶</text></g><g class="edge"><path fill="none" stroke="#000" d="M73.936-191.03C79.388-195.765 85.632-200.516 92-204c13.03-7.127 28.908-12.01 41.936-15.165"/><path stroke="#000" d="M140.845-220.744l-7.526-1.511 4.114 2.29-3.413.78h0l3.412-.78-2.71 3.851 6.123-4.63h0z"/><text x="92" y="-218.4" font-family="Lato" font-size="12">a &amp; !b</text></g><g class="edge"><path fill="none" stroke="#000" d="M74.059-173.905c14.083-1.36 33.737-4.738 48.941-13.095 6.362-3.497 12.302-8.485 17.45-13.67"/><path stroke="#000" d="M145.321-205.874l-7.083 2.958 4.691-.403-2.392 2.556h0l2.392-2.556-.092 4.708 2.484-7.263h0z"/><text x="93.5" y="-190.4" font-family="Lato" font-size="12">a &amp; b</text></g><g class="node"><path fill="#ffffa0" stroke="#000" d="M271-152h-12c-6 0-12 6-12 12v12c0 6 6 12 12 12h12c6 0 12-6 12-12v-12c0-6-6-12-12-12"/><text x="261.5" y="-137.4" font-family="Lato" font-size="12">3</text><text x="258" y="-124.4" font-family="Lato" font-size="12" fill="#ff4da0">❶</text></g><g class="edge"><path fill="none" stroke="#000" d="M74.182-169.607l165.564 30.894"/><path stroke="#000" d="M246.711-137.413l-6.303-4.38 2.863 3.738-3.44-.642h0l3.44.642-4.019 2.455 7.46-1.813h0z"/><text x="142" y="-159.4" font-family="Lato" font-size="12">!a &amp; !b</text></g><g class="edge"><path fill="none" stroke="#000" d="M74.054-161.614C90.706-151.832 116.486-138.467 141-133c33.468 7.464 73.29 5.253 98.605 2.517"/><path stroke="#000" d="M246.658-131.3l-7.316-2.324 3.839 2.727-3.477.403h0l3.477-.403-3.114 3.532 6.59-3.935h0z"/><text x="143.5" y="-136.4" font-family="Lato" font-size="12">!a &amp; b</text></g><g class="node"><path fill="#ffffa0" stroke="#000" d="M480-176h-12c-6 0-12 6-12 12v12c0 6 6 12 12 12h12c6 0 12-6 12-12v-12c0-6-6-12-12-12"/><text x="470.5" y="-161.4" font-family="Lato" font-size="12">0</text><text x="467" y="-148.4" font-family="Lato" font-size="12" fill="#ff4da0">❶</text></g><g class="edge"><path fill="none" stroke="#000" d="M471.739-176.153C471.39-185.539 472.145-194 474-194c1.363 0 2.131 4.563 2.305 10.705"/><path stroke="#000" d="M476.261-176.153l3.193-6.98-3.171 3.48.022-3.5h0l-.022 3.5-3.128-3.519 3.106 7.02h0z"/><text x="457" y="-197.4" font-family="Lato" font-size="12">!a &amp; !b</text></g><g class="edge"><path fill="none" stroke="#000" d="M470.21-176.258C468.244-193.402 469.508-212 474-212c3.86 0 5.336 13.735 4.428 28.479"/><path stroke="#000" d="M477.79-176.258l3.75-6.697-3.444 3.21.306-3.486h0l-.306 3.487-2.832-3.762 2.526 7.248h0z"/><text x="458.5" y="-215.4" font-family="Lato" font-size="12">a &amp; !b</text></g><g class="edge"><path fill="none" stroke="#000" d="M469.256-176.078C465.058-200.41 466.639-230 474-230c6.67 0 8.595 24.302 5.773 46.969"/><path stroke="#000" d="M478.744-176.078l4.14-6.464-3.628 3.001.513-3.462h0l-.513 3.462-2.604-3.923 2.092 7.386h0z"/><text x="458.5" y="-233.4" font-family="Lato" font-size="12">!a &amp; b</text></g><g class="edge"><path fill="none" stroke="#000" d="M468.567-176.112C461.887-207.24 463.697-248 474-248c9.538 0 11.798 34.934 6.78 64.818"/><path stroke="#000" d="M479.433-176.112l4.405-6.287-3.75 2.849.655-3.439h0l-.655 3.439-2.439-4.028 1.784 7.466h0z"/><text x="460" y="-251.4" font-family="Lato" font-size="12">a &amp; b</text></g><g class="edge"><path fill="none" stroke="#000" d="M177.231-231.695C224.776-250.442 354.634-293.058 438-238c18.4 12.152 27.502 36.147 31.938 54.702"/><path stroke="#000" d="M471.469-176.237l1.595-7.508-2.337 4.088-.741-3.42h0l.741 3.42-3.82-2.753 4.562 6.173h0z"/><text x="302.5" y="-268.4" font-family="Lato" font-size="12">!a &amp; b</text></g><g class="edge"><path fill="none" stroke="#000" d="M177.266-222.034C222.291-216.893 341.918-201.442 438-173c3.733 1.105 7.605 2.47 11.366 3.923"/><path stroke="#000" d="M455.96-166.404l-5.304-5.549 2.06 4.234-3.243-1.314h0l3.244 1.314-4.427 1.605 7.67-.29h0z"/><text x="304" y="-206.4" font-family="Lato" font-size="12">a &amp; b</text></g><g class="edge"><path fill="none" stroke="#000" d="M149.955-242.153C148.563-251.539 151.578-260 159-260c5.45 0 8.524 4.563 9.222 10.705"/><path stroke="#000" d="M168.045-242.153l3.322-6.92-3.235 3.421.086-3.499h0l-.086 3.5-3.063-3.577 2.976 7.075h0z"/><text x="143.5" y="-263.4" font-family="Lato" font-size="12">a &amp; !b</text></g><g class="edge"><path fill="none" stroke="#000" d="M177.277-210.269C197.204-195.282 226.601-173.119 229-171c4.731 4.18 9.584 8.86 14.134 13.45"/><path stroke="#000" d="M248.31-152.24l-2.63-7.211.187 4.705-2.443-2.506h0l2.443 2.506-4.699-.308 7.142 2.814h0z"/><text x="195" y="-198.4" font-family="Lato" font-size="12">!a &amp; !b</text></g><g class="edge"><path fill="none" stroke="#000" d="M283.341-142.406c5.561-2.199 11.762-4.31 17.659-5.594 51.516-11.213 113.572-11.76 147.596-10.99"/><path stroke="#000" d="M455.818-158.797l-6.914-3.336 3.415 3.243-3.499-.094h0l3.499.094-3.583 3.055 7.082-2.962h0z"/><text x="355.5" y="-161.4" font-family="Lato" font-size="12">!a &amp; b</text></g><g class="edge"><path fill="none" stroke="#000" d="M283.163-133.462c24.245.463 68.47.41 105.837-4.538 20.514-2.717 43.318-8.222 60.137-12.77"/><path stroke="#000" d="M455.955-152.65l-7.585-1.176 4.21 2.106-3.373.93h0l3.374-.93-2.537 3.967 5.911-4.897h0z"/><text x="357" y="-141.4" font-family="Lato" font-size="12">a &amp; b</text></g><g class="node"><path fill="#ffffa0" stroke="#000" d="M377-36h-12c-6 0-12 6-12 12v12c0 6 6 12 12 12h12c6 0 12-6 12-12v-12c0-6-6-12-12-12"/><text x="367.5" y="-21.4" font-family="Lato" font-size="12">4</text><text x="364" y="-8.4" font-family="Lato" font-size="12" fill="#1f78b4">⓿</text></g><g class="edge"><path fill="none" stroke="#000" d="M281.563-115.875l67.75 74.143"/><path stroke="#000" d="M354.204-36.38l-2.397-7.293.036 4.709-2.361-2.584h0l2.361 2.584-4.686-.46 7.047 3.044h0z"/><text x="301" y="-97.4" font-family="Lato" font-size="12">!a &amp; !b</text></g><g class="edge"><path fill="none" stroke="#000" d="M267.462-115.928C271.192-95.327 280.195-61.935 301-42c12.117 11.61 30.094 17.621 44.795 20.723"/><path stroke="#000" d="M352.71-19.975l-6.297-4.39 2.857 3.742-3.44-.647h0l3.44.647-4.022 2.449 7.461-1.801h0z"/><text x="302.5" y="-45.4" font-family="Lato" font-size="12">a &amp; !b</text></g><g class="edge"><path fill="none" stroke="#000" d="M385.024-36.286C398.695-54.194 419.998-82.308 438-107c6.433-8.823 13.378-18.6 19.436-27.215"/><path stroke="#000" d="M461.471-139.966l-6.599 3.92 4.59-1.055-2.01 2.865h0l2.01-2.865.568 4.674 1.441-7.54h0z"/><text x="407" y="-110.4" font-family="Lato" font-size="12">!a &amp; b</text></g><g class="edge"><path fill="none" stroke="#000" d="M389.067-22.077C404.124-26.366 425.12-34.556 438-49c21.035-23.59 29.824-59.784 33.467-83.913"/><path stroke="#000" d="M472.44-139.986l-4.075 6.505 3.598-3.038-.477 3.467h0l.477-3.467 2.643 3.897-2.166-7.364h0z"/><text x="408.5" y="-52.4" font-family="Lato" font-size="12">a &amp; b</text></g><g class="edge"><path fill="none" stroke="#000" d="M366.477-36.153C365.782-45.539 367.29-54 371-54c2.725 0 4.262 4.563 4.61 10.705"/><path stroke="#000" d="M375.523-36.153l3.236-6.96-3.193 3.46.043-3.5h0l-.043 3.5-3.107-3.538 3.064 7.038h0z"/><text x="354" y="-57.4" font-family="Lato" font-size="12">!a &amp; !b</text></g><g class="edge"><path fill="none" stroke="#000" d="M363.42-36.258C359.488-53.402 362.015-72 371-72c7.72 0 10.673 13.735 8.856 28.479"/><path stroke="#000" d="M378.58-36.258l4.314-6.35-3.708 2.903.605-3.447h0l-.605 3.447-2.498-3.992 1.893 7.44h0z"/><text x="355.5" y="-75.4" font-family="Lato" font-size="12">a &amp; !b</text></g></g></svg>