<?xml-stylesheet href="spot.css" type="text/css"?><svg width="280pt" height="157pt" viewBox="0 0 280 157.4" xmlns="http://www.w3.org/2000/svg"><g class="graph" transform="translate(4 153.4)"><path fill="#fff" stroke="transparent" d="M-4 4v-157.4h280V4H-4z"/><text x="117" y="-122.8" font-family="Lato" font-size="12">[Büchi]</text><g class="node"><circle fill="#ffffa0" stroke="#ff4da0" stroke-width="2" cx="60" cy="-61" r="18"/><circle fill="none" stroke="#ff4da0" stroke-width="2" cx="60" cy="-61" r="22"/><text text-anchor="middle" x="60" y="-57.9" font-family="Lato" font-size="12">0</text></g><g class="edge"><path fill="none" stroke="#000" d="M1.168-61h29.47"/><path stroke="#000" d="M37.865-61l-7-3.15 3.5 3.15h-3.5 3.5l-3.5 3.15 7-3.15h0z"/></g><g class="edge"><path fill="none" stroke="#ff4da0" stroke-width="2" d="M52.683-81.99C51.78-92.088 54.22-101 60-101c4.336 0 6.792 5.013 7.368 11.78"/><path fill="#ff4da0" stroke="#ff4da0" stroke-width="2" d="M67.317-81.99l3.2-6.978-2.675 3.48.024-3.5-.5-.003-.5-.003-.024 3.5-2.626-3.519 3.1 7.022h0z"/><text x="44.5" y="-104.4" font-family="Lato" font-size="12">!a &amp; b</text></g><g class="node"><circle fill="#ffffa0" stroke="#000" cx="250" cy="-61" r="18"/><circle fill="none" stroke="#000" cx="250" cy="-61" r="22"/><text text-anchor="middle" x="250" y="-57.9" font-family="Lato" font-size="12">1</text></g><g class="edge"><path fill="none" stroke="#000" d="M81.67-66.676C106.59-72.489 148.732-80.13 185-76c12.293 1.4 25.645 4.244 37.032 7.082"/><path stroke="#000" d="M228.84-67.164l-5.992-4.796 2.603 3.923-3.39-.873h0l3.39.873-4.175 2.177 7.564-1.304h0z"/><text x="153" y="-80.4" font-family="Lato" font-size="12">a &amp; b</text></g><g class="node"><circle fill="#ffffa0" stroke="#000" cx="167" cy="-18" r="18"/><text text-anchor="middle" x="167" y="-14.9" font-family="Lato" font-size="12">2</text></g><g class="edge"><path fill="none" stroke="#ff4da0" stroke-width="2" d="M80.63-52.71l63.101 25.359"/><path fill="#ff4da0" stroke="#ff4da0" stroke-width="2" d="M150.296-24.713l-5.32-5.533 2.259 3.764-3.248-1.305-.186.464-.187.464 3.248 1.305-4.236 1.154 7.67-.313h0z"/><text x="100" y="-47.4" font-family="Lato" font-size="12">!a &amp; b</text></g><g class="edge"><path fill="none" stroke="#000" d="M242.317-81.99C241.37-92.088 243.93-101 250-101c4.553 0 7.131 5.013 7.736 11.78"/><path stroke="#000" d="M257.683-81.99l3.201-6.977-3.175 3.476.026-3.5h0l-.026 3.5-3.124-3.523 3.098 7.023h0z"/><text text-anchor="middle" x="250" y="-104.4" font-family="Lato" font-size="12">1</text></g><g class="edge"><path fill="none" stroke="#000" d="M183.003-26.29c11.578-6 27.48-14.237 40.885-21.182"/><path stroke="#000" d="M230.238-50.762l-7.664.423 4.556 1.187-3.107 1.61h0l3.107-1.61-1.658 4.407 4.766-6.017h0z"/><text x="203" y="-42.4" font-family="Lato" font-size="12">a</text></g><g class="edge"><path fill="none" stroke="#000" d="M160.266-35.037C158.892-44.857 161.136-54 167-54c4.398 0 6.76 5.142 7.086 11.857"/><path stroke="#000" d="M173.734-35.037l3.492-6.836-3.32 3.34.174-3.496h0l-.173 3.496-2.973-3.652 2.8 7.148h0z"/><text x="162" y="-57.4" font-family="Lato" font-size="12">!a</text></g></g></svg>