<?xml-stylesheet href="spot.css" type="text/css"?><svg width="388" height="182pt" viewBox="0 0 291 182.36" xmlns="http://www.w3.org/2000/svg"><g class="graph" transform="translate(4 178.362)"><path fill="#fff" stroke="transparent" d="M-4 4v-182.362h291V4H-4z"/><text x="123.5" y="-161.762" font-family="Lato" font-size="12">Inf(</text><text x="141.5" y="-161.762" font-family="Lato" font-size="12" fill="#1f78b4">⓿</text><text x="155.5" y="-161.762" font-family="Lato" font-size="12">)</text><text x="122.5" y="-149.762" font-family="Lato" font-size="12">[Büchi]</text><g class="node"><circle fill="#ffffa0" stroke="#000" cx="56" cy="-64.362" r="18"/><text text-anchor="middle" x="56" y="-61.262" font-family="Lato" font-size="12">0</text></g><g class="edge"><path fill="none" stroke="#000" d="M1.123-64.362h29.801"/><path stroke="#000" d="M37.98-64.362l-7-3.15 3.5 3.15h-3.5 3.5l-3.5 3.15 7-3.15h0z"/></g><g class="edge"><path fill="none" stroke="#000" d="M49.62-81.399c-1.301-9.82.825-18.963 6.38-18.963 4.166 0 6.404 5.143 6.713 11.857"/><path stroke="#000" d="M62.38-81.399l3.474-6.845-3.31 3.349.164-3.496h0l-.165 3.496-2.982-3.644 2.818 7.14h0z"/><text x="52.5" y="-116.762" font-family="Lato" font-size="12">a</text><text x="49" y="-103.762" font-family="Lato" font-size="12" fill="#1f78b4">⓿</text></g><g class="node"><circle fill="#ffffa0" stroke="#000" cx="265" cy="-55.362" r="18"/><text text-anchor="middle" x="265" y="-52.262" font-family="Lato" font-size="12">1</text></g><g class="edge"><path fill="none" stroke="#000" d="M67.882-77.931c21.147-22.412 67.052-63.285 109.118-48.43 28.77 10.158 55.044 34.154 71.248 51.44"/><path stroke="#000" d="M253.346-69.346l-2.4-7.292.038 4.709-2.362-2.583h0l2.362 2.583-4.687-.458 7.049 3.04h0z"/><text x="142" y="-132.762" font-family="Lato" font-size="12">!a &amp; !b</text></g><g class="node"><circle fill="#ffffa0" stroke="#000" cx="159" cy="-55.362" r="18"/><text text-anchor="middle" x="159" y="-52.262" font-family="Lato" font-size="12">2</text></g><g class="edge"><path fill="none" stroke="#000" d="M74.031-67.158c13.554-1.622 32.534-2.87 48.969-.204 4.083.663 8.328 1.722 12.41 2.944"/><path stroke="#000" d="M142.07-62.25l-5.68-5.163 2.352 4.08-3.328-1.084h0l3.328 1.083-4.303 1.912 7.632-.829h0z"/><text x="92" y="-71.762" font-family="Lato" font-size="12">!a &amp; b</text></g><g class="edge"><path fill="none" stroke="#000" d="M251.697-43.134C229.475-24.228 183.087 8.816 141-2.362c-26.963-7.16-52.009-27.846-67.828-43.369"/><path stroke="#000" d="M68.172-50.77l2.695 7.188-.23-4.704 2.466 2.485h0l-2.466-2.485 4.702.266-7.167-2.75h0z"/><text x="155.5" y="-18.762" font-family="Lato" font-size="12">a</text><text x="152" y="-5.762" font-family="Lato" font-size="12" fill="#1f78b4">⓿</text></g><g class="edge"><path fill="none" stroke="#000" d="M256.021-71.278c-2.342-10.234.65-20.084 8.979-20.084 6.376 0 9.625 5.774 9.747 13.073"/><path stroke="#000" d="M273.979-71.278l3.893-6.615-3.512 3.136.38-3.48h0l-.38 3.48-2.75-3.822 2.369 7.301h0z"/><text x="260" y="-94.762" font-family="Lato" font-size="12">!a</text></g><g class="edge"><path fill="none" stroke="#000" d="M143.477-45.626c-6.137 3.31-13.404 6.595-20.477 8.264-13.41 3.166-17.93 4.357-31 0-6.18-2.06-12.152-5.642-17.398-9.536"/><path stroke="#000" d="M68.81-51.54l3.492 6.836-.76-4.647 2.73 2.189h0l-2.73-2.19 4.7-.268-7.432-1.92h0z"/><text x="104" y="-53.762" font-family="Lato" font-size="12">a</text><text x="100.5" y="-40.762" font-family="Lato" font-size="12" fill="#1f78b4">⓿</text></g><g class="edge"><path fill="none" stroke="#000" d="M177.464-55.362h62.051"/><path stroke="#000" d="M246.748-55.362l-7-3.15 3.5 3.15h-3.5 3.5l-3.5 3.15 7-3.15h0z"/><text x="195" y="-58.762" font-family="Lato" font-size="12">!a &amp; !b</text></g><g class="edge"><path fill="none" stroke="#000" d="M150.367-71.278c-2.253-10.234.625-20.084 8.633-20.084 6.131 0 9.255 5.774 9.372 13.073"/><path stroke="#000" d="M167.633-71.278l3.866-6.631L168-74.76l.367-3.48h0L168-74.76l-2.766-3.81 2.4 7.291h0z"/><text x="143.5" y="-107.762" font-family="Lato" font-size="12">!a &amp; b</text><text x="152" y="-94.762" font-family="Lato" font-size="12" fill="#1f78b4">⓿</text></g></g></svg>