<?xml-stylesheet href="spot.css" type="text/css"?><svg width="380" height="109pt" viewBox="0 0 285 109" xmlns="http://www.w3.org/2000/svg"><g class="graph" transform="translate(4 105)"><path fill="#fff" stroke="transparent" d="M-4 4v-109h285V4H-4z"/><text x="136" y="-87.4" font-family="Lato" font-size="12">t</text><text x="128.5" y="-74.4" font-family="Lato" font-size="12">[all]</text><g class="node"><circle fill="#ffffa0" stroke="#ff4da0" stroke-width="2" cx="56" cy="-18" r="18"/><text text-anchor="middle" x="56" y="-14.9" font-family="Lato" font-size="12">0</text></g><g class="edge"><path fill="none" stroke="#000" d="M1.123-18h29.801"/><path stroke="#000" d="M37.98-18l-7-3.15 3.5 3.15h-3.5 3.5l-3.5 3.15 7-3.15h0z"/></g><g class="edge"><path fill="none" stroke="#ff4da0" stroke-width="2" d="M49.62-35.037C48.32-44.857 50.446-54 56-54c4.166 0 6.404 5.142 6.713 11.857"/><path fill="#ff4da0" stroke="#ff4da0" stroke-width="2" d="M62.38-35.037l3.474-6.845-2.811 3.372.164-3.496-.5-.024-.499-.023-.164 3.496-2.483-3.62 2.818 7.14h0z"/><text x="52.5" y="-57.4" font-family="Lato" font-size="12">b</text></g><g class="node"><circle fill="#ffffa0" stroke="#000" cx="156" cy="-18" r="18"/><text text-anchor="middle" x="156" y="-14.9" font-family="Lato" font-size="12">2</text></g><g class="edge"><path fill="none" stroke="#ff4da0" stroke-width="2" d="M74.341-18h56.28"/><path fill="#ff4da0" stroke="#ff4da0" stroke-width="2" d="M137.775-18l-7-3.15 3.5 2.65h-3.5v1h3.5l-3.5 2.65 7-3.15h0z"/><text x="92" y="-21.4" font-family="Lato" font-size="12">a &amp; b</text></g><g class="edge"><path fill="none" stroke="#000" d="M147.367-33.916C145.114-44.15 147.992-54 156-54c6.131 0 9.255 5.774 9.372 13.073"/><path stroke="#000" d="M164.633-33.916l3.866-6.632L165-37.397l.367-3.48h0l-.367 3.48-2.766-3.81 2.4 7.291h0z"/><text x="152.5" y="-57.4" font-family="Lato" font-size="12">a</text></g><g class="node"><circle fill="#ffffa0" stroke="#000" cx="259" cy="-18" r="18"/><text text-anchor="middle" x="259" y="-14.9" font-family="Lato" font-size="12">1</text></g><g class="edge"><path fill="none" stroke="#000" d="M174.414-18h58.884"/><path stroke="#000" d="M240.745-18l-7-3.15 3.5 3.15h-3.5 3.5l-3.5 3.15 7-3.15h0z"/><text x="192" y="-21.4" font-family="Lato" font-size="12">!a &amp; b</text></g><g class="edge"><path fill="none" stroke="#000" d="M250.367-33.916C248.114-44.15 250.992-54 259-54c6.131 0 9.255 5.774 9.372 13.073"/><path stroke="#000" d="M267.633-33.916l3.866-6.632L268-37.397l.366-3.48h0l-.366 3.48-2.766-3.81 2.4 7.291h0z"/><text x="255.5" y="-57.4" font-family="Lato" font-size="12">b</text></g></g></svg>