<?xml-stylesheet href="spot.css" type="text/css"?><svg width="185pt" height="205pt" viewBox="0 0 185 205" xmlns="http://www.w3.org/2000/svg"><g class="graph" transform="translate(4 201)"><path fill="#fff" stroke="transparent" d="M-4 4v-205h185V4H-4z"/><text x="70.5" y="-184.4" font-family="Lato" font-size="12">Inf(</text><text x="88.5" y="-184.4" font-family="Lato" font-size="12" fill="#1f78b4">⓿</text><text x="102.5" y="-184.4" font-family="Lato" font-size="12">)</text><text x="69.5" y="-172.4" font-family="Lato" font-size="12">[Büchi]</text><g class="node"><circle fill="#ffffa0" stroke="#ff4da0" stroke-width="2" cx="56" cy="-67" r="18"/><text text-anchor="middle" x="56" y="-63.9" font-family="Lato" font-size="12">0</text></g><g class="edge"><path fill="none" stroke="#000" d="M1.123-67h29.801"/><path stroke="#000" d="M37.98-67l-7-3.15 3.5 3.15h-3.5 3.5l-3.5 3.15 7-3.15h0z"/></g><g class="edge"><path fill="none" stroke="#000" d="M49.62-84.037C48.32-93.857 50.446-103 56-103c4.166 0 6.404 5.142 6.713 11.857"/><path stroke="#000" d="M62.38-84.037l3.474-6.845-3.31 3.349.164-3.497h0l-.165 3.496-2.982-3.643 2.818 7.14h0z"/><text x="52.5" y="-119.4" font-family="Lato" font-size="12">a</text><text x="49" y="-106.4" font-family="Lato" font-size="12" fill="#1f78b4">⓿</text></g><g class="node"><circle fill="#ffffa0" stroke="#000" cx="159" cy="-103" r="18"/><text text-anchor="middle" x="159" y="-99.9" font-family="Lato" font-size="12">1</text></g><g class="edge"><path fill="none" stroke="#ff4da0" stroke-width="2" d="M72.78-73.74C78.812-76.107 85.686-78.738 92-81c14.1-5.053 30.026-10.3 42.812-14.403"/><path fill="#ff4da0" stroke="#ff4da0" stroke-width="2" d="M141.56-97.556l-7.626-.874 4.14 1.461-3.335 1.064.152.477.152.476 3.335-1.064-2.53 3.589 5.712-5.129h0z"/><text x="92" y="-94.4" font-family="Lato" font-size="12">!a &amp; b</text></g><g class="node"><circle fill="#ffffa0" stroke="#000" cx="159" cy="-18" r="18"/><text text-anchor="middle" x="159" y="-14.9" font-family="Lato" font-size="12">2</text></g><g class="edge"><path fill="none" stroke="#ff4da0" stroke-width="2" d="M73.7-62.88C87.585-59.254 107.148-53.26 123-45c5.677 2.958 11.408 6.789 16.577 10.63"/><path fill="#ff4da0" stroke="#ff4da0" stroke-width="2" d="M145.349-29.907l-3.611-6.774 1.148 4.238-2.77-2.141-.305.395-.306.396 2.77 2.14-4.39-.044 7.464 1.79h0z"/><text x="102.5" y="-60.4" font-family="Lato" font-size="12">!a</text></g><g class="edge"><path fill="none" stroke="#000" d="M150.367-118.916C148.114-129.15 150.992-139 159-139c6.131 0 9.255 5.774 9.372 13.073"/><path stroke="#000" d="M167.633-118.916l3.866-6.632-3.499 3.151.367-3.48h0l-.367 3.48-2.766-3.81 2.4 7.291h0z"/><text x="155.5" y="-155.4" font-family="Lato" font-size="12">b</text><text x="152" y="-142.4" font-family="Lato" font-size="12" fill="#1f78b4">⓿</text></g><g class="edge"><path fill="none" stroke="#000" d="M141.724-12.646C127.544-9.286 107.367-6.948 92-15c-11.598-6.077-20.203-17.776-26.086-28.54"/><path stroke="#000" d="M62.6-50.063l.362 7.667 1.224-4.547 1.585 3.12h0l-1.585-3.12 4.393 1.694-5.979-4.814h0z"/><text x="104" y="-31.4" font-family="Lato" font-size="12">a</text><text x="100.5" y="-18.4" font-family="Lato" font-size="12" fill="#1f78b4">⓿</text></g><g class="edge"><path fill="none" stroke="#000" d="M150.367-33.916C148.114-44.15 150.992-54 159-54c6.131 0 9.255 5.774 9.372 13.073"/><path stroke="#000" d="M167.633-33.916l3.866-6.632L168-37.397l.367-3.48h0l-.367 3.48-2.766-3.81 2.4 7.291h0z"/><text x="154" y="-57.4" font-family="Lato" font-size="12">!a</text></g></g></svg>