<?xml-stylesheet href="spot.css" type="text/css"?><svg width="564" height="118pt" viewBox="0 0 423 118.4" xmlns="http://www.w3.org/2000/svg"><g class="graph" transform="translate(4 114.4)"><path fill="#fff" stroke="transparent" d="M-4 4v-118.4h423V4H-4z"/><text x="188.5" y="-83.8" font-family="Lato" font-size="12">[Büchi]</text><g class="node"><circle fill="#ffffa0" stroke="#000" cx="60" cy="-22" r="18"/><circle fill="none" stroke="#000" cx="60" cy="-22" r="22"/><text text-anchor="middle" x="60" y="-18.9" font-family="Lato" font-size="12">2</text></g><g class="edge"><path fill="none" stroke="#000" d="M1.168-22h29.47"/><path stroke="#000" d="M37.865-22l-7-3.15 3.5 3.15h-3.5 3.5l-3.5 3.15 7-3.15h0z"/></g><g class="edge"><path fill="none" stroke="#000" d="M52.683-42.99C51.78-53.088 54.22-62 60-62c4.336 0 6.792 5.013 7.368 11.78"/><path stroke="#000" d="M67.317-42.99l3.2-6.978-3.175 3.477.024-3.5h0l-.025 3.5-3.125-3.522 3.1 7.022h0z"/><text x="44.5" y="-65.4" font-family="Lato" font-size="12">!a &amp; b</text></g><g class="node"><circle fill="#ffffa0" stroke="#000" cx="171" cy="-22" r="18"/><circle fill="none" stroke="#000" cx="171" cy="-22" r="22"/><text text-anchor="middle" x="171" y="-18.9" font-family="Lato" font-size="12">1</text></g><g class="edge"><path fill="none" stroke="#000" d="M82.196-22h59.518"/><path stroke="#000" d="M148.843-22l-7-3.15 3.5 3.15h-3.5 3.5l-3.5 3.15 7-3.15h0z"/><text x="101.5" y="-25.4" font-family="Lato" font-size="12">a &amp; b</text></g><g class="node"><circle fill="#ffffa0" stroke="#000" cx="393" cy="-22" r="18"/><circle fill="none" stroke="#000" cx="393" cy="-22" r="22"/><text text-anchor="middle" x="393" y="-18.9" font-family="Lato" font-size="12">0</text></g><g class="edge"><path fill="none" stroke="#000" d="M383.293-41.758C381.643-52.35 384.879-62 393-62c6.218 0 9.572 5.657 10.062 13.062"/><path stroke="#000" d="M402.707-41.758l3.492-6.835-3.319 3.34.173-3.496h0l-.173 3.496-2.973-3.651 2.8 7.147h0z"/><text x="389.5" y="-65.4" font-family="Lato" font-size="12">b</text></g><g class="edge"><path fill="none" stroke="#000" d="M151.16-11.714C144.88-8.971 137.802-6.385 131-5c-13.5 2.75-17.5 2.75-31 0-4.464-.91-9.047-2.335-13.445-3.983"/><path stroke="#000" d="M79.84-11.714l5.297 5.555-2.055-4.237 3.242 1.319h0l-3.242-1.319 4.43-1.6-7.672.282h0z"/><text x="100" y="-8.4" font-family="Lato" font-size="12">!a &amp; b</text></g><g class="edge"><path fill="none" stroke="#000" d="M161.293-41.758C159.643-52.35 162.879-62 171-62c6.218 0 9.572 5.657 10.062 13.062"/><path stroke="#000" d="M180.707-41.758l3.492-6.835-3.319 3.34.173-3.496h0l-.173 3.496-2.973-3.651 2.8 7.147h0z"/><text x="157" y="-65.4" font-family="Lato" font-size="12">a &amp; b</text></g><g class="node"><circle fill="#ffffa0" stroke="#000" cx="282" cy="-22" r="18"/><circle fill="none" stroke="#000" cx="282" cy="-22" r="22"/><text text-anchor="middle" x="282" y="-18.9" font-family="Lato" font-size="12">3</text></g><g class="edge"><path fill="none" stroke="#000" d="M193.196-22h59.518"/><path stroke="#000" d="M259.843-22l-7-3.15 3.5 3.15h-3.5 3.5l-3.5 3.15 7-3.15h0z"/><text x="211" y="-25.4" font-family="Lato" font-size="12">a &amp; !b</text></g><g class="edge"><path fill="none" stroke="#000" d="M304.196-22h59.518"/><path stroke="#000" d="M370.843-22l-7-3.15 3.5 3.15h-3.5 3.5l-3.5 3.15 7-3.15h0z"/><text x="322" y="-25.4" font-family="Lato" font-size="12">!a &amp; b</text></g><g class="edge"><path fill="none" stroke="#000" d="M272.293-41.758C270.643-52.35 273.879-62 282-62c6.218 0 9.572 5.657 10.062 13.062"/><path stroke="#000" d="M291.707-41.758l3.492-6.835-3.319 3.34.173-3.496h0l-.173 3.496-2.973-3.651 2.8 7.147h0z"/><text x="278.5" y="-65.4" font-family="Lato" font-size="12">a</text></g></g></svg>