<?xml-stylesheet href="spot.css" type="text/css"?><svg width="413pt" height="200pt" viewBox="0 0 413 199.53" xmlns="http://www.w3.org/2000/svg"><g class="graph"><path fill="#fff" stroke="transparent" d="M0 199.532V0h413v199.532H0z"/><text x="183.5" y="-164.932" font-family="Lato" font-size="12" transform="translate(4 195.532)">[Büchi]</text><g class="node" transform="translate(4 195.532)"><circle fill="#ffffa0" stroke="#000" cx="60" cy="-74.132" r="18"/><circle fill="none" stroke="#000" cx="60" cy="-74.132" r="22"/><text text-anchor="middle" x="60" y="-71.032" font-family="Lato" font-size="12">0</text></g><g class="edge" transform="translate(4 195.532)"><path fill="none" stroke="#000" d="M1.168-74.132h29.47"/><path stroke="#000" d="M37.865-74.132l-7-3.15 3.5 3.15h-3.5 3.5l-3.5 3.15 7-3.15h0z"/></g><g class="edge" transform="translate(4 195.532)"><path fill="none" stroke="#000" d="M52.683-95.123c-.903-10.096 1.536-19.009 7.317-19.009 4.336 0 6.792 5.014 7.368 11.78"/><path stroke="#000" d="M67.317-95.123l3.2-6.977-3.175 3.478.024-3.5h0l-.025 3.5-3.125-3.522 3.1 7.022h0z"/><text x="56.5" y="-117.532" font-family="Lato" font-size="12">a</text></g><g class="node" transform="translate(4 195.532)"><circle fill="#ffffa0" stroke="#000" cx="387" cy="-107.132" r="18"/><text text-anchor="middle" x="387" y="-104.032" font-family="Lato" font-size="12">1</text></g><g class="edge" transform="translate(4 195.532)"><path fill="none" stroke="#000" d="M74.361-90.833c7.134-7.546 16.229-16.132 25.639-22.299 19.674-12.893 25.918-15.47 49-20 46.77-9.177 91.31-10.864 202 13 4.161.897 8.494 2.16 12.653 3.548"/><path stroke="#000" d="M370.424-114.17l-5.536-5.318 2.24 4.142-3.297-1.174h0l3.296 1.174-4.354 1.793 7.651-.617h0z"/><text x="203" y="-142.532" font-family="Lato" font-size="12">!a &amp; !b</text></g><g class="node" transform="translate(4 195.532)"><circle fill="#ffffa0" stroke="#000" cx="167" cy="-106.132" r="18"/><text text-anchor="middle" x="167" y="-103.032" font-family="Lato" font-size="12">2</text></g><g class="edge" transform="translate(4 195.532)"><path fill="none" stroke="#000" d="M81.843-70.666c14.423 1.39 33.481 1.48 49.157-4.466 6.94-2.632 13.45-7.245 18.975-12.12"/><path stroke="#000" d="M155.15-92.152l-7.249 2.525 4.707-.119-2.541 2.406h0l2.541-2.406-.376 4.694 2.918-7.1h0z"/><text x="100" y="-78.532" font-family="Lato" font-size="12">!a &amp; b</text></g><g class="edge" transform="translate(4 195.532)"><path fill="none" stroke="#000" d="M378.557-91.089C365.269-67.849 337.023-25.88 299-10.132 223.54 21.125 128.32-29.36 84.328-57.402"/><path stroke="#000" d="M78.217-61.363l4.16 6.451-1.223-4.547 2.936 1.904h0l-2.936-1.904 4.65-.74-7.587-1.164h0z"/><text x="216.5" y="-8.532" font-family="Lato" font-size="12">a</text></g><g class="edge" transform="translate(4 195.532)"><path fill="none" stroke="#000" d="M378.021-123.048c-2.342-10.234.65-20.084 8.979-20.084 6.376 0 9.625 5.774 9.747 13.073"/><path stroke="#000" d="M395.979-123.048l3.893-6.615-3.512 3.136.38-3.48h0l-.38 3.48-2.75-3.822 2.369 7.301h0z"/><text x="382" y="-146.532" font-family="Lato" font-size="12">!a</text></g><g class="edge" transform="translate(4 195.532)"><path fill="none" stroke="#000" d="M149.264-101.75C135.7-98.305 116.571-93.25 100-88.132a473.106 473.106 0 00-12.472 4.065"/><path stroke="#000" d="M80.664-81.692l7.645.688-4.337-1.833 3.307-1.144h0l-3.307 1.144 2.277-4.12-5.585 5.265h0z"/><text x="112" y="-99.532" font-family="Lato" font-size="12">a</text></g><g class="edge" transform="translate(4 195.532)"><path fill="none" stroke="#000" d="M185.004-106.214l176.7-.803"/><path stroke="#000" d="M368.748-107.049l-7.015-3.118 3.515 3.134-3.5.016h0l3.5-.016-3.486 3.166 6.986-3.182h0z"/><text x="260" y="-109.532" font-family="Lato" font-size="12">!a &amp; !b</text></g><g class="node" transform="translate(4 195.532)"><circle fill="#ffffa0" stroke="#000" cx="277" cy="-41.132" r="18"/><circle fill="none" stroke="#000" cx="277" cy="-41.132" r="22"/><text text-anchor="middle" x="277" y="-38.032" font-family="Lato" font-size="12">3</text></g><g class="edge" transform="translate(4 195.532)"><path fill="none" stroke="#000" d="M182.76-96.819c17.982 10.626 47.64 28.15 68.883 40.704"/><path stroke="#000" d="M257.943-52.392l-4.423-6.273 1.41 4.492-3.013-1.78h0l3.013 1.78-4.615.931 7.628.85h0z"/><text x="204.5" y="-86.532" font-family="Lato" font-size="12">!a &amp; b</text></g><g class="edge" transform="translate(4 195.532)"><path fill="none" stroke="#000" d="M255.105-43.483c-33.53-3.74-99.558-11.653-155.105-21.649a384.902 384.902 0 01-11.6-2.292"/><path stroke="#000" d="M81.52-68.93l6.164 4.574-2.745-3.826 3.42.749h0l-3.42-.749 4.093-2.328-7.512 1.58h0z"/><text x="163.5" y="-59.532" font-family="Lato" font-size="12">a</text></g><g class="edge" transform="translate(4 195.532)"><path fill="none" stroke="#000" d="M296.16-52.628l68.918-41.35"/><path stroke="#000" d="M371.262-97.689l-7.623.9 4.621.901-3 1.8h0l3-1.8-1.38 4.502 4.382-6.303h0z"/><text x="317" y="-86.532" font-family="Lato" font-size="12">!a &amp; !b</text></g><g class="edge" transform="translate(4 195.532)"><path fill="none" stroke="#000" d="M266.933-60.89c-1.71-10.592 1.645-20.242 10.067-20.242 6.448 0 9.926 5.657 10.435 13.062"/><path stroke="#000" d="M287.067-60.89l3.504-6.829-3.325 3.334.18-3.495h0l-.18 3.495-2.967-3.656 2.788 7.152h0z"/><text x="261.5" y="-84.532" font-family="Lato" font-size="12">!a &amp; b</text></g></g></svg>