<?xml-stylesheet href="spot.css" type="text/css"?><svg width="169pt" height="118pt" viewBox="0 0 169 118.4" xmlns="http://www.w3.org/2000/svg"><g class="graph" transform="translate(4 114.4)"><path fill="#fff" stroke="transparent" d="M-4 4v-118.4h169V4H-4z"/><text x="61.5" y="-83.8" font-family="Lato" font-size="12">[Büchi]</text><g class="node"><circle fill="#ffffa0" stroke="#000" cx="56" cy="-22" r="18"/><text text-anchor="middle" x="56" y="-18.9" font-family="Lato" font-size="12">0</text></g><g class="edge"><path fill="none" stroke="#000" d="M1.123-22h29.801"/><path stroke="#000" d="M37.98-22l-7-3.15 3.5 3.15h-3.5 3.5l-3.5 3.15 7-3.15h0z"/></g><g class="edge"><path fill="none" stroke="#000" d="M49.62-39.037C48.32-48.857 50.446-58 56-58c4.166 0 6.404 5.142 6.713 11.857"/><path stroke="#000" d="M62.38-39.037l3.474-6.845-3.31 3.349.164-3.497h0l-.165 3.497-2.982-3.644 2.818 7.14h0z"/><text x="52.5" y="-61.4" font-family="Lato" font-size="12">1</text></g><g class="node"><circle fill="#ffffa0" stroke="#000" cx="139" cy="-22" r="18"/><circle fill="none" stroke="#000" cx="139" cy="-22" r="22"/><text x="135.5" y="-18.9" font-family="Lato" font-size="12">1</text></g><g class="edge"><path fill="none" stroke="#000" d="M74.01-22h35.696"/><path stroke="#000" d="M116.887-22l-7-3.15 3.5 3.15h-3.5 3.5l-3.5 3.15 7-3.15h0z"/><text x="92" y="-25.4" font-family="Lato" font-size="12">a</text></g><g class="edge"><path fill="none" stroke="#000" d="M131.317-42.99C130.37-53.088 132.93-62 139-62c4.553 0 7.131 5.013 7.736 11.78"/><path stroke="#000" d="M146.683-42.99l3.201-6.977-3.175 3.476.025-3.5h0l-.025 3.5-3.124-3.523 3.098 7.023h0z"/><text x="135.5" y="-65.4" font-family="Lato" font-size="12">a</text></g></g></svg>