<?xml-stylesheet href="spot.css" type="text/css"?><svg width="362pt" height="167pt" viewBox="0 0 362 167.4" xmlns="http://www.w3.org/2000/svg"><g class="graph"><path fill="#fff" stroke="transparent" d="M0 167.4V0h362v167.4H0z"/><text x="158" y="-132.8" font-family="Lato" font-size="12" transform="translate(4 163.4)">[Büchi]</text><g class="node" transform="translate(4 163.4)"><circle fill="#ffffa0" stroke="#000" cx="56" cy="-34" r="18"/><text text-anchor="middle" x="56" y="-30.9" font-family="Lato" font-size="12">2</text></g><g class="edge" transform="translate(4 163.4)"><path fill="none" stroke="#000" d="M1.123-34h29.801"/><path stroke="#000" d="M37.98-34l-7-3.15 3.5 3.15h-3.5 3.5l-3.5 3.15 7-3.15h0z"/></g><g class="node" transform="translate(4 163.4)"><circle fill="#ffffa0" stroke="#000" cx="139" cy="-71" r="18"/><circle fill="none" stroke="#000" cx="139" cy="-71" r="22"/><text x="135.5" y="-67.9" font-family="Lato" font-size="12">1</text></g><g class="edge" transform="translate(4 163.4)"><path fill="none" stroke="#000" d="M72.796-41.487L112.17-59.04"/><path stroke="#000" d="M118.71-61.955l-7.677-.027 4.48 1.452-3.197 1.425h0l3.196-1.425-1.914 4.303 5.111-5.728h0z"/><text x="92" y="-55.4" font-family="Lato" font-size="12">a</text></g><g class="node" transform="translate(4 163.4)"><circle fill="#ffffa0" stroke="#000" cx="249" cy="-18" r="18"/><text text-anchor="middle" x="249" y="-14.9" font-family="Lato" font-size="12">3</text></g><g class="edge" transform="translate(4 163.4)"><path fill="none" stroke="#000" d="M73.861-31.73C86.009-30.24 102.457-28.33 117-27c37.008 3.383 79.961 6.085 106.563 7.615"/><path stroke="#000" d="M230.614-18.985l-6.81-3.541 3.316 3.343-3.495-.198h0l3.495.198-3.673 2.946 7.167-2.748h0z"/><text x="134" y="-30.4" font-family="Lato" font-size="12">!a</text></g><g class="node" transform="translate(4 163.4)"><circle fill="#ffffa0" stroke="#000" cx="332" cy="-61" r="18"/><circle fill="none" stroke="#000" cx="332" cy="-61" r="22"/><text text-anchor="middle" x="332" y="-57.9" font-family="Lato" font-size="12">0</text></g><g class="edge" transform="translate(4 163.4)"><path fill="none" stroke="#000" d="M324.317-81.99C323.37-92.088 325.93-101 332-101c4.553 0 7.131 5.013 7.736 11.78"/><path stroke="#000" d="M339.683-81.99l3.201-6.977-3.175 3.476.026-3.5h0l-.026 3.5-3.124-3.523 3.098 7.023h0z"/><text x="328.5" y="-104.4" font-family="Lato" font-size="12">1</text></g><g class="edge" transform="translate(4 163.4)"><path fill="none" stroke="#000" d="M160.817-73.865C186.354-76.753 229.878-80.228 267-76c12.293 1.4 25.645 4.244 37.032 7.082"/><path stroke="#000" d="M310.84-67.164l-5.992-4.796 2.603 3.923-3.39-.873h0l3.39.873-4.175 2.177 7.565-1.304h0z"/><text x="245.5" y="-80.4" font-family="Lato" font-size="12">b</text></g><g class="edge" transform="translate(4 163.4)"><path fill="none" stroke="#000" d="M131.317-91.99C130.37-102.088 132.93-111 139-111c4.553 0 7.131 5.013 7.736 11.78"/><path stroke="#000" d="M146.683-91.99l3.201-6.977-3.175 3.476.025-3.5h0l-.025 3.5-3.124-3.523 3.098 7.023h0z"/><text x="123.5" y="-114.4" font-family="Lato" font-size="12">a &amp; !b</text></g><g class="edge" transform="translate(4 163.4)"><path fill="none" stroke="#000" d="M158.92-61.402l67.165 32.361"/><path stroke="#000" d="M232.46-25.97l-4.94-5.876 1.786 4.357-3.153-1.52h0l3.153 1.52-4.52 1.319 7.673.2h0z"/><text x="179" y="-53.4" font-family="Lato" font-size="12">!a &amp; !b</text></g><g class="edge" transform="translate(4 163.4)"><path fill="none" stroke="#000" d="M265.003-26.29c11.578-6 27.48-14.237 40.885-21.182"/><path stroke="#000" d="M312.238-50.762l-7.664.423 4.556 1.187-3.107 1.61h0l3.107-1.61-1.658 4.407 4.766-6.017h0z"/><text x="285" y="-42.4" font-family="Lato" font-size="12">b</text></g><g class="edge" transform="translate(4 163.4)"><path fill="none" stroke="#000" d="M242.266-35.037C240.892-44.857 243.136-54 249-54c4.398 0 6.76 5.142 7.086 11.857"/><path stroke="#000" d="M255.734-35.037l3.492-6.836-3.32 3.34.174-3.496h0l-.173 3.496-2.973-3.652 2.8 7.148h0z"/><text x="244" y="-57.4" font-family="Lato" font-size="12">!b</text></g></g></svg>