<?xml-stylesheet href="spot.css" type="text/css"?><svg width="410pt" height="320pt" viewBox="0 0 410 320" xmlns="http://www.w3.org/2000/svg"><g class="graph" transform="translate(4 316)"><path fill="#fff" stroke="transparent" d="M-4 4v-320h410V4H-4z"/><g class="node"><circle fill="#ffffa0" stroke="#000" cx="56" cy="-85" r="18"/><text text-anchor="middle" x="56" y="-81.9" font-family="Lato" font-size="12">0</text></g><g class="edge"><path fill="none" stroke="#000" d="M1.123-85h29.801"/><path stroke="#000" d="M37.98-85l-7-3.15 3.5 3.15h-3.5 3.5l-3.5 3.15 7-3.15h0z"/></g><g class="edge"><path fill="none" stroke="#000" d="M49.62-102.037C48.32-111.857 50.446-121 56-121c4.166 0 6.404 5.142 6.713 11.857"/><path stroke="#000" d="M62.38-102.037l3.474-6.845-3.31 3.349.164-3.497h0l-.165 3.496-2.982-3.643 2.818 7.14h0z"/><text x="39.5" y="-137.4" font-family="Lato" font-size="12">!a &amp; !c</text><text x="49" y="-124.4" font-family="Lato" font-size="12" fill="#1f78b4">⓿</text></g><g class="node"><circle fill="#ffffa0" stroke="#000" cx="384" cy="-103" r="18"/><text text-anchor="middle" x="384" y="-99.9" font-family="Lato" font-size="12">1</text></g><g class="edge"><path fill="none" stroke="#000" d="M67.013-99.256C84.323-120.358 120.168-159.023 161-174c73.865-27.093 163.576 27.424 202.899 55.59"/><path stroke="#000" d="M369.767-114.131l-3.8-6.67.972 4.608-2.828-2.062h0l2.828 2.062-4.684.484 7.512 1.578h0z"/><text x="249" y="-180.4" font-family="Lato" font-size="12">c</text></g><g class="node"><circle fill="#ffffa0" stroke="#000" cx="191" cy="-103" r="18"/><text text-anchor="middle" x="191" y="-99.9" font-family="Lato" font-size="12">2</text></g><g class="edge"><path fill="none" stroke="#000" d="M73.927-87.39l91.955-12.26"/><path stroke="#000" d="M172.999-100.6l-7.355-2.197 3.886 2.66-3.47.462h0l3.47-.462-3.053 3.585 6.522-4.048h0z"/><text x="92" y="-100.4" font-family="Lato" font-size="12">a &amp; b &amp; !c</text></g><g class="node"><circle fill="#ffffa0" stroke="#000" cx="191" cy="-18" r="18"/><text text-anchor="middle" x="191" y="-14.9" font-family="Lato" font-size="12">3</text></g><g class="edge"><path fill="none" stroke="#000" d="M72.546-77.873C90.19-70.163 118.86-57.313 143-45c8.517 4.344 17.705 9.415 25.739 13.98"/><path stroke="#000" d="M175.177-27.33l-4.507-6.213 1.47 4.473-3.037-1.74h0l3.037 1.74-4.603.992 7.64.749h0z"/><text x="102.5" y="-72.4" font-family="Lato" font-size="12">a &amp; !c</text></g><g class="edge"><path fill="none" stroke="#000" d="M376.969-119.664C375.406-129.625 377.75-139 384-139c4.688 0 7.178 5.273 7.47 12.112"/><path stroke="#000" d="M391.031-119.664l3.57-6.796-3.357 3.302.212-3.493h0l-.212 3.493-2.932-3.684 2.72 7.178h0z"/><text x="380.5" y="-155.4" font-family="Lato" font-size="12">1</text><text x="377" y="-142.4" font-family="Lato" font-size="12" fill="#1f78b4">⓿</text></g><g class="edge"><path fill="none" stroke="#000" d="M180.849-118.167C177.773-128.664 181.156-139 191-139c7.537 0 11.286 6.059 11.25 13.61"/><path stroke="#000" d="M201.151-118.167l4.167-6.447-3.64 2.987.526-3.46h0l-.526 3.46-2.589-3.934 2.062 7.394h0z"/><text x="187.5" y="-155.4" font-family="Lato" font-size="12">b</text><text x="184" y="-142.4" font-family="Lato" font-size="12" fill="#1f78b4">⓿</text></g><g class="edge"><path fill="none" stroke="#000" d="M173.806-12.162C152.84-6.168 117.1.316 92-15c-16.085-9.815-25.286-29.364-30.353-45.314"/><path stroke="#000" d="M59.6-67.341l-1.067 7.602 2.046-4.242.979 3.36h0l-.98-3.36 4.004 2.48-4.982-5.84h0z"/><text x="101" y="-31.4" font-family="Lato" font-size="12">!a &amp; !c</text><text x="110.5" y="-18.4" font-family="Lato" font-size="12" fill="#1f78b4">⓿</text></g><g class="edge"><path fill="none" stroke="#000" d="M205.393-28.866C223.062-41.746 254.341-63.087 284-76c24.63-10.725 54.567-18.127 75.23-22.432"/><path stroke="#000" d="M366.128-99.826l-7.485-1.701 4.055 2.394-3.431.694h0l3.43-.694-2.806 3.781 6.237-4.474h0z"/><text x="287" y="-92.4" font-family="Lato" font-size="12">!a &amp; c</text></g><g class="edge"><path fill="none" stroke="#000" d="M180.849-33.167C177.773-43.664 181.156-54 191-54c7.537 0 11.286 6.059 11.25 13.61"/><path stroke="#000" d="M201.151-33.167l4.167-6.447-3.64 2.987.526-3.46h0l-.526 3.46-2.589-3.934 2.062 7.394h0z"/><text x="176" y="-57.4" font-family="Lato" font-size="12">a &amp; !c</text></g><g class="node"><circle fill="#ffffa0" stroke="#000" cx="302" cy="-18" r="18"/><text text-anchor="middle" x="302" y="-14.9" font-family="Lato" font-size="12">4</text></g><g class="edge"><path fill="none" stroke="#000" d="M209.33-18h67.142"/><path stroke="#000" d="M283.643-18l-7-3.15 3.5 3.15h-3.5 3.5l-3.5 3.15 7-3.15h0z"/><text x="239" y="-21.4" font-family="Lato" font-size="12">a &amp; c</text></g><g class="edge"><path fill="none" stroke="#000" d="M314.813-31.281l51.485-53.37"/><path stroke="#000" d="M371.277-89.812l-7.127 2.85 4.697-.331-2.43 2.519h0l2.43-2.52-.163 4.707 2.593-7.225h0z"/><text x="338" y="-69.4" font-family="Lato" font-size="12">!a</text></g><g class="edge"><path fill="none" stroke="#000" d="M294.969-34.664C293.406-44.625 295.75-54 302-54c4.688 0 7.178 5.273 7.47 12.112"/><path stroke="#000" d="M309.031-34.664l3.57-6.796-3.357 3.302.212-3.493h0l-.212 3.493-2.932-3.684 2.72 7.178h0z"/><text x="298.5" y="-57.4" font-family="Lato" font-size="12">a</text></g><g class="node"><circle fill="#ffffa0" stroke="#000" cx="56" cy="-251" r="18"/><text text-anchor="middle" x="56" y="-247.9" font-family="Lato" font-size="12">1</text></g><g class="edge"><path fill="none" stroke="#000" d="M1.123-251h29.801"/><path stroke="#000" d="M37.98-251l-7-3.15 3.5 3.15h-3.5 3.5l-3.5 3.15 7-3.15h0z"/></g><g class="edge"><path fill="none" stroke="#000" d="M49.62-268.037C48.32-277.857 50.446-287 56-287c4.166 0 6.404 5.142 6.713 11.857"/><path stroke="#000" d="M62.38-268.037l3.474-6.845-3.31 3.349.164-3.497h0l-.165 3.496-2.982-3.643 2.818 7.14h0z"/><text x="40.5" y="-290.4" font-family="Lato" font-size="12">a &amp; !b</text></g><g class="node"><circle fill="#ffffa0" stroke="#000" cx="191" cy="-251" r="26"/><circle fill="none" stroke="#000" cx="191" cy="-251" r="30"/><text text-anchor="middle" x="191" y="-247.9" font-family="Lato" font-size="12">0</text></g><g class="edge"><path fill="none" stroke="#000" d="M74.207-251h79.672"/><path stroke="#000" d="M160.967-251l-7-3.15 3.5 3.15h-3.5 3.5l-3.5 3.15 7-3.15h0z"/><text x="114" y="-254.4" font-family="Lato" font-size="12">b</text></g><g class="edge"><path fill="none" stroke="#000" d="M179.794-279.103C179.296-289.969 183.03-299 191-299c6.101 0 9.72 5.294 10.859 12.652"/><path stroke="#000" d="M202.206-279.103l2.811-7.143-2.979 3.647-.167-3.496h0l.167 3.496-3.314-3.345 3.482 6.841h0z"/><text text-anchor="middle" x="191" y="-302.4" font-family="Lato" font-size="12">1</text></g></g></svg>