<?xml-stylesheet href="spot.css" type="text/css"?><svg width="625pt" height="563pt" viewBox="0 0 624.89 563.26" xmlns="http://www.w3.org/2000/svg"><g class="graph"><path fill="#fff" stroke="transparent" d="M0 563.258V0h624.886v563.258H0z"/><text x="305.943" y="-541.658" font-family="Lato" font-size="12" transform="translate(4 559.258)">t</text><text x="298.443" y="-528.658" font-family="Lato" font-size="12" transform="translate(4 559.258)">[all]</text><g class="node" transform="translate(4 559.258)"><path fill="#ffffa0" stroke="#000" d="M128.5-278.629h-76c-6 0-12 6-12 12v12c0 6 6 12 12 12h76c6 0 12-6 12-12v-12c0-6-6-12-12-12"/><text x="87" y="-264.029" font-family="Lato" font-size="12">0</text><text x="48.5" y="-251.029" font-family="Lato" font-size="12">!odd_x &amp; !odd_y</text></g><g class="edge" transform="translate(4 559.258)"><path fill="none" stroke="#000" d="M1.075-260.629h31.788"/><path stroke="#000" d="M40.13-260.629l-7-3.15 3.5 3.15h-3.5 3.5l-3.5 3.15 7-3.15h0z"/></g><g class="node" transform="translate(4 559.258)"><path fill="#ffffa0" stroke="#000" d="M604.886-362.893h-73c-6 0-12 6-12 12v12c0 6 6 12 12 12h73c6 0 12-6 12-12v-12c0-6-6-12-12-12"/><text x="564.886" y="-348.293" font-family="Lato" font-size="12">1</text><text x="527.886" y="-335.293" font-family="Lato" font-size="12">!odd_x &amp; odd_y</text></g><g class="edge" transform="translate(4 559.258)"><path fill="none" stroke="#000" d="M140.739-269.487l371.648-65.532"/><path stroke="#000" d="M519.533-336.279l-7.44-1.887 3.993 2.495-3.447.608h0l3.447-.608-2.9 3.71 6.347-4.318h0z"/></g><g class="node" transform="translate(4 559.258)"><path fill="#ffffa0" stroke="#000" d="M330.59-521.258h-73c-6 0-12 6-12 12v12c0 6 6 12 12 12h73c6 0 12-6 12-12v-12c0-6-6-12-12-12"/><text x="290.59" y="-506.658" font-family="Lato" font-size="12">3</text><text x="253.59" y="-493.658" font-family="Lato" font-size="12">odd_x &amp; !odd_y</text></g><g class="edge" transform="translate(4 559.258)"><path fill="none" stroke="#000" d="M105.802-278.865l168.399-200.69"/><path stroke="#000" d="M278.888-485.14l-6.913 3.337 4.663-.656-2.25 2.68h0l2.25-2.68.163 4.706 2.087-7.388h0z"/></g><g class="node" transform="translate(4 559.258)"><path fill="#ffffa0" stroke="#000" d="M186.14-120.264h-76c-6 0-12 6-12 12v12c0 6 6 12 12 12h76c6 0 12-6 12-12v-12c0-6-6-12-12-12"/><text x="144.64" y="-105.664" font-family="Lato" font-size="12">2</text><text x="106.14" y="-92.664" font-family="Lato" font-size="12">!odd_x &amp; !odd_y</text></g><g class="edge" transform="translate(4 559.258)"><path fill="none" stroke="#000" d="M537.142-326.855L185.767-123.988"/><path stroke="#000" d="M179.59-120.421l7.636-.772-4.606-.978 3.031-1.75h0l-3.03 1.75 1.455-4.478-4.487 6.228h0z"/></g><g class="node" transform="translate(4 559.258)"><path fill="#ffffa0" stroke="#000" d="M495.058-491.993h-70c-6 0-12 6-12 12v12c0 6 6 12 12 12h70c6 0 12-6 12-12v-12c0-6-6-12-12-12"/><text x="456.558" y="-477.393" font-family="Lato" font-size="12">4</text><text x="421.058" y="-464.393" font-family="Lato" font-size="12">odd_x &amp; odd_y</text></g><g class="edge" transform="translate(4 559.258)"><path fill="none" stroke="#000" d="M553.095-363.116l-73.252-87.298"/><path stroke="#000" d="M475.271-455.863l2.087 7.387.163-4.706 2.25 2.682h0l-2.25-2.682 4.663.657-6.913-3.338h0z"/></g><g class="edge" transform="translate(4 559.258)"><path fill="none" stroke="#000" d="M342.988-494.636l62.899 11.091"/><path stroke="#000" d="M412.935-482.302l-6.347-4.318 2.9 3.71-3.447-.608h0l3.447.608-3.994 2.494 7.441-1.886h0z"/></g><g class="node" transform="translate(4 559.258)"><path fill="#ffffa0" stroke="#000" d="M186.14-436.994h-76c-6 0-12 6-12 12v12c0 6 6 12 12 12h76c6 0 12-6 12-12v-12c0-6-6-12-12-12"/><text x="144.64" y="-422.394" font-family="Lato" font-size="12">6</text><text x="106.14" y="-409.394" font-family="Lato" font-size="12">!odd_x &amp; !odd_y</text></g><g class="edge" transform="translate(4 559.258)"><path fill="none" stroke="#000" d="M262.78-485.181l-77.143 44.538"/><path stroke="#000" d="M179.398-437.04l7.637-.773-4.606-.978 3.031-1.75h0l-3.03 1.75 1.455-4.478-4.487 6.228h0z"/></g><g class="edge" transform="translate(4 559.258)"><path fill="none" stroke="#000" d="M141.528-120.43L99.715-235.312"/><path stroke="#000" d="M97.213-242.186l-.566 7.655 1.763-4.367 1.197 3.29h0l-1.197-3.29 4.157 2.212-5.354-5.5h0z"/></g><g class="node" transform="translate(4 559.258)"><path fill="#ffffa0" stroke="#000" d="M330.59-36h-73c-6 0-12 6-12 12v12c0 6 6 12 12 12h73c6 0 12-6 12-12v-12c0-6-6-12-12-12"/><text x="290.59" y="-21.4" font-family="Lato" font-size="12">5</text><text x="253.59" y="-8.4" font-family="Lato" font-size="12">odd_x &amp; !odd_y</text></g><g class="edge" transform="translate(4 559.258)"><path fill="none" stroke="#000" d="M179.45-84.187l77.143 44.538"/><path stroke="#000" d="M262.832-36.047l-4.487-6.228 1.456 4.478-3.031-1.75h0l3.03 1.75-4.606.978 7.638.772h0z"/></g><g class="edge" transform="translate(4 559.258)"><path fill="none" stroke="#000" d="M453.45-455.836L303.245-43.156"/><path stroke="#000" d="M300.717-36.209l5.355-5.5-4.158 2.211 1.197-3.289h0l-1.197 3.29-1.763-4.367.566 7.655h0z"/></g><g class="node" transform="translate(4 559.258)"><path fill="#ffffa0" stroke="#000" d="M604.886-194.365h-73c-6 0-12 6-12 12v12c0 6 6 12 12 12h73c6 0 12-6 12-12v-12c0-6-6-12-12-12"/><text x="564.886" y="-179.765" font-family="Lato" font-size="12">7</text><text x="527.886" y="-166.765" font-family="Lato" font-size="12">!odd_x &amp; odd_y</text></g><g class="edge" transform="translate(4 559.258)"><path fill="none" stroke="#000" d="M466.671-455.823l92.612 254.448"/><path stroke="#000" d="M561.721-194.675l.566-7.655-1.763 4.366-1.197-3.289h0l1.197 3.289-4.157-2.212 5.354 5.5h0z"/></g><g class="edge" transform="translate(4 559.258)"><path fill="none" stroke="#000" d="M141.528-400.827l-41.813 114.88"/><path stroke="#000" d="M97.213-279.071l5.354-5.5-4.157 2.21 1.197-3.288h0l-1.197 3.289-1.763-4.366.566 7.655h0z"/></g><g class="edge" transform="translate(4 559.258)"><path fill="none" stroke="#000" d="M179.383-400.955L530.76-198.09"/><path stroke="#000" d="M536.937-194.522l-4.488-6.228 1.457 4.478-3.032-1.75h0l3.031 1.75-4.606.978 7.638.772h0z"/></g><g class="edge" transform="translate(4 559.258)"><path fill="none" stroke="#000" d="M294.09-36.137V-478"/><path stroke="#000" d="M294.09-485.03l-3.15 7 3.15-3.5v3.5h0v-3.5l3.15 3.5-3.15-7h0z"/></g><g class="node" transform="translate(4 559.258)"><path fill="#ffffa0" stroke="#000" d="M498.058-65.265h-76c-6 0-12 6-12 12v12c0 6 6 12 12 12h76c6 0 12-6 12-12v-12c0-6-6-12-12-12"/><text x="456.558" y="-50.665" font-family="Lato" font-size="12">8</text><text x="418.058" y="-37.665" font-family="Lato" font-size="12">!odd_x &amp; !odd_y</text></g><g class="edge" transform="translate(4 559.258)"><path fill="none" stroke="#000" d="M342.988-26.622l59.731-10.532"/><path stroke="#000" d="M409.783-38.4l-7.44-1.886 3.993 2.494-3.446.608h0l3.447-.608-2.9 3.71 6.346-4.318h0z"/></g><g class="edge" transform="translate(4 559.258)"><path fill="none" stroke="#000" d="M568.386-194.4v-124.993"/><path stroke="#000" d="M568.386-326.733l-3.15 7 3.15-3.5v3.5h0v-3.5l3.15 3.5-3.15-7h0z"/></g><g class="edge" transform="translate(4 559.258)"><path fill="none" stroke="#000" d="M553.095-158.142l-73.252 87.298"/><path stroke="#000" d="M475.271-65.395l6.913-3.338-4.663.657 2.25-2.681h0l-2.25 2.68-.163-4.705-2.087 7.387h0z"/></g><g class="edge" transform="translate(4 559.258)"><path fill="none" stroke="#000" d="M409.943-56.101L205.372-92.173"/><path stroke="#000" d="M198.389-93.404l6.347 4.318-2.9-3.71 3.447.608h0l-3.447-.608 3.994-2.494-7.441 1.886h0z"/></g><g class="edge" transform="translate(4 559.258)"><path fill="none" stroke="#000" d="M444.802-65.445L167.977-395.353"/><path stroke="#000" d="M163.366-400.848l2.087 7.387.163-4.706 2.25 2.682h0l-2.25-2.682 4.663.657-6.913-3.338h0z"/></g></g></svg>