<?xml-stylesheet href="spot.css" type="text/css"?><svg width="532" height="349pt" viewBox="0 0 399.07 348.7" xmlns="http://www.w3.org/2000/svg" xmlns:xlink="http://www.w3.org/1999/xlink"><g class="graph"><path fill="#fff" stroke="transparent" d="M0 348.697V0h399.068v348.697H0z"/><g class="node" transform="translate(4 344.697)"><a xlink:title="(x = 0, y = 0) !odd_x &amp; !odd_y"><circle fill="#ffffa0" stroke="#000" cx="73" cy="-170.348" r="18"/><text text-anchor="middle" x="73" y="-167.248" font-family="Lato" font-size="12">0</text></a></g><g class="edge" transform="translate(4 344.697)"><path fill="none" stroke="#000" d="M1.314-170.348h46.417"/><path stroke="#000" d="M54.916-170.348l-7-3.15 3.5 3.15h-3.5 3.5l-3.5 3.15 7-3.15h0z"/></g><g class="node" transform="translate(4 344.697)"><a xlink:title="(x = 1, y = 0) odd_x &amp; !odd_y"><circle fill="#ffffa0" stroke="#000" cx="373.068" cy="-223.258" r="18"/><text text-anchor="middle" x="373.068" y="-220.158" font-family="Lato" font-size="12">1</text></a></g><g class="edge" transform="translate(4 344.697)"><path fill="none" stroke="#e31a1c" stroke-width="2" d="M90.872-173.5l257.352-45.378"/><path fill="#e31a1c" stroke="#e31a1c" stroke-width="2" d="M355.29-220.124l-7.441-1.886 3.907 2.002-3.447.608.087.492.087.492 3.446-.607-2.986 3.217 6.346-4.318h0z"/></g><g class="node" transform="translate(4 344.697)"><a xlink:title="(x = 0, y = 1) !odd_x &amp; odd_y"><circle fill="#ffffa0" stroke="#000" cx="200.835" cy="-322.697" r="18"/><text text-anchor="middle" x="200.835" y="-319.597" font-family="Lato" font-size="12">2</text></a></g><g class="edge" transform="translate(4 344.697)"><path fill="none" stroke="#000" d="M84.797-184.408l99.684-118.798"/><path stroke="#000" d="M189.067-308.671l-6.913 3.337 4.663-.656-2.25 2.681h0l2.25-2.681.163 4.706 2.087-7.387h0z"/></g><g class="node" transform="translate(4 344.697)"><a xlink:title="(x = 2, y = 0) !odd_x &amp; !odd_y"><circle fill="#ffffa0" stroke="#000" cx="109.193" cy="-70.91" r="18"/><text text-anchor="middle" x="109.193" y="-67.81" font-family="Lato" font-size="12">3</text></a></g><g class="edge" transform="translate(4 344.697)"><path fill="none" stroke="#000" d="M357.351-214.185L131.04-83.523"/><path stroke="#000" d="M124.827-79.936l7.637-.772-4.606-.978 3.03-1.75h0l-3.03 1.75 1.456-4.478-4.487 6.228h0z"/></g><g class="node" transform="translate(4 344.697)"><a xlink:title="(x = 1, y = 1) odd_x &amp; odd_y"><circle fill="#ffffa0" stroke="#000" cx="305.048" cy="-304.321" r="18"/><text text-anchor="middle" x="305.048" y="-301.221" font-family="Lato" font-size="12">4</text></a></g><g class="edge" transform="translate(4 344.697)"><path fill="none" stroke="#e31a1c" stroke-width="2" d="M361.22-237.379L321.4-284.832"/><path fill="#e31a1c" stroke="#e31a1c" stroke-width="2" d="M316.76-290.363l2.087 7.387-.22-4.385 2.25 2.682.383-.322.383-.321-2.25-2.681 4.28.977-6.913-3.337h0z"/></g><g class="edge" transform="translate(4 344.697)"><path fill="none" stroke="#000" d="M218.988-319.496l61.005 10.757"/><path stroke="#000" d="M287.103-307.485l-6.346-4.318 2.9 3.71-3.447-.608h0l3.447.608-3.994 2.494 7.44-1.886h0z"/></g><g class="node" transform="translate(4 344.697)"><a xlink:title="(x = 0, y = 2) !odd_x &amp; !odd_y"><circle fill="#ffffa0" stroke="#000" cx="109.193" cy="-269.787" r="18"/><text text-anchor="middle" x="109.193" y="-266.687" font-family="Lato" font-size="12">5</text></a></g><g class="edge" transform="translate(4 344.697)"><path fill="none" stroke="#000" d="M184.873-313.48c-14.85 8.573-37.11 21.424-53.647 30.973"/><path stroke="#000" d="M124.973-278.897l7.637-.772-4.606-.978 3.03-1.75h0l-3.03 1.75 1.456-4.478-4.487 6.228h0z"/></g><g class="edge" transform="translate(4 344.697)"><path fill="none" stroke="#000" d="M102.888-88.23l-21.187-58.211"/><path stroke="#000" d="M79.232-153.226l-.566 7.655 1.763-4.366 1.197 3.289h0l-1.197-3.29 4.157 2.212-5.354-5.5h0z"/></g><g class="node" transform="translate(4 344.697)"><a xlink:title="(x = 2, y = 1) !odd_x &amp; odd_y"><circle fill="#ffffa0" stroke="#000" cx="200.835" cy="-18" r="18"/><text text-anchor="middle" x="200.835" y="-14.9" font-family="Lato" font-size="12">6</text></a></g><g class="edge" transform="translate(4 344.697)"><path fill="none" stroke="#000" d="M125.156-61.694l53.647 30.973"/><path stroke="#000" d="M185.055-27.11l-4.487-6.229 1.456 4.478-3.03-1.75h0l3.03 1.75-4.606.978 7.637.772h0z"/></g><g class="edge" transform="translate(4 344.697)"><path fill="none" stroke="#000" d="M298.841-287.268L209.464-41.705"/><path stroke="#000" d="M207.01-34.964l5.354-5.5-4.157 2.211 1.197-3.289h0l-1.197 3.29-1.763-4.367.566 7.655h0z"/></g><g class="node" transform="translate(4 344.697)"><a xlink:title="(x = 1, y = 2) odd_x &amp; !odd_y"><circle fill="#ffffa0" stroke="#000" cx="373.068" cy="-117.438" r="18"/><text text-anchor="middle" x="373.068" y="-114.338" font-family="Lato" font-size="12">7</text></a></g><g class="edge" transform="translate(4 344.697)"><path fill="none" stroke="#e31a1c" stroke-width="2" d="M311.325-287.075l53.146 146.018"/><path fill="#e31a1c" stroke="#e31a1c" stroke-width="2" d="M366.904-134.373l.566-7.656-1.293 4.196-1.197-3.29-.47.172-.47.17 1.197 3.29-3.687-2.383 5.354 5.5h0z"/></g><g class="edge" transform="translate(4 344.697)"><path fill="none" stroke="#000" d="M102.888-252.466l-21.187 58.21"/><path stroke="#000" d="M79.232-187.47l5.354-5.501-4.157 2.211 1.197-3.289h0l-1.197 3.29-1.763-4.367.566 7.655h0z"/></g><g class="edge" transform="translate(4 344.697)"><path fill="none" stroke="#e31a1c" stroke-width="2" d="M124.909-260.713l226.312 130.661"/><path fill="#e31a1c" stroke="#e31a1c" stroke-width="2" d="M357.434-126.465l-4.487-6.228 1.706 4.045-3.031-1.75-.25.433-.25.433 3.03 1.75-4.356.545 7.638.772h0z"/></g><g class="edge" transform="translate(4 344.697)"><path fill="none" stroke="#000" d="M200.835-36.148V-297.47"/><path stroke="#000" d="M200.835-304.644l-3.15 7 3.15-3.5v3.5h0v-3.5l3.15 3.5-3.15-7h0z"/></g><g class="node" transform="translate(4 344.697)"><a xlink:title="(x = 2, y = 2) !odd_x &amp; !odd_y"><circle fill="#ffffa0" stroke="#000" cx="305.048" cy="-36.376" r="18"/><text text-anchor="middle" x="305.048" y="-33.276" font-family="Lato" font-size="12">8</text></a></g><g class="edge" transform="translate(4 344.697)"><path fill="none" stroke="#000" d="M218.988-21.2l61.005-10.758"/><path stroke="#000" d="M287.103-33.211l-7.44-1.887 3.994 2.494-3.447.608h0l3.447-.608-2.9 3.71 6.346-4.317h0z"/></g><g class="edge" transform="translate(4 344.697)"><path fill="none" stroke="#000" d="M373.068-135.87v-61.947"/><path stroke="#000" d="M373.068-205.037l-3.15 7 3.15-3.5v3.5h0v-3.5l3.15 3.5-3.15-7h0z"/></g><g class="edge" transform="translate(4 344.697)"><path fill="none" stroke="#e31a1c" stroke-width="2" d="M361.22-103.318L321.4-55.865"/><path fill="#e31a1c" stroke="#e31a1c" stroke-width="2" d="M316.76-50.334l6.913-3.337-4.28.977 2.25-2.68-.383-.322-.383-.322-2.25 2.682.22-4.385-2.087 7.387h0z"/></g><g class="edge" transform="translate(4 344.697)"><path fill="none" stroke="#000" d="M286.973-39.563L133.945-66.546"/><path stroke="#000" d="M126.94-67.78l6.347 4.317-2.9-3.71 3.447.608h0l-3.447-.608 3.994-2.494-7.44 1.886h0z"/></g><g class="edge" transform="translate(4 344.697)"><path fill="none" stroke="#e31a1c" stroke-width="2" d="M293.383-50.277L125.408-250.462"/><path fill="#e31a1c" stroke="#e31a1c" stroke-width="2" d="M120.797-255.958l2.086 7.387-.22-4.384 2.25 2.681.383-.321.383-.322-2.25-2.68 4.28.977-6.912-3.338h0z"/></g></g></svg>