<?xml-stylesheet href="spot.css" type="text/css"?><svg width="556pt" height="328" viewBox="0 0 556 246.4" xmlns="http://www.w3.org/2000/svg"><g class="graph"><path fill="#fff" stroke="transparent" d="M0 246.4V0h556v246.4H0z"/><text x="246.5" y="-211.8" font-family="Lato" font-size="12" transform="translate(4 242.4)">[co-Büchi]</text><g class="node" transform="translate(4 242.4)"><circle fill="#ffffa0" stroke="#000" cx="60" cy="-103" r="18"/><circle fill="none" stroke="#000" cx="60" cy="-103" r="22"/><text text-anchor="middle" x="60" y="-99.9" font-family="Lato" font-size="12">0</text></g><g class="edge" transform="translate(4 242.4)"><path fill="none" stroke="#000" d="M1.168-103h29.47"/><path stroke="#000" d="M37.865-103l-7-3.15 3.5 3.15h-3.5 3.5l-3.5 3.15 7-3.15h0z"/></g><g class="node" transform="translate(4 242.4)"><circle fill="#ffffa0" stroke="#000" cx="170" cy="-18" r="18"/><text text-anchor="middle" x="170" y="-14.9" font-family="Lato" font-size="12">1</text></g><g class="edge" transform="translate(4 242.4)"><path fill="none" stroke="#000" d="M77.673-89.343l72.086 55.702"/><path stroke="#000" d="M155.531-29.18l-3.613-6.773.844 4.632-2.77-2.14h0l2.77 2.14-4.696.353 7.465 1.788h0z"/><text text-anchor="middle" x="117" y="-73.4" font-family="Lato" font-size="12">1</text></g><g class="node" transform="translate(4 242.4)"><circle fill="#ffffa0" stroke="#000" cx="324" cy="-67" r="18"/><text text-anchor="middle" x="324" y="-63.9" font-family="Lato" font-size="12">2</text></g><g class="edge" transform="translate(4 242.4)"><path fill="none" stroke="#000" d="M82.097-103.456c41.196-.328 132.23 1.42 205.903 20.456 4.433 1.145 9.009 2.786 13.35 4.584"/><path stroke="#000" d="M307.924-75.51l-5.128-5.711 1.927 4.296-3.201-1.415h0l3.2 1.415-4.474 1.466 7.676-.05h0z"/><text text-anchor="middle" x="170" y="-104.4" font-family="Lato" font-size="12">1</text></g><g class="node" transform="translate(4 242.4)"><circle fill="#ffffa0" stroke="#000" cx="427" cy="-101" r="18"/><text text-anchor="middle" x="427" y="-97.9" font-family="Lato" font-size="12">3</text></g><g class="edge" transform="translate(4 242.4)"><path fill="none" stroke="#000" d="M80.439-111.467c6.18-2.2 13.056-4.297 19.561-5.533 105.723-20.086 135.403-22.76 242-8 21.132 2.926 44.4 9.76 61.24 15.39"/><path stroke="#000" d="M410.04-107.285l-5.605-5.246 2.293 4.113-3.312-1.132h0l3.312 1.132-4.331 1.849 7.642-.716h0z"/><text text-anchor="middle" x="247" y="-137.4" font-family="Lato" font-size="12">1</text></g><g class="node" transform="translate(4 242.4)"><circle fill="#ffffa0" stroke="#000" cx="530" cy="-101" r="18"/><text text-anchor="middle" x="530" y="-97.9" font-family="Lato" font-size="12">4</text></g><g class="edge" transform="translate(4 242.4)"><path fill="none" stroke="#000" d="M72.04-121.878C90.002-147.465 126.416-190 170-190h257c40.913 0 73.595 40.702 90.468 67.055"/><path stroke="#000" d="M521.217-116.911l-1.02-7.609-.827 4.636-1.848-2.973h0l1.848 2.973-4.523-1.31 6.37 4.283h0z"/><text text-anchor="middle" x="324" y="-193.4" font-family="Lato" font-size="12">1</text></g><g class="edge" transform="translate(4 242.4)"><path fill="none" stroke="#000" d="M151.982-16.943C136.787-16.955 115.157-19.187 100-30 84.9-40.772 74.888-59.09 68.656-74.682"/><path stroke="#000" d="M66.054-81.617l-.49 7.66 1.72-4.383 1.229 3.277h0l-1.23-3.277 4.18 2.17-5.41-5.447h0z"/><text x="100" y="-33.4" font-family="Lato" font-size="12">!a &amp; !b</text></g><g class="edge" transform="translate(4 242.4)"><path fill="none" stroke="#000" d="M161.021-33.916C158.68-44.15 161.671-54 170-54c6.376 0 9.625 5.774 9.746 13.073"/><path stroke="#000" d="M178.979-33.916l3.893-6.616-3.512 3.137.38-3.48h0l-.38 3.48-2.75-3.822 2.369 7.301h0z"/><text x="156" y="-57.4" font-family="Lato" font-size="12">a &amp; b</text></g><g class="edge" transform="translate(4 242.4)"><path fill="none" stroke="#000" d="M182.072-31.45C188.536-37.793 197.008-44.863 206-49c29.858-13.735 68.009-17.36 92.718-18.13"/><path stroke="#000" d="M305.93-67.286l-7.065-2.998 3.567 3.073-3.5.076h0l3.5-.076L299-63.986l6.93-3.3h0z"/><text x="206" y="-69.4" font-family="Lato" font-size="12">(!a &amp; b) | (a &amp; !b)</text></g><g class="edge" transform="translate(4 242.4)"><path fill="none" stroke="#000" d="M312.94-52.389C306.508-45.007 297.757-36.649 288-32c-29.535 14.075-67.763 16.084-92.578 15.575"/><path stroke="#000" d="M188.176-16.653l6.897 3.369-3.399-3.26 3.499.111h0l-3.499-.11 3.598-3.038-7.096 2.928h0z"/><text x="231.5" y="-35.4" font-family="Lato" font-size="12">!a &amp; b</text></g><g class="edge" transform="translate(4 242.4)"><path fill="none" stroke="#000" d="M315.367-82.916C313.114-93.15 315.992-103 324-103c6.131 0 9.255 5.774 9.372 13.073"/><path stroke="#000" d="M332.633-82.916l3.866-6.632L333-86.397l.366-3.48h0l-.366 3.48-2.766-3.81 2.4 7.291h0z"/><text x="283" y="-106.4" font-family="Lato" font-size="12">(!a &amp; !b) | (a &amp; b)</text></g><g class="edge" transform="translate(4 242.4)"><path fill="none" stroke="#000" d="M341.473-72.768l61.218-20.208"/><path stroke="#000" d="M409.786-95.317l-7.635-.798 4.31 1.895-3.323 1.097h0l3.324-1.097-2.336 4.088 5.66-5.185h0z"/><text x="360" y="-92.4" font-family="Lato" font-size="12">a &amp; !b</text></g><g class="edge" transform="translate(4 242.4)"><path fill="none" stroke="#000" d="M418.367-116.916C416.114-127.15 418.992-137 427-137c6.131 0 9.255 5.774 9.372 13.073"/><path stroke="#000" d="M435.633-116.916l3.866-6.632-3.499 3.151.366-3.48h0l-.366 3.48-2.766-3.81 2.4 7.291h0z"/><text x="414.5" y="-140.4" font-family="Lato" font-size="12">!a | b</text></g><g class="edge" transform="translate(4 242.4)"><path fill="none" stroke="#000" d="M445.414-101h58.884"/><path stroke="#000" d="M511.745-101l-7-3.15 3.5 3.15h-3.5 3.5l-3.5 3.15 7-3.15h0z"/><text x="463" y="-104.4" font-family="Lato" font-size="12">a &amp; !b</text></g><g class="edge" transform="translate(4 242.4)"><path fill="none" stroke="#000" d="M513.792-93.134C475.59-75.083 376.452-31.082 288-16c-31.666 5.4-68.804 3.435-92.834 1.102"/><path stroke="#000" d="M188.15-15.627l6.637 3.856-3.156-3.494 3.481.361h0l-3.481-.361 3.806-2.772-7.287 2.41h0z"/><text x="360" y="-45.4" font-family="Lato" font-size="12">a &amp; !b</text></g><g class="edge" transform="translate(4 242.4)"><path fill="none" stroke="#000" d="M521.367-116.916C519.114-127.15 521.992-137 530-137c6.131 0 9.255 5.774 9.372 13.073"/><path stroke="#000" d="M538.633-116.916l3.866-6.632-3.499 3.151.366-3.48h0l-.366 3.48-2.766-3.81 2.4 7.291h0z"/><text x="517.5" y="-140.4" font-family="Lato" font-size="12">!a | b</text></g></g></svg>