<?xml-stylesheet href="spot.css" type="text/css"?><svg width="476pt" height="284" viewBox="0 0 476 213.06" xmlns="http://www.w3.org/2000/svg"><g class="graph" transform="translate(4 209.057)"><path fill="#fff" stroke="transparent" d="M-4 4v-213.057h476V4H-4z"/><text x="215" y="-192.457" font-family="Lato" font-size="12">Fin(</text><text x="235" y="-192.457" font-family="Lato" font-size="12" fill="#1f78b4">⓿</text><text x="249" y="-192.457" font-family="Lato" font-size="12">)</text><text x="206.5" y="-180.457" font-family="Lato" font-size="12">[co-Büchi]</text><g class="node"><circle fill="#ffffa0" stroke="#000" cx="56" cy="-80.057" r="18"/><text text-anchor="middle" x="56" y="-76.957" font-family="Lato" font-size="12">0</text></g><g class="edge"><path fill="none" stroke="#000" d="M1.123-80.057h29.801"/><path stroke="#000" d="M37.98-80.057l-7-3.15 3.5 3.15h-3.5 3.5l-3.5 3.15 7-3.15h0z"/></g><g class="edge"><path fill="none" stroke="#000" d="M52.764-97.84c-.55-9.532.529-18.217 3.236-18.217 1.988 0 3.098 4.683 3.33 10.948"/><path stroke="#000" d="M59.236-97.84l3.24-6.958-3.195 3.46.045-3.5h0l-.045 3.5-3.105-3.541 3.06 7.04h0z"/><text x="40.5" y="-119.457" font-family="Lato" font-size="12">!a &amp; b</text></g><g class="edge"><path fill="none" stroke="#000" d="M50.684-97.478c-3.03-17.37-1.258-36.58 5.316-36.58 5.701 0 7.79 14.446 6.27 29.611"/><path stroke="#000" d="M61.316-97.478l4.07-6.508-3.596 3.04.475-3.467h0l-.475 3.468-2.646-3.895 2.172 7.362h0z"/><text x="39" y="-150.457" font-family="Lato" font-size="12">!a &amp; !b</text><text x="49" y="-137.457" font-family="Lato" font-size="12" fill="#1f78b4">⓿</text></g><g class="node"><circle fill="#ffffa0" stroke="#000" cx="135" cy="-80.057" r="18"/><text text-anchor="middle" x="135" y="-76.957" font-family="Lato" font-size="12">1</text></g><g class="edge"><path fill="none" stroke="#000" d="M74.323-80.057h35.227"/><path stroke="#000" d="M116.777-80.057l-7-3.15 3.5 3.15h-3.5 3.5l-3.5 3.15 7-3.15h0z"/><text x="92" y="-83.457" font-family="Lato" font-size="12">a</text></g><g class="edge"><path fill="none" stroke="#000" d="M128.266-97.095c-1.374-9.82.87-18.962 6.734-18.962 4.398 0 6.76 5.142 7.086 11.856"/><path stroke="#000" d="M141.734-97.095l3.492-6.835-3.32 3.34.174-3.496h0l-.173 3.495-2.973-3.651 2.8 7.147h0z"/><text x="131.5" y="-119.457" font-family="Lato" font-size="12">a</text></g><g class="node"><circle fill="#ffffa0" stroke="#000" cx="241" cy="-31.057" r="18"/><text text-anchor="middle" x="241" y="-27.957" font-family="Lato" font-size="12">2</text></g><g class="edge"><path fill="none" stroke="#000" d="M151.563-72.401l66.554 30.765"/><path stroke="#000" d="M224.554-38.66l-5.032-5.797 1.855 4.328-3.177-1.468h0l3.177 1.468-4.499 1.391 7.676.078h0z"/><text x="171" y="-65.457" font-family="Lato" font-size="12">!a &amp; !b</text></g><g class="node"><circle fill="#ffffa0" stroke="#000" cx="347" cy="-88.057" r="18"/><text text-anchor="middle" x="347" y="-84.957" font-family="Lato" font-size="12">3</text></g><g class="edge"><path fill="none" stroke="#000" d="M151.738-87.498c31.563-13.006 101.865-37.077 159.262-21.56 5.186 1.403 10.392 3.758 15.17 6.396"/><path stroke="#000" d="M332.38-98.953l-4.394-6.295 1.389 4.5-3.005-1.795h0l3.005 1.795-4.62.909 7.625.886h0z"/><text x="225.5" y="-116.457" font-family="Lato" font-size="12">!a &amp; b</text></g><g class="edge"><path fill="none" stroke="#000" d="M232.021-46.974c-2.342-10.234.65-20.083 8.979-20.083 6.376 0 9.625 5.773 9.746 13.073"/><path stroke="#000" d="M249.979-46.974l3.893-6.615-3.512 3.136.38-3.479h0l-.38 3.48-2.75-3.823 2.369 7.301h0z"/><text x="224" y="-83.457" font-family="Lato" font-size="12">!a &amp; !b</text><text x="234" y="-70.457" font-family="Lato" font-size="12" fill="#1f78b4">⓿</text></g><g class="edge"><path fill="none" stroke="#000" d="M258.921-34.278c14.74-3.197 35.779-9.055 52.079-18.78 7.107-4.24 13.894-10.148 19.62-15.905"/><path stroke="#000" d="M335.56-74.154l-7.107 2.9 4.695-.365-2.413 2.536h0l2.413-2.536-.13 4.707 2.542-7.242h0z"/><text x="278.5" y="-56.457" font-family="Lato" font-size="12">!a &amp; b</text></g><g class="node"><circle fill="#ffffa0" stroke="#000" cx="450" cy="-35.057" r="18"/><text text-anchor="middle" x="450" y="-31.957" font-family="Lato" font-size="12">4</text></g><g class="edge"><path fill="none" stroke="#000" d="M259.182-31.405L424.48-34.57"/><path stroke="#000" d="M431.711-34.707l-7.059-3.016 3.56 3.083-3.5.067h0l3.5-.067-3.439 3.216 6.938-3.283h0z"/><text x="343.5" y="-36.457" font-family="Lato" font-size="12">a</text></g><g class="edge"><path fill="none" stroke="#000" d="M329.079-84.837c-14.74 3.198-35.779 9.055-52.079 18.78-7.107 4.24-13.894 10.148-19.62 15.905"/><path stroke="#000" d="M252.44-44.96l7.107-2.9-4.695.364 2.413-2.536h0l-2.413 2.536.13-4.707-2.542 7.243h0z"/><text x="277" y="-95.457" font-family="Lato" font-size="12">!a &amp; !b</text><text x="287" y="-82.457" font-family="Lato" font-size="12" fill="#1f78b4">⓿</text></g><g class="edge"><path fill="none" stroke="#000" d="M338.367-103.974c-2.253-10.234.625-20.083 8.633-20.083 6.131 0 9.255 5.773 9.372 13.073"/><path stroke="#000" d="M355.633-103.974l3.866-6.631-3.499 3.15.366-3.48h0l-.366 3.48-2.766-3.81 2.4 7.291h0z"/><text x="343.5" y="-127.457" font-family="Lato" font-size="12">b</text></g><g class="edge"><path fill="none" stroke="#000" d="M358.348-73.998c6.515 7.22 15.255 15.599 24.652 20.94 12.899 7.333 28.898 11.776 42.027 14.414"/><path stroke="#000" d="M431.988-37.358l-6.312-4.37 2.87 3.734-3.442-.636h0l3.442.636-4.014 2.461 7.456-1.825h0z"/><text x="383" y="-69.457" font-family="Lato" font-size="12">a &amp; !b</text><text x="391.5" y="-56.457" font-family="Lato" font-size="12" fill="#1f78b4">⓿</text></g><g class="edge"><path fill="none" stroke="#000" d="M433.92-26.735C417.213-18.592 390.05-6.75 365-2.057c-35.555 6.66-76.314-7.04-101.101-17.795"/><path stroke="#000" d="M257.349-22.787l5.1 5.737-1.906-4.306 3.194 1.432h0l-3.194-1.432 4.482-1.443-7.676.012h0z"/><text x="330" y="-18.457" font-family="Lato" font-size="12">!a &amp; !b</text><text x="340" y="-5.457" font-family="Lato" font-size="12" fill="#1f78b4">⓿</text></g><g class="edge"><path fill="none" stroke="#000" d="M441.132-51.118C434.87-60.856 425.547-72.61 414-79.058c-12.623-7.048-28.612-9.398-41.804-9.938"/><path stroke="#000" d="M365.194-89.128l6.939 3.282-3.44-3.216 3.5.066h0l-3.5-.066 3.559-3.083-7.058 3.017h0z"/><text x="383" y="-103.457" font-family="Lato" font-size="12">!a &amp; b</text><text x="391.5" y="-90.457" font-family="Lato" font-size="12" fill="#1f78b4">⓿</text></g><g class="edge"><path fill="none" stroke="#000" d="M441.367-50.974c-2.253-10.234.625-20.083 8.633-20.083 6.131 0 9.255 5.773 9.372 13.073"/><path stroke="#000" d="M458.633-50.974l3.866-6.631-3.499 3.15.366-3.48h0l-.366 3.48-2.766-3.81 2.4 7.291h0z"/><text x="446.5" y="-74.457" font-family="Lato" font-size="12">a</text></g></g></svg>