<?xml-stylesheet href="spot.css" type="text/css"?><svg width="706pt" height="296pt" viewBox="0 0 706 296" xmlns="http://www.w3.org/2000/svg"><g class="graph" transform="translate(4 292)"><path fill="#fff" stroke="transparent" d="M-4 4v-296h706V4H-4z"/><text x="330" y="-275.4" font-family="Lato" font-size="12">Fin(</text><text x="350" y="-275.4" font-family="Lato" font-size="12" fill="#1f78b4">⓿</text><text x="364" y="-275.4" font-family="Lato" font-size="12">)</text><text x="321.5" y="-263.4" font-family="Lato" font-size="12">[co-Büchi]</text><g class="node"><circle fill="#ffffa0" stroke="#000" cx="56" cy="-194" r="18"/><text text-anchor="middle" x="56" y="-190.9" font-family="Lato" font-size="12">0</text></g><g class="edge"><path fill="none" stroke="#000" d="M1.123-194h29.801"/><path stroke="#000" d="M37.98-194l-7-3.15 3.5 3.15h-3.5 3.5l-3.5 3.15 7-3.15h0z"/></g><g class="edge"><path fill="none" stroke="#000" d="M49.62-211.037C48.32-220.857 50.446-230 56-230c4.166 0 6.404 5.142 6.713 11.857"/><path stroke="#000" d="M62.38-211.037l3.474-6.845-3.31 3.349.164-3.497h0l-.165 3.496-2.982-3.643 2.818 7.14h0z"/><text x="39" y="-246.4" font-family="Lato" font-size="12">!a &amp; !b</text><text x="49" y="-233.4" font-family="Lato" font-size="12" fill="#1f78b4">⓿</text></g><g class="node"><circle fill="#ffffa0" stroke="#000" cx="162" cy="-145" r="18"/><text text-anchor="middle" x="162" y="-141.9" font-family="Lato" font-size="12">1</text></g><g class="edge"><path fill="none" stroke="#000" d="M73.613-190.223c14.556 3.528 35.499 9.56 52.387 18.223 5.696 2.922 11.433 6.74 16.602 10.58"/><path stroke="#000" d="M148.373-156.954l-3.607-6.775.84 4.633-2.768-2.142h0l2.767 2.142-4.696.349 7.464 1.793h0z"/><text x="93.5" y="-188.4" font-family="Lato" font-size="12">!a &amp; b</text></g><g class="node"><circle fill="#ffffa0" stroke="#000" cx="365" cy="-181" r="18"/><text text-anchor="middle" x="365" y="-177.9" font-family="Lato" font-size="12">2</text></g><g class="edge"><path fill="none" stroke="#000" d="M73.457-198.614c5.852-1.35 12.44-2.657 18.543-3.386 22.952-2.743 28.886-.778 52-1 16-.154 20.028-.946 36 0 57.574 3.411 124.7 12.744 160.138 18.094"/><path stroke="#000" d="M347.204-183.828l-6.445-4.17 2.985 3.642-3.46-.527h0l3.46.527-3.935 2.587 7.395-2.059h0z"/><text x="208.5" y="-204.4" font-family="Lato" font-size="12">a</text></g><g class="edge"><path fill="none" stroke="#000" d="M144.543-139.598C129.7-136.05 108.27-133.475 92-142c-11.598-6.077-20.203-17.776-26.086-28.54"/><path stroke="#000" d="M62.6-177.063l.362 7.667 1.224-4.547 1.585 3.12h0l-1.585-3.12 4.393 1.694-5.979-4.814h0z"/><text x="92" y="-158.4" font-family="Lato" font-size="12">!a &amp; !b</text><text x="102" y="-145.4" font-family="Lato" font-size="12" fill="#1f78b4">⓿</text></g><g class="edge"><path fill="none" stroke="#000" d="M153.367-160.916C151.114-171.15 153.992-181 162-181c6.131 0 9.255 5.774 9.372 13.073"/><path stroke="#000" d="M170.633-160.916l3.866-6.632-3.499 3.151.367-3.48h0l-.367 3.48-2.766-3.81 2.4 7.291h0z"/><text x="146.5" y="-184.4" font-family="Lato" font-size="12">!a &amp; b</text></g><g class="edge"><path fill="none" stroke="#000" d="M180.015-148.195l159.994-28.373"/><path stroke="#000" d="M347.026-177.812l-7.443-1.88 3.996 2.49-3.446.612h0l3.446-.611-2.896 3.713 6.343-4.324h0z"/><text x="246.5" y="-168.4" font-family="Lato" font-size="12">a &amp; !b</text></g><g class="node"><circle fill="#ffffa0" stroke="#000" cx="262" cy="-96" r="18"/><text text-anchor="middle" x="262" y="-92.9" font-family="Lato" font-size="12">3</text></g><g class="edge"><path fill="none" stroke="#000" d="M178.513-136.909l60.82 29.802"/><path stroke="#000" d="M245.794-103.94l-4.9-5.91 1.757 4.37-3.143-1.541h0l3.143 1.54-4.529 1.289 7.672.251h0z"/><text x="198" y="-130.4" font-family="Lato" font-size="12">a &amp; b</text></g><g class="edge"><path fill="none" stroke="#000" d="M356.367-196.916C354.114-207.15 356.992-217 365-217c6.131 0 9.255 5.774 9.372 13.073"/><path stroke="#000" d="M373.633-196.916l3.866-6.632-3.499 3.151.366-3.48h0l-.366 3.48-2.766-3.81 2.4 7.291h0z"/><text x="361.5" y="-220.4" font-family="Lato" font-size="12">a</text></g><g class="node"><circle fill="#ffffa0" stroke="#000" cx="471" cy="-103" r="18"/><text text-anchor="middle" x="471" y="-99.9" font-family="Lato" font-size="12">4</text></g><g class="edge"><path fill="none" stroke="#000" d="M379.739-170.154l70.842 52.129"/><path stroke="#000" d="M456.386-113.754l-3.77-6.685.951 4.611-2.819-2.074h0l2.82 2.074-4.687.463 7.505 1.611h0z"/><text x="401" y="-156.4" font-family="Lato" font-size="12">!a &amp; !b</text></g><g class="node"><circle fill="#ffffa0" stroke="#000" cx="577" cy="-166" r="18"/><text text-anchor="middle" x="577" y="-162.9" font-family="Lato" font-size="12">5</text></g><g class="edge"><path fill="none" stroke="#000" d="M382.656-185.239c32.19-6.959 102.267-18.54 158.344-2.761 5.453 1.534 10.898 4.15 15.84 7.053"/><path stroke="#000" d="M562.796-177.176l-4.229-6.406 1.272 4.534-2.957-1.873h0l2.957 1.873-4.642.789 7.6 1.083h0z"/><text x="455.5" y="-198.4" font-family="Lato" font-size="12">!a &amp; b</text></g><g class="edge"><path fill="none" stroke="#000" d="M275.891-107.463l69.691-57.513"/><path stroke="#000" d="M351-169.447l-7.404 2.026 4.705.202-2.7 2.228h0l2.7-2.228-.695 4.657 3.394-6.885h0z"/><text x="298" y="-154.4" font-family="Lato" font-size="12">a &amp; !b</text></g><g class="edge"><path fill="none" stroke="#000" d="M253.367-111.916C251.114-122.15 253.992-132 262-132c6.131 0 9.255 5.774 9.372 13.073"/><path stroke="#000" d="M270.633-111.916l3.866-6.632-3.499 3.151.366-3.48h0l-.366 3.48-2.766-3.81 2.4 7.291h0z"/><text x="248" y="-135.4" font-family="Lato" font-size="12">a &amp; b</text></g><g class="edge"><path fill="none" stroke="#000" d="M280.182-96.609l165.62-5.547"/><path stroke="#000" d="M453.01-102.397l-7.102-2.914 3.603 3.03-3.498.118h0l3.498-.117-3.393 3.265 6.891-3.382h0z"/><text x="348" y="-103.4" font-family="Lato" font-size="12">!a &amp; !b</text></g><g class="node"><circle fill="#ffffa0" stroke="#000" cx="365" cy="-18" r="18"/><text text-anchor="middle" x="365" y="-14.9" font-family="Lato" font-size="12">6</text></g><g class="edge"><path fill="none" stroke="#000" d="M276.757-84.825L345-33.145"/><path stroke="#000" d="M350.602-28.903l-3.679-6.738.889 4.625-2.79-2.113h0l2.79 2.113-4.692.398 7.482 1.715h0z"/><text x="298" y="-72.4" font-family="Lato" font-size="12">!a &amp; b</text></g><g class="edge"><path fill="none" stroke="#000" d="M462.021-118.916C459.68-129.15 462.671-139 471-139c6.376 0 9.625 5.774 9.747 13.073"/><path stroke="#000" d="M479.979-118.916l3.893-6.615-3.512 3.136.38-3.48h0l-.38 3.48-2.75-3.822 2.369 7.301h0z"/><text x="454" y="-155.4" font-family="Lato" font-size="12">!a &amp; !b</text><text x="464" y="-142.4" font-family="Lato" font-size="12" fill="#1f78b4">⓿</text></g><g class="edge"><path fill="none" stroke="#000" d="M488.596-107.927c14.735-4.605 35.938-12.38 52.404-23.073 6.829-4.434 13.467-10.292 19.145-15.945"/><path stroke="#000" d="M565.067-152.03l-7.132 2.839 4.698-.325-2.434 2.516h0l2.434-2.516-.17 4.706 2.604-7.22h0z"/><text x="520.5" y="-134.4" font-family="Lato" font-size="12">b</text></g><g class="node"><circle fill="#ffffa0" stroke="#000" cx="680" cy="-97" r="18"/><text text-anchor="middle" x="680" y="-93.9" font-family="Lato" font-size="12">7</text></g><g class="edge"><path fill="none" stroke="#000" d="M486.105-93.152C503.035-82.803 531.7-67.304 559-62c35.32 6.862 75.22-9.553 99.224-22.16"/><path stroke="#000" d="M664.556-87.592l-7.656.566 4.579 1.102-3.077 1.668h0l3.077-1.668-1.576 4.437 4.653-6.105h0z"/><text x="561.5" y="-65.4" font-family="Lato" font-size="12">a &amp; !b</text></g><g class="edge"><path fill="none" stroke="#000" d="M559.17-163.173C544.292-160.19 523.01-154.43 507-144c-8.061 5.251-15.392 12.789-21.304 19.972"/><path stroke="#000" d="M481.08-118.135l6.796-3.567-4.638.812 2.159-2.755h0l-2.159 2.755-.321-4.698-1.837 7.453h0z"/><text x="507" y="-174.4" font-family="Lato" font-size="12">!a &amp; !b</text><text x="517" y="-161.4" font-family="Lato" font-size="12" fill="#1f78b4">⓿</text></g><g class="edge"><path fill="none" stroke="#000" d="M568.367-181.916C566.114-192.15 568.992-202 577-202c6.131 0 9.255 5.774 9.372 13.073"/><path stroke="#000" d="M585.633-181.916l3.866-6.632-3.499 3.151.366-3.48h0l-.366 3.48-2.766-3.81 2.4 7.291h0z"/><text x="573.5" y="-205.4" font-family="Lato" font-size="12">b</text></g><g class="edge"><path fill="none" stroke="#000" d="M594.965-167.644c14.398-.42 34.524 1.096 49.035 10.644 12.963 8.529 21.952 23.484 27.706 36.33"/><path stroke="#000" d="M674.424-114.19l.197-7.674-1.55 4.446-1.354-3.227h0l1.354 3.227-4.26-2.009 5.613 5.237h0z"/><text x="613" y="-182.4" font-family="Lato" font-size="12">a &amp; !b</text><text x="621.5" y="-169.4" font-family="Lato" font-size="12" fill="#1f78b4">⓿</text></g><g class="edge"><path fill="none" stroke="#000" d="M379.296-29.463l72.07-57.793"/><path stroke="#000" d="M456.93-91.718l-7.43 1.922 4.7.267-2.73 2.19h0l2.73-2.19-.76 4.647 3.49-6.836h0z"/><text x="401" y="-77.4" font-family="Lato" font-size="12">!a &amp; !b</text></g><g class="edge"><path fill="none" stroke="#000" d="M356.367-33.916C354.114-44.15 356.992-54 365-54c6.131 0 9.255 5.774 9.372 13.073"/><path stroke="#000" d="M373.633-33.916l3.866-6.632L374-37.397l.366-3.48h0l-.366 3.48-2.766-3.81 2.4 7.291h0z"/><text x="361.5" y="-57.4" font-family="Lato" font-size="12">b</text></g><g class="edge"><path fill="none" stroke="#000" d="M383.068-17.347C429.153-16.411 553.802-18.494 644-63c7.201-3.553 13.94-9.04 19.595-14.576"/><path stroke="#000" d="M668.466-82.62l-7.128 2.847 4.697-.33-2.431 2.518h0l2.43-2.518-.164 4.706 2.596-7.223h0z"/><text x="508.5" y="-33.4" font-family="Lato" font-size="12">a &amp; !b</text></g><g class="edge"><path fill="none" stroke="#000" d="M661.711-97.525l-165.314-4.746"/><path stroke="#000" d="M489.182-102.478l6.906 3.35-3.408-3.25 3.499.1h0l-3.499-.1 3.59-3.048-7.088 2.948h0z"/><text x="560" y="-117.4" font-family="Lato" font-size="12">!a &amp; !b</text><text x="570" y="-104.4" font-family="Lato" font-size="12" fill="#1f78b4">⓿</text></g><g class="edge"><path fill="none" stroke="#000" d="M662.752-102.533C648.587-107.573 628.42-115.917 613-127c-7.365-5.294-14.39-12.283-20.245-18.88"/><path stroke="#000" d="M588.128-151.285l2.16 7.366.116-4.707 2.276 2.659h0l-2.276-2.66 4.67.611-6.946-3.27h0z"/><text x="613" y="-143.4" font-family="Lato" font-size="12">!a &amp; b</text><text x="621.5" y="-130.4" font-family="Lato" font-size="12" fill="#1f78b4">⓿</text></g><g class="edge"><path fill="none" stroke="#000" d="M671.367-112.916C669.114-123.15 671.992-133 680-133c6.131 0 9.255 5.774 9.372 13.073"/><path stroke="#000" d="M688.633-112.916l3.866-6.632-3.499 3.151.366-3.48h0l-.366 3.48-2.766-3.81 2.4 7.291h0z"/><text x="676.5" y="-136.4" font-family="Lato" font-size="12">a</text></g></g></svg>