<?xml-stylesheet href="spot.css" type="text/css"?><svg width="356" height="204" viewBox="0 0 267 153" xmlns="http://www.w3.org/2000/svg"><g class="graph" transform="translate(4 149)"><path fill="#fff" stroke="transparent" d="M-4 4v-153h267V4H-4z"/><text x="110.5" y="-132.4" font-family="Lato" font-size="12">Fin(</text><text x="130.5" y="-132.4" font-family="Lato" font-size="12" fill="#1f78b4">⓿</text><text x="144.5" y="-132.4" font-family="Lato" font-size="12">)</text><text x="102" y="-120.4" font-family="Lato" font-size="12">[co-Büchi]</text><g class="node"><circle fill="#ffffa0" stroke="#000" cx="56" cy="-18" r="18"/><text text-anchor="middle" x="56" y="-14.9" font-family="Lato" font-size="12">1</text></g><g class="edge"><path fill="none" stroke="#000" d="M1.123-18h29.801"/><path stroke="#000" d="M37.98-18l-7-3.15 3.5 3.15h-3.5 3.5l-3.5 3.15 7-3.15h0z"/></g><g class="edge"><path fill="none" stroke="#000" d="M52.764-35.782C52.214-45.315 53.293-54 56-54c1.988 0 3.098 4.684 3.33 10.948"/><path stroke="#000" d="M59.236-35.782l3.24-6.959-3.195 3.46.045-3.5h0l-.045 3.5-3.105-3.54 3.06 7.04h0z"/><text x="30.5" y="-57.4" font-family="Lato" font-size="12">a &amp; !b &amp; c</text></g><g class="edge"><path fill="none" stroke="#000" d="M50.684-35.42C47.654-52.791 49.426-72 56-72c5.701 0 7.79 14.446 6.27 29.61"/><path stroke="#000" d="M61.316-35.42l4.07-6.509-3.596 3.041.475-3.468h0l-.475 3.468-2.646-3.895 2.172 7.363h0z"/><text x="29" y="-88.4" font-family="Lato" font-size="12">!a &amp; !b &amp; c</text><text x="49" y="-75.4" font-family="Lato" font-size="12" fill="#1f78b4">⓿</text></g><g class="node"><circle fill="#ffffa0" stroke="#000" cx="162" cy="-51" r="18"/><text text-anchor="middle" x="162" y="-47.9" font-family="Lato" font-size="12">0</text></g><g class="edge"><path fill="none" stroke="#000" d="M73.504-23.45l64.118-19.96"/><path stroke="#000" d="M144.47-45.543l-7.62-.926 4.278 1.967-3.341 1.04h0l3.341-1.04-2.405 4.048 5.747-5.089h0z"/><text x="92" y="-42.4" font-family="Lato" font-size="12">!b &amp; !c</text></g><g class="node"><circle fill="#ffffa0" stroke="#000" cx="241" cy="-18" r="18"/><text text-anchor="middle" x="241" y="-14.9" font-family="Lato" font-size="12">2</text></g><g class="edge"><path fill="none" stroke="#000" d="M74.072-15.694C98.215-12.908 142.328-8.846 180-11c11.846-.678 24.924-2.09 35.922-3.469"/><path stroke="#000" d="M223.163-15.41l-7.348-2.221 3.877 2.673-3.47.45h0l3.47-.45-3.065 3.574 6.536-4.025h0z"/><text x="158.5" y="-14.4" font-family="Lato" font-size="12">b</text></g><g class="edge"><path fill="none" stroke="#000" d="M155.266-68.037C153.892-77.857 156.136-87 162-87c4.398 0 6.76 5.142 7.086 11.857"/><path stroke="#000" d="M168.734-68.037l3.492-6.836-3.32 3.34.174-3.496h0l-.173 3.496-2.973-3.652 2.8 7.148h0z"/><text x="157" y="-103.4" font-family="Lato" font-size="12">!b</text><text x="155" y="-90.4" font-family="Lato" font-size="12" fill="#1f78b4">⓿</text></g><g class="edge"><path fill="none" stroke="#000" d="M178.754-44.002l38.887 16.244"/><path stroke="#000" d="M224.27-24.988l-5.245-5.605 2.016 4.256-3.23-1.35h0l3.23 1.35-4.444 1.557 7.673-.208h0z"/><text x="198" y="-38.4" font-family="Lato" font-size="12">b</text></g><g class="edge"><path fill="none" stroke="#000" d="M237.584-35.782C237.004-45.315 238.143-54 241-54c2.098 0 3.27 4.684 3.514 10.948"/><path stroke="#000" d="M244.416-35.782l3.244-6.956-3.197 3.457.048-3.5h0l-.048 3.5-3.102-3.543 3.055 7.042h0z"/><text x="237.5" y="-57.4" font-family="Lato" font-size="12">a</text></g><g class="edge"><path fill="none" stroke="#000" d="M235.44-35.142C232.17-52.585 234.024-72 241-72c6.05 0 8.247 14.6 6.591 29.854"/><path stroke="#000" d="M246.56-35.142l4.136-6.466-3.626 3.004.51-3.463h0l-.51 3.463-2.607-3.922 2.096 7.384h0z"/><text x="236" y="-88.4" font-family="Lato" font-size="12">!a</text><text x="234" y="-75.4" font-family="Lato" font-size="12" fill="#1f78b4">⓿</text></g></g></svg>