<?xml-stylesheet href="spot.css" type="text/css"?><svg width="185pt" height="172pt" viewBox="0 0 185 171.9" xmlns="http://www.w3.org/2000/svg"><g class="graph" transform="translate(4 167.898)"><path fill="#fff" stroke="transparent" d="M-4 4v-171.898h185V4H-4z"/><text x="47.5" y="-151.298" font-family="Lato" font-size="12">Inf(</text><text x="65.5" y="-151.298" font-family="Lato" font-size="12" fill="#ff4da0">❶</text><text x="79.5" y="-151.298" font-family="Lato" font-size="12">) | Fin(</text><text x="111.5" y="-151.298" font-family="Lato" font-size="12" fill="#1f78b4">⓿</text><text x="125.5" y="-151.298" font-family="Lato" font-size="12">)</text><text x="61.5" y="-139.298" font-family="Lato" font-size="12">[Streett 1]</text><g class="node"><circle fill="#ffffa0" stroke="#000" cx="56" cy="-25.898" r="18"/><text text-anchor="middle" x="56" y="-22.798" font-family="Lato" font-size="12">1</text></g><g class="edge"><path fill="none" stroke="#000" d="M1.123-25.898h29.801"/><path stroke="#000" d="M37.98-25.898l-7-3.15 3.5 3.15h-3.5 3.5l-3.5 3.15 7-3.15h0z"/></g><g class="edge"><path fill="none" stroke="#000" d="M52.764-43.68c-.55-9.533.529-18.218 3.236-18.218 1.988 0 3.098 4.684 3.33 10.948"/><path stroke="#000" d="M59.236-43.68l3.24-6.959-3.195 3.46.045-3.5h0l-.045 3.5-3.105-3.54 3.06 7.04h0z"/><text x="51" y="-78.298" font-family="Lato" font-size="12">!a</text><text x="49" y="-65.298" font-family="Lato" font-size="12" fill="#1f78b4">⓿</text></g><g class="edge"><path fill="none" stroke="#000" d="M50.938-43.18C47.562-63.147 49.25-87.897 56-87.897c5.959 0 7.972 19.29 6.04 37.55"/><path stroke="#000" d="M61.063-43.18l4.067-6.51-3.594 3.043.473-3.468h0l-.473 3.468-2.648-3.894 2.175 7.362h0z"/><text x="42" y="-104.298" font-family="Lato" font-size="12">a &amp; b</text><text x="49" y="-91.298" font-family="Lato" font-size="12" fill="#ff4da0">❶</text></g><g class="node"><circle fill="#ffffa0" stroke="#000" cx="159" cy="-25.898" r="18"/><text text-anchor="middle" x="159" y="-22.798" font-family="Lato" font-size="12">0</text></g><g class="edge"><path fill="none" stroke="#000" d="M73.927-27.687c5.764-.496 12.183-.966 18.073-1.211 13.766-.573 17.234-.573 31 0 3.59.15 7.375.382 11.089.653"/><path stroke="#000" d="M141.073-27.687l-6.727-3.697 3.238 3.418-3.489-.278h0l3.49.278-3.74 2.862 7.228-2.583h0z"/><text x="92" y="-45.298" font-family="Lato" font-size="12">a &amp; !b</text><text x="100.5" y="-32.298" font-family="Lato" font-size="12" fill="#1f78b4">⓿</text></g><g class="edge"><path fill="none" stroke="#000" d="M144.87-14.22C138.578-9.755 130.83-5.187 123-2.899c-13.225 3.864-17.775 3.864-31 0-5.506-1.609-10.971-4.345-15.918-7.38"/><path stroke="#000" d="M70.13-14.22l4.097 6.491-1.178-4.559 2.917 1.933h0l-2.917-1.933 4.657-.693-7.575-1.24h0z"/><text x="104" y="-19.298" font-family="Lato" font-size="12">b</text><text x="100.5" y="-6.298" font-family="Lato" font-size="12" fill="#ff4da0">❶</text></g><g class="edge"><path fill="none" stroke="#000" d="M150.367-41.814c-2.253-10.234.625-20.084 8.633-20.084 6.131 0 9.255 5.774 9.372 13.073"/><path stroke="#000" d="M167.633-41.814l3.866-6.632L168-45.295l.367-3.48h0l-.367 3.48-2.766-3.81 2.4 7.291h0z"/><text x="154" y="-78.298" font-family="Lato" font-size="12">!b</text><text x="152" y="-65.298" font-family="Lato" font-size="12" fill="#1f78b4">⓿</text></g></g></svg>