<?xml-stylesheet href="spot.css" type="text/css"?><svg width="380" height="208" viewBox="0 0 285 156.03" xmlns="http://www.w3.org/2000/svg"><g class="graph" transform="translate(4 152.03)"><path fill="#fff" stroke="transparent" d="M-4 4v-156.03h285V4H-4z"/><text x="70" y="-135.43" font-family="Lato" font-size="12">Inf(</text><text x="88" y="-135.43" font-family="Lato" font-size="12" fill="#ff7f00">❷</text><text x="102" y="-135.43" font-family="Lato" font-size="12">) | (Fin(</text><text x="137" y="-135.43" font-family="Lato" font-size="12" fill="#ff4da0">❶</text><text x="151" y="-135.43" font-family="Lato" font-size="12">) &amp; Inf(</text><text x="186" y="-135.43" font-family="Lato" font-size="12" fill="#1f78b4">⓿</text><text x="200" y="-135.43" font-family="Lato" font-size="12">))</text><text x="88" y="-123.43" font-family="Lato" font-size="12">[parity max even 3]</text><g class="node"><path fill="#ffffa0" stroke="#000" d="M62-71.03H50c-6 0-12 6-12 12v12c0 6 6 12 12 12h12c6 0 12-6 12-12v-12c0-6-6-12-12-12"/><text x="52.5" y="-56.43" font-family="Lato" font-size="12">2</text><text x="49" y="-43.43" font-family="Lato" font-size="12" fill="#ff7f00">❷</text></g><g class="edge"><path fill="none" stroke="#000" d="M1.123-53.03h29.801"/><path stroke="#000" d="M37.98-53.03l-7-3.15 3.5 3.15h-3.5 3.5l-3.5 3.15 7-3.15h0z"/></g><g class="edge"><path fill="none" stroke="#000" d="M49.487-71.183C48.485-80.569 50.657-89.03 56-89.03c3.924 0 6.138 4.563 6.64 10.705"/><path stroke="#000" d="M62.513-71.183l3.274-6.942-3.212 3.443.062-3.5h0l-.062 3.5-3.087-3.555 3.025 7.054h0z"/><text x="42" y="-92.43" font-family="Lato" font-size="12">a &amp; b</text></g><g class="node"><path fill="#ffffa0" stroke="#000" d="M265-61.03h-12c-6 0-12 6-12 12v12c0 6 6 12 12 12h12c6 0 12-6 12-12v-12c0-6-6-12-12-12"/><text x="255.5" y="-46.43" font-family="Lato" font-size="12">0</text><text x="252" y="-33.43" font-family="Lato" font-size="12" fill="#ff4da0">❶</text></g><g class="edge"><path fill="none" stroke="#000" d="M74.036-68.766C96.88-86.725 137.652-112.25 174-101.03c22.957 7.086 45.251 22.734 61.244 35.992"/><path stroke="#000" d="M240.84-60.282l-3.293-6.934.627 4.667-2.667-2.266h0l2.667 2.266-4.707.134 7.374 2.133h0z"/><text x="140.5" y="-106.43" font-family="Lato" font-size="12">a &amp; !b</text></g><g class="node"><path fill="#ffffa0" stroke="#000" d="M162-61.03h-12c-6 0-12 6-12 12v12c0 6 6 12 12 12h12c6 0 12-6 12-12v-12c0-6-6-12-12-12"/><text x="152.5" y="-46.43" font-family="Lato" font-size="12">1</text><text x="149" y="-33.43" font-family="Lato" font-size="12" fill="#ff4da0">❶</text></g><g class="edge"><path fill="none" stroke="#000" d="M74.251-52.388c12.828.573 30.374 1.601 45.749 3.358 3.439.393 7.05.892 10.601 1.433"/><path stroke="#000" d="M137.737-46.447l-6.41-4.224 2.955 3.667-3.456-.557h0l3.456.557-3.957 2.553 7.412-1.996h0z"/><text x="101" y="-54.43" font-family="Lato" font-size="12">!a</text></g><g class="edge"><path fill="none" stroke="#000" d="M240.738-29.976C217.209-14.787 174.936 7.009 138-3.03 116.693-8.82 95.488-22 79.981-33.373"/><path stroke="#000" d="M74.12-37.786l3.698 6.727-.902-4.622 2.796 2.105h0l-2.796-2.105 4.691-.411-7.487-1.694h0z"/><text x="152.5" y="-6.43" font-family="Lato" font-size="12">b</text></g><g class="edge"><path fill="none" stroke="#000" d="M249.955-61.183c-1.392-9.386 1.623-17.847 9.045-17.847 5.45 0 8.524 4.563 9.222 10.705"/><path stroke="#000" d="M268.045-61.183l3.322-6.92-3.235 3.421.086-3.498h0l-.086 3.499-3.063-3.577 2.976 7.075h0z"/><text x="254" y="-82.43" font-family="Lato" font-size="12">!b</text></g><g class="edge"><path fill="none" stroke="#000" d="M137.892-37.912C124.978-35.02 107.27-32.606 92-36.03c-3.794-.85-7.658-2.148-11.38-3.655"/><path stroke="#000" d="M74.124-42.573l5.117 5.722-1.92-4.3 3.2 1.421h0l-3.2-1.421 4.478-1.457-7.675.035h0z"/><text x="92" y="-39.43" font-family="Lato" font-size="12">a &amp; b</text></g><g class="edge"><path fill="none" stroke="#000" d="M174.414-43.03h58.884"/><path stroke="#000" d="M240.745-43.03l-7-3.15 3.5 3.15h-3.5 3.5l-3.5 3.15 7-3.15h0z"/><text x="192" y="-46.43" font-family="Lato" font-size="12">a &amp; !b</text></g><g class="edge"><path fill="none" stroke="#000" d="M146.955-61.183c-1.392-9.386 1.623-17.847 9.045-17.847 5.45 0 8.524 4.563 9.222 10.705"/><path stroke="#000" d="M165.045-61.183l3.322-6.92-3.235 3.421.086-3.498h0l-.086 3.499-3.063-3.577 2.976 7.075h0z"/><text x="151" y="-82.43" font-family="Lato" font-size="12">!a</text></g></g></svg>