<?xml-stylesheet href="spot.css" type="text/css"?><svg width="283pt" height="196" viewBox="0 0 283 147.4" xmlns="http://www.w3.org/2000/svg"><g class="graph" transform="translate(4 143.4)"><path fill="#fff" stroke="transparent" d="M-4 4v-147.4h283V4H-4z"/><text x="118.5" y="-112.8" font-family="Lato" font-size="12">[Büchi]</text><g class="node"><circle fill="#ffffa0" stroke="#000" cx="60" cy="-22" r="18"/><circle fill="none" stroke="#000" cx="60" cy="-22" r="22"/><text text-anchor="middle" x="60" y="-18.9" font-family="Lato" font-size="12">2</text></g><g class="edge"><path fill="none" stroke="#000" d="M1.168-22h29.47"/><path stroke="#000" d="M37.865-22l-7-3.15 3.5 3.15h-3.5 3.5l-3.5 3.15 7-3.15h0z"/></g><g class="edge"><path fill="none" stroke="#000" d="M52.683-42.99C51.78-53.088 54.22-62 60-62c4.336 0 6.792 5.013 7.368 11.78"/><path stroke="#000" d="M67.317-42.99l3.2-6.978-3.175 3.477.024-3.5h0l-.025 3.5-3.125-3.522 3.1 7.022h0z"/><text x="44.5" y="-65.4" font-family="Lato" font-size="12">!b &amp; c</text></g><g class="node"><circle fill="#ffffa0" stroke="#000" cx="170" cy="-55" r="18"/><text text-anchor="middle" x="170" y="-51.9" font-family="Lato" font-size="12">0</text></g><g class="edge"><path fill="none" stroke="#000" d="M81.21-28.363l64.52-19.356"/><path stroke="#000" d="M152.479-49.744l-7.61-1.005 4.258 2.011-3.353 1.006h0l3.353-1.006-2.448 4.023 5.8-5.029h0z"/><text x="100" y="-46.4" font-family="Lato" font-size="12">!b &amp; !c</text></g><g class="node"><circle fill="#ffffa0" stroke="#000" cx="253" cy="-22" r="18"/><circle fill="none" stroke="#000" cx="253" cy="-22" r="22"/><text text-anchor="middle" x="253" y="-18.9" font-family="Lato" font-size="12">1</text></g><g class="edge"><path fill="none" stroke="#000" d="M82.198-19.328C107.724-16.593 150.887-13.008 188-15c11.807-.634 24.77-1.911 35.99-3.203"/><path stroke="#000" d="M231.084-19.048l-7.324-2.3 3.848 2.714-3.475.414h0l3.475-.414-3.103 3.542 6.579-3.956h0z"/><text x="166.5" y="-18.4" font-family="Lato" font-size="12">b</text></g><g class="edge"><path fill="none" stroke="#000" d="M163.266-72.037C161.892-81.857 164.136-91 170-91c4.398 0 6.76 5.142 7.086 11.857"/><path stroke="#000" d="M176.734-72.037l3.492-6.836-3.32 3.34.174-3.496h0l-.173 3.496-2.973-3.652 2.8 7.148h0z"/><text x="165" y="-94.4" font-family="Lato" font-size="12">!b</text></g><g class="edge"><path fill="none" stroke="#000" d="M186.796-48.322l39.096 15.544"/><path stroke="#000" d="M232.406-30.188l-5.34-5.513 2.088 4.22-3.252-1.293h0l3.252 1.293-4.416 1.634 7.668-.34h0z"/><text x="206" y="-43.4" font-family="Lato" font-size="12">b</text></g><g class="edge"><path fill="none" stroke="#000" d="M245.317-42.99C244.37-53.088 246.93-62 253-62c4.553 0 7.131 5.013 7.736 11.78"/><path stroke="#000" d="M260.683-42.99l3.201-6.977-3.175 3.476.026-3.5h0l-.026 3.5-3.124-3.523 3.098 7.023h0z"/><text text-anchor="middle" x="253" y="-65.4" font-family="Lato" font-size="12">1</text></g></g></svg>