<svg xmlns="http://www.w3.org/2000/svg" xmlns:xlink="http://www.w3.org/1999/xlink" width="480" height="480" viewBox="0 0 360 360"><defs><symbol overflow="visible" id="H"><path d="M-4.969-3.531h-.922c-.03.156-.03.234-.03.36 0 .593.343 1.03 1.202 1.562h-1.047v.843H0v-.921h-2.984c-1.313 0-1.954-.422-1.985-1.844zm0 0"/></symbol><symbol overflow="visible" id="q"><path d="M4.453-3c0-2.156-.672-3.234-2.031-3.234-1.344 0-2.047 1.093-2.047 3.187S1.078.125 2.422.125C3.734.125 4.453-.953 4.453-3zm-.781-.063c0 1.766-.406 2.547-1.266 2.547-.828 0-1.234-.828-1.234-2.53 0-1.704.406-2.5 1.25-2.5.828 0 1.25.812 1.25 2.484zm0 0"/></symbol><symbol overflow="visible" id="s"><path d="M4.5-4.406c0-1.063-.828-1.828-2-1.828-1.281 0-2.016.64-2.063 2.156h.782c.062-1.047.484-1.484 1.25-1.484.703 0 1.234.5 1.234 1.171 0 .5-.297.922-.844 1.235l-.812.453C.75-1.97.375-1.375.297 0h4.156v-.766H1.172c.078-.515.36-.828 1.125-1.28l.875-.485C4.047-2.984 4.5-3.641 4.5-4.406zm0 0"/></symbol><symbol overflow="visible" id="t"><path d="M4.453-1.813c0-.75-.312-1.203-1.062-1.453.578-.234.875-.625.875-1.25 0-1.078-.72-1.718-1.907-1.718-1.25 0-1.921.687-1.953 2.015h.781c.016-.922.391-1.343 1.188-1.343.688 0 1.094.406 1.094 1.062 0 .672-.281.953-1.531.953v.64h.421c.86 0 1.297.407 1.297 1.11 0 .781-.484 1.25-1.297 1.25-.843 0-1.25-.422-1.296-1.328H.28c.094 1.375.781 2 2.063 2 1.281 0 2.11-.766 2.11-1.938zm0 0"/></symbol><symbol overflow="visible" id="u"><path d="M5.047-1.61c0-.859-.484-1.296-1.625-1.562l-.875-.219c-.75-.171-1.078-.421-1.078-.828 0-.515.484-.86 1.218-.86.75 0 1.141.313 1.157.923h.969c0-1.14-.75-1.766-2.079-1.766-1.343 0-2.218.688-2.218 1.75 0 .906.468 1.328 1.828 1.656l.86.22c.64.155.89.343.89.75 0 .546-.547.859-1.344.859-.828 0-1.281-.188-1.406-1.079H.375C.422-.422 1.172.172 2.672.172 4.125.172 5.047-.5 5.047-1.61zm0 0"/></symbol><symbol overflow="visible" id="v"><path d="M2.797 0v-.766a1.786 1.786 0 01-.438.047c-.406 0-.515-.125-.515-.531v-3.766h.953v-.75h-.953v-1.578H.937v1.578h-.78v.75h.78v4.172c0 .594.391.922 1.11.922.219 0 .437-.015.75-.078zm0 0"/></symbol><symbol overflow="visible" id="w"><path d="M5.89-.016v-.703c-.109.031-.156.031-.202.031-.313 0-.5-.171-.5-.453v-3.218c0-1.016-.75-1.563-2.157-1.563-1.406 0-2.265.531-2.312 1.86h.922c.078-.704.5-1.016 1.343-1.016.829 0 1.297.297 1.297.86v.234c0 .39-.234.546-.953.64-1.297.172-1.5.203-1.86.36-.671.265-1 .78-1 1.484 0 1.047.72 1.672 1.891 1.672.735 0 1.454-.313 1.954-.86a.97.97 0 00.953.766c.171 0 .328-.015.625-.094zM4.282-1.984c0 .812-.843 1.343-1.734 1.343-.703 0-1.125-.25-1.125-.875 0-.609.406-.875 1.39-1.015.954-.125 1.157-.172 1.47-.313zm0 0"/></symbol><symbol overflow="visible" id="x"><path d="M5.64-2.625c0-.828-.062-1.36-.234-1.781-.375-.953-1.25-1.516-2.328-1.516-1.61 0-2.64 1.188-2.64 3.078s1 3.016 2.624 3.016c1.313 0 2.235-.75 2.454-1.922h-.922c-.25.766-.766 1.063-1.5 1.063-.953 0-1.672-.61-1.703-1.938zm-.984-.813v.079H1.422c.078-1.032.719-1.72 1.64-1.72.907 0 1.594.75 1.594 1.641zm0 0"/></symbol><symbol overflow="visible" id="y"><path d="M2.094 0v-1.14H.954V0zm0 0"/></symbol><symbol overflow="visible" id="z"><path d="M8.36 0v-4.328c0-1.031-.579-1.594-1.657-1.594-.766 0-1.219.219-1.766.875-.343-.625-.796-.875-1.546-.875-.766 0-1.282.281-1.782.969v-.813H.781V0h.906v-3.625c0-.828.61-1.5 1.36-1.5.687 0 1.062.422 1.062 1.156V0h.922v-3.625c0-.828.61-1.5 1.36-1.5.671 0 1.062.422 1.062 1.156V0zm0 0"/></symbol><symbol overflow="visible" id="A"><path d="M1.656 0v-8.016H.75V0zm0 0"/></symbol><symbol overflow="visible" id="B"><path d="M-1.61-5.047c-.859 0-1.296.484-1.562 1.625l-.219.875c-.171.75-.421 1.078-.828 1.078-.515 0-.86-.484-.86-1.218 0-.75.313-1.141.923-1.157v-.969c-1.14 0-1.766.75-1.766 2.079 0 1.343.688 2.218 1.75 2.218.906 0 1.328-.468 1.656-1.828l.22-.86c.155-.64.343-.89.75-.89.546 0 .859.547.859 1.344 0 .828-.188 1.281-1.079 1.406v.969C-.422-.422.172-1.172.172-2.672c0-1.453-.672-2.375-1.781-2.375zm0 0"/></symbol><symbol overflow="visible" id="C"><path d="M0-2.797h-.766c.032.125.047.266.047.438 0 .406-.125.515-.531.515h-3.766v-.953h-.75v.953h-1.578v.907h1.578v.78h.75v-.78h4.172c.594 0 .922-.391.922-1.11 0-.219-.015-.437-.078-.75zm0 0"/></symbol><symbol overflow="visible" id="D"><path d="M-.016-5.89h-.703c.031.109.031.156.031.202 0 .313-.171.5-.453.5h-3.218c-1.016 0-1.563.75-1.563 2.157 0 1.406.531 2.265 1.86 2.312v-.922c-.704-.078-1.016-.5-1.016-1.343 0-.829.297-1.297.86-1.297h.234c.39 0 .546.234.64.953.172 1.297.203 1.5.36 1.86.265.671.78 1 1.484 1 1.047 0 1.672-.72 1.672-1.891 0-.735-.313-1.454-.86-1.954a.97.97 0 00.766-.953 2.22 2.22 0 00-.094-.625zm-1.968 1.609c.812 0 1.343.843 1.343 1.734 0 .703-.25 1.125-.875 1.125-.609 0-.875-.406-1.015-1.39-.125-.954-.172-1.157-.313-1.47zm0 0"/></symbol><symbol overflow="visible" id="E"><path d="M-2.625-5.64c-.828 0-1.36.062-1.781.234-.953.375-1.516 1.25-1.516 2.328 0 1.61 1.188 2.64 3.078 2.64s3.016-1 3.016-2.624c0-1.313-.75-2.235-1.922-2.454v.922c.766.25 1.063.766 1.063 1.5 0 .953-.61 1.672-1.938 1.703zm-.813.984h.079v3.234c-1.032-.078-1.72-.719-1.72-1.64 0-.907.75-1.594 1.641-1.594zm0 0"/></symbol><symbol overflow="visible" id="F"><path d="M0-2.094h-1.14v1.14H0zm0 0"/></symbol><symbol overflow="visible" id="G"><path d="M0-5.438h-8.016v.907h2.985c-.594.39-.89 1-.89 1.765 0 1.5 1.14 2.485 2.984 2.485C-.984-.281.171-1.25.171-2.797c0-.797-.297-1.344-1.016-1.828H0zm-2.86.907c1.329 0 2.172.64 2.172 1.61 0 1.015-.859 1.671-2.187 1.671-1.344 0-2.203-.656-2.203-1.672 0-.984.89-1.61 2.219-1.61zm0 0"/></symbol><symbol overflow="visible" id="r"><path d="M3.047 0v-6.234h-.5C2.266-5.281 2.094-5.141.89-5v.563h1.39V0zm0 0"/></symbol><clipPath id="i"><path d="M35.152 225h320.371v2H35.153zm0 0"/></clipPath><clipPath id="a"><path d="M35.152 5.48H355V325H35.152zm0 0"/></clipPath><clipPath id="c"><path d="M35.152 178H355v2H35.152zm0 0"/></clipPath><clipPath id="d"><path d="M35.152 85H355v1H35.152zm0 0"/></clipPath><clipPath id="e"><path d="M86 5.48h2v320.372h-2zm0 0"/></clipPath><clipPath id="f"><path d="M180 5.48h2v320.372h-2zm0 0"/></clipPath><clipPath id="g"><path d="M274 5.48h1v320.372h-1zm0 0"/></clipPath><clipPath id="h"><path d="M35.152 319h320.371v2H35.153zm0 0"/></clipPath><clipPath id="b"><path d="M35.152 272H355v2H35.152zm0 0"/></clipPath><clipPath id="j"><path d="M35.152 131h320.371v2H35.153zm0 0"/></clipPath><clipPath id="k"><path d="M35.152 38h320.371v2H35.153zm0 0"/></clipPath><clipPath id="l"><path d="M39 5.48h2v320.372h-2zm0 0"/></clipPath><clipPath id="m"><path d="M133 5.48h2v320.372h-2zm0 0"/></clipPath><clipPath id="n"><path d="M227 5.48h2v320.372h-2zm0 0"/></clipPath><clipPath id="o"><path d="M320 5.48h2v320.372h-2zm0 0"/></clipPath><clipPath id="p"><path d="M35.152 5.48h320.371v320.372H35.153zm0 0"/></clipPath></defs><path fill="#fff" d="M0 0h360v360H0z"/><path fill="#fff" d="M0 0h360v360H0z"/><path d="M0 360h360V0H0zm0 0" fill="none" stroke-width="1.067" stroke-linecap="round" stroke-linejoin="round" stroke="#fff" stroke-miterlimit="10"/><g clip-path="url(#a)"><path d="M35.152 324.848h319.371V5.477H35.153zm0 0" fill="#ebebeb"/></g><g clip-path="url(#b)"><path d="M35.152 272.871H354.52" fill="none" stroke-width=".533" stroke-linejoin="round" stroke="#fff" stroke-miterlimit="10"/></g><g clip-path="url(#c)"><path d="M35.152 179.215H354.52" fill="none" stroke-width=".533" stroke-linejoin="round" stroke="#fff" stroke-miterlimit="10"/></g><g clip-path="url(#d)"><path d="M35.152 85.555H354.52" fill="none" stroke-width=".533" stroke-linejoin="round" stroke="#fff" stroke-miterlimit="10"/></g><g clip-path="url(#e)"><path d="M87.129 324.848V5.48" fill="none" stroke-width=".533" stroke-linejoin="round" stroke="#fff" stroke-miterlimit="10"/></g><g clip-path="url(#f)"><path d="M180.785 324.848V5.48" fill="none" stroke-width=".533" stroke-linejoin="round" stroke="#fff" stroke-miterlimit="10"/></g><g clip-path="url(#g)"><path d="M274.445 324.848V5.48" fill="none" stroke-width=".533" stroke-linejoin="round" stroke="#fff" stroke-miterlimit="10"/></g><g clip-path="url(#h)"><path d="M35.152 319.7H354.52" fill="none" stroke-width="1.067" stroke-linejoin="round" stroke="#fff" stroke-miterlimit="10"/></g><g clip-path="url(#i)"><path d="M35.152 226.043H354.52" fill="none" stroke-width="1.067" stroke-linejoin="round" stroke="#fff" stroke-miterlimit="10"/></g><g clip-path="url(#j)"><path d="M35.152 132.383H354.52" fill="none" stroke-width="1.067" stroke-linejoin="round" stroke="#fff" stroke-miterlimit="10"/></g><g clip-path="url(#k)"><path d="M35.152 38.727H354.52" fill="none" stroke-width="1.067" stroke-linejoin="round" stroke="#fff" stroke-miterlimit="10"/></g><g clip-path="url(#l)"><path d="M40.3 324.848V5.48" fill="none" stroke-width="1.067" stroke-linejoin="round" stroke="#fff" stroke-miterlimit="10"/></g><g clip-path="url(#m)"><path d="M133.957 324.848V5.48" fill="none" stroke-width="1.067" stroke-linejoin="round" stroke="#fff" stroke-miterlimit="10"/></g><g clip-path="url(#n)"><path d="M227.617 324.848V5.48" fill="none" stroke-width="1.067" stroke-linejoin="round" stroke="#fff" stroke-miterlimit="10"/></g><g clip-path="url(#o)"><path d="M321.273 324.848V5.48" fill="none" stroke-width="1.067" stroke-linejoin="round" stroke="#fff" stroke-miterlimit="10"/></g><g clip-path="url(#p)"><path d="M35.152 324.848L354.52 5.48" fill="none" stroke-width="1.067" stroke-linejoin="round" stroke="#fff" stroke-miterlimit="10"/></g><path d="M98.45 29.363c0 2.606-3.907 2.606-3.907 0 0-2.61 3.906-2.61 3.906 0M89.086 179.215c0 2.605-3.91 2.605-3.91 0 0-2.61 3.91-2.61 3.91 0M79.719 254.137c0 2.61-3.91 2.61-3.91 0 0-2.606 3.91-2.606 3.91 0M70.355 291.602c0 2.605-3.91 2.605-3.91 0 0-2.606 3.91-2.606 3.91 0M51.621 310.332c0 2.606-3.91 2.606-3.91 0 0-2.605 3.91-2.605 3.91 0M79.719 282.234c0 2.61-3.91 2.61-3.91 0 0-2.605 3.91-2.605 3.91 0M117.184 244.773c0 2.606-3.91 2.606-3.91 0 0-2.605 3.91-2.605 3.91 0M192.11 169.848c0 2.605-3.91 2.605-3.91 0 0-2.606 3.91-2.606 3.91 0M341.957 19.996c0 2.606-3.906 2.606-3.906 0 0-2.605 3.906-2.605 3.906 0M60.988 300.969c0 2.605-3.91 2.605-3.91 0 0-2.61 3.91-2.61 3.91 0" stroke-width=".709" stroke-linecap="round" stroke-linejoin="round" stroke="#000" stroke-miterlimit="10"/><use xlink:href="#q" x="25.219" y="322.302" fill="#4d4d4d"/><g fill="#4d4d4d"><use xlink:href="#r" x="20.219" y="228.646"/><use xlink:href="#q" x="25.111" y="228.646"/></g><g fill="#4d4d4d"><use xlink:href="#s" x="20.219" y="134.985"/><use xlink:href="#q" x="25.111" y="134.985"/></g><g fill="#4d4d4d"><use xlink:href="#t" x="20.219" y="41.329"/><use xlink:href="#q" x="25.111" y="41.329"/></g><path d="M32.41 319.7h2.742M32.41 226.043h2.742M32.41 132.383h2.742M32.41 38.727h2.742M40.3 327.59v-2.742M133.957 327.59v-2.742M227.617 327.59v-2.742M321.273 327.59v-2.742" fill="none" stroke-width="1.067" stroke-linejoin="round" stroke="#333" stroke-miterlimit="10"/><use xlink:href="#q" x="37.801" y="335.884" fill="#4d4d4d"/><g fill="#4d4d4d"><use xlink:href="#r" x="128.957" y="335.884"/><use xlink:href="#q" x="133.85" y="335.884"/></g><g fill="#4d4d4d"><use xlink:href="#s" x="222.617" y="335.884"/><use xlink:href="#q" x="227.51" y="335.884"/></g><g fill="#4d4d4d"><use xlink:href="#t" x="316.273" y="335.884"/><use xlink:href="#q" x="321.166" y="335.884"/></g><use xlink:href="#u" x="165.836" y="351.147"/><use xlink:href="#v" x="171.281" y="351.147"/><use xlink:href="#w" x="174.339" y="351.147"/><use xlink:href="#v" x="180.455" y="351.147"/><use xlink:href="#x" x="183.348" y="351.147"/><use xlink:href="#u" x="189.464" y="351.147"/><use xlink:href="#y" x="194.964" y="351.147"/><use xlink:href="#u" x="198.021" y="351.147"/><use xlink:href="#z" x="203.521" y="351.147"/><use xlink:href="#w" x="212.685" y="351.147"/><use xlink:href="#A" x="218.801" y="351.147"/><use xlink:href="#A" x="221.243" y="351.147"/><g><use xlink:href="#B" x="14.108" y="193.664"/><use xlink:href="#C" x="14.108" y="188.219"/><use xlink:href="#D" x="14.108" y="185.161"/><use xlink:href="#C" x="14.108" y="179.045"/><use xlink:href="#E" x="14.108" y="176.152"/><use xlink:href="#B" x="14.108" y="170.036"/><use xlink:href="#F" x="14.108" y="164.536"/><use xlink:href="#G" x="14.108" y="161.479"/><use xlink:href="#E" x="14.108" y="155.362"/><use xlink:href="#C" x="14.108" y="149.356"/><use xlink:href="#E" x="14.108" y="146.464"/><use xlink:href="#H" x="14.108" y="140.348"/></g></svg>