<?xml-stylesheet href="spot.css" type="text/css"?><svg width="496" height="356" viewBox="0 0 372 266.84" xmlns="http://www.w3.org/2000/svg"><g class="graph" transform="translate(4 262.84)"><path fill="#fff" stroke="transparent" d="M-4 4v-266.84h372V4H-4z"/><text x="163" y="-232.239" font-family="Lato" font-size="12">[Büchi]</text><g class="node"><circle fill="#ffffa0" stroke="#000" cx="60" cy="-98.439" r="18"/><circle fill="none" stroke="#000" cx="60" cy="-98.439" r="22"/><text text-anchor="middle" x="60" y="-95.339" font-family="Lato" font-size="12">1</text></g><g class="edge"><path fill="none" stroke="#000" d="M1.168-98.44h29.47"/><path stroke="#000" d="M37.865-98.44l-7-3.15 3.5 3.15h-3.5 3.5l-3.5 3.15 7-3.15h0z"/></g><g class="node"><circle fill="#ffffa0" stroke="#000" cx="150" cy="-141.439" r="18"/><circle fill="none" stroke="#000" cx="150" cy="-141.439" r="22"/><text text-anchor="middle" x="150" y="-138.339" font-family="Lato" font-size="12">3</text></g><g class="edge"><path fill="none" stroke="#000" d="M79.974-107.982l43.532-20.799"/><path stroke="#000" d="M130.082-131.923l-7.674.176 4.516 1.333-3.158 1.51h0l3.158-1.51-1.8 4.351 4.958-5.86h0z"/><text x="100" y="-123.839" font-family="Lato" font-size="12">!c</text></g><g class="node"><circle fill="#ffffa0" stroke="#000" cx="150" cy="-67.439" r="18"/><circle fill="none" stroke="#000" cx="150" cy="-67.439" r="22"/><text text-anchor="middle" x="150" y="-64.339" font-family="Lato" font-size="12">4</text></g><g class="edge"><path fill="none" stroke="#000" d="M80.874-91.25l41.328 14.236"/><path stroke="#000" d="M128.927-74.697l-5.592-5.258 2.283 4.118-3.309-1.14h0l3.31 1.14L121.282-74l7.644-.698h0z"/><text x="101.5" y="-86.839" font-family="Lato" font-size="12">c</text></g><g class="node"><circle fill="#ffffa0" stroke="#000" cx="260" cy="-48.439" r="18"/><circle fill="none" stroke="#000" cx="260" cy="-48.439" r="22"/><text text-anchor="middle" x="260" y="-45.339" font-family="Lato" font-size="12">0</text></g><g class="edge"><path fill="none" stroke="#000" d="M251.994-69.02c-1.108-10.264 1.56-19.42 8.006-19.42 4.834 0 7.544 5.15 8.129 12.056"/><path stroke="#000" d="M268.006-69.02l3.267-6.946-3.208 3.447.058-3.5h0l-.058 3.5-3.091-3.552 3.032 7.051h0z"/><text x="256.5" y="-91.839" font-family="Lato" font-size="12">c</text></g><g class="node"><circle fill="#ffffa0" stroke="#000" cx="346" cy="-48.439" r="18"/><text text-anchor="middle" x="346" y="-45.339" font-family="Lato" font-size="12">5</text></g><g class="edge"><path fill="none" stroke="#000" d="M282.147-48.44h38.563"/><path stroke="#000" d="M327.98-48.44l-7-3.15 3.5 3.15h-3.5 3.5l-3.5 3.15 7-3.15h0z"/><text x="300" y="-51.839" font-family="Lato" font-size="12">!c</text></g><g class="edge"><path fill="none" stroke="#000" d="M338.969-65.103c-1.563-9.961.781-19.336 7.031-19.336 4.688 0 7.178 5.273 7.47 12.112"/><path stroke="#000" d="M353.031-65.103l3.57-6.796-3.357 3.302.212-3.493h0l-.212 3.493-2.932-3.684 2.72 7.178h0z"/><text text-anchor="middle" x="346" y="-87.839" font-family="Lato" font-size="12">1</text></g><g class="edge"><path fill="none" stroke="#000" d="M165.023-158.26c25.33-26.288 77.625-71.505 116.977-45.18 43.488 29.094 57.458 93.728 61.923 129.664"/><path stroke="#000" d="M344.738-66.566l2.343-7.31-2.736 3.832-.394-3.478h0l.394 3.478-3.524-3.124 3.917 6.602h0z"/><text x="255" y="-213.839" font-family="Lato" font-size="12">!a</text></g><g class="node"><circle fill="#ffffa0" stroke="#000" cx="260" cy="-141.439" r="18"/><circle fill="none" stroke="#000" cx="260" cy="-141.439" r="22"/><text text-anchor="middle" x="260" y="-138.339" font-family="Lato" font-size="12">2</text></g><g class="edge"><path fill="none" stroke="#000" d="M172.26-141.44h58.493"/><path stroke="#000" d="M237.773-141.44l-7-3.15 3.5 3.15h-3.5 3.5l-3.5 3.15 7-3.15h0z"/><text x="201.5" y="-144.839" font-family="Lato" font-size="12">a</text></g><g class="edge"><path fill="none" stroke="#000" d="M171.732-63.685l59.473 10.272"/><path stroke="#000" d="M238.313-52.185l-6.362-4.296 2.913 3.7-3.45-.596h0l3.45.596-3.985 2.508 7.434-1.912h0z"/><text x="190" y="-63.839" font-family="Lato" font-size="12">!a &amp; c</text></g><g class="edge"><path fill="none" stroke="#000" d="M165.462-51.671C181.817-36.221 209.197-13.686 238-4.44c18.62 5.978 25.325 5.8 44 0 16.82-5.224 33.139-16.573 45.087-26.436"/><path stroke="#000" d="M332.585-35.564l-7.37 2.146 4.707.125-2.663 2.271h0l2.663-2.27-.619 4.667 3.282-6.939h0z"/><text x="243.5" y="-7.839" font-family="Lato" font-size="12">!a &amp; !c</text></g><g class="edge"><path fill="none" stroke="#000" d="M168.66-79.992l66.963-45.048"/><path stroke="#000" d="M241.616-129.071l-7.567 1.293 4.662.66-2.904 1.954h0l2.905-1.954-1.146 4.568 4.05-6.521h0z"/><text x="201.5" y="-115.839" font-family="Lato" font-size="12">a</text></g><g class="edge"><path fill="none" stroke="#000" d="M251.994-162.02c-1.108-10.264 1.56-19.42 8.006-19.42 4.834 0 7.544 5.15 8.129 12.056"/><path stroke="#000" d="M268.006-162.02l3.267-6.946-3.208 3.447.058-3.5h0l-.058 3.5-3.091-3.552 3.032 7.051h0z"/><text text-anchor="middle" x="260" y="-184.839" font-family="Lato" font-size="12">1</text></g></g></svg>