<?xml-stylesheet href="spot.css" type="text/css"?><svg width="266pt" height="194pt" viewBox="0 0 266 194" xmlns="http://www.w3.org/2000/svg"><g class="graph" transform="translate(4 190)"><path fill="#fff" stroke="transparent" d="M-4 4v-194h266V4H-4z"/><text x="126.5" y="-172.4" font-family="Lato" font-size="12">t</text><text x="119" y="-159.4" font-family="Lato" font-size="12">[all]</text><g class="node"><circle fill="#ffffa0" stroke="#000" cx="56" cy="-76" r="18"/><text text-anchor="middle" x="56" y="-72.9" font-family="Lato" font-size="12">1</text></g><g class="edge"><path fill="none" stroke="#000" d="M1.123-76h29.801"/><path stroke="#000" d="M37.98-76l-7-3.15 3.5 3.15h-3.5 3.5l-3.5 3.15 7-3.15h0z"/></g><g class="node"><circle fill="#ffffa0" stroke="#000" cx="138" cy="-103" r="18"/><text text-anchor="middle" x="138" y="-99.9" font-family="Lato" font-size="12">3</text></g><g class="edge"><path fill="none" stroke="#000" d="M73.39-81.726l40.364-13.29"/><path stroke="#000" d="M120.635-97.282l-7.634-.803 4.31 1.897-3.325 1.095h0l3.325-1.095-2.34 4.087 5.664-5.181h0z"/><text x="92" y="-94.4" font-family="Lato" font-size="12">!c</text></g><g class="node"><circle fill="#ffffa0" stroke="#000" cx="138" cy="-49" r="18"/><text text-anchor="middle" x="138" y="-45.9" font-family="Lato" font-size="12">4</text></g><g class="edge"><path fill="none" stroke="#000" d="M73.39-70.274l40.364 13.29"/><path stroke="#000" d="M120.635-54.718l-5.664-5.181 2.34 4.087-3.325-1.095h0l3.325 1.095-4.31 1.897 7.634-.803h0z"/><text x="93.5" y="-67.4" font-family="Lato" font-size="12">c</text></g><g class="node"><circle fill="#ffffa0" stroke="#000" cx="240" cy="-18" r="18"/><text text-anchor="middle" x="240" y="-14.9" font-family="Lato" font-size="12">0</text></g><g class="edge"><path fill="none" stroke="#000" d="M231.367-33.916C229.114-44.15 231.992-54 240-54c6.131 0 9.255 5.774 9.372 13.073"/><path stroke="#000" d="M248.633-33.916l3.866-6.632L249-37.397l.367-3.48h0l-.367 3.48-2.766-3.81 2.4 7.291h0z"/><text x="236.5" y="-57.4" font-family="Lato" font-size="12">c</text></g><g class="node"><circle fill="#ffffa0" stroke="#000" cx="240" cy="-103" r="18"/><text text-anchor="middle" x="240" y="-99.9" font-family="Lato" font-size="12">2</text></g><g class="edge"><path fill="none" stroke="#000" d="M156.236-103h58.311"/><path stroke="#000" d="M221.922-103l-7-3.15 3.5 3.15h-3.5 3.5l-3.5 3.15 7-3.15h0z"/><text x="185.5" y="-106.4" font-family="Lato" font-size="12">a</text></g><g class="edge"><path fill="none" stroke="#000" d="M153.226-39.022C159.444-35.358 166.846-31.5 174-29c13.11 4.58 28.366 7.281 40.907 8.86"/><path stroke="#000" d="M221.94-19.335l-6.596-3.926 3.12 3.528-3.478-.398h0l3.477.398-3.835 2.731 7.313-2.333h0z"/><text x="174" y="-32.4" font-family="Lato" font-size="12">!a &amp; c</text></g><g class="edge"><path fill="none" stroke="#000" d="M153.938-57.438l63.703-33.725"/><path stroke="#000" d="M223.838-94.444l-7.66.492 4.566 1.146-3.093 1.638h0l3.093-1.638-1.619 4.422 4.713-6.06h0z"/><text x="185.5" y="-85.4" font-family="Lato" font-size="12">a</text></g><g class="edge"><path fill="none" stroke="#000" d="M231.367-118.916C229.114-129.15 231.992-139 240-139c6.131 0 9.255 5.774 9.372 13.073"/><path stroke="#000" d="M248.633-118.916l3.866-6.632-3.499 3.151.367-3.48h0l-.367 3.48-2.766-3.81 2.4 7.291h0z"/><text text-anchor="middle" x="240" y="-142.4" font-family="Lato" font-size="12">1</text></g></g></svg>