<?xml-stylesheet href="spot.css" type="text/css"?><svg width="320" height="194pt" viewBox="0 0 240 194" xmlns="http://www.w3.org/2000/svg"><g class="graph" transform="translate(4 190)"><path fill="#fff" stroke="transparent" d="M-4 4v-194h240V4H-4z"/><text x="113.5" y="-172.4" font-family="Lato" font-size="12">t</text><text x="106" y="-159.4" font-family="Lato" font-size="12">[all]</text><g class="node"><circle fill="#ffffa0" stroke="#000" cx="56" cy="-60" r="18"/><text text-anchor="middle" x="56" y="-56.9" font-family="Lato" font-size="12">0</text></g><g class="edge"><path fill="none" stroke="#000" d="M1.123-60h29.801"/><path stroke="#000" d="M37.98-60l-7-3.15 3.5 3.15h-3.5 3.5l-3.5 3.15 7-3.15h0z"/></g><g class="node"><circle fill="#ffffa0" stroke="#000" cx="135" cy="-103" r="18"/><text text-anchor="middle" x="135" y="-99.9" font-family="Lato" font-size="12">1</text></g><g class="edge"><path fill="none" stroke="#000" d="M71.987-68.702l40.595-22.096"/><path stroke="#000" d="M119.037-94.311l-7.654.58 4.58 1.093-3.074 1.673h0l3.074-1.673-1.568 4.44 4.642-6.113h0z"/><text text-anchor="middle" x="95.5" y="-86.4" font-family="Lato" font-size="12">1</text></g><g class="node"><circle fill="#ffffa0" stroke="#000" cx="135" cy="-18" r="18"/><text text-anchor="middle" x="135" y="-14.9" font-family="Lato" font-size="12">2</text></g><g class="edge"><path fill="none" stroke="#000" d="M71.987-51.5l40.595 21.582"/><path stroke="#000" d="M119.037-26.487l-4.702-6.067 1.612 4.424-3.09-1.643h0l3.09 1.643-4.57 1.139 7.66.504h0z"/><text x="92" y="-44.4" font-family="Lato" font-size="12">c</text></g><g class="node"><circle fill="#ffffa0" stroke="#000" cx="214" cy="-103" r="18"/><text text-anchor="middle" x="214" y="-99.9" font-family="Lato" font-size="12">3</text></g><g class="edge"><path fill="none" stroke="#000" d="M153.323-103h35.226"/><path stroke="#000" d="M195.777-103l-7-3.15 3.5 3.15h-3.5 3.5l-3.5 3.15 7-3.15h0z"/><text x="171" y="-106.4" font-family="Lato" font-size="12">a</text></g><g class="edge"><path fill="none" stroke="#000" d="M128.266-35.037C126.892-44.857 129.136-54 135-54c4.398 0 6.76 5.142 7.086 11.857"/><path stroke="#000" d="M141.734-35.037l3.492-6.836-3.32 3.34.174-3.496h0l-.173 3.496-2.973-3.652 2.8 7.148h0z"/><text x="131.5" y="-57.4" font-family="Lato" font-size="12">c</text></g><g class="edge"><path fill="none" stroke="#000" d="M207.266-120.037c-1.374-9.82.87-18.963 6.734-18.963 4.398 0 6.76 5.142 7.086 11.857"/><path stroke="#000" d="M220.734-120.037l3.492-6.836-3.32 3.34.174-3.496h0l-.173 3.496-2.973-3.652 2.8 7.148h0z"/><text text-anchor="middle" x="214" y="-142.4" font-family="Lato" font-size="12">1</text></g></g></svg>