<svg width="768" height="508" viewBox="0 0 576 381" xmlns="http://www.w3.org/2000/svg"><g class="graph"><path fill="#fff" stroke="transparent" d="M0 381V0h576v381H0z"/><text text-anchor="middle" x="284" y="-357.8" font-family="Times,serif" font-size="14" transform="translate(4 377)">(Inf(0)&amp;Inf(1)) &amp; Fin(2)</text><text text-anchor="middle" x="284" y="-342.8" font-family="Times,serif" font-size="14" transform="translate(4 377)">[Streett-like 3]</text><g class="cluster" transform="translate(4 377)"><path fill="none" stroke="silver" d="M361-163v-115h199v115H361z"/></g><g class="cluster" transform="translate(4 377)"><path fill="none" stroke="silver" d="M268-179v-148h52v148h-52z"/></g><g class="cluster" transform="translate(4 377)"><path fill="none" stroke="#0f0" d="M361-8v-130h199V-8H361z"/></g><g class="cluster" transform="translate(4 377)"><path fill="none" stroke="#0f0" d="M268-23v-148h52v148h-52z"/></g><g class="cluster" transform="translate(4 377)"><path fill="none" stroke="#000" d="M189-83v-52h52v52h-52z"/></g><g class="cluster" transform="translate(4 377)"><path fill="none" stroke="red" d="M109.5-83v-100h52v100h-52z"/></g><g class="cluster" transform="translate(4 377)"><path fill="none" stroke="#0f0" d="M30-191v-115h211v115H30z"/></g><g class="node" transform="translate(4 377)"><circle fill="none" stroke="#000" cx="56" cy="-217" r="18"/><text text-anchor="middle" x="56" y="-213.3" font-family="Times,serif" font-size="14">1</text></g><g class="edge" transform="translate(4 377)"><path fill="none" stroke="#000" d="M1.123-217H27.67"/><path stroke="#000" d="M27.98-220.5l10 3.5-10 3.5v-7z"/></g><g class="node" transform="translate(4 377)"><circle fill="none" stroke="#000" cx="135.5" cy="-109" r="18"/><text text-anchor="middle" x="135.5" y="-105.3" font-family="Times,serif" font-size="14">4</text></g><g class="edge" transform="translate(4 377)"><path fill="none" stroke="#000" d="M66.722-202.435l51.944 70.566"/><path stroke="#000" d="M121.585-133.808l3.11 10.128-8.748-5.978 5.638-4.15z"/><text text-anchor="middle" x="95.5" y="-169.8" font-family="Times,serif" font-size="14">b</text></g><g class="node" transform="translate(4 377)"><circle fill="none" stroke="#000" cx="215" cy="-243" r="18"/><text text-anchor="middle" x="215" y="-239.3" font-family="Times,serif" font-size="14">3</text></g><g class="edge" transform="translate(4 377)"><path fill="none" stroke="#000" d="M73.995-218.896c21.06-2.332 56.945-6.66 87.505-12.104 8.434-1.502 17.55-3.432 25.827-5.302"/><path stroke="#000" d="M186.714-239.753l10.533 1.15-8.951 5.67-1.582-6.82z"/><text text-anchor="middle" x="135.5" y="-234.8" font-family="Times,serif" font-size="14">a &amp; !b</text></g><g class="node" transform="translate(4 377)"><circle fill="none" stroke="#000" cx="387" cy="-205" r="18"/><text text-anchor="middle" x="387" y="-201.3" font-family="Times,serif" font-size="14">5</text></g><g class="node" transform="translate(4 377)"><circle fill="none" stroke="#000" cx="534" cy="-221" r="18"/><text text-anchor="middle" x="534" y="-217.3" font-family="Times,serif" font-size="14">6</text></g><g class="edge" transform="translate(4 377)"><path fill="none" stroke="#000" d="M405.111-202.705c18.649 1.92 48.489 3.756 73.889-.295 9.515-1.518 19.62-4.424 28.538-7.466"/><path stroke="#000" d="M506.413-213.781l10.594-.11-8.213 6.692-2.381-6.582z"/><text text-anchor="middle" x="460.5" y="-221.8" font-family="Times,serif" font-size="14">1</text><text text-anchor="middle" x="460.5" y="-206.8" font-family="Times,serif" font-size="14">{1}</text></g><g class="edge" transform="translate(4 377)"><path fill="none" stroke="#000" d="M516.847-226.923c-18.627-5.581-49.16-12.24-74.847-6.077-10.784 2.587-21.838 7.659-31.181 12.784"/><path stroke="#000" d="M412.524-217.16l-10.405 1.996 6.89-8.049 3.515 6.053z"/><text text-anchor="middle" x="460.5" y="-238.8" font-family="Times,serif" font-size="14">1</text></g><g class="node" transform="translate(4 377)"><circle fill="none" stroke="#000" cx="294" cy="-205" r="18"/><text text-anchor="middle" x="294" y="-201.3" font-family="Times,serif" font-size="14">0</text></g><g class="edge" transform="translate(4 377)"><path fill="none" stroke="#000" d="M312.374-205h46.299"/><path stroke="#000" d="M358.98-208.5l10 3.5-10 3.5v-7z"/><text text-anchor="middle" x="340.5" y="-223.8" font-family="Times,serif" font-size="14">a</text><text text-anchor="middle" x="340.5" y="-208.8" font-family="Times,serif" font-size="14">{2}</text></g><g class="edge" transform="translate(4 377)"><path fill="none" stroke="#000" d="M290.584-222.782c-.58-9.533.559-18.218 3.416-18.218 1.741 0 2.844 3.225 3.309 7.902"/><path stroke="#000" d="M300.812-232.817l-3.397 10.035-3.603-9.963 7-.072z"/><text text-anchor="middle" x="294" y="-259.8" font-family="Times,serif" font-size="14">a &amp; b</text><text text-anchor="middle" x="294" y="-244.8" font-family="Times,serif" font-size="14">{0,1,2}</text></g><g class="edge" transform="translate(4 377)"><path fill="none" stroke="#000" d="M288.77-222.249C285.056-243.435 286.8-271 294-271c6.103 0 8.285 19.806 6.547 38.744"/><path stroke="#000" d="M304.005-231.707l-4.774 9.458-2.166-10.371 6.94.913z"/><text text-anchor="middle" x="294" y="-289.8" font-family="Times,serif" font-size="14">!a &amp; !b</text><text text-anchor="middle" x="294" y="-274.8" font-family="Times,serif" font-size="14">{2}</text></g><g class="node" transform="translate(4 377)"><circle fill="none" stroke="#000" cx="387" cy="-49" r="18"/><text text-anchor="middle" x="387" y="-45.3" font-family="Times,serif" font-size="14">8</text></g><g class="edge" transform="translate(4 377)"><path fill="none" stroke="#000" d="M380.62-66.037C379.32-75.857 381.446-85 387-85c3.472 0 5.604 3.571 6.397 8.647"/><path stroke="#000" d="M396.897-76.031l-3.518 9.994-3.482-10.006 7 .012z"/><text text-anchor="middle" x="387" y="-103.8" font-family="Times,serif" font-size="14">!a &amp; b</text><text text-anchor="middle" x="387" y="-88.8" font-family="Times,serif" font-size="14">{0,2}</text></g><g class="node" transform="translate(4 377)"><circle fill="none" stroke="#000" cx="534" cy="-49" r="18"/><text text-anchor="middle" x="534" y="-45.3" font-family="Times,serif" font-size="14">9</text></g><g class="edge" transform="translate(4 377)"><path fill="none" stroke="#000" d="M405.332-48.583c10.694.222 24.444.472 36.668.583 16.444.15 20.556.15 37 0 8.595-.078 17.944-.225 26.455-.382"/><path stroke="#000" d="M505.6-51.886l10.068 3.303-9.93 3.696-.137-6.999z"/><text text-anchor="middle" x="460.5" y="-66.8" font-family="Times,serif" font-size="14">a &amp; b</text><text text-anchor="middle" x="460.5" y="-51.8" font-family="Times,serif" font-size="14">{0,1}</text></g><g class="edge" transform="translate(4 377)"><path fill="none" stroke="#000" d="M518.933-59.523C508.313-66.273 493.46-74.421 479-78c-15.963-3.95-21.037-3.95-37 0-10.845 2.684-21.911 7.938-31.247 13.245"/><path stroke="#000" d="M412.44-61.684l-10.373 2.16 6.76-8.157 3.612 5.997z"/><text text-anchor="middle" x="460.5" y="-98.8" font-family="Times,serif" font-size="14">!a &amp; b</text><text text-anchor="middle" x="460.5" y="-83.8" font-family="Times,serif" font-size="14">{0,1}</text></g><g class="edge" transform="translate(4 377)"><path fill="none" stroke="#000" d="M527.62-66.037C526.32-75.857 528.446-85 534-85c3.472 0 5.604 3.571 6.398 8.647"/><path stroke="#000" d="M543.897-76.031l-3.518 9.994-3.482-10.006 7 .012z"/><text text-anchor="middle" x="534" y="-103.8" font-family="Times,serif" font-size="14">a &amp; b</text><text text-anchor="middle" x="534" y="-88.8" font-family="Times,serif" font-size="14">{0,2}</text></g><g class="node" transform="translate(4 377)"><circle fill="none" stroke="#000" cx="294" cy="-49" r="18"/><text text-anchor="middle" x="294" y="-45.3" font-family="Times,serif" font-size="14">7</text></g><g class="edge" transform="translate(4 377)"><path fill="none" stroke="#000" d="M312.374-49h46.299"/><path stroke="#000" d="M358.98-52.5l10 3.5-10 3.5v-7z"/><text text-anchor="middle" x="340.5" y="-52.8" font-family="Times,serif" font-size="14">1</text></g><g class="edge" transform="translate(4 377)"><path fill="none" stroke="#000" d="M290.584-66.782C290.005-76.315 291.144-85 294-85c1.741 0 2.844 3.225 3.309 7.902"/><path stroke="#000" d="M300.812-76.817l-3.397 10.035-3.603-9.963 7-.072z"/><text text-anchor="middle" x="294" y="-103.8" font-family="Times,serif" font-size="14">!a &amp; b</text><text text-anchor="middle" x="294" y="-88.8" font-family="Times,serif" font-size="14">{0,2}</text></g><g class="edge" transform="translate(4 377)"><path fill="none" stroke="#000" d="M288.77-66.249C285.056-87.435 286.8-115 294-115c6.103 0 8.285 19.806 6.547 38.744"/><path stroke="#000" d="M304.005-75.707l-4.774 9.458-2.166-10.371 6.94.913z"/><text text-anchor="middle" x="294" y="-133.8" font-family="Times,serif" font-size="14">a &amp; b</text><text text-anchor="middle" x="294" y="-118.8" font-family="Times,serif" font-size="14">{0,1}</text></g><g class="node" transform="translate(4 377)"><circle fill="none" stroke="#000" cx="215" cy="-109" r="18"/><text text-anchor="middle" x="215" y="-105.3" font-family="Times,serif" font-size="14">2</text></g><g class="edge" transform="translate(4 377)"><path fill="none" stroke="#000" d="M226.22-123.287C236.845-136.74 253.313-157.397 268-175a854.533 854.533 0 017.24-8.55"/><path stroke="#000" d="M272.796-186.075l9.187-5.278-3.89 9.855-5.297-4.577z"/><text text-anchor="middle" x="254.5" y="-165.8" font-family="Times,serif" font-size="14">a</text></g><g class="edge" transform="translate(4 377)"><path fill="none" stroke="#000" d="M229.49-97.995l41.813 31.757"/><path stroke="#000" d="M273.755-68.77l5.847 8.835-10.08-3.261 4.233-5.575z"/><text text-anchor="middle" x="254.5" y="-83.8" font-family="Times,serif" font-size="14">b</text></g><g class="edge" transform="translate(4 377)"><path fill="none" stroke="#000" d="M153.54-109h33.153"/><path stroke="#000" d="M186.756-112.5l10 3.5-10 3.5v-7z"/><text text-anchor="middle" x="175.5" y="-112.8" font-family="Times,serif" font-size="14">b</text></g><g class="edge" transform="translate(4 377)"><path fill="none" stroke="#000" d="M128.469-125.664c-1.563-9.961.781-19.336 7.031-19.336 4.004 0 6.405 3.847 7.202 9.232"/><path stroke="#000" d="M146.2-135.603l-3.669 9.939-3.33-10.058 7 .119z"/><text text-anchor="middle" x="135.5" y="-163.8" font-family="Times,serif" font-size="14">!b</text><text text-anchor="middle" x="135.5" y="-148.8" font-family="Times,serif" font-size="14">{1,2}</text></g><g class="edge" transform="translate(4 377)"><path fill="none" stroke="#000" d="M197.128-246.441c-21.249-3.425-57.612-7.171-87.628.441-10.489 2.66-21.148 7.833-30.163 13.083"/><path stroke="#000" d="M80.96-229.805l-10.346 2.285 6.662-8.238 3.683 5.953z"/><text text-anchor="middle" x="135.5" y="-268.8" font-family="Times,serif" font-size="14">a &amp; b</text><text text-anchor="middle" x="135.5" y="-253.8" font-family="Times,serif" font-size="14">{0,1}</text></g></g></svg>