<svg width="401pt" height="245pt" viewBox="0 0 401 245" xmlns="http://www.w3.org/2000/svg"><g class="graph" transform="translate(4 241)"><path fill="#fff" stroke="transparent" d="M-4 4v-245h401V4H-4z"/><text text-anchor="middle" x="196.5" y="-221.8" font-family="Times,serif" font-size="14">Inf(0)</text><text text-anchor="middle" x="196.5" y="-206.8" font-family="Times,serif" font-size="14">[Büchi]</text><g class="node"><circle fill="none" stroke="#000" cx="56" cy="-88" r="18"/><text text-anchor="middle" x="56" y="-84.3" font-family="Times,serif" font-size="14">0</text></g><g class="edge"><path fill="none" stroke="#000" d="M1.123-88H27.67"/><path stroke="#000" d="M27.98-91.5l10 3.5-10 3.5v-7z"/></g><g class="edge"><path fill="none" stroke="#000" d="M49.62-105.037C48.32-114.857 50.446-124 56-124c3.472 0 5.604 3.571 6.398 8.647"/><path stroke="#000" d="M65.897-115.031l-3.518 9.994-3.482-10.006 7 .012z"/><text text-anchor="middle" x="56" y="-142.8" font-family="Times,serif" font-size="14">!a &amp; !c</text><text text-anchor="middle" x="56" y="-127.8" font-family="Times,serif" font-size="14">{0}</text></g><g class="node"><circle fill="none" stroke="#000" cx="375" cy="-105" r="18"/><text text-anchor="middle" x="375" y="-101.3" font-family="Times,serif" font-size="14">1</text></g><g class="edge"><path fill="none" stroke="#000" d="M67.621-102.092C86.58-123.83 126.535-164.635 171-180c66.696-23.047 144.81 27.6 182.069 56.573"/><path stroke="#000" d="M355.582-125.9l5.633 8.974-10-3.502 4.367-5.472z"/><text text-anchor="middle" x="240.5" y="-187.8" font-family="Times,serif" font-size="14">c</text></g><g class="node"><circle fill="none" stroke="#000" cx="189" cy="-105" r="18"/><text text-anchor="middle" x="189" y="-101.3" font-family="Times,serif" font-size="14">2</text></g><g class="edge"><path fill="none" stroke="#000" d="M73.937-90.293l86.9-11.107"/><path stroke="#000" d="M160.56-104.893l10.362 2.204-9.475 4.74-.888-6.944z"/><text text-anchor="middle" x="122.5" y="-102.8" font-family="Times,serif" font-size="14">a &amp; b &amp; !c</text></g><g class="node"><circle fill="none" stroke="#000" cx="189" cy="-18" r="18"/><text text-anchor="middle" x="189" y="-14.3" font-family="Times,serif" font-size="14">3</text></g><g class="edge"><path fill="none" stroke="#000" d="M72.837-81.538C96.66-72.284 138.878-55.446 153-47c4.994 2.987 10.046 6.608 14.724 10.264"/><path stroke="#000" d="M170.128-39.291l5.517 9.045-9.954-3.63 4.437-5.415z"/><text text-anchor="middle" x="122.5" y="-76.8" font-family="Times,serif" font-size="14">a &amp; !c</text></g><g class="edge"><path fill="none" stroke="#000" d="M367.969-121.664C366.406-131.625 368.75-141 375-141c4.004 0 6.405 3.847 7.202 9.232"/><path stroke="#000" d="M385.7-131.603l-3.669 9.939-3.33-10.058 7 .119z"/><text text-anchor="middle" x="375" y="-159.8" font-family="Times,serif" font-size="14">1</text><text text-anchor="middle" x="375" y="-144.8" font-family="Times,serif" font-size="14">{0}</text></g><g class="edge"><path fill="none" stroke="#000" d="M180.367-120.916C178.114-131.15 180.992-141 189-141c5.255 0 8.3 4.242 9.137 10.05"/><path stroke="#000" d="M201.63-130.728l-3.997 9.812-2.993-10.163 6.99.351z"/><text text-anchor="middle" x="189" y="-159.8" font-family="Times,serif" font-size="14">b</text><text text-anchor="middle" x="189" y="-144.8" font-family="Times,serif" font-size="14">{0}</text></g><g class="edge"><path fill="none" stroke="#000" d="M172.092-11.633C151.486-5.033 116.406 2.357 92-13 75.6-23.32 66.502-43.42 61.557-60.216"/><path stroke="#000" d="M58.109-59.572l.878-10.558 5.898 8.801-6.776 1.757z"/><text text-anchor="middle" x="122.5" y="-31.8" font-family="Times,serif" font-size="14">!a &amp; !c</text><text text-anchor="middle" x="122.5" y="-16.8" font-family="Times,serif" font-size="14">{0}</text></g><g class="edge"><path fill="none" stroke="#000" d="M202.772-30.075C218.833-43.572 246.682-65.208 274-78c23.516-11.012 52.291-18.148 73.103-22.301"/><path stroke="#000" d="M346.715-103.79l10.476 1.584-9.177 5.295-1.3-6.879z"/><text text-anchor="middle" x="292" y="-94.8" font-family="Times,serif" font-size="14">!a &amp; c</text></g><g class="edge"><path fill="none" stroke="#000" d="M180.367-33.916C178.114-44.15 180.992-54 189-54c5.255 0 8.3 4.242 9.137 10.05"/><path stroke="#000" d="M201.63-43.728l-3.997 9.812-2.993-10.163 6.99.351z"/><text text-anchor="middle" x="189" y="-57.8" font-family="Times,serif" font-size="14">a &amp; !c</text></g><g class="node"><circle fill="none" stroke="#000" cx="292" cy="-18" r="18"/><text text-anchor="middle" x="292" y="-14.3" font-family="Times,serif" font-size="14">4</text></g><g class="edge"><path fill="none" stroke="#000" d="M207.414-18h56.146"/><path stroke="#000" d="M263.745-21.5l10 3.5-10 3.5v-7z"/><text text-anchor="middle" x="240.5" y="-21.8" font-family="Times,serif" font-size="14">a &amp; c</text></g><g class="edge"><path fill="none" stroke="#000" d="M304.606-31.213l50.76-53.206"/><path stroke="#000" d="M353.112-87.128l9.435-4.82-4.37 9.652-5.065-4.832z"/><text text-anchor="middle" x="333.5" y="-69.8" font-family="Times,serif" font-size="14">!a</text></g><g class="edge"><path fill="none" stroke="#000" d="M284.969-34.664C283.406-44.625 285.75-54 292-54c4.004 0 6.405 3.847 7.202 9.232"/><path stroke="#000" d="M302.7-44.603l-3.669 9.939-3.33-10.058 7 .119z"/><text text-anchor="middle" x="292" y="-57.8" font-family="Times,serif" font-size="14">a</text></g></g></svg>