<svg width="301pt" height="485pt" viewBox="0 0 301 485" xmlns="http://www.w3.org/2000/svg"><g class="graph" transform="translate(4 481)"><path fill="#fff" stroke="transparent" d="M-4 4v-485h301V4H-4z"/><text text-anchor="middle" x="146.5" y="-461.8" font-family="Times,serif" font-size="14">(Gb | F!a) W c</text><text text-anchor="middle" x="146.5" y="-446.8" font-family="Times,serif" font-size="14">Inf(0)</text><text text-anchor="middle" x="146.5" y="-431.8" font-family="Times,serif" font-size="14">[Büchi]</text><g class="cluster"><path fill="none" stroke="#0f0" d="M77-8v-52h91v52H77z"/></g><g class="cluster"><path fill="none" stroke="#0f0" d="M194-255v-52h91v52h-91z"/></g><g class="cluster"><path fill="none" stroke="red" d="M77-95v-52h77v52H77z"/></g><g class="cluster"><path fill="none" stroke="#0f0" d="M8-182v-212h146v212H8z"/></g><g class="node"><circle fill="none" stroke="#000" cx="70" cy="-368" r="18"/><text text-anchor="middle" x="70" y="-364.3" font-family="Times,serif" font-size="14">0</text></g><g class="edge"><path fill="none" stroke="#000" d="M70-422.877v26.547"/><path stroke="#000" d="M73.5-396.02l-3.5 10-3.5-10h7z"/></g><g class="edge"><path fill="none" stroke="#000" d="M87.037-374.38c9.82-1.301 18.963.825 18.963 6.38 0 3.472-3.571 5.604-8.647 6.397"/><path stroke="#000" d="M97.031-358.103l-9.994-3.518 10.006-3.482-.012 7z"/><text text-anchor="middle" x="126" y="-371.8" font-family="Times,serif" font-size="14">!a &amp; !c</text><text text-anchor="middle" x="126" y="-356.8" font-family="Times,serif" font-size="14">{0}</text></g><g class="node"><circle fill="none" stroke="#000" cx="103" cy="-34" r="18"/><text text-anchor="middle" x="103" y="-30.3" font-family="Times,serif" font-size="14">1</text></g><g class="edge"><path fill="none" stroke="#000" d="M87.174-362.552C116.712-351.985 174-325.726 174-281v160c0 30.535-26.577 56.272-47.21 71.652"/><path stroke="#000" d="M128.589-46.333l-10.183 2.927 6.135-8.638 4.048 5.711z"/><text text-anchor="middle" x="177.5" y="-204.3" font-family="Times,serif" font-size="14">c</text></g><g class="node"><circle fill="none" stroke="#000" cx="220" cy="-281" r="18"/><text text-anchor="middle" x="220" y="-277.3" font-family="Times,serif" font-size="14">2</text></g><g class="edge"><path fill="none" stroke="#000" d="M88.175-366.414C113.011-363.43 157.895-355.042 188-332c8.501 6.507 15.323 15.97 20.447 24.984"/><path stroke="#000" d="M211.664-308.416l1.508 10.486-7.719-7.257 6.21-3.23z"/><text text-anchor="middle" x="231.5" y="-320.8" font-family="Times,serif" font-size="14">a &amp; b &amp; !c</text></g><g class="node"><circle fill="none" stroke="#000" cx="50" cy="-208" r="18"/><text text-anchor="middle" x="50" y="-204.3" font-family="Times,serif" font-size="14">3</text></g><g class="edge"><path fill="none" stroke="#000" d="M62.325-351.597C57.13-339.554 50.733-322.637 48-307c-3.98 22.766-.491 28.894 0 52 .126 5.92.34 12.256.584 18.298"/><path stroke="#000" d="M52.1-236.44l-3.06 10.143-3.934-9.837 6.993-.306z"/><text text-anchor="middle" x="66" y="-277.3" font-family="Times,serif" font-size="14">a &amp; !c</text></g><g class="edge"><path fill="none" stroke="#000" d="M119.664-41.383C129.625-43.023 139-40.563 139-34c0 4.204-3.847 6.725-9.232 7.563"/><path stroke="#000" d="M129.6-22.94l-9.936-3.677 10.06-3.322-.124 7z"/><text text-anchor="middle" x="149.5" y="-37.8" font-family="Times,serif" font-size="14">1</text><text text-anchor="middle" x="149.5" y="-22.8" font-family="Times,serif" font-size="14">{0}</text></g><g class="edge"><path fill="none" stroke="#000" d="M237.037-287.38c9.82-1.301 18.963.825 18.963 6.38 0 3.472-3.571 5.604-8.647 6.397"/><path stroke="#000" d="M247.031-271.103l-9.994-3.518 10.006-3.482-.012 7z"/><text text-anchor="middle" x="266.5" y="-284.8" font-family="Times,serif" font-size="14">b</text><text text-anchor="middle" x="266.5" y="-269.8" font-family="Times,serif" font-size="14">{0}</text></g><g class="node"><circle fill="none" stroke="#000" cx="103" cy="-121" r="18"/><text text-anchor="middle" x="103" y="-117.3" font-family="Times,serif" font-size="14">4</text></g><g class="edge"><path fill="none" stroke="#000" d="M103-102.974v40.816"/><path stroke="#000" d="M106.5-62.003l-3.5 10-3.5-10h7z"/><text text-anchor="middle" x="108.5" y="-73.8" font-family="Times,serif" font-size="14">!a</text></g><g class="edge"><path fill="none" stroke="#000" d="M119.664-128.383c9.961-1.64 19.336.82 19.336 7.383 0 4.204-3.847 6.725-9.232 7.563"/><path stroke="#000" d="M129.6-109.94l-9.936-3.677 10.06-3.322-.124 7z"/><text text-anchor="middle" x="142.5" y="-117.3" font-family="Times,serif" font-size="14">a</text></g><g class="edge"><path fill="none" stroke="#000" d="M62.973-221.101c7.75-8.785 16.87-21.06 21.027-33.899 9.283-28.67 2.546-63.264-4.424-86.56"/><path stroke="#000" d="M76.237-340.514l.281-10.591 6.385 8.455-6.666 2.136z"/><text text-anchor="middle" x="108" y="-284.8" font-family="Times,serif" font-size="14">!a &amp; !c</text><text text-anchor="middle" x="108" y="-269.8" font-family="Times,serif" font-size="14">{0}</text></g><g class="edge"><path fill="none" stroke="#000" d="M42.904-191.12C34.439-168.311 23.07-126.842 37-95c8.52 19.478 26.669 35.502 41.782 46.232"/><path stroke="#000" d="M80.894-51.566l6.34 8.49-10.25-2.683 3.91-5.807z"/><text text-anchor="middle" x="55" y="-117.3" font-family="Times,serif" font-size="14">!a &amp; c</text></g><g class="edge"><path fill="none" stroke="#000" d="M59.475-192.446l28.76 47.21"/><path stroke="#000" d="M91.393-146.78l2.214 10.36-8.192-6.718 5.978-3.642z"/><text text-anchor="middle" x="94.5" y="-160.8" font-family="Times,serif" font-size="14">a &amp; c</text></g><g class="edge"><path fill="none" stroke="#000" d="M67.037-214.38C76.857-215.68 86-213.554 86-208c0 3.472-3.571 5.604-8.647 6.398"/><path stroke="#000" d="M77.031-198.103l-9.994-3.518 10.006-3.482-.012 7z"/><text text-anchor="middle" x="104" y="-204.3" font-family="Times,serif" font-size="14">a &amp; !c</text></g></g></svg>