<?xml-stylesheet href="spot.css" type="text/css"?><svg width="344pt" height="224" viewBox="0 0 344 168.41" xmlns="http://www.w3.org/2000/svg"><g class="graph"><path fill="#fff" stroke="transparent" d="M0 168.41V0h344v168.41H0z"/><text x="149" y="-133.81" font-family="Lato" font-size="12" transform="translate(4 164.41)">[Büchi]</text><g class="node" transform="translate(4 164.41)"><circle fill="#ffffa0" stroke="#000" cx="56" cy="-55.01" r="18"/><text text-anchor="middle" x="56" y="-51.91" font-family="Lato" font-size="12">0</text></g><g class="edge" transform="translate(4 164.41)"><path fill="none" stroke="#000" d="M1.123-55.01h29.801"/><path stroke="#000" d="M37.98-55.01l-7-3.15 3.5 3.15h-3.5 3.5l-3.5 3.15 7-3.15h0z"/></g><g class="node" transform="translate(4 164.41)"><circle fill="#ffffa0" stroke="#000" cx="312" cy="-47.01" r="18"/><circle fill="none" stroke="#000" cx="312" cy="-47.01" r="22"/><text text-anchor="middle" x="312" y="-43.91" font-family="Lato" font-size="12">1</text></g><g class="edge" transform="translate(4 164.41)"><path fill="none" stroke="#000" d="M70.232-66.36C96.59-85.972 154.976-122.837 206-109.01c31.277 8.475 62.78 28.743 83.216 43.812"/><path stroke="#000" d="M294.933-60.904l-3.705-6.723.907 4.62-2.799-2.101h0l2.799 2.102-4.69.416 7.488 1.686h0z"/><text x="158" y="-115.41" font-family="Lato" font-size="12">!p0 &amp; !p1</text></g><g class="node" transform="translate(4 164.41)"><circle fill="#ffffa0" stroke="#000" cx="182" cy="-47.01" r="18"/><circle fill="none" stroke="#000" cx="182" cy="-47.01" r="22"/><text text-anchor="middle" x="182" y="-43.91" font-family="Lato" font-size="12">2</text></g><g class="edge" transform="translate(4 164.41)"><path fill="none" stroke="#000" d="M74.04-54.398c17.02.635 43.242 1.766 65.96 3.388 4.119.294 8.46.652 12.727 1.033"/><path stroke="#000" d="M159.783-49.324l-6.68-3.782 3.195 3.46-3.485-.323h0l3.485.322-3.775 2.814 7.26-2.491h0z"/><text x="92" y="-56.41" font-family="Lato" font-size="12">!p0 &amp; !p1</text></g><g class="edge" transform="translate(4 164.41)"><path fill="none" stroke="#000" d="M292.425-36.122C271.695-25.263 237.656-9.319 206-3.01c-20.922 4.17-26.99 3.701-48 0-30.74-5.416-38.682-8.902-66-24-5.678-3.138-11.41-7.136-16.578-11.122"/><path stroke="#000" d="M69.65-42.753l3.495 6.834-.763-4.647 2.732 2.188h0l-2.732-2.188 4.7-.271-7.433-1.916h0z"/><text x="161" y="-6.41" font-family="Lato" font-size="12">p0 &amp; p1</text></g><g class="edge" transform="translate(4 164.41)"><path fill="none" stroke="#000" d="M300.66-65.94c-2.315-10.912 1.465-21.07 11.34-21.07 7.56 0 11.548 5.954 11.964 13.642"/><path stroke="#000" d="M323.34-65.94l3.725-6.713-3.432 3.225.293-3.488h0l-.293 3.488-2.846-3.751 2.554 7.238h0z"/><text x="288" y="-90.41" font-family="Lato" font-size="12">!p0 &amp; !p1</text></g><g class="edge" transform="translate(4 164.41)"><path fill="none" stroke="#000" d="M161.34-39.329C142.91-33.58 115.317-27.706 92-34.01c-5.186-1.402-10.392-3.758-15.17-6.395"/><path stroke="#000" d="M70.62-44.114l4.394 6.294-1.389-4.5 3.005 1.796h0l-3.005-1.795 4.62-.91-7.624-.885h0z"/><text x="95" y="-37.41" font-family="Lato" font-size="12">p0 &amp; p1</text></g><g class="edge" transform="translate(4 164.41)"><path fill="none" stroke="#000" d="M204.053-47.01h78.705"/><path stroke="#000" d="M289.84-47.01l-7-3.15 3.5 3.15h-3.5 3.5l-3.501 3.15 7-3.15h0z"/><text x="224" y="-50.41" font-family="Lato" font-size="12">!p0 &amp; !p1</text></g><g class="edge" transform="translate(4 164.41)"><path fill="none" stroke="#000" d="M170.305-65.94c-2.387-10.912 1.511-21.07 11.695-21.07 7.797 0 11.91 5.954 12.338 13.642"/><path stroke="#000" d="M193.695-65.94l3.742-6.703-3.44 3.215.302-3.487h0l-.302 3.487-2.837-3.758 2.535 7.245h0z"/><text x="159.5" y="-90.41" font-family="Lato" font-size="12">p0 &amp; !p1</text></g></g></svg>