<?xml-stylesheet href="spot.css" type="text/css"?><svg width="274pt" height="196" viewBox="0 0 273.5 147.26" xmlns="http://www.w3.org/2000/svg"><g class="graph"><path fill="#fff" stroke="transparent" d="M0 147.26V0h273.5v147.26H0z"/><text x="93.25" y="-126.659" font-family="Lato" font-size="12" transform="translate(4 143.26)">Inf(</text><text x="111.25" y="-126.659" font-family="Lato" font-size="12" fill="#1f78b4" transform="translate(4 143.26)">⓿</text><text x="125.25" y="-126.659" font-family="Lato" font-size="12" transform="translate(4 143.26)">)&amp;Inf(</text><text x="154.25" y="-126.659" font-family="Lato" font-size="12" fill="#ff4da0" transform="translate(4 143.26)">❶</text><text x="168.25" y="-126.659" font-family="Lato" font-size="12" transform="translate(4 143.26)">)</text><text x="96.25" y="-114.659" font-family="Lato" font-size="12" transform="translate(4 143.26)">[gen. Büchi 2]</text><g class="node" transform="translate(4 143.26)"><circle fill="#ffffa0" stroke="#000" cx="56" cy="-33.259" r="18"/><text text-anchor="middle" x="56" y="-30.159" font-family="Lato" font-size="12">0</text></g><g class="edge" transform="translate(4 143.26)"><path fill="none" stroke="#000" d="M1.123-33.26h29.801"/><path stroke="#000" d="M37.98-33.26l-7-3.15 3.5 3.15h-3.5 3.5l-3.5 3.15 7-3.15h0z"/></g><g class="node" transform="translate(4 143.26)"><circle fill="#ffffa0" stroke="#000" cx="151" cy="-83.259" r="18"/><text text-anchor="middle" x="151" y="-80.159" font-family="Lato" font-size="12">1</text></g><g class="edge" transform="translate(4 143.26)"><path fill="none" stroke="#000" d="M64.798-49.447C71.033-59.235 80.351-70.997 92-77.259c10.168-5.466 22.748-7.295 33.675-7.624"/><path stroke="#000" d="M132.927-84.898l-7.006-3.135 3.506 3.142-3.5.008h0l3.5-.008-3.494 3.158 6.994-3.165h0z"/><text x="93.5" y="-85.659" font-family="Lato" font-size="12">p0</text></g><g class="node" transform="translate(4 143.26)"><circle fill="#ffffa0" stroke="#000" cx="243" cy="-33.259" r="18"/><text text-anchor="middle" x="243" y="-30.159" font-family="Lato" font-size="12">2</text></g><g class="edge" transform="translate(4 143.26)"><path fill="none" stroke="#000" d="M74.27-33.26h143.482"/><path stroke="#000" d="M224.93-33.26l-7-3.15 3.5 3.15h-3.5 3.5l-3.5 3.15 7-3.15h0z"/><text x="142.5" y="-36.659" font-family="Lato" font-size="12">!p0</text></g><g class="edge" transform="translate(4 143.26)"><path fill="none" stroke="#000" d="M138.526-69.898C130.712-62.255 120.054-53.062 109-47.26c-8.644 4.538-18.87 7.687-28.023 9.831"/><path stroke="#000" d="M73.918-35.916l7.504 1.614-4.082-2.347 3.423-.733h0l-3.423.733 2.763-3.813-6.185 4.546h0z"/><text x="92" y="-63.659" font-family="Lato" font-size="12">!p0</text><text x="93.5" y="-50.659" font-family="Lato" font-size="12" fill="#1f78b4">⓿</text></g><g class="edge" transform="translate(4 143.26)"><path fill="none" stroke="#000" d="M169.181-84.718c11.492-.127 26.295 1.225 37.819 7.459 9.27 5.015 17.07 13.501 23.013 21.691"/><path stroke="#000" d="M234.19-49.426l-1.331-7.56-.637 4.666-1.968-2.894h0l1.968 2.894-4.573-1.123 6.541 4.017h0z"/><text x="193" y="-97.659" font-family="Lato" font-size="12">p0</text><text x="193" y="-84.659" font-family="Lato" font-size="12" fill="#ff4da0">❶</text></g><g class="edge" transform="translate(4 143.26)"><path fill="none" stroke="#000" d="M227.42-24.142C214.03-16.864 193.94-7.252 175-3.259c-20.875 4.4-27.091 4.236-48 0-17.132-3.47-35.266-11.21-48.919-17.959"/><path stroke="#000" d="M71.763-24.428l4.813 5.979-1.693-4.394 3.12 1.586h0l-3.12-1.586 4.547-1.223-7.668-.362h0z"/><text x="127" y="-19.659" font-family="Lato" font-size="12">!p0 &amp; !p1</text><text x="144" y="-6.659" font-family="Lato" font-size="12" fill="#ff4da0">❶</text></g><g class="edge" transform="translate(4 143.26)"><path fill="none" stroke="#000" d="M225.164-36.281c-9.878-2.15-22.147-5.624-32.164-10.978-8.774-4.69-17.325-11.479-24.396-17.9"/><path stroke="#000" d="M163.506-69.958l2.938 7.092-.39-4.693 2.55 2.399h0l-2.55-2.399 4.708.105-7.256-2.504h0z"/><text x="193" y="-63.659" font-family="Lato" font-size="12">p0</text><text x="193" y="-50.659" font-family="Lato" font-size="12" fill="#1f78b4">⓿</text></g><g class="edge" transform="translate(4 143.26)"><path fill="none" stroke="#000" d="M235.617-49.923c-1.64-9.961.82-19.336 7.383-19.336 4.922 0 7.537 5.273 7.844 12.112"/><path stroke="#000" d="M250.383-49.923l3.59-6.785-3.367 3.292.223-3.493h0l-.223 3.493-2.92-3.694 2.697 7.187h0z"/><text x="220.5" y="-85.659" font-family="Lato" font-size="12">!p0 &amp; p1</text><text x="236" y="-72.659" font-family="Lato" font-size="12" fill="#1f78b4">⓿</text></g></g></svg>