<?xml-stylesheet href="spot.css" type="text/css"?><svg width="1154pt" height="528" viewBox="0 0 1154 396" xmlns="http://www.w3.org/2000/svg"><g class="graph"><path fill="#fff" stroke="transparent" d="M0 396V0h1154v396H0z"/><text x="476" y="-375.4" font-family="Lato" font-size="12" transform="translate(4 392)">Fin(</text><text x="496" y="-375.4" font-family="Lato" font-size="12" fill="#1f78b4" transform="translate(4 392)">⓿</text><text x="510" y="-375.4" font-family="Lato" font-size="12" transform="translate(4 392)">) &amp; (Inf(</text><text x="548" y="-375.4" font-family="Lato" font-size="12" fill="#ff4da0" transform="translate(4 392)">❶</text><text x="562" y="-375.4" font-family="Lato" font-size="12" transform="translate(4 392)">) | (Fin(</text><text x="597" y="-375.4" font-family="Lato" font-size="12" fill="#ff7f00" transform="translate(4 392)">❷</text><text x="611" y="-375.4" font-family="Lato" font-size="12" transform="translate(4 392)">) &amp; Inf(</text><text x="646" y="-375.4" font-family="Lato" font-size="12" fill="#6a3d9a" transform="translate(4 392)">❸</text><text x="660" y="-375.4" font-family="Lato" font-size="12" transform="translate(4 392)">)))</text><text x="526" y="-363.4" font-family="Lato" font-size="12" transform="translate(4 392)">[parity min odd 4]</text><g class="cluster" transform="translate(4 392)"><path fill="none" stroke="#0f0" d="M600-20v-182h538v182H600z"/></g><g class="cluster" transform="translate(4 392)"><path fill="none" stroke="#000" d="M494-168v-52h52v52h-52z"/></g><g class="cluster" transform="translate(4 392)"><path fill="none" stroke="red" d="M388-168v-96h52v96h-52z"/></g><g class="cluster" transform="translate(4 392)"><path fill="none" stroke="#0f0" d="M136-13v-122h198v122H136z"/></g><g class="cluster" transform="translate(4 392)"><path fill="none" stroke="#0f0" d="M30-181v-122h231v122H30z"/></g><g class="node" transform="translate(4 392)"><circle fill="#ffffa0" stroke="#000" cx="56" cy="-238" r="18"/><text text-anchor="middle" x="56" y="-234.9" font-family="Lato" font-size="12">0</text></g><g class="edge" transform="translate(4 392)"><path fill="none" stroke="#000" d="M1.123-238h29.801"/><path stroke="#000" d="M37.98-238l-7-3.15 3.5 3.15h-3.5 3.5l-3.5 3.15 7-3.15h0z"/></g><g class="node" transform="translate(4 392)"><circle fill="#ffffa0" stroke="#000" cx="626" cy="-168" r="18"/><text text-anchor="middle" x="626" y="-164.9" font-family="Lato" font-size="12">1</text></g><g class="edge" transform="translate(4 392)"><path fill="none" stroke="#000" d="M64.767-254.025C80.497-280.384 116.189-330 162-330h358c64.765 0 92.088 91.782 101.64 137.178"/><path stroke="#000" d="M623.024-185.956l1.706-7.484-2.397 4.053-.691-3.43h0l.691 3.43-3.78-2.809 4.471 6.24h0z"/><text x="294" y="-346.4" font-family="Lato" font-size="12">a &amp; b</text><text x="301" y="-333.4" font-family="Lato" font-size="12" fill="#1f78b4">⓿</text></g><g class="node" transform="translate(4 392)"><circle fill="#ffffa0" stroke="#000" cx="162" cy="-105" r="18"/><text text-anchor="middle" x="162" y="-101.9" font-family="Lato" font-size="12">3</text></g><g class="edge" transform="translate(4 392)"><path fill="none" stroke="#000" d="M63.982-221.76C70.673-208.826 80.895-190.542 92-176c15.439 20.216 36.219 40.619 51.12 54.332"/><path stroke="#000" d="M148.324-116.931l-3.056-7.042.468 4.686-2.588-2.357h0l2.588 2.357-4.709-.027 7.297 2.383h0z"/><text x="92" y="-192.4" font-family="Lato" font-size="12">!a &amp; !b</text><text x="102" y="-179.4" font-family="Lato" font-size="12" fill="#6a3d9a">❸</text></g><g class="node" transform="translate(4 392)"><circle fill="#ffffa0" stroke="#000" cx="235" cy="-246" r="18"/><text text-anchor="middle" x="235" y="-242.9" font-family="Lato" font-size="12">4</text></g><g class="edge" transform="translate(4 392)"><path fill="none" stroke="#000" d="M72.992-231.947C97.016-224.229 142.199-212.812 180-221c11.327-2.454 23.123-7.447 32.873-12.33"/><path stroke="#000" d="M219.265-236.661l-7.664.441 4.56 1.176-3.104 1.618h0l3.104-1.618-1.649 4.411 4.753-6.028h0z"/><text x="146.5" y="-237.4" font-family="Lato" font-size="12">a &amp; !b</text><text x="155" y="-224.4" font-family="Lato" font-size="12" fill="#ff4da0">❶</text></g><g class="node" transform="translate(4 392)"><circle fill="#ffffa0" stroke="#000" cx="827" cy="-59" r="18"/><text text-anchor="middle" x="827" y="-55.9" font-family="Lato" font-size="12">7</text></g><g class="edge" transform="translate(4 392)"><path fill="none" stroke="#000" d="M642.109-159.264l162.595 88.173"/><path stroke="#000" d="M811.093-67.626l-4.651-6.106 1.575 4.438-3.077-1.669h0l3.077 1.668-4.579 1.101 7.655.568h0z"/><text x="711" y="-137.4" font-family="Lato" font-size="12">a &amp; !b</text><text x="719.5" y="-124.4" font-family="Lato" font-size="12" fill="#ff4da0">❶</text></g><g class="edge" transform="translate(4 392)"><path fill="none" stroke="#000" d="M820.62-76.037C819.32-85.857 821.446-95 827-95c4.166 0 6.404 5.142 6.713 11.857"/><path stroke="#000" d="M833.38-76.037l3.474-6.845-3.31 3.349.164-3.497h0l-.165 3.496-2.982-3.643 2.818 7.14h0z"/><text x="813" y="-111.4" font-family="Lato" font-size="12">a &amp; b</text><text x="820" y="-98.4" font-family="Lato" font-size="12" fill="#ff7f00">❷</text></g><g class="node" transform="translate(4 392)"><circle fill="#ffffa0" stroke="#000" cx="968" cy="-170" r="18"/><text text-anchor="middle" x="968" y="-166.9" font-family="Lato" font-size="12">5</text></g><g class="edge" transform="translate(4 392)"><path fill="none" stroke="#000" d="M836.869-74.38C846.873-89.057 863.484-111.083 882-126c18.909-15.234 43.937-27.31 62.114-34.927"/><path stroke="#000" d="M950.96-163.722l-7.67-.271 4.43 1.594-3.24 1.322h0l3.24-1.322-2.05 4.239 5.29-5.562h0z"/><text x="883.5" y="-163.4" font-family="Lato" font-size="12">a &amp; b</text><text x="890.5" y="-150.4" font-family="Lato" font-size="12" fill="#ff7f00">❷</text></g><g class="node" transform="translate(4 392)"><circle fill="#ffffa0" stroke="#000" cx="1112" cy="-108" r="18"/><text text-anchor="middle" x="1112" y="-104.9" font-family="Lato" font-size="12">6</text></g><g class="edge" transform="translate(4 392)"><path fill="none" stroke="#000" d="M844.891-55.102C874.583-49.296 935.747-40.162 986-51c38.78-8.364 79.99-29.677 104.339-43.74"/><path stroke="#000" d="M1096.448-98.32l-7.631.822 4.612.947-3.02 1.77h0l3.02-1.77-1.426 4.488 4.446-6.258h0z"/><text x="951" y="-67.4" font-family="Lato" font-size="12">!a &amp; !b</text><text x="961" y="-54.4" font-family="Lato" font-size="12" fill="#6a3d9a">❸</text></g><g class="edge" transform="translate(4 392)"><path fill="none" stroke="#000" d="M950.22-172.843c-10.744-1.573-24.732-3.365-37.22-4.157-13.75-.871-17.224-.242-31 0-84.662 1.488-185 5.741-230.863 7.823"/><path stroke="#000" d="M643.996-168.85l7.137 2.826-3.64-2.986 3.495-.16h0l-3.496.16 3.353-3.307-6.85 3.467h0z"/><text x="811.5" y="-193.4" font-family="Lato" font-size="12">!a &amp; b</text><text x="820" y="-180.4" font-family="Lato" font-size="12" fill="#ff7f00">❷</text></g><g class="edge" transform="translate(4 392)"><path fill="none" stroke="#000" d="M958.743-154.37C948.965-138.93 932.308-115.45 913-100c-18.584 14.87-43.448 25.978-61.66 32.854"/><path stroke="#000" d="M844.468-64.632l7.656.553-4.369-1.756 3.287-1.202h0l-3.287 1.202 2.205-4.16-5.492 5.363h0z"/><text x="882" y="-116.4" font-family="Lato" font-size="12">a &amp; !b</text><text x="890.5" y="-103.4" font-family="Lato" font-size="12" fill="#1f78b4">⓿</text></g><g class="edge" transform="translate(4 392)"><path fill="none" stroke="#000" d="M984.8-162.767c25.688 11.06 74.804 32.208 103.914 44.74"/><path stroke="#000" d="M1095.307-115.188l-5.184-5.661 1.969 4.277-3.215-1.384h0l3.215 1.384-4.46 1.51 7.675-.126h0z"/><text x="1023" y="-163.4" font-family="Lato" font-size="12">!a &amp; !b</text><text x="1033" y="-150.4" font-family="Lato" font-size="12" fill="#1f78b4">⓿</text></g><g class="edge" transform="translate(4 392)"><path fill="none" stroke="#000" d="M1094.179-104.936L851.94-63.288"/><path stroke="#000" d="M844.828-62.065l7.433 1.918-3.984-2.511 3.45-.593h0l-3.45.593 2.916-3.698-6.365 4.29h0z"/><text x="952.5" y="-103.4" font-family="Lato" font-size="12">!a &amp; b</text><text x="961" y="-90.4" font-family="Lato" font-size="12" fill="#6a3d9a">❸</text></g><g class="node" transform="translate(4 392)"><circle fill="#ffffa0" stroke="#000" cx="520" cy="-194" r="18"/><text text-anchor="middle" x="520" y="-190.9" font-family="Lato" font-size="12">2</text></g><g class="edge" transform="translate(4 392)"><path fill="none" stroke="#000" d="M537.081-187.823c5.94 2.019 12.679 4.166 18.919 5.823 14.756 3.919 31.52 7.308 44.942 9.77"/><path stroke="#000" d="M608.02-170.96l-6.333-4.337 2.889 3.718-3.445-.618h0l3.445.618-4.001 2.483 7.446-1.865h0z"/><text x="559" y="-198.4" font-family="Lato" font-size="12">a &amp; b</text><text x="566" y="-185.4" font-family="Lato" font-size="12" fill="#1f78b4">⓿</text></g><g class="edge" transform="translate(4 392)"><path fill="none" stroke="#000" d="M536.533-201.21C557.09-209.508 593.452-222 626-222h271.5c22.288 0 42.161 17.04 55.08 31.612"/><path stroke="#000" d="M957.347-184.762l-2.121-7.377-.141 4.707-2.263-2.671h0l2.263 2.67-4.666-.634 6.928 3.305h0z"/><text x="760" y="-238.4" font-family="Lato" font-size="12">a &amp; !b</text><text x="768.5" y="-225.4" font-family="Lato" font-size="12" fill="#ff4da0">❶</text></g><g class="node" transform="translate(4 392)"><circle fill="#ffffa0" stroke="#000" cx="414" cy="-194" r="18"/><text text-anchor="middle" x="414" y="-190.9" font-family="Lato" font-size="12">9</text></g><g class="edge" transform="translate(4 392)"><path fill="none" stroke="#000" d="M432.464-194h62.051"/><path stroke="#000" d="M501.748-194l-7-3.15 3.5 3.15h-3.5 3.5l-3.5 3.15 7-3.15h0z"/><text x="450" y="-210.4" font-family="Lato" font-size="12">!a &amp; !b</text><text x="460" y="-197.4" font-family="Lato" font-size="12" fill="#1f78b4">⓿</text></g><g class="edge" transform="translate(4 392)"><path fill="none" stroke="#000" d="M405.021-209.916C402.68-220.15 405.671-230 414-230c6.376 0 9.625 5.774 9.747 13.073"/><path stroke="#000" d="M422.979-209.916l3.893-6.615-3.512 3.136.38-3.48h0l-.38 3.48-2.75-3.822 2.369 7.301h0z"/><text x="400" y="-246.4" font-family="Lato" font-size="12">a &amp; b</text><text x="407" y="-233.4" font-family="Lato" font-size="12" fill="#ff7f00">❷</text></g><g class="edge" transform="translate(4 392)"><path fill="none" stroke="#000" d="M179.088-111.606c10.732-3.893 24.95-8.591 37.912-11.394 74.066-16.014 306.272-36.391 383.637-42.901"/><path stroke="#000" d="M607.63-166.488l-7.239-2.554 3.751 2.847-3.488.292h0l3.488-.292-3.225 3.431 6.713-3.724h0z"/><text x="347" y="-161.4" font-family="Lato" font-size="12">a &amp; b</text><text x="354" y="-148.4" font-family="Lato" font-size="12" fill="#6a3d9a">❸</text></g><g class="node" transform="translate(4 392)"><circle fill="#ffffa0" stroke="#000" cx="308" cy="-57" r="18"/><text text-anchor="middle" x="308" y="-53.9" font-family="Lato" font-size="12">8</text></g><g class="edge" transform="translate(4 392)"><path fill="none" stroke="#000" d="M172.667-89.883C182.531-77.332 198.441-60.384 217-53c21.273 8.464 47.59 6.075 66.442 2.402"/><path stroke="#000" d="M290.526-52.107l-7.503-1.623 4.08 2.352-3.424.73h0l3.424-.73-2.768 3.81 6.19-4.539h0z"/><text x="219.5" y="-69.4" font-family="Lato" font-size="12">!a &amp; b</text><text x="228" y="-56.4" font-family="Lato" font-size="12" fill="#ff4da0">❶</text></g><g class="edge" transform="translate(4 392)"><path fill="none" stroke="#000" d="M325.508-52.712C346.426-47.972 382.547-41 414-41h312.5c26.206 0 55.663-6.003 75.875-11.076"/><path stroke="#000" d="M809.38-53.89l-7.566-1.295 4.178 2.172-3.389.878h0l3.389-.878-2.599 3.927 5.987-4.804h0z"/><text x="556" y="-57.4" font-family="Lato" font-size="12">!a &amp; !b</text><text x="566" y="-44.4" font-family="Lato" font-size="12" fill="#6a3d9a">❸</text></g><g class="edge" transform="translate(4 392)"><path fill="none" stroke="#000" d="M321.167-44.35C340.089-27.557 376.807 0 414 0h483.5c7.807 0 44.793-99.108 61.848-145.98"/><path stroke="#000" d="M961.81-152.764l-5.349 5.506 4.155-2.216-1.194 3.29h0l1.194-3.29 1.767 4.365-.573-7.655h0z"/><text x="662" y="-16.4" font-family="Lato" font-size="12">a &amp; !b</text><text x="670.5" y="-3.4" font-family="Lato" font-size="12" fill="#ff7f00">❷</text></g><g class="edge" transform="translate(4 392)"><path fill="none" stroke="#000" d="M325.24-63.055c14.518-5.409 35.601-14 52.76-23.945 46.925-27.2 96.331-67.47 122.706-90.054"/><path stroke="#000" d="M506.284-181.861l-7.36 2.184 4.708.101-2.65 2.285h0l2.65-2.285-.594 4.671 3.246-6.956h0z"/><text x="398.5" y="-144.4" font-family="Lato" font-size="12">a &amp; !b</text><text x="407" y="-131.4" font-family="Lato" font-size="12" fill="#6a3d9a">❸</text></g><g class="edge" transform="translate(4 392)"><path fill="none" stroke="#000" d="M322.593-68.198C329.093-73.12 336.874-78.922 344-84c14.858-10.587 22.47-8.862 34-23 14.958-18.34 24.512-43.762 29.99-62.39"/><path stroke="#000" d="M409.958-176.417l-4.922 5.89 3.978-2.52-.945 3.37h0l.945-3.37 2.089 4.22-1.145-7.59h0z"/><text x="344" y="-123.4" font-family="Lato" font-size="12">!a &amp; !b</text><text x="354" y="-110.4" font-family="Lato" font-size="12" fill="#ff4da0">❶</text></g><g class="edge" transform="translate(4 392)"><path fill="none" stroke="#000" d="M291.777-65.483C282.86-69.917 271.505-75.198 261-79c-24.704-8.942-53.893-16.228-74.147-20.787"/><path stroke="#000" d="M179.82-101.342l6.155 4.587-2.738-3.831 3.418.755h0l-3.418-.755 4.098-2.32-7.515 1.564h0z"/><text x="219.5" y="-109.4" font-family="Lato" font-size="12">!a &amp; b</text><text x="228" y="-96.4" font-family="Lato" font-size="12" fill="#ff4da0">❶</text></g><g class="edge" transform="translate(4 392)"><path fill="none" stroke="#000" d="M216.668-246.417c-10.694-.222-24.444-.472-36.668-.583-19.555-.178-24.475-1.095-44 0-18.348 1.029-38.952 3.375-54.655 5.414"/><path stroke="#000" d="M74.062-240.617l7.354 2.2-3.885-2.662 3.47-.461h0l-3.47.461 3.054-3.584-6.523 4.046h0z"/><text x="146.5" y="-263.4" font-family="Lato" font-size="12">!a &amp; b</text><text x="155" y="-250.4" font-family="Lato" font-size="12" fill="#6a3d9a">❸</text></g><g class="edge" transform="translate(4 392)"><path fill="none" stroke="#000" d="M251.91-252.96C287.901-266.687 374.173-293.777 440-268c27.224 10.66 50.731 35.415 65.09 53.363"/><path stroke="#000" d="M509.6-208.84l-1.813-7.46-.337 4.697-2.15-2.762h0l2.15 2.762-4.635-.827 6.785 3.59h0z"/><text x="345.5" y="-294.4" font-family="Lato" font-size="12">!a &amp; b</text><text x="354" y="-281.4" font-family="Lato" font-size="12" fill="#ff4da0">❶</text></g><g class="edge" transform="translate(4 392)"><path fill="none" stroke="#000" d="M252.49-240.92l137.342 39.9"/><path stroke="#000" d="M396.703-199.025l-5.843-4.977 2.482 4-3.36-.976h0l3.36.977-4.24 2.048 7.601-1.072h0z"/><text x="292.5" y="-245.4" font-family="Lato" font-size="12">a &amp; !b</text><text x="301" y="-232.4" font-family="Lato" font-size="12" fill="#1f78b4">⓿</text></g></g></svg>