<?xml-stylesheet href="spot.css" type="text/css"?><svg width="1087pt" height="480" viewBox="0 0 1087 360" xmlns="http://www.w3.org/2000/svg"><g class="graph"><path fill="#fff" stroke="transparent" d="M0 360V0h1087v360H0z"/><text x="445" y="-339.4" font-family="Lato" font-size="12" transform="translate(4 356)">Inf(</text><text x="463" y="-339.4" font-family="Lato" font-size="12" fill="#1f78b4" transform="translate(4 356)">⓿</text><text x="477" y="-339.4" font-family="Lato" font-size="12" transform="translate(4 356)">) | (Fin(</text><text x="512" y="-339.4" font-family="Lato" font-size="12" fill="#ff4da0" transform="translate(4 356)">❶</text><text x="526" y="-339.4" font-family="Lato" font-size="12" transform="translate(4 356)">) &amp; (Inf(</text><text x="564" y="-339.4" font-family="Lato" font-size="12" fill="#ff7f00" transform="translate(4 356)">❷</text><text x="578" y="-339.4" font-family="Lato" font-size="12" transform="translate(4 356)">) | Fin(</text><text x="610" y="-339.4" font-family="Lato" font-size="12" fill="#6a3d9a" transform="translate(4 356)">❸</text><text x="624" y="-339.4" font-family="Lato" font-size="12" transform="translate(4 356)">)))</text><text x="490" y="-327.4" font-family="Lato" font-size="12" transform="translate(4 356)">[parity min even 4]</text><g class="node" transform="translate(4 356)"><path fill="#ffffa0" stroke="#000" d="M62-139H50c-6 0-12 6-12 12v12c0 6 6 12 12 12h12c6 0 12-6 12-12v-12c0-6-6-12-12-12"/><text x="52.5" y="-124.4" font-family="Lato" font-size="12">0</text><text x="49" y="-111.4" font-family="Lato" font-size="12" fill="#ff4da0">❶</text></g><g class="edge" transform="translate(4 356)"><path fill="none" stroke="#000" d="M1.123-121h29.801"/><path stroke="#000" d="M37.98-121l-7-3.15 3.5 3.15h-3.5 3.5l-3.5 3.15 7-3.15h0z"/></g><g class="edge" transform="translate(4 356)"><path fill="none" stroke="#000" d="M49.487-139.153C48.485-148.539 50.657-157 56-157c3.924 0 6.138 4.563 6.64 10.705"/><path stroke="#000" d="M62.513-139.153l3.274-6.943-3.212 3.444.062-3.5h0l-.062 3.5-3.087-3.556 3.025 7.055h0z"/><text x="33.5" y="-160.4" font-family="Lato" font-size="12">p0 &amp; !p1</text></g><g class="node" transform="translate(4 356)"><path fill="#ffffa0" stroke="#000" d="M188-171h-12c-6 0-12 6-12 12v12c0 6 6 12 12 12h12c6 0 12-6 12-12v-12c0-6-6-12-12-12"/><text x="178.5" y="-156.4" font-family="Lato" font-size="12">2</text><text x="175" y="-143.4" font-family="Lato" font-size="12" fill="#ff7f00">❷</text></g><g class="edge" transform="translate(4 356)"><path fill="none" stroke="#000" d="M74.053-125.585l83.064-21.096"/><path stroke="#000" d="M163.98-148.424l-7.56-1.33 4.169 2.192-3.393.862h0l3.393-.862-2.617 3.915 6.009-4.777h0z"/><text x="92" y="-144.4" font-family="Lato" font-size="12">!p0 &amp; !p1</text></g><g class="node" transform="translate(4 356)"><path fill="#ffffa0" stroke="#000" d="M446-297h-12c-6 0-12 6-12 12v12c0 6 6 12 12 12h12c6 0 12-6 12-12v-12c0-6-6-12-12-12"/><text x="436.5" y="-282.4" font-family="Lato" font-size="12">8</text><text x="433" y="-269.4" font-family="Lato" font-size="12" fill="#1f78b4">⓿</text></g><g class="edge" transform="translate(4 356)"><path fill="none" stroke="#000" d="M72.501-139.12C107.875-176.25 195.508-259.3 290-281c42.822-9.834 94.347-5.838 124.507-1.97"/><path stroke="#000" d="M421.696-281.997l-6.514-4.06 3.046 3.59-3.469-.469h0l3.469.47-3.89 2.652 7.358-2.183h0z"/><text x="224" y="-278.4" font-family="Lato" font-size="12">!p0 &amp; !p1</text></g><g class="node" transform="translate(4 356)"><path fill="#ffffa0" stroke="#000" d="M947-110h-12c-6 0-12 6-12 12v12c0 6 6 12 12 12h12c6 0 12-6 12-12v-12c0-6-6-12-12-12"/><text x="937.5" y="-95.4" font-family="Lato" font-size="12">6</text><text x="934" y="-82.4" font-family="Lato" font-size="12" fill="#1f78b4">⓿</text></g><g class="edge" transform="translate(4 356)"><path fill="none" stroke="#000" d="M62.194-102.835C68.03-87.81 77.98-66.636 92-52c31.956 33.361 43.803 52 90 52h637.5c45.015 0 83.86-40.633 104.855-67.892"/><path stroke="#000" d="M928.807-73.824l-6.721 3.708 4.62-.909-2.101 2.8h0l2.101-2.8.418 4.69 1.683-7.489h0z"/><text x="483.5" y="-3.4" font-family="Lato" font-size="12">!p0 &amp; p1</text></g><g class="node" transform="translate(4 356)"><path fill="#ffffa0" stroke="#000" d="M318.5-171h-12c-6 0-12 6-12 12v12c0 6 6 12 12 12h12c6 0 12-6 12-12v-12c0-6-6-12-12-12"/><text x="309" y="-156.4" font-family="Lato" font-size="12">5</text><text x="305.5" y="-143.4" font-family="Lato" font-size="12" fill="#1f78b4">⓿</text></g><g class="edge" transform="translate(4 356)"><path fill="none" stroke="#000" d="M200.145-153h86.784"/><path stroke="#000" d="M294.088-153l-7-3.15 3.5 3.15h-3.5 3.5l-3.5 3.15 7-3.15h0z"/><text x="224" y="-156.4" font-family="Lato" font-size="12">!p0 &amp; !p1</text></g><g class="node" transform="translate(4 356)"><path fill="#ffffa0" stroke="#000" d="M578-255h-12c-6 0-12 6-12 12v12c0 6 6 12 12 12h12c6 0 12-6 12-12v-12c0-6-6-12-12-12"/><text x="568.5" y="-240.4" font-family="Lato" font-size="12">4</text><text x="565" y="-227.4" font-family="Lato" font-size="12" fill="#1f78b4">⓿</text></g><g class="edge" transform="translate(4 356)"><path fill="none" stroke="#000" d="M200.212-160.959C207.527-164 216.088-167.368 224-170c56.26-18.716 70.934-22.01 129-34 69.658-14.384 152.998-25.211 193.874-30.111"/><path stroke="#000" d="M554-234.957l-7.323-2.303 3.847 2.716-3.476.412h0l3.476-.412-3.105 3.54 6.58-3.953h0z"/><text x="354.5" y="-215.4" font-family="Lato" font-size="12">p0 &amp; p1</text></g><g class="edge" transform="translate(4 356)"><path fill="none" stroke="#000" d="M421.89-290.358c-7.16-3.863-15.638-7.694-23.89-9.642-75.344-17.786-101.205-18.343-174 8-68.707 24.863-85.742 41.44-132 98-11.792 14.418-20.985 33.342-27.129 48.31"/><path stroke="#000" d="M62.264-139.123l5.51-5.344-4.219 2.091 1.292-3.253h0l-1.292 3.253-1.636-4.415.345 7.668h0z"/><text x="225.5" y="-310.4" font-family="Lato" font-size="12">!p0 &amp; p1</text></g><g class="edge" transform="translate(4 356)"><path fill="none" stroke="#000" d="M421.844-278.645C382.068-276.995 285.859-268.154 224-222c-14.913 11.127-25.65 29.255-32.533 44.137"/><path stroke="#000" d="M188.574-171.29l5.703-5.138-4.293 1.935 1.41-3.204h0l-1.41 3.204-1.473-4.473.063 7.676h0z"/><text x="290" y="-270.4" font-family="Lato" font-size="12">p0 &amp; !p1</text></g><g class="edge" transform="translate(4 356)"><path fill="none" stroke="#000" d="M458.116-269.968c7.303 3.418 15.88 7.159 23.884 9.968 21.494 7.543 46.669 13.764 64.918 17.826"/><path stroke="#000" d="M553.795-240.673l-6.167-4.57 2.748 3.824-3.42-.747h0l3.42.747-4.092 2.33 7.511-1.584h0z"/><text x="483.5" y="-263.4" font-family="Lato" font-size="12">p0 &amp; !p1</text></g><g class="node" transform="translate(4 356)"><path fill="#ffffa0" stroke="#000" d="M1067-177h-12c-6 0-12 6-12 12v12c0 6 6 12 12 12h12c6 0 12-6 12-12v-12c0-6-6-12-12-12"/><text x="1057.5" y="-162.4" font-family="Lato" font-size="12">3</text><text x="1054" y="-149.4" font-family="Lato" font-size="12" fill="#1f78b4">⓿</text></g><g class="edge" transform="translate(4 356)"><path fill="none" stroke="#000" d="M458.343-280.815C483.818-283.175 531.363-287 572-287h369c56.061 0 93.537 66.157 110.175 103.347"/><path stroke="#000" d="M1054.04-177.068l.096-7.675-1.493 4.466-1.396-3.21h0l1.396 3.21-4.284-1.954 5.68 5.163h0z"/><text x="732.5" y="-290.4" font-family="Lato" font-size="12">!p0 &amp; p1</text></g><g class="edge" transform="translate(4 356)"><path fill="none" stroke="#000" d="M922.885-92H636.5c-154.74 0-194.028-7.608-346.5-34-28.744-4.975-61.137-13.47-82.884-19.604"/><path stroke="#000" d="M200.17-147.585l5.867 4.95-2.501-3.99 3.365.96h0l-3.365-.96 4.23-2.07-7.596 1.11h0z"/><text x="548" y="-96.4" font-family="Lato" font-size="12">!p0 &amp; !p1</text></g><g class="edge" transform="translate(4 356)"><path fill="none" stroke="#000" d="M959.214-100.618C983.452-112.095 1023.462-131.07 1025-132c4.042-2.445 8.184-5.241 12.151-8.087"/><path stroke="#000" d="M1042.809-144.255l-7.504 1.616 4.686.46-2.817 2.076h0l2.817-2.076-.949 4.612 3.767-6.688h0z"/><text x="977" y="-135.4" font-family="Lato" font-size="12">!p0 &amp; !p1</text></g><g class="node" transform="translate(4 356)"><path fill="#ffffa0" stroke="#000" d="M701-177h-12c-6 0-12 6-12 12v12c0 6 6 12 12 12h12c6 0 12-6 12-12v-12c0-6-6-12-12-12"/><text x="691.5" y="-162.4" font-family="Lato" font-size="12">1</text><text x="688" y="-149.4" font-family="Lato" font-size="12" fill="#6a3d9a">❸</text></g><g class="edge" transform="translate(4 356)"><path fill="none" stroke="#000" d="M676.785-154.754c-5.665 1.13-11.954 2.192-17.785 2.754-119.77 11.536-263.91 4.435-321.221.778"/><path stroke="#000" d="M330.595-151.692l6.78 3.6-3.288-3.372 3.493.228h0l-3.493-.228 3.698-2.915-7.19 2.687h0z"/><text x="482" y="-148.4" font-family="Lato" font-size="12">!p0 &amp; !p1</text></g><g class="node" transform="translate(4 356)"><path fill="#ffffa0" stroke="#000" d="M825.5-64h-12c-6 0-12 6-12 12v12c0 6 6 12 12 12h12c6 0 12-6 12-12v-12c0-6-6-12-12-12"/><text x="816" y="-49.4" font-family="Lato" font-size="12">9</text><text x="812.5" y="-36.4" font-family="Lato" font-size="12" fill="#ff4da0">❶</text></g><g class="edge" transform="translate(4 356)"><path fill="none" stroke="#000" d="M713.103-142.569l83.044 75.373"/><path stroke="#000" d="M801.375-62.451l-3.067-7.037.475 4.685-2.592-2.353h0l2.592 2.353-4.709-.02 7.3 2.372h0z"/><text x="732.5" y="-128.4" font-family="Lato" font-size="12">!p0 &amp; p1</text></g><g class="edge" transform="translate(4 356)"><path fill="none" stroke="#000" d="M294.227-143.817C273.462-133.937 238.26-118.858 206-113c-43.288 7.861-94.664 1.887-124.67-3.101"/><path stroke="#000" d="M74.18-117.34l6.36 4.299-2.91-3.701 3.448.597h0l-3.449-.597 3.986-2.507-7.434 1.91h0z"/><text x="158" y="-116.4" font-family="Lato" font-size="12">!p0 &amp; !p1</text></g><g class="edge" transform="translate(4 356)"><path fill="none" stroke="#000" d="M330.83-160.353c23.557-9.57 62.048-25.662 67.17-30.647 17.827-17.351 29.027-43.78 35.334-63.146"/><path stroke="#000" d="M435.44-260.932l-5.083 5.752 4.045-2.409-1.037 3.343h0l1.037-3.343 1.972 4.276-.934-7.619h0z"/><text x="353" y="-194.4" font-family="Lato" font-size="12">p0 &amp; !p1</text></g><g class="node" transform="translate(4 356)"><path fill="#ffffa0" stroke="#000" d="M578-197h-12c-6 0-12 6-12 12v12c0 6 6 12 12 12h12c6 0 12-6 12-12v-12c0-6-6-12-12-12"/><text x="568.5" y="-182.4" font-family="Lato" font-size="12">7</text><text x="565" y="-169.4" font-family="Lato" font-size="12" fill="#ff7f00">❷</text></g><g class="edge" transform="translate(4 356)"><path fill="none" stroke="#000" d="M330.748-154.828l215.816-21.624"/><path stroke="#000" d="M553.773-177.174l-7.28-2.436 3.797 2.785-3.482.35h0l3.482-.35-3.168 3.483 6.65-3.832h0z"/><text x="416" y="-171.4" font-family="Lato" font-size="12">!p0 &amp; !p1</text></g><g class="edge" transform="translate(4 356)"><path fill="none" stroke="#000" d="M801.356-46H182c-41.008 0-80.297-29.696-103.794-51.716"/><path stroke="#000" d="M72.867-102.845l2.866 7.121-.342-4.696 2.524 2.425h0l-2.524-2.425 4.706.153-7.23-2.578h0z"/><text x="419" y="-49.4" font-family="Lato" font-size="12">p0 &amp; p1</text></g><g class="edge" transform="translate(4 356)"><path fill="none" stroke="#000" d="M837.563-47.765C855.373-50.015 883.035-54.897 905-65c4.099-1.885 8.18-4.294 12.044-6.894"/><path stroke="#000" d="M922.907-76.09l-7.526 1.513 4.68.524-2.847 2.037h0l2.847-2.037-1.014 4.599 3.86-6.636h0z"/><text x="860" y="-68.4" font-family="Lato" font-size="12">p0 &amp; !p1</text></g><g class="edge" transform="translate(4 356)"><path fill="none" stroke="#000" d="M590.124-239.912C634.704-246.3 752.563-258.442 842-225c33.225 12.423 41.327 20.92 63 49 13.693 17.741 23.235 41.477 29.039 59.192"/><path stroke="#000" d="M936.153-110.1l.9-7.623-1.952 4.285-1.052-3.338h0l1.052 3.338-4.057-2.391 5.109 5.729h0z"/><text x="731" y="-249.4" font-family="Lato" font-size="12">!p0 &amp; !p1</text></g><g class="edge" transform="translate(4 356)"><path fill="none" stroke="#000" d="M590.15-225.49l80.574 51.096"/><path stroke="#000" d="M676.777-170.556l-4.225-6.41 1.269 4.535-2.956-1.874h0l2.956 1.874-4.643.786 7.599 1.089h0z"/><text x="615.5" y="-212.4" font-family="Lato" font-size="12">p0 &amp; p1</text></g><g class="edge" transform="translate(4 356)"><path fill="none" stroke="#000" d="M1055.986-140.913C1050.83-126.07 1041.22-105.936 1025-96c-17.43 10.677-40.918 10.872-58.625 8.857"/><path stroke="#000" d="M959.175-88.118l6.514 4.061-3.046-3.591 3.468.47h0l-3.468-.47 3.891-2.652-7.36 2.182h0z"/><text x="978.5" y="-99.4" font-family="Lato" font-size="12">p0 &amp; !p1</text></g><g class="edge" transform="translate(4 356)"><path fill="none" stroke="#000" d="M1042.74-159H720.239"/><path stroke="#000" d="M713.15-159l7 3.15-3.5-3.15h3.5-3.5l3.5-3.15-7 3.15h0z"/><text x="860" y="-162.4" font-family="Lato" font-size="12">!p0 &amp; p1</text></g><g class="edge" transform="translate(4 356)"><path fill="none" stroke="#000" d="M590.312-169.358c7.184 3.3 15.627 6.6 23.688 8.358 18.354 4.004 39.602 4.375 55.73 3.813"/><path stroke="#000" d="M676.75-157.5l-7.134-2.835 3.638 2.99-3.497.157h0l3.497-.156-3.356 3.303 6.852-3.46h0z"/><text x="614" y="-164.4" font-family="Lato" font-size="12">!p0 &amp; p1</text></g><g class="edge" transform="translate(4 356)"><path fill="none" stroke="#000" d="M590.19-196.349c6.91-5.468 15.201-10.818 23.81-13.651 18.998-6.252 25.025-1.007 45 0 163.288 8.233 207.03-1.2 366 37 3.75.9 7.63 2.103 11.395 3.427"/><path stroke="#000" d="M1042.992-167.1l-5.449-5.407 2.172 4.178-3.277-1.229h0l3.277 1.229-4.383 1.721 7.66-.493h0z"/><text x="797" y="-208.4" font-family="Lato" font-size="12">!p0 &amp; p1</text></g></g></svg>