<?xml-stylesheet href="spot.css" type="text/css"?><svg width="590pt" height="266pt" viewBox="0 0 589.5 266" xmlns="http://www.w3.org/2000/svg"><g class="graph"><path fill="#fff" stroke="transparent" d="M0 266V0h589.5v266H0z"/><text x="196.25" y="-245.4" font-family="Lato" font-size="12" transform="translate(4 262)">(Fin(</text><text x="219.25" y="-245.4" font-family="Lato" font-size="12" fill="#1f78b4" transform="translate(4 262)">⓿</text><text x="233.25" y="-245.4" font-family="Lato" font-size="12" transform="translate(4 262)">) | Inf(</text><text x="263.25" y="-245.4" font-family="Lato" font-size="12" fill="#ff4da0" transform="translate(4 262)">❶</text><text x="277.25" y="-245.4" font-family="Lato" font-size="12" transform="translate(4 262)">)) &amp; (Fin(</text><text x="320.25" y="-245.4" font-family="Lato" font-size="12" fill="#ff7f00" transform="translate(4 262)">❷</text><text x="334.25" y="-245.4" font-family="Lato" font-size="12" transform="translate(4 262)">) | Inf(</text><text x="364.25" y="-245.4" font-family="Lato" font-size="12" fill="#6a3d9a" transform="translate(4 262)">❸</text><text x="378.25" y="-245.4" font-family="Lato" font-size="12" transform="translate(4 262)">))</text><text x="263.75" y="-233.4" font-family="Lato" font-size="12" transform="translate(4 262)">[Streett 2]</text><g class="node" transform="translate(4 262)"><path fill="#ffffa0" stroke="#000" d="M62-81H50c-6 0-12 6-12 12v12c0 6 6 12 12 12h12c6 0 12-6 12-12v-12c0-6-6-12-12-12"/><text text-anchor="middle" x="56" y="-59.9" font-family="Lato" font-size="12">0</text></g><g class="edge" transform="translate(4 262)"><path fill="none" stroke="#000" d="M1.123-63h29.801"/><path stroke="#000" d="M37.98-63l-7-3.15 3.5 3.15h-3.5 3.5l-3.5 3.15 7-3.15h0z"/></g><g class="node" transform="translate(4 262)"><path fill="#ffffa0" stroke="#000" d="M192-116h-20c-6 0-12 6-12 12v12c0 6 6 12 12 12h20c6 0 12-6 12-12v-12c0-6-6-12-12-12"/><text x="178.5" y="-101.4" font-family="Lato" font-size="12">2</text><text x="168" y="-89.4" font-family="Lato" font-size="12" fill="#1f78b4">⓿</text><text x="182" y="-89.4" font-family="Lato" font-size="12" fill="#ff7f00">❷</text></g><g class="edge" transform="translate(4 262)"><path fill="none" stroke="#000" d="M74.053-68.015l78.777-21.882"/><path stroke="#000" d="M159.732-91.814l-7.588-1.162 4.216 2.098-3.373.937h0l3.373-.937-2.53 3.972 5.902-4.908h0z"/><text x="92" y="-88.4" font-family="Lato" font-size="12">!p0 &amp; !p1</text></g><g class="node" transform="translate(4 262)"><path fill="#ffffa0" stroke="#000" d="M317-90h-12c-6 0-12 6-12 12v12c0 6 6 12 12 12h12c6 0 12-6 12-12v-12c0-6-6-12-12-12"/><text text-anchor="middle" x="311" y="-68.9" font-family="Lato" font-size="12">1</text></g><g class="edge" transform="translate(4 262)"><path fill="none" stroke="#000" d="M74.163-56.65C111.566-44.57 199.5-21.336 269-43c6.212-1.936 12.317-5.148 17.864-8.745"/><path stroke="#000" d="M292.643-55.755l-7.546 1.403 4.671.592-2.875 1.996h0l2.875-1.996-1.08 4.584 3.955-6.58h0z"/><text x="158" y="-39.4" font-family="Lato" font-size="12">!p0 &amp; !p1</text></g><g class="node" transform="translate(4 262)"><path fill="#ffffa0" stroke="#000" d="M565-185h-12c-6 0-12 6-12 12v12c0 6 6 12 12 12h12c6 0 12-6 12-12v-12c0-6-6-12-12-12"/><text text-anchor="middle" x="559" y="-163.9" font-family="Lato" font-size="12">3</text></g><g class="edge" transform="translate(4 262)"><path fill="none" stroke="#000" d="M61.584-81.094C75.144-120.989 113.81-213 182-213h259c34.167 0 70.332 16.948 93.48 30.27"/><path stroke="#000" d="M540.652-179.086l-4.426-6.272 1.412 4.492-3.014-1.78h0l3.014 1.78-4.615.933 7.629.847h0z"/><text x="287" y="-216.4" font-family="Lato" font-size="12">!p0 &amp; !p1</text></g><g class="edge" transform="translate(4 262)"><path fill="none" stroke="#000" d="M170.422-116.153C168.64-125.539 172.5-134 182-134c6.977 0 10.911 4.563 11.804 10.705"/><path stroke="#000" d="M193.578-116.153l3.37-6.897-3.26 3.399.111-3.498h0l-.11 3.498-3.038-3.598 2.927 7.096h0z"/><text x="158" y="-137.4" font-family="Lato" font-size="12">!p0 &amp; !p1</text></g><g class="edge" transform="translate(4 262)"><path fill="none" stroke="#000" d="M204.176-93.53l81.713 16.469"/><path stroke="#000" d="M292.857-75.657l-6.24-4.47 2.81 3.779-3.432-.692h0l3.431.692-4.053 2.396 7.484-1.705h0z"/><text x="224" y="-91.4" font-family="Lato" font-size="12">!p0 &amp; p1</text></g><g class="node" transform="translate(4 262)"><path fill="#ffffa0" stroke="#000" d="M317-36h-12c-6 0-12 6-12 12v12c0 6 6 12 12 12h12c6 0 12-6 12-12v-12c0-6-6-12-12-12"/><text text-anchor="middle" x="311" y="-14.9" font-family="Lato" font-size="12">4</text></g><g class="edge" transform="translate(4 262)"><path fill="none" stroke="#000" d="M202.757-79.871C209.347-74.483 216.797-68.755 224-64c20.015 13.212 44.237 25.765 62.035 34.41"/><path stroke="#000" d="M292.759-26.362l-4.947-5.87 1.792 4.355-3.155-1.515h0l3.155 1.515-4.519 1.325 7.674.19h0z"/><text x="225.5" y="-67.4" font-family="Lato" font-size="12">p0 &amp; p1</text></g><g class="node" transform="translate(4 262)"><path fill="#ffffa0" stroke="#000" d="M451-116h-20c-6 0-12 6-12 12v12c0 6 6 12 12 12h20c6 0 12-6 12-12v-12c0-6-6-12-12-12"/><text x="437.5" y="-101.4" font-family="Lato" font-size="12">5</text><text x="427" y="-89.4" font-family="Lato" font-size="12" fill="#ff4da0">❶</text><text x="441" y="-89.4" font-family="Lato" font-size="12" fill="#ff7f00">❷</text></g><g class="edge" transform="translate(4 262)"><path fill="none" stroke="#000" d="M329.206-65.528C347.838-59.96 377.334-54.108 401-63c6.997-2.629 13.57-7.098 19.288-11.98"/><path stroke="#000" d="M425.705-79.947l-7.289 2.41 4.709-.044-2.58 2.365h0l2.58-2.365-.45 4.687 3.03-7.052h0z"/><text x="354.5" y="-66.4" font-family="Lato" font-size="12">!p0 &amp; p1</text></g><g class="edge" transform="translate(4 262)"><path fill="none" stroke="#000" d="M540.72-166.616C489.479-165.08 340.579-157.466 224-120c-4.528 1.455-9.152 3.374-13.597 5.474"/><path stroke="#000" d="M204.049-111.354l7.67-.309-4.538-1.255 3.131-1.563h0l-3.132 1.563 1.725-4.381-4.856 5.945h0z"/><text x="353" y="-159.4" font-family="Lato" font-size="12">!p0 &amp; !p1</text></g><g class="edge" transform="translate(4 262)"><path fill="none" stroke="#000" d="M548.87-185.153C547.31-194.539 550.686-203 559-203c6.105 0 9.547 4.563 10.328 10.705"/><path stroke="#000" d="M569.13-185.153l3.343-6.91-3.245 3.412.096-3.499h0l-.096 3.499-3.053-3.586 2.956 7.084h0z"/><text x="536.5" y="-206.4" font-family="Lato" font-size="12">!p0 &amp; p1</text></g><g class="edge" transform="translate(4 262)"><path fill="none" stroke="#000" d="M418.692-103.27c-5.732-1.131-11.913-2.158-17.692-2.73-78.285-7.752-98.626-5.792-177 1-4.152.36-8.512.9-12.787 1.525"/><path stroke="#000" d="M204.15-102.362l7.405 2.022-3.948-2.566 3.458-.545h0l-3.458.544 2.967-3.656-6.424 4.201h0z"/><text x="287" y="-114.4" font-family="Lato" font-size="12">!p0 &amp; !p1</text></g><g class="edge" transform="translate(4 262)"><path fill="none" stroke="#000" d="M418.726-93.545L336.101-77.02"/><path stroke="#000" d="M329.076-75.615l7.482 1.716-4.05-2.403 3.432-.686h0l-3.432.686 2.814-3.775-6.246 4.462h0z"/><text x="356" y="-92.4" font-family="Lato" font-size="12">p0 &amp; p1</text></g><g class="edge" transform="translate(4 262)"><path fill="none" stroke="#000" d="M463.136-108.075c16.827-7.957 40.33-19.721 59.864-31.925 4.006-2.503 8.129-5.33 12.089-8.188"/><path stroke="#000" d="M540.742-152.364l-7.502 1.625 4.687.454-2.816 2.08h0l2.816-2.08-.944 4.614 3.759-6.693h0z"/><text x="481" y="-143.4" font-family="Lato" font-size="12">p0 &amp; p1</text></g><g class="edge" transform="translate(4 262)"><path fill="none" stroke="#000" d="M292.782-15.17C253.647-9.98 159.62-2.337 92-36c-4.039-2.01-8.088-4.488-11.936-7.12"/><path stroke="#000" d="M74.211-47.336l3.838 6.647-.998-4.601 2.84 2.046h0l-2.84-2.046 4.681-.51-7.52-1.536h0z"/><text x="158" y="-18.4" font-family="Lato" font-size="12">!p0 &amp; !p1</text></g><g class="edge" transform="translate(4 262)"><path fill="none" stroke="#000" d="M329.085-18.952C348.423-20.756 379.239-25.967 401-41c11.917-8.233 21.441-21.245 28.202-32.76"/><path stroke="#000" d="M432.67-79.962l-6.165 4.572 4.457-1.517-1.708 3.054h0l1.708-3.054 1.041 4.592.668-7.647h0z"/><text x="354.5" y="-44.4" font-family="Lato" font-size="12">!p0 &amp; p1</text></g></g></svg>