<?xml-stylesheet href="spot.css" type="text/css"?><svg width="328pt" height="109pt" viewBox="0 0 328 109" xmlns="http://www.w3.org/2000/svg"><g class="graph"><path fill="#fff" stroke="transparent" d="M0 109V0h328v109H0z"/><text x="157.5" y="-87.4" font-family="Lato" font-size="12" transform="translate(4 105)">t</text><text x="150" y="-74.4" font-family="Lato" font-size="12" transform="translate(4 105)">[all]</text><g class="node" transform="translate(4 105)"><circle fill="#ffffa0" stroke="#000" cx="56" cy="-18" r="18"/><text text-anchor="middle" x="56" y="-14.9" font-family="Lato" font-size="12">0</text></g><g class="edge" transform="translate(4 105)"><path fill="none" stroke="#000" d="M1.123-18h29.801"/><path stroke="#000" d="M37.98-18l-7-3.15 3.5 3.15h-3.5 3.5l-3.5 3.15 7-3.15h0z"/></g><g class="node" transform="translate(4 105)"><circle fill="#ffffa0" stroke="#000" cx="176" cy="-18" r="18"/><text text-anchor="middle" x="176" y="-14.9" font-family="Lato" font-size="12">2</text></g><g class="edge" transform="translate(4 105)"><path fill="none" stroke="#000" d="M74.225-18h76.73"/><path stroke="#000" d="M157.996-18l-7-3.15 3.5 3.15h-3.5 3.5l-3.5 3.15 7-3.15h0z"/><text x="92" y="-21.4" font-family="Lato" font-size="12">!p0 &amp; !p1</text></g><g class="node" transform="translate(4 105)"><circle fill="#ffffa0" stroke="#000" cx="296" cy="-18" r="18"/><text text-anchor="middle" x="296" y="-14.9" font-family="Lato" font-size="12">1</text></g><g class="edge" transform="translate(4 105)"><path fill="none" stroke="#000" d="M194.225-18h76.73"/><path stroke="#000" d="M277.996-18l-7-3.15 3.5 3.15h-3.5 3.5l-3.5 3.15 7-3.15h0z"/><text x="212" y="-21.4" font-family="Lato" font-size="12">!p0 &amp; !p1</text></g><g class="edge" transform="translate(4 105)"><path fill="none" stroke="#000" d="M285.849-33.167C282.772-43.664 286.156-54 296-54c7.537 0 11.286 6.059 11.25 13.61"/><path stroke="#000" d="M306.151-33.167l4.167-6.447-3.64 2.987.526-3.46h0l-.526 3.46-2.589-3.934 2.062 7.394h0z"/><text x="272" y="-57.4" font-family="Lato" font-size="12">!p0 &amp; !p1</text></g></g></svg>