<?xml-stylesheet href="spot.css" type="text/css"?><svg width="337pt" height="208" viewBox="0 0 337 155.55" xmlns="http://www.w3.org/2000/svg"><g class="graph"><path fill="#fff" stroke="transparent" d="M0 155.547V0h337v155.547H0z"/><text x="162" y="-133.947" font-family="Lato" font-size="12" transform="translate(4 151.547)">t</text><text x="154.5" y="-120.947" font-family="Lato" font-size="12" transform="translate(4 151.547)">[all]</text><g class="node" transform="translate(4 151.547)"><circle fill="#ffffa0" stroke="#000" cx="56" cy="-21.547" r="18"/><text text-anchor="middle" x="56" y="-18.447" font-family="Lato" font-size="12">0</text></g><g class="edge" transform="translate(4 151.547)"><path fill="none" stroke="#000" d="M1.123-21.547h29.801"/><path stroke="#000" d="M37.98-21.547l-7-3.15 3.5 3.15h-3.5 3.5l-3.5 3.15 7-3.15h0z"/></g><g class="edge" transform="translate(4 151.547)"><path fill="none" stroke="#000" d="M49.62-38.584c-1.301-9.82.825-18.963 6.38-18.963 4.166 0 6.404 5.143 6.713 11.857"/><path stroke="#000" d="M62.38-38.584l3.474-6.844-3.31 3.348.164-3.496h0l-.165 3.496-2.982-3.644 2.818 7.14h0z"/><text x="32" y="-60.947" font-family="Lato" font-size="12">!p0 &amp; !p1</text></g><g class="node" transform="translate(4 151.547)"><circle fill="#ffffa0" stroke="#000" cx="182" cy="-64.547" r="18"/><text text-anchor="middle" x="182" y="-61.447" font-family="Lato" font-size="12">2</text></g><g class="edge" transform="translate(4 151.547)"><path fill="none" stroke="#000" d="M68.04-35.068C74.495-41.43 82.97-48.495 92-52.547c20.569-9.228 46.244-11.89 64.901-12.443"/><path stroke="#000" d="M163.932-65.109l-7.052-3.031 3.553 3.09-3.5.06h0l3.5-.06-3.447 3.21 6.946-3.269h0z"/><text x="92" y="-66.947" font-family="Lato" font-size="12">!p0 &amp; !p1</text></g><g class="node" transform="translate(4 151.547)"><circle fill="#ffffa0" stroke="#000" cx="308" cy="-21.547" r="18"/><text text-anchor="middle" x="308" y="-18.447" font-family="Lato" font-size="12">1</text></g><g class="edge" transform="translate(4 151.547)"><path fill="none" stroke="#000" d="M74.306-20.332c5.669.322 11.937.626 17.694.785 68.993 1.915 150.425.043 190.751-1.16"/><path stroke="#000" d="M289.79-20.923l-7.093-2.934 3.595 3.04-3.499.108h0l3.499-.107-3.402 3.256 6.9-3.363h0z"/><text x="158" y="-21.947" font-family="Lato" font-size="12">!p0 &amp; !p1</text></g><g class="edge" transform="translate(4 151.547)"><path fill="none" stroke="#000" d="M168.14-52.656c-7.783 6.053-17.956 12.986-28.14 17.11-18.776 7.602-41.516 11.077-58.598 12.665"/><path stroke="#000" d="M73.986-22.276l7.233 2.57-3.745-2.855 3.489-.285h0l-3.489.285 3.233-3.424-6.721 3.709h0z"/><text x="93.5" y="-38.947" font-family="Lato" font-size="12">p0 &amp; !p1</text></g><g class="edge" transform="translate(4 151.547)"><path fill="none" stroke="#000" d="M171.087-78.963c-3.81-10.75-.173-21.584 10.913-21.584 8.66 0 12.776 6.613 12.344 14.632"/><path stroke="#000" d="M192.913-78.963l4.497-6.221-3.791 2.793.706-3.428h0l-.706 3.428-2.38-4.064 1.674 7.492h0z"/><text x="159.5" y="-103.947" font-family="Lato" font-size="12">p0 &amp; !p1</text></g><g class="edge" transform="translate(4 151.547)"><path fill="none" stroke="#000" d="M200.068-65.109c18.781.08 48.633 2.11 71.932 12.562 6.773 3.039 13.233 7.773 18.763 12.634"/><path stroke="#000" d="M295.96-35.068l-2.971-7.077.412 4.69-2.56-2.386h0l2.56 2.387-4.709-.083 7.269 2.47h0z"/><text x="224" y="-66.947" font-family="Lato" font-size="12">!p0 &amp; !p1</text></g><g class="edge" transform="translate(4 151.547)"><path fill="none" stroke="#000" d="M290.463-17.032C270.263-12.083 235.995-4.46 206-1.547c-21.233 2.063-26.767 2.063-48 0-26.831-2.605-57.082-8.98-77.624-13.838"/><path stroke="#000" d="M73.537-17.032l6.068 4.701-2.666-3.881 3.403.819h0l-3.403-.82 4.14-2.243-7.542 1.424h0z"/><text x="159.5" y="-4.947" font-family="Lato" font-size="12">p0 &amp; !p1</text></g><g class="edge" transform="translate(4 151.547)"><path fill="none" stroke="#000" d="M289.808-23.702c-17.356-2.458-44.011-7.29-65.808-15.845-7.11-2.79-14.41-6.708-20.89-10.616"/><path stroke="#000" d="M196.94-54.026l4.262 6.385-1.295-4.528 2.966 1.858h0l-2.966-1.858 4.638-.812-7.604-1.045h0z"/><text x="225.5" y="-42.947" font-family="Lato" font-size="12">p0 &amp; !p1</text></g><g class="edge" transform="translate(4 151.547)"><path fill="none" stroke="#000" d="M297.849-36.713c-3.077-10.498.307-20.834 10.151-20.834 7.537 0 11.286 6.06 11.25 13.61"/><path stroke="#000" d="M318.151-36.713l4.167-6.447-3.64 2.987.526-3.46h0l-.526 3.46-2.589-3.934 2.062 7.394h0z"/><text x="287" y="-60.947" font-family="Lato" font-size="12">p0 &amp; p1</text></g></g></svg>