<?xml-stylesheet href="spot.css" type="text/css"?><svg width="440" height="164pt" viewBox="0 0 329.5 164" xmlns="http://www.w3.org/2000/svg"><g class="graph"><path fill="#fff" stroke="transparent" d="M0 164V0h329.5v164H0z"/><text x="99.75" y="-143.4" font-family="Lato" font-size="12" transform="translate(4 160)">Inf(</text><text x="117.75" y="-143.4" font-family="Lato" font-size="12" fill="#1f78b4" transform="translate(4 160)">⓿</text><text x="131.75" y="-143.4" font-family="Lato" font-size="12" transform="translate(4 160)">)&amp;Inf(</text><text x="160.75" y="-143.4" font-family="Lato" font-size="12" fill="#ff4da0" transform="translate(4 160)">❶</text><text x="174.75" y="-143.4" font-family="Lato" font-size="12" transform="translate(4 160)">)&amp;Inf(</text><text x="203.75" y="-143.4" font-family="Lato" font-size="12" fill="#ff7f00" transform="translate(4 160)">❷</text><text x="217.75" y="-143.4" font-family="Lato" font-size="12" transform="translate(4 160)">)</text><text x="124.25" y="-131.4" font-family="Lato" font-size="12" transform="translate(4 160)">[gen. Büchi 3]</text><g class="node" transform="translate(4 160)"><circle fill="#ffffa0" stroke="#000" cx="56" cy="-18" r="18"/><text text-anchor="middle" x="56" y="-14.9" font-family="Lato" font-size="12">0</text></g><g class="edge" transform="translate(4 160)"><path fill="none" stroke="#000" d="M1.123-18h29.801"/><path stroke="#000" d="M37.98-18l-7-3.15 3.5 3.15h-3.5 3.5l-3.5 3.15 7-3.15h0z"/></g><g class="edge" transform="translate(4 160)"><path fill="none" stroke="#000" d="M49.62-35.037C48.32-44.857 50.446-54 56-54c4.166 0 6.404 5.142 6.713 11.857"/><path stroke="#000" d="M62.38-35.037l3.474-6.845-3.31 3.349.164-3.497h0l-.165 3.497-2.982-3.644 2.818 7.14h0z"/><text x="32" y="-70.4" font-family="Lato" font-size="12">!p0 &amp; !p1</text><text x="49" y="-57.4" font-family="Lato" font-size="12" fill="#ff7f00">❷</text></g><g class="node" transform="translate(4 160)"><circle fill="#ffffa0" stroke="#000" cx="179" cy="-64" r="18"/><text text-anchor="middle" x="179" y="-60.9" font-family="Lato" font-size="12">1</text></g><g class="edge" transform="translate(4 160)"><path fill="none" stroke="#000" d="M73.103-24.396l82.203-30.743"/><path stroke="#000" d="M162.043-57.658l-7.66-.499 4.381 1.725-3.278 1.226h0l3.278-1.226-2.174 4.176 5.453-5.402h0z"/><text x="92" y="-52.4" font-family="Lato" font-size="12">!p0 &amp; !p1</text></g><g class="edge" transform="translate(4 160)"><path fill="none" stroke="#000" d="M168.849-79.167C165.773-89.664 169.156-100 179-100c7.537 0 11.286 6.059 11.25 13.61"/><path stroke="#000" d="M189.151-79.167l4.167-6.447-3.64 2.987.526-3.46h0l-.526 3.46-2.589-3.934 2.062 7.394h0z"/><text x="156.5" y="-115.4" font-family="Lato" font-size="12">!p0 &amp; p1</text><text x="165" y="-103.4" font-family="Lato" font-size="12" fill="#1f78b4">⓿</text><text x="179" y="-103.4" font-family="Lato" font-size="12" fill="#ff4da0">❶</text></g><g class="node" transform="translate(4 160)"><circle fill="#ffffa0" stroke="#000" cx="299" cy="-35" r="18"/><text text-anchor="middle" x="299" y="-31.9" font-family="Lato" font-size="12">2</text></g><g class="edge" transform="translate(4 160)"><path fill="none" stroke="#000" d="M196.93-66.664C214.33-68.54 241.224-69.548 263-62c6.154 2.133 12.119 5.74 17.364 9.636"/><path stroke="#000" d="M286.159-47.73l-3.5-6.832.766 4.646-2.733-2.186h0l2.733 2.186-4.7.275 7.434 1.911h0z"/><text x="218" y="-84.4" font-family="Lato" font-size="12">!p0 &amp; p1</text><text x="233.5" y="-71.4" font-family="Lato" font-size="12" fill="#ff4da0">❶</text></g><g class="edge" transform="translate(4 160)"><path fill="none" stroke="#000" d="M281.88-29.413C275.934-27.568 269.204-25.585 263-24c-27.701 7.074-34.558 10.096-63 13-18.57 1.896-23.344.64-42 0-26.227-.899-56.18-3.094-76.809-4.789"/><path stroke="#000" d="M74.037-16.387l6.713 3.723-3.225-3.431 3.488.291h0l-3.488-.291 3.75-2.848-7.238 2.556h0z"/><text x="158" y="-27.4" font-family="Lato" font-size="12">p0 &amp; p1</text><text x="172" y="-14.4" font-family="Lato" font-size="12" fill="#1f78b4">⓿</text></g><g class="edge" transform="translate(4 160)"><path fill="none" stroke="#000" d="M281.361-30.662C264.554-27.372 238.802-24.558 218-32c-7.955-2.846-15.453-8.091-21.708-13.523"/><path stroke="#000" d="M190.919-50.5l2.994 7.067-.427-4.69 2.568 2.38h0l-2.568-2.38 4.709.069-7.276-2.447h0z"/><text x="218" y="-48.4" font-family="Lato" font-size="12">!p0 &amp; p1</text><text x="233.5" y="-35.4" font-family="Lato" font-size="12" fill="#1f78b4">⓿</text></g><g class="edge" transform="translate(4 160)"><path fill="none" stroke="#000" d="M289.187-50.167C286.213-60.664 289.484-71 299-71c7.285 0 10.91 6.059 10.875 13.61"/><path stroke="#000" d="M308.813-50.167l4.135-6.467-3.626 3.005.509-3.463h0l-.509 3.463-2.608-3.921 2.099 7.383h0z"/><text x="276.5" y="-87.4" font-family="Lato" font-size="12">!p0 &amp; p1</text><text x="292" y="-74.4" font-family="Lato" font-size="12" fill="#1f78b4">⓿</text></g></g></svg>