<?xml-stylesheet href="spot.css" type="text/css"?><svg width="1018pt" height="590pt" viewBox="0 0 1018 590" xmlns="http://www.w3.org/2000/svg"><g class="graph"><path fill="#fff" stroke="transparent" d="M0 590V0h1018v590H0z"/><text x="502.5" y="-568.4" font-family="Lato" font-size="12" transform="translate(4 586)">t</text><text x="495" y="-555.4" font-family="Lato" font-size="12" transform="translate(4 586)">[all]</text><g class="node" transform="translate(4 586)"><circle fill="#ffffa0" stroke="#000" cx="56" cy="-394" r="18"/><text text-anchor="middle" x="56" y="-390.9" font-family="Lato" font-size="12">0</text></g><g class="edge" transform="translate(4 586)"><path fill="none" stroke="#000" d="M1.123-394h29.801"/><path stroke="#000" d="M37.98-394l-7-3.15 3.5 3.15h-3.5 3.5l-3.5 3.15 7-3.15h0z"/></g><g class="node" transform="translate(4 586)"><circle fill="#ffffa0" stroke="#000" cx="162" cy="-294" r="18"/><text text-anchor="middle" x="162" y="-290.9" font-family="Lato" font-size="12">8</text></g><g class="edge" transform="translate(4 586)"><path fill="none" stroke="#000" d="M69.425-381.335l73.91 69.726"/><path stroke="#000" d="M148.684-306.562l-2.93-7.095.384 4.693-2.546-2.402h0l2.546 2.402-4.707-.11 7.253 2.512h0z"/><text x="92" y="-361.4" font-family="Lato" font-size="12">!a &amp; !b</text></g><g class="node" transform="translate(4 586)"><circle fill="#ffffa0" stroke="#000" cx="265" cy="-294" r="18"/><text text-anchor="middle" x="265" y="-290.9" font-family="Lato" font-size="12">3</text></g><g class="edge" transform="translate(4 586)"><path fill="none" stroke="#000" d="M73.684-390.55c14.414 3.13 35.124 8.355 52.316 15.55 44.367 18.567 91.937 48.804 118.328 66.611"/><path stroke="#000" d="M250.255-304.358l-4.017-6.542 1.123 4.573-2.894-1.968h0l2.894 1.968-4.666.637 7.56 1.332h0z"/><text x="145" y="-369.4" font-family="Lato" font-size="12">!a &amp; !b</text></g><g class="node" transform="translate(4 586)"><circle fill="#ffffa0" stroke="#000" cx="992" cy="-426" r="18"/><text text-anchor="middle" x="992" y="-422.9" font-family="Lato" font-size="12">4</text></g><g class="edge" transform="translate(4 586)"><path fill="none" stroke="#000" d="M59.423-411.807C65.338-440.877 78.174-496.727 92-511c22.883-23.623 37.111-24 70-24h727c31.63 0 44.01 2.276 67 24 16.865 15.935 26.168 41.033 31.069 59.833"/><path stroke="#000" d="M988.795-444.05l1.412-7.545-2.237 4.144-.825-3.401h0l.825 3.401-3.886-2.659 4.711 6.06h0z"/><text x="504" y="-538.4" font-family="Lato" font-size="12">!a &amp; !b</text></g><g class="edge" transform="translate(4 586)"><path fill="none" stroke="#000" d="M180.414-294h58.884"/><path stroke="#000" d="M246.745-294l-7-3.15 3.5 3.15h-3.5 3.5l-3.5 3.15 7-3.15h0z"/><text x="198" y="-297.4" font-family="Lato" font-size="12">!a &amp; b</text></g><g class="node" transform="translate(4 586)"><circle fill="#ffffa0" stroke="#000" cx="574" cy="-148" r="18"/><text text-anchor="middle" x="574" y="-144.9" font-family="Lato" font-size="12">1</text></g><g class="edge" transform="translate(4 586)"><path fill="none" stroke="#000" d="M165.724-276.098C174.99-237.11 202.96-148 265-148h283.848"/><path stroke="#000" d="M555.995-148l-7-3.15 3.5 3.15h-3.5 3.5l-3.5 3.15 7-3.15h0z"/><text x="351" y="-151.4" font-family="Lato" font-size="12">a &amp; b</text></g><g class="edge" transform="translate(4 586)"><path fill="none" stroke="#000" d="M256.367-309.916C254.114-320.15 256.992-330 265-330c6.131 0 9.255 5.774 9.372 13.073"/><path stroke="#000" d="M273.633-309.916l3.866-6.632-3.499 3.151.366-3.48h0l-.366 3.48-2.766-3.81 2.4 7.291h0z"/><text x="249.5" y="-333.4" font-family="Lato" font-size="12">a &amp; !b</text></g><g class="node" transform="translate(4 586)"><circle fill="#ffffa0" stroke="#000" cx="365" cy="-374" r="18"/><text text-anchor="middle" x="365" y="-370.9" font-family="Lato" font-size="12">2</text></g><g class="edge" transform="translate(4 586)"><path fill="none" stroke="#000" d="M279.328-305.462L345-358.001"/><path stroke="#000" d="M350.699-362.56l-7.434 1.914 4.701.273-2.733 2.187h0l2.733-2.187-.765 4.646 3.498-6.832h0z"/><text x="301" y="-346.4" font-family="Lato" font-size="12">a &amp; b</text></g><g class="node" transform="translate(4 586)"><circle fill="#ffffa0" stroke="#000" cx="468" cy="-228" r="18"/><text text-anchor="middle" x="468" y="-224.9" font-family="Lato" font-size="12">9</text></g><g class="edge" transform="translate(4 586)"><path fill="none" stroke="#000" d="M281.76-287.206c6.032 2.372 12.91 4.993 19.24 7.206 50.1 17.518 109.634 35.355 142.366 44.909"/><path stroke="#000" d="M450.317-233.07l-5.841-4.979 2.48 4.002-3.36-.977h0l3.36.977-4.24 2.047 7.601-1.07h0z"/><text x="349.5" y="-267.4" font-family="Lato" font-size="12">a &amp; !b</text></g><g class="edge" transform="translate(4 586)"><path fill="none" stroke="#000" d="M981.065-440.368C963.912-461.114 928.528-497 889-497H162c-45.564 0-78.918 49.556-95.079 79.92"/><path stroke="#000" d="M63.552-410.549l6.009-4.776-4.404 1.666 1.605-3.11h0l-1.605 3.11-1.195-4.555-.41 7.665h0z"/><text x="504" y="-500.4" font-family="Lato" font-size="12">!a &amp; !b</text></g><g class="node" transform="translate(4 586)"><circle fill="#ffffa0" stroke="#000" cx="889" cy="-145" r="18"/><text text-anchor="middle" x="889" y="-141.9" font-family="Lato" font-size="12">7</text></g><g class="edge" transform="translate(4 586)"><path fill="none" stroke="#000" d="M985.794-409.07L897.73-168.815"/><path stroke="#000" d="M895.288-162.155l5.367-5.488-4.162 2.202 1.204-3.286h0l-1.204 3.286-1.753-4.37.548 7.656h0z"/><text x="925" y="-330.4" font-family="Lato" font-size="12">!a &amp; b</text></g><g class="edge" transform="translate(4 586)"><path fill="none" stroke="#000" d="M572.167-129.98C569.007-108.743 560.522-73.949 538-55c-24.278 20.425-38.273 14-70 14H162C93.503-41 65.438-287.89 58.085-368.72"/><path stroke="#000" d="M57.437-376.01l-2.518 7.252 2.828-3.765.31 3.486h0l-.31-3.486 3.447 3.207-3.757-6.693h0z"/><text x="301" y="-44.4" font-family="Lato" font-size="12">a &amp; b</text></g><g class="edge" transform="translate(4 586)"><path fill="none" stroke="#000" d="M582.153-131.706c6.188 10.671 15.7 24.019 27.847 31.706 39.479 24.983 56.516 16.31 103 21 62.6 6.317 86.223 11.662 140-21 9.131-5.546 16.908-14.295 22.872-22.61"/><path stroke="#000" d="M880.072-128.823l-6.53 4.036 4.57-1.136-1.96 2.9h0l1.96-2.9.65 4.664 1.31-7.564h0z"/><text x="716" y="-82.4" font-family="Lato" font-size="12">a &amp; b</text></g><g class="node" transform="translate(4 586)"><circle fill="#ffffa0" stroke="#000" cx="677" cy="-334" r="18"/><text text-anchor="middle" x="677" y="-330.9" font-family="Lato" font-size="12">6</text></g><g class="edge" transform="translate(4 586)"><path fill="none" stroke="#000" d="M577.607-165.883C582.62-188.248 593.042-227.212 610-257c13.04-22.905 33.543-45.186 48.436-59.837"/><path stroke="#000" d="M663.645-321.876l-7.22 2.603 4.705-.17-2.516 2.434h0l2.516-2.434-.325 4.698 2.84-7.131h0z"/><text x="610" y="-301.4" font-family="Lato" font-size="12">a &amp; !b</text></g><g class="edge" transform="translate(4 586)"><path fill="none" stroke="#000" d="M884.955-127.22C874.982-88.501 845.365 0 783 0H162c-43.374 0-50.941-29.038-70-68-25.899-52.945-33.453-233.45-35.395-300.581"/><path stroke="#000" d="M56.405-375.824l-2.956 7.085 3.053-3.586.096 3.498h0l-.096-3.498 3.245 3.411-3.342-6.91h0z"/><text x="452.5" y="-3.4" font-family="Lato" font-size="12">!a &amp; b</text></g><g class="edge" transform="translate(4 586)"><path fill="none" stroke="#000" d="M884.018-127.456C878.802-112.421 869.084-91.439 853-80c-19.114 13.594-28.631 6.993-52 9-170.299 14.629-213.574-8-384.5-8H265c-45.7 0-45.762-37.535-67-78-18.989-36.18-28.494-83.106-32.827-111.589"/><path stroke="#000" d="M164.133-275.762l-2.112 7.38 2.614-3.916.503 3.463h0l-.503-3.463 3.62 3.011-4.122-6.475h0z"/><text x="504" y="-80.4" font-family="Lato" font-size="12">!a &amp; !b</text></g><g class="edge" transform="translate(4 586)"><path fill="none" stroke="#000" d="M902.447-157.199C917.96-172.087 942.991-198.786 956-227c14.163-30.719 27.401-127.938 33.082-174.145"/><path stroke="#000" d="M989.928-408.104l-3.971 6.568 3.55-3.094-.423 3.474h0l.422-3.474 2.705 3.854-2.283-7.328h0z"/><text x="926.5" y="-230.4" font-family="Lato" font-size="12">a &amp; b</text></g><g class="edge" transform="translate(4 586)"><path fill="none" stroke="#000" d="M870.714-144.737C826.131-144.17 708.286-143.096 610-146c-3.418-.101-7.016-.25-10.562-.422"/><path stroke="#000" d="M592.306-146.799l6.824 3.515-3.329-3.33 3.495.185h0l-3.495-.185 3.662-2.96-7.157 2.775h0z"/><text x="713" y="-148.4" font-family="Lato" font-size="12">!a &amp; !b</text></g><g class="edge" transform="translate(4 586)"><path fill="none" stroke="#000" d="M876.751-158.573C858.38-177.359 821.694-209 783-209H574c-28.387 0-60.39-6.684-81.733-12.123"/><path stroke="#000" d="M485.459-222.908l5.972 4.822-2.587-3.935 3.386.888h0l-3.386-.888 4.185-2.159-7.57 1.272h0z"/><text x="663" y="-212.4" font-family="Lato" font-size="12">a &amp; b</text></g><g class="edge" transform="translate(4 586)"><path fill="none" stroke="#000" d="M664.821-347.267C642.428-370.545 592.033-417.894 538-435c-58.05-18.378-77.962-14.897-137 0-90.453 22.823-180.812 91.793-219.466 124.04"/><path stroke="#000" d="M175.782-306.113l7.383-2.103-4.707-.153 2.677-2.255h0l-2.677 2.255.647-4.664-3.323 6.92h0z"/><text x="402.5" y="-445.4" font-family="Lato" font-size="12">a &amp; b</text></g><g class="edge" transform="translate(4 586)"><path fill="none" stroke="#000" d="M658.789-335.755C627.224-338.85 560.328-345.655 504-353c-39.988-5.214-86.264-12.446-114.05-16.919"/><path stroke="#000" d="M382.96-371.048l6.408 4.226-2.952-3.668 3.455.559h0l-3.455-.559 3.957-2.551-7.413 1.993h0z"/><text x="505.5" y="-356.4" font-family="Lato" font-size="12">a &amp; !b</text></g><g class="node" transform="translate(4 586)"><circle fill="#ffffa0" stroke="#000" cx="783" cy="-277" r="18"/><text text-anchor="middle" x="783" y="-273.9" font-family="Lato" font-size="12">5</text></g><g class="edge" transform="translate(4 586)"><path fill="none" stroke="#000" d="M693.82-327.307C708.265-321.327 729.47-311.99 747-302c5.114 2.913 10.423 6.348 15.344 9.724"/><path stroke="#000" d="M768.324-288.076l-3.918-6.601 1.054 4.59-2.864-2.012h0l2.864 2.011-4.674.567 7.538 1.445h0z"/><text x="714.5" y="-321.4" font-family="Lato" font-size="12">a &amp; !b</text></g><g class="edge" transform="translate(4 586)"><path fill="none" stroke="#000" d="M347.043-376.019C307.285-380.375 208.788-390.542 126-394c-14.855-.62-31.5-.648-44.83-.507"/><path stroke="#000" d="M74.138-394.415l7.041 3.058-3.541-3.104 3.5-.046h0l-3.5.046 3.458-3.196-6.958 3.242h0z"/><text x="198" y="-392.4" font-family="Lato" font-size="12">a &amp; !b</text></g><g class="edge" transform="translate(4 586)"><path fill="none" stroke="#000" d="M380.624-383.353c6.149-3.264 13.398-6.615 20.376-8.647 141.14-41.092 181.999-34 329-34h236.537"/><path stroke="#000" d="M973.766-426l-7-3.15 3.5 3.15h-3.5 3.5l-3.5 3.15 7-3.15h0z"/><text x="660" y="-429.4" font-family="Lato" font-size="12">!a &amp; !b</text></g><g class="edge" transform="translate(4 586)"><path fill="none" stroke="#000" d="M383.215-375.703C403.785-377.477 438.265-380 468-380h209c45.564 0 78.918 49.556 95.079 79.92"/><path stroke="#000" d="M775.448-293.549l-.41-7.665-1.195 4.555-1.605-3.11h0l1.605 3.11-4.404-1.666 6.01 4.776h0z"/><text x="558.5" y="-383.4" font-family="Lato" font-size="12">a &amp; !b</text></g><g class="edge" transform="translate(4 586)"><path fill="none" stroke="#000" d="M375.443-359.197l77.86 110.365"/><path stroke="#000" d="M457.53-242.842l-1.462-7.536-.556 4.676-2.018-2.86h0l2.018 2.86-4.592-1.044 6.61 3.904h0z"/><text x="401" y="-325.4" font-family="Lato" font-size="12">!a &amp; b</text></g><g class="edge" transform="translate(4 586)"><path fill="none" stroke="#000" d="M765.12-279.651C738.253-283.491 685.83-290.423 641-293c-131.87-7.582-290.183-3.803-350.752-1.886"/><path stroke="#000" d="M283.023-294.651l7.099 2.92-3.6-3.034 3.497-.113h0l-3.498.113 3.396-3.262-6.894 3.376h0z"/><text x="505.5" y="-301.4" font-family="Lato" font-size="12">a &amp; !b</text></g><g class="edge" transform="translate(4 586)"><path fill="none" stroke="#000" d="M774.181-261.273C760.414-238.264 731.563-195.803 695-174c-29.73 17.728-69.958 23.44-95.7 25.239"/><path stroke="#000" d="M592.125-148.335l7.174 2.73-3.68-2.938 3.494-.207h0l-3.494.208 3.307-3.352-6.801 3.559h0z"/><text x="661.5" y="-177.4" font-family="Lato" font-size="12">!a &amp; b</text></g><g class="edge" transform="translate(4 586)"><path fill="none" stroke="#000" d="M798.69-268.015c15.484 9.52 39.001 25.813 54.31 45.015 12.854 16.122 22.323 37.58 28.316 53.907"/><path stroke="#000" d="M883.67-162.44l.634-7.65-1.801 4.351-1.168-3.3h0l1.168 3.3-4.138-2.248 5.305 5.547h0z"/><text x="819" y="-257.4" font-family="Lato" font-size="12">!a &amp; !b</text></g><g class="edge" transform="translate(4 586)"><path fill="none" stroke="#000" d="M774.021-292.916C771.68-303.15 774.671-313 783-313c6.376 0 9.625 5.774 9.746 13.073"/><path stroke="#000" d="M791.979-292.916l3.893-6.615-3.512 3.136.38-3.48h0l-.38 3.48-2.75-3.822 2.369 7.301h0z"/><text x="766" y="-316.4" font-family="Lato" font-size="12">!a &amp; !b</text></g><g class="edge" transform="translate(4 586)"><path fill="none" stroke="#000" d="M765.735-271.388C739.225-263.027 686.759-247.482 641-240c-51.932 8.491-113.593 10.982-147.49 11.707"/><path stroke="#000" d="M486.31-228.157l7.059 3.017-3.559-3.083 3.5-.066h0l-3.5.066 3.44-3.216-6.94 3.282h0z"/><text x="610" y="-243.4" font-family="Lato" font-size="12">!a &amp; b</text></g><g class="edge" transform="translate(4 586)"><path fill="none" stroke="#000" d="M449.813-226.586C425.642-225.322 381.92-225.192 347-237c-24.282-8.21-47.866-25.949-63.46-39.471"/><path stroke="#000" d="M278.17-281.237l3.144 7.002-.527-4.679 2.618 2.323h0l-2.618-2.323 4.709-.033-7.327-2.29h0z"/><text x="349.5" y="-240.4" font-family="Lato" font-size="12">a &amp; !b</text></g><g class="edge" transform="translate(4 586)"><path fill="none" stroke="#000" d="M477.533-212.434C484.06-202.742 493.429-190.539 504-182c13.819 11.162 31.909 19.828 46.236 25.616"/><path stroke="#000" d="M556.933-153.775l-5.38-5.476 2.119 4.206-3.262-1.271h0l3.262 1.27-4.405 1.665 7.666-.394h0z"/><text x="505.5" y="-185.4" font-family="Lato" font-size="12">!a &amp; b</text></g></g></svg>