<svg xmlns="http://www.w3.org/2000/svg" xmlns:xlink="http://www.w3.org/1999/xlink" width="600.849" height="312.941" viewBox="0 0 450.637 234.706"><defs><symbol overflow="visible" id="E"><path d="M2.297-.64a.63.63 0 00-.64-.626.627.627 0 00-.626.625.634.634 0 101.266 0zm0 0"/></symbol><symbol overflow="visible" id="a"><path d="M3.547-6.813c0-.375-.063-.484-.469-.484h-1.89c-.204 0-.5 0-.5.36 0 .359.312.359.484.359h1.547v5.844H1.188c-.204 0-.5 0-.5.375C.688 0 1 0 1.171 0h3.937c.172 0 .47 0 .47-.36 0-.374-.282-.374-.47-.374H3.547zm0 0"/></symbol><symbol overflow="visible" id="c"><path d="M.797-.688c-.11.094-.172.157-.172.313C.625 0 .922 0 1.109 0h4.047c.407 0 .485-.11.485-.484v-.313c0-.234 0-.5-.407-.5-.421 0-.421.234-.421.563H1.969c.703-.61 1.86-1.5 2.375-1.985.75-.656 1.297-1.422 1.297-2.39 0-1.422-1.204-2.329-2.672-2.329-1.406 0-2.344.985-2.344 2 0 .438.328.579.531.579a.54.54 0 00.532-.547.475.475 0 00-.172-.375c.187-.547.75-.922 1.406-.922.969 0 1.89.547 1.89 1.594 0 .843-.578 1.53-1.375 2.187zm0 0"/></symbol><symbol overflow="visible" id="d"><path d="M2.781-2.11c-.64 0-1.14-.562-1.14-1.187 0-.687.515-1.203 1.14-1.203.656 0 1.156.563 1.156 1.188 0 .687-.53 1.203-1.156 1.203zm-1.078.422c.047.032.5.297 1.078.297 1.11 0 1.969-.859 1.969-1.921 0-.36-.094-.704-.297-1.032.25-.156.531-.203.688-.203a.514.514 0 00.468.406.476.476 0 00.47-.5c0-.265-.22-.64-.86-.64-.14 0-.719.015-1.282.422-.187-.141-.609-.36-1.156-.36-1.125 0-1.969.89-1.969 1.907 0 .515.204.906.375 1.14a1.434 1.434 0 00-.234.813c0 .421.172.718.281.859C.344.031.344.844.344.984c0 1.032 1.265 1.75 2.781 1.75 1.531 0 2.797-.734 2.797-1.75 0-.453-.219-1.046-.828-1.359-.157-.094-.657-.36-1.735-.36h-.843c-.094 0-.25 0-.344-.015-.172 0-.25 0-.39-.172a.873.873 0 01-.141-.422c0-.062.015-.218.062-.343zm1.422 3.704c-1.188 0-2.078-.516-2.078-1.032 0-.218.094-.609.484-.843.297-.188.407-.188 1.282-.188 1.062 0 2.406 0 2.406 1.031 0 .516-.89 1.032-2.094 1.032zm0 0"/></symbol><symbol overflow="visible" id="e"><path d="M1.984-4.64v-2.173c0-.375-.078-.484-.484-.484H.64c-.203 0-.5 0-.5.36 0 .359.313.359.485.359h.531v6.094c0 .234 0 .484.422.484.406 0 .406-.234.406-.531.485.5 1 .61 1.391.61 1.297 0 2.453-1.141 2.453-2.657 0-1.469-1.062-2.64-2.328-2.64-.578 0-1.11.202-1.516.577zm0 2.359v-.875c0-.703.688-1.344 1.454-1.344.874 0 1.578.875 1.578 1.922 0 1.14-.844 1.922-1.688 1.922-.922 0-1.344-1.047-1.344-1.625zm0 0"/></symbol><symbol overflow="visible" id="f"><path d="M4.375-.375c.266.36.844.375 1.297.375.328 0 .594 0 .594-.375 0-.36-.297-.36-.485-.36-.5 0-.625-.046-.718-.093v-2.578c0-.844-.641-1.86-2.36-1.86-.515 0-1.734 0-1.734.875 0 .36.25.547.531.547.188 0 .516-.094.531-.547 0-.093.016-.109.25-.125.172-.015.328-.015.438-.015.906 0 1.531.375 1.531 1.218C2.125-3.28.656-2.671.656-1.53c0 .828.75 1.61 1.969 1.61.453 0 1.188-.095 1.75-.454zM4.25-2.609v1c0 .28 0 .53-.469.75-.437.203-.969.203-1.062.203-.75 0-1.235-.406-1.235-.875 0-.578 1.032-1.032 2.766-1.078zm0 0"/></symbol><symbol overflow="visible" id="g"><path d="M4.281-.594c0 .422 0 .594.469.594h.875c.203 0 .5 0 .5-.375 0-.36-.313-.36-.484-.36h-.532v-6.077c0-.375-.078-.485-.484-.485H3.75c-.188 0-.484 0-.484.36 0 .359.312.359.468.359h.547v1.89a2.128 2.128 0 00-1.406-.53C1.578-5.219.437-4.095.437-2.564.438-1.093 1.5.079 2.767.079c.671 0 1.171-.328 1.515-.672zm0-2.578v.86c0 .656-.547 1.656-1.453 1.656-.86 0-1.578-.844-1.578-1.906 0-1.157.844-1.938 1.672-1.938.765 0 1.36.672 1.36 1.328zm0 0"/></symbol><symbol overflow="visible" id="h"><path d="M3.563-3.047c-.282-.047-.516-.078-.813-.14-.344-.047-1.156-.188-1.156-.657 0-.312.375-.687 1.515-.687.985 0 1.157.36 1.188.672.016.203.047.406.406.406.422 0 .422-.25.422-.485v-.828c0-.187 0-.5-.36-.5-.28 0-.327.172-.359.25-.515-.25-1.047-.25-1.281-.25-1.984 0-2.266.985-2.266 1.422 0 1.094 1.25 1.297 2.36 1.469.578.094 1.531.25 1.531.875 0 .453-.438.844-1.516.844-.562 0-1.234-.125-1.53-1.063-.063-.218-.11-.343-.423-.343-.422 0-.422.25-.422.484v1.156c0 .188 0 .5.36.5.11 0 .297-.015.437-.453.594.422 1.219.453 1.563.453 1.89 0 2.265-1 2.265-1.578 0-1.234-1.546-1.484-1.921-1.547zm0 0"/></symbol><symbol overflow="visible" id="i"><path d="M2.656-2.219c0-1.125.703-2.281 2.156-2.281 0 .297.204.531.5.531a.5.5 0 00.516-.515c0-.235-.156-.735-1.14-.735-.61 0-1.375.203-2.032.969v-.406c0-.375-.078-.5-.484-.5H.859c-.171 0-.484 0-.484.36 0 .374.297.374.484.374h.97v3.688h-.97c-.171 0-.484 0-.484.359C.375 0 .672 0 .859 0h3.125c.172 0 .485 0 .485-.36 0-.374-.313-.374-.485-.374H2.656zm0 0"/></symbol><symbol overflow="visible" id="k"><path d="M4.281-.375C4.297 0 4.547 0 4.75 0h.875c.203 0 .5 0 .5-.375 0-.36-.313-.36-.484-.36h-.532v-3.921c0-.375-.078-.5-.484-.5H3.75c-.188 0-.484 0-.484.375 0 .36.312.36.468.36h.547v2.546c0 1.078-.968 1.219-1.36 1.219-.937 0-.937-.39-.937-.781v-3.22c0-.374-.078-.5-.484-.5H.64c-.203 0-.5 0-.5.376 0 .36.313.36.485.36h.531v3.062c0 1.14.828 1.437 1.703 1.437a2.33 2.33 0 001.422-.453zm0 0"/></symbol><symbol overflow="visible" id="l"><path d="M3.031-4.422h1.453c.172 0 .47 0 .47-.36 0-.374-.282-.374-.47-.374H3.031v-.563c0-.922.797-.922 1.156-.922 0 .047.11.516.516.516.25 0 .516-.203.516-.531 0-.719-.953-.719-1.14-.719-.954 0-1.876.547-1.876 1.594v.625H1c-.188 0-.484 0-.484.375 0 .36.296.36.468.36h1.22v3.687H.983c-.171 0-.484 0-.484.359C.5 0 .813 0 .984 0h3.25c.172 0 .485 0 .485-.36 0-.374-.313-.374-.485-.374H3.031zm0 0"/></symbol><symbol overflow="visible" id="m"><path d="M3.688-4.656c0-.375-.063-.5-.47-.5H1.517c-.172 0-.485 0-.485.36 0 .374.313.374.485.374h1.359v3.688H1.422c-.188 0-.484 0-.484.375C.938 0 1.25 0 1.421 0h3.531c.172 0 .484 0 .484-.36 0-.374-.312-.374-.484-.374H3.687zm0-2.063a.584.584 0 00-.594-.593.593.593 0 100 1.187.584.584 0 00.594-.594zm0 0"/></symbol><symbol overflow="visible" id="j"><path d="M5.234-8.516c.063-.156.063-.187.063-.203 0-.14-.11-.25-.234-.25-.172 0-.22.125-.25.25L.734 2.531c-.062.156-.062.188-.062.219 0 .125.11.234.234.234.172 0 .219-.109.25-.234zm0 0"/></symbol><symbol overflow="visible" id="n"><path d="M2.063-4.781H3.78v-.375H2.062v-2.188h-.296c-.016.969-.36 2.25-1.532 2.297v.266H1.25v3.297C1.25-.016 2.36.125 2.781.125c.86 0 1.188-.844 1.188-1.61v-.671h-.297v.656c0 .875-.36 1.328-.797 1.328-.813 0-.813-1.078-.813-1.281zm0 0"/></symbol><symbol overflow="visible" id="o"><path d="M2-3.969V-5.28l-1.672.125v.375c.844 0 .938.078.938.672v3.203c0 .531-.125.531-.938.531V0a49.107 49.107 0 011.375-.031c.469 0 1.031 0 1.516.031v-.375h-.25c-.89 0-.906-.125-.906-.563v-1.828c0-1.187.5-2.25 1.406-2.25h.125a.534.534 0 00-.266.47c0 .343.25.515.516.515.203 0 .5-.14.5-.516 0-.39-.36-.734-.875-.734-.875 0-1.313.797-1.469 1.312zm0 0"/></symbol><symbol overflow="visible" id="p"><path d="M3.984-.906c.047.469.36.984.922.984.25 0 .985-.172.985-1.14v-.672h-.297v.671c0 .688-.297.766-.438.766-.39 0-.437-.547-.437-.594v-2.39c0-.516 0-.969-.422-1.422a2.34 2.34 0 00-1.64-.656C1.671-5.36.843-4.797.843-4c0 .36.25.563.562.563.328 0 .547-.25.547-.563 0-.14-.062-.531-.61-.547.313-.406.907-.547 1.282-.547.594 0 1.266.469 1.266 1.532v.437c-.61.047-1.438.078-2.188.438C.797-2.281.5-1.657.5-1.141.5-.17 1.656.125 2.422.125c.781 0 1.328-.469 1.562-1.031zm-.093-1.969v1.203c0 1.14-.86 1.547-1.391 1.547-.594 0-1.078-.422-1.078-1.016 0-.671.5-1.656 2.469-1.734zm0 0"/></symbol><symbol overflow="visible" id="q"><path d="M1.313-4.11v3.204c0 .531-.125.531-.938.531V0a45.645 45.645 0 011.36-.031c.312 0 .937.015 1.343.031v-.375c-.812 0-.937 0-.937-.531V-3.11c0-1.235.843-1.907 1.609-1.907.75 0 .89.641.89 1.329v2.78c0 .532-.14.532-.937.532V0a45.645 45.645 0 011.36-.031c.296 0 .921.015 1.328.031v-.375c-.625 0-.922 0-.922-.36v-2.28c0-1.032 0-1.391-.375-1.829-.172-.203-.563-.437-1.25-.437-.875 0-1.438.515-1.781 1.25v-1.25l-1.688.125v.375c.844 0 .938.078.938.672zm0 0"/></symbol><symbol overflow="visible" id="r"><path d="M2.484-2.313c.266.047 1.25.235 1.25 1.094 0 .61-.421 1.094-1.359 1.094-1 0-1.438-.688-1.656-1.703-.031-.156-.047-.203-.172-.203-.156 0-.156.078-.156.297v1.578c0 .203 0 .281.14.281.047 0 .063 0 .297-.234.016-.016.016-.047.235-.266.53.5 1.062.5 1.312.5 1.375 0 1.922-.797 1.922-1.656 0-.625-.36-.985-.5-1.14-.39-.376-.86-.47-1.36-.563C1.766-3.375.97-3.531.97-4.22c0-.422.312-.906 1.344-.906 1.312 0 1.374 1.078 1.39 1.438.016.109.125.109.14.109C4-3.578 4-3.641 4-3.86v-1.204c0-.203 0-.296-.125-.296-.063 0-.078 0-.234.14-.047.063-.157.157-.204.203-.468-.343-.953-.343-1.124-.343C.843-5.36.39-4.547.39-3.891c0 .422.187.766.515 1.016.39.313.719.39 1.578.563zm0 0"/></symbol><symbol overflow="visible" id="s"><path d="M2.11-8.297l-1.72.14v.36c.844 0 .938.094.938.672v6.219c0 .531-.14.531-.937.531V0c.39-.016 1.03-.031 1.328-.031.297 0 .89.015 1.328.031v-.375c-.797 0-.938 0-.938-.531zm0 0"/></symbol><symbol overflow="visible" id="t"><path d="M1.344-3.016c.062-1.78 1.078-2.078 1.484-2.078 1.219 0 1.344 1.61 1.344 2.078zm-.016.25h3.328c.266 0 .297 0 .297-.25 0-1.187-.64-2.343-2.125-2.343-1.39 0-2.5 1.234-2.5 2.734 0 1.594 1.266 2.75 2.64 2.75 1.454 0 1.985-1.313 1.985-1.547 0-.125-.094-.14-.14-.14-.11 0-.141.062-.157.156-.422 1.234-1.5 1.234-1.625 1.234-.594 0-1.078-.36-1.344-.797-.359-.578-.359-1.36-.359-1.797zm0 0"/></symbol><symbol overflow="visible" id="u"><path d="M5.625-2.563c0-1.53-1.188-2.796-2.64-2.796C1.5-5.36.327-4.047.327-2.563A2.667 2.667 0 002.968.126a2.66 2.66 0 002.657-2.688zM2.985-.171c-.516 0-1.032-.25-1.36-.797-.297-.531-.297-1.25-.297-1.687 0-.469 0-1.11.281-1.64.329-.548.891-.798 1.36-.798.531 0 1.047.266 1.36.782.312.515.312 1.203.312 1.656 0 .437 0 1.078-.266 1.61a1.558 1.558 0 01-1.39.874zm0 0"/></symbol><symbol overflow="visible" id="v"><path d="M7.953-8.094H.656L.437-5.406h.297c.157-1.922.344-2.313 2.141-2.313.219 0 .531 0 .656.016.25.047.25.187.25.453v6.313c0 .406 0 .562-1.265.562h-.47V0c.485-.031 1.704-.031 2.25-.031.563 0 1.782 0 2.282.031v-.375h-.484c-1.25 0-1.25-.156-1.25-.563V-7.25c0-.234 0-.406.218-.453.125-.016.454-.016.672-.016 1.813 0 1.985.39 2.157 2.313h.296zm0 0"/></symbol><symbol overflow="visible" id="w"><path d="M7.094-.75c.156.266.625.734.765.734.094 0 .094-.093.094-.265V-2.36c0-.47.063-.532.828-.532v-.375a50.43 50.43 0 01-1.453.032c-.484 0-1.5 0-1.922-.032v.375h.375c1.078 0 1.11.125 1.11.579v.765c0 1.328-1.516 1.438-1.844 1.438-.781 0-3.14-.422-3.14-3.985 0-3.562 2.343-3.968 3.062-3.968 1.281 0 2.375 1.078 2.61 2.843.03.157.03.203.187.203.187 0 .187-.046.187-.296v-2.829c0-.203 0-.28-.125-.28-.047 0-.094 0-.187.14l-.594.875c-.39-.375-1.031-1.016-2.219-1.016-2.219 0-4.156 1.89-4.156 4.328 0 2.453 1.906 4.36 4.187 4.36.86 0 1.829-.313 2.235-1.016zm0 0"/></symbol><symbol overflow="visible" id="x"><path d="M2.656-4.375v-2.938c0-.39.016-.484.578-.484H4.72c1.156 0 1.578 1.016 1.578 1.656 0 .766-.578 1.766-1.906 1.766zm2.813.11c1.172-.235 1.984-1 1.984-1.876 0-1.046-1.094-2.015-2.64-2.015H.438v.36h.28c.923 0 .938.14.938.562v6.296c0 .438-.015.563-.937.563H.438V0h4.671c1.594 0 2.672-1.063 2.672-2.188 0-1.046-.984-1.937-2.312-2.078zm-.735 3.89h-1.5c-.562 0-.578-.078-.578-.469v-3.265h2.25C6.078-4.11 6.594-3 6.594-2.203c0 .86-.625 1.828-1.86 1.828zm0 0"/></symbol><symbol overflow="visible" id="y"><path d="M4.75-8.313c-.047-.156-.078-.25-.266-.25-.187 0-.234.079-.28.25L1.718-1.171c-.219.61-.688.797-1.344.797V0c.281-.016.797-.031 1.234-.031.36 0 .985.015 1.36.031v-.375c-.594 0-.89-.297-.89-.61 0-.03.015-.156.03-.171l.547-1.563H5.61L6.234-.89c.016.047.047.11.047.157 0 .359-.672.359-1 .359V0C5.72-.031 6.547-.031 7-.031c.516 0 1.063 0 1.578.031v-.375H8.36c-.718 0-.89-.078-1.015-.469zm-.625 1.329l1.344 3.89H2.78zm0 0"/></symbol><symbol overflow="visible" id="z"><path d="M1.313-4.11v3.204c0 .531-.125.531-.938.531V0a45.645 45.645 0 011.36-.031c.312 0 .937.015 1.343.031v-.375c-.812 0-.937 0-.937-.531V-3.11c0-1.235.843-1.907 1.609-1.907.75 0 .89.641.89 1.329v2.78c0 .532-.14.532-.937.532V0a45.645 45.645 0 011.36-.031c.296 0 .921.015 1.328.031v-.375c-.797 0-.922 0-.922-.531V-3.11c0-1.235.843-1.907 1.61-1.907.75 0 .874.641.874 1.329v2.78c0 .532-.125.532-.922.532V0a45.878 45.878 0 011.344-.031c.313 0 .938.015 1.344.031v-.375c-.625 0-.922 0-.938-.36v-2.28c0-1.032 0-1.391-.36-1.829-.171-.203-.562-.437-1.265-.437-1 0-1.531.718-1.734 1.172-.156-1.047-1.047-1.172-1.578-1.172-.875 0-1.438.515-1.781 1.25v-1.25l-1.688.125v.375c.844 0 .938.078.938.672zm0 0"/></symbol><symbol overflow="visible" id="A"><path d="M2.063-4.5v-.781l-1.735.125v.375c.86 0 .938.078.938.593v5.594c0 .547-.125.547-.938.547v.36c.406 0 1.031-.032 1.344-.032.328 0 .937.031 1.36.031v-.359c-.813 0-.938 0-.938-.547v-2.11c.062.188.562.829 1.469.829a2.697 2.697 0 002.671-2.703c0-1.516-1.171-2.703-2.5-2.703-.937 0-1.437.531-1.671.781zm.03 3.14V-4.03c.345-.61.938-.953 1.548-.953.859 0 1.593 1.046 1.593 2.406 0 1.437-.828 2.453-1.718 2.453-.485 0-.938-.25-1.25-.734-.172-.25-.172-.266-.172-.5zm0 0"/></symbol><symbol overflow="visible" id="B"><path d="M10.86-7c.218-.672.734-.797 1.203-.797v-.36c-.36.016-.735.032-1.094.032-.344 0-1.11-.031-1.422-.031v.36c.797.015 1.047.405 1.047.64 0 .062-.047.156-.063.234L8.734-1.406 6.828-7.25a.671.671 0 01-.031-.188c0-.359.687-.359 1-.359v-.36c-.438.032-1.25.032-1.703.032-.453 0-.969-.031-1.453-.031v.36c.671 0 .921 0 1.078.437l.25.828-1.657 5.125-1.921-5.875a.555.555 0 01-.032-.157c0-.359.704-.359 1.016-.359v-.36c-.438.032-1.25.032-1.703.032-.453 0-.969-.031-1.453-.031v.36c.89 0 .937.062 1.078.5L3.687.03c.047.11.079.235.235.235.172 0 .187-.094.234-.235l1.969-6.078L8.109.031c.047.11.079.235.235.235.172 0 .187-.094.234-.235zm0 0"/></symbol><symbol overflow="visible" id="C"><path d="M.422-8.156v.36h.281c.922 0 .953.14.953.562v6.296c0 .438-.031.563-.953.563H.422V0h4.375c2 0 3.656-1.766 3.656-4.016 0-2.265-1.61-4.14-3.656-4.14zM3.266-.375c-.563 0-.594-.078-.594-.469v-6.468c0-.391.031-.485.594-.485h1.187c.75 0 1.578.266 2.188 1.11.5.718.609 1.734.609 2.671 0 1.329-.219 2.047-.656 2.625-.235.329-.922 1.016-2.125 1.016zm0 0"/></symbol><symbol overflow="visible" id="D"><path d="M2.11-5.281l-1.672.125v.375c.78 0 .89.078.89.656v3.219c0 .531-.14.531-.937.531V0c.39-.016 1.03-.031 1.312-.031.422 0 .844.015 1.25.031v-.375c-.797 0-.844-.063-.844-.516zm.046-2.078A.62.62 0 001.531-8a.653.653 0 00-.64.64.64.64 0 00.64.626c.328 0 .625-.25.625-.625zm0 0"/></symbol><symbol overflow="visible" id="b"><path d="M2.656-4.422H4.61c.188 0 .485 0 .485-.36 0-.374-.282-.374-.485-.374H2.656v-.969c0-.234 0-.5-.406-.5-.422 0-.422.25-.422.5v.969H.781c-.187 0-.484 0-.484.375 0 .36.297.36.484.36h1.047V-1.5c0 1.14.813 1.578 1.688 1.578.89 0 1.843-.515 1.843-1.578 0-.219 0-.469-.406-.469s-.406.25-.406.453c-.016.735-.703.86-.969.86-.922 0-.922-.625-.922-.922zm0 0"/></symbol><symbol overflow="visible" id="F"><path d="M2.094-5.156v-1.375c0-1.063.578-1.625 1.094-1.625.046 0 .218 0 .39.078a.515.515 0 00-.344.5c0 .281.188.516.5.516.36 0 .532-.235.532-.532 0-.437-.438-.828-1.079-.828-.828 0-1.843.625-1.843 1.89v1.376H.39v.375h.953v3.875c0 .531-.14.531-.938.531V0a49.447 49.447 0 011.36-.031c.484 0 1.046 0 1.515.031v-.375h-.25c-.875 0-.906-.125-.906-.563V-4.78h1.36v-.375zm0 0"/></symbol><symbol overflow="visible" id="G"><path d="M4.953-4.016c.313-.75.922-.765 1.125-.765v-.375a8.801 8.801 0 01-.906.047c-.219 0-.766-.032-1.031-.047v.375c.359.015.562.218.562.515 0 .125-.016.141-.078.282L3.422-1.047 2.094-4.25c-.047-.125-.078-.172-.078-.219 0-.312.453-.312.671-.312v-.375c-.312.015-1.093.047-1.296.047-.329 0-.813-.016-1.157-.047v.375c.563 0 .797 0 .954.422L2.984 0c-.062.156-.218.547-.296.703-.266.656-.594 1.485-1.36 1.485-.062 0-.344 0-.562-.22.375-.046.468-.312.468-.5 0-.312-.234-.5-.5-.5-.25 0-.5.157-.5.516 0 .532.5.97 1.094.97.75 0 1.234-.688 1.531-1.36zm0 0"/></symbol><symbol overflow="visible" id="H"><path d="M6.953-3.078h-.297C6.531-1.86 6.36-.375 4.25-.375h-.969c-.562 0-.594-.078-.594-.469v-6.375c0-.406 0-.578 1.141-.578h.39v-.36c-.421.032-1.515.032-2 .032-.468 0-1.405 0-1.827-.031v.36h.296c.922 0 .938.14.938.562v6.296c0 .438-.016.563-.938.563H.392V0h6.234zm0 0"/></symbol><symbol overflow="visible" id="I"><path d="M4.672-.938V.125L6.39 0v-.375c-.829 0-.922-.078-.922-.672V-5.28l-1.766.125v.375c.844 0 .938.078.938.672v2.125c0 1.046-.579 1.859-1.454 1.859-1 0-1.046-.563-1.046-1.188V-5.28l-1.766.125v.375c.938 0 .938.031.938 1.093v1.797c0 .938 0 2.016 1.812 2.016.672 0 1.203-.328 1.547-1.063zm0 0"/></symbol><symbol overflow="visible" id="J"><path d="M4.547-.656v.781L6.297 0v-.375c-.828 0-.938-.078-.938-.672v-7.25l-1.718.14v.36c.843 0 .937.094.937.672v2.578c-.344-.422-.86-.734-1.5-.734C1.656-5.281.406-4.11.406-2.563.406-1.046 1.578.126 2.937.126c.766 0 1.313-.406 1.61-.781zm0-3.203v2.453c0 .218 0 .234-.14.437-.36.578-.891.844-1.407.844-.531 0-.969-.313-1.25-.766-.313-.5-.344-1.171-.344-1.671 0-.438.016-1.157.36-1.688.25-.375.703-.766 1.359-.766.406 0 .922.172 1.281.72.14.202.14.218.14.437zm0 0"/></symbol><symbol overflow="visible" id="K"><path d="M2.656-2.063C1.61-2.063 1.61-3.25 1.61-3.53c0-.313.016-.703.204-1 .093-.14.359-.485.843-.485 1.031 0 1.031 1.204 1.031 1.485 0 .312 0 .703-.187 1-.094.14-.375.469-.844.469zm-1.39.47c0-.048 0-.313.203-.563.468.344.953.375 1.187.375 1.11 0 1.938-.828 1.938-1.75 0-.438-.188-.875-.5-1.156.437-.407.86-.47 1.078-.47.031 0 .094 0 .125.016-.14.047-.188.188-.188.329 0 .203.157.343.344.343.11 0 .344-.078.344-.36 0-.202-.14-.593-.61-.593-.234 0-.765.078-1.265.563-.5-.391-1-.422-1.266-.422-1.11 0-1.937.828-1.937 1.75 0 .515.265.969.562 1.219-.156.187-.375.578-.375 1 0 .375.156.828.531 1.062C.72-.047.329.469.329.938c0 .875 1.188 1.53 2.64 1.53 1.423 0 2.657-.609 2.657-1.546 0-.422-.156-1.031-.766-1.36C4.22-.78 3.531-.78 2.797-.78h-.89c-.391-.063-.641-.422-.641-.813zm1.718 3.78c-1.203 0-2.03-.609-2.03-1.25 0-.546.452-.984.984-1.015h.703c1.03 0 2.375 0 2.375 1.016 0 .656-.86 1.25-2.032 1.25zm0 0"/></symbol><symbol overflow="visible" id="P"><path d="M8.219-3.906c.172 0 .406 0 .406-.235 0-.25-.234-.25-.406-.25H1.063c-.172 0-.391 0-.391.25 0 .235.219.235.406.235zm0 2.312c.172 0 .406 0 .406-.234s-.234-.234-.406-.234h-7.14c-.188 0-.407 0-.407.234s.219.234.39.234zm0 0"/></symbol><symbol overflow="visible" id="Q"><path d="M3.516-7.656c0-.282 0-.297-.282-.297-.734.75-1.78.75-2.171.75v.375c.234 0 .953 0 1.562-.313v6.204c0 .421-.031.562-1.11.562h-.374V0c.406-.031 1.453-.031 1.937-.031.469 0 1.516 0 1.938.031v-.375h-.391c-1.078 0-1.11-.125-1.11-.563zm0 0"/></symbol><symbol overflow="visible" id="R"><path d="M7.406-4.016c.203-.593.578-.75 1-.765v-.375c-.265.031-.61.047-.875.047-.343 0-.89-.032-1.11-.047v.375c.423.015.688.234.688.578 0 .062 0 .094-.062.25L5.969-.891 4.78-4.234c-.047-.141-.062-.172-.062-.22 0-.327.468-.327.703-.327v-.375c-.344.015-.953.047-1.234.047-.36 0-.704-.016-1.063-.047v.375c.438 0 .625.031.75.172.063.078.188.437.266.671L3.125-1.046 1.985-4.25c-.063-.14-.063-.156-.063-.203 0-.328.469-.328.703-.328v-.375c-.36.015-1.016.047-1.297.047-.047 0-.687-.016-1.11-.047v.375c.595 0 .735.031.876.422L2.609-.125c.063.156.094.25.25.25.157 0 .172-.063.235-.234l1.203-3.375 1.219 3.39c.046.125.093.219.25.219.156 0 .187-.094.234-.219zm0 0"/></symbol><symbol overflow="visible" id="Y"><path d="M1.406-2.61c0-1.937.969-2.453 1.61-2.453.109 0 .859.016 1.28.454-.5.03-.562.39-.562.546 0 .313.204.547.547.547.313 0 .547-.203.547-.562 0-.813-.906-1.281-1.828-1.281C1.5-5.36.406-4.063.406-2.58.406-1.046 1.594.126 2.97.126c1.61 0 1.984-1.422 1.984-1.547s-.11-.125-.14-.125c-.11 0-.141.047-.157.125-.36 1.11-1.125 1.25-1.578 1.25-.625 0-1.672-.516-1.672-2.437zm0 0"/></symbol><symbol overflow="visible" id="Z"><path d="M4.172-4.64L2.64-5.017A1.548 1.548 0 011.437-6.53c0-.828.641-1.563 1.579-1.563 2 0 2.25 1.969 2.328 2.5.015.078.015.14.14.14.157 0 .157-.062.157-.28v-2.407c0-.203 0-.28-.125-.28-.094 0-.094 0-.188.155l-.422.672c-.36-.343-.843-.828-1.906-.828A2.3 2.3 0 00.672-6.109c0 1 .625 1.859 1.562 2.187.125.047.735.188 1.579.39.328.095.687.173 1.015.61.25.313.375.703.375 1.11 0 .843-.594 1.703-1.61 1.703-.343 0-1.25-.063-1.89-.641C1.016-1.406.984-2.156.97-2.594c-.016-.125-.11-.125-.14-.125-.157 0-.157.094-.157.297v2.39c0 .204 0 .298.125.298C.89.266.89.234.984.109c0-.015.032-.046.422-.687.375.406 1.14.844 2.203.844 1.407 0 2.36-1.172 2.36-2.485 0-1.203-.797-2.187-1.797-2.422zm0 0"/></symbol><symbol overflow="visible" id="aa"><path d="M4.656-4.797c.11-.125.11-.156.11-.203 0-.156-.094-.156-.313-.156H.641L.5-3.234h.297c.078-1.22.297-1.657 1.625-1.657h1.36L.436-.375c-.109.125-.109.14-.109.203C.328 0 .422 0 .641 0h3.953l.203-2.234H4.5C4.39-.828 4.14-.297 2.75-.297H1.344zm0 0"/></symbol><symbol overflow="visible" id="ab"><path d="M3.953 2.875c0-.047 0-.063-.203-.266-1.484-1.515-1.875-3.765-1.875-5.593 0-2.079.453-4.157 1.922-5.657.156-.14.156-.171.156-.203 0-.078-.047-.125-.11-.125-.124 0-1.202.813-1.905 2.328-.61 1.329-.75 2.641-.75 3.657 0 .921.125 2.375.78 3.718.72 1.485 1.75 2.25 1.876 2.25.062 0 .11-.03.11-.109zm0 0"/></symbol><symbol overflow="visible" id="ac"><path d="M2.672-4.219v-3.093c0-.282 0-.422.265-.454.126-.03.47-.03.704-.03 1.078 0 2.421.046 2.421 1.78 0 .829-.296 1.797-2.062 1.797zm2.531.157c1.156-.282 2.094-1.016 2.094-1.954 0-1.14-1.375-2.14-3.125-2.14H.422v.36h.281c.922 0 .953.14.953.562v6.296c0 .438-.031.563-.953.563H.422V0c.422-.031 1.281-.031 1.734-.031.469 0 1.328 0 1.75.031v-.375h-.281c-.922 0-.953-.125-.953-.563v-3.015h1.375c.203 0 .703 0 1.11.406.468.422.468.797.468 1.594 0 .781 0 1.266.484 1.719.485.421 1.141.5 1.5.5.938 0 1.141-.985 1.141-1.313 0-.078 0-.203-.156-.203-.125 0-.125.11-.14.188C8.374-.22 7.953 0 7.655 0c-.578 0-.672-.61-.843-1.719l-.157-.953c-.218-.765-.797-1.172-1.453-1.39zm0 0"/></symbol><symbol overflow="visible" id="ad"><path d="M3.453-2.984c0-.938-.125-2.375-.781-3.735-.719-1.468-1.75-2.25-1.875-2.25-.063 0-.11.047-.11.125 0 .031 0 .063.22.266 1.171 1.187 1.859 3.094 1.859 5.594 0 2.046-.454 4.14-1.922 5.656-.156.14-.156.156-.156.203 0 .063.046.11.109.11.125 0 1.203-.813 1.906-2.329.61-1.312.75-2.64.75-3.64zm0 0"/></symbol><symbol overflow="visible" id="ae"><path d="M4.969-3.984c.11-.266.312-.782 1.11-.797v-.375a8.801 8.801 0 01-.907.047c-.281 0-.828-.032-1.031-.047v.375c.437.015.562.281.562.515 0 .11-.016.157-.062.282L3.42-.938 2.079-4.265c-.062-.156-.062-.187-.062-.203 0-.312.453-.312.671-.312v-.375c-.359.015-1.03.047-1.296.047-.329 0-.813-.016-1.157-.047v.375c.75 0 .797.078.954.437l1.718 4.25c.063.172.094.219.25.219s.203-.094.25-.219zm0 0"/></symbol><symbol overflow="visible" id="L"><path d="M1.906-8.531c0-.219 0-.438-.25-.438-.234 0-.234.219-.234.438V2.563c0 .203 0 .421.234.421.25 0 .25-.218.25-.421zm0 0"/></symbol><symbol overflow="visible" id="M"><path d="M9.922-7.703c0-.563-.922-.469-1.297-.469h-4.5c-.594 0-1.656.344-1.86.985.032.078.047.093.126.093.265 0 .625-.218.78-.406.376 0 .735-.016 1.11-.016h.735l-.047.22A27.676 27.676 0 013.28-2.079c-.078.156-.719 1.64-.89 1.797-.532 0-.922-.297-1.141-.766-.031-.062-.031-.11-.11-.11-.28 0-.937.376-.937.579 0 .031.016.047.031.078.203.563.75.875 1.329.875.609 0 1.312-.438 1.703-.875.39-.453 1.187-2.422 1.484-3.14h2.313c-.016.015-.016.03-.016.046 0 .047.062.078.11.078.265 0 .952-.328.952-.703 0-.078-.093-.078-.234-.078h-2.86c.298-1.062.704-2.125.923-3.219h1.578c.296 0 1.14-.062 1.359.204.016.062-.016.187.016.25a.222.222 0 00.093.03c.297 0 .938-.359.938-.671zm0 0"/></symbol><symbol overflow="visible" id="N"><path d="M8.063-2.719c.14-.062.234-.125.234-.265 0-.141-.094-.204-.235-.266L1.454-6.375c-.156-.078-.187-.078-.219-.078-.14 0-.25.11-.25.234 0 .11.063.188.235.266L7.5-2.984 1.219-.031C1.047.062.984.125.984.234c0 .141.11.25.25.25.032 0 .063 0 .22-.093zm0 0"/></symbol><symbol overflow="visible" id="O"><path d="M1.047-.703c-.031.172-.11.453-.11.515 0 .22.172.313.36.313a.48.48 0 00.437-.328c.016-.031.157-.578.22-.89l.265-1.063c.078-.266.14-.531.203-.813.047-.203.14-.547.156-.594.188-.374.813-1.453 1.953-1.453.532 0 .64.438.64.829 0 .296-.077.64-.171 1l-.344 1.374-.234.922c-.047.235-.156.641-.156.704 0 .218.171.312.343.312.375 0 .454-.297.547-.672.157-.672.61-2.422.719-2.89.031-.141.656-1.579 1.969-1.579.515 0 .64.407.64.829 0 .687-.5 2.046-.734 2.687-.11.281-.156.406-.156.656 0 .563.422.969.984.969 1.11 0 1.563-1.734 1.563-1.828 0-.125-.11-.125-.141-.125-.125 0-.125.031-.188.219-.171.625-.562 1.484-1.218 1.484-.203 0-.281-.125-.281-.406 0-.297.109-.578.203-.844C8.75-2 9.25-3.328 9.25-4c0-.781-.469-1.281-1.375-1.281-.89 0-1.5.531-1.953 1.156 0-.156-.047-.563-.375-.844-.297-.25-.688-.312-.984-.312-1.079 0-1.657.765-1.86 1.031-.062-.672-.562-1.031-1.094-1.031-.562 0-.78.468-.89.672C.5-4.188.344-3.484.344-3.438c0 .11.125.11.14.11.125 0 .141 0 .204-.266.203-.86.453-1.422.875-1.422.187 0 .375.094.375.547 0 .25-.032.375-.188 1zm0 0"/></symbol><symbol overflow="visible" id="T"><path d="M4.61-7.453H7.703v-.766H.437v.766H3.53V0H4.61zm0 0"/></symbol><symbol overflow="visible" id="U"><path d="M6.953-1.36c-.703.47-1.11.72-2.297.72-1.718 0-2.797-1.797-2.797-3.516 0-1.625 1-3.5 2.829-3.5.843 0 1.39.203 2.046.61l.157-.97c-.5-.25-1.422-.406-2.188-.406-2.219 0-3.922 1.86-3.922 4.375C.781-2.157 2.22.125 4.703.125c1.094 0 1.547-.188 2.328-.656zm0 0"/></symbol><symbol overflow="visible" id="V"><path d="M8.11-4.125c0-2.516-1.72-4.438-3.704-4.438C2.36-8.563.672-6.609.672-4.125c0 2.531 1.765 4.39 3.719 4.39 2 0 3.718-1.874 3.718-4.39zM4.405-.515c-1.422 0-2.672-1.5-2.672-3.782 0-2.187 1.313-3.5 2.657-3.5 1.375 0 2.656 1.36 2.656 3.5 0 2.328-1.281 3.781-2.64 3.781zm0 0"/></symbol><symbol overflow="visible" id="W"><path d="M2.625-8.297H1.141V0h.937v-7.453h.016c.219.5.734 1.516.797 1.64L5.828 0h1.469v-8.297h-.922v7.453h-.016c-.234-.5-.734-1.515-.796-1.64zm0 0"/></symbol><symbol overflow="visible" id="X"><path d="M7.172-3.578H4.656v.75h1.578v1.937a4.905 4.905 0 01-1.578.25C3.078-.64 1.86-2.219 1.86-4.156c0-1.875 1.204-3.5 2.782-3.5.968 0 1.64.281 2.25.781l.171-.984c-.671-.407-1.593-.579-2.39-.579-2.313 0-3.89 2.094-3.89 4.282 0 2.172 1.593 4.281 3.89 4.281.89 0 1.703-.234 2.5-.578zm0 0"/></symbol><symbol overflow="visible" id="af"><path d="M-2.313-2.484c.047-.266.235-1.25 1.094-1.25.61 0 1.094.421 1.094 1.359 0 1-.688 1.438-1.703 1.656-.156.031-.203.047-.203.172 0 .156.078.156.297.156h1.578c.203 0 .281 0 .281-.14 0-.047 0-.063-.234-.297-.016-.016-.047-.016-.266-.235.5-.53.5-1.062.5-1.312 0-1.375-.797-1.922-1.656-1.922-.625 0-.985.36-1.14.5-.376.39-.47.86-.563 1.36-.141.671-.297 1.468-.985 1.468-.422 0-.906-.312-.906-1.344 0-1.312 1.078-1.374 1.438-1.39.109-.016.109-.125.109-.14C-3.578-4-3.641-4-3.86-4h-1.204c-.203 0-.296 0-.296.125 0 .063 0 .078.14.234.063.047.157.157.203.204-.343.468-.343.953-.343 1.124 0 1.47.812 1.922 1.468 1.922.422 0 .766-.187 1.016-.515.313-.39.39-.719.563-1.578zm0 0"/></symbol><symbol overflow="visible" id="ag"><path d="M-.938-4.672H.125L0-6.39h-.375c0 .829-.078.922-.672.922H-5.28l.125 1.766h.375c0-.844.078-.938.672-.938h2.125c1.046 0 1.859.579 1.859 1.454 0 1-.563 1.046-1.188 1.046H-5.28l.125 1.766h.375c0-.938.031-.938 1.093-.938h1.797c.938 0 2.016 0 2.016-1.812 0-.672-.328-1.203-1.063-1.547zm0 0"/></symbol><symbol overflow="visible" id="ah"><path d="M-2.61-1.406c-1.937 0-2.453-.969-2.453-1.61 0-.109.016-.859.454-1.28.03.5.39.562.546.562.313 0 .547-.204.547-.547 0-.313-.203-.547-.562-.547-.813 0-1.281.906-1.281 1.828 0 1.5 1.296 2.594 2.78 2.594C-1.046-.406.126-1.594.126-2.97c0-1.61-1.422-1.984-1.547-1.984s-.125.11-.125.14c0 .11.047.141.125.157 1.11.36 1.25 1.125 1.25 1.578 0 .625-.516 1.672-2.437 1.672zm0 0"/></symbol><symbol overflow="visible" id="ai"><path d="M-3.016-1.344c-1.78-.062-2.078-1.078-2.078-1.484 0-1.219 1.61-1.344 2.078-1.344zm.25.016v-3.328c0-.266 0-.297-.25-.297-1.187 0-2.343.64-2.343 2.125 0 1.39 1.234 2.5 2.734 2.5 1.594 0 2.75-1.266 2.75-2.64 0-1.454-1.313-1.985-1.547-1.985-.125 0-.14.094-.14.14 0 .11.062.141.156.157 1.234.422 1.234 1.5 1.234 1.625 0 .594-.36 1.078-.797 1.344-.578.359-1.36.359-1.797.359zm0 0"/></symbol><clipPath id="S"><path d="M401 9h49.637v37H401zm0 0"/></clipPath></defs><path d="M3.984 4.797v80.45a3.4 3.4 0 003.403 3.398h270.297a3.403 3.403 0 013.402 3.402v78.27a3.403 3.403 0 003.402 3.402h126.313a3.403 3.403 0 003.402-3.403V61.176a3.402 3.402 0 00-3.402-3.399h-21.406a3.4 3.4 0 01-3.399-3.402V4.797a3.403 3.403 0 00-3.402-3.402H7.387a3.403 3.403 0 00-3.403 3.402zm0 0" fill="#b2b2ff" fill-opacity=".3"/><use xlink:href="#a" x="11.61" y="12.923"/><use xlink:href="#b" x="17.886" y="12.923"/><use xlink:href="#a" x="24.163" y="12.923"/><use xlink:href="#c" x="30.439" y="12.923"/><use xlink:href="#b" x="36.716" y="12.923"/><use xlink:href="#d" x="42.992" y="12.923"/><use xlink:href="#e" x="49.269" y="12.923"/><use xlink:href="#f" x="55.545" y="12.923"/><path d="M91.457 231.547h322.746a3.403 3.403 0 003.402-3.402v-139.5a3.402 3.402 0 00-3.402-3.399H287.887a3.398 3.398 0 00-3.399 3.399v77.757a3.403 3.403 0 01-3.402 3.403H91.457a3.402 3.402 0 00-3.398 3.402v54.938a3.402 3.402 0 003.398 3.402zm0 0" fill="#e8b2c9" fill-opacity=".3"/><use xlink:href="#g" x="300.701" y="227.733"/><use xlink:href="#h" x="306.977" y="227.733"/><use xlink:href="#b" x="313.254" y="227.733"/><use xlink:href="#f" x="319.53" y="227.733"/><use xlink:href="#i" x="325.807" y="227.733"/><use xlink:href="#c" x="332.083" y="227.733"/><use xlink:href="#b" x="338.359" y="227.733"/><use xlink:href="#d" x="344.636" y="227.733"/><use xlink:href="#e" x="350.912" y="227.733"/><use xlink:href="#f" x="357.189" y="227.733"/><use xlink:href="#j" x="363.464" y="227.733"/><use xlink:href="#f" x="369.443" y="227.733"/><use xlink:href="#k" x="375.719" y="227.733"/><use xlink:href="#b" x="381.996" y="227.733"/><use xlink:href="#l" x="388.272" y="227.733"/><use xlink:href="#m" x="394.549" y="227.733"/><use xlink:href="#a" x="400.825" y="227.733"/><use xlink:href="#b" x="407.101" y="227.733"/><path d="M10.316 81.684h58.036V45.816H10.316zm0 0" fill="gray" fill-opacity=".5"/><path d="M7.746 79.11h58.031V43.245H7.747zm0 0" fill="#fff" stroke-width=".7175999999999999" stroke="#000" stroke-miterlimit="10"/><use xlink:href="#n" x="13.798" y="58.155"/><use xlink:href="#o" x="18.447" y="58.155"/><use xlink:href="#p" x="23.13" y="58.155"/><use xlink:href="#q" x="29.107" y="58.155"/><use xlink:href="#r" x="35.75" y="58.155"/><use xlink:href="#s" x="40.465" y="58.155"/><use xlink:href="#p" x="43.786" y="58.155"/><use xlink:href="#n" x="49.763" y="58.155"/><use xlink:href="#t" x="54.413" y="58.155"/><use xlink:href="#n" x="11.73" y="72.501"/><use xlink:href="#u" x="16.379" y="72.501"/><use xlink:href="#v" x="26.338" y="72.501"/><use xlink:href="#w" x="34.972" y="72.501"/><use xlink:href="#x" x="44.353" y="72.501"/><use xlink:href="#y" x="52.821" y="72.501"/><path d="M80.973 85.758h49.812V41.742H80.973zm0 0" fill="gray" fill-opacity=".5"/><path d="M78.398 83.184h49.817V39.168H78.398zm0 0" fill="#fff" stroke-width=".7175999999999999" stroke="#000" stroke-miterlimit="10"/><use xlink:href="#p" x="82.385" y="50.507"/><use xlink:href="#n" x="88.362" y="50.507"/><use xlink:href="#n" x="93.012" y="50.507"/><use xlink:href="#t" x="97.661" y="50.507"/><use xlink:href="#z" x="102.974" y="50.507"/><use xlink:href="#A" x="112.936" y="50.507"/><use xlink:href="#n" x="119.578" y="50.507"/><use xlink:href="#B" x="83.879" y="64.853"/><use xlink:href="#C" x="96.166" y="64.853"/><use xlink:href="#x" x="105.299" y="64.853"/><use xlink:href="#y" x="113.767" y="64.853"/><use xlink:href="#z" x="85.042" y="79.2"/><use xlink:href="#D" x="95.004" y="79.2"/><use xlink:href="#q" x="98.325" y="79.2"/><use xlink:href="#D" x="104.967" y="79.2"/><use xlink:href="#z" x="108.288" y="79.2"/><use xlink:href="#E" x="118.251" y="79.2"/><path d="M66.137 61.176h9.25" fill="none" stroke-width=".7175999999999999" stroke="#000" stroke-miterlimit="10"/><path d="M76.488 61.176c-1.375-.274-2.75-.824-4.402-1.785 1.652 1.238 1.652 2.336 0 3.574 1.652-.961 3.027-1.512 4.402-1.79zm0 0" stroke-width=".7175999999999999" stroke-linejoin="round" stroke="#000" stroke-miterlimit="10"/><path d="M150.215 81.684h49.215V45.816h-49.215zm0 0" fill="gray" fill-opacity=".5"/><path d="M147.64 79.11h49.215V43.245h-49.214zm0 0" fill="#fff" stroke-width=".7175999999999999" stroke="#000" stroke-miterlimit="10"/><use xlink:href="#r" x="151.622" y="58.155"/><use xlink:href="#D" x="156.337" y="58.155"/><use xlink:href="#z" x="159.659" y="58.155"/><use xlink:href="#A" x="169.621" y="58.155"/><use xlink:href="#s" x="176.263" y="58.155"/><use xlink:href="#D" x="179.584" y="58.155"/><use xlink:href="#F" x="182.905" y="58.155"/><use xlink:href="#G" x="186.559" y="58.155"/><use xlink:href="#v" x="154.52" y="72.501"/><use xlink:href="#w" x="163.154" y="72.501"/><use xlink:href="#x" x="172.536" y="72.501"/><use xlink:href="#y" x="181.003" y="72.501"/><path d="M128.57 61.176h16.055" fill="none" stroke-width=".7175999999999999" stroke="#000" stroke-miterlimit="10"/><path d="M145.727 61.176c-1.375-.274-2.75-.824-4.399-1.785 1.649 1.238 1.649 2.336 0 3.574 1.649-.961 3.024-1.512 4.399-1.79zm0 0" stroke-width=".7175999999999999" stroke-linejoin="round" stroke="#000" stroke-miterlimit="10"/><use xlink:href="#F" x="129.788" y="56.834"/><use xlink:href="#p" x="133.442" y="56.834"/><use xlink:href="#D" x="139.419" y="56.834"/><use xlink:href="#s" x="142.741" y="56.834"/><path d="M57.285 112.145h-41.05a3.402 3.402 0 00-3.403 3.398v29.066a3.4 3.4 0 003.402 3.399h41.051a3.4 3.4 0 003.403-3.399v-29.066a3.402 3.402 0 00-3.403-3.398zm0 0" fill="#fffccc"/><use xlink:href="#H" x="25.47" y="126.987"/><use xlink:href="#v" x="31.95" y="126.987"/><use xlink:href="#H" x="40.584" y="126.987"/><use xlink:href="#F" x="16.819" y="141.333"/><use xlink:href="#u" x="20.473" y="141.333"/><use xlink:href="#o" x="26.45" y="141.333"/><use xlink:href="#z" x="31.133" y="141.333"/><use xlink:href="#I" x="40.761" y="141.333"/><use xlink:href="#s" x="47.403" y="141.333"/><use xlink:href="#p" x="50.724" y="141.333"/><path d="M36.762 111.785v-29.66" fill="none" stroke-width=".7175999999999999" stroke="#000" stroke-miterlimit="10"/><path d="M36.762 81.023c-.278 1.375-.824 2.75-1.79 4.399 1.239-1.649 2.34-1.649 3.575 0-.961-1.649-1.512-3.024-1.785-4.399zm0 0" stroke-width=".7175999999999999" stroke-linejoin="round" stroke="#000" stroke-miterlimit="10"/><path d="M222.258 54.473h48.648V18.605h-48.648zm0 0" fill="gray" fill-opacity=".5"/><path d="M219.684 51.898h48.648V16.031h-48.648zm0 0" fill="#fff" stroke-width=".7175999999999999" stroke="#000" stroke-miterlimit="10"/><use xlink:href="#J" x="229.061" y="30.942"/><use xlink:href="#t" x="235.703" y="30.942"/><use xlink:href="#K" x="241.016" y="30.942"/><use xlink:href="#t" x="246.993" y="30.942"/><use xlink:href="#q" x="252.306" y="30.942"/><use xlink:href="#n" x="223.664" y="45.288"/><use xlink:href="#u" x="228.314" y="45.288"/><use xlink:href="#v" x="238.272" y="45.288"/><use xlink:href="#x" x="246.906" y="45.288"/><use xlink:href="#y" x="255.374" y="45.288"/><path d="M197.215 61.176h6.8V33.965h12.653" fill="none" stroke-width=".7175999999999999" stroke="#000" stroke-miterlimit="10"/><path d="M217.77 33.965c-1.375-.274-2.75-.824-4.399-1.79 1.649 1.24 1.649 2.34 0 3.575 1.649-.96 3.024-1.512 4.399-1.785zm0 0" stroke-width=".7175999999999999" stroke-linejoin="round" stroke="#000" stroke-miterlimit="10"/><use xlink:href="#q" x="159.818" y="12.286"/><use xlink:href="#u" x="166.461" y="12.286"/><use xlink:href="#q" x="172.438" y="12.286"/><use xlink:href="#J" x="179.08" y="12.286"/><use xlink:href="#t" x="185.723" y="12.286"/><use xlink:href="#n" x="191.036" y="12.286"/><use xlink:href="#E" x="195.685" y="12.286"/><use xlink:href="#u" x="204.314" y="12.286"/><use xlink:href="#o" x="210.292" y="12.286"/><use xlink:href="#L" x="150.202" y="26.632"/><use xlink:href="#M" x="153.523" y="26.632"/><use xlink:href="#L" x="163.298" y="26.632"/><use xlink:href="#N" x="169.944" y="26.632"/><use xlink:href="#O" x="182.566" y="26.632"/><use xlink:href="#P" x="196.381" y="26.632"/><use xlink:href="#Q" x="209.003" y="26.632"/><path d="M197.215 61.176h84.129" fill="none" stroke-width=".7175999999999999" stroke="#000" stroke-miterlimit="10"/><path d="M282.445 61.176c-1.375-.274-2.75-.824-4.398-1.785 1.648 1.238 1.648 2.336 0 3.574 1.648-.961 3.023-1.512 4.398-1.79zm0 0" stroke-width=".7175999999999999" stroke-linejoin="round" stroke="#000" stroke-miterlimit="10"/><use xlink:href="#t" x="208.358" y="73.822"/><use xlink:href="#s" x="213.671" y="73.822"/><use xlink:href="#r" x="216.992" y="73.822"/><use xlink:href="#t" x="221.707" y="73.822"/><path d="M268.691 33.965h6.805v24.558" fill="none" stroke-width=".7175999999999999" stroke="#000" stroke-miterlimit="10"/><path d="M275.496 59.625c.274-1.375.824-2.75 1.785-4.402-1.234 1.652-2.336 1.652-3.574 0 .965 1.652 1.512 3.027 1.79 4.402zm0 0" stroke-width=".7175999999999999" stroke-linejoin="round" stroke="#000" stroke-miterlimit="10"/><path d="M320.223 58.547h57.78V14.53h-57.78zm0 0" fill="gray" fill-opacity=".5"/><path d="M317.648 55.973h57.782V11.957h-57.782zm0 0" fill="#fff" stroke-width=".7175999999999999" stroke="#000" stroke-miterlimit="10"/><use xlink:href="#p" x="325.614" y="23.295"/><use xlink:href="#n" x="331.592" y="23.295"/><use xlink:href="#n" x="336.241" y="23.295"/><use xlink:href="#t" x="340.89" y="23.295"/><use xlink:href="#z" x="346.203" y="23.295"/><use xlink:href="#A" x="356.165" y="23.295"/><use xlink:href="#n" x="362.808" y="23.295"/><use xlink:href="#A" x="323.737" y="37.641"/><use xlink:href="#u" x="330.714" y="37.641"/><use xlink:href="#R" x="336.357" y="37.641"/><use xlink:href="#t" x="344.656" y="37.641"/><use xlink:href="#o" x="349.969" y="37.641"/><use xlink:href="#r" x="354.652" y="37.641"/><use xlink:href="#t" x="359.367" y="37.641"/><use xlink:href="#n" x="364.68" y="37.641"/><use xlink:href="#n" x="321.629" y="51.987"/><use xlink:href="#u" x="326.278" y="51.987"/><use xlink:href="#C" x="336.237" y="51.987"/><use xlink:href="#v" x="345.369" y="51.987"/><use xlink:href="#x" x="354.003" y="51.987"/><use xlink:href="#y" x="362.471" y="51.987"/><path d="M284 61.176V33.965h30.637" fill="none" stroke-width=".7175999999999999" stroke="#000" stroke-miterlimit="10"/><path d="M315.734 33.965c-1.375-.274-2.75-.824-4.398-1.79 1.648 1.24 1.648 2.34 0 3.575 1.648-.96 3.023-1.512 4.398-1.785zm0 0" stroke-width=".7175999999999999" stroke-linejoin="round" stroke="#000" stroke-miterlimit="10"/><g><use xlink:href="#q" x="273.756" y="29.621"/><use xlink:href="#u" x="280.398" y="29.621"/><use xlink:href="#q" x="286.376" y="29.621"/><use xlink:href="#J" x="293.018" y="29.621"/><use xlink:href="#t" x="299.66" y="29.621"/><use xlink:href="#n" x="304.973" y="29.621"/><use xlink:href="#E" x="309.623" y="29.621"/></g><g clip-path="url(#S)"><path d="M447.242 9.227h-42.18a3.403 3.403 0 00-3.402 3.402V41.69a3.403 3.403 0 003.402 3.403h42.18a3.403 3.403 0 003.403-3.403V12.63a3.403 3.403 0 00-3.403-3.402zm0 0" fill="#fcc"/></g><g><use xlink:href="#q" x="410.539" y="23.98"/><use xlink:href="#u" x="417.181" y="23.98"/><use xlink:href="#n" x="423.159" y="23.98"/></g><g><use xlink:href="#D" x="431.789" y="23.98"/><use xlink:href="#q" x="435.111" y="23.98"/></g><g><use xlink:href="#T" x="405.641" y="38.327"/><use xlink:href="#U" x="413.777" y="38.327"/><use xlink:href="#V" x="421.416" y="38.327"/><use xlink:href="#W" x="430.216" y="38.327"/><use xlink:href="#X" x="438.684" y="38.327"/></g><path d="M375.79 33.965h22.858" fill="none" stroke-width=".7175999999999999" stroke="#000" stroke-miterlimit="10"/><path d="M399.746 33.965c-1.375-.274-2.75-.824-4.398-1.79 1.648 1.24 1.648 2.34 0 3.575 1.648-.96 3.023-1.512 4.398-1.785zm0 0" stroke-width=".7175999999999999" stroke-linejoin="round" stroke="#000" stroke-miterlimit="10"/><g><use xlink:href="#F" x="380.682" y="29.621"/><use xlink:href="#p" x="384.335" y="29.621"/><use xlink:href="#D" x="390.313" y="29.621"/><use xlink:href="#s" x="393.634" y="29.621"/></g><path d="M284 61.176h124.148" fill="none" stroke-width=".7175999999999999" stroke="#000" stroke-miterlimit="10"/><path d="M409.25 61.176c-1.375-.274-2.75-.824-4.402-1.785 1.652 1.238 1.652 2.336 0 3.574 1.652-.961 3.027-1.512 4.402-1.79zm0 0" stroke-width=".7175999999999999" stroke-linejoin="round" stroke="#000" stroke-miterlimit="10"/><g><use xlink:href="#J" x="288.34" y="73.822"/><use xlink:href="#t" x="294.982" y="73.822"/><use xlink:href="#n" x="300.295" y="73.822"/><use xlink:href="#E" x="304.944" y="73.822"/></g><path d="M382.594 33.965v24.558" fill="none" stroke-width=".7175999999999999" stroke="#000" stroke-miterlimit="10"/><path d="M382.594 59.625c.273-1.375.824-2.75 1.785-4.402-1.234 1.652-2.336 1.652-3.574 0 .965 1.652 1.511 3.027 1.789 4.402zm0 0" stroke-width=".7175999999999999" stroke-linejoin="round" stroke="#000" stroke-miterlimit="10"/><g><use xlink:href="#r" x="386.932" y="52.866"/><use xlink:href="#I" x="391.647" y="52.866"/><use xlink:href="#Y" x="398.289" y="52.866"/><use xlink:href="#Y" x="403.602" y="52.866"/><use xlink:href="#t" x="408.915" y="52.866"/><use xlink:href="#r" x="414.228" y="52.866"/><use xlink:href="#r" x="418.943" y="52.866"/></g><path d="M295.262 130.848h76.379V94.98h-76.38zm0 0" fill="gray" fill-opacity=".5"/><path d="M292.688 128.273h76.378V92.406h-76.378zm0 0" fill="#fff" stroke-width=".7175999999999999" stroke="#000" stroke-miterlimit="10"/><g><use xlink:href="#C" x="299.658" y="107.25"/><use xlink:href="#v" x="308.791" y="107.25"/><use xlink:href="#x" x="317.425" y="107.25"/><use xlink:href="#y" x="325.892" y="107.25"/></g><g><use xlink:href="#Z" x="338.84" y="107.25"/><use xlink:href="#y" x="345.482" y="107.25"/></g><g><use xlink:href="#v" x="353.456" y="107.25"/></g><g><use xlink:href="#z" x="296.669" y="121.596"/><use xlink:href="#D" x="306.631" y="121.596"/><use xlink:href="#q" x="309.952" y="121.596"/><use xlink:href="#D" x="316.594" y="121.596"/><use xlink:href="#z" x="319.916" y="121.596"/><use xlink:href="#D" x="329.878" y="121.596"/><use xlink:href="#aa" x="333.199" y="121.596"/><use xlink:href="#p" x="338.512" y="121.596"/><use xlink:href="#n" x="344.489" y="121.596"/><use xlink:href="#D" x="349.139" y="121.596"/><use xlink:href="#u" x="352.46" y="121.596"/><use xlink:href="#q" x="358.437" y="121.596"/></g><path d="M293.559 169.129h79.785v-35.863h-79.785zm0 0" fill="gray" fill-opacity=".5"/><path d="M290.984 166.559h79.786V130.69h-79.786zm0 0" fill="#fff" stroke-width=".7175999999999999" stroke="#000" stroke-miterlimit="10"/><g><use xlink:href="#C" x="294.967" y="145.534"/><use xlink:href="#v" x="304.1" y="145.534"/><use xlink:href="#w" x="312.734" y="145.534"/><use xlink:href="#x" x="322.115" y="145.534"/><use xlink:href="#y" x="330.583" y="145.534"/></g><g><use xlink:href="#Z" x="343.53" y="145.534"/><use xlink:href="#y" x="350.172" y="145.534"/></g><g><use xlink:href="#v" x="358.146" y="145.534"/></g><g><use xlink:href="#z" x="296.669" y="159.88"/><use xlink:href="#D" x="306.631" y="159.88"/><use xlink:href="#q" x="309.952" y="159.88"/><use xlink:href="#D" x="316.594" y="159.88"/><use xlink:href="#z" x="319.916" y="159.88"/><use xlink:href="#D" x="329.878" y="159.88"/><use xlink:href="#aa" x="333.199" y="159.88"/><use xlink:href="#p" x="338.512" y="159.88"/><use xlink:href="#n" x="344.489" y="159.88"/><use xlink:href="#D" x="349.139" y="159.88"/><use xlink:href="#u" x="352.46" y="159.88"/><use xlink:href="#q" x="358.437" y="159.88"/></g><path d="M410.8 61.176v49.164h-38.718" fill="none" stroke-width=".7175999999999999" stroke="#000" stroke-miterlimit="10"/><path d="M370.98 110.34c1.375.273 2.75.824 4.399 1.789-1.649-1.238-1.649-2.34 0-3.578-1.649.965-3.024 1.515-4.399 1.789zm0 0" stroke-width=".7175999999999999" stroke-linejoin="round" stroke="#000" stroke-miterlimit="10"/><g><use xlink:href="#O" x="374.04" y="105.995"/></g><g><use xlink:href="#P" x="387.858" y="105.995"/></g><g><use xlink:href="#Q" x="400.48" y="105.995"/></g><path d="M410.8 61.176v87.449h-37.019" fill="none" stroke-width=".7175999999999999" stroke="#000" stroke-miterlimit="10"/><path d="M372.684 148.625c1.375.273 2.75.824 4.398 1.785-1.648-1.238-1.648-2.336 0-3.574-1.648.965-3.023 1.512-4.398 1.789zm0 0" stroke-width=".7175999999999999" stroke-linejoin="round" stroke="#000" stroke-miterlimit="10"/><g><use xlink:href="#O" x="374.04" y="143.812"/></g><g><use xlink:href="#N" x="387.86" y="143.812"/></g><g><use xlink:href="#Q" x="400.477" y="143.812"/></g><path d="M268.156 130.691h-45.75a3.4 3.4 0 00-3.398 3.403v29.062a3.4 3.4 0 003.398 3.403h45.75a3.403 3.403 0 003.403-3.403v-29.062a3.403 3.403 0 00-3.403-3.403zm0 0" fill="#cfc"/><g><use xlink:href="#z" x="224.027" y="145.6"/><use xlink:href="#D" x="233.989" y="145.6"/><use xlink:href="#q" x="237.31" y="145.6"/><use xlink:href="#D" x="243.952" y="145.6"/><use xlink:href="#z" x="247.274" y="145.6"/><use xlink:href="#p" x="257.236" y="145.6"/><use xlink:href="#s" x="263.213" y="145.6"/></g><g><use xlink:href="#C" x="222.989" y="159.946"/><use xlink:href="#v" x="232.121" y="159.946"/><use xlink:href="#w" x="240.755" y="159.946"/><use xlink:href="#x" x="250.136" y="159.946"/><use xlink:href="#y" x="258.604" y="159.946"/></g><path d="M267.121 92.406h-43.676a3.403 3.403 0 00-3.402 3.403v29.062a3.403 3.403 0 003.402 3.402h43.676a3.4 3.4 0 003.399-3.402V95.81a3.4 3.4 0 00-3.399-3.403zm0 0" fill="#cfc"/><g><use xlink:href="#z" x="224.027" y="107.316"/><use xlink:href="#D" x="233.989" y="107.316"/><use xlink:href="#q" x="237.31" y="107.316"/><use xlink:href="#D" x="243.952" y="107.316"/><use xlink:href="#z" x="247.274" y="107.316"/><use xlink:href="#p" x="257.236" y="107.316"/><use xlink:href="#s" x="263.213" y="107.316"/></g><g><use xlink:href="#C" x="227.68" y="121.662"/><use xlink:href="#v" x="236.812" y="121.662"/><use xlink:href="#x" x="245.446" y="121.662"/><use xlink:href="#y" x="253.914" y="121.662"/></g><path d="M214.223 92.406H170.55a3.403 3.403 0 00-3.403 3.403v29.062a3.403 3.403 0 003.403 3.402h43.672a3.403 3.403 0 003.402-3.402V95.81a3.403 3.403 0 00-3.402-3.403zm0 0" fill="#cfc"/><g><use xlink:href="#z" x="171.132" y="107.316"/><use xlink:href="#D" x="181.094" y="107.316"/><use xlink:href="#q" x="184.415" y="107.316"/><use xlink:href="#D" x="191.058" y="107.316"/><use xlink:href="#z" x="194.379" y="107.316"/><use xlink:href="#p" x="204.341" y="107.316"/><use xlink:href="#s" x="210.318" y="107.316"/></g><g><use xlink:href="#B" x="172.958" y="121.662"/><use xlink:href="#C" x="185.246" y="121.662"/><use xlink:href="#x" x="194.378" y="121.662"/><use xlink:href="#y" x="202.846" y="121.662"/></g><path d="M103.305 83.543v26.797h60.832" fill="none" stroke-width=".7175999999999999" stroke="#000" stroke-miterlimit="10"/><path d="M165.234 110.34c-1.375-.274-2.75-.824-4.398-1.79 1.648 1.24 1.648 2.34 0 3.579 1.648-.965 3.023-1.516 4.398-1.79zm0 0" stroke-width=".7175999999999999" stroke-linejoin="round" stroke="#000" stroke-miterlimit="10"/><g><use xlink:href="#r" x="107.65" y="105.995"/><use xlink:href="#I" x="112.365" y="105.995"/><use xlink:href="#Y" x="119.007" y="105.995"/><use xlink:href="#Y" x="124.32" y="105.995"/><use xlink:href="#t" x="129.633" y="105.995"/><use xlink:href="#r" x="134.946" y="105.995"/><use xlink:href="#r" x="139.661" y="105.995"/></g><path d="M290.625 148.625H274.57" fill="none" stroke-width=".7175999999999999" stroke="#000" stroke-miterlimit="10"/><path d="M273.473 148.625c1.375.273 2.75.824 4.398 1.785-1.648-1.238-1.648-2.336 0-3.574-1.648.965-3.023 1.512-4.398 1.789zm0 0" stroke-width=".7175999999999999" stroke-linejoin="round" stroke="#000" stroke-miterlimit="10"/><path d="M292.328 110.34h-18.793" fill="none" stroke-width=".7175999999999999" stroke="#000" stroke-miterlimit="10"/><path d="M272.434 110.34c1.375.273 2.75.824 4.398 1.789-1.648-1.238-1.648-2.34 0-3.578-1.648.965-3.023 1.515-4.398 1.789zm0 0" stroke-width=".7175999999999999" stroke-linejoin="round" stroke="#000" stroke-miterlimit="10"/><path d="M10.508 216.078h64.457v-35.863H10.508zm0 0" fill="gray" fill-opacity=".5"/><path d="M7.934 213.508H72.39V177.64H7.934zm0 0" fill="#fff" stroke-width=".7175999999999999" stroke="#000" stroke-miterlimit="10"/><g><use xlink:href="#a" x="11.918" y="190.557"/><use xlink:href="#b" x="18.195" y="190.557"/><use xlink:href="#a" x="24.471" y="190.557"/><use xlink:href="#c" x="30.748" y="190.557"/><use xlink:href="#g" x="37.024" y="190.557"/><use xlink:href="#h" x="43.301" y="190.557"/><use xlink:href="#b" x="49.577" y="190.557"/><use xlink:href="#f" x="55.853" y="190.557"/><use xlink:href="#i" x="62.13" y="190.557"/></g><g><use xlink:href="#ab" x="22.063" y="204.903"/><use xlink:href="#C" x="26.713" y="204.903"/><use xlink:href="#ac" x="35.845" y="204.903"/><use xlink:href="#y" x="44.645" y="204.903"/><use xlink:href="#ad" x="53.612" y="204.903"/></g><path d="M36.762 148.367v26.262" fill="none" stroke-width=".7175999999999999" stroke="#000" stroke-miterlimit="10"/><path d="M36.762 175.727c.273-1.375.824-2.75 1.785-4.399-1.234 1.649-2.336 1.649-3.574 0 .965 1.649 1.511 3.024 1.789 4.399zm0 0" stroke-width=".7175999999999999" stroke-linejoin="round" stroke="#000" stroke-miterlimit="10"/><path d="M94.39 220.156h62.2v-44.015h-62.2zm0 0" fill="gray" fill-opacity=".5"/><path d="M91.816 217.582h62.204v-44.016H91.816zm0 0" fill="#fff" stroke-width=".7175999999999999" stroke="#000" stroke-miterlimit="10"/><g><use xlink:href="#p" x="101.995" y="184.901"/><use xlink:href="#n" x="107.973" y="184.901"/><use xlink:href="#n" x="112.622" y="184.901"/><use xlink:href="#t" x="117.271" y="184.901"/><use xlink:href="#z" x="122.584" y="184.901"/><use xlink:href="#A" x="132.547" y="184.901"/><use xlink:href="#n" x="139.189" y="184.901"/></g><g><use xlink:href="#Y" x="95.802" y="199.247"/><use xlink:href="#u" x="101.115" y="199.247"/><use xlink:href="#q" x="107.092" y="199.247"/></g><g><use xlink:href="#ae" x="113.4" y="199.247"/></g><g><use xlink:href="#t" x="119.375" y="199.247"/><use xlink:href="#o" x="124.688" y="199.247"/><use xlink:href="#r" x="129.371" y="199.247"/><use xlink:href="#D" x="134.086" y="199.247"/><use xlink:href="#u" x="137.407" y="199.247"/><use xlink:href="#q" x="143.385" y="199.247"/></g><g><use xlink:href="#n" x="102.328" y="213.594"/><use xlink:href="#u" x="106.977" y="213.594"/></g><g><use xlink:href="#C" x="116.936" y="213.594"/><use xlink:href="#x" x="126.068" y="213.594"/><use xlink:href="#y" x="134.536" y="213.594"/></g><path d="M72.75 195.574h16.055" fill="none" stroke-width=".7175999999999999" stroke="#000" stroke-miterlimit="10"/><path d="M89.906 195.574c-1.375-.277-2.75-.824-4.402-1.789 1.652 1.238 1.652 2.34 0 3.574 1.652-.96 3.027-1.511 4.402-1.785zm0 0" stroke-width=".7175999999999999" stroke-linejoin="round" stroke="#000" stroke-miterlimit="10"/><path d="M211.883 220.156h49.812v-44.015h-49.812zm0 0" fill="gray" fill-opacity=".5"/><path d="M209.309 217.582h49.812v-44.016H209.31zm0 0" fill="#fff" stroke-width=".7175999999999999" stroke="#000" stroke-miterlimit="10"/><g><use xlink:href="#p" x="213.293" y="184.901"/><use xlink:href="#n" x="219.27" y="184.901"/><use xlink:href="#n" x="223.92" y="184.901"/><use xlink:href="#t" x="228.569" y="184.901"/><use xlink:href="#z" x="233.882" y="184.901"/><use xlink:href="#A" x="243.844" y="184.901"/><use xlink:href="#n" x="250.486" y="184.901"/></g><g><use xlink:href="#B" x="214.787" y="199.247"/><use xlink:href="#C" x="227.074" y="199.247"/><use xlink:href="#x" x="236.207" y="199.247"/><use xlink:href="#y" x="244.675" y="199.247"/></g><g><use xlink:href="#z" x="215.95" y="213.594"/><use xlink:href="#D" x="225.912" y="213.594"/><use xlink:href="#q" x="229.233" y="213.594"/><use xlink:href="#D" x="235.875" y="213.594"/><use xlink:href="#z" x="239.196" y="213.594"/><use xlink:href="#E" x="249.159" y="213.594"/></g><path d="M305.035 216.078h88.367v-35.863h-88.367zm0 0" fill="gray" fill-opacity=".5"/><path d="M302.46 213.508h88.368V177.64h-88.367zm0 0" fill="#fff" stroke-width=".7175999999999999" stroke="#000" stroke-miterlimit="10"/><g><use xlink:href="#r" x="318.679" y="192.549"/><use xlink:href="#D" x="323.394" y="192.549"/><use xlink:href="#z" x="326.715" y="192.549"/><use xlink:href="#A" x="336.678" y="192.549"/><use xlink:href="#s" x="343.32" y="192.549"/><use xlink:href="#D" x="346.641" y="192.549"/><use xlink:href="#F" x="349.962" y="192.549"/><use xlink:href="#G" x="353.616" y="192.549"/></g><g><use xlink:href="#p" x="363.907" y="192.549"/><use xlink:href="#r" x="369.884" y="192.549"/></g><g><use xlink:href="#C" x="306.442" y="206.895"/><use xlink:href="#x" x="315.574" y="206.895"/><use xlink:href="#y" x="324.042" y="206.895"/></g><g><use xlink:href="#u" x="336.989" y="206.895"/><use xlink:href="#o" x="342.967" y="206.895"/></g><g><use xlink:href="#C" x="351.643" y="206.895"/><use xlink:href="#v" x="360.775" y="206.895"/><use xlink:href="#x" x="369.409" y="206.895"/><use xlink:href="#y" x="377.877" y="206.895"/></g><path d="M154.375 195.574h51.922" fill="none" stroke-width=".7175999999999999" stroke="#000" stroke-miterlimit="10"/><path d="M207.398 195.574c-1.375-.277-2.75-.824-4.402-1.789 1.652 1.238 1.652 2.34 0 3.574 1.652-.96 3.027-1.511 4.402-1.785zm0 0" stroke-width=".7175999999999999" stroke-linejoin="round" stroke="#000" stroke-miterlimit="10"/><g><use xlink:href="#r" x="158.718" y="205.061"/><use xlink:href="#I" x="163.433" y="205.061"/><use xlink:href="#Y" x="170.075" y="205.061"/><use xlink:href="#Y" x="175.388" y="205.061"/><use xlink:href="#t" x="180.701" y="205.061"/><use xlink:href="#r" x="186.014" y="205.061"/><use xlink:href="#r" x="190.729" y="205.061"/></g><path d="M259.48 195.574h39.965" fill="none" stroke-width=".7175999999999999" stroke="#000" stroke-miterlimit="10"/><path d="M300.547 195.574c-1.375-.277-2.75-.824-4.399-1.789 1.649 1.238 1.649 2.34 0 3.574 1.649-.96 3.024-1.511 4.399-1.785zm0 0" stroke-width=".7175999999999999" stroke-linejoin="round" stroke="#000" stroke-miterlimit="10"/><g><use xlink:href="#F" x="263.822" y="208.216"/><use xlink:href="#p" x="267.476" y="208.216"/><use xlink:href="#D" x="273.453" y="208.216"/><use xlink:href="#s" x="276.775" y="208.216"/></g><path d="M391.187 195.574h16.961" fill="none" stroke-width=".7175999999999999" stroke="#000" stroke-miterlimit="10"/><path d="M409.25 195.574c-1.375-.277-2.75-.824-4.402-1.789 1.652 1.238 1.652 2.34 0 3.574 1.652-.96 3.027-1.511 4.402-1.785zm0 0" stroke-width=".7175999999999999" stroke-linejoin="round" stroke="#000" stroke-miterlimit="10"/><path d="M410.8 195.574V62.375" fill="none" stroke-width=".7175999999999999" stroke="#000" stroke-miterlimit="10"/><path d="M150.45 112.145H95.386a3.402 3.402 0 00-3.403 3.398v29.066a3.4 3.4 0 003.403 3.399h55.062a3.4 3.4 0 003.403-3.399v-29.066a3.402 3.402 0 00-3.403-3.398zm0 0" fill="#fcc"/><g><use xlink:href="#q" x="109.301" y="126.579"/><use xlink:href="#u" x="115.943" y="126.579"/><use xlink:href="#n" x="121.921" y="126.579"/></g><g><use xlink:href="#p" x="130.551" y="126.579"/></g><g><use xlink:href="#o" x="95.968" y="140.925"/><use xlink:href="#t" x="100.65" y="140.925"/><use xlink:href="#Y" x="105.963" y="140.925"/><use xlink:href="#I" x="111.276" y="140.925"/><use xlink:href="#o" x="117.918" y="140.925"/><use xlink:href="#o" x="122.601" y="140.925"/><use xlink:href="#t" x="127.284" y="140.925"/><use xlink:href="#q" x="132.597" y="140.925"/><use xlink:href="#Y" x="139.239" y="140.925"/><use xlink:href="#t" x="144.552" y="140.925"/></g><path d="M122.918 173.207v-22.184" fill="none" stroke-width=".7175999999999999" stroke="#000" stroke-miterlimit="10"/><path d="M122.918 149.922c-.277 1.375-.824 2.75-1.79 4.398 1.24-1.648 2.34-1.648 3.575 0-.96-1.648-1.512-3.023-1.785-4.398zm0 0" stroke-width=".7175999999999999" stroke-linejoin="round" stroke="#000" stroke-miterlimit="10"/><g><use xlink:href="#F" x="127.26" y="164.937"/><use xlink:href="#p" x="130.913" y="164.937"/><use xlink:href="#D" x="136.891" y="164.937"/><use xlink:href="#s" x="140.212" y="164.937"/></g><path d="M208.95 186.379h-16.563v-55.094" fill="none" stroke-width=".7175999999999999" stroke="#000" stroke-miterlimit="10"/><path d="M192.387 130.188c-.274 1.37-.824 2.746-1.785 4.398 1.234-1.652 2.335-1.652 3.574 0-.965-1.652-1.512-3.027-1.79-4.399zm0 0" stroke-width=".7175999999999999" stroke-linejoin="round" stroke="#000" stroke-miterlimit="10"/><g><use xlink:href="#af" x="201.876" y="182.032"/><use xlink:href="#ag" x="201.876" y="177.317"/><use xlink:href="#ah" x="201.876" y="170.675"/><use xlink:href="#ah" x="201.876" y="165.362"/><use xlink:href="#ai" x="201.876" y="160.049"/><use xlink:href="#af" x="201.876" y="154.736"/><use xlink:href="#af" x="201.876" y="150.021"/></g></svg>