<?xml-stylesheet href="spot.css" type="text/css"?><svg xmlns="http://www.w3.org/2000/svg" xmlns:xlink="http://www.w3.org/1999/xlink" width="77.48" height="77.48" viewBox="0 0 58.11 58.11" class="spotlogo"><defs><symbol overflow="visible" id="a"><path d="M.64-.844c-.093.094-.093.11-.093.281v.079c0 .359.11.484.484.484h3.422c.375 0 .469-.125.469-.484v-.11c0-.156 0-.36-.203-.437-.078-.047-.39-.047-.594-.047-.219 0-.453.016-.672.016H1.828l1.328-1.25c.14-.126.516-.438.672-.579.547-.53 1.094-1.062 1.094-1.953 0-1.218-.875-2.297-2.344-2.297-.344 0-.906.047-1.39.438-.094.078-.547.437-.735 1.094l.5.64c.063.078.094.125.156.125.094 0 .11-.078.141-.187.203-.688.547-1.11 1.188-1.11.765 0 1.093.704 1.093 1.313 0 .64-.375 1.312-.984 1.953zm0 0"/></symbol></defs><g class="spotlogobg"><path d="M43.227 43.227V14.883l14.175 14.172zm0 0" fill="#f466ba"/><path d="M43.227 43.227V14.883l14.175 14.172zm0 0" fill="none" stroke-width="1.417" stroke="#f580c5" stroke-miterlimit="10"/><path d="M29.055.707L.707 29.055l28.348 28.347 14.172-14.175V14.883zm0 0" fill="#00adef"/><path d="M29.055.707L.707 29.055l28.348 28.347 14.172-14.175V14.883zm0 0" fill="none" stroke-width="1.417" stroke="#4dc6f4" stroke-miterlimit="10"/></g><path d="M34.844 29.055c0-3.2-2.59-5.79-5.79-5.79-3.199 0-5.788 2.59-5.788 5.79 0 3.199 2.59 5.789 5.789 5.789s5.789-2.59 5.789-5.79zm0 0" fill="#fff200"/><path d="M34.844 29.055c0-3.2-2.59-5.79-5.79-5.79-3.199 0-5.788 2.59-5.788 5.79 0 3.199 2.59 5.789 5.789 5.789s5.789-2.59 5.789-5.79zm0 0" fill="none" stroke-width="2.835" stroke="#000" stroke-miterlimit="10"/><path d="M39.555 13.09A11.308 11.308 0 0033 6.875c-5.887-2.14-12.39.89-14.535 6.777a11.355 11.355 0 001.969 11.168 11.345 11.345 0 008.687 4.047c6.262 0 11.34 5.078 11.34 11.34s-5.078 11.34-11.34 11.34-11.34-5.078-11.34-11.34" fill="none" stroke-width="5.669" stroke-linecap="round" stroke="#000" stroke-miterlimit="10"/><path d="M40.219 19.867c1.39-3.156 1.824-6.855 1.164-10.75a18.701 18.701 0 01-1.547 4.7 14.718 14.718 0 00-4.277-.708c2.05 1.453 3.707 3.758 4.66 6.758zm0 0" stroke-width="3.205" stroke-linecap="round" stroke-linejoin="round" stroke="#000" stroke-miterlimit="10"/><path d="M39.57 13.125A11.313 11.313 0 0033 6.875c-5.887-2.14-12.39.89-14.535 6.777a11.355 11.355 0 001.969 11.168 11.345 11.345 0 008.687 4.047c6.262 0 11.34 5.078 11.34 11.34s-5.078 11.34-11.34 11.34-11.34-5.078-11.34-11.34" fill="none" stroke-width="2.835" stroke-linecap="round" stroke="#fff200" stroke-miterlimit="10"/><path d="M40.445 18.16c.758-2.437.977-5.117.614-7.906a18.358 18.358 0 01-1.278 3.414 15.052 15.052 0 00-3.23-.668c1.574 1.25 2.922 2.984 3.894 5.16zm0 0" fill="#fff200" stroke-width="2.392" stroke-linecap="round" stroke-linejoin="round" stroke="#fff200" stroke-miterlimit="10"/><path d="M34.844 29.055c0-3.2-2.59-5.79-5.79-5.79-3.199 0-5.788 2.59-5.788 5.79 0 3.199 2.59 5.789 5.789 5.789s5.789-2.59 5.789-5.79zm0 0" fill="#fff200"/><use xlink:href="#a" x="26.315" y="32.514"/></svg>