<?xml-stylesheet href="spot.css" type="text/css"?><svg width="244pt" height="113pt" viewBox="0 0 244 113.32" xmlns="http://www.w3.org/2000/svg"><g class="graph" transform="translate(4 109.324)"><path fill="#fff" stroke="transparent" d="M-4 4v-113.324h244V4H-4z"/><text x="115.5" y="-91.724" font-family="Lato" font-size="12">t</text><text x="108" y="-78.724" font-family="Lato" font-size="12">[all]</text><g class="node"><circle fill="#ffffa0" stroke="#000" cx="56" cy="-22.324" r="18"/><text text-anchor="middle" x="56" y="-19.224" font-family="Lato" font-size="12">0</text></g><g class="edge"><path fill="none" stroke="#000" d="M1.123-22.324h29.801"/><path stroke="#000" d="M37.98-22.324l-7-3.15 3.5 3.15h-3.5 3.5l-3.5 3.15 7-3.15h0z"/></g><g class="edge"><path fill="none" stroke="#000" d="M49.62-39.362c-1.301-9.82.825-18.962 6.38-18.962 4.166 0 6.404 5.142 6.713 11.856"/><path stroke="#000" d="M62.38-39.362l3.474-6.844-3.31 3.348.164-3.496h0l-.165 3.496-2.982-3.644 2.818 7.14h0z"/><text x="45.5" y="-61.724" font-family="Lato" font-size="12">!red</text></g><g class="node"><circle fill="#ffffa0" stroke="#000" cx="201" cy="-22.324" r="18"/><text text-anchor="middle" x="201" y="-19.224" font-family="Lato" font-size="12">1</text></g><g class="edge"><path fill="none" stroke="#000" d="M74.071-22.324h101.281"/><path stroke="#000" d="M182.701-22.324l-7-3.15 3.5 3.15h-3.5 3.5l-3.5 3.15 7-3.15h0z"/><text x="119.5" y="-25.724" font-family="Lato" font-size="12">red</text></g><g class="edge"><path fill="none" stroke="#000" d="M185.415-13.125c-6.144 3.127-13.4 6.228-20.415 7.8-31.658 7.1-41.342 7.1-73 0-4.713-1.056-9.535-2.802-14.055-4.783"/><path stroke="#000" d="M71.585-13.125l4.974 5.846-1.812-4.346 3.162 1.5h0l-3.162-1.5 4.513-1.346-7.675-.154h0z"/><text x="92" y="-8.724" font-family="Lato" font-size="12">!red &amp; !yellow</text></g><g class="edge"><path fill="none" stroke="#000" d="M189.244-36.366c-4.397-10.87-.478-21.958 11.756-21.958 9.558 0 14.04 6.767 13.448 14.911"/><path stroke="#000" d="M212.756-36.366l4.697-6.071-3.88 2.668.817-3.404h0l-.816 3.404-2.247-4.139 1.43 7.542h0z"/><text x="166" y="-61.724" font-family="Lato" font-size="12">red &amp; !yellow</text></g></g></svg>