<?xml-stylesheet href="spot.css" type="text/css"?><svg width="499pt" height="244pt" viewBox="0 0 499 244.4" xmlns="http://www.w3.org/2000/svg"><g class="graph" transform="translate(4 240.4)"><path fill="#fff" stroke="transparent" d="M-4 4v-244.4h499V4H-4z"/><text x="226.5" y="-209.8" font-family="Lato" font-size="12">[Büchi]</text><g class="node"><circle fill="#ffffa0" stroke="#000" cx="56" cy="-103" r="18"/><text text-anchor="middle" x="56" y="-99.9" font-family="Lato" font-size="12">3</text></g><g class="edge"><path fill="none" stroke="#000" d="M1.123-103h29.801"/><path stroke="#000" d="M37.98-103l-7-3.15 3.5 3.15h-3.5 3.5l-3.5 3.15 7-3.15h0z"/></g><g class="edge"><path fill="none" stroke="#000" d="M49.62-120.037C48.32-129.857 50.446-139 56-139c4.166 0 6.404 5.142 6.713 11.857"/><path stroke="#000" d="M62.38-120.037l3.474-6.845-3.31 3.349.164-3.497h0l-.165 3.496-2.982-3.643 2.818 7.14h0z"/><text x="10" y="-142.4" font-family="Lato" font-size="12">a &amp; alive &amp; !b &amp; !c</text></g><g class="node"><circle fill="#ffffa0" stroke="#000" cx="232" cy="-152" r="18"/><text text-anchor="middle" x="232" y="-148.9" font-family="Lato" font-size="12">1</text></g><g class="edge"><path fill="none" stroke="#000" d="M72.693-109.996c6.025-2.39 12.916-4.972 19.307-7.004 39.67-12.617 86.82-23.6 115.03-29.755"/><path stroke="#000" d="M214.12-148.287l-7.508-1.6 4.086 2.34-3.42.739h0l3.42-.74-2.756 3.819 6.177-4.558h0z"/><text x="102" y="-143.4" font-family="Lato" font-size="12">alive &amp; b &amp; !c</text></g><g class="node"><circle fill="#ffffa0" stroke="#000" cx="365" cy="-103" r="18"/><text text-anchor="middle" x="365" y="-99.9" font-family="Lato" font-size="12">2</text></g><g class="edge"><path fill="none" stroke="#000" d="M74.404-103h265.013"/><path stroke="#000" d="M346.692-103l-7-3.15 3.5 3.15h-3.5 3.5l-3.5 3.15 7-3.15h0z"/><text x="199" y="-106.4" font-family="Lato" font-size="12">alive &amp; b &amp; c</text></g><g class="node"><circle fill="#ffffa0" stroke="#000" cx="232" cy="-18" r="18"/><text text-anchor="middle" x="232" y="-14.9" font-family="Lato" font-size="12">4</text></g><g class="edge"><path fill="none" stroke="#000" d="M69.8-91.365C76.278-86.248 84.263-80.411 92-76c38.558 21.981 87.096 40.18 115.715 50.035"/><path stroke="#000" d="M214.544-23.642l-5.613-5.237 2.3 4.11-3.314-1.128h0l3.313 1.127-4.328 1.855 7.642-.727h0z"/><text x="92" y="-79.4" font-family="Lato" font-size="12">a &amp; alive &amp; !b &amp; c</text></g><g class="node"><circle fill="#ffffa0" stroke="#000" cx="469" cy="-103" r="18"/><circle fill="none" stroke="#000" cx="469" cy="-103" r="22"/><text text-anchor="middle" x="469" y="-99.9" font-family="Lato" font-size="12">0</text></g><g class="edge"><path fill="none" stroke="#000" d="M459.293-122.757C457.643-133.35 460.879-143 469-143c6.218 0 9.572 5.657 10.062 13.062"/><path stroke="#000" d="M478.707-122.757l3.492-6.837-3.319 3.34.173-3.495h0l-.173 3.496-2.973-3.651 2.8 7.147h0z"/><text x="455" y="-146.4" font-family="Lato" font-size="12">!alive</text></g><g class="edge"><path fill="none" stroke="#000" d="M220.076-165.667C215.306-176.657 219.281-188 232-188c9.936 0 14.536 6.924 13.799 15.193"/><path stroke="#000" d="M243.924-165.667l4.824-5.97-3.935 2.585.889-3.386h0l-.89 3.386-2.157-4.186 1.269 7.571h0z"/><text x="208" y="-191.4" font-family="Lato" font-size="12">alive &amp; !c</text></g><g class="edge"><path fill="none" stroke="#000" d="M249.218-145.931c19.43 6.88 51.953 18.501 79.782 28.931 4.023 1.508 8.287 3.138 12.419 4.734"/><path stroke="#000" d="M348.183-109.638l-5.384-5.471 2.122 4.203-3.263-1.267h0l3.263 1.267-4.403 1.67 7.665-.402h0z"/><text x="283.5" y="-136.4" font-family="Lato" font-size="12">alive &amp; c</text></g><g class="edge"><path fill="none" stroke="#000" d="M383.115-103h56.178"/><path stroke="#000" d="M446.753-103l-7-3.15 3.5 3.15h-3.5 3.5l-3.5 3.15 7-3.15h0z"/><text x="401" y="-106.4" font-family="Lato" font-size="12">!alive</text></g><g class="edge"><path fill="none" stroke="#000" d="M356.367-118.916C354.114-129.15 356.992-139 365-139c6.131 0 9.255 5.774 9.372 13.073"/><path stroke="#000" d="M373.633-118.916l3.866-6.632-3.499 3.151.366-3.48h0l-.366 3.48-2.766-3.81 2.4 7.291h0z"/><text x="352.5" y="-142.4" font-family="Lato" font-size="12">alive</text></g><g class="edge"><path fill="none" stroke="#000" d="M247.767-26.752C267.22-37.703 301.142-57.299 329-76c5.222-3.505 10.72-7.476 15.803-11.272"/><path stroke="#000" d="M350.538-91.611l-7.483 1.71 4.692.401-2.791 2.112h0l2.791-2.112-.891 4.624 3.683-6.735h0z"/><text x="283" y="-79.4" font-family="Lato" font-size="12">alive &amp; b</text></g><g class="edge"><path fill="none" stroke="#000" d="M220.076-31.667C215.306-42.657 219.281-54 232-54c9.936 0 14.536 6.924 13.799 15.193"/><path stroke="#000" d="M243.924-31.667l4.824-5.97-3.935 2.585.889-3.386h0l-.89 3.386-2.157-4.185 1.269 7.57h0z"/><text x="197.5" y="-57.4" font-family="Lato" font-size="12">a &amp; alive &amp; !b</text></g></g></svg>