<?xml-stylesheet href="spot.css" type="text/css"?><svg width="292pt" height="244pt" viewBox="0 0 292 244.4" xmlns="http://www.w3.org/2000/svg"><g class="graph"><path fill="#fff" stroke="transparent" d="M0 244.4V0h292v244.4H0z"/><text x="123" y="-209.8" font-family="Lato" font-size="12" transform="translate(4 240.4)">[Büchi]</text><g class="node" transform="translate(4 240.4)"><circle fill="#ffffa0" stroke="#000" cx="56" cy="-103" r="18"/><text text-anchor="middle" x="56" y="-99.9" font-family="Lato" font-size="12">1</text></g><g class="edge" transform="translate(4 240.4)"><path fill="none" stroke="#000" d="M1.123-103h29.801"/><path stroke="#000" d="M37.98-103l-7-3.15 3.5 3.15h-3.5 3.5l-3.5 3.15 7-3.15h0z"/></g><g class="edge" transform="translate(4 240.4)"><path fill="none" stroke="#000" d="M49.62-120.037C48.32-129.857 50.446-139 56-139c4.166 0 6.404 5.142 6.713 11.857"/><path stroke="#000" d="M62.38-120.037l3.474-6.845-3.31 3.349.164-3.497h0l-.165 3.496-2.982-3.643 2.818 7.14h0z"/><text x="29" y="-142.4" font-family="Lato" font-size="12">a &amp; !b &amp; !c</text></g><g class="node" transform="translate(4 240.4)"><circle fill="#ffffa0" stroke="#000" cx="179" cy="-152" r="18"/><text text-anchor="middle" x="179" y="-148.9" font-family="Lato" font-size="12">0</text></g><g class="edge" transform="translate(4 240.4)"><path fill="none" stroke="#000" d="M72.845-109.71l82.354-32.808"/><path stroke="#000" d="M161.964-145.213l-7.669-.336 4.418 1.631-3.252 1.295h0l3.251-1.295-2.085 4.222 5.337-5.517h0z"/><text x="102" y="-140.4" font-family="Lato" font-size="12">b &amp; !c</text></g><g class="node" transform="translate(4 240.4)"><circle fill="#ffffa0" stroke="#000" cx="262" cy="-103" r="18"/><circle fill="none" stroke="#000" cx="262" cy="-103" r="22"/><text text-anchor="middle" x="262" y="-99.9" font-family="Lato" font-size="12">3</text></g><g class="edge" transform="translate(4 240.4)"><path fill="none" stroke="#000" d="M74.281-103h158.36"/><path stroke="#000" d="M239.759-103l-7-3.15 3.5 3.15h-3.5 3.5l-3.5 3.15 7-3.15h0z"/><text x="165" y="-106.4" font-family="Lato" font-size="12">b &amp; c</text></g><g class="node" transform="translate(4 240.4)"><circle fill="#ffffa0" stroke="#000" cx="179" cy="-18" r="18"/><text text-anchor="middle" x="179" y="-14.9" font-family="Lato" font-size="12">2</text></g><g class="edge" transform="translate(4 240.4)"><path fill="none" stroke="#000" d="M70.577-91.78C77.073-86.852 84.857-81.053 92-76c22.04 15.594 47.838 32.646 65.586 44.198"/><path stroke="#000" d="M163.739-27.807l-4.156-6.454 1.22 4.548-2.935-1.906h0l2.935 1.906-4.65.736 7.586 1.17h0z"/><text x="92" y="-79.4" font-family="Lato" font-size="12">a &amp; !b &amp; c</text></g><g class="edge" transform="translate(4 240.4)"><path fill="none" stroke="#000" d="M172.266-169.037c-1.374-9.82.87-18.963 6.734-18.963 4.398 0 6.76 5.142 7.086 11.857"/><path stroke="#000" d="M185.734-169.037l3.492-6.836-3.32 3.34.174-3.496h0l-.173 3.496-2.973-3.652 2.8 7.148h0z"/><text x="174" y="-191.4" font-family="Lato" font-size="12">!c</text></g><g class="edge" transform="translate(4 240.4)"><path fill="none" stroke="#000" d="M194.612-142.784l42.258 24.948"/><path stroke="#000" d="M242.961-114.24l-4.426-6.271 1.412 4.492-3.014-1.78h0l3.014 1.78-4.615.933 7.63.846h0z"/><text x="215" y="-133.4" font-family="Lato" font-size="12">c</text></g><g class="edge" transform="translate(4 240.4)"><path fill="none" stroke="#000" d="M254.317-123.99C253.37-134.088 255.93-143 262-143c4.553 0 7.131 5.013 7.736 11.78"/><path stroke="#000" d="M269.683-123.99l3.201-6.977-3.175 3.476.026-3.5h0l-.026 3.5-3.124-3.523 3.098 7.023h0z"/><text text-anchor="middle" x="262" y="-146.4" font-family="Lato" font-size="12">1</text></g><g class="edge" transform="translate(4 240.4)"><path fill="none" stroke="#000" d="M191.606-30.91l49.761-50.96"/><path stroke="#000" d="M246.44-87.065l-7.144 2.808 4.699-.304-2.445 2.504h0l2.445-2.504-.192 4.705 2.637-7.21h0z"/><text x="215" y="-63.4" font-family="Lato" font-size="12">b</text></g><g class="edge" transform="translate(4 240.4)"><path fill="none" stroke="#000" d="M172.266-35.037C170.892-44.857 173.136-54 179-54c4.398 0 6.76 5.142 7.086 11.857"/><path stroke="#000" d="M185.734-35.037l3.492-6.836-3.32 3.34.174-3.496h0l-.173 3.496-2.973-3.652 2.8 7.148h0z"/><text x="163.5" y="-57.4" font-family="Lato" font-size="12">a &amp; !b</text></g></g></svg>