<?xml-stylesheet href="spot.css" type="text/css"?><svg width="274pt" height="116pt" viewBox="0 0 274 115.73" xmlns="http://www.w3.org/2000/svg"><g class="graph" transform="translate(4 111.731)"><path fill="#fff" stroke="transparent" d="M-4 4v-115.731h274V4H-4z"/><text x="130.5" y="-94.131" font-family="Lato" font-size="12">t</text><text x="123" y="-81.131" font-family="Lato" font-size="12">[all]</text><g class="node"><circle fill="#ffffa0" stroke="#000" cx="56" cy="-24.731" r="18"/><text text-anchor="middle" x="56" y="-21.631" font-family="Lato" font-size="12">1</text></g><g class="edge"><path fill="none" stroke="#000" d="M1.123-24.731h29.801"/><path stroke="#000" d="M37.98-24.731l-7-3.15 3.5 3.15h-3.5 3.5l-3.5 3.15 7-3.15h0z"/></g><g class="edge"><path fill="none" stroke="#000" d="M49.62-41.768c-1.301-9.821.825-18.963 6.38-18.963 4.166 0 6.404 5.142 6.713 11.857"/><path stroke="#000" d="M62.38-41.768l3.474-6.845-3.31 3.348.164-3.496h0l-.165 3.496-2.982-3.643 2.818 7.14h0z"/><text x="21" y="-64.131" font-family="Lato" font-size="12">green | !press</text></g><g class="node"><circle fill="#ffffa0" stroke="#000" cx="234" cy="-24.731" r="18"/><text text-anchor="middle" x="234" y="-21.631" font-family="Lato" font-size="12">0</text></g><g class="edge"><path fill="none" stroke="#000" d="M74.047-24.731h134.555"/><path stroke="#000" d="M215.905-24.731l-7-3.15 3.5 3.15h-3.5 3.5l-3.5 3.15 7-3.15h0z"/><text x="92" y="-28.131" font-family="Lato" font-size="12">!green &amp; press &amp; red</text></g><g class="edge"><path fill="none" stroke="#000" d="M218.415-15.532c-6.144 3.127-13.4 6.228-20.415 7.8-45.97 10.309-60.03 10.309-106 0-4.713-1.056-9.535-2.802-14.055-4.783"/><path stroke="#000" d="M71.585-15.532l4.974 5.846-1.812-4.346 3.162 1.5h0l-3.162-1.5 4.513-1.346-7.675-.154h0z"/><text x="130" y="-11.131" font-family="Lato" font-size="12">green</text></g><g class="edge"><path fill="none" stroke="#000" d="M220.658-36.903C213.74-48.333 218.188-60.73 234-60.73c12.724 0 18.089 8.028 16.095 17.12"/><path stroke="#000" d="M247.342-36.903l5.571-5.28-4.242 2.042 1.328-3.238h0l-1.328 3.238-1.586-4.434.257 7.672h0z"/><text x="202" y="-64.131" font-family="Lato" font-size="12">!green &amp; red</text></g></g></svg>