<?xml-stylesheet href="spot.css" type="text/css"?><svg width="211pt" height="205pt" viewBox="0 0 210.6 205" xmlns="http://www.w3.org/2000/svg"><g class="graph"><path fill="#fff" stroke="transparent" d="M0 205V0h210.6v205H0z"/><text x="82.3" y="-184.4" font-family="Lato" font-size="12" transform="translate(4 201)">Fin(</text><text x="102.3" y="-184.4" font-family="Lato" font-size="12" fill="#1f78b4" transform="translate(4 201)">⓿</text><text x="116.3" y="-184.4" font-family="Lato" font-size="12" transform="translate(4 201)">)</text><text x="73.8" y="-172.4" font-family="Lato" font-size="12" transform="translate(4 201)">[co-Büchi]</text><g class="node" transform="translate(4 201)"><circle fill="#ffffa0" stroke="#000" cx="39.8" cy="-88" r="1.8"/></g><g class="edge" transform="translate(4 201)"><path fill="none" stroke="#000" d="M1.182-88h29.673M30.99-90.45l7 2.45-7 2.45v-4.9z"/></g><g class="node" transform="translate(4 201)"><circle fill="#ffffa0" stroke="#000" cx="105.6" cy="-116" r="18"/><text text-anchor="middle" x="105.6" y="-112.9" font-family="Lato" font-size="12">0</text></g><g class="edge" transform="translate(4 201)"><path fill="none" stroke="#000" d="M41.533-89.52c3.3-2.827 10.808-8.925 18.067-12.48 6.635-3.25 14.18-5.926 21.212-8.036"/><path stroke="#000" d="M87.622-111.959l-7.593-1.13 4.225 2.081-3.369.951h0l3.369-.95-2.513 3.982 5.881-4.934h0z"/></g><g class="node" transform="translate(4 201)"><circle fill="#ffffa0" stroke="#000" cx="105.6" cy="-18" r="18"/><text text-anchor="middle" x="105.6" y="-14.9" font-family="Lato" font-size="12">1</text></g><g class="edge" transform="translate(4 201)"><path fill="none" stroke="#000" d="M41.174-86.538l46.948 49.945"/><path stroke="#000" d="M93.132-31.264l-2.5-7.258.102 4.708-2.397-2.55h0l2.397 2.55-4.692-.393 7.09 2.943h0z"/></g><g class="edge" transform="translate(4 201)"><path fill="none" stroke="#000" d="M93.77-101.965C87.37-95.471 78.88-88.445 69.6-85c-6.812 2.529-15.068 1.403-21.16-.141M47.425-82.892l-5.944-4.434 7.412-.241-1.468 4.675z"/><text x="59.6" y="-88.4" font-family="Lato" font-size="12">!a</text></g><g class="edge" transform="translate(4 201)"><path fill="none" stroke="#000" d="M98.866-133.037c-1.374-9.82.87-18.963 6.734-18.963 4.398 0 6.76 5.142 7.086 11.857"/><path stroke="#000" d="M112.334-133.037l3.492-6.836-3.32 3.34.174-3.496h0l-.173 3.496-2.973-3.652 2.8 7.148h0z"/><text x="102.1" y="-155.4" font-family="Lato" font-size="12">a</text></g><g class="edge" transform="translate(4 201)"><path fill="none" stroke="#000" d="M98.866-35.037C97.492-44.857 99.736-54 105.6-54c4.398 0 6.76 5.142 7.086 11.857"/><path stroke="#000" d="M112.334-35.037l3.492-6.836-3.32 3.34.174-3.496h0l-.173 3.496-2.973-3.652 2.8 7.148h0z"/><text x="100.6" y="-70.4" font-family="Lato" font-size="12">!a</text><text x="98.6" y="-57.4" font-family="Lato" font-size="12" fill="#1f78b4">⓿</text></g><g class="node" transform="translate(4 201)"><circle fill="#ffffa0" stroke="#000" cx="184.6" cy="-18" r="18"/><text text-anchor="middle" x="184.6" y="-14.9" font-family="Lato" font-size="12">2</text></g><g class="edge" transform="translate(4 201)"><path fill="none" stroke="#000" d="M123.923-18h35.226"/><path stroke="#000" d="M166.377-18l-7-3.15 3.5 3.15h-3.5 3.5l-3.5 3.15 7-3.15h0z"/><text x="141.6" y="-21.4" font-family="Lato" font-size="12">a</text></g><g class="edge" transform="translate(4 201)"><path fill="none" stroke="#000" d="M177.866-35.037c-1.374-9.82.87-18.963 6.734-18.963 4.398 0 6.76 5.142 7.086 11.857"/><path stroke="#000" d="M191.334-35.037l3.492-6.836-3.32 3.34.174-3.496h0l-.173 3.496-2.973-3.652 2.8 7.148h0z"/><text text-anchor="middle" x="184.6" y="-57.4" font-family="Lato" font-size="12">1</text></g></g></svg>