<?xml-stylesheet href="spot.css" type="text/css"?><svg width="347pt" height="260" viewBox="0 0 347 195.4" xmlns="http://www.w3.org/2000/svg"><g class="graph"><path fill="#fff" stroke="transparent" d="M0 195.4V0h347v195.4H0z"/><text x="150.5" y="-160.8" font-family="Lato" font-size="12" transform="translate(4 191.4)">[Büchi]</text><g class="node" transform="translate(4 191.4)"><circle fill="#ffffa0" stroke="#000" cx="56" cy="-60" r="18"/><text text-anchor="middle" x="56" y="-56.9" font-family="Lato" font-size="12">1</text></g><g class="edge" transform="translate(4 191.4)"><path fill="none" stroke="#000" d="M1.123-60h29.801"/><path stroke="#000" d="M37.98-60l-7-3.15 3.5 3.15h-3.5 3.5l-3.5 3.15 7-3.15h0z"/></g><g class="node" transform="translate(4 191.4)"><circle fill="#ffffa0" stroke="#000" cx="135" cy="-60" r="18"/><text text-anchor="middle" x="135" y="-56.9" font-family="Lato" font-size="12">2</text></g><g class="edge" transform="translate(4 191.4)"><path fill="none" stroke="#000" d="M74.323-60h35.227"/><path stroke="#000" d="M116.777-60l-7-3.15 3.5 3.15h-3.5 3.5l-3.5 3.15 7-3.15h0z"/><text text-anchor="middle" x="95.5" y="-63.4" font-family="Lato" font-size="12">1</text></g><g class="node" transform="translate(4 191.4)"><circle fill="#ffffa0" stroke="#000" cx="317" cy="-60" r="18"/><circle fill="none" stroke="#000" cx="317" cy="-60" r="22"/><text text-anchor="middle" x="317" y="-56.9" font-family="Lato" font-size="12">0</text></g><g class="edge" transform="translate(4 191.4)"><path fill="none" stroke="#000" d="M308.266-80.58C307.057-90.846 309.969-100 317-100c5.273 0 8.23 5.15 8.868 12.055"/><path stroke="#000" d="M325.734-80.58l3.277-6.942-3.213 3.442.063-3.5h0l-.063 3.5-3.086-3.557 3.022 7.056h0z"/><text text-anchor="middle" x="317" y="-103.4" font-family="Lato" font-size="12">1</text></g><g class="node" transform="translate(4 191.4)"><circle fill="#ffffa0" stroke="#000" cx="224" cy="-103" r="18"/><text text-anchor="middle" x="224" y="-99.9" font-family="Lato" font-size="12">3</text></g><g class="edge" transform="translate(4 191.4)"><path fill="none" stroke="#000" d="M151.324-67.887c14.051-6.789 34.47-16.653 50.088-24.2"/><path stroke="#000" d="M207.78-95.163l-7.674.209 4.522 1.313-3.151 1.523h0l3.151-1.523-1.781 4.36 4.933-5.882h0z"/><text x="171" y="-88.4" font-family="Lato" font-size="12">!p1</text></g><g class="node" transform="translate(4 191.4)"><circle fill="#ffffa0" stroke="#000" cx="224" cy="-18" r="18"/><text text-anchor="middle" x="224" y="-14.9" font-family="Lato" font-size="12">4</text></g><g class="edge" transform="translate(4 191.4)"><path fill="none" stroke="#000" d="M151.324-52.297l49.795 23.5"/><path stroke="#000" d="M207.478-25.797l-4.986-5.836 1.82 4.342-3.164-1.493h0l3.165 1.493-4.51 1.355 7.675.14h0z"/><text x="172.5" y="-45.4" font-family="Lato" font-size="12">p1</text></g><g class="edge" transform="translate(4 191.4)"><path fill="none" stroke="#000" d="M240.626-95.313l49.73 22.994"/><path stroke="#000" d="M296.958-69.267l-5.032-5.797 1.855 4.328-3.177-1.468h0l3.177 1.468-4.499 1.39 7.676.08h0z"/><text x="261.5" y="-88.4" font-family="Lato" font-size="12">p1</text></g><g class="edge" transform="translate(4 191.4)"><path fill="none" stroke="#000" d="M216.332-119.29c-1.849-10.1.707-19.71 7.668-19.71 5.22 0 7.964 5.406 8.229 12.37"/><path stroke="#000" d="M231.668-119.29l3.674-6.74-3.407 3.25.266-3.49h0l-.266 3.49-2.875-3.73 2.608 7.22h0z"/><text x="215.5" y="-142.4" font-family="Lato" font-size="12">!p1</text></g><g class="edge" transform="translate(4 191.4)"><path fill="none" stroke="#000" d="M240.626-25.509l49.412-22.314"/><path stroke="#000" d="M296.623-50.797l-7.676.01 4.486 1.43-3.19 1.44h0l3.19-1.44-1.893 4.312 5.083-5.752h0z"/><text x="260" y="-44.4" font-family="Lato" font-size="12">!p1</text></g><g class="edge" transform="translate(4 191.4)"><path fill="none" stroke="#000" d="M216.332-34.29C214.483-44.39 217.04-54 224-54c5.22 0 7.964 5.406 8.229 12.37"/><path stroke="#000" d="M231.668-34.29l3.674-6.74-3.407 3.25.266-3.49h0l-.266 3.49-2.875-3.73 2.608 7.22h0z"/><text x="217" y="-57.4" font-family="Lato" font-size="12">p1</text></g></g></svg>