<?xml-stylesheet href="spot.css" type="text/css"?><svg width="656" height="205pt" viewBox="0 0 492 205.27" xmlns="http://www.w3.org/2000/svg"><g class="graph" transform="translate(4 201.274)"><path fill="#fff" stroke="transparent" d="M-4 4v-205.274h492V4H-4z"/><text x="94.5" y="-184.673" font-family="Lato" font-size="12">(Fin(</text><text x="117.5" y="-184.673" font-family="Lato" font-size="12" fill="#1f78b4">⓿</text><text x="131.5" y="-184.673" font-family="Lato" font-size="12">) &amp; Inf(</text><text x="166.5" y="-184.673" font-family="Lato" font-size="12" fill="#ff4da0">❶</text><text x="180.5" y="-184.673" font-family="Lato" font-size="12">)) | (Fin(</text><text x="218.5" y="-184.673" font-family="Lato" font-size="12" fill="#ff7f00">❷</text><text x="232.5" y="-184.673" font-family="Lato" font-size="12">) &amp; Inf(</text><text x="267.5" y="-184.673" font-family="Lato" font-size="12" fill="#6a3d9a">❸</text><text x="281.5" y="-184.673" font-family="Lato" font-size="12">)) | (Fin(</text><text x="319.5" y="-184.673" font-family="Lato" font-size="12" fill="#33a02c">❹</text><text x="333.5" y="-184.673" font-family="Lato" font-size="12">) &amp; Inf(</text><text x="368.5" y="-184.673" font-family="Lato" font-size="12" fill="#e31a1c">❺</text><text x="382.5" y="-184.673" font-family="Lato" font-size="12">))</text><text x="218" y="-172.673" font-family="Lato" font-size="12">[Rabin 3]</text><g class="node"><path fill="#ffffa0" stroke="#000" d="M70-97.273H50c-6 0-12 6-12 12v12c0 6 6 12 12 12h20c6 0 12-6 12-12v-12c0-6-6-12-12-12"/><text x="56.5" y="-82.674" font-family="Lato" font-size="12">6</text><text x="46" y="-70.674" font-family="Lato" font-size="12" fill="#ff7f00">❷</text><text x="60" y="-70.674" font-family="Lato" font-size="12" fill="#33a02c">❹</text></g><g class="edge"><path fill="none" stroke="#000" d="M1.168-79.273h29.47"/><path stroke="#000" d="M37.865-79.273l-7-3.15 3.5 3.15h-3.5 3.5l-3.5 3.15 7-3.15h0z"/></g><g class="node"><path fill="#ffffa0" stroke="#000" d="M167-97.273h-20c-6 0-12 6-12 12v12c0 6 6 12 12 12h20c6 0 12-6 12-12v-12c0-6-6-12-12-12"/><text x="153.5" y="-82.674" font-family="Lato" font-size="12">5</text><text x="143" y="-70.674" font-family="Lato" font-size="12" fill="#ff7f00">❷</text><text x="157" y="-70.674" font-family="Lato" font-size="12" fill="#33a02c">❹</text></g><g class="edge"><path fill="none" stroke="#000" d="M82.01-79.273h45.369"/><path stroke="#000" d="M134.74-79.273l-7-3.15 3.5 3.15h-3.5 3.5l-3.5 3.15 7-3.15h0z"/><text x="100" y="-82.674" font-family="Lato" font-size="12">!p1</text></g><g class="edge"><path fill="none" stroke="#000" d="M82.335-67.925c5.626 2.335 11.75 4.447 17.665 5.651 9.273 1.89 19.211.247 28.15-2.64"/><path stroke="#000" d="M134.763-67.326l-7.655-.56 4.367 1.76-3.288 1.199h0l3.288-1.2-2.208 4.16 5.496-5.359h0z"/><text x="101.5" y="-65.674" font-family="Lato" font-size="12">p1</text></g><g class="node"><path fill="#ffffa0" stroke="#000" d="M361-165.274h-20c-6 0-12 6-12 12v12c0 6 6 12 12 12h20c6 0 12-6 12-12v-12c0-6-6-12-12-12"/><text x="347.5" y="-150.673" font-family="Lato" font-size="12">0</text><text x="337" y="-138.673" font-family="Lato" font-size="12" fill="#ff7f00">❷</text><text x="351" y="-138.673" font-family="Lato" font-size="12" fill="#e31a1c">❺</text></g><g class="node"><path fill="#ffffa0" stroke="#000" d="M264-130.274h-20c-6 0-12 6-12 12v12c0 6 6 12 12 12h20c6 0 12-6 12-12v-12c0-6-6-12-12-12"/><text x="250.5" y="-115.674" font-family="Lato" font-size="12">2</text><text x="240" y="-103.674" font-family="Lato" font-size="12" fill="#6a3d9a">❸</text><text x="254" y="-103.674" font-family="Lato" font-size="12" fill="#33a02c">❹</text></g><g class="edge"><path fill="none" stroke="#000" d="M328.606-138.78c-5.73 2.147-11.89 4.432-17.606 6.506a2738.506 2738.506 0 01-28.088 9.99"/><path stroke="#000" d="M276.236-119.952l7.647.665-4.343-1.82 3.304-1.153h0l-3.304 1.154 2.266-4.128-5.57 5.282h0z"/><text x="294" y="-135.673" font-family="Lato" font-size="12">!p1</text></g><g class="node"><path fill="#ffffa0" stroke="#000" d="M472-102.273h-34c-6 0-12 6-12 12v12c0 6 6 12 12 12h34c6 0 12-6 12-12v-12c0-6-6-12-12-12"/><text x="451.5" y="-87.674" font-family="Lato" font-size="12">4</text><text x="434" y="-75.674" font-family="Lato" font-size="12" fill="#ff4da0">❶</text><text x="448" y="-75.674" font-family="Lato" font-size="12" fill="#ff7f00">❷</text><text x="462" y="-75.674" font-family="Lato" font-size="12" fill="#33a02c">❹</text></g><g class="edge"><path fill="none" stroke="#000" d="M373.056-133.913l46.777 28.337"/><path stroke="#000" d="M425.866-101.922l-4.355-6.321 1.361 4.508-2.993-1.814h0l2.993 1.814-4.625.88 7.619.933h0z"/><text x="392.5" y="-124.674" font-family="Lato" font-size="12">p1</text></g><g class="edge"><path fill="none" stroke="#000" d="M271.08-130.545c6.557-5.803 14.502-11.537 22.92-14.729 8.694-3.296 18.678-4.443 27.837-4.575"/><path stroke="#000" d="M328.965-149.758l-6.959-3.239 3.46 3.195-3.5-.045h0l3.5.045-3.54 3.105 7.04-3.06h0z"/><text x="294" y="-151.673" font-family="Lato" font-size="12">!p1</text></g><g class="edge"><path fill="none" stroke="#000" d="M276.279-109.17l142.347 19.83"/><path stroke="#000" d="M425.812-88.34l-6.499-4.085 3.032 3.602-3.467-.482h0l3.467.483-3.901 2.636 7.368-2.154h0z"/><text x="344" y="-104.674" font-family="Lato" font-size="12">p1</text></g><g class="edge"><path fill="none" stroke="#000" d="M450.115-102.426c-.751-9.387.877-17.847 4.885-17.847 2.943 0 4.603 4.563 4.98 10.704"/><path stroke="#000" d="M459.885-102.426l3.243-6.958-3.197 3.458.047-3.5h0l-.047 3.5-3.103-3.542 3.057 7.042h0z"/><text x="446.5" y="-123.674" font-family="Lato" font-size="12">!p1</text></g><g class="edge"><path fill="none" stroke="#000" d="M446.813-102.531c-4.245-17.145-1.516-35.743 8.187-35.743 8.339 0 11.527 13.735 9.564 28.48"/><path stroke="#000" d="M463.187-102.531l4.399-6.29-3.747 2.851.652-3.439h0l-.652 3.44-2.443-4.026 1.791 7.464h0z"/><text x="448" y="-141.673" font-family="Lato" font-size="12">p1</text></g><g class="node"><path fill="#ffffa0" stroke="#000" d="M361-62.273h-20c-6 0-12 6-12 12v12c0 6 6 12 12 12h20c6 0 12-6 12-12v-12c0-6-6-12-12-12"/><text x="347.5" y="-47.673" font-family="Lato" font-size="12">1</text><text x="337" y="-35.673" font-family="Lato" font-size="12" fill="#ff7f00">❷</text><text x="351" y="-35.673" font-family="Lato" font-size="12" fill="#e31a1c">❺</text></g><g class="edge"><path fill="none" stroke="#000" d="M373.056-52.757l45.953-17.674"/><path stroke="#000" d="M425.866-73.068l-7.664-.427 4.397 1.683-3.267 1.257h0l3.267-1.257-2.136 4.197 5.403-5.453h0z"/><text x="391" y="-68.674" font-family="Lato" font-size="12">!p1</text></g><g class="node"><path fill="#ffffa0" stroke="#000" d="M264-70.273h-20c-6 0-12 6-12 12v12c0 6 6 12 12 12h20c6 0 12-6 12-12v-12c0-6-6-12-12-12"/><text x="250.5" y="-55.673" font-family="Lato" font-size="12">3</text><text x="240" y="-43.673" font-family="Lato" font-size="12" fill="#6a3d9a">❸</text><text x="254" y="-43.673" font-family="Lato" font-size="12" fill="#33a02c">❹</text></g><g class="edge"><path fill="none" stroke="#000" d="M328.747-35.014c-10.556 3.225-23.33 5.436-34.747 2.74-3.778-.891-7.606-2.198-11.321-3.723"/><path stroke="#000" d="M276.15-38.936l5.09 5.746-1.898-4.309 3.192 1.437h0l-3.192-1.437 4.485-1.435-7.676-.002h0z"/><text x="295.5" y="-35.673" font-family="Lato" font-size="12">p1</text></g><g class="edge"><path fill="none" stroke="#000" d="M274.229-34.156c23.69 18.91 64.107 43.99 98.771 29.883 27.713-11.28 51.172-36.929 65.807-56.164"/><path stroke="#000" d="M443.06-66.177l-6.698 3.749 4.614-.937-2.083 2.812h0l2.083-2.812.448 4.687 1.636-7.5h0z"/><text x="342.5" y="-7.673" font-family="Lato" font-size="12">!p1</text></g><g class="edge"><path fill="none" stroke="#000" d="M276.01-50.458l45.369 3.741"/><path stroke="#000" d="M328.74-46.11l-6.717-3.714 3.23 3.427-3.489-.288h0l3.488.288-3.747 2.852 7.236-2.564h0z"/><text x="295.5" y="-52.673" font-family="Lato" font-size="12">p1</text></g><g class="edge"><path fill="none" stroke="#000" d="M179.01-86.762l45.77-15.57"/><path stroke="#000" d="M231.74-104.7l-7.641-.728 4.328 1.855-3.314 1.127h0l3.314-1.127-2.299 4.11 5.613-5.238h0z"/><text x="197" y="-100.674" font-family="Lato" font-size="12">!p1</text></g><g class="edge"><path fill="none" stroke="#000" d="M179.01-73.147l45.77 12.74"/><path stroke="#000" d="M231.74-58.47l-5.898-4.911 2.527 3.973-3.372-.939h0l3.372.939-4.217 2.096 7.589-1.157h0z"/><text x="198.5" y="-70.674" font-family="Lato" font-size="12">p1</text></g></g></svg>