<?xml-stylesheet href="spot.css" type="text/css"?><svg width="284pt" height="160" viewBox="0 0 283.6 120" xmlns="http://www.w3.org/2000/svg"><g class="graph"><path fill="#fff" stroke="transparent" d="M0 120V0h283.6v120H0z"/><text x="118.8" y="-99.4" font-family="Lato" font-size="12" transform="translate(4 116)">Fin(</text><text x="138.8" y="-99.4" font-family="Lato" font-size="12" fill="#1f78b4" transform="translate(4 116)">⓿</text><text x="152.8" y="-99.4" font-family="Lato" font-size="12" transform="translate(4 116)">)</text><text x="110.3" y="-87.4" font-family="Lato" font-size="12" transform="translate(4 116)">[co-Büchi]</text><g class="node" transform="translate(4 116)"><circle fill="#ffffa0" stroke="#000" cx="56" cy="-18" r="18"/><text text-anchor="middle" x="56" y="-14.9" font-family="Lato" font-size="12">0</text></g><g class="edge" transform="translate(4 116)"><path fill="none" stroke="#000" d="M1.123-18h29.801"/><path stroke="#000" d="M37.98-18l-7-3.15 3.5 3.15h-3.5 3.5l-3.5 3.15 7-3.15h0z"/></g><g class="edge" transform="translate(4 116)"><path fill="none" stroke="#000" d="M49.62-35.037C48.32-44.857 50.446-54 56-54c4.166 0 6.404 5.142 6.713 11.857"/><path stroke="#000" d="M62.38-35.037l3.474-6.845-3.31 3.349.164-3.497h0l-.165 3.497-2.982-3.644 2.818 7.14h0z"/><text x="52.5" y="-57.4" font-family="Lato" font-size="12">a</text></g><g class="node" transform="translate(4 116)"><circle fill="#ffffa0" stroke="#000" cx="121.8" cy="-18" r="1.8"/></g><g class="edge" transform="translate(4 116)"><path fill="none" stroke="#000" d="M74.329-18h38.261M112.888-20.45l7 2.45-7 2.45v-4.9z"/><text x="92" y="-21.4" font-family="Lato" font-size="12">!a</text></g><g class="edge" transform="translate(4 116)"><path fill="none" stroke="#000" d="M119.948-17.75c-3.498.458-11.323 1.416-17.948 1.75-6.684.337-13.915.24-20.622-.044"/><path stroke="#000" d="M74.358-16.413l6.825 3.513-3.33-3.33 3.495.184h0l-3.495-.184 3.66-2.961-7.155 2.778h0z"/></g><g class="node" transform="translate(4 116)"><circle fill="#ffffa0" stroke="#000" cx="178.6" cy="-18" r="18"/><text text-anchor="middle" x="178.6" y="-14.9" font-family="Lato" font-size="12">1</text></g><g class="edge" transform="translate(4 116)"><path fill="none" stroke="#000" d="M123.69-18h29.552"/><path stroke="#000" d="M160.57-18l-7-3.15 3.5 3.15h-3.5 3.5l-3.5 3.15 7-3.15h0z"/></g><g class="edge" transform="translate(4 116)"><path fill="none" stroke="#000" d="M172.22-35.037C170.92-44.857 173.046-54 178.6-54c4.166 0 6.404 5.142 6.713 11.857"/><path stroke="#000" d="M184.98-35.037l3.474-6.845-3.31 3.349.164-3.497h0l-.165 3.497-2.982-3.644 2.818 7.14h0z"/><text x="173.6" y="-70.4" font-family="Lato" font-size="12">!a</text><text x="171.6" y="-57.4" font-family="Lato" font-size="12" fill="#1f78b4">⓿</text></g><g class="node" transform="translate(4 116)"><circle fill="#ffffa0" stroke="#000" cx="257.6" cy="-18" r="18"/><text text-anchor="middle" x="257.6" y="-14.9" font-family="Lato" font-size="12">2</text></g><g class="edge" transform="translate(4 116)"><path fill="none" stroke="#000" d="M196.923-18h35.226"/><path stroke="#000" d="M239.377-18l-7-3.15 3.5 3.15h-3.5 3.5l-3.5 3.15 7-3.15h0z"/><text x="214.6" y="-21.4" font-family="Lato" font-size="12">a</text></g><g class="edge" transform="translate(4 116)"><path fill="none" stroke="#000" d="M250.866-35.037c-1.374-9.82.87-18.963 6.734-18.963 4.397 0 6.76 5.142 7.086 11.857"/><path stroke="#000" d="M264.334-35.037l3.492-6.836-3.32 3.34.174-3.496h0l-.173 3.496-2.973-3.652 2.8 7.148h0z"/><text text-anchor="middle" x="257.6" y="-57.4" font-family="Lato" font-size="12">1</text></g></g></svg>