<?xml-stylesheet href="spot.css" type="text/css"?><svg width="224" height="130pt" viewBox="0 0 168 130.4" xmlns="http://www.w3.org/2000/svg"><g class="graph"><path fill="#fff" stroke="transparent" d="M0 130.396V0h168v130.396H0z"/><text x="62" y="-109.796" font-family="Lato" font-size="12" transform="translate(4 126.396)">Inf(</text><text x="80" y="-109.796" font-family="Lato" font-size="12" fill="#1f78b4" transform="translate(4 126.396)">⓿</text><text x="94" y="-109.796" font-family="Lato" font-size="12" transform="translate(4 126.396)">)</text><text x="61" y="-97.796" font-family="Lato" font-size="12" transform="translate(4 126.396)">[Büchi]</text><g class="node" transform="translate(4 126.396)"><circle fill="#ffffa0" stroke="#000" cx="56" cy="-28.396" r="18"/><text text-anchor="middle" x="56" y="-25.296" font-family="Lato" font-size="12">0</text></g><g class="edge" transform="translate(4 126.396)"><path fill="none" stroke="#000" d="M1.123-28.396h29.801"/><path stroke="#000" d="M37.98-28.396l-7-3.15 3.5 3.15h-3.5 3.5l-3.5 3.15 7-3.15h0z"/></g><g class="edge" transform="translate(4 126.396)"><path fill="none" stroke="#000" d="M49.62-45.434c-1.301-9.82.825-18.962 6.38-18.962 4.166 0 6.404 5.142 6.713 11.856"/><path stroke="#000" d="M62.38-45.434l3.474-6.844-3.31 3.348.164-3.496h0l-.165 3.496-2.982-3.644 2.818 7.14h0z"/><text x="52.5" y="-80.796" font-family="Lato" font-size="12">a</text><text x="49" y="-67.796" font-family="Lato" font-size="12" fill="#1f78b4">⓿</text></g><g class="node" transform="translate(4 126.396)"><circle fill="#ffffa0" stroke="#000" cx="142" cy="-28.396" r="18"/><text text-anchor="middle" x="142" y="-25.296" font-family="Lato" font-size="12">1</text></g><g class="edge" transform="translate(4 126.396)"><path fill="none" stroke="#000" d="M73.927-30.186c5.764-.496 12.183-.965 18.073-1.21 8.116-.338 16.966-.03 24.933.498"/><path stroke="#000" d="M123.956-30.364l-6.74-3.672 3.25 3.406-3.49-.265h0l3.49.265-3.728 2.876 7.218-2.61h0z"/><text x="94" y="-34.796" font-family="Lato" font-size="12">!a</text></g><g class="edge" transform="translate(4 126.396)"><path fill="none" stroke="#000" d="M129.402-14.835C119.612-6.008 105.477 3.096 92-1.396c-6.18-2.06-12.152-5.642-17.398-9.536"/><path stroke="#000" d="M68.81-15.575l3.492 6.836-.76-4.647 2.73 2.19h0l-2.73-2.19 4.7-.269-7.432-1.92h0z"/><text x="95.5" y="-17.796" font-family="Lato" font-size="12">a</text><text x="92" y="-4.796" font-family="Lato" font-size="12" fill="#1f78b4">⓿</text></g><g class="edge" transform="translate(4 126.396)"><path fill="none" stroke="#000" d="M134.617-45.06c-1.64-9.961.82-19.336 7.383-19.336 4.922 0 7.537 5.273 7.844 12.112"/><path stroke="#000" d="M149.383-45.06l3.59-6.785-3.367 3.292.223-3.493h0l-.223 3.493-2.92-3.694 2.697 7.187h0z"/><text x="137" y="-67.796" font-family="Lato" font-size="12">!a</text></g></g></svg>