<svg xmlns="http://www.w3.org/2000/svg" height="640" preserveAspectRatio="none" style="width:814px;height:640px" viewBox="0 0 814 640" width="814"><defs><filter height="300%" id="a" width="300%" x="-1" y="-1"><feGaussianBlur result="blurOut" stdDeviation="2"/><feColorMatrix in="blurOut" result="blurOut2" values="0 0 0 0 0 0 0 0 0 0 0 0 0 0 0 0 0 0 .4 0"/><feOffset dx="4" dy="4" in="blurOut2" result="blurOut3"/><feBlend in="SourceGraphic" in2="blurOut3"/></filter></defs><path fill="#FFF" filter="url(#a)" stroke="#000" stroke-width="1.5" d="M14 16h41l7 22.297h730V455H14V16z"/><path stroke="#000" stroke-width="1.5" d="M14 38.297h48"/><text font-family="sans-serif" font-size="14" font-weight="bold" lengthAdjust="spacingAndGlyphs" textLength="35" x="18" y="30.995">spot</text><path d="M100.118 481.607c12.152-20.258 24.699-16.823 37.425-.589 16.533-20.062 30.014-22.38 44.06 2.442 13.757-22.582 31.773-19.966 45.023.53 9.226-26.859 34.043-25.296 48.797-5.821 14.675-18.06 34.844-19.428 45.238 4.6 14.085-22.52 30.979-25.048 46.581-1.536 10.814-18.513 23.696-24.479 39.145-4.743 20.374-20.882 35.454-20.003 48.968 7.015 9.78-20.606 24.407-21.214 39.135-5.303 16.03-22.947 37.216-20.065 47.811 5.37 9.59-27.15 32.518-26.755 47.34-5.072 12.563-15.828 28.597-15.559 37.876 3.56 13.278-24.371 32.075-17.66 44.858.522C689.062 462.91 710.462 459.135 723 487c1.682-2.256 3.782-1.46 4.815.706 24.024 13.667 30.186 37.27 4.361 54.897C749.736 568.118 749.308 587.34 716 598c.85-.8 1.541-.32 1.832.597-9.427 21.908-24.935 22.909-39.332 4.897-15.084 23.913-34.057 16.427-45.87-3.428-16.958 21.422-32.11 25.196-47.986-1.089-12.229 23.978-25.48 29.1-44.866 6.964-11.128 22.379-32.343 21.452-43.411-.06-14.927 17.751-35.167 14.036-45.04-6.02-8.553 26.266-29.63 23.793-45.034 7.199-11.864 18.66-29.728 16.72-39.308-2.377-15.603 23.8-40.414 22.226-51.173-4.871-9.248 21.014-28.994 23.485-44.278 7.158-17.832 19.883-33.707 13.42-44.54-7.618-12.656 19.329-27.614 20.556-43.701 4.202-12.715 17.67-31.248 18.032-41.902-2.274C121.637 626.365 94.463 622.37 85 591c3.19-3.116 6.712-2.42 7.703 2.192-25.018-7.274-32.908-32.479-13.311-51.324C58.712 515.796 58.154 494.96 92 480c3.37-2.921 6.27-3.157 8.118 1.607" fill="#FFF" stroke="#000" stroke-width="1.5"/><text font-family="sans-serif" font-size="14" font-weight="bold" lengthAdjust="spacingAndGlyphs" textLength="219" x="294.5" y="497.995">what we have to implement</text><path fill="#FEFECE" filter="url(#a)" stroke="#a80036" stroke-width="1.5" d="M221.5 51h349v216.059h-349z"/><circle cx="380.25" cy="67" fill="#A9DCDF" stroke="#a80036" r="11"/><path d="M380.36 62.344l-1.157 5.078h2.328l-1.172-5.078zm-1.485-2.235h2.984l3.36 12.391h-2.453L382 69.437h-3.281l-.75 3.063h-2.438l3.344-12.39z"/><text font-family="sans-serif" font-size="12" font-style="italic" lengthAdjust="spacingAndGlyphs" textLength="23" x="400.75" y="71.154">twa</text><path stroke="#a80036" stroke-width="1.5" d="M222.5 83h347"/><path fill="none" stroke="#b38d22" d="M232.5 89.902l4 4-4 4-4-4z"/><text font-family="sans-serif" font-size="11" lengthAdjust="spacingAndGlyphs" textLength="174" x="241.5" y="97.21">twa_succ_iterator* iter_cache_</text><path fill="none" stroke="#b38d22" d="M232.5 102.707l4 4-4 4-4-4z"/><text font-family="sans-serif" font-size="11" lengthAdjust="spacingAndGlyphs" textLength="99" x="241.5" y="110.015">bdd_dict_ptr dict_</text><path stroke="#a80036" stroke-width="1.5" d="M222.5 116.609h347"/><path fill="#FF4" stroke="#b38d22" d="M232.5 123.512l4 4-4 4-4-4z"/><text font-family="sans-serif" font-size="11" lengthAdjust="spacingAndGlyphs" textLength="142" x="241.5" y="130.82">twa(const bdd_dict_ptr&amp;)</text><circle cx="232.5" cy="158.121" fill="#84BE84" stroke="#038048" r="3"/><text font-family="sans-serif" font-size="11" font-style="italic" lengthAdjust="spacingAndGlyphs" textLength="121" x="241.5" y="160.429">state* get_init_state()</text><circle cx="232.5" cy="170.926" fill="#84BE84" stroke="#038048" r="3"/><text font-family="sans-serif" font-size="11" font-style="italic" lengthAdjust="spacingAndGlyphs" textLength="201" x="241.5" y="173.234">twa_succ_iterator* succ_iter(state*)</text><circle cx="232.5" cy="183.731" fill="#84BE84" stroke="#038048" r="3"/><text font-family="sans-serif" font-size="11" lengthAdjust="spacingAndGlyphs" textLength="234" x="241.5" y="186.039">internal::succ_iterable succ(const state*)</text><circle cx="232.5" cy="196.535" fill="#84BE84" stroke="#038048" r="3"/><text font-family="sans-serif" font-size="11" lengthAdjust="spacingAndGlyphs" textLength="209" x="241.5" y="198.843">void release_iter(twa_succ_iterator*)</text><path stroke="#a80036" stroke-dasharray="1,2" d="M222.5 143.816h142"/><text font-family="sans-serif" font-size="11" lengthAdjust="spacingAndGlyphs" textLength="63" x="364.5" y="147.125">exploration</text><path stroke="#a80036" stroke-dasharray="1,2" d="M427.5 143.816h142"/><circle cx="232.5" cy="226.144" fill="#84BE84" stroke="#038048" r="3"/><text font-family="sans-serif" font-size="11" font-style="italic" lengthAdjust="spacingAndGlyphs" textLength="209" x="241.5" y="228.453">std::string format_state(const state*)</text><circle cx="232.5" cy="238.949" fill="#84BE84" stroke="#038048" r="3"/><text font-family="sans-serif" font-size="11" lengthAdjust="spacingAndGlyphs" textLength="323" x="241.5" y="241.257">state* project_state(const state*, const const_twa_ptr&amp;)</text><path stroke="#a80036" stroke-dasharray="1,2" d="M222.5 211.84H343"/><text font-family="sans-serif" font-size="11" lengthAdjust="spacingAndGlyphs" textLength="106" x="343" y="215.148">state manipulation</text><path stroke="#a80036" stroke-dasharray="1,2" d="M449 211.84h120.5M222.5 254.254h100"/><text font-family="sans-serif" font-size="11" lengthAdjust="spacingAndGlyphs" textLength="147" x="322.5" y="257.562">other methods not shown</text><path stroke="#a80036" stroke-dasharray="1,2" d="M469.5 254.254h100"/><path fill="#FEFECE" filter="url(#a)" stroke="#a80036" stroke-width="1.5" d="M30 84h156v150.438H30z"/><circle cx="51.3" cy="100" fill="#A9DCDF" stroke="#a80036" r="11"/><path d="M51.41 95.344l-1.157 5.078h2.328l-1.172-5.078zm-1.485-2.235h2.984l3.36 12.391h-2.453l-.766-3.063h-3.281l-.75 3.063H46.58l3.344-12.39z"/><text font-family="sans-serif" font-size="12" font-style="italic" lengthAdjust="spacingAndGlyphs" textLength="110" x="66.7" y="104.154">twa_succ_iterator</text><path stroke="#a80036" stroke-width="1.5" d="M31 116h154"/><circle cx="41" cy="144.707" fill="#84BE84" stroke="#038048" r="3"/><text font-family="sans-serif" font-size="11" font-style="italic" lengthAdjust="spacingAndGlyphs" textLength="58" x="50" y="147.015">bool first()</text><circle cx="41" cy="157.512" fill="#84BE84" stroke="#038048" r="3"/><text font-family="sans-serif" font-size="11" font-style="italic" lengthAdjust="spacingAndGlyphs" textLength="61" x="50" y="159.82">bool next()</text><circle cx="41" cy="170.316" fill="#84BE84" stroke="#038048" r="3"/><text font-family="sans-serif" font-size="11" font-style="italic" lengthAdjust="spacingAndGlyphs" textLength="64" x="50" y="172.625">bool done()</text><path stroke="#a80036" stroke-dasharray="1,2" d="M31 130.402h53.5"/><text font-family="sans-serif" font-size="11" lengthAdjust="spacingAndGlyphs" textLength="47" x="84.5" y="133.71">iteration</text><path stroke="#a80036" stroke-dasharray="1,2" d="M131.5 130.402H185"/><circle cx="41" cy="199.926" fill="#84BE84" stroke="#038048" r="3"/><text font-family="sans-serif" font-size="11" font-style="italic" lengthAdjust="spacingAndGlyphs" textLength="97" x="50" y="202.234">const state* dst()</text><circle cx="41" cy="212.731" fill="#84BE84" stroke="#038048" r="3"/><text font-family="sans-serif" font-size="11" font-style="italic" lengthAdjust="spacingAndGlyphs" textLength="60" x="50" y="215.039">bdd cond()</text><circle cx="41" cy="225.535" fill="#84BE84" stroke="#038048" r="3"/><text font-family="sans-serif" font-size="11" font-style="italic" lengthAdjust="spacingAndGlyphs" textLength="130" x="50" y="227.843">acc_cond::mark_t acc()</text><path stroke="#a80036" stroke-dasharray="1,2" d="M31 185.621h48"/><text font-family="sans-serif" font-size="11" lengthAdjust="spacingAndGlyphs" textLength="58" x="79" y="188.929">inspection</text><path stroke="#a80036" stroke-dasharray="1,2" d="M137 185.621h48"/><path fill="#FEFECE" filter="url(#a)" stroke="#a80036" stroke-width="1.5" d="M606 103h170v112.023H606z"/><circle cx="670.75" cy="119" fill="#A9DCDF" stroke="#a80036" r="11"/><path d="M670.86 114.344l-1.157 5.078h2.328l-1.172-5.078zm-1.485-2.235h2.984l3.36 12.391h-2.453l-.766-3.063h-3.281l-.75 3.063h-2.438l3.344-12.39z"/><text font-family="sans-serif" font-size="12" font-style="italic" lengthAdjust="spacingAndGlyphs" textLength="32" x="691.25" y="123.154">state</text><path stroke="#a80036" stroke-width="1.5" d="M607 135h168M607 143h168"/><circle cx="617" cy="154.902" fill="#84BE84" stroke="#038048" r="3"/><text font-family="sans-serif" font-size="11" font-style="italic" lengthAdjust="spacingAndGlyphs" textLength="144" x="626" y="157.21">int compare(const state*)</text><circle cx="617" cy="167.707" fill="#84BE84" stroke="#038048" r="3"/><text font-family="sans-serif" font-size="11" font-style="italic" lengthAdjust="spacingAndGlyphs" textLength="71" x="626" y="170.015">size_t hash()</text><circle cx="617" cy="180.512" fill="#84BE84" stroke="#038048" r="3"/><text font-family="sans-serif" font-size="11" font-style="italic" lengthAdjust="spacingAndGlyphs" textLength="76" x="626" y="182.82">state* clone()</text><circle cx="617" cy="193.316" fill="#84BE84" stroke="#038048" r="3"/><text font-family="sans-serif" font-size="11" lengthAdjust="spacingAndGlyphs" textLength="78" x="626" y="195.625">void destroy()</text><path fill="#FF4" stroke="#b38d22" d="M617 201.121l4 4-4 4-4-4z"/><text font-family="sans-serif" font-size="11" lengthAdjust="spacingAndGlyphs" textLength="46" x="626" y="208.429">~state()</text><path fill="#FEFECE" filter="url(#a)" stroke="#a80036" stroke-width="1.5" d="M290 346h212v73.609H290z"/><circle cx="372.75" cy="362" fill="#A9DCDF" stroke="#a80036" r="11"/><path d="M372.86 357.344l-1.157 5.078h2.328l-1.172-5.078zm-1.485-2.235h2.984l3.36 12.391h-2.453l-.766-3.063h-3.281l-.75 3.063h-2.438l3.344-12.39z"/><text font-family="sans-serif" font-size="12" font-style="italic" lengthAdjust="spacingAndGlyphs" textLength="38" x="393.25" y="366.154">kripke</text><path stroke="#a80036" stroke-width="1.5" d="M291 378h210M291 386h210"/><circle cx="301" cy="397.902" fill="#84BE84" stroke="#038048" r="3"/><text font-family="sans-serif" font-size="11" lengthAdjust="spacingAndGlyphs" textLength="181" x="310" y="400.21">fair_kripke(const bdd_dict_ptr&amp;)</text><circle cx="301" cy="410.707" fill="#84BE84" stroke="#038048" r="3"/><text font-family="sans-serif" font-size="11" font-style="italic" lengthAdjust="spacingAndGlyphs" textLength="186" x="310" y="413.015">bdd state_condition(const state*)</text><path fill="#FEFECE" filter="url(#a)" stroke="#a80036" stroke-width="1.5" d="M41 327h214v112.023H41z"/><circle cx="81.65" cy="343" fill="#A9DCDF" stroke="#a80036" r="11"/><path d="M81.76 338.344l-1.157 5.078h2.328l-1.172-5.078zm-1.485-2.235h2.984l3.36 12.391h-2.453l-.766-3.063h-3.281l-.75 3.063H76.93l3.344-12.39z"/><text font-family="sans-serif" font-size="12" font-style="italic" lengthAdjust="spacingAndGlyphs" textLength="125" x="101.35" y="347.154">kripke_succ_iterator</text><path stroke="#a80036" stroke-width="1.5" d="M42 359h212"/><path fill="none" stroke="#b38d22" d="M52 365.902l4 4-4 4-4-4z"/><text font-family="sans-serif" font-size="11" lengthAdjust="spacingAndGlyphs" textLength="58" x="61" y="373.21">bdd cond_</text><path stroke="#a80036" stroke-width="1.5" d="M42 379.805h212"/><circle cx="52" cy="391.707" fill="#84BE84" stroke="#038048" r="3"/><text font-family="sans-serif" font-size="11" lengthAdjust="spacingAndGlyphs" textLength="188" x="61" y="394.015">kripke_succ_iterator(const bdd&amp;)</text><circle cx="52" cy="404.512" fill="#84BE84" stroke="#038048" r="3"/><text font-family="sans-serif" font-size="11" lengthAdjust="spacingAndGlyphs" textLength="141" x="61" y="406.82">void recycle(const bdd&amp;)</text><circle cx="52" cy="417.316" fill="#84BE84" stroke="#038048" r="3"/><text font-family="sans-serif" font-size="11" lengthAdjust="spacingAndGlyphs" textLength="60" x="61" y="419.625">bdd cond()</text><circle cx="52" cy="430.121" fill="#84BE84" stroke="#038048" r="3"/><text font-family="sans-serif" font-size="11" lengthAdjust="spacingAndGlyphs" textLength="130" x="61" y="432.429">acc_cond::mark_t acc()</text><path fill="#FEFECE" filter="url(#a)" stroke="#a80036" stroke-width="1.5" d="M276 499h240v99.219H276z"/><circle cx="352.25" cy="515" fill="#ADD1B2" stroke="#a80036" r="11"/><path d="M355.219 520.64q-.578.298-1.219.438-.64.156-1.344.156-2.5 0-3.828-1.64-1.312-1.657-1.312-4.782t1.312-4.78q1.328-1.657 3.828-1.657.703 0 1.344.156.656.156 1.219.453v2.72q-.625-.579-1.219-.845-.594-.28-1.219-.28-1.344 0-2.031 1.077-.688 1.063-.688 3.156 0 2.094.688 3.172.688 1.063 2.031 1.063.625 0 1.219-.266.594-.281 1.219-.86v2.72z"/><text font-family="sans-serif" font-size="12" lengthAdjust="spacingAndGlyphs" textLength="79" x="372.75" y="519.154">demo_kripke</text><path stroke="#a80036" stroke-width="1.5" d="M277 531h238M277 539h238"/><circle cx="287" cy="550.902" fill="#84BE84" stroke="#038048" r="3"/><text font-family="sans-serif" font-size="11" lengthAdjust="spacingAndGlyphs" textLength="123" x="296" y="553.21">state* get_init_state()</text><circle cx="287" cy="563.707" fill="#84BE84" stroke="#038048" r="3"/><text font-family="sans-serif" font-size="11" lengthAdjust="spacingAndGlyphs" textLength="204" x="296" y="566.015">twa_succ_iterator* succ_iter(state*)</text><circle cx="287" cy="576.512" fill="#84BE84" stroke="#038048" r="3"/><text font-family="sans-serif" font-size="11" lengthAdjust="spacingAndGlyphs" textLength="214" x="296" y="578.82">std::string format_state(const state*)</text><circle cx="287" cy="589.316" fill="#84BE84" stroke="#038048" r="3"/><text font-family="sans-serif" font-size="11" lengthAdjust="spacingAndGlyphs" textLength="189" x="296" y="591.625">bdd state_condition(const state*)</text><path fill="#FEFECE" filter="url(#a)" stroke="#a80036" stroke-width="1.5" d="M85.5 499h155v99.219h-155z"/><circle cx="100.5" cy="515" fill="#ADD1B2" stroke="#a80036" r="11"/><path d="M103.469 520.64q-.578.298-1.219.438-.64.156-1.344.156-2.5 0-3.828-1.64-1.312-1.657-1.312-4.782t1.312-4.78q1.328-1.657 3.828-1.657.703 0 1.344.156.656.156 1.219.453v2.72q-.625-.579-1.219-.845-.594-.28-1.219-.28-1.344 0-2.031 1.077-.688 1.063-.688 3.156 0 2.094.688 3.172.688 1.063 2.031 1.063.625 0 1.219-.266.594-.281 1.219-.86v2.72z"/><text font-family="sans-serif" font-size="12" lengthAdjust="spacingAndGlyphs" textLength="123" x="114.5" y="519.154">demo_succ_iterator</text><path stroke="#a80036" stroke-width="1.5" d="M86.5 531h153M86.5 539h153"/><circle cx="96.5" cy="550.902" fill="#84BE84" stroke="#038048" r="3"/><text font-family="sans-serif" font-size="11" lengthAdjust="spacingAndGlyphs" textLength="59" x="105.5" y="553.21">bool first()</text><circle cx="96.5" cy="563.707" fill="#84BE84" stroke="#038048" r="3"/><text font-family="sans-serif" font-size="11" lengthAdjust="spacingAndGlyphs" textLength="60" x="105.5" y="566.015">bool next()</text><circle cx="96.5" cy="576.512" fill="#84BE84" stroke="#038048" r="3"/><text font-family="sans-serif" font-size="11" lengthAdjust="spacingAndGlyphs" textLength="64" x="105.5" y="578.82">bool done()</text><circle cx="96.5" cy="589.316" fill="#84BE84" stroke="#038048" r="3"/><text font-family="sans-serif" font-size="11" lengthAdjust="spacingAndGlyphs" textLength="100" x="105.5" y="591.625">const state* dst()</text><path fill="#FEFECE" filter="url(#a)" stroke="#a80036" stroke-width="1.5" d="M551 505.5h172v86.414H551z"/><circle cx="595.75" cy="521.5" fill="#ADD1B2" stroke="#a80036" r="11"/><path d="M598.719 527.14q-.578.298-1.219.438-.64.156-1.344.156-2.5 0-3.828-1.64-1.312-1.657-1.312-4.782t1.312-4.78q1.328-1.657 3.828-1.657.703 0 1.344.156.656.157 1.219.453v2.72q-.625-.579-1.219-.845-.594-.28-1.219-.28-1.343 0-2.031 1.077-.688 1.063-.688 3.157 0 2.093.688 3.171.688 1.063 2.031 1.063.625 0 1.219-.266.594-.281 1.219-.86v2.72z"/><text font-family="sans-serif" font-size="12" lengthAdjust="spacingAndGlyphs" textLength="74" x="616.25" y="525.654">demo_state</text><path stroke="#a80036" stroke-width="1.5" d="M552 537.5h170M552 545.5h170"/><circle cx="562" cy="557.402" fill="#84BE84" stroke="#038048" r="3"/><text font-family="sans-serif" font-size="11" lengthAdjust="spacingAndGlyphs" textLength="146" x="571" y="559.71">int compare(const state*)</text><circle cx="562" cy="570.207" fill="#84BE84" stroke="#038048" r="3"/><text font-family="sans-serif" font-size="11" lengthAdjust="spacingAndGlyphs" textLength="72" x="571" y="572.515">size_t hash()</text><circle cx="562" cy="583.012" fill="#84BE84" stroke="#038048" r="3"/><text font-family="sans-serif" font-size="11" lengthAdjust="spacingAndGlyphs" textLength="77" x="571" y="585.32">state* clone()</text><path d="M396 287.335V346M389 287.063l7-20 7 20h-14zM124.994 254.164l12.964 72.598M118.056 255.131l3.375-20.92 10.407 18.459-13.782 2.461zM680.435 235.202l-37.437 270.034M673.525 234.07l9.68-18.85 4.188 20.773-13.868-1.923zM154.902 459.15l3.603 39.758M147.912 459.581l5.166-20.55 8.777 19.286-13.943 1.264zM396 440.233v58.692M389 440.142l7-20 7 20h-14z" fill="none" stroke="#a80036"/></svg>