<svg xmlns="http://www.w3.org/2000/svg" height="1136" preserveAspectRatio="none" style="width:933px;height:1136px" viewBox="0 0 933 1136" width="933"><defs><filter height="300%" id="a" width="300%" x="-1" y="-1"><feGaussianBlur result="blurOut" stdDeviation="2"/><feColorMatrix in="blurOut" result="blurOut2" values="0 0 0 0 0 0 0 0 0 0 0 0 0 0 0 0 0 0 .4 0"/><feOffset dx="4" dy="4" in="blurOut2" result="blurOut3"/><feBlend in="SourceGraphic" in2="blurOut3"/></filter></defs><path fill="#FFF" filter="url(#a)" stroke="#000" stroke-width="1.5" d="M14 16h41l7 22.297h849V1124H14V16z"/><path stroke="#000" stroke-width="1.5" d="M14 38.297h48"/><text font-family="sans-serif" font-size="14" font-weight="bold" lengthAdjust="spacingAndGlyphs" textLength="35" x="18" y="30.995">spot</text><path fill="#FFF" filter="url(#a)" stroke="#000" stroke-width="1.5" d="M266 384h66l7 22.297h163V1116H266V384z"/><path stroke="#000" stroke-width="1.5" d="M266 406.297h73"/><text font-family="sans-serif" font-size="14" font-weight="bold" lengthAdjust="spacingAndGlyphs" textLength="60" x="270" y="398.995">internal</text><path fill="#FEFECE" filter="url(#a)" stroke="#a80036" stroke-width="1.5" d="M153.5 432h91v32h-91z"/><circle cx="168.5" cy="448" fill="#ADD1B2" stroke="#a80036" r="11"/><path d="M171.469 453.64q-.578.298-1.219.438-.64.156-1.344.156-2.5 0-3.828-1.64-1.312-1.656-1.312-4.781t1.312-4.782q1.328-1.656 3.828-1.656.703 0 1.344.156.656.156 1.219.453v2.72q-.625-.579-1.219-.845-.594-.28-1.219-.28-1.344 0-2.031 1.077-.688 1.063-.688 3.156 0 2.094.688 3.172.688 1.063 2.031 1.063.625 0 1.219-.266.594-.281 1.219-.86v2.72z"/><text font-family="sans-serif" font-size="12" lengthAdjust="spacingAndGlyphs" textLength="59" x="182.5" y="452.154">acc_cond</text><path fill="#FEFECE" filter="url(#a)" stroke="#a80036" stroke-width="1.5" d="M21.5 432h97v32h-97z"/><circle cx="36.5" cy="448" fill="#ADD1B2" stroke="#a80036" r="11"/><path d="M39.469 453.64q-.578.298-1.219.438-.64.156-1.344.156-2.5 0-3.828-1.64-1.312-1.656-1.312-4.781t1.312-4.782q1.328-1.656 3.828-1.656.703 0 1.344.156.656.156 1.219.453v2.72q-.625-.579-1.219-.845-.594-.28-1.219-.28-1.343 0-2.031 1.077-.688 1.063-.688 3.156 0 2.094.688 3.172.688 1.063 2.031 1.063.625 0 1.219-.266.594-.281 1.219-.86v2.72z"/><text font-family="sans-serif" font-size="12" lengthAdjust="spacingAndGlyphs" textLength="65" x="50.5" y="452.154">twa_graph</text><path fill="#FEFECE" filter="url(#a)" stroke="#a80036" stroke-width="1.5" d="M767 432h136v32H767z"/><circle cx="782" cy="448" fill="#ADD1B2" stroke="#a80036" r="11"/><path d="M784.969 453.64q-.578.298-1.219.438-.64.156-1.344.156-2.5 0-3.828-1.64-1.312-1.656-1.312-4.781t1.312-4.782q1.328-1.656 3.828-1.656.703 0 1.344.156.656.156 1.219.453v2.72q-.625-.579-1.219-.845-.594-.28-1.219-.28-1.343 0-2.031 1.077-.688 1.063-.688 3.156 0 2.094.688 3.172.688 1.063 2.031 1.063.625 0 1.219-.266.594-.281 1.219-.86v2.72z"/><text font-family="sans-serif" font-size="12" lengthAdjust="spacingAndGlyphs" textLength="104" x="796" y="452.154">twa_graph_state</text><path fill="#FEFECE" filter="url(#a)" stroke="#a80036" stroke-width="1.5" d="M546.5 432h185v32h-185z"/><circle cx="561.5" cy="448" fill="#ADD1B2" stroke="#a80036" r="11"/><path d="M564.469 453.64q-.578.298-1.219.438-.64.156-1.344.156-2.5 0-3.828-1.64-1.312-1.656-1.312-4.781t1.312-4.782q1.328-1.656 3.828-1.656.703 0 1.344.156.656.156 1.219.453v2.72q-.625-.579-1.219-.845-.594-.28-1.219-.28-1.343 0-2.031 1.077-.688 1.063-.688 3.156 0 2.094.688 3.172.688 1.063 2.031 1.063.625 0 1.219-.266.594-.281 1.219-.86v2.72z"/><text font-family="sans-serif" font-size="12" lengthAdjust="spacingAndGlyphs" textLength="153" x="575.5" y="452.154">twa_graph_succ_iterator</text><path fill="#FEFECE" filter="url(#a)" stroke="#a80036" stroke-width="1.5" d="M280 411h194v73.609H280z"/><circle cx="331.25" cy="427" fill="#ADD1B2" stroke="#a80036" r="11"/><path d="M334.219 432.64q-.578.298-1.219.438-.64.156-1.344.156-2.5 0-3.828-1.64-1.312-1.656-1.312-4.781t1.312-4.782q1.328-1.656 3.828-1.656.703 0 1.344.156.656.156 1.219.453v2.72q-.625-.579-1.219-.845-.594-.28-1.219-.28-1.344 0-2.031 1.077-.688 1.063-.688 3.156 0 2.094.688 3.172.688 1.063 2.031 1.063.625 0 1.219-.266.594-.281 1.219-.86v2.72z"/><text font-family="sans-serif" font-size="12" lengthAdjust="spacingAndGlyphs" textLength="83" x="351.75" y="431.154">succ_iterable</text><path stroke="#a80036" stroke-width="1.5" d="M281 443h192M281 451h192"/><circle cx="291" cy="462.902" fill="#84BE84" stroke="#038048" r="3"/><text font-family="sans-serif" font-size="11" lengthAdjust="spacingAndGlyphs" textLength="168" x="300" y="465.21">internal::succ_iterator begin()</text><circle cx="291" cy="475.707" fill="#84BE84" stroke="#038048" r="3"/><text font-family="sans-serif" font-size="11" lengthAdjust="spacingAndGlyphs" textLength="158" x="300" y="478.015">internal::succ_iterator end()</text><path fill="#FEFECE" filter="url(#a)" stroke="#a80036" stroke-width="1.5" d="M274 996h220v112.023H274z"/><circle cx="338.75" cy="1012" fill="#ADD1B2" stroke="#a80036" r="11"/><path d="M341.719 1017.64q-.578.298-1.219.438-.64.156-1.344.156-2.5 0-3.828-1.64-1.312-1.657-1.312-4.782t1.312-4.78q1.328-1.657 3.828-1.657.703 0 1.344.156.656.157 1.219.453v2.72q-.625-.579-1.219-.845-.594-.28-1.219-.28-1.344 0-2.031 1.077-.688 1.063-.688 3.157 0 2.093.688 3.171.688 1.063 2.031 1.063.625 0 1.219-.266.594-.281 1.219-.86v2.72z"/><text font-family="sans-serif" font-size="12" lengthAdjust="spacingAndGlyphs" textLength="82" x="359.25" y="1016.154">succ_iterator</text><path stroke="#a80036" stroke-width="1.5" d="M275 1028h218M275 1036h218"/><text font-family="sans-serif" font-size="11" lengthAdjust="spacingAndGlyphs" textLength="188" x="280" y="1050.21">succ_iterator(twa_succ_iterator*)</text><text font-family="sans-serif" font-size="11" lengthAdjust="spacingAndGlyphs" textLength="177" x="280" y="1063.015">bool operator==(succ_iterator)</text><text font-family="sans-serif" font-size="11" lengthAdjust="spacingAndGlyphs" textLength="171" x="280" y="1075.82">bool operator!=(succ_iterator)</text><text font-family="sans-serif" font-size="11" lengthAdjust="spacingAndGlyphs" textLength="208" x="280" y="1088.624">const twa_succ_iterator* operator*()</text><text font-family="sans-serif" font-size="11" lengthAdjust="spacingAndGlyphs" textLength="102" x="280" y="1101.429">void operator++()</text><path fill="#FEFECE" filter="url(#a)" stroke="#a80036" stroke-width="1.5" d="M74.5 51h349v216.059h-349z"/><circle cx="233.25" cy="67" fill="#A9DCDF" stroke="#a80036" r="11"/><path d="M233.36 62.344l-1.157 5.078h2.328l-1.172-5.078zm-1.485-2.235h2.984l3.36 12.391h-2.453L235 69.437h-3.281l-.75 3.063h-2.438l3.344-12.39z"/><text font-family="sans-serif" font-size="12" font-style="italic" lengthAdjust="spacingAndGlyphs" textLength="23" x="253.75" y="71.154">twa</text><path stroke="#a80036" stroke-width="1.5" d="M75.5 83h347"/><path fill="none" stroke="#b38d22" d="M85.5 89.902l4 4-4 4-4-4z"/><text font-family="sans-serif" font-size="11" lengthAdjust="spacingAndGlyphs" textLength="174" x="94.5" y="97.21">twa_succ_iterator* iter_cache_</text><path fill="none" stroke="#b38d22" d="M85.5 102.707l4 4-4 4-4-4z"/><text font-family="sans-serif" font-size="11" lengthAdjust="spacingAndGlyphs" textLength="99" x="94.5" y="110.015">bdd_dict_ptr dict_</text><path stroke="#a80036" stroke-width="1.5" d="M75.5 116.609h347"/><path fill="#FF4" stroke="#b38d22" d="M85.5 123.512l4 4-4 4-4-4z"/><text font-family="sans-serif" font-size="11" lengthAdjust="spacingAndGlyphs" textLength="142" x="94.5" y="130.82">twa(const bdd_dict_ptr&amp;)</text><circle cx="85.5" cy="158.121" fill="#84BE84" stroke="#038048" r="3"/><text font-family="sans-serif" font-size="11" font-style="italic" lengthAdjust="spacingAndGlyphs" textLength="121" x="94.5" y="160.429">state* get_init_state()</text><circle cx="85.5" cy="170.926" fill="#84BE84" stroke="#038048" r="3"/><text font-family="sans-serif" font-size="11" font-style="italic" lengthAdjust="spacingAndGlyphs" textLength="201" x="94.5" y="173.234">twa_succ_iterator* succ_iter(state*)</text><circle cx="85.5" cy="183.731" fill="#84BE84" stroke="#038048" r="3"/><text font-family="sans-serif" font-size="11" lengthAdjust="spacingAndGlyphs" textLength="234" x="94.5" y="186.039">internal::succ_iterable succ(const state*)</text><circle cx="85.5" cy="196.535" fill="#84BE84" stroke="#038048" r="3"/><text font-family="sans-serif" font-size="11" lengthAdjust="spacingAndGlyphs" textLength="209" x="94.5" y="198.843">void release_iter(twa_succ_iterator*)</text><path stroke="#a80036" stroke-dasharray="1,2" d="M75.5 143.816h142"/><text font-family="sans-serif" font-size="11" lengthAdjust="spacingAndGlyphs" textLength="63" x="217.5" y="147.125">exploration</text><path stroke="#a80036" stroke-dasharray="1,2" d="M280.5 143.816h142"/><circle cx="85.5" cy="226.144" fill="#84BE84" stroke="#038048" r="3"/><text font-family="sans-serif" font-size="11" font-style="italic" lengthAdjust="spacingAndGlyphs" textLength="209" x="94.5" y="228.453">std::string format_state(const state*)</text><circle cx="85.5" cy="238.949" fill="#84BE84" stroke="#038048" r="3"/><text font-family="sans-serif" font-size="11" lengthAdjust="spacingAndGlyphs" textLength="323" x="94.5" y="241.257">state* project_state(const state*, const const_twa_ptr&amp;)</text><path stroke="#a80036" stroke-dasharray="1,2" d="M75.5 211.84H196"/><text font-family="sans-serif" font-size="11" lengthAdjust="spacingAndGlyphs" textLength="106" x="196" y="215.148">state manipulation</text><path stroke="#a80036" stroke-dasharray="1,2" d="M302 211.84h120.5M75.5 254.254h100"/><text font-family="sans-serif" font-size="11" lengthAdjust="spacingAndGlyphs" textLength="147" x="175.5" y="257.562">other methods not shown</text><path stroke="#a80036" stroke-dasharray="1,2" d="M322.5 254.254h100"/><path fill="#FEFECE" filter="url(#a)" stroke="#a80036" stroke-width="1.5" d="M459 84h156v150.438H459z"/><circle cx="480.3" cy="100" fill="#A9DCDF" stroke="#a80036" r="11"/><path d="M480.41 95.344l-1.157 5.078h2.328l-1.172-5.078zm-1.485-2.235h2.984l3.36 12.391h-2.453l-.766-3.063h-3.281l-.75 3.063h-2.438l3.344-12.39z"/><text font-family="sans-serif" font-size="12" font-style="italic" lengthAdjust="spacingAndGlyphs" textLength="110" x="495.7" y="104.154">twa_succ_iterator</text><path stroke="#a80036" stroke-width="1.5" d="M460 116h154"/><circle cx="470" cy="144.707" fill="#84BE84" stroke="#038048" r="3"/><text font-family="sans-serif" font-size="11" font-style="italic" lengthAdjust="spacingAndGlyphs" textLength="58" x="479" y="147.015">bool first()</text><circle cx="470" cy="157.512" fill="#84BE84" stroke="#038048" r="3"/><text font-family="sans-serif" font-size="11" font-style="italic" lengthAdjust="spacingAndGlyphs" textLength="61" x="479" y="159.82">bool next()</text><circle cx="470" cy="170.316" fill="#84BE84" stroke="#038048" r="3"/><text font-family="sans-serif" font-size="11" font-style="italic" lengthAdjust="spacingAndGlyphs" textLength="64" x="479" y="172.625">bool done()</text><path stroke="#a80036" stroke-dasharray="1,2" d="M460 130.402h53.5"/><text font-family="sans-serif" font-size="11" lengthAdjust="spacingAndGlyphs" textLength="47" x="513.5" y="133.71">iteration</text><path stroke="#a80036" stroke-dasharray="1,2" d="M560.5 130.402H614"/><circle cx="470" cy="199.926" fill="#84BE84" stroke="#038048" r="3"/><text font-family="sans-serif" font-size="11" font-style="italic" lengthAdjust="spacingAndGlyphs" textLength="97" x="479" y="202.234">const state* dst()</text><circle cx="470" cy="212.731" fill="#84BE84" stroke="#038048" r="3"/><text font-family="sans-serif" font-size="11" font-style="italic" lengthAdjust="spacingAndGlyphs" textLength="60" x="479" y="215.039">bdd cond()</text><circle cx="470" cy="225.535" fill="#84BE84" stroke="#038048" r="3"/><text font-family="sans-serif" font-size="11" font-style="italic" lengthAdjust="spacingAndGlyphs" textLength="130" x="479" y="227.843">acc_cond::mark_t acc()</text><path stroke="#a80036" stroke-dasharray="1,2" d="M460 185.621h48"/><text font-family="sans-serif" font-size="11" lengthAdjust="spacingAndGlyphs" textLength="58" x="508" y="188.929">inspection</text><path stroke="#a80036" stroke-dasharray="1,2" d="M566 185.621h48"/><path fill="#FEFECE" filter="url(#a)" stroke="#a80036" stroke-width="1.5" d="M650 103h170v112.023H650z"/><circle cx="714.75" cy="119" fill="#A9DCDF" stroke="#a80036" r="11"/><path d="M714.86 114.344l-1.157 5.078h2.328l-1.172-5.078zm-1.485-2.235h2.984l3.36 12.391h-2.453l-.766-3.063h-3.281l-.75 3.063h-2.438l3.344-12.39z"/><text font-family="sans-serif" font-size="12" font-style="italic" lengthAdjust="spacingAndGlyphs" textLength="32" x="735.25" y="123.154">state</text><path stroke="#a80036" stroke-width="1.5" d="M651 135h168M651 143h168"/><circle cx="661" cy="154.902" fill="#84BE84" stroke="#038048" r="3"/><text font-family="sans-serif" font-size="11" font-style="italic" lengthAdjust="spacingAndGlyphs" textLength="144" x="670" y="157.21">int compare(const state*)</text><circle cx="661" cy="167.707" fill="#84BE84" stroke="#038048" r="3"/><text font-family="sans-serif" font-size="11" font-style="italic" lengthAdjust="spacingAndGlyphs" textLength="71" x="670" y="170.015">size_t hash()</text><circle cx="661" cy="180.512" fill="#84BE84" stroke="#038048" r="3"/><text font-family="sans-serif" font-size="11" font-style="italic" lengthAdjust="spacingAndGlyphs" textLength="76" x="670" y="182.82">state* clone()</text><circle cx="661" cy="193.316" fill="#84BE84" stroke="#038048" r="3"/><text font-family="sans-serif" font-size="11" lengthAdjust="spacingAndGlyphs" textLength="78" x="670" y="195.625">void destroy()</text><path fill="#FF4" stroke="#b38d22" d="M661 201.121l4 4-4 4-4-4z"/><text font-family="sans-serif" font-size="11" lengthAdjust="spacingAndGlyphs" textLength="46" x="670" y="208.429">~state()</text><path d="M171.41 284.27L80.06 431.757M165.61 280.34l16.482-13.316-4.58 20.689-11.902-7.372zM228.265 278.848l-24.217 139.977" fill="none" stroke="#a80036"/><path fill="#A80036" stroke="#a80036" d="M201.81 431.757l5.476-8.186-4.624 3.26-3.259-4.624 2.407 9.55z"/><path stroke="#a80036" d="M202.662 426.831l1.364-7.883"/><path fill="#A80036" stroke="#a80036" d="M230.31 267.024l-4.964 5.23 2.919 6.594 4.964-5.23-2.918-6.594z"/><path d="M570.28 253.292l63.052 178.65M563.589 255.367l-.056-21.19 13.257 16.53-13.201 4.66zM357.884 399.633S338.067 351.007 328 328c-6.948-15.878-14.443-32.502-21.952-48.866" fill="none" stroke="#a80036"/><path fill="#A80036" stroke="#a80036" d="M300.584 267.278l.134 9.848 1.959-5.307 5.307 1.959-7.4-6.5z"/><path stroke="#a80036" d="M302.677 271.819l3.348 7.266"/><path fill="#FFF" stroke="#a80036" d="M362.35 410.77l1.48-7.057-5.946-4.08-1.48 7.058 5.947 4.08z"/><path d="M267.652 267.008A1730.16 1730.16 0 01272 297c2.875 21.255-4.082 28.569 5 48 10.988 23.51 29.581 44.935 47.775 62.082" fill="none" stroke="#a80036" stroke-dasharray="7,7"/><path fill="#A80036" stroke="#a80036" d="M328.893 410.898l-3.882-9.051.214 5.653-5.652.214 9.32 3.184z"/><text font-family="sans-serif" font-size="13" lengthAdjust="spacingAndGlyphs" textLength="41" x="278" y="341.067">create</text><path d="M488.998 245.704l-85.524 154.477" fill="none" stroke="#a80036"/><path fill="#A80036" stroke="#a80036" d="M397.662 410.68l6.405-3.312-.593-7.187-6.406 3.312.594 7.187zM495.38 234.177l-7.86 5.936 5.438-1.562 1.562 5.437.86-9.811z"/><path stroke="#a80036" d="M492.958 238.551l-3.875 6.999"/><path d="M518.198 247.383C513.615 275.71 510 307.303 510 336.5v598c0 19.563-21.424 52.659-21.424 52.659" fill="none" stroke="#a80036"/><path fill="#FFF" stroke="#a80036" d="M480.459 995.997l7.004-1.713 1.113-7.125-7.005 1.713-1.112 7.125z"/><path fill="#A80036" stroke="#a80036" d="M520.439 234.192l-5.45 8.203 4.613-3.274 3.273 4.613-2.436-9.542z"/><path stroke="#a80036" d="M519.602 239.121l-1.34 7.887"/><path d="M378.675 485.41c.688 18.397 1.325 40.902 1.325 61.09v388c0 18.284.49 38.159 1.127 56.273" fill="none" stroke="#a80036" stroke-dasharray="7,7"/><path fill="#A80036" stroke="#a80036" d="M381.31 995.832l3.671-9.139-3.852 4.143-4.143-3.853 4.324 8.85z"/><text font-family="sans-serif" font-size="13" lengthAdjust="spacingAndGlyphs" textLength="41" x="381" y="745.067">create</text><path d="M760.997 234.132l68.454 197.83M754.324 236.254l.076-21.19 13.155 16.612-13.23 4.578z" fill="none" stroke="#a80036"/></svg>