<svg xmlns="http://www.w3.org/2000/svg" height="1538" preserveAspectRatio="none" style="width:1267px;height:1538px" viewBox="0 0 1267 1538" width="1267"><defs><filter height="300%" id="a" width="300%" x="-1" y="-1"><feGaussianBlur result="blurOut" stdDeviation="2"/><feColorMatrix in="blurOut" result="blurOut2" values="0 0 0 0 0 0 0 0 0 0 0 0 0 0 0 0 0 0 .4 0"/><feOffset dx="4" dy="4" in="blurOut2" result="blurOut3"/><feBlend in="SourceGraphic" in2="blurOut3"/></filter></defs><path fill="#FFF" filter="url(#a)" stroke="#000" stroke-width="1.5" d="M14 1224h25l7 22.297h90V1297H14v-73z"/><path stroke="#000" stroke-width="1.5" d="M14 1246.297h32"/><text font-family="sans-serif" font-size="14" font-weight="bold" lengthAdjust="spacingAndGlyphs" textLength="19" x="18" y="1238.995">stl</text><path fill="#FFF" filter="url(#a)" stroke="#000" stroke-width="1.5" d="M144 16h41l7 22.297h1053V1526H144V16z"/><path stroke="#000" stroke-width="1.5" d="M144 38.297h48"/><text font-family="sans-serif" font-size="14" font-weight="bold" lengthAdjust="spacingAndGlyphs" textLength="35" x="148" y="30.995">spot</text><path fill="#FFF" filter="url(#a)" stroke="#000" stroke-width="1.5" d="M152 684h66l7 22.297h983V1518H152V684z"/><path stroke="#000" stroke-width="1.5" d="M152 706.297h73"/><text font-family="sans-serif" font-size="14" font-weight="bold" lengthAdjust="spacingAndGlyphs" textLength="60" x="156" y="698.995">internal</text><path fill="#FEFECE" filter="url(#a)" stroke="#a80036" stroke-width="1.5" d="M21.5 1251h107v37.938h-107z"/><text font-family="sans-serif" font-size="12" font-style="italic" lengthAdjust="spacingAndGlyphs" textLength="66" x="42" y="1267.139">«Concept»</text><text font-family="sans-serif" font-size="12" lengthAdjust="spacingAndGlyphs" textLength="101" x="24.5" y="1281.107">Forward Iterator</text><path fill="#FEFECE" filter="url(#a)" stroke="#a80036" stroke-width="1.5" d="M522 198h406v148.035H522z"/><circle cx="688.25" cy="214" fill="#ADD1B2" stroke="#a80036" r="11"/><path d="M691.219 219.64q-.578.298-1.219.438-.64.156-1.344.156-2.5 0-3.828-1.64-1.312-1.656-1.312-4.781t1.312-4.782q1.328-1.656 3.828-1.656.703 0 1.344.156.656.156 1.219.453v2.72q-.625-.579-1.219-.845-.594-.28-1.219-.28-1.343 0-2.031 1.077-.688 1.063-.688 3.156 0 2.094.688 3.172.688 1.063 2.031 1.063.625 0 1.219-.266.594-.281 1.219-.86v2.72z"/><text font-family="sans-serif" font-size="12" lengthAdjust="spacingAndGlyphs" textLength="65" x="708.75" y="218.154">twa_graph</text><path stroke="#a80036" stroke-width="1.5" d="M523 230h404"/><circle cx="533" cy="241.902" fill="none" stroke="#038048" r="3"/><text font-family="sans-serif" font-size="11" lengthAdjust="spacingAndGlyphs" textLength="380" x="542" y="244.21">typedef digraph&lt;twa_graph_state, twa_graph_edge_data&gt; graph_t</text><path stroke="#a80036" stroke-width="1.5" d="M523 250.805h404"/><circle cx="533" cy="262.707" fill="#84BE84" stroke="#038048" r="3"/><text font-family="sans-serif" font-size="11" lengthAdjust="spacingAndGlyphs" textLength="181" x="542" y="265.015">twa_graph(const bdd_dict_ptr&amp;)</text><circle cx="533" cy="275.512" fill="#84BE84" stroke="#038048" r="3"/><text font-family="sans-serif" font-size="11" lengthAdjust="spacingAndGlyphs" textLength="122" x="542" y="277.82">graph_t&amp; get_graph()</text><circle cx="533" cy="305.121" fill="#84BE84" stroke="#038048" r="3"/><text font-family="sans-serif" font-size="11" lengthAdjust="spacingAndGlyphs" textLength="190" x="542" y="307.429">unsigned get_init_state_number()</text><circle cx="533" cy="317.926" fill="#84BE84" stroke="#038048" r="3"/><text font-family="sans-serif" font-size="11" lengthAdjust="spacingAndGlyphs" textLength="269" x="542" y="320.234">internal::state_out&lt;graph_t&gt; out(unsigned src)</text><path stroke="#a80036" stroke-dasharray="1,2" d="M523 290.816h170.5"/><text font-family="sans-serif" font-size="11" lengthAdjust="spacingAndGlyphs" textLength="63" x="693.5" y="294.125">exploration</text><path stroke="#a80036" stroke-dasharray="1,2" d="M756.5 290.816H927M523 333.231h139"/><text font-family="sans-serif" font-size="11" lengthAdjust="spacingAndGlyphs" textLength="126" x="662" y="336.539">other methods hidden</text><path stroke="#a80036" stroke-dasharray="1,2" d="M788 333.231h139"/><path fill="#FEFECE" filter="url(#a)" stroke="#a80036" stroke-width="1.5" d="M839.5 43h55v32h-55z"/><circle cx="854.5" cy="59" fill="#A9DCDF" stroke="#a80036" r="11"/><path d="M854.61 54.344l-1.157 5.078h2.328l-1.172-5.078zm-1.485-2.235h2.984l3.36 12.391h-2.453l-.766-3.063h-3.281l-.75 3.063h-2.438l3.344-12.39z"/><text font-family="sans-serif" font-size="12" font-style="italic" lengthAdjust="spacingAndGlyphs" textLength="23" x="868.5" y="63.154">twa</text><path fill="#FEFECE" filter="url(#a)" stroke="#a80036" stroke-width="1.5" d="M500 469h450v97.621H500z"/><circle cx="561.75" cy="485" fill="#ADD1B2" stroke="#a80036" r="11"/><path d="M564.719 490.64q-.578.298-1.219.438-.64.156-1.344.156-2.5 0-3.828-1.64-1.312-1.656-1.312-4.781t1.312-4.782q1.328-1.656 3.828-1.656.703 0 1.344.156.656.156 1.219.453v2.72q-.625-.579-1.219-.845-.594-.28-1.219-.28-1.343 0-2.031 1.077-.688 1.063-.688 3.156 0 2.094.688 3.172.688 1.063 2.031 1.063.625 0 1.219-.266.594-.281 1.219-.86v2.72z"/><text font-family="sans-serif" font-size="12" lengthAdjust="spacingAndGlyphs" textLength="318" x="582.25" y="489.154">digraph&lt;twa_graph_state, twa_graph_edge_data&gt;</text><path stroke="#a80036" stroke-width="1.5" d="M501 501h448"/><circle cx="511" cy="512.902" fill="#84BE84" stroke="#038048" r="3"/><text font-family="sans-serif" font-size="11" lengthAdjust="spacingAndGlyphs" textLength="424" x="520" y="515.21">internal::edge_storage&lt;twa_graph_edge_data&gt; edge_storage(unsigned s)</text><circle cx="511" cy="525.707" fill="#84BE84" stroke="#038048" r="3"/><text font-family="sans-serif" font-size="11" lengthAdjust="spacingAndGlyphs" textLength="406" x="520" y="528.015">internal::distate_storage&lt;twa_graph_state&gt; state_storage(unsigned s)</text><circle cx="511" cy="538.512" fill="#84BE84" stroke="#038048" r="3"/><text font-family="sans-serif" font-size="11" lengthAdjust="spacingAndGlyphs" textLength="269" x="520" y="540.82">internal::state_out&lt;graph_t&gt; out(unsigned src)</text><path stroke="#a80036" stroke-dasharray="1,2" d="M501 553.816h164.5"/><text font-family="sans-serif" font-size="11" lengthAdjust="spacingAndGlyphs" textLength="119" x="665.5" y="557.125">other details omitted</text><path stroke="#a80036" stroke-dasharray="1,2" d="M784.5 553.816H949"/><path fill="#FEFECE" filter="url(#a)" stroke="#a80036" stroke-width="1.5" d="M985 481h170v73.609H985z"/><circle cx="1000" cy="497" fill="#ADD1B2" stroke="#a80036" r="11"/><path d="M1002.969 502.64q-.578.298-1.219.438-.64.156-1.344.156-2.5 0-3.828-1.64-1.312-1.656-1.312-4.781t1.312-4.782q1.328-1.656 3.828-1.656.703 0 1.344.156.656.156 1.219.453v2.72q-.625-.579-1.219-.845-.594-.28-1.219-.28-1.343 0-2.031 1.077-.688 1.063-.688 3.156 0 2.094.688 3.172.688 1.063 2.031 1.063.625 0 1.219-.266.594-.281 1.219-.86v2.72z"/><text font-family="sans-serif" font-size="12" lengthAdjust="spacingAndGlyphs" textLength="138" x="1014" y="501.154">twa_graph_edge_data</text><path stroke="#a80036" stroke-width="1.5" d="M986 513h168"/><circle cx="996" cy="524.902" fill="none" stroke="#038048" r="3"/><text font-family="sans-serif" font-size="11" lengthAdjust="spacingAndGlyphs" textLength="52" x="1005" y="527.21">bdd cond</text><circle cx="996" cy="537.707" fill="none" stroke="#038048" r="3"/><text font-family="sans-serif" font-size="11" lengthAdjust="spacingAndGlyphs" textLength="122" x="1005" y="540.015">acc_cond::mark_t acc</text><path stroke="#a80036" stroke-width="1.5" d="M986 546.609h168"/><path fill="#FEFECE" filter="url(#a)" stroke="#a80036" stroke-width="1.5" d="M220 502h136v32H220z"/><circle cx="235" cy="518" fill="#ADD1B2" stroke="#a80036" r="11"/><path d="M237.969 523.64q-.578.298-1.219.438-.64.156-1.344.156-2.5 0-3.828-1.64-1.312-1.657-1.312-4.782t1.312-4.78q1.328-1.657 3.828-1.657.703 0 1.344.156.656.156 1.219.453v2.72q-.625-.579-1.219-.845-.594-.28-1.219-.28-1.344 0-2.031 1.077-.688 1.063-.688 3.157 0 2.093.688 3.171.688 1.063 2.031 1.063.625 0 1.219-.266.594-.281 1.219-.86v2.72z"/><text font-family="sans-serif" font-size="12" lengthAdjust="spacingAndGlyphs" textLength="104" x="249" y="522.154">twa_graph_state</text><path fill="#FEFECE" filter="url(#a)" stroke="#a80036" stroke-width="1.5" d="M963.5 256h91v32h-91z"/><circle cx="978.5" cy="272" fill="#ADD1B2" stroke="#a80036" r="11"/><path d="M981.469 277.64q-.578.298-1.219.438-.64.156-1.344.156-2.5 0-3.828-1.64-1.312-1.656-1.312-4.781t1.312-4.782q1.328-1.656 3.828-1.656.703 0 1.344.156.656.156 1.219.453v2.72q-.625-.579-1.219-.845-.594-.28-1.219-.28-1.343 0-2.031 1.077-.688 1.063-.688 3.156 0 2.094.688 3.172.688 1.063 2.031 1.063.625 0 1.219-.266.594-.281 1.219-.86v2.72z"/><text font-family="sans-serif" font-size="12" lengthAdjust="spacingAndGlyphs" textLength="59" x="992.5" y="276.154">acc_cond</text><path fill="#FEFECE" filter="url(#a)" stroke="#a80036" stroke-width="1.5" d="M451 711h436v86.414H451z"/><circle cx="468.7" cy="727" fill="#ADD1B2" stroke="#a80036" r="11"/><path d="M471.669 732.64q-.578.298-1.219.438-.64.156-1.344.156-2.5 0-3.828-1.64-1.312-1.657-1.312-4.782t1.312-4.78q1.328-1.657 3.828-1.657.703 0 1.344.156.656.157 1.219.453v2.72q-.625-.579-1.219-.845-.594-.28-1.219-.28-1.344 0-2.031 1.077-.688 1.063-.688 3.157 0 2.093.688 3.171.688 1.063 2.031 1.063.625 0 1.219-.266.594-.281 1.219-.86v2.72z"/><text font-family="sans-serif" font-size="12" lengthAdjust="spacingAndGlyphs" textLength="398" x="483.3" y="731.154">state_out&lt;digraph&lt;twa_graph_state, twa_graph_edge_data&gt;&gt;</text><path stroke="#a80036" stroke-width="1.5" d="M452 743h434"/><text font-family="sans-serif" font-size="11" lengthAdjust="spacingAndGlyphs" textLength="66" x="457" y="757.21">unsigned t_</text><path stroke="#a80036" stroke-width="1.5" d="M452 763.805h434"/><text font-family="sans-serif" font-size="11" lengthAdjust="spacingAndGlyphs" textLength="424" x="457" y="778.015">edge_iterator&lt;digraph&lt;twa_graph_state, twa_graph_edge_data&gt;&gt; begin()</text><text font-family="sans-serif" font-size="11" lengthAdjust="spacingAndGlyphs" textLength="414" x="457" y="790.82">edge_iterator&lt;digraph&lt;twa_graph_state, twa_graph_edge_data&gt;&gt; end()</text><path fill="#FEFECE" filter="url(#a)" stroke="#a80036" stroke-width="1.5" d="M441.5 1366h455v144.035h-455z"/><circle cx="456.5" cy="1382" fill="#ADD1B2" stroke="#a80036" r="11"/><path d="M459.469 1387.64q-.578.297-1.219.438-.64.156-1.344.156-2.5 0-3.828-1.64-1.312-1.657-1.312-4.782 0-3.124 1.312-4.78 1.328-1.657 3.828-1.657.703 0 1.344.156.656.157 1.219.453v2.72q-.625-.579-1.219-.845-.594-.28-1.219-.28-1.344 0-2.031 1.077-.688 1.063-.688 3.157 0 2.093.688 3.171.688 1.063 2.031 1.063.625 0 1.219-.266.594-.281 1.219-.86v2.72z"/><text font-family="sans-serif" font-size="12" lengthAdjust="spacingAndGlyphs" textLength="423" x="470.5" y="1386.154">edge_iterator&lt;digraph&lt;twa_graph_state, twa_graph_edge_data&gt;&gt;</text><path stroke="#a80036" stroke-width="1.5" d="M442.5 1398h453"/><text font-family="sans-serif" font-size="11" lengthAdjust="spacingAndGlyphs" textLength="66" x="447.5" y="1412.21">unsigned t_</text><path stroke="#a80036" stroke-width="1.5" d="M442.5 1418.805h453"/><text font-family="sans-serif" font-size="11" lengthAdjust="spacingAndGlyphs" textLength="179" x="447.5" y="1433.015">bool operator==(edge_iterator)</text><text font-family="sans-serif" font-size="11" lengthAdjust="spacingAndGlyphs" textLength="173" x="447.5" y="1445.82">bool operator!=(edge_iterator)</text><text font-family="sans-serif" font-size="11" lengthAdjust="spacingAndGlyphs" textLength="373" x="447.5" y="1458.624">edge_storage&lt;twa_graph_edge_data&gt;&amp; operator*(edge_iterator)</text><text font-family="sans-serif" font-size="11" lengthAdjust="spacingAndGlyphs" textLength="376" x="447.5" y="1471.429">edge_storage&lt;twa_graph_edge_data&gt;* operator-&gt;(edge_iterator)</text><text font-family="sans-serif" font-size="11" lengthAdjust="spacingAndGlyphs" textLength="155" x="447.5" y="1484.234">edge_iterator operator++()</text><path stroke="#a80036" stroke-dasharray="1,2" d="M442.5 1497.23H606"/><text font-family="sans-serif" font-size="11" lengthAdjust="spacingAndGlyphs" textLength="126" x="606" y="1500.539">other methods hidden</text><path stroke="#a80036" stroke-dasharray="1,2" d="M732 1497.23h163.5"/><path fill="#FEFECE" filter="url(#a)" stroke="#a80036" stroke-width="1.5" d="M922.5 711h277v86.414h-277z"/><circle cx="937.5" cy="727" fill="#ADD1B2" stroke="#a80036" r="11"/><path d="M940.469 732.64q-.578.298-1.219.438-.64.156-1.344.156-2.5 0-3.828-1.64-1.312-1.657-1.312-4.782t1.312-4.78q1.328-1.657 3.828-1.657.703 0 1.344.156.656.157 1.219.453v2.72q-.625-.579-1.219-.845-.594-.28-1.219-.28-1.343 0-2.031 1.077-.688 1.063-.688 3.157 0 2.093.688 3.171.688 1.063 2.031 1.063.625 0 1.219-.266.594-.281 1.219-.86v2.72z"/><text font-family="sans-serif" font-size="12" lengthAdjust="spacingAndGlyphs" textLength="245" x="951.5" y="731.154">edge_storage&lt;twa_graph_edge_data&gt;</text><path stroke="#a80036" stroke-width="1.5" d="M923.5 743h275"/><circle cx="933.5" cy="754.902" fill="none" stroke="#038048" r="3"/><text font-family="sans-serif" font-size="11" lengthAdjust="spacingAndGlyphs" textLength="74" x="942.5" y="757.21">unsigned src</text><circle cx="933.5" cy="767.707" fill="none" stroke="#038048" r="3"/><text font-family="sans-serif" font-size="11" lengthAdjust="spacingAndGlyphs" textLength="74" x="942.5" y="770.015">unsigned dst</text><circle cx="933.5" cy="780.512" fill="none" stroke="#038048" r="3"/><text font-family="sans-serif" font-size="11" lengthAdjust="spacingAndGlyphs" textLength="112" x="942.5" y="782.82">unsigned next_succ</text><path stroke="#a80036" stroke-width="1.5" d="M923.5 789.414h275"/><path fill="#FEFECE" filter="url(#a)" stroke="#a80036" stroke-width="1.5" d="M160.5 717h255v73.609h-255z"/><circle cx="175.5" cy="733" fill="#ADD1B2" stroke="#a80036" r="11"/><path d="M178.469 738.64q-.578.298-1.219.438-.64.156-1.344.156-2.5 0-3.828-1.64-1.312-1.657-1.312-4.782t1.312-4.78q1.328-1.657 3.828-1.657.703 0 1.344.156.656.157 1.219.453v2.72q-.625-.579-1.219-.845-.594-.28-1.219-.28-1.344 0-2.031 1.077-.688 1.063-.688 3.157 0 2.093.688 3.171.688 1.063 2.031 1.063.625 0 1.219-.266.594-.281 1.219-.86v2.72z"/><text font-family="sans-serif" font-size="12" lengthAdjust="spacingAndGlyphs" textLength="223" x="189.5" y="737.154">distate_storage&lt;twa_graph_state&gt;</text><path stroke="#a80036" stroke-width="1.5" d="M161.5 749h253"/><circle cx="171.5" cy="760.902" fill="none" stroke="#038048" r="3"/><text font-family="sans-serif" font-size="11" lengthAdjust="spacingAndGlyphs" textLength="82" x="180.5" y="763.21">unsigned succ</text><circle cx="171.5" cy="773.707" fill="none" stroke="#038048" r="3"/><text font-family="sans-serif" font-size="11" lengthAdjust="spacingAndGlyphs" textLength="105" x="180.5" y="776.015">unsigned succ_tail</text><path stroke="#a80036" stroke-width="1.5" d="M161.5 782.609h253"/><path d="M140.54 1295.845c1.16.393 2.314.778 3.46 1.155 96.377 31.69 204.388 61.63 297.268 85.7" fill="none" stroke="#a80036" stroke-dasharray="7,7"/><path fill="none" stroke="#a80036" d="M137.966 1302.359l-16.454-13.353 21.19.178-4.736 13.175z"/><text font-family="sans-serif" font-size="13" lengthAdjust="spacingAndGlyphs" textLength="56" x="258" y="1332.067">model of</text><path d="M845.19 91.715l-70.586 105.88M839.409 87.768l16.918-12.758-5.27 20.524-11.649-7.766zM725 358.142v97.394" fill="none" stroke="#a80036"/><path fill="#A80036" stroke="#a80036" d="M725 468.894l4-9-4 4-4-4 4 9z"/><path stroke="#a80036" d="M725 463.894v-8"/><path fill="#A80036" stroke="#a80036" d="M725 346.142l-4 6 4 6 4-6-4-6z"/><text font-family="sans-serif" font-size="13" lengthAdjust="spacingAndGlyphs" textLength="8" x="716.438" y="458.037">1</text><path d="M804.847 574.083l183.865 129.144" fill="none" stroke="#a80036"/><path fill="#A80036" stroke="#a80036" d="M999.53 710.824l-5.066-8.446.974 5.572-5.572.975 9.664 1.9z"/><path stroke="#a80036" d="M995.438 707.951l-6.546-4.599"/><path fill="#A80036" stroke="#a80036" d="M795.028 567.186l2.61 6.722 7.21.175-2.611-6.721-7.21-.176z"/><text font-family="sans-serif" font-size="13" lengthAdjust="spacingAndGlyphs" textLength="7" x="982.175" y="699.793">*</text><path d="M623.63 572.745L368.48 710.537" fill="none" stroke="#a80036"/><path fill="#A80036" stroke="#a80036" d="M356.85 716.818l9.82-.757-5.421-1.619 1.619-5.42-6.019 7.796z"/><path stroke="#a80036" d="M361.249 714.442l7.039-3.801"/><path fill="#A80036" stroke="#a80036" d="M634.188 567.043l-7.18-.669-3.379 6.37 7.18.67 3.379-6.371z"/><text font-family="sans-serif" font-size="13" lengthAdjust="spacingAndGlyphs" textLength="7" x="361.49" y="705.973">*</text><path d="M1067.818 575.225l-5.166 135.452M1060.827 574.853l7.757-19.718 6.232 20.252-13.99-.534zM288 554.231v162.636M281 554.221l7-20 7 20h-14zM884.33 84.994l106.533 159.8" fill="none" stroke="#a80036"/><path fill="#A80036" stroke="#a80036" d="M998.203 255.805l-1.664-9.708-1.11 5.547-5.546-1.11 8.32 5.27z"/><path stroke="#a80036" d="M995.43 251.644l-4.438-6.656"/><path fill="#A80036" stroke="#a80036" d="M877.673 75.01v7.21l6.657 2.774v-7.21l-6.657-2.774z"/><path d="M678.908 699.164S688.528 650.826 694 628c3.758-15.677 8.253-32.483 12.64-48.122" fill="none" stroke="#a80036"/><path fill="#A80036" stroke="#a80036" d="M710.28 567.065l-6.308 7.564 4.94-2.754 2.755 4.94-1.388-9.75z"/><path stroke="#a80036" d="M708.913 571.875l-2.187 7.695"/><path fill="#FFF" stroke="#a80036" d="M676.671 710.953l5.049-5.149-2.812-6.64-5.048 5.149 2.811 6.64z"/><path d="M716.119 567.14c-1.94 10.216-4.037 20.901-6.119 30.86-7.28 34.825-8.965 43.589-18 78-2.557 9.74-5.475 20.108-8.354 29.997" fill="none" stroke="#a80036" stroke-dasharray="7,7"/><path fill="#A80036" stroke="#a80036" d="M682.237 710.809l6.368-7.514-4.963 2.715-2.715-4.962 1.31 9.76z"/><text font-family="sans-serif" font-size="13" lengthAdjust="spacingAndGlyphs" textLength="41" x="704" y="641.067">create</text><path d="M669 797.216v563.167" fill="none" stroke="#a80036" stroke-dasharray="7,7"/><path fill="#A80036" stroke="#a80036" d="M669 1365.644l4-9-4 4-4-4 4 9z"/><text font-family="sans-serif" font-size="13" lengthAdjust="spacingAndGlyphs" textLength="41" x="670" y="1057.067">create</text><path d="M908.618 1410.702S1236 1342.336 1236 1270V636.5c0-7.616-139.608-39.645-272.88-68.486" fill="none" stroke="#a80036"/><path fill="#A80036" stroke="#a80036" d="M950.248 565.234l7.952 5.81-3.065-4.754 4.754-3.066-9.641 2.01z"/><path stroke="#a80036" d="M955.135 566.29l7.82 1.689"/><path fill="#FFF" stroke="#a80036" d="M896.762 1412.555l6.545 3.026 5.31-4.879-6.545-3.025-5.31 4.878z"/></svg>